<svg width="1500" height="350" viewBox="0 0 1500 350" fill="none" xmlns="http://www.w3.org/2000/svg">
<g clip-path="url(#clip0_3194_6336)">
<rect width="1500" height="350" fill="#E6F0FC"/>
<path fill-rule="evenodd" clip-rule="evenodd" d="M1281.54 325.707H1682.33C1640.84 141.032 1566.6 18 1481.94 18C1397.27 18 1323.04 141.032 1281.54 325.707Z" fill="#649D35"/>
<path fill-rule="evenodd" clip-rule="evenodd" d="M1491.82 18.5605C1435.84 71.9046 1388.61 182.033 1358.09 325.707H1281.54C1323.04 141.032 1397.27 18 1481.94 18C1485.25 18 1488.54 18.1881 1491.82 18.5605Z" fill="#467609"/>
<path d="M1417.53 210.668C1404.37 199.012 1378.27 194.64 1366.87 193.912C1376.08 193.912 1477.4 164.77 1494.51 159.671C1511.61 154.571 1542.95 141.518 1542.95 134.101C1542.95 122.343 1497.15 108.72 1483.33 102.892C1469.52 97.0632 1439.9 84.234 1428.06 71.8488C1416.21 59.4636 1428.06 48.7905 1438.43 41.4142C1449.06 33.8528 1479.05 18.3558 1484.72 18.0665C1490.38 17.7772 1495.81 18.4782 1494.23 19.2801C1475.19 28.9644 1456.9 40.8018 1444.34 52.4814C1433.18 62.8569 1473.14 77.9552 1514.59 93.9831C1556.03 110.011 1577.61 120.268 1577.61 134.101C1577.61 147.152 1558.61 159.141 1539.53 170.07C1524.27 178.812 1470.22 197.312 1443.03 210.668C1433.81 215.525 1430.69 222.325 1417.53 210.668Z" fill="#9A9A9A"/>
<path fill-rule="evenodd" clip-rule="evenodd" d="M1107 327H1528.48C1484.84 238.542 1406.78 179.611 1317.74 179.611C1228.7 179.611 1150.64 238.542 1107 327Z" fill="#186219"/>
<path fill-rule="evenodd" clip-rule="evenodd" d="M1321.31 179.642C1258.78 198.928 1205.65 252.678 1172.94 325.707L1107 325.707C1150.64 238.025 1228.7 179.611 1317.74 179.611C1318.93 179.611 1320.13 179.621 1321.31 179.642Z" fill="#124A13"/>
<path d="M1265.66 206.086C1264.47 198.26 1294.4 184.687 1308.71 180.262C1314.42 178.956 1329.43 179.59 1322.03 182.385C1314.63 185.18 1289.48 197.898 1294.65 203.321C1301.31 210.308 1351.63 217.296 1370.87 226.379C1400.48 240.355 1393.81 257.152 1386.41 269.73C1376.4 286.745 1358.29 301.173 1345.71 308.86C1335.65 315.009 1337.57 325.602 1339.79 327H1185.87C1188.33 323.739 1198.45 315.121 1202.89 312.354C1212.51 306.357 1241.37 297.652 1279.11 289.966C1316.85 282.28 1351.36 268.715 1351.36 253.288C1351.36 236.476 1333.19 231.438 1314.63 226.379C1301.86 222.898 1267.14 215.869 1265.66 206.086Z" fill="#B2B2B2"/>
<path fill-rule="evenodd" clip-rule="evenodd" d="M280.208 82.5634H251.969C251.957 82.5634 251.944 82.5634 251.932 82.5634C251.92 82.5634 251.907 82.5634 251.895 82.5634H226.093C226.078 82.5634 226.064 82.5635 226.049 82.5635C226.034 82.5635 226.019 82.5634 226.004 82.5634H224.242V82.4562C216.783 81.5639 211 75.2147 211 67.5148C211 59.2037 217.738 52.4662 226.049 52.4662C226.403 52.4662 226.754 52.4784 227.101 52.5024C229.336 40.8249 239.603 32 251.932 32C263.558 32 273.351 39.8474 276.303 50.5343C277.559 50.2234 278.872 50.0583 280.224 50.0583C289.2 50.0583 296.476 57.3349 296.476 66.3109C296.476 74.6766 290.156 81.5661 282.029 82.4643V82.5634H280.24C280.234 82.5634 280.229 82.5634 280.224 82.5634C280.218 82.5634 280.213 82.5634 280.208 82.5634Z" fill="white" fill-opacity="0.6"/>
<path fill-rule="evenodd" clip-rule="evenodd" d="M239.993 108.515C240.259 108.529 240.527 108.536 240.796 108.536C249.233 108.536 256.072 101.696 256.072 93.2598C256.072 84.8231 249.233 77.9839 240.796 77.9839C239.915 77.9839 239.051 78.0585 238.21 78.2019C234.873 70.5045 227.207 65.1199 218.283 65.1199C216.478 65.1199 214.725 65.3402 213.048 65.7555C209.104 51.4815 196.024 41 180.496 41C163.081 41 148.746 54.1822 146.924 71.1123C144.857 70.3565 142.624 69.944 140.296 69.944C129.639 69.944 121 78.5831 121 89.2399C121 99.8968 129.639 108.536 140.296 108.536C141.392 108.536 142.467 108.444 143.513 108.269V108.536H239.993V108.515Z" fill="white"/>
<path fill-rule="evenodd" clip-rule="evenodd" d="M615.208 42.5634H586.969C586.957 42.5634 586.944 42.5634 586.932 42.5634C586.92 42.5634 586.907 42.5634 586.895 42.5634H561.093C561.078 42.5634 561.064 42.5635 561.049 42.5635C561.034 42.5635 561.019 42.5634 561.004 42.5634H559.242V42.4562C551.783 41.5639 546 35.2147 546 27.5148C546 19.2037 552.738 12.4662 561.049 12.4662C561.403 12.4662 561.754 12.4784 562.101 12.5024C564.336 0.824891 574.603 -8 586.932 -8C598.558 -8 608.351 -0.15255 611.303 10.5343C612.559 10.2234 613.872 10.0583 615.224 10.0583C624.2 10.0583 631.476 17.3349 631.476 26.3109C631.476 34.6766 625.156 41.5661 617.029 42.4643V42.5634H615.24C615.234 42.5634 615.229 42.5634 615.224 42.5634C615.218 42.5634 615.213 42.5634 615.208 42.5634Z" fill="white" fill-opacity="0.6"/>
<path fill-rule="evenodd" clip-rule="evenodd" d="M953.208 373.563H924.969C924.957 373.563 924.944 373.563 924.932 373.563C924.92 373.563 924.907 373.563 924.895 373.563H899.093C899.078 373.563 899.064 373.563 899.049 373.563C899.034 373.563 899.019 373.563 899.004 373.563H897.242V373.456C889.783 372.564 884 366.215 884 358.515C884 350.204 890.738 343.466 899.049 343.466C899.403 343.466 899.754 343.478 900.101 343.502C902.336 331.825 912.603 323 924.932 323C936.558 323 946.351 330.847 949.303 341.534C950.559 341.223 951.872 341.058 953.224 341.058C962.2 341.058 969.476 348.335 969.476 357.311C969.476 365.677 963.156 372.566 955.029 373.464V373.563H953.24C953.234 373.563 953.229 373.563 953.224 373.563C953.218 373.563 953.213 373.563 953.208 373.563Z" fill="white"/>
<path fill-rule="evenodd" clip-rule="evenodd" d="M1142.21 112.563H1113.97C1113.96 112.563 1113.94 112.563 1113.93 112.563C1113.92 112.563 1113.91 112.563 1113.89 112.563H1088.09C1088.08 112.563 1088.06 112.563 1088.05 112.563C1088.03 112.563 1088.02 112.563 1088 112.563H1086.24V112.456C1078.78 111.564 1073 105.215 1073 97.5148C1073 89.2037 1079.74 82.4662 1088.05 82.4662C1088.4 82.4662 1088.75 82.4784 1089.1 82.5024C1091.34 70.8249 1101.6 62 1113.93 62C1125.56 62 1135.35 69.8474 1138.3 80.5343C1139.56 80.2234 1140.87 80.0583 1142.22 80.0583C1151.2 80.0583 1158.48 87.3349 1158.48 96.3109C1158.48 104.677 1152.16 111.566 1144.03 112.464V112.563H1142.24C1142.23 112.563 1142.23 112.563 1142.22 112.563C1142.22 112.563 1142.21 112.563 1142.21 112.563Z" fill="white"/>
<path fill-rule="evenodd" clip-rule="evenodd" d="M763.93 86.9659C764.361 86.9884 764.795 86.9997 765.232 86.9997C778.911 86.9997 790 75.8602 790 62.1189C790 48.3775 778.911 37.238 765.232 37.238C763.803 37.238 762.402 37.3596 761.039 37.5931C755.629 25.0558 743.2 16.2855 728.731 16.2855C725.804 16.2855 722.961 16.6444 720.242 17.3208C713.849 -5.92816 692.641 -23 667.464 -23C639.229 -23 615.986 -1.52936 613.031 26.0459C609.68 24.8147 606.061 24.1429 602.286 24.1429C585.007 24.1429 571 38.2139 571 55.5714C571 72.9289 585.007 86.9999 602.286 86.9999C604.063 86.9999 605.806 86.851 607.502 86.565V87H763.93V86.9659Z" fill="white"/>
<path d="M141.308 141.44V138H137.748V115.56H142.468V136.48H151.988V133H156.748V138H153.148V141.44H141.308ZM164.387 141.44V138H160.827V119.08H164.387V115.56H176.227V119.08H179.827V124.04H175.067V120.56H165.547V126.04H172.707V130.96H165.547V136.48H175.067V133H179.827V138H176.227V141.44H164.387ZM190.986 141.44V138H187.466V130.96H183.906V115.56H188.626V129.48H192.186V136.48H194.586V129.48H198.146V115.56H202.906V130.96H199.306V138H195.786V141.44H190.986ZM210.546 141.44V138H206.986V119.08H210.546V115.56H222.386V119.08H225.986V124.04H221.226V120.56H211.706V126.04H218.866V130.96H211.706V136.48H221.226V133H225.986V138H222.386V141.44H210.546ZM233.625 141.44V138H230.065V115.56H234.785V136.48H244.305V133H249.065V138H245.465V141.44H233.625ZM263.924 141.44V138H260.364V115.56H265.084V136.48H274.604V115.56H279.364V138H275.764V141.44H263.924ZM283.443 141.44V119.08H287.003V115.56H298.843V119.08H302.443V130.96H298.843V134.48H288.163V141.44H283.443ZM288.163 129.48H297.683V120.56H288.163V129.48ZM306.523 134.48V115.56H311.243V134.48H306.523ZM306.523 141.44V136.48H311.243V141.44H306.523Z" fill="#333333"/>
<path d="M1520 363V291H-6V363H1520Z" fill="#649D35" stroke="black" stroke-width="4"/>
<path d="M1520 340.699L-6 309V352.791L1520 359V340.699Z" fill="#C78A0C" stroke="black" stroke-width="4"/>
<path d="M1520 357.803L-6 326V366H1520V357.803Z" fill="#754C24" stroke="black" stroke-width="4"/>
<path d="M351.5 208L322 237.5" stroke="#333333" stroke-width="4" stroke-linecap="round" stroke-linejoin="round"/>
<path d="M367.5 208L338 237.5" stroke="#333333" stroke-width="4" stroke-linecap="round" stroke-linejoin="round"/>
<path d="M368.5 223L339 252.5" stroke="#333333" stroke-width="4" stroke-linecap="round" stroke-linejoin="round"/>
<rect x="1151.03" y="103.03" width="31.9394" height="31.9394" rx="5.15152" fill="#FDB515" stroke="black" stroke-width="2.06061"/>
<rect x="1152.06" y="104.061" width="27.8182" height="27.8182" rx="6.18182" fill="#FED77F"/>
<rect x="1153.09" y="106.121" width="6.18182" height="1.0303" transform="rotate(90 1153.09 106.121)" fill="white"/>
<rect x="1153.09" y="113.333" width="1.0303" height="1.0303" transform="rotate(90 1153.09 113.333)" fill="white"/>
<rect x="1154.12" y="105.091" width="1.0303" height="1.0303" transform="rotate(90 1154.12 105.091)" fill="white"/>
<rect x="1154.12" y="104.061" width="7.21212" height="1.0303" fill="white"/>
<rect x="1185.03" y="103.03" width="31.9394" height="31.9394" rx="5.15152" fill="#FDB515" stroke="black" stroke-width="2.06061"/>
<rect x="1186.06" y="104.061" width="27.8182" height="27.8182" rx="6.18182" fill="#FED77F"/>
<rect x="1187.09" y="106.121" width="6.18182" height="1.0303" transform="rotate(90 1187.09 106.121)" fill="white"/>
<rect x="1187.09" y="113.333" width="1.0303" height="1.0303" transform="rotate(90 1187.09 113.333)" fill="white"/>
<rect x="1188.12" y="105.091" width="1.0303" height="1.0303" transform="rotate(90 1188.12 105.091)" fill="white"/>
<rect x="1188.12" y="104.061" width="7.21212" height="1.0303" fill="white"/>
<rect x="1219.03" y="103.03" width="31.9394" height="31.9394" rx="5.15152" fill="#FDB515" stroke="black" stroke-width="2.06061"/>
<rect x="1220.06" y="104.061" width="27.8182" height="27.8182" rx="6.18182" fill="#FED77F"/>
<rect x="1221.09" y="106.121" width="6.18182" height="1.0303" transform="rotate(90 1221.09 106.121)" fill="white"/>
<rect x="1221.09" y="113.333" width="1.0303" height="1.0303" transform="rotate(90 1221.09 113.333)" fill="white"/>
<rect x="1222.12" y="105.091" width="1.0303" height="1.0303" transform="rotate(90 1222.12 105.091)" fill="white"/>
<rect x="1222.12" y="104.061" width="7.21212" height="1.0303" fill="white"/>
<rect x="1253.03" y="103.03" width="31.9394" height="31.9394" rx="5.15152" fill="#FDB515" stroke="black" stroke-width="2.06061"/>
<rect x="1254.06" y="104.061" width="27.8182" height="27.8182" rx="6.18182" fill="#FED77F"/>
<rect x="1255.09" y="106.121" width="6.18182" height="1.0303" transform="rotate(90 1255.09 106.121)" fill="white"/>
<rect x="1255.09" y="113.333" width="1.0303" height="1.0303" transform="rotate(90 1255.09 113.333)" fill="white"/>
<rect x="1256.12" y="105.091" width="1.0303" height="1.0303" transform="rotate(90 1256.12 105.091)" fill="white"/>
<rect x="1256.12" y="104.061" width="7.21212" height="1.0303" fill="white"/>
<rect x="1287.03" y="103.03" width="31.9394" height="31.9394" rx="5.15152" fill="#FDB515" stroke="black" stroke-width="2.06061"/>
<rect x="1288.06" y="104.061" width="27.8182" height="27.8182" rx="6.18182" fill="#FED77F"/>
<rect x="1289.09" y="106.121" width="6.18182" height="1.0303" transform="rotate(90 1289.09 106.121)" fill="white"/>
<rect x="1289.09" y="113.333" width="1.0303" height="1.0303" transform="rotate(90 1289.09 113.333)" fill="white"/>
<rect x="1290.12" y="105.091" width="1.0303" height="1.0303" transform="rotate(90 1290.12 105.091)" fill="white"/>
<rect x="1290.12" y="104.061" width="7.21212" height="1.0303" fill="white"/>
<path d="M1300.84 122.89V116.694H1305.74V112.671H1299.23V117.781H1296V111.584H1298.44V109H1306.54V111.584H1309V117.781H1306.54V120.306H1304.13V122.89H1300.84ZM1300.84 128V124.359H1304.13V128H1300.84Z" fill="black"/>
<path d="M1174.17 118.021L1160.75 111.312H1158.83V125.08H1156.92L1159.79 128.083L1162.67 125.08H1160.75V113.708L1165.54 116.104V125.08H1163.62L1166.5 128.083L1169.37 125.08H1167.46V116.958L1172.25 119.398V125.08H1170.33L1173.21 128.083L1176.08 125.08H1174.17V118.021Z" fill="black"/>
<path d="M1174.17 108.917H1172.25V114.667H1174.17V108.917Z" fill="black"/>
<path d="M1176.08 112.75V110.833H1170.33V112.75H1176.08Z" fill="black"/>
<path d="M1225.83 110.75V118.083C1225.83 118.633 1226.2 119 1226.75 119L1243.25 115.333C1243.8 115.333 1244.17 114.967 1244.17 114.417V110.75C1244.17 110.2 1243.8 109.833 1243.25 109.833H1226.75C1226.2 109.833 1225.83 110.2 1225.83 110.75ZM1242.33 113.5L1227.67 117.167V111.667H1242.33V113.5Z" fill="black"/>
<path fill-rule="evenodd" clip-rule="evenodd" d="M1235.61 119.229C1235.8 119.403 1235.92 119.654 1235.92 119.917V127.25C1235.92 127.756 1235.51 128.167 1235 128.167H1226.75C1226.24 128.167 1225.83 127.756 1225.83 127.25V120.833C1225.83 120.371 1226.18 119.981 1226.64 119.924L1234.89 119.007C1235.15 118.974 1235.41 119.055 1235.61 119.229ZM1227.67 121.643V126.333H1234.08V120.955L1227.67 121.643Z" fill="black"/>
<path fill-rule="evenodd" clip-rule="evenodd" d="M1243.77 117.33C1244.02 117.501 1244.17 117.783 1244.17 118.083V127.25C1244.17 127.756 1243.76 128.167 1243.25 128.167H1238.67C1238.16 128.167 1237.75 127.756 1237.75 127.25V119.458C1237.75 119.076 1237.99 118.734 1238.34 118.6L1242.93 117.225C1243.21 117.12 1243.53 117.159 1243.77 117.33ZM1239.58 120.094V126.333H1242.33V119.406L1239.58 120.094Z" fill="black"/>
<path fill-rule="evenodd" clip-rule="evenodd" d="M1204 130L1204 115L1206 115L1206 130L1204 130Z" fill="black"/>
<path d="M1195.69 110.764C1194.89 110.764 1194.27 111.064 1193.84 111.666C1193.4 112.263 1193.18 113.097 1193.18 114.168C1193.18 116.396 1194.02 117.511 1195.69 117.511C1196.39 117.511 1197.24 117.335 1198.24 116.984V118.762C1197.42 119.104 1196.5 119.274 1195.49 119.274C1194.04 119.274 1192.93 118.835 1192.16 117.955C1191.39 117.071 1191 115.804 1191 114.154C1191 113.115 1191.19 112.206 1191.57 111.427C1191.95 110.643 1192.49 110.044 1193.19 109.629C1193.91 109.21 1194.74 109 1195.69 109C1196.66 109 1197.64 109.235 1198.62 109.704L1197.93 111.427C1197.56 111.249 1197.18 111.094 1196.8 110.962C1196.43 110.83 1196.05 110.764 1195.69 110.764Z" fill="black"/>
<path fill-rule="evenodd" clip-rule="evenodd" d="M1205 119C1202.69 119 1201 120.664 1201 122.5C1201 124.336 1202.69 126 1205 126C1207.31 126 1209 124.336 1209 122.5C1209 120.664 1207.31 119 1205 119ZM1199 122.5C1199 119.366 1201.79 117 1205 117C1208.21 117 1211 119.366 1211 122.5C1211 125.634 1208.21 128 1205 128C1201.79 128 1199 125.634 1199 122.5Z" fill="black"/>
<g clip-path="url(#clip1_3194_6336)">
<rect x="1260" y="122" width="6" height="6" rx="1" fill="black"/>
<rect x="1262" y="108" width="2" height="3" fill="black"/>
<rect x="1262" y="115" width="2" height="7" fill="black"/>
<rect x="1274" y="124" width="2" height="8" transform="rotate(90 1274 124)" fill="black"/>
<rect width="2" height="3" transform="matrix(-4.37114e-08 1 1 4.37114e-08 1277 124)" fill="black"/>
<path fill-rule="evenodd" clip-rule="evenodd" d="M1263 117C1264.66 117 1266 115.657 1266 114C1266 112.343 1264.66 111 1263 111C1261.34 111 1260 112.343 1260 114C1260 115.657 1261.34 117 1263 117ZM1263 113C1263.55 113 1264 113.448 1264 114C1264 114.552 1263.55 115 1263 115C1262.45 115 1262 114.552 1262 114C1262 113.448 1262.45 113 1263 113Z" fill="black"/>
<path fill-rule="evenodd" clip-rule="evenodd" d="M1275 128C1276.66 128 1278 126.657 1278 125C1278 123.343 1276.66 122 1275 122C1273.34 122 1272 123.343 1272 125C1272 126.657 1273.34 128 1275 128ZM1275 124C1275.55 124 1276 124.448 1276 125C1276 125.552 1275.55 126 1275 126C1274.45 126 1274 125.552 1274 125C1274 124.448 1274.45 124 1275 124Z" fill="black"/>
</g>
<path d="M188 210C188 205.582 191.582 202 196 202H197C200.866 202 204 205.134 204 209V290H188V210Z" fill="#F7F7F7" stroke="black" stroke-width="2"/>
<rect x="159.967" y="252.026" width="35.5202" height="78.5989" transform="rotate(-97.832 159.967 252.026)" fill="#F7F7F7" stroke="black" stroke-width="2"/>
<rect x="176.655" y="227.687" width="30" height="8" transform="rotate(-7.43679 176.655 227.687)" fill="#DD359A"/>
<path d="M217.828 226.347L199.949 240.034L197.034 217.707L217.828 226.347Z" fill="#DD359A"/>
<rect x="24" y="81" width="20" height="209" fill="#815C38" stroke="black" stroke-width="2"/>
<g style="mix-blend-mode:darken">
<rect x="23" y="80" width="9" height="211" fill="#754C24"/>
</g>
<rect x="6" y="-70" width="55" height="204" rx="27.5" fill="#649D35" stroke="black" stroke-width="4"/>
<g style="mix-blend-mode:darken">
<path fill-rule="evenodd" clip-rule="evenodd" d="M33.5 -72C17.2076 -72 4 -58.7924 4 -42.5V106.5C4 122.792 17.2076 136 33.5 136C36.0916 136 38.6052 135.666 41 135.038C28.3399 131.72 19 120.201 19 106.5V-42.5C19 -56.2008 28.3399 -67.7201 41 -71.0382C38.6052 -71.6658 36.0916 -72 33.5 -72Z" fill="#467609"/>
</g>
<rect x="61" y="140" width="20" height="150" fill="#815C38" stroke="black" stroke-width="2"/>
<g style="mix-blend-mode:darken">
<rect x="60" y="139" width="9" height="152" fill="#754C24"/>
</g>
<rect x="43" y="50" width="55" height="141" rx="27.5" fill="#649D35" stroke="black" stroke-width="4"/>
<g style="mix-blend-mode:darken">
<path fill-rule="evenodd" clip-rule="evenodd" d="M70.5 48C54.2076 48 41 61.2076 41 77.5V163.5C41 179.792 54.2076 193 70.5 193C73.0916 193 75.6052 192.666 78 192.038C65.3399 188.72 56 177.201 56 163.5V77.5C56 63.7992 65.3399 52.2799 78 48.9618C75.6052 48.3342 73.0916 48 70.5 48Z" fill="#467609"/>
</g>
<g clip-path="url(#clip2_3194_6336)">
<path d="M487.738 193.372V198.364L474.633 205.933L435.499 215.827V200.124L487.738 193.372Z" fill="#C78A0C"/>
<path d="M487.738 138.015V193.372L435.499 200.125V168.191L487.738 138.015Z" fill="#70A739"/>
<path d="M487.738 138.015L435.499 168.192L383.264 138.015L435.499 107.838L487.738 138.015Z" fill="#70A739"/>
<path d="M474.63 205.934L435.499 228.542V215.829L474.63 205.934Z" fill="#754C24"/>
<path d="M435.499 215.828V228.541L383.264 198.364V170.898L435.427 215.843L435.499 215.828Z" fill="#754C24"/>
<path d="M435.499 200.125V215.829L435.425 215.845L383.264 170.901V153.099L435.427 200.132L435.499 200.125Z" fill="#C78A0C"/>
<path d="M435.498 168.192V200.125L435.425 200.133L383.261 153.101V138.015L435.498 168.192Z" fill="#70A739"/>
<path d="M436.761 228.541H434.235V168.921L382.632 139.109L383.894 136.921L436.761 167.462V228.541Z" fill="#1D1D1B"/>
<path d="M487.105 136.918L434.868 167.1L436.131 169.289L488.368 139.107L487.105 136.918Z" fill="#1D1D1B"/>
<path d="M435.498 230L382 199.095V137.285L382.632 136.921L435.498 106.379L489 137.285V199.094L435.498 230ZM384.526 197.635L435.498 227.082L486.474 197.635V138.744L435.498 109.297L384.526 138.744V197.635Z" fill="#1D1D1B"/>
<path d="M435.09 217.223L382.439 171.858L384.087 169.942L435.755 214.46L474.323 204.709L474.942 207.159L435.716 217.076L435.09 217.223Z" fill="#1D1D1B"/>
<path d="M435.004 201.454L434.581 201.073L382.417 154.04L384.108 152.162L435.841 198.808L487.574 192.121L487.898 194.631L435.57 201.394L435.004 201.454Z" fill="#1D1D1B"/>
<path d="M446.449 124.86H422.956V144.03H446.449V124.86Z" fill="white"/>
<path d="M425.928 127.716V134.386L426.87 139.524L429.878 142.075H422.777L411.487 138.021L419.771 118.341C419.356 105.272 420.047 93.8891 420.047 93.8891C420.047 93.8891 428.438 88.7273 431.621 88.2481C435.269 87.7002 446.198 90.5214 446.198 90.5214L459.173 101.453L459.274 101.541C459.337 101.999 459.369 102.46 459.369 102.923C459.333 104.871 458.847 106.784 457.951 108.514C455.358 113.797 450.038 117.738 449.285 118.278C449.228 118.321 449.196 118.342 449.196 118.342L457.48 138.022L449.193 148.518H442.088V139.525L446.39 134.387L443.031 127.717" fill="white"/>
<path d="M459.366 102.923C459.329 104.872 458.843 106.785 457.947 108.515L453.351 103.056L459.27 101.542C459.333 102 459.365 102.461 459.366 102.923Z" fill="#1D1D1B"/>
<path d="M428.651 101.786H423.902C423.726 101.785 423.552 101.748 423.391 101.677C423.23 101.605 423.086 101.5 422.967 101.369C422.849 101.239 422.76 101.085 422.705 100.917C422.65 100.75 422.63 100.572 422.648 100.397L423.043 96.4371C423.068 96.1941 423.162 95.9633 423.314 95.7726L424.896 93.7924C425.015 93.6444 425.165 93.525 425.336 93.4429C425.506 93.3609 425.693 93.3183 425.883 93.3184H429.84V95.8457H426.49L425.519 97.0596L425.298 99.2583H428.651V101.786Z" fill="#1D1D1B"/>
<path d="M445.328 100.679C445.189 100.817 445.002 100.895 444.806 100.895C444.61 100.895 444.422 100.817 444.284 100.679L440.864 97.2567L437.412 100.711C437.273 100.849 437.086 100.927 436.89 100.927C436.694 100.927 436.507 100.849 436.368 100.711L435.566 99.9078C435.427 99.7694 435.35 99.5816 435.35 99.3857C435.35 99.1899 435.427 99.0021 435.566 98.8637L440.366 94.0604C440.504 93.922 440.692 93.8442 440.888 93.8442C441.084 93.8442 441.271 93.922 441.41 94.0604L442.212 94.8634C442.229 94.8801 442.246 94.8968 442.262 94.913L446.154 98.8078C446.293 98.9463 446.37 99.1341 446.37 99.3299C446.37 99.5257 446.293 99.7135 446.154 99.852L445.328 100.679Z" fill="#2E2E2E"/>
<path d="M458.127 109.238V114.406C458.127 114.475 458.107 114.542 458.069 114.599C458.031 114.656 457.977 114.701 457.914 114.727C457.85 114.753 457.781 114.76 457.713 114.746C457.646 114.732 457.585 114.699 457.537 114.65L455.659 112.771L458.127 109.238Z" fill="white"/>
<path d="M457.78 115.804C457.597 115.804 457.415 115.767 457.246 115.697C457.077 115.627 456.923 115.523 456.794 115.393L454.292 112.89L459.179 105.892V114.405C459.178 114.776 459.03 115.132 458.767 115.394C458.504 115.657 458.148 115.804 457.777 115.804H457.78ZM457.028 112.649L457.075 112.695V112.583L457.028 112.649Z" fill="#1D1D1B"/>
<path d="M458.289 110.886L456.45 108.696L456.819 107.957C457.629 106.401 458.07 104.679 458.107 102.925C458.107 102.52 458.079 102.116 458.024 101.715L460.483 101.175C461.59 104.808 459.279 109.088 459.18 109.269L458.289 110.886Z" fill="#1D1D1B"/>
<path d="M448.934 120.083L448.218 118.958C447.044 117.109 446.389 114.978 446.32 112.788C446.251 110.598 446.771 108.43 447.825 106.51C448.88 104.59 450.431 102.989 452.315 101.874C454.2 100.759 456.349 100.171 458.539 100.171C458.772 100.171 459.006 100.177 459.239 100.19L459.668 100.213L460.457 100.893L460.522 101.366C460.593 101.88 460.629 102.398 460.63 102.917C460.594 105.059 460.063 107.164 459.08 109.067C456.387 114.556 451.059 118.553 450.017 119.299L448.934 120.083ZM458.1 102.711C456.522 102.784 454.985 103.242 453.623 104.044C452.261 104.847 451.116 105.97 450.287 107.316C449.458 108.663 448.97 110.191 448.866 111.769C448.761 113.347 449.044 114.926 449.688 116.37C451.502 114.898 454.939 111.778 456.816 107.953C457.627 106.397 458.068 104.674 458.105 102.919C458.103 102.853 458.103 102.782 458.1 102.711Z" fill="#1D1D1B"/>
<path d="M396.935 129.327C396.535 129.219 396.169 129.01 395.873 128.72C395.578 128.43 395.361 128.068 395.246 127.67L393.436 120.189C393.385 119.863 393.402 119.53 393.487 119.211L393.822 117.959C393.988 117.347 394.39 116.825 394.939 116.507C395.489 116.19 396.141 116.103 396.755 116.266L403.753 117.515L402.657 114.066C402.669 113.793 402.774 113.532 402.955 113.327C403.357 112.876 406.042 111.016 406.564 110.712L407.241 110.312L411.93 118.98C412.143 119.348 412.255 119.766 412.254 120.192L418.519 121.379L413.381 133.243L408.097 131.736C407.531 131.967 406.904 132.007 406.314 131.847L396.935 129.327Z" fill="white" stroke="#1D1D1B" stroke-width="3.00036"/>
<path d="M438.819 53.3226C438.819 51.4876 437.332 50 435.498 50C433.664 50 432.178 51.4876 432.178 53.3226V67.3511C432.178 69.1861 433.664 70.6737 435.498 70.6737C437.332 70.6737 438.819 69.1861 438.819 67.3511V53.3226Z" fill="#70A739"/>
<path d="M467.893 64.4318C469.19 63.1342 469.19 61.0305 467.893 59.7329C466.596 58.4354 464.494 58.4354 463.197 59.7329L453.283 69.6527C451.986 70.9502 451.986 73.0539 453.283 74.3515C454.58 75.649 456.682 75.649 457.979 74.3515L467.893 64.4318Z" fill="#70A739"/>
<path d="M413.018 74.3514C414.315 75.6489 416.418 75.6489 417.714 74.3514C419.011 73.0538 419.011 70.9501 417.714 69.6525L407.801 59.7328C406.504 58.4353 404.401 58.4353 403.105 59.7328C401.808 61.0304 401.808 63.1341 403.105 64.4317L413.018 74.3514Z" fill="#70A739"/>
<path fill-rule="evenodd" clip-rule="evenodd" d="M440.845 149.781H449.825L458.942 138.218L450.752 118.764C452.591 117.342 456.796 113.746 459.09 109.072C460.073 107.169 460.603 105.064 460.639 102.922C460.639 102.403 460.603 101.885 460.532 101.371L460.468 100.898L446.799 89.3732L446.52 89.2993C445.376 89.0025 435.233 86.4294 431.441 86.9994C428.101 87.5022 420.275 92.2712 419.393 92.8131L418.834 93.1572L418.794 93.8128C418.787 93.9258 418.112 105.242 418.507 118.104L410.041 138.218L411.905 140.816L427.012 145.977V145.985H440.845V149.781ZM440.845 142.293V139.065L444.908 134.212L441.923 128.285L444.178 127.148L447.911 134.56L443.371 139.984V147.254H448.601L456.042 137.823L447.629 117.848L448.53 117.275C449.147 116.832 454.349 113.01 456.828 107.957C457.639 106.401 458.08 104.678 458.117 102.923C458.117 102.678 458.107 102.43 458.086 102.181L445.615 91.6753C442.434 90.869 434.519 89.0911 431.816 89.4987C429.591 89.8331 423.909 93.0427 421.279 94.6235C421.143 97.2284 420.689 107.212 421.04 118.301L421.049 118.577L413.012 137.493L419.633 139.709L427.032 142.292V142.293H440.845Z" fill="#1D1D1B"/>
</g>
</g>
<defs>
<clipPath id="clip0_3194_6336">
<rect width="1500" height="350" fill="white"/>
</clipPath>
<clipPath id="clip1_3194_6336">
<rect width="24" height="24" fill="white" transform="translate(1258 106)"/>
</clipPath>
<clipPath id="clip2_3194_6336">
<rect width="107" height="180" fill="white" transform="translate(382 50)"/>
</clipPath>
</defs>
</svg>
