<svg width="900" height="350" viewBox="0 0 900 350" fill="none" xmlns="http://www.w3.org/2000/svg">
<g clip-path="url(#clip0_3194_6871)">
<rect width="900" height="350" fill="#E6F0FC"/>
<path fill-rule="evenodd" clip-rule="evenodd" d="M953.208 373.563H924.969C924.957 373.563 924.944 373.563 924.932 373.563C924.92 373.563 924.907 373.563 924.895 373.563H899.093C899.078 373.563 899.064 373.563 899.049 373.563C899.034 373.563 899.019 373.563 899.004 373.563H897.242V373.456C889.783 372.564 884 366.215 884 358.515C884 350.204 890.738 343.466 899.049 343.466C899.403 343.466 899.754 343.478 900.101 343.502C902.336 331.825 912.603 323 924.932 323C936.558 323 946.351 330.847 949.303 341.534C950.559 341.223 951.872 341.058 953.224 341.058C962.2 341.058 969.476 348.335 969.476 357.311C969.476 365.677 963.156 372.566 955.029 373.464V373.563H953.24C953.234 373.563 953.229 373.563 953.224 373.563C953.218 373.563 953.213 373.563 953.208 373.563Z" fill="white"/>
<path d="M1520 363V291H-6V363H1520Z" fill="#649D35" stroke="black" stroke-width="4"/>
<path d="M1520 340.699L-6 309V352.791L1520 359V340.699Z" fill="#C78A0C" stroke="black" stroke-width="4"/>
<path d="M1520 357.803L-6 326V366H1520V357.803Z" fill="#754C24" stroke="black" stroke-width="4"/>
<path d="M68 210C68 205.582 71.5817 202 76 202H77C80.866 202 84 205.134 84 209V290H68V210Z" fill="#F7F7F7" stroke="black" stroke-width="2"/>
<rect x="39.9672" y="252.026" width="35.5202" height="78.5989" transform="rotate(-97.832 39.9672 252.026)" fill="#F7F7F7" stroke="black" stroke-width="2"/>
<rect x="56.6548" y="227.687" width="30" height="8" transform="rotate(-7.43679 56.6548 227.687)" fill="#DD359A"/>
<path d="M97.8276 226.347L79.9489 240.034L77.0345 217.707L97.8276 226.347Z" fill="#DD359A"/>
<path fill-rule="evenodd" clip-rule="evenodd" d="M313.208 122.563H284.969C284.957 122.563 284.944 122.563 284.932 122.563C284.92 122.563 284.907 122.563 284.895 122.563H259.093C259.078 122.563 259.064 122.563 259.049 122.563C259.034 122.563 259.019 122.563 259.004 122.563H257.242V122.456C249.783 121.564 244 115.215 244 107.515C244 99.2037 250.738 92.4662 259.049 92.4662C259.403 92.4662 259.754 92.4784 260.101 92.5024C262.336 80.8249 272.603 72 284.932 72C296.558 72 306.351 79.8474 309.303 90.5343C310.559 90.2234 311.872 90.0583 313.224 90.0583C322.2 90.0583 329.476 97.3349 329.476 106.311C329.476 114.677 323.156 121.566 315.029 122.464V122.563H313.24C313.234 122.563 313.229 122.563 313.224 122.563C313.218 122.563 313.213 122.563 313.208 122.563Z" fill="white" fill-opacity="0.6"/>
<path fill-rule="evenodd" clip-rule="evenodd" d="M272.993 148.515C273.259 148.529 273.527 148.536 273.796 148.536C282.233 148.536 289.072 141.696 289.072 133.26C289.072 124.823 282.233 117.984 273.796 117.984C272.915 117.984 272.051 118.059 271.21 118.202C267.873 110.504 260.207 105.12 251.283 105.12C249.478 105.12 247.725 105.34 246.048 105.755C242.104 91.4815 229.024 81 213.496 81C196.081 81 181.746 94.1822 179.924 111.112C177.857 110.356 175.624 109.944 173.296 109.944C162.639 109.944 154 118.583 154 129.24C154 139.897 162.639 148.536 173.296 148.536C174.392 148.536 175.467 148.444 176.513 148.269V148.536H272.993V148.515Z" fill="white"/>
<path fill-rule="evenodd" clip-rule="evenodd" d="M648.208 82.5634H619.969C619.957 82.5634 619.944 82.5634 619.932 82.5634C619.92 82.5634 619.907 82.5634 619.895 82.5634H594.093C594.078 82.5634 594.064 82.5635 594.049 82.5635C594.034 82.5635 594.019 82.5634 594.004 82.5634H592.242V82.4562C584.783 81.5639 579 75.2147 579 67.5148C579 59.2037 585.738 52.4662 594.049 52.4662C594.403 52.4662 594.754 52.4784 595.101 52.5024C597.336 40.8249 607.603 32 619.932 32C631.558 32 641.351 39.8474 644.303 50.5343C645.559 50.2234 646.872 50.0583 648.224 50.0583C657.2 50.0583 664.476 57.3349 664.476 66.3109C664.476 74.6766 658.156 81.5661 650.029 82.4643V82.5634H648.24C648.234 82.5634 648.229 82.5634 648.224 82.5634C648.218 82.5634 648.213 82.5634 648.208 82.5634Z" fill="white" fill-opacity="0.6"/>
<path fill-rule="evenodd" clip-rule="evenodd" d="M796.93 126.966C797.361 126.988 797.795 127 798.232 127C811.911 127 823 115.86 823 102.119C823 88.3775 811.911 77.238 798.232 77.238C796.803 77.238 795.402 77.3596 794.039 77.5931C788.629 65.0558 776.2 56.2855 761.731 56.2855C758.804 56.2855 755.961 56.6444 753.242 57.3208C746.849 34.0718 725.641 17 700.464 17C672.229 17 648.986 38.4706 646.031 66.0459C642.68 64.8147 639.061 64.1429 635.286 64.1429C618.007 64.1429 604 78.2139 604 95.5714C604 112.929 618.007 127 635.286 127C637.063 127 638.806 126.851 640.502 126.565V127H796.93V126.966Z" fill="white"/>
</g>
<defs>
<clipPath id="clip0_3194_6871">
<rect width="900" height="350" fill="white"/>
</clipPath>
</defs>
</svg>
