<svg width="160" height="160" viewBox="0 0 160 160" fill="none" xmlns="http://www.w3.org/2000/svg">
<g clip-path="url(#clip0_3194_8142)">
<rect width="160" height="160" rx="8" fill="#E6F0FC"/>
<path fill-rule="evenodd" clip-rule="evenodd" d="M104.291 33H94.3792C94.3748 33 94.3705 33 94.3661 33C94.3617 33 94.3574 33 94.353 33H85.2973C85.2921 33 85.2869 33 85.2817 33C85.2765 33 85.2713 33 85.2661 33H84.6478V32.9618C82.0297 32.6442 80 30.3839 80 27.6429C80 24.6842 82.3647 22.2857 85.2817 22.2857C85.4059 22.2857 85.5291 22.2901 85.6512 22.2986C86.4353 18.1416 90.039 15 94.3661 15C98.4465 15 101.884 17.7936 102.92 21.598C103.36 21.4873 103.821 21.4286 104.296 21.4286C107.446 21.4286 110 24.0189 110 27.2143C110 30.1924 107.782 32.645 104.929 32.9647V33H104.3C104.299 33 104.297 33 104.296 33C104.294 33 104.293 33 104.291 33Z" fill="white" fill-opacity="0.6"/>
<path fill-rule="evenodd" clip-rule="evenodd" d="M157.715 48.9879C157.868 48.9959 158.023 48.9999 158.179 48.9999C163.051 48.9999 167 45.0504 167 40.1785C167 35.3066 163.051 31.3571 158.179 31.3571C157.67 31.3571 157.171 31.4002 156.685 31.483C154.758 27.038 150.331 23.9285 145.178 23.9285C144.136 23.9285 143.123 24.0558 142.155 24.2956C139.878 16.0527 132.324 10 123.357 10C113.301 10 105.022 17.6123 103.97 27.389C102.777 26.9525 101.487 26.7143 100.143 26.7143C93.9888 26.7143 89 31.7031 89 37.8571C89 44.0112 93.9888 49 100.143 49C100.776 49 101.397 48.9472 102.001 48.8458V49H157.715V48.9879Z" fill="white"/>
<path d="M27.4209 72.6082C27.4209 70.0632 29.4841 68 32.0291 68C34.23 68 36.0141 69.7842 36.0141 71.985V120H27.4209V72.6082Z" fill="#F7F7F7" stroke="black" stroke-width="2"/>
<rect x="0.856602" y="-1.1299" width="20.5042" height="45.4509" transform="matrix(-0.133707 -0.991021 0.990309 -0.138878 12.0989 97.8541)" fill="#F7F7F7" stroke="black" stroke-width="2"/>
<rect width="17.6758" height="4.76798" transform="matrix(0.991061 -0.133465 0.125519 0.992099 20.3325 83.0415)" fill="#DD359A"/>
<path d="M44.5795 82.1912L34.0191 90.4144L32.3321 77.0472L44.5795 82.1912Z" fill="#DD359A"/>
<path d="M862 164V119H-103V164H862Z" fill="#649D35" stroke="black" stroke-width="2"/>
<path d="M862 149.654L-103 130V157.15L862 161V149.654Z" fill="#C78A0C" stroke="black" stroke-width="2"/>
<path d="M862 160.672L-103 140V166H862V160.672Z" fill="#754C24" stroke="black" stroke-width="2"/>
<rect x="81.0303" y="51.0303" width="31.9394" height="31.9394" rx="5.15152" fill="#FDB515" stroke="black" stroke-width="2.06061"/>
<rect x="82.0605" y="52.0605" width="27.8182" height="27.8182" rx="6.18182" fill="#FED77F"/>
<rect x="83.0908" y="54.1213" width="6.18182" height="1.0303" transform="rotate(90 83.0908 54.1213)" fill="white"/>
<rect x="83.0908" y="61.3333" width="1.0303" height="1.0303" transform="rotate(90 83.0908 61.3333)" fill="white"/>
<rect x="84.1211" y="53.0908" width="1.0303" height="1.0303" transform="rotate(90 84.1211 53.0908)" fill="white"/>
<rect x="84.1211" y="52.0605" width="7.21212" height="1.0303" fill="white"/>
<rect x="115.03" y="51.0303" width="31.9394" height="31.9394" rx="5.15152" fill="#FDB515" stroke="black" stroke-width="2.06061"/>
<rect x="116.061" y="52.0605" width="27.8182" height="27.8182" rx="6.18182" fill="#FED77F"/>
<rect x="117.091" y="54.1213" width="6.18182" height="1.0303" transform="rotate(90 117.091 54.1213)" fill="white"/>
<rect x="117.091" y="61.3333" width="1.0303" height="1.0303" transform="rotate(90 117.091 61.3333)" fill="white"/>
<rect x="118.121" y="53.0908" width="1.0303" height="1.0303" transform="rotate(90 118.121 53.0908)" fill="white"/>
<rect x="118.121" y="52.0605" width="7.21212" height="1.0303" fill="white"/>
<path d="M104.166 66.0208L90.7489 59.3125H88.8322V73.0801H86.9155L89.7905 76.0833L92.6655 73.0801H90.7489V61.7083L95.5405 64.1042V73.0801H93.6239L96.4989 76.0833L99.3739 73.0801H97.4572V64.958L102.249 67.3977V73.0801H100.332L103.207 76.0833L106.082 73.0801H104.166V66.0208Z" fill="black"/>
<path d="M104.167 56.9167H102.25V62.6667H104.167V56.9167Z" fill="black"/>
<path d="M106.083 60.7499V58.8333H100.333V60.7499H106.083Z" fill="black"/>
<path fill-rule="evenodd" clip-rule="evenodd" d="M134 78L134 63L136 63L136 78L134 78Z" fill="black"/>
<path d="M125.689 58.7637C124.892 58.7637 124.274 59.0645 123.837 59.666C123.399 60.263 123.181 61.097 123.181 62.168C123.181 64.3965 124.017 65.5107 125.689 65.5107C126.391 65.5107 127.241 65.3353 128.239 64.9844V66.7617C127.419 67.1035 126.503 67.2744 125.491 67.2744C124.037 67.2744 122.925 66.8346 122.155 65.9551C121.385 65.071 121 63.804 121 62.1543C121 61.1152 121.189 60.2061 121.567 59.4268C121.946 58.6429 122.488 58.0436 123.194 57.6289C123.905 57.2096 124.737 57 125.689 57C126.66 57 127.635 57.2347 128.615 57.7041L127.932 59.4268C127.558 59.249 127.182 59.0941 126.804 58.9619C126.425 58.8298 126.054 58.7637 125.689 58.7637Z" fill="black"/>
<path fill-rule="evenodd" clip-rule="evenodd" d="M135 67C132.689 67 131 68.6635 131 70.5C131 72.3365 132.689 74 135 74C137.311 74 139 72.3365 139 70.5C139 68.6635 137.311 67 135 67ZM129 70.5C129 67.3659 131.788 65 135 65C138.212 65 141 67.3659 141 70.5C141 73.6341 138.212 76 135 76C131.788 76 129 73.6341 129 70.5Z" fill="black"/>
</g>
<defs>
<clipPath id="clip0_3194_8142">
<rect width="160" height="160" rx="8" fill="white"/>
</clipPath>
</defs>
</svg>
