<svg width="160" height="161" viewBox="0 0 160 161" fill="none" xmlns="http://www.w3.org/2000/svg">
<g clip-path="url(#clip0_1322_8683)">
<rect y="0.5" width="160" height="164" rx="8" fill="#FFECCE"/>
<g opacity="0.38" clip-path="url(#clip1_1322_8683)">
<path fill-rule="evenodd" clip-rule="evenodd" d="M34.3262 156L34.3262 148.5L35.3262 148.5L35.3262 156L34.3262 156Z" fill="#EDA768"/>
<path d="M30.1709 146.382C29.7721 146.382 29.4634 146.532 29.2446 146.833C29.0259 147.132 28.9165 147.549 28.9165 148.084C28.9165 149.198 29.3346 149.755 30.1709 149.755C30.5218 149.755 30.9468 149.668 31.4458 149.492V150.381C31.0356 150.552 30.5776 150.637 30.0718 150.637C29.3449 150.637 28.7889 150.417 28.4038 149.978C28.0187 149.535 27.8262 148.902 27.8262 148.077C27.8262 147.558 27.9207 147.103 28.1099 146.713C28.299 146.321 28.5701 146.022 28.9233 145.814C29.2788 145.605 29.6947 145.5 30.1709 145.5C30.6562 145.5 31.1439 145.617 31.6338 145.852L31.292 146.713C31.1051 146.625 30.9172 146.547 30.728 146.481C30.5389 146.415 30.3532 146.382 30.1709 146.382Z" fill="#EDA768"/>
<path fill-rule="evenodd" clip-rule="evenodd" d="M34.8262 150.5C33.6707 150.5 32.8262 151.332 32.8262 152.25C32.8262 153.168 33.6707 154 34.8262 154C35.9816 154 36.8262 153.168 36.8262 152.25C36.8262 151.332 35.9816 150.5 34.8262 150.5ZM31.8262 152.25C31.8262 150.683 33.2202 149.5 34.8262 149.5C36.4322 149.5 37.8262 150.683 37.8262 152.25C37.8262 153.817 36.4322 155 34.8262 155C33.2202 155 31.8262 153.817 31.8262 152.25Z" fill="#EDA768"/>
<path d="M86.7141 150.497L89.0676 150.5L89.0706 152.854L88.1871 151.97L84.6491 155.508L84.0601 154.919L87.5976 151.381L86.7141 150.497Z" fill="#EDA768"/>
<path d="M86.7141 146.497L89.0676 146.5L89.0706 148.854L88.1871 147.97L81.1491 155.007L80.5601 154.418L87.5976 147.381L86.7141 146.497Z" fill="#EDA768"/>
<path d="M82.7141 145.997L85.0676 146L85.0706 148.354L84.1871 147.47L80.6491 151.007L80.0601 150.418L83.5976 146.881L82.7141 145.997Z" fill="#EDA768"/>
<g clip-path="url(#clip2_1322_8683)">
<path d="M138.326 152.038L135.326 146.5V148.962L138.326 154.5V152.038Z" fill="#EDA768"/>
<path fill-rule="evenodd" clip-rule="evenodd" d="M133.826 149.5C134.931 149.5 135.826 148.605 135.826 147.5C135.826 146.395 134.931 145.5 133.826 145.5C132.722 145.5 131.826 146.395 131.826 147.5C131.826 148.605 132.722 149.5 133.826 149.5ZM133.826 148.5C134.378 148.5 134.826 148.052 134.826 147.5C134.826 146.948 134.378 146.5 133.826 146.5C133.274 146.5 132.826 146.948 132.826 147.5C132.826 148.052 133.274 148.5 133.826 148.5Z" fill="#EDA768"/>
<path fill-rule="evenodd" clip-rule="evenodd" d="M139.826 155.5C140.931 155.5 141.826 154.605 141.826 153.5C141.826 152.395 140.931 151.5 139.826 151.5C138.722 151.5 137.826 152.395 137.826 153.5C137.826 154.605 138.722 155.5 139.826 155.5ZM139.826 154.5C140.378 154.5 140.826 154.052 140.826 153.5C140.826 152.948 140.378 152.5 139.826 152.5C139.274 152.5 138.826 152.948 138.826 153.5C138.826 154.052 139.274 154.5 139.826 154.5Z" fill="#EDA768"/>
<path d="M140.826 145.5H139.826V148.5H140.826V145.5Z" fill="#EDA768"/>
<path d="M141.826 147.5V146.5H138.826V147.5H141.826Z" fill="#EDA768"/>
</g>
<path d="M12.8257 117.25L5.82568 113.75H4.82568V120.933H3.82568L5.32568 122.5L6.82568 120.933H5.82568V115L8.32568 116.25V120.933H7.32568L8.82568 122.5L10.3257 120.933H9.32568V116.695L11.8257 117.968V120.933H10.8257L12.3257 122.5L13.8257 120.933H12.8257V117.25Z" fill="#EDA768"/>
<path d="M12.8262 112.5H11.8262V115.5H12.8262V112.5Z" fill="#EDA768"/>
<path d="M13.8262 114.5V113.5H10.8262V114.5H13.8262Z" fill="#EDA768"/>
<path d="M55.8262 113V117C55.8262 117.3 56.0262 117.5 56.3262 117.5L65.3262 115.5C65.6262 115.5 65.8262 115.3 65.8262 115V113C65.8262 112.7 65.6262 112.5 65.3262 112.5H56.3262C56.0262 112.5 55.8262 112.7 55.8262 113ZM64.8262 114.5L56.8262 116.5V113.5H64.8262V114.5Z" fill="#EDA768"/>
<path fill-rule="evenodd" clip-rule="evenodd" d="M61.1571 117.625C61.2646 117.72 61.3262 117.857 61.3262 118V122C61.3262 122.276 61.1023 122.5 60.8262 122.5H56.3262C56.05 122.5 55.8262 122.276 55.8262 122V118.5C55.8262 118.248 56.0139 118.035 56.2642 118.004L60.7642 117.504C60.9065 117.486 61.0496 117.53 61.1571 117.625ZM56.8262 118.941V121.5H60.3262V118.566L56.8262 118.941Z" fill="#EDA768"/>
<path fill-rule="evenodd" clip-rule="evenodd" d="M65.611 116.589C65.7458 116.682 65.8262 116.836 65.8262 117V122C65.8262 122.276 65.6023 122.5 65.3262 122.5H62.8262C62.55 122.5 62.3262 122.276 62.3262 122V117.75C62.3262 117.542 62.4555 117.355 62.6506 117.282L65.1506 116.532C65.3042 116.474 65.4762 116.496 65.611 116.589ZM63.3262 118.097V121.5H64.8262V117.722L63.3262 118.097Z" fill="#EDA768"/>
<path fill-rule="evenodd" clip-rule="evenodd" d="M109.541 117.7C109.541 117.277 109.1 117.01 108.789 117.298C108.197 117.846 107.826 118.63 107.826 119.5C107.826 121.157 109.169 122.5 110.826 122.5C112.483 122.5 113.826 121.157 113.826 119.5C113.826 118.63 113.455 117.846 112.863 117.298C112.553 117.011 112.112 117.277 112.112 117.7C112.112 117.87 112.191 118.028 112.305 118.154C112.629 118.509 112.826 118.982 112.826 119.5C112.826 120.605 111.931 121.5 110.826 121.5C109.722 121.5 108.826 120.605 108.826 119.5C108.826 118.982 109.024 118.509 109.347 118.154C109.462 118.028 109.541 117.87 109.541 117.7Z" fill="#EDA768"/>
<rect x="110.326" y="116" width="1" height="3" rx="0.5" fill="#EDA768"/>
<path fill-rule="evenodd" clip-rule="evenodd" d="M112.826 114.5C112.55 114.5 112.326 114.724 112.326 115V116.145C112.687 116.252 113.024 116.417 113.326 116.627V115C113.326 114.724 113.102 114.5 112.826 114.5Z" fill="#EDA768"/>
<path d="M114.826 119.5C114.826 121.433 113.259 123 111.326 123C109.393 123 107.826 121.433 107.826 119.5C107.826 117.567 109.393 116 111.326 116C113.259 116 114.826 117.567 114.826 119.5Z" fill="#EDA768"/>
<path fill-rule="evenodd" clip-rule="evenodd" d="M114.826 112.5C114.55 112.5 114.326 112.724 114.326 113V114.145C114.687 114.252 115.024 114.417 115.326 114.627V113C115.326 112.724 115.102 112.5 114.826 112.5Z" fill="#EDA768"/>
<path d="M116.826 117.5C116.826 119.433 115.259 121 113.326 121C111.393 121 109.826 119.433 109.826 117.5C109.826 115.567 111.393 114 113.326 114C115.259 114 116.826 115.567 116.826 117.5Z" fill="#EDA768"/>
</g>
<g opacity="0.38">
<path fill-rule="evenodd" clip-rule="evenodd" d="M34.5 40L34.5 32.5L35.5 32.5L35.5 40L34.5 40Z" fill="#EDA768"/>
<path d="M30.3447 30.3818C29.946 30.3818 29.6372 30.5322 29.4185 30.833C29.1997 31.1315 29.0903 31.5485 29.0903 32.084C29.0903 33.1982 29.5085 33.7554 30.3447 33.7554C30.6956 33.7554 31.1206 33.6676 31.6196 33.4922V34.3809C31.2095 34.5518 30.7515 34.6372 30.2456 34.6372C29.5187 34.6372 28.9627 34.4173 28.5776 33.9775C28.1925 33.5355 28 32.902 28 32.0771C28 31.5576 28.0946 31.103 28.2837 30.7134C28.4728 30.3215 28.744 30.0218 29.0972 29.8145C29.4526 29.6048 29.8685 29.5 30.3447 29.5C30.8301 29.5 31.3177 29.6174 31.8076 29.8521L31.4658 30.7134C31.279 30.6245 31.091 30.547 30.9019 30.481C30.7127 30.4149 30.527 30.3818 30.3447 30.3818Z" fill="#EDA768"/>
<path fill-rule="evenodd" clip-rule="evenodd" d="M35 34.5C33.8446 34.5 33 35.3318 33 36.25C33 37.1682 33.8446 38 35 38C36.1554 38 37 37.1682 37 36.25C37 35.3318 36.1554 34.5 35 34.5ZM32 36.25C32 34.683 33.394 33.5 35 33.5C36.606 33.5 38 34.683 38 36.25C38 37.817 36.606 39 35 39C33.394 39 32 37.817 32 36.25Z" fill="#EDA768"/>
<path d="M86.8879 34.497L89.2414 34.5L89.2444 36.8535L88.3609 35.97L84.8229 39.5075L84.2339 38.9185L87.7714 35.3805L86.8879 34.497Z" fill="#EDA768"/>
<path d="M86.8879 30.497L89.2414 30.5L89.2444 32.8535L88.3609 31.97L81.3229 39.0075L80.7339 38.4185L87.7714 31.3805L86.8879 30.497Z" fill="#EDA768"/>
<path d="M82.8879 29.997L85.2414 30L85.2444 32.3535L84.3609 31.47L80.8229 35.0075L80.2339 34.4185L83.7714 30.8805L82.8879 29.997Z" fill="#EDA768"/>
<path d="M132 35.5333H133.5L134.25 33.55L135.5 37.2333L136 34.1167L136.5 31L137.75 39L139.25 32.75L140.5 35.25H142" stroke="#EDA768" stroke-linejoin="round"/>
<rect width="1" height="2" transform="matrix(-1 0 0 1 142 29.5)" fill="#EDA768"/>
<rect width="1" height="1" transform="matrix(-1 0 0 1 140.5 30.5)" fill="#EDA768"/>
<rect width="1" height="0.5" transform="matrix(-1 0 0 1 139 31)" fill="#EDA768"/>
</g>
<g opacity="0.38">
<path fill-rule="evenodd" clip-rule="evenodd" d="M34.5 98L34.5 90.5L35.5 90.5L35.5 98L34.5 98Z" fill="#EDA768"/>
<path d="M30.3447 88.3818C29.946 88.3818 29.6372 88.5322 29.4185 88.833C29.1997 89.1315 29.0903 89.5485 29.0903 90.084C29.0903 91.1982 29.5085 91.7554 30.3447 91.7554C30.6956 91.7554 31.1206 91.6676 31.6196 91.4922V92.3809C31.2095 92.5518 30.7515 92.6372 30.2456 92.6372C29.5187 92.6372 28.9627 92.4173 28.5776 91.9775C28.1925 91.5355 28 90.902 28 90.0771C28 89.5576 28.0946 89.103 28.2837 88.7134C28.4728 88.3215 28.744 88.0218 29.0972 87.8145C29.4526 87.6048 29.8685 87.5 30.3447 87.5C30.8301 87.5 31.3177 87.6174 31.8076 87.8521L31.4658 88.7134C31.279 88.6245 31.091 88.547 30.9019 88.481C30.7127 88.4149 30.527 88.3818 30.3447 88.3818Z" fill="#EDA768"/>
<path fill-rule="evenodd" clip-rule="evenodd" d="M35 92.5C33.8446 92.5 33 93.3318 33 94.25C33 95.1682 33.8446 96 35 96C36.1554 96 37 95.1682 37 94.25C37 93.3318 36.1554 92.5 35 92.5ZM32 94.25C32 92.683 33.394 91.5 35 91.5C36.606 91.5 38 92.683 38 94.25C38 95.817 36.606 97 35 97C33.394 97 32 95.817 32 94.25Z" fill="#EDA768"/>
<path d="M86.8879 92.497L89.2414 92.5L89.2444 94.8535L88.3609 93.97L84.8229 97.5075L84.2339 96.9185L87.7714 93.3805L86.8879 92.497Z" fill="#EDA768"/>
<path d="M86.8879 88.497L89.2414 88.5L89.2444 90.8535L88.3609 89.97L81.3229 97.0075L80.7339 96.4185L87.7714 89.3805L86.8879 88.497Z" fill="#EDA768"/>
<path d="M82.8879 87.997L85.2414 88L85.2444 90.3535L84.3609 89.47L80.8229 93.0075L80.2339 92.4185L83.7714 88.8805L82.8879 87.997Z" fill="#EDA768"/>
<g clip-path="url(#clip3_1322_8683)">
<path d="M138.5 94.0385L135.5 88.5V90.9615L138.5 96.5V94.0385Z" fill="#EDA768"/>
<path fill-rule="evenodd" clip-rule="evenodd" d="M134 91.5C135.105 91.5 136 90.6046 136 89.5C136 88.3954 135.105 87.5 134 87.5C132.895 87.5 132 88.3954 132 89.5C132 90.6046 132.895 91.5 134 91.5ZM134 90.5C134.552 90.5 135 90.0523 135 89.5C135 88.9477 134.552 88.5 134 88.5C133.448 88.5 133 88.9477 133 89.5C133 90.0523 133.448 90.5 134 90.5Z" fill="#EDA768"/>
<path fill-rule="evenodd" clip-rule="evenodd" d="M140 97.5C141.105 97.5 142 96.6046 142 95.5C142 94.3954 141.105 93.5 140 93.5C138.895 93.5 138 94.3954 138 95.5C138 96.6046 138.895 97.5 140 97.5ZM140 96.5C140.552 96.5 141 96.0523 141 95.5C141 94.9477 140.552 94.5 140 94.5C139.448 94.5 139 94.9477 139 95.5C139 96.0523 139.448 96.5 140 96.5Z" fill="#EDA768"/>
<path d="M141 87.5H140V90.5H141V87.5Z" fill="#EDA768"/>
<path d="M142 89.5V88.5H139V89.5H142Z" fill="#EDA768"/>
</g>
</g>
<g opacity="0.38">
<path d="M6.99951 63.25L-0.000488281 59.75H-1.00049V66.9331H-2.00049L-0.500488 68.5L0.999512 66.9331H-0.000488281V61L2.49951 62.25V66.9331H1.49951L2.99951 68.5L4.49951 66.9331H3.49951V62.6955L5.99951 63.9684V66.9331H4.99951L6.49951 68.5L7.99951 66.9331H6.99951V63.25Z" fill="#EDA768"/>
<path d="M7 58.5H6V61.5H7V58.5Z" fill="#EDA768"/>
<path d="M8 60.5V59.5H5V60.5H8Z" fill="#EDA768"/>
<path d="M50 59V63C50 63.3 50.2 63.5 50.5 63.5L59.5 61.5C59.8 61.5 60 61.3 60 61V59C60 58.7 59.8 58.5 59.5 58.5H50.5C50.2 58.5 50 58.7 50 59ZM59 60.5L51 62.5V59.5H59V60.5Z" fill="#EDA768"/>
<path fill-rule="evenodd" clip-rule="evenodd" d="M55.3309 63.6252C55.4384 63.7201 55.5 63.8566 55.5 64V68C55.5 68.2761 55.2761 68.5 55 68.5H50.5C50.2239 68.5 50 68.2761 50 68V64.5C50 64.2478 50.1878 64.0351 50.438 64.0039L54.938 63.5039C55.0803 63.4861 55.2234 63.5303 55.3309 63.6252ZM51 64.9414V67.5H54.5V64.5664L51 64.9414Z" fill="#EDA768"/>
<path fill-rule="evenodd" clip-rule="evenodd" d="M59.7848 62.589C59.9196 62.6824 60 62.836 60 63V68C60 68.2761 59.7761 68.5 59.5 68.5H57C56.7239 68.5 56.5 68.2761 56.5 68V63.75C56.5 63.5416 56.6293 63.355 56.8244 63.2818L59.3244 62.5318C59.478 62.4743 59.65 62.4956 59.7848 62.589ZM57.5 64.0965V67.5H59V63.7215L57.5 64.0965Z" fill="#EDA768"/>
<path fill-rule="evenodd" clip-rule="evenodd" d="M103.714 63.6997C103.714 63.2767 103.273 63.0104 102.963 63.2977C102.371 63.8457 102 64.6296 102 65.5001C102 67.1569 103.343 68.5001 105 68.5001C106.657 68.5001 108 67.1569 108 65.5001C108 64.6297 107.629 63.8458 107.037 63.2978C106.727 63.0105 106.286 63.2768 106.286 63.6998C106.286 63.8699 106.365 64.0281 106.479 64.1538C106.803 64.5092 107 64.9816 107 65.5001C107 66.6046 106.105 67.5001 105 67.5001C103.895 67.5001 103 66.6046 103 65.5001C103 64.9815 103.197 64.5091 103.521 64.1537C103.636 64.028 103.714 63.8698 103.714 63.6997Z" fill="#EDA768"/>
<rect x="104.5" y="62" width="1" height="3" rx="0.5" fill="#EDA768"/>
<path fill-rule="evenodd" clip-rule="evenodd" d="M107 60.5C106.724 60.5 106.5 60.7239 106.5 61V62.1449C106.861 62.2524 107.198 62.4167 107.5 62.6273V61C107.5 60.7239 107.276 60.5 107 60.5Z" fill="#EDA768"/>
<path d="M109 65.5C109 67.433 107.433 69 105.5 69C103.567 69 102 67.433 102 65.5C102 63.567 103.567 62 105.5 62C107.433 62 109 63.567 109 65.5Z" fill="#EDA768"/>
<path fill-rule="evenodd" clip-rule="evenodd" d="M109 58.5C108.724 58.5 108.5 58.7239 108.5 59V60.1449C108.861 60.2524 109.198 60.4167 109.5 60.6273V59C109.5 58.7239 109.276 58.5 109 58.5Z" fill="#EDA768"/>
<path d="M111 63.5C111 65.433 109.433 67 107.5 67C105.567 67 104 65.433 104 63.5C104 61.567 105.567 60 107.5 60C109.433 60 111 61.567 111 63.5Z" fill="#EDA768"/>
<path fill-rule="evenodd" clip-rule="evenodd" d="M155 58.5H163C163.55 58.5 164 58.95 164 59.5V65C164 64.0463 163.619 63.1818 163 62.5505V62.5H162.949C162.318 61.8814 161.454 61.5 160.5 61.5C159.546 61.5 158.682 61.8814 158.051 62.5H158V62.5505C157.381 63.1818 157 64.0463 157 65C157 65.9537 157.381 66.8182 158 67.4495V67.5H158.051C158.682 68.1186 159.546 68.5 160.5 68.5H155C154.45 68.5 154 68.05 154 67.5V59.5C154 58.95 154.45 58.5 155 58.5ZM155 67.5H157V65.5H155V67.5ZM155 64.5H157V62.5H155V64.5ZM155 61.5H157V59.5H155V61.5ZM158 61.5H160V59.5H158V61.5ZM161 61.5H163V59.5H161V61.5Z" fill="#EDA768"/>
<rect x="158.426" y="65.6499" width="1.07961" height="1.07961" transform="rotate(-45 158.426 65.6499)" fill="#EDA768"/>
<path fill-rule="evenodd" clip-rule="evenodd" d="M158.426 65.6499L159.189 64.8866L159.95 65.6474L159.187 66.4108L158.426 65.6499ZM159.54 66.7644L160.143 67.3676C160.881 68.1054 162.077 68.1054 162.815 67.3676C163.553 66.6298 163.553 65.4335 162.815 64.6957L162.212 64.0925L161.449 64.8559L162.052 65.4591C162.368 65.7753 162.368 66.288 162.052 66.6042C161.736 66.9204 161.223 66.9204 160.907 66.6042L160.304 66.001L159.54 66.7644ZM161.095 64.5023L161.859 63.7389L161.098 62.978L160.334 63.7415L161.095 64.5023Z" fill="#EDA768"/>
<path d="M159 64.5V64.3536C159 64.1272 159.09 63.9101 159.25 63.75V63.75C159.41 63.5899 159.627 63.5 159.854 63.5H160" stroke="#EDA768" stroke-width="0.5"/>
<path d="M158 64.5V64.2071C158 63.7544 158.18 63.3201 158.5 63V63C158.82 62.6799 159.254 62.5 159.707 62.5H160" stroke="#EDA768" stroke-width="0.5"/>
</g>
<path fill-rule="evenodd" clip-rule="evenodd" d="M160 41.3702L66 60.5L74.5 47L0 57.6428V8.5C0 4.08172 3.58172 0.5 8 0.5H152C156.418 0.5 160 4.08172 160 8.5V41.3702Z" fill="#87C147"/>
<path d="M15.3672 25.8594C15.0547 25.8594 14.7812 25.8411 14.5469 25.8047C14.3073 25.7734 14.1042 25.7344 13.9375 25.6875V23.6719C14.1042 23.7083 14.2839 23.7422 14.4766 23.7734C14.6641 23.8099 14.8646 23.8281 15.0781 23.8281C15.3594 23.8281 15.612 23.7734 15.8359 23.6641C16.0599 23.5599 16.237 23.3594 16.3672 23.0625C16.4974 22.7656 16.5625 22.3385 16.5625 21.7812V11.0781H18.9844V21.7656C18.9844 22.7448 18.8307 23.5339 18.5234 24.1328C18.2214 24.737 17.7969 25.1745 17.25 25.4453C16.7083 25.7214 16.0807 25.8594 15.3672 25.8594ZM29.6094 18.1172C29.6094 18.8464 29.5104 19.4922 29.3125 20.0547C29.1198 20.6172 28.8359 21.0938 28.4609 21.4844C28.0911 21.8698 27.6432 22.1615 27.1172 22.3594C26.5964 22.5573 26.0078 22.6562 25.3516 22.6562C24.737 22.6562 24.1719 22.5573 23.6562 22.3594C23.1458 22.1615 22.7005 21.8698 22.3203 21.4844C21.9453 21.0938 21.6536 20.6172 21.4453 20.0547C21.2422 19.4922 21.1406 18.8464 21.1406 18.1172C21.1406 17.1484 21.3125 16.3281 21.6562 15.6562C22 14.9844 22.4896 14.474 23.125 14.125C23.7604 13.776 24.5182 13.6016 25.3984 13.6016C26.2161 13.6016 26.9401 13.776 27.5703 14.125C28.2057 14.474 28.7031 14.9844 29.0625 15.6562C29.4271 16.3281 29.6094 17.1484 29.6094 18.1172ZM23.5703 18.1172C23.5703 18.6901 23.6328 19.1719 23.7578 19.5625C23.8828 19.9531 24.0781 20.2474 24.3438 20.4453C24.6094 20.6432 24.9557 20.7422 25.3828 20.7422C25.8047 20.7422 26.1458 20.6432 26.4062 20.4453C26.6719 20.2474 26.8646 19.9531 26.9844 19.5625C27.1094 19.1719 27.1719 18.6901 27.1719 18.1172C27.1719 17.5391 27.1094 17.0599 26.9844 16.6797C26.8646 16.2943 26.6719 16.0052 26.4062 15.8125C26.1406 15.6198 25.7943 15.5234 25.3672 15.5234C24.737 15.5234 24.2786 15.7396 23.9922 16.1719C23.7109 16.6042 23.5703 17.2526 23.5703 18.1172ZM33.9609 13.7656V22.5H31.5781V13.7656H33.9609ZM32.7734 10.3438C33.1276 10.3438 33.4323 10.4271 33.6875 10.5938C33.9427 10.7552 34.0703 11.0599 34.0703 11.5078C34.0703 11.9505 33.9427 12.2578 33.6875 12.4297C33.4323 12.5964 33.1276 12.6797 32.7734 12.6797C32.4141 12.6797 32.1068 12.5964 31.8516 12.4297C31.6016 12.2578 31.4766 11.9505 31.4766 11.5078C31.4766 11.0599 31.6016 10.7552 31.8516 10.5938C32.1068 10.4271 32.4141 10.3438 32.7734 10.3438ZM41.4297 13.6016C42.362 13.6016 43.112 13.8568 43.6797 14.3672C44.2474 14.8724 44.5312 15.6849 44.5312 16.8047V22.5H42.1484V17.3984C42.1484 16.7734 42.0339 16.3021 41.8047 15.9844C41.5807 15.6667 41.2266 15.5078 40.7422 15.5078C40.013 15.5078 39.5156 15.7552 39.25 16.25C38.9844 16.7448 38.8516 17.4583 38.8516 18.3906V22.5H36.4688V13.7656H38.2891L38.6094 14.8828H38.7422C38.9297 14.5807 39.1615 14.3359 39.4375 14.1484C39.7188 13.9609 40.0286 13.8229 40.3672 13.7344C40.7109 13.6458 41.0651 13.6016 41.4297 13.6016ZM59.1562 13.7656V22.5H57.3281L57.0078 21.3828H56.8828C56.6953 21.6797 56.4609 21.9219 56.1797 22.1094C55.8984 22.2969 55.5885 22.4349 55.25 22.5234C54.9115 22.612 54.5599 22.6562 54.1953 22.6562C53.5703 22.6562 53.026 22.5469 52.5625 22.3281C52.099 22.1042 51.737 21.7578 51.4766 21.2891C51.2214 20.8203 51.0938 20.2109 51.0938 19.4609V13.7656H53.4766V18.8672C53.4766 19.4922 53.5885 19.9635 53.8125 20.2812C54.0365 20.599 54.3932 20.7578 54.8828 20.7578C55.3672 20.7578 55.7474 20.6484 56.0234 20.4297C56.2995 20.2057 56.4922 19.8802 56.6016 19.4531C56.7161 19.0208 56.7734 18.4948 56.7734 17.875V13.7656H59.1562ZM67.75 19.9062C67.75 20.5 67.6094 21.0026 67.3281 21.4141C67.0521 21.8203 66.638 22.1302 66.0859 22.3438C65.5339 22.5521 64.8464 22.6562 64.0234 22.6562C63.4141 22.6562 62.8906 22.6172 62.4531 22.5391C62.0208 22.4609 61.5833 22.3307 61.1406 22.1484V20.1797C61.6146 20.3932 62.1224 20.5703 62.6641 20.7109C63.2109 20.8464 63.6901 20.9141 64.1016 20.9141C64.5651 20.9141 64.8958 20.8464 65.0938 20.7109C65.2969 20.5703 65.3984 20.388 65.3984 20.1641C65.3984 20.0182 65.3568 19.888 65.2734 19.7734C65.1953 19.6536 65.0234 19.5208 64.7578 19.375C64.4922 19.224 64.0755 19.0286 63.5078 18.7891C62.9609 18.5599 62.5104 18.3281 62.1562 18.0938C61.8073 17.8594 61.5469 17.5833 61.375 17.2656C61.2083 16.9427 61.125 16.5339 61.125 16.0391C61.125 15.2318 61.4375 14.625 62.0625 14.2188C62.6927 13.8073 63.5339 13.6016 64.5859 13.6016C65.1276 13.6016 65.6432 13.6562 66.1328 13.7656C66.6276 13.875 67.1354 14.0495 67.6562 14.2891L66.9375 16.0078C66.5052 15.8203 66.0964 15.6667 65.7109 15.5469C65.3307 15.4271 64.9427 15.3672 64.5469 15.3672C64.1979 15.3672 63.9349 15.4141 63.7578 15.5078C63.5807 15.6016 63.4922 15.7448 63.4922 15.9375C63.4922 16.0781 63.5365 16.2031 63.625 16.3125C63.7188 16.4219 63.8958 16.5443 64.1562 16.6797C64.4219 16.8099 64.8099 16.9792 65.3203 17.1875C65.8151 17.3906 66.2448 17.6042 66.6094 17.8281C66.974 18.0469 67.2552 18.3203 67.4531 18.6484C67.651 18.9714 67.75 19.3906 67.75 19.9062ZM77.3438 13.5859C78.5156 13.5859 79.4141 13.8411 80.0391 14.3516C80.6641 14.862 80.9766 15.638 80.9766 16.6797V22.5H79.3125L78.8516 21.3125H78.7891C78.5391 21.625 78.2839 21.8802 78.0234 22.0781C77.763 22.276 77.4635 22.4219 77.125 22.5156C76.7865 22.6094 76.375 22.6562 75.8906 22.6562C75.375 22.6562 74.9115 22.5573 74.5 22.3594C74.0938 22.1615 73.7734 21.8594 73.5391 21.4531C73.3047 21.0417 73.1875 20.5208 73.1875 19.8906C73.1875 18.9635 73.513 18.2812 74.1641 17.8438C74.8151 17.401 75.7917 17.1562 77.0938 17.1094L78.6094 17.0625V16.6797C78.6094 16.2214 78.4896 15.8854 78.25 15.6719C78.0104 15.4583 77.6771 15.3516 77.25 15.3516C76.8281 15.3516 76.4141 15.4115 76.0078 15.5312C75.6016 15.651 75.1953 15.8021 74.7891 15.9844L74 14.375C74.4635 14.1302 74.9818 13.9375 75.5547 13.7969C76.1328 13.6562 76.7292 13.5859 77.3438 13.5859ZM78.6094 18.4531L77.6875 18.4844C76.9167 18.5052 76.3802 18.6432 76.0781 18.8984C75.7812 19.1536 75.6328 19.4896 75.6328 19.9062C75.6328 20.2708 75.7396 20.5312 75.9531 20.6875C76.1667 20.8385 76.4453 20.9141 76.7891 20.9141C77.2995 20.9141 77.7292 20.763 78.0781 20.4609C78.4323 20.1589 78.6094 19.7292 78.6094 19.1719V18.4531ZM87.1172 20.7578C87.3776 20.7578 87.6302 20.7318 87.875 20.6797C88.125 20.6276 88.3724 20.5625 88.6172 20.4844V22.2578C88.362 22.3724 88.0443 22.4661 87.6641 22.5391C87.2891 22.6172 86.8776 22.6562 86.4297 22.6562C85.9089 22.6562 85.4401 22.5729 85.0234 22.4062C84.612 22.2344 84.2865 21.9401 84.0469 21.5234C83.8125 21.1016 83.6953 20.5156 83.6953 19.7656V15.5547H82.5547V14.5469L83.8672 13.75L84.5547 11.9062H86.0781V13.7656H88.5234V15.5547H86.0781V19.7656C86.0781 20.099 86.1719 20.349 86.3594 20.5156C86.5521 20.6771 86.8047 20.7578 87.1172 20.7578ZM101.477 19.3281C101.477 20.0052 101.312 20.5938 100.984 21.0938C100.656 21.5938 100.177 21.9792 99.5469 22.25C98.9219 22.5208 98.1615 22.6562 97.2656 22.6562C96.8698 22.6562 96.4818 22.6302 96.1016 22.5781C95.7266 22.526 95.3646 22.4505 95.0156 22.3516C94.6719 22.2474 94.3438 22.1198 94.0312 21.9688V19.7188C94.5729 19.9583 95.1354 20.1745 95.7188 20.3672C96.3021 20.5599 96.8802 20.6562 97.4531 20.6562C97.849 20.6562 98.1667 20.6042 98.4062 20.5C98.651 20.3958 98.8281 20.2526 98.9375 20.0703C99.0469 19.888 99.1016 19.6797 99.1016 19.4453C99.1016 19.1589 99.0052 18.9141 98.8125 18.7109C98.6198 18.5078 98.3542 18.3177 98.0156 18.1406C97.6823 17.9635 97.3047 17.7734 96.8828 17.5703C96.6172 17.4453 96.3281 17.2943 96.0156 17.1172C95.7031 16.9349 95.4062 16.7135 95.125 16.4531C94.8438 16.1927 94.612 15.8776 94.4297 15.5078C94.2526 15.1328 94.1641 14.6849 94.1641 14.1641C94.1641 13.4818 94.3203 12.8984 94.6328 12.4141C94.9453 11.9297 95.3906 11.5599 95.9688 11.3047C96.5521 11.0443 97.2396 10.9141 98.0312 10.9141C98.625 10.9141 99.1901 10.9844 99.7266 11.125C100.268 11.2604 100.833 11.4583 101.422 11.7188L100.641 13.6016C100.115 13.388 99.6432 13.224 99.2266 13.1094C98.8099 12.9896 98.3854 12.9297 97.9531 12.9297C97.651 12.9297 97.3932 12.9792 97.1797 13.0781C96.9661 13.1719 96.8047 13.3073 96.6953 13.4844C96.5859 13.6562 96.5312 13.8568 96.5312 14.0859C96.5312 14.3568 96.6094 14.5859 96.7656 14.7734C96.9271 14.9557 97.1667 15.1328 97.4844 15.3047C97.8073 15.4766 98.2083 15.6771 98.6875 15.9062C99.2708 16.1823 99.7682 16.4714 100.18 16.7734C100.596 17.0703 100.917 17.4219 101.141 17.8281C101.365 18.2292 101.477 18.7292 101.477 19.3281ZM113.617 13.6016C114.607 13.6016 115.354 13.8568 115.859 14.3672C116.37 14.8724 116.625 15.6849 116.625 16.8047V22.5H114.234V17.3984C114.234 16.7734 114.128 16.3021 113.914 15.9844C113.701 15.6667 113.37 15.5078 112.922 15.5078C112.292 15.5078 111.844 15.7344 111.578 16.1875C111.312 16.6354 111.18 17.2786 111.18 18.1172V22.5H108.797V17.3984C108.797 16.9818 108.75 16.6328 108.656 16.3516C108.562 16.0703 108.419 15.8594 108.227 15.7188C108.034 15.5781 107.786 15.5078 107.484 15.5078C107.042 15.5078 106.693 15.6198 106.438 15.8438C106.188 16.0625 106.008 16.388 105.898 16.8203C105.794 17.2474 105.742 17.7708 105.742 18.3906V22.5H103.359V13.7656H105.18L105.5 14.8828H105.633C105.81 14.5807 106.031 14.3359 106.297 14.1484C106.568 13.9609 106.865 13.8229 107.188 13.7344C107.51 13.6458 107.839 13.6016 108.172 13.6016C108.812 13.6016 109.354 13.7057 109.797 13.9141C110.245 14.1224 110.589 14.4453 110.828 14.8828H111.039C111.299 14.4349 111.667 14.1094 112.141 13.9062C112.62 13.7031 113.112 13.6016 113.617 13.6016ZM122.656 13.5859C123.828 13.5859 124.727 13.8411 125.352 14.3516C125.977 14.862 126.289 15.638 126.289 16.6797V22.5H124.625L124.164 21.3125H124.102C123.852 21.625 123.596 21.8802 123.336 22.0781C123.076 22.276 122.776 22.4219 122.438 22.5156C122.099 22.6094 121.688 22.6562 121.203 22.6562C120.688 22.6562 120.224 22.5573 119.812 22.3594C119.406 22.1615 119.086 21.8594 118.852 21.4531C118.617 21.0417 118.5 20.5208 118.5 19.8906C118.5 18.9635 118.826 18.2812 119.477 17.8438C120.128 17.401 121.104 17.1562 122.406 17.1094L123.922 17.0625V16.6797C123.922 16.2214 123.802 15.8854 123.562 15.6719C123.323 15.4583 122.99 15.3516 122.562 15.3516C122.141 15.3516 121.727 15.4115 121.32 15.5312C120.914 15.651 120.508 15.8021 120.102 15.9844L119.312 14.375C119.776 14.1302 120.294 13.9375 120.867 13.7969C121.445 13.6562 122.042 13.5859 122.656 13.5859ZM123.922 18.4531L123 18.4844C122.229 18.5052 121.693 18.6432 121.391 18.8984C121.094 19.1536 120.945 19.4896 120.945 19.9062C120.945 20.2708 121.052 20.5312 121.266 20.6875C121.479 20.8385 121.758 20.9141 122.102 20.9141C122.612 20.9141 123.042 20.763 123.391 20.4609C123.745 20.1589 123.922 19.7292 123.922 19.1719V18.4531ZM133.625 13.6016C133.745 13.6016 133.883 13.6094 134.039 13.625C134.201 13.6354 134.331 13.651 134.43 13.6719L134.25 15.9062C134.172 15.8802 134.06 15.862 133.914 15.8516C133.773 15.8359 133.651 15.8281 133.547 15.8281C133.24 15.8281 132.94 15.8672 132.648 15.9453C132.362 16.0234 132.104 16.151 131.875 16.3281C131.646 16.5 131.464 16.7292 131.328 17.0156C131.198 17.2969 131.133 17.6432 131.133 18.0547V22.5H128.75V13.7656H130.555L130.906 15.2344H131.023C131.195 14.9375 131.409 14.6667 131.664 14.4219C131.924 14.1719 132.219 13.974 132.547 13.8281C132.88 13.6771 133.24 13.6016 133.625 13.6016ZM139.695 20.7578C139.956 20.7578 140.208 20.7318 140.453 20.6797C140.703 20.6276 140.951 20.5625 141.195 20.4844V22.2578C140.94 22.3724 140.622 22.4661 140.242 22.5391C139.867 22.6172 139.456 22.6562 139.008 22.6562C138.487 22.6562 138.018 22.5729 137.602 22.4062C137.19 22.2344 136.865 21.9401 136.625 21.5234C136.391 21.1016 136.273 20.5156 136.273 19.7656V15.5547H135.133V14.5469L136.445 13.75L137.133 11.9062H138.656V13.7656H141.102V15.5547H138.656V19.7656C138.656 20.099 138.75 20.349 138.938 20.5156C139.13 20.6771 139.383 20.7578 139.695 20.7578ZM37.4219 34.0859H41.9531V40.0078C41.3542 40.2057 40.7318 40.3646 40.0859 40.4844C39.4401 40.599 38.7083 40.6562 37.8906 40.6562C36.7552 40.6562 35.7917 40.4323 35 39.9844C34.2083 39.5365 33.6068 38.875 33.1953 38C32.7839 37.125 32.5781 36.0495 32.5781 34.7734C32.5781 33.5755 32.8073 32.5391 33.2656 31.6641C33.7292 30.7891 34.4036 30.112 35.2891 29.6328C36.1797 29.1536 37.2656 28.9141 38.5469 28.9141C39.151 28.9141 39.7474 28.9792 40.3359 29.1094C40.9245 29.2396 41.4583 29.4089 41.9375 29.6172L41.1328 31.5547C40.7839 31.3776 40.3854 31.2292 39.9375 31.1094C39.4896 30.9896 39.0208 30.9297 38.5312 30.9297C37.8281 30.9297 37.2161 31.0911 36.6953 31.4141C36.1797 31.737 35.7786 32.1901 35.4922 32.7734C35.2109 33.3516 35.0703 34.0339 35.0703 34.8203C35.0703 35.5651 35.1719 36.2266 35.375 36.8047C35.5781 37.3776 35.8984 37.8281 36.3359 38.1562C36.7734 38.4792 37.3438 38.6406 38.0469 38.6406C38.3906 38.6406 38.6797 38.625 38.9141 38.5938C39.1536 38.5573 39.3776 38.5208 39.5859 38.4844V36.1016H37.4219V34.0859ZM48.0938 31.6016C48.901 31.6016 49.5964 31.7578 50.1797 32.0703C50.763 32.3776 51.2135 32.8255 51.5312 33.4141C51.849 34.0026 52.0078 34.7214 52.0078 35.5703V36.7266H46.375C46.401 37.3984 46.6016 37.9271 46.9766 38.3125C47.3568 38.6927 47.8828 38.8828 48.5547 38.8828C49.112 38.8828 49.6224 38.8255 50.0859 38.7109C50.5495 38.5964 51.026 38.4245 51.5156 38.1953V40.0391C51.0833 40.2526 50.6302 40.4089 50.1562 40.5078C49.6875 40.6068 49.1172 40.6562 48.4453 40.6562C47.5703 40.6562 46.7943 40.4948 46.1172 40.1719C45.4453 39.849 44.9167 39.3568 44.5312 38.6953C44.151 38.0339 43.9609 37.2005 43.9609 36.1953C43.9609 35.1745 44.1328 34.3255 44.4766 33.6484C44.8255 32.9661 45.3099 32.4557 45.9297 32.1172C46.5495 31.7734 47.2708 31.6016 48.0938 31.6016ZM48.1094 33.2969C47.6458 33.2969 47.2604 33.4453 46.9531 33.7422C46.651 34.0391 46.4766 34.5052 46.4297 35.1406H49.7734C49.7682 34.7865 49.7031 34.4714 49.5781 34.1953C49.4583 33.9193 49.276 33.7005 49.0312 33.5391C48.7917 33.3776 48.4844 33.2969 48.1094 33.2969ZM61.8828 36.1172C61.8828 36.8464 61.7839 37.4922 61.5859 38.0547C61.3932 38.6172 61.1094 39.0938 60.7344 39.4844C60.3646 39.8698 59.9167 40.1615 59.3906 40.3594C58.8698 40.5573 58.2812 40.6562 57.625 40.6562C57.0104 40.6562 56.4453 40.5573 55.9297 40.3594C55.4193 40.1615 54.974 39.8698 54.5938 39.4844C54.2188 39.0938 53.9271 38.6172 53.7188 38.0547C53.5156 37.4922 53.4141 36.8464 53.4141 36.1172C53.4141 35.1484 53.5859 34.3281 53.9297 33.6562C54.2734 32.9844 54.763 32.474 55.3984 32.125C56.0339 31.776 56.7917 31.6016 57.6719 31.6016C58.4896 31.6016 59.2135 31.776 59.8438 32.125C60.4792 32.474 60.9766 32.9844 61.3359 33.6562C61.7005 34.3281 61.8828 35.1484 61.8828 36.1172ZM55.8438 36.1172C55.8438 36.6901 55.9062 37.1719 56.0312 37.5625C56.1562 37.9531 56.3516 38.2474 56.6172 38.4453C56.8828 38.6432 57.2292 38.7422 57.6562 38.7422C58.0781 38.7422 58.4193 38.6432 58.6797 38.4453C58.9453 38.2474 59.138 37.9531 59.2578 37.5625C59.3828 37.1719 59.4453 36.6901 59.4453 36.1172C59.4453 35.5391 59.3828 35.0599 59.2578 34.6797C59.138 34.2943 58.9453 34.0052 58.6797 33.8125C58.4141 33.6198 58.0677 33.5234 57.6406 33.5234C57.0104 33.5234 56.5521 33.7396 56.2656 34.1719C55.9844 34.6042 55.8438 35.2526 55.8438 36.1172ZM67.5312 38.7578C67.7917 38.7578 68.0443 38.7318 68.2891 38.6797C68.5391 38.6276 68.7865 38.5625 69.0312 38.4844V40.2578C68.776 40.3724 68.4583 40.4661 68.0781 40.5391C67.7031 40.6172 67.2917 40.6562 66.8438 40.6562C66.3229 40.6562 65.8542 40.5729 65.4375 40.4062C65.026 40.2344 64.7005 39.9401 64.4609 39.5234C64.2266 39.1016 64.1094 38.5156 64.1094 37.7656V33.5547H62.9688V32.5469L64.2812 31.75L64.9688 29.9062H66.4922V31.7656H68.9375V33.5547H66.4922V37.7656C66.4922 38.099 66.5859 38.349 66.7734 38.5156C66.9661 38.6771 67.2188 38.7578 67.5312 38.7578ZM74.4062 31.6016C75.2135 31.6016 75.9089 31.7578 76.4922 32.0703C77.0755 32.3776 77.526 32.8255 77.8438 33.4141C78.1615 34.0026 78.3203 34.7214 78.3203 35.5703V36.7266H72.6875C72.7135 37.3984 72.9141 37.9271 73.2891 38.3125C73.6693 38.6927 74.1953 38.8828 74.8672 38.8828C75.4245 38.8828 75.9349 38.8255 76.3984 38.7109C76.862 38.5964 77.3385 38.4245 77.8281 38.1953V40.0391C77.3958 40.2526 76.9427 40.4089 76.4688 40.5078C76 40.6068 75.4297 40.6562 74.7578 40.6562C73.8828 40.6562 73.1068 40.4948 72.4297 40.1719C71.7578 39.849 71.2292 39.3568 70.8438 38.6953C70.4635 38.0339 70.2734 37.2005 70.2734 36.1953C70.2734 35.1745 70.4453 34.3255 70.7891 33.6484C71.138 32.9661 71.6224 32.4557 72.2422 32.1172C72.862 31.7734 73.5833 31.6016 74.4062 31.6016ZM74.4219 33.2969C73.9583 33.2969 73.5729 33.4453 73.2656 33.7422C72.9635 34.0391 72.7891 34.5052 72.7422 35.1406H76.0859C76.0807 34.7865 76.0156 34.4714 75.8906 34.1953C75.7708 33.9193 75.5885 33.7005 75.3438 33.5391C75.1042 33.3776 74.7969 33.2969 74.4219 33.2969ZM83.8047 40.6562C82.9401 40.6562 82.2031 40.5 81.5938 40.1875C80.9844 39.8698 80.5208 39.3802 80.2031 38.7188C79.8854 38.0573 79.7266 37.2109 79.7266 36.1797C79.7266 35.112 79.9062 34.2422 80.2656 33.5703C80.6302 32.8932 81.1328 32.3958 81.7734 32.0781C82.4193 31.7604 83.1667 31.6016 84.0156 31.6016C84.6198 31.6016 85.1406 31.6615 85.5781 31.7812C86.0208 31.8958 86.4062 32.0339 86.7344 32.1953L86.0312 34.0391C85.6562 33.888 85.3073 33.7656 84.9844 33.6719C84.6615 33.5729 84.3385 33.5234 84.0156 33.5234C83.599 33.5234 83.2526 33.6224 82.9766 33.8203C82.7005 34.013 82.4948 34.3047 82.3594 34.6953C82.224 35.0859 82.1562 35.5755 82.1562 36.1641C82.1562 36.7422 82.2292 37.2214 82.375 37.6016C82.5208 37.9818 82.7318 38.2656 83.0078 38.4531C83.2839 38.6354 83.6198 38.7266 84.0156 38.7266C84.5104 38.7266 84.9505 38.6615 85.3359 38.5312C85.7214 38.3958 86.0964 38.2083 86.4609 37.9688V40.0078C86.0964 40.237 85.7135 40.401 85.3125 40.5C84.9167 40.6042 84.4141 40.6562 83.8047 40.6562ZM90.875 28.3438V30.8203C90.875 31.2526 90.8594 31.6641 90.8281 32.0547C90.8021 32.4453 90.7812 32.7214 90.7656 32.8828H90.8906C91.0781 32.5807 91.2995 32.3359 91.5547 32.1484C91.8151 31.9609 92.1016 31.8229 92.4141 31.7344C92.7266 31.6458 93.0625 31.6016 93.4219 31.6016C94.0521 31.6016 94.6016 31.7135 95.0703 31.9375C95.5391 32.1562 95.9036 32.5026 96.1641 32.9766C96.4245 33.4453 96.5547 34.0547 96.5547 34.8047V40.5H94.1719V35.3984C94.1719 34.7734 94.0573 34.3021 93.8281 33.9844C93.599 33.6667 93.2448 33.5078 92.7656 33.5078C92.2865 33.5078 91.9089 33.6198 91.6328 33.8438C91.3568 34.0625 91.1615 34.388 91.0469 34.8203C90.9323 35.2474 90.875 35.7708 90.875 36.3906V40.5H88.4922V28.3438H90.875ZM103.969 31.6016C104.901 31.6016 105.651 31.8568 106.219 32.3672C106.786 32.8724 107.07 33.6849 107.07 34.8047V40.5H104.688V35.3984C104.688 34.7734 104.573 34.3021 104.344 33.9844C104.12 33.6667 103.766 33.5078 103.281 33.5078C102.552 33.5078 102.055 33.7552 101.789 34.25C101.523 34.7448 101.391 35.4583 101.391 36.3906V40.5H99.0078V31.7656H100.828L101.148 32.8828H101.281C101.469 32.5807 101.701 32.3359 101.977 32.1484C102.258 31.9609 102.568 31.8229 102.906 31.7344C103.25 31.6458 103.604 31.6016 103.969 31.6016ZM111.906 31.7656V40.5H109.523V31.7656H111.906ZM110.719 28.3438C111.073 28.3438 111.378 28.4271 111.633 28.5938C111.888 28.7552 112.016 29.0599 112.016 29.5078C112.016 29.9505 111.888 30.2578 111.633 30.4297C111.378 30.5964 111.073 30.6797 110.719 30.6797C110.359 30.6797 110.052 30.5964 109.797 30.4297C109.547 30.2578 109.422 29.9505 109.422 29.5078C109.422 29.0599 109.547 28.7552 109.797 28.5938C110.052 28.4271 110.359 28.3438 110.719 28.3438ZM117.961 40.6562C117.096 40.6562 116.359 40.5 115.75 40.1875C115.141 39.8698 114.677 39.3802 114.359 38.7188C114.042 38.0573 113.883 37.2109 113.883 36.1797C113.883 35.112 114.062 34.2422 114.422 33.5703C114.786 32.8932 115.289 32.3958 115.93 32.0781C116.576 31.7604 117.323 31.6016 118.172 31.6016C118.776 31.6016 119.297 31.6615 119.734 31.7812C120.177 31.8958 120.562 32.0339 120.891 32.1953L120.188 34.0391C119.812 33.888 119.464 33.7656 119.141 33.6719C118.818 33.5729 118.495 33.5234 118.172 33.5234C117.755 33.5234 117.409 33.6224 117.133 33.8203C116.857 34.013 116.651 34.3047 116.516 34.6953C116.38 35.0859 116.312 35.5755 116.312 36.1641C116.312 36.7422 116.385 37.2214 116.531 37.6016C116.677 37.9818 116.888 38.2656 117.164 38.4531C117.44 38.6354 117.776 38.7266 118.172 38.7266C118.667 38.7266 119.107 38.6615 119.492 38.5312C119.878 38.3958 120.253 38.2083 120.617 37.9688V40.0078C120.253 40.237 119.87 40.401 119.469 40.5C119.073 40.6042 118.57 40.6562 117.961 40.6562ZM128.742 37.9062C128.742 38.5 128.602 39.0026 128.32 39.4141C128.044 39.8203 127.63 40.1302 127.078 40.3438C126.526 40.5521 125.839 40.6562 125.016 40.6562C124.406 40.6562 123.883 40.6172 123.445 40.5391C123.013 40.4609 122.576 40.3307 122.133 40.1484V38.1797C122.607 38.3932 123.115 38.5703 123.656 38.7109C124.203 38.8464 124.682 38.9141 125.094 38.9141C125.557 38.9141 125.888 38.8464 126.086 38.7109C126.289 38.5703 126.391 38.388 126.391 38.1641C126.391 38.0182 126.349 37.888 126.266 37.7734C126.188 37.6536 126.016 37.5208 125.75 37.375C125.484 37.224 125.068 37.0286 124.5 36.7891C123.953 36.5599 123.503 36.3281 123.148 36.0938C122.799 35.8594 122.539 35.5833 122.367 35.2656C122.201 34.9427 122.117 34.5339 122.117 34.0391C122.117 33.2318 122.43 32.625 123.055 32.2188C123.685 31.8073 124.526 31.6016 125.578 31.6016C126.12 31.6016 126.635 31.6562 127.125 31.7656C127.62 31.875 128.128 32.0495 128.648 32.2891L127.93 34.0078C127.497 33.8203 127.089 33.6667 126.703 33.5469C126.323 33.4271 125.935 33.3672 125.539 33.3672C125.19 33.3672 124.927 33.4141 124.75 33.5078C124.573 33.6016 124.484 33.7448 124.484 33.9375C124.484 34.0781 124.529 34.2031 124.617 34.3125C124.711 34.4219 124.888 34.5443 125.148 34.6797C125.414 34.8099 125.802 34.9792 126.312 35.1875C126.807 35.3906 127.237 35.6042 127.602 35.8281C127.966 36.0469 128.247 36.3203 128.445 36.6484C128.643 36.9714 128.742 37.3906 128.742 37.9062Z" fill="white"/>
<path d="M122.001 122.172V174.077L73.4711 180.408V150.466L122.001 122.172Z" fill="#70A739"/>
<path d="M122.001 122.172L72.9837 150.319L23.9706 122.172L72.9837 94.0248L122.001 122.172Z" fill="#70A739"/>
<path d="M73.4711 194.627V206.614L23.9706 178.16V152.261L73.4032 194.641L73.4711 194.627Z" fill="#754C24"/>
<path d="M73.4711 180.134V194.951L73.4012 194.967L23.9706 152.558V135.76L73.4032 180.14L73.4711 180.134Z" fill="#C78A0C"/>
<path d="M73.4711 150.463V180.4L73.4012 180.408L23.9706 136.315V122.172L73.4711 150.463Z" fill="#70A739"/>
<path d="M74.4417 206.614H72.0865V151.034L23.9706 123.242L25.1478 121.202L74.4417 149.674V206.614Z" fill="#1D1D1B"/>
<path d="M121.279 121.13L72.4346 149.335L73.6157 151.38L122.46 123.175L121.279 121.13Z" fill="#1D1D1B"/>
<path d="M72.9841 208.555L23 179.437V121.202L23.5902 120.859L72.9841 92.0836L122.972 121.202V179.436L72.9841 208.555ZM25.3599 178.062L72.9841 205.806L120.612 178.062V122.577L72.9841 94.8327L25.3599 122.577V178.062Z" fill="#1D1D1B"/>
<path d="M72.1677 195.938L23 154.03L24.5394 152.261L72.7886 193.385L108.805 184.377L109.383 186.64L72.7528 195.801L72.1677 195.938Z" fill="#1D1D1B"/>
<path d="M72.3557 181.379L71.9589 181.018L23 136.565L24.5867 134.79L73.1418 178.877L121.697 172.557L122.001 174.93L72.8869 181.321L72.3557 181.379Z" fill="#1D1D1B"/>
<path d="M83.1771 109.554H61.8239V127.996H83.1771V109.554Z" fill="white"/>
<path d="M94.9124 104.147L86.6149 105.376L90.9637 115.459L102.903 108.449L111.508 99.5372L107.205 95.542L100.444 101.688L94.9124 104.147Z" fill="white"/>
<path fill-rule="evenodd" clip-rule="evenodd" d="M107.211 94.2928L112.821 99.5014L103.477 109.179L90.531 116.78L85.2959 104.642L94.6531 103.255L99.9347 100.908L107.211 94.2928ZM107.198 96.7913L100.953 102.469L95.171 105.039L87.9332 106.111L91.3956 114.138L102.328 107.72L110.194 99.5731L107.198 96.7913Z" fill="#1D1D1D"/>
<path d="M63.9367 112.472L60.7359 118.694L64.8344 123.488V131.878H58.0687L50.1768 122.086L58.0687 103.724C57.6736 91.5319 58.3323 80.912 58.3323 80.912C58.3323 80.912 66.3262 76.0963 69.359 75.6493C72.8339 75.1381 83.2462 77.7702 83.2462 77.7702L95.6079 87.9692L95.7042 88.0505C95.7642 88.4778 95.7945 88.9086 95.7949 89.34C95.7596 91.1576 95.297 92.9427 94.443 94.5566C91.9733 99.4853 86.9046 103.162 86.1876 103.666C86.1327 103.706 86.1025 103.725 86.1025 103.725L93.9952 122.086L86.1018 128.435H79.3325V123.489L83.4311 118.695L80.231 112.473" fill="white"/>
<path d="M84.5279 103.266L92.2176 121.466L85.2818 126.596L86.669 128.648L95.1702 122.137L87.4715 104.115C89.2006 102.798 93.1526 99.4668 95.3089 95.1371C96.233 93.3738 96.7314 91.4239 96.7654 89.4393C96.7649 88.9588 96.7313 88.479 96.6648 88.003L96.6038 87.5645L83.756 76.888L83.4945 76.8196C82.4188 76.5446 72.8848 74.1609 69.3212 74.6889C66.1814 75.1547 58.8253 79.5727 57.9972 80.0747L57.4715 80.3935L57.434 81.0009C57.4271 81.1055 56.7932 91.5892 57.1635 103.504L49.2061 122.137L57.7836 132.849H66.2223V122.921L62.4028 118.426L65.209 112.935L63.0895 111.881L59.5807 118.748L63.8489 123.773V130.507H58.9349L51.9291 121.771L59.5439 103.942L59.5356 103.686C59.2054 93.4134 59.6327 84.1643 59.7603 81.7512C62.2329 80.2868 67.5734 77.3134 69.6646 77.0036C72.2052 76.626 79.6445 78.2731 82.6345 79.02L94.3559 88.7526C94.376 88.9831 94.3857 89.213 94.3857 89.4401C94.3509 91.0658 93.9363 92.6616 93.1741 94.1036C90.8437 98.7842 85.9539 102.325 85.3741 102.736L84.5279 103.266Z" fill="#1D1D1D"/>
<path d="M86.0889 127.025H64.7357V128.966H86.0889V127.025Z" fill="#1D1D1B"/>
<path d="M95.7949 89.3549C95.7531 90.982 95.2046 92.58 94.1922 94.0248L89.0007 89.4659L95.6865 88.2012C95.758 88.5835 95.7942 88.969 95.7949 89.3549Z" fill="#1D1D1B"/>
<path d="M66.5248 88.2012H62.0432C61.8769 88.2009 61.7125 88.1625 61.5605 88.0886C61.4085 88.0146 61.2724 87.9067 61.1609 87.7717C61.0494 87.6368 60.9649 87.4778 60.913 87.305C60.861 87.1322 60.8427 86.9494 60.8592 86.7684L61.2325 82.6833C61.2553 82.4326 61.3441 82.1945 61.4881 81.9978L62.9813 79.9548C63.0931 79.8022 63.2348 79.679 63.396 79.5943C63.5571 79.5097 63.7337 79.4657 63.9125 79.4658H67.6475V82.0732H64.4856L63.5691 83.3254L63.3602 85.5938H66.5248V88.2012Z" fill="#1D1D1B"/>
<path d="M94.8242 94.9954V100.453C94.8248 100.525 94.7932 100.596 94.7335 100.657C94.6738 100.717 94.5886 100.764 94.4889 100.791C94.3892 100.819 94.2795 100.826 94.1738 100.812C94.0682 100.797 93.9713 100.762 93.8957 100.71L90.9418 98.7259L94.8242 94.9954Z" fill="white"/>
<path d="M94.1277 101.79C93.9092 101.789 93.6929 101.754 93.4912 101.685C93.2894 101.616 93.1063 101.515 92.9521 101.388L89.9713 98.9359L95.7948 92.0836V100.419C95.7937 100.783 95.6171 101.132 95.304 101.388C94.9908 101.645 94.5665 101.79 94.1242 101.79H94.1277ZM93.2317 98.7003L93.2871 98.7458V98.6359L93.2317 98.7003Z" fill="#1D1D1B"/>
<path d="M94.5314 96.9366L92.8831 94.9661L93.2137 94.3019C93.9398 92.9022 94.3348 91.3532 94.3681 89.7752C94.3678 89.4111 94.3428 89.0474 94.2934 88.6866L96.4972 88.2012C97.489 91.4687 95.4181 95.3187 95.3295 95.4815L94.5314 96.9366Z" fill="#1D1D1B"/>
<path d="M85.6644 105.672L84.9843 104.63C83.8705 102.918 83.2483 100.944 83.1828 98.9159C83.1173 96.8879 83.6109 94.8799 84.612 93.1018C85.613 91.3238 87.0848 89.8408 88.8736 88.808C90.6624 87.7752 92.7024 87.2304 94.7805 87.2306C95.0023 87.2306 95.2239 87.2365 95.4452 87.2484L95.8528 87.2696L96.6015 87.8994L96.6632 88.3377C96.7305 88.8136 96.7647 89.2933 96.7654 89.7737C96.7311 91.7577 96.2277 93.7072 95.2946 95.47C92.7382 100.554 87.6808 104.256 86.6926 104.946L85.6644 105.672ZM94.3645 89.5829C92.8661 89.6506 91.4073 90.0746 90.115 90.8179C88.8226 91.5613 87.7357 92.6017 86.9488 93.8485C86.1618 95.0953 85.6987 96.5109 85.5996 97.9723C85.5005 99.4336 85.7685 100.896 86.3802 102.234C88.1017 100.87 91.3641 97.981 93.1452 94.4381C93.9149 92.9965 94.3336 91.4011 94.3687 89.7758C94.3673 89.7142 94.3666 89.6493 94.3645 89.5829Z" fill="#1D1D1B"/>
<path d="M81.3634 87.8615C81.2341 87.9908 81.0587 88.0634 80.8758 88.0634C80.693 88.0634 80.5176 87.9908 80.3883 87.8615L77.1921 84.6653L73.9663 87.8912C73.8369 88.0205 73.6616 88.0932 73.4787 88.0932C73.2958 88.0932 73.1204 88.0205 72.9911 87.8912L72.2412 87.1413C72.1119 87.012 72.0392 86.8366 72.0392 86.6537C72.0392 86.4708 72.1119 86.2954 72.2412 86.1661L76.727 81.6803C76.8563 81.551 77.0317 81.4784 77.2146 81.4784C77.3974 81.4784 77.5728 81.551 77.7021 81.6803L78.4521 82.4302C78.4677 82.4458 78.4833 82.4614 78.4984 82.4766L82.1358 86.1139C82.2651 86.2433 82.3377 86.4187 82.3377 86.6015C82.3377 86.7844 82.2651 86.9598 82.1358 87.0891L81.3634 87.8615Z" fill="#2E2E2E"/>
<path opacity="0.6" d="M77.3535 93.0542C79.4976 93.0542 81.2359 92.1851 81.2359 91.113C81.2359 90.0409 79.4976 89.1718 77.3535 89.1718C75.2093 89.1718 73.4711 90.0409 73.4711 91.113C73.4711 92.1851 75.2093 93.0542 77.3535 93.0542Z" fill="#FFB2E8"/>
<path d="M143.076 74.4243C144.064 78.1114 142.395 81.762 139.349 82.5781C136.304 83.3943 133.034 81.0669 132.046 77.3798C131.058 73.6926 132.726 70.042 135.772 69.2259C138.818 68.4098 142.088 70.7371 143.076 74.4243Z" fill="#D9D9D9"/>
<path fill-rule="evenodd" clip-rule="evenodd" d="M143.352 76.1948C142.69 78.7775 140.414 81.0485 137.297 81.8837C136.779 82.0223 136.262 82.1151 135.751 82.1647C136.88 82.7285 138.132 82.9042 139.349 82.5781C141.903 81.8937 143.489 79.2158 143.352 76.1948Z" fill="#BABABA"/>
<path fill-rule="evenodd" clip-rule="evenodd" d="M109.581 91.6675L139.016 91.1012L131.437 62.8175L105.663 77.0446L109.581 91.6675Z" fill="white"/>
<path d="M96.4223 81.395C96.3697 81.1987 96.4862 80.997 96.6825 80.9444L100.38 79.9537L103.491 91.5643L99.7935 92.555C99.5972 92.6076 99.3954 92.4911 99.3428 92.2948L96.4223 81.395Z" fill="#585858"/>
<path d="M107.483 94.85L111.547 93.7611L114.502 104.791L110.438 105.88L107.483 94.85Z" fill="white"/>
<path d="M107.483 94.85L109.224 94.3833L112.18 105.413L110.438 105.88L107.483 94.85Z" fill="#C4C4C4" fill-opacity="0.44"/>
<path fill-rule="evenodd" clip-rule="evenodd" d="M135.741 78.8783L110.027 85.7683L111.598 91.6287L139.016 91.1013L135.741 78.8783Z" fill="#D9D9D9" fill-opacity="0.46"/>
<path d="M100.859 77.095C100.806 76.8987 100.923 76.6969 101.119 76.6443L107.955 74.8126C108.151 74.76 108.353 74.8765 108.406 75.0728L113.193 92.9389C113.245 93.1352 113.129 93.337 112.933 93.3896L106.097 95.2213C105.9 95.2739 105.699 95.1574 105.646 94.9611L100.859 77.095Z" fill="#F9B500"/>
<path d="M131.987 60.9068L134.179 60.3195C134.571 60.2143 134.975 60.4473 135.08 60.8399L143.099 90.7668C143.204 91.1594 142.971 91.563 142.579 91.6682L140.387 92.2555L131.987 60.9068Z" fill="#F9B500"/>
<path d="M131.016 61.9288C130.911 61.5362 131.144 61.1326 131.537 61.0275L131.987 60.9068L140.387 92.2555L139.937 92.3761C139.544 92.4813 139.141 92.2483 139.035 91.8557L131.016 61.9288Z" fill="#585858"/>
<path fill-rule="evenodd" clip-rule="evenodd" d="M138.165 70.7023C138.171 70.6008 138.258 70.5235 138.359 70.5296C139.366 70.59 140.155 71.0455 140.71 71.8868C140.766 71.9716 140.743 72.0858 140.658 72.1418C140.573 72.1977 140.459 72.1744 140.403 72.0896C139.911 71.3449 139.228 70.9504 138.337 70.8969C138.236 70.8909 138.159 70.8037 138.165 70.7023Z" fill="white"/>
<path d="M100.38 79.9535L101.541 79.6424L104.652 91.253L103.491 91.5641L100.38 79.9535Z" fill="white"/>
</g>
<defs>
<clipPath id="clip0_1322_8683">
<rect y="0.5" width="160" height="160" rx="8" fill="white"/>
</clipPath>
<clipPath id="clip1_1322_8683">
<rect width="168" height="155" fill="white" transform="translate(-25 57.5)"/>
</clipPath>
<clipPath id="clip2_1322_8683">
<rect width="12" height="12" fill="white" transform="translate(130.826 144.5)"/>
</clipPath>
<clipPath id="clip3_1322_8683">
<rect width="12" height="12" fill="white" transform="translate(131 86.5)"/>
</clipPath>
</defs>
</svg>
