<svg width="1500" height="350" viewBox="0 0 1500 350" fill="none" xmlns="http://www.w3.org/2000/svg">
<g clip-path="url(#clip0_1877_5117)">
<rect width="1500" height="350" fill="#FFF2D4"/>
<rect y="281" width="1500" height="69" fill="#9A9A9A"/>
<path d="M2.18557e-07 313.5C-1.38071 313.5 -2.5 314.619 -2.5 316C-2.5 317.381 -1.38071 318.5 -2.18557e-07 318.5L2.18557e-07 313.5ZM9.86842 318.5C11.2491 318.5 12.3684 317.381 12.3684 316C12.3684 314.619 11.2491 313.5 9.86842 313.5L9.86842 318.5ZM29.6053 313.5C28.2246 313.5 27.1053 314.619 27.1053 316C27.1053 317.381 28.2246 318.5 29.6053 318.5L29.6053 313.5ZM49.3421 318.5C50.7228 318.5 51.8421 317.381 51.8421 316C51.8421 314.619 50.7228 313.5 49.3421 313.5L49.3421 318.5ZM69.0789 313.5C67.6982 313.5 66.5789 314.619 66.5789 316C66.5789 317.381 67.6982 318.5 69.0789 318.5L69.0789 313.5ZM88.8158 318.5C90.1965 318.5 91.3158 317.381 91.3158 316C91.3158 314.619 90.1965 313.5 88.8158 313.5L88.8158 318.5ZM108.553 313.5C107.172 313.5 106.053 314.619 106.053 316C106.053 317.381 107.172 318.5 108.553 318.5L108.553 313.5ZM128.289 318.5C129.67 318.5 130.789 317.381 130.789 316C130.789 314.619 129.67 313.5 128.289 313.5L128.289 318.5ZM148.026 313.5C146.646 313.5 145.526 314.619 145.526 316C145.526 317.381 146.646 318.5 148.026 318.5L148.026 313.5ZM167.763 318.5C169.144 318.5 170.263 317.381 170.263 316C170.263 314.619 169.144 313.5 167.763 313.5L167.763 318.5ZM187.5 313.5C186.119 313.5 185 314.619 185 316C185 317.381 186.119 318.5 187.5 318.5L187.5 313.5ZM207.237 318.5C208.618 318.5 209.737 317.381 209.737 316C209.737 314.619 208.618 313.5 207.237 313.5L207.237 318.5ZM226.974 313.5C225.593 313.5 224.474 314.619 224.474 316C224.474 317.381 225.593 318.5 226.974 318.5L226.974 313.5ZM246.711 318.5C248.091 318.5 249.211 317.381 249.211 316C249.211 314.619 248.091 313.5 246.711 313.5L246.711 318.5ZM266.447 313.5C265.067 313.5 263.947 314.619 263.947 316C263.947 317.381 265.067 318.5 266.447 318.5L266.447 313.5ZM286.184 318.5C287.565 318.5 288.684 317.381 288.684 316C288.684 314.619 287.565 313.5 286.184 313.5L286.184 318.5ZM305.921 313.5C304.54 313.5 303.421 314.619 303.421 316C303.421 317.381 304.54 318.5 305.921 318.5L305.921 313.5ZM325.658 318.5C327.039 318.5 328.158 317.381 328.158 316C328.158 314.619 327.039 313.5 325.658 313.5L325.658 318.5ZM345.395 313.5C344.014 313.5 342.895 314.619 342.895 316C342.895 317.381 344.014 318.5 345.395 318.5L345.395 313.5ZM365.132 318.5C366.512 318.5 367.632 317.381 367.632 316C367.632 314.619 366.512 313.5 365.132 313.5L365.132 318.5ZM384.868 313.5C383.488 313.5 382.368 314.619 382.368 316C382.368 317.381 383.488 318.5 384.868 318.5L384.868 313.5ZM404.605 318.5C405.986 318.5 407.105 317.381 407.105 316C407.105 314.619 405.986 313.5 404.605 313.5L404.605 318.5ZM424.342 313.5C422.961 313.5 421.842 314.619 421.842 316C421.842 317.381 422.961 318.5 424.342 318.5L424.342 313.5ZM444.079 318.5C445.46 318.5 446.579 317.381 446.579 316C446.579 314.619 445.46 313.5 444.079 313.5L444.079 318.5ZM463.816 313.5C462.435 313.5 461.316 314.619 461.316 316C461.316 317.381 462.435 318.5 463.816 318.5L463.816 313.5ZM483.553 318.5C484.933 318.5 486.053 317.381 486.053 316C486.053 314.619 484.933 313.5 483.553 313.5L483.553 318.5ZM503.29 313.5C501.909 313.5 500.79 314.619 500.79 316C500.79 317.381 501.909 318.5 503.29 318.5L503.29 313.5ZM523.026 318.5C524.407 318.5 525.526 317.381 525.526 316C525.526 314.619 524.407 313.5 523.026 313.5L523.026 318.5ZM542.763 313.5C541.383 313.5 540.263 314.619 540.263 316C540.263 317.381 541.383 318.5 542.763 318.5L542.763 313.5ZM562.5 318.5C563.881 318.5 565 317.381 565 316C565 314.619 563.881 313.5 562.5 313.5L562.5 318.5ZM582.237 313.5C580.856 313.5 579.737 314.619 579.737 316C579.737 317.381 580.856 318.5 582.237 318.5L582.237 313.5ZM601.974 318.5C603.354 318.5 604.474 317.381 604.474 316C604.474 314.619 603.354 313.5 601.974 313.5L601.974 318.5ZM621.71 313.5C620.33 313.5 619.21 314.619 619.21 316C619.21 317.381 620.33 318.5 621.71 318.5L621.71 313.5ZM641.447 318.5C642.828 318.5 643.947 317.381 643.947 316C643.947 314.619 642.828 313.5 641.447 313.5L641.447 318.5ZM661.184 313.5C659.803 313.5 658.684 314.619 658.684 316C658.684 317.381 659.803 318.5 661.184 318.5L661.184 313.5ZM680.921 318.5C682.302 318.5 683.421 317.381 683.421 316C683.421 314.619 682.302 313.5 680.921 313.5L680.921 318.5ZM700.658 313.5C699.277 313.5 698.158 314.619 698.158 316C698.158 317.381 699.277 318.5 700.658 318.5L700.658 313.5ZM720.395 318.5C721.775 318.5 722.895 317.381 722.895 316C722.895 314.619 721.775 313.5 720.395 313.5L720.395 318.5ZM740.131 313.5C738.751 313.5 737.631 314.619 737.631 316C737.631 317.381 738.751 318.5 740.131 318.5L740.131 313.5ZM759.868 318.5C761.249 318.5 762.368 317.381 762.368 316C762.368 314.619 761.249 313.5 759.868 313.5L759.868 318.5ZM779.605 313.5C778.224 313.5 777.105 314.619 777.105 316C777.105 317.381 778.224 318.5 779.605 318.5L779.605 313.5ZM799.342 318.5C800.723 318.5 801.842 317.381 801.842 316C801.842 314.619 800.723 313.5 799.342 313.5L799.342 318.5ZM819.079 313.5C817.698 313.5 816.579 314.619 816.579 316C816.579 317.381 817.698 318.5 819.079 318.5L819.079 313.5ZM838.815 318.5C840.196 318.5 841.315 317.381 841.315 316C841.315 314.619 840.196 313.5 838.815 313.5L838.815 318.5ZM858.552 313.5C857.172 313.5 856.052 314.619 856.052 316C856.052 317.381 857.172 318.5 858.552 318.5L858.552 313.5ZM878.289 318.5C879.67 318.5 880.789 317.381 880.789 316C880.789 314.619 879.67 313.5 878.289 313.5L878.289 318.5ZM898.026 313.5C896.645 313.5 895.526 314.619 895.526 316C895.526 317.381 896.645 318.5 898.026 318.5L898.026 313.5ZM917.763 318.5C919.143 318.5 920.263 317.381 920.263 316C920.263 314.619 919.143 313.5 917.763 313.5L917.763 318.5ZM937.5 313.5C936.119 313.5 935 314.619 935 316C935 317.381 936.119 318.5 937.5 318.5L937.5 313.5ZM957.236 318.5C958.617 318.5 959.736 317.381 959.736 316C959.736 314.619 958.617 313.5 957.236 313.5L957.236 318.5ZM976.973 313.5C975.592 313.5 974.473 314.619 974.473 316C974.473 317.381 975.592 318.5 976.973 318.5L976.973 313.5ZM996.71 318.5C998.091 318.5 999.21 317.381 999.21 316C999.21 314.619 998.091 313.5 996.71 313.5L996.71 318.5ZM1016.45 313.5C1015.07 313.5 1013.95 314.619 1013.95 316C1013.95 317.381 1015.07 318.5 1016.45 318.5L1016.45 313.5ZM1036.18 318.5C1037.56 318.5 1038.68 317.381 1038.68 316C1038.68 314.619 1037.56 313.5 1036.18 313.5L1036.18 318.5ZM1055.92 313.5C1054.54 313.5 1053.42 314.619 1053.42 316C1053.42 317.381 1054.54 318.5 1055.92 318.5L1055.92 313.5ZM1075.66 318.5C1077.04 318.5 1078.16 317.381 1078.16 316C1078.16 314.619 1077.04 313.5 1075.66 313.5L1075.66 318.5ZM1095.39 313.5C1094.01 313.5 1092.89 314.619 1092.89 316C1092.89 317.381 1094.01 318.5 1095.39 318.5L1095.39 313.5ZM1115.13 318.5C1116.51 318.5 1117.63 317.381 1117.63 316C1117.63 314.619 1116.51 313.5 1115.13 313.5L1115.13 318.5ZM1134.87 313.5C1133.49 313.5 1132.37 314.619 1132.37 316C1132.37 317.381 1133.49 318.5 1134.87 318.5L1134.87 313.5ZM1154.6 318.5C1155.99 318.5 1157.1 317.381 1157.1 316C1157.1 314.619 1155.99 313.5 1154.6 313.5L1154.6 318.5ZM1174.34 313.5C1172.96 313.5 1171.84 314.619 1171.84 316C1171.84 317.381 1172.96 318.5 1174.34 318.5L1174.34 313.5ZM1194.08 318.5C1195.46 318.5 1196.58 317.381 1196.58 316C1196.58 314.619 1195.46 313.5 1194.08 313.5L1194.08 318.5ZM1213.81 313.5C1212.43 313.5 1211.31 314.619 1211.31 316C1211.31 317.381 1212.43 318.5 1213.81 318.5L1213.81 313.5ZM1233.55 318.5C1234.93 318.5 1236.05 317.381 1236.05 316C1236.05 314.619 1234.93 313.5 1233.55 313.5L1233.55 318.5ZM1253.29 313.5C1251.91 313.5 1250.79 314.619 1250.79 316C1250.79 317.381 1251.91 318.5 1253.29 318.5L1253.29 313.5ZM1273.03 318.5C1274.41 318.5 1275.53 317.381 1275.53 316C1275.53 314.619 1274.41 313.5 1273.03 313.5L1273.03 318.5ZM1292.76 313.5C1291.38 313.5 1290.26 314.619 1290.26 316C1290.26 317.381 1291.38 318.5 1292.76 318.5L1292.76 313.5ZM1312.5 318.5C1313.88 318.5 1315 317.381 1315 316C1315 314.619 1313.88 313.5 1312.5 313.5L1312.5 318.5ZM1332.24 313.5C1330.86 313.5 1329.74 314.619 1329.74 316C1329.74 317.381 1330.86 318.5 1332.24 318.5L1332.24 313.5ZM1351.97 318.5C1353.35 318.5 1354.47 317.381 1354.47 316C1354.47 314.619 1353.35 313.5 1351.97 313.5L1351.97 318.5ZM1371.71 313.5C1370.33 313.5 1369.21 314.619 1369.21 316C1369.21 317.381 1370.33 318.5 1371.71 318.5L1371.71 313.5ZM1391.45 318.5C1392.83 318.5 1393.95 317.381 1393.95 316C1393.95 314.619 1392.83 313.5 1391.45 313.5L1391.45 318.5ZM1411.18 313.5C1409.8 313.5 1408.68 314.619 1408.68 316C1408.68 317.381 1409.8 318.5 1411.18 318.5L1411.18 313.5ZM1430.92 318.5C1432.3 318.5 1433.42 317.381 1433.42 316C1433.42 314.619 1432.3 313.5 1430.92 313.5L1430.92 318.5ZM1450.66 313.5C1449.28 313.5 1448.16 314.619 1448.16 316C1448.16 317.381 1449.28 318.5 1450.66 318.5L1450.66 313.5ZM1470.39 318.5C1471.77 318.5 1472.89 317.381 1472.89 316C1472.89 314.619 1471.77 313.5 1470.39 313.5L1470.39 318.5ZM1490.13 313.5C1488.75 313.5 1487.63 314.619 1487.63 316C1487.63 317.381 1488.75 318.5 1490.13 318.5L1490.13 313.5ZM-2.18557e-07 318.5L9.86842 318.5L9.86842 313.5L2.18557e-07 313.5L-2.18557e-07 318.5ZM29.6053 318.5L49.3421 318.5L49.3421 313.5L29.6053 313.5L29.6053 318.5ZM69.0789 318.5L88.8158 318.5L88.8158 313.5L69.0789 313.5L69.0789 318.5ZM108.553 318.5L128.289 318.5L128.289 313.5L108.553 313.5L108.553 318.5ZM148.026 318.5L167.763 318.5L167.763 313.5L148.026 313.5L148.026 318.5ZM187.5 318.5L207.237 318.5L207.237 313.5L187.5 313.5L187.5 318.5ZM226.974 318.5L246.711 318.5L246.711 313.5L226.974 313.5L226.974 318.5ZM266.447 318.5L286.184 318.5L286.184 313.5L266.447 313.5L266.447 318.5ZM305.921 318.5L325.658 318.5L325.658 313.5L305.921 313.5L305.921 318.5ZM345.395 318.5L365.132 318.5L365.132 313.5L345.395 313.5L345.395 318.5ZM384.868 318.5L404.605 318.5L404.605 313.5L384.868 313.5L384.868 318.5ZM424.342 318.5L444.079 318.5L444.079 313.5L424.342 313.5L424.342 318.5ZM463.816 318.5L483.553 318.5L483.553 313.5L463.816 313.5L463.816 318.5ZM503.29 318.5L523.026 318.5L523.026 313.5L503.29 313.5L503.29 318.5ZM542.763 318.5L562.5 318.5L562.5 313.5L542.763 313.5L542.763 318.5ZM582.237 318.5L601.974 318.5L601.974 313.5L582.237 313.5L582.237 318.5ZM621.71 318.5L641.447 318.5L641.447 313.5L621.71 313.5L621.71 318.5ZM661.184 318.5L680.921 318.5L680.921 313.5L661.184 313.5L661.184 318.5ZM700.658 318.5L720.395 318.5L720.395 313.5L700.658 313.5L700.658 318.5ZM740.131 318.5L759.868 318.5L759.868 313.5L740.131 313.5L740.131 318.5ZM779.605 318.5L799.342 318.5L799.342 313.5L779.605 313.5L779.605 318.5ZM819.079 318.5L838.815 318.5L838.815 313.5L819.079 313.5L819.079 318.5ZM858.552 318.5L878.289 318.5L878.289 313.5L858.552 313.5L858.552 318.5ZM898.026 318.5L917.763 318.5L917.763 313.5L898.026 313.5L898.026 318.5ZM937.5 318.5L957.236 318.5L957.236 313.5L937.5 313.5L937.5 318.5ZM976.973 318.5L996.71 318.5L996.71 313.5L976.973 313.5L976.973 318.5ZM1016.45 318.5L1036.18 318.5L1036.18 313.5L1016.45 313.5L1016.45 318.5ZM1055.92 318.5L1075.66 318.5L1075.66 313.5L1055.92 313.5L1055.92 318.5ZM1095.39 318.5L1115.13 318.5L1115.13 313.5L1095.39 313.5L1095.39 318.5ZM1134.87 318.5L1154.6 318.5L1154.6 313.5L1134.87 313.5L1134.87 318.5ZM1174.34 318.5L1194.08 318.5L1194.08 313.5L1174.34 313.5L1174.34 318.5ZM1213.81 318.5L1233.55 318.5L1233.55 313.5L1213.81 313.5L1213.81 318.5ZM1253.29 318.5L1273.03 318.5L1273.03 313.5L1253.29 313.5L1253.29 318.5ZM1292.76 318.5L1312.5 318.5L1312.5 313.5L1292.76 313.5L1292.76 318.5ZM1332.24 318.5L1351.97 318.5L1351.97 313.5L1332.24 313.5L1332.24 318.5ZM1371.71 318.5L1391.45 318.5L1391.45 313.5L1371.71 313.5L1371.71 318.5ZM1411.18 318.5L1430.92 318.5L1430.92 313.5L1411.18 313.5L1411.18 318.5ZM1450.66 318.5L1470.39 318.5L1470.39 313.5L1450.66 313.5L1450.66 318.5ZM1490.13 318.5L1500 318.5L1500 313.5L1490.13 313.5L1490.13 318.5Z" fill="#FEC955"/>
<path fill-rule="evenodd" clip-rule="evenodd" d="M1390.99 48.515C1391.26 48.5288 1391.53 48.5357 1391.8 48.5357C1400.23 48.5357 1407.07 41.6965 1407.07 33.2598C1407.07 24.8231 1400.23 17.9839 1391.8 17.9839C1390.91 17.9839 1390.05 18.0585 1389.21 18.2019C1385.87 10.5045 1378.21 5.11986 1369.28 5.11986C1367.48 5.11986 1365.72 5.34021 1364.05 5.75548C1360.1 -8.51853 1347.02 -19 1331.5 -19C1314.08 -19 1299.75 -5.81783 1297.92 11.1123C1295.86 10.3565 1293.62 9.94399 1291.3 9.94399C1280.64 9.94399 1272 18.5831 1272 29.2399C1272 39.8967 1280.64 48.5358 1291.3 48.5358C1292.39 48.5358 1293.47 48.4444 1294.51 48.2688V48.5359H1390.99V48.515Z" fill="white"/>
<path fill-rule="evenodd" clip-rule="evenodd" d="M69.2143 85.4718C69.575 85.4905 69.9382 85.5 70.3036 85.5C81.7339 85.5 91 76.2339 91 64.8036C91 53.3732 81.7339 44.1071 70.3036 44.1071C69.1096 44.1071 67.9393 44.2082 66.8007 44.4023C62.2801 33.9737 51.8938 26.6786 39.8036 26.6786C37.3577 26.6786 34.9816 26.9771 32.7097 27.5398C27.3673 8.20076 9.64558 -6 -11.3929 -6C-34.9864 -6 -54.4087 11.8596 -56.8779 34.7971C-59.6781 33.7731 -62.7023 33.2143 -65.8571 33.2143C-80.2954 33.2143 -92 44.9188 -92 59.3571C-92 73.7954 -80.2954 85.5 -65.8571 85.5C-64.3726 85.5 -62.917 85.3763 -61.5 85.1385V85.5H-11.3929H39.8036H69.2143V85.4718Z" fill="white"/>
<path fill-rule="evenodd" clip-rule="evenodd" d="M294.993 47.515C295.259 47.5288 295.527 47.5357 295.796 47.5357C304.233 47.5357 311.072 40.6965 311.072 32.2598C311.072 23.8231 304.233 16.9839 295.796 16.9839C294.915 16.9839 294.051 17.0585 293.21 17.2019C289.873 9.50448 282.207 4.11986 273.283 4.11986C271.478 4.11986 269.725 4.34021 268.048 4.75548C264.104 -9.51852 251.024 -20 235.496 -20C218.081 -20 203.746 -6.81783 201.924 10.1123C199.857 9.35646 197.624 8.94399 195.296 8.94399C184.639 8.94399 176 17.5831 176 28.2399C176 38.8968 184.639 47.5358 195.296 47.5358C196.392 47.5358 197.467 47.4444 198.513 47.2688V47.5359H294.993V47.515Z" fill="white"/>
<path fill-rule="evenodd" clip-rule="evenodd" d="M757.208 64.5634H728.969C728.957 64.5634 728.944 64.5634 728.932 64.5634C728.92 64.5634 728.907 64.5634 728.895 64.5634H703.093C703.078 64.5634 703.064 64.5635 703.049 64.5635C703.034 64.5635 703.019 64.5634 703.004 64.5634H701.242V64.4562C693.783 63.5639 688 57.2147 688 49.5148C688 41.2037 694.738 34.4662 703.049 34.4662C703.403 34.4662 703.754 34.4784 704.101 34.5024C706.336 22.8249 716.603 14 728.932 14C740.558 14 750.351 21.8474 753.303 32.5343C754.559 32.2234 755.872 32.0583 757.224 32.0583C766.2 32.0583 773.476 39.3349 773.476 48.3109C773.476 56.6766 767.156 63.5661 759.029 64.4643V64.5634H757.24C757.234 64.5634 757.229 64.5634 757.224 64.5634C757.218 64.5634 757.213 64.5634 757.208 64.5634Z" fill="white"/>
<path fill-rule="evenodd" clip-rule="evenodd" d="M439.208 109.563H410.969C410.957 109.563 410.944 109.563 410.932 109.563C410.92 109.563 410.907 109.563 410.895 109.563H385.093C385.078 109.563 385.064 109.563 385.049 109.563C385.034 109.563 385.019 109.563 385.004 109.563H383.242V109.456C375.783 108.564 370 102.215 370 94.5148C370 86.2037 376.738 79.4662 385.049 79.4662C385.403 79.4662 385.754 79.4784 386.101 79.5024C388.336 67.8249 398.603 59 410.932 59C422.558 59 432.351 66.8474 435.303 77.5343C436.559 77.2234 437.872 77.0583 439.224 77.0583C448.2 77.0583 455.476 84.3349 455.476 93.3109C455.476 101.677 449.156 108.566 441.029 109.464V109.563H439.24C439.234 109.563 439.229 109.563 439.224 109.563C439.218 109.563 439.213 109.563 439.208 109.563Z" fill="white"/>
<rect x="1427.7" y="127.6" width="7.2" height="163.2" fill="#6C6C6C"/>
<path fill-rule="evenodd" clip-rule="evenodd" d="M1404.9 296.081H1457.71C1453.26 285.909 1443.11 278.8 1431.3 278.8C1419.49 278.8 1409.34 285.909 1404.9 296.081Z" fill="#6C6C6C"/>
<rect x="1390.2" y="76.9" width="78.6" height="88.2" rx="14.7" fill="#FAF0A7" stroke="#333333" stroke-width="1.8"/>
<rect x="1401.3" y="294.4" width="60" height="4.8" rx="2.4" fill="#565656"/>
<path d="M1416.59 138.6H1414.78V131.545H1412.45V130.034H1418.92V131.545H1416.59V138.6ZM1426.53 135.313C1426.53 135.86 1426.46 136.344 1426.31 136.766C1426.16 137.188 1425.95 137.545 1425.67 137.838C1425.39 138.127 1425.06 138.346 1424.66 138.495C1424.27 138.643 1423.83 138.717 1423.34 138.717C1422.88 138.717 1422.45 138.643 1422.07 138.495C1421.68 138.346 1421.35 138.127 1421.06 137.838C1420.78 137.545 1420.56 137.188 1420.41 136.766C1420.25 136.344 1420.18 135.86 1420.18 135.313C1420.18 134.586 1420.31 133.971 1420.57 133.467C1420.82 132.963 1421.19 132.581 1421.67 132.319C1422.14 132.057 1422.71 131.926 1423.37 131.926C1423.99 131.926 1424.53 132.057 1425 132.319C1425.48 132.581 1425.85 132.963 1426.12 133.467C1426.39 133.971 1426.53 134.586 1426.53 135.313ZM1422 135.313C1422 135.743 1422.05 136.104 1422.14 136.397C1422.24 136.69 1422.38 136.911 1422.58 137.059C1422.78 137.208 1423.04 137.282 1423.36 137.282C1423.68 137.282 1423.93 137.208 1424.13 137.059C1424.33 136.911 1424.47 136.69 1424.56 136.397C1424.66 136.104 1424.7 135.743 1424.7 135.313C1424.7 134.879 1424.66 134.52 1424.56 134.235C1424.47 133.946 1424.33 133.729 1424.13 133.584C1423.93 133.44 1423.67 133.368 1423.35 133.368C1422.88 133.368 1422.53 133.53 1422.32 133.854C1422.11 134.178 1422 134.665 1422 135.313ZM1433.87 129.483V131.604C1433.87 131.85 1433.86 132.094 1433.85 132.336C1433.84 132.579 1433.82 132.766 1433.8 132.899H1433.87C1434.04 132.629 1434.28 132.401 1434.57 132.213C1434.87 132.022 1435.26 131.926 1435.73 131.926C1436.46 131.926 1437.06 132.213 1437.52 132.788C1437.97 133.362 1438.2 134.204 1438.2 135.313C1438.2 136.059 1438.1 136.686 1437.88 137.194C1437.67 137.698 1437.38 138.079 1437 138.336C1436.62 138.59 1436.18 138.717 1435.68 138.717C1435.2 138.717 1434.82 138.631 1434.54 138.459C1434.27 138.288 1434.04 138.094 1433.87 137.879H1433.75L1433.45 138.6H1432.08V129.483H1433.87ZM1435.15 133.356C1434.84 133.356 1434.59 133.42 1434.41 133.549C1434.23 133.678 1434.09 133.872 1434.01 134.129C1433.92 134.387 1433.88 134.713 1433.87 135.108V135.301C1433.87 135.938 1433.96 136.426 1434.15 136.766C1434.34 137.102 1434.68 137.27 1435.18 137.27C1435.54 137.27 1435.84 137.1 1436.05 136.76C1436.27 136.42 1436.38 135.93 1436.38 135.29C1436.38 134.649 1436.27 134.167 1436.05 133.842C1435.83 133.518 1435.53 133.356 1435.15 133.356ZM1442.86 131.926C1443.46 131.926 1443.99 132.043 1444.42 132.278C1444.86 132.508 1445.2 132.844 1445.44 133.286C1445.68 133.727 1445.79 134.266 1445.79 134.903V135.77H1441.57C1441.59 136.274 1441.74 136.67 1442.02 136.959C1442.31 137.245 1442.7 137.387 1443.2 137.387C1443.62 137.387 1444.01 137.344 1444.35 137.258C1444.7 137.172 1445.06 137.043 1445.43 136.872V138.254C1445.1 138.415 1444.76 138.532 1444.41 138.606C1444.05 138.68 1443.63 138.717 1443.12 138.717C1442.47 138.717 1441.88 138.596 1441.38 138.354C1440.87 138.112 1440.48 137.743 1440.19 137.247C1439.9 136.75 1439.76 136.125 1439.76 135.372C1439.76 134.606 1439.89 133.969 1440.15 133.461C1440.41 132.95 1440.77 132.567 1441.24 132.313C1441.7 132.055 1442.24 131.926 1442.86 131.926ZM1442.87 133.198C1442.52 133.198 1442.23 133.309 1442 133.532C1441.78 133.754 1441.65 134.104 1441.61 134.581H1444.12C1444.11 134.315 1444.07 134.079 1443.97 133.872C1443.88 133.665 1443.75 133.5 1443.56 133.379C1443.38 133.258 1443.15 133.198 1442.87 133.198ZM1400.76 150.717C1400.11 150.717 1399.56 150.6 1399.1 150.366C1398.65 150.127 1398.3 149.76 1398.06 149.264C1397.82 148.768 1397.7 148.133 1397.7 147.36C1397.7 146.559 1397.84 145.907 1398.11 145.403C1398.38 144.895 1398.76 144.522 1399.24 144.284C1399.72 144.045 1400.28 143.926 1400.92 143.926C1401.37 143.926 1401.76 143.971 1402.09 144.061C1402.42 144.147 1402.71 144.25 1402.96 144.372L1402.43 145.754C1402.15 145.641 1401.89 145.549 1401.65 145.479C1401.4 145.405 1401.16 145.368 1400.92 145.368C1400.61 145.368 1400.35 145.442 1400.14 145.59C1399.93 145.735 1399.78 145.954 1399.68 146.247C1399.58 146.54 1399.53 146.907 1399.53 147.348C1399.53 147.782 1399.58 148.141 1399.69 148.426C1399.8 148.711 1399.96 148.924 1400.16 149.065C1400.37 149.202 1400.62 149.27 1400.92 149.27C1401.29 149.27 1401.62 149.221 1401.91 149.124C1402.2 149.022 1402.48 148.881 1402.75 148.702V150.231C1402.48 150.403 1402.19 150.526 1401.89 150.6C1401.6 150.678 1401.22 150.717 1400.76 150.717ZM1410.71 147.313C1410.71 147.86 1410.64 148.344 1410.49 148.766C1410.34 149.188 1410.13 149.545 1409.85 149.838C1409.57 150.127 1409.24 150.346 1408.84 150.495C1408.45 150.643 1408.01 150.717 1407.52 150.717C1407.06 150.717 1406.63 150.643 1406.25 150.495C1405.86 150.346 1405.53 150.127 1405.24 149.838C1404.96 149.545 1404.74 149.188 1404.59 148.766C1404.44 148.344 1404.36 147.86 1404.36 147.313C1404.36 146.586 1404.49 145.971 1404.75 145.467C1405 144.963 1405.37 144.581 1405.85 144.319C1406.32 144.057 1406.89 143.926 1407.55 143.926C1408.17 143.926 1408.71 144.057 1409.18 144.319C1409.66 144.581 1410.03 144.963 1410.3 145.467C1410.57 145.971 1410.71 146.586 1410.71 147.313ZM1406.18 147.313C1406.18 147.743 1406.23 148.104 1406.32 148.397C1406.42 148.69 1406.56 148.911 1406.76 149.059C1406.96 149.208 1407.22 149.282 1407.54 149.282C1407.86 149.282 1408.11 149.208 1408.31 149.059C1408.51 148.911 1408.65 148.69 1408.74 148.397C1408.84 148.104 1408.88 147.743 1408.88 147.313C1408.88 146.879 1408.84 146.52 1408.74 146.235C1408.65 145.946 1408.51 145.729 1408.31 145.584C1408.11 145.44 1407.85 145.368 1407.53 145.368C1407.06 145.368 1406.71 145.53 1406.5 145.854C1406.29 146.178 1406.18 146.665 1406.18 147.313ZM1416.39 143.926C1417.09 143.926 1417.65 144.118 1418.08 144.5C1418.5 144.879 1418.71 145.489 1418.71 146.329V150.6H1416.93V146.774C1416.93 146.305 1416.84 145.952 1416.67 145.713C1416.5 145.475 1416.24 145.356 1415.87 145.356C1415.33 145.356 1414.95 145.542 1414.75 145.913C1414.55 146.284 1414.45 146.819 1414.45 147.518V150.6H1412.67V144.049H1414.03L1414.27 144.887H1414.37C1414.51 144.661 1414.69 144.477 1414.89 144.336C1415.1 144.196 1415.34 144.092 1415.59 144.026C1415.85 143.959 1416.11 143.926 1416.39 143.926ZM1423.79 149.293C1423.99 149.293 1424.18 149.274 1424.36 149.235C1424.55 149.196 1424.73 149.147 1424.92 149.088V150.418C1424.73 150.504 1424.49 150.575 1424.2 150.629C1423.92 150.688 1423.61 150.717 1423.28 150.717C1422.89 150.717 1422.54 150.655 1422.22 150.53C1421.91 150.401 1421.67 150.18 1421.49 149.868C1421.32 149.551 1421.23 149.112 1421.23 148.549V145.391H1420.37V144.635L1421.36 144.038L1421.87 142.655H1423.01V144.049H1424.85V145.391H1423.01V148.549C1423.01 148.799 1423.08 148.987 1423.23 149.112C1423.37 149.233 1423.56 149.293 1423.79 149.293ZM1428.52 144.049V150.6H1426.73V144.049H1428.52ZM1427.63 141.483C1427.89 141.483 1428.12 141.545 1428.31 141.67C1428.5 141.792 1428.6 142.02 1428.6 142.356C1428.6 142.688 1428.5 142.918 1428.31 143.047C1428.12 143.172 1427.89 143.235 1427.63 143.235C1427.36 143.235 1427.13 143.172 1426.93 143.047C1426.75 142.918 1426.65 142.688 1426.65 142.356C1426.65 142.02 1426.75 141.792 1426.93 141.67C1427.13 141.545 1427.36 141.483 1427.63 141.483ZM1434.6 143.926C1435.3 143.926 1435.86 144.118 1436.28 144.5C1436.71 144.879 1436.92 145.489 1436.92 146.329V150.6H1435.14V146.774C1435.14 146.305 1435.05 145.952 1434.88 145.713C1434.71 145.475 1434.44 145.356 1434.08 145.356C1433.53 145.356 1433.16 145.542 1432.96 145.913C1432.76 146.284 1432.66 146.819 1432.66 147.518V150.6H1430.88V144.049H1432.24L1432.48 144.887H1432.58C1432.72 144.661 1432.9 144.477 1433.1 144.336C1433.31 144.196 1433.55 144.092 1433.8 144.026C1434.06 143.959 1434.32 143.926 1434.6 143.926ZM1445.26 144.049V150.6H1443.88L1443.64 149.762H1443.55C1443.41 149.985 1443.23 150.167 1443.02 150.307C1442.81 150.448 1442.58 150.551 1442.33 150.618C1442.07 150.684 1441.81 150.717 1441.53 150.717C1441.07 150.717 1440.66 150.635 1440.31 150.471C1439.96 150.303 1439.69 150.043 1439.5 149.692C1439.3 149.34 1439.21 148.883 1439.21 148.321V144.049H1441V147.875C1441 148.344 1441.08 148.698 1441.25 148.936C1441.42 149.174 1441.68 149.293 1442.05 149.293C1442.41 149.293 1442.7 149.211 1442.91 149.047C1443.11 148.879 1443.26 148.635 1443.34 148.315C1443.42 147.991 1443.47 147.596 1443.47 147.131V144.049H1445.26ZM1450.31 143.926C1450.92 143.926 1451.44 144.043 1451.88 144.278C1452.31 144.508 1452.65 144.844 1452.89 145.286C1453.13 145.727 1453.25 146.266 1453.25 146.903V147.77H1449.02C1449.04 148.274 1449.19 148.67 1449.47 148.959C1449.76 149.245 1450.15 149.387 1450.66 149.387C1451.07 149.387 1451.46 149.344 1451.81 149.258C1452.15 149.172 1452.51 149.043 1452.88 148.872V150.254C1452.55 150.415 1452.21 150.532 1451.86 150.606C1451.51 150.68 1451.08 150.717 1450.57 150.717C1449.92 150.717 1449.34 150.596 1448.83 150.354C1448.32 150.112 1447.93 149.743 1447.64 149.247C1447.35 148.75 1447.21 148.125 1447.21 147.372C1447.21 146.606 1447.34 145.969 1447.6 145.461C1447.86 144.95 1448.22 144.567 1448.69 144.313C1449.15 144.055 1449.69 143.926 1450.31 143.926ZM1450.32 145.198C1449.98 145.198 1449.69 145.309 1449.46 145.532C1449.23 145.754 1449.1 146.104 1449.06 146.581H1451.57C1451.57 146.315 1451.52 146.079 1451.42 145.872C1451.33 145.665 1451.2 145.5 1451.01 145.379C1450.83 145.258 1450.6 145.198 1450.32 145.198ZM1457.25 150.717C1456.52 150.717 1455.93 150.432 1455.47 149.862C1455.01 149.288 1454.78 148.446 1454.78 147.336C1454.78 146.215 1455.01 145.368 1455.48 144.793C1455.94 144.215 1456.55 143.926 1457.3 143.926C1457.61 143.926 1457.89 143.969 1458.13 144.055C1458.37 144.141 1458.57 144.256 1458.74 144.401C1458.92 144.545 1459.07 144.708 1459.19 144.887H1459.25C1459.22 144.762 1459.19 144.579 1459.16 144.336C1459.13 144.09 1459.11 143.838 1459.11 143.581V141.483H1460.9V150.6H1459.53L1459.19 149.75H1459.11C1459 149.93 1458.86 150.094 1458.68 150.243C1458.52 150.387 1458.31 150.502 1458.08 150.588C1457.85 150.674 1457.57 150.717 1457.25 150.717ZM1457.88 149.293C1458.37 149.293 1458.71 149.149 1458.91 148.86C1459.12 148.567 1459.22 148.127 1459.23 147.542V147.348C1459.23 146.711 1459.14 146.225 1458.94 145.889C1458.75 145.549 1458.38 145.379 1457.85 145.379C1457.46 145.379 1457.15 145.549 1456.93 145.889C1456.7 146.229 1456.59 146.719 1456.59 147.36C1456.59 148 1456.7 148.483 1456.93 148.807C1457.15 149.131 1457.47 149.293 1457.88 149.293Z" fill="#333333"/>
<path d="M1445.32 113.004V114.508L1441.35 116.788L1429.5 119.767V115.037L1445.32 113.004Z" fill="#C78A0C"/>
<path d="M1445.32 96.3284V113.006L1429.5 115.038V105.419L1445.32 96.3284Z" fill="#598F22"/>
<path d="M1445.32 96.3284L1429.5 105.419L1413.68 96.3284L1429.5 87.2385L1445.32 96.3284Z" fill="#598F22"/>
<path d="M1441.35 116.788L1429.5 123.598V119.769L1441.35 116.788Z" fill="#754C24"/>
<path d="M1429.5 119.768V123.598L1413.68 114.508V106.235L1429.48 119.774L1429.5 119.768Z" fill="#754C24"/>
<path d="M1429.5 115.038V119.768L1429.48 119.773L1413.68 106.234V100.872L1429.48 115.04L1429.5 115.038Z" fill="#C78A0C"/>
<path d="M1429.5 105.419V115.038L1429.48 115.041L1413.68 100.872V96.3284L1429.5 105.419Z" fill="#598F22"/>
<path d="M1429.88 123.598H1429.12V105.639L1413.49 96.6583L1413.87 95.999L1429.88 105.199L1429.88 123.598Z" fill="#1D1D1B"/>
<path d="M1445.13 95.9987L1429.31 105.09L1429.69 105.75L1445.51 96.658L1445.13 95.9987Z" fill="#1D1D1B"/>
<path d="M1429.5 124.037L1413.3 114.728V96.1099L1413.49 95.9999L1429.5 86.8L1445.7 96.1089V114.727L1429.5 124.037ZM1414.06 114.29L1429.5 123.16L1444.93 114.29V96.5496L1429.5 87.6797L1414.06 96.5496V114.29Z" fill="#1D1D1B"/>
<path d="M1429.37 120.188L1413.43 106.523L1413.93 105.946L1429.58 119.356L1441.26 116.419L1441.44 117.158L1429.56 120.145L1429.37 120.188Z" fill="#1D1D1B"/>
<path d="M1429.35 115.439L1429.22 115.323L1413.42 101.156L1413.93 100.59L1429.6 114.641L1445.27 112.627L1445.36 113.382L1429.52 115.419L1429.35 115.439Z" fill="#1D1D1B"/>
<rect x="75" y="76.8" width="391.6" height="17.6" fill="#626463"/>
<rect x="88.2" y="94.4001" width="12.1" height="201.3" fill="#626463"/>
<rect x="439.1" y="94.4001" width="12.1" height="201.3" fill="#626463"/>
<rect x="75.0002" y="68" width="391.6" height="8.8" fill="#8F908C"/>
<rect x="115.7" y="94.4001" width="306.9" height="191.4" fill="#626463"/>
<rect x="125.6" y="94.4001" width="288.2" height="179.3" fill="#DBE9F0"/>
<path opacity="0.3" d="M126 154V94.5H216L126 154Z" fill="#A1C5DD"/>
<path opacity="0.3" d="M414 197.5L414 273.5L324 273.5L414 197.5Z" fill="#A1C5DD"/>
<path d="M142.752 108.388H146.717V113.569C146.074 113.779 145.468 113.925 144.898 114.007C144.333 114.093 143.754 114.137 143.162 114.137C141.653 114.137 140.5 113.695 139.703 112.811C138.91 111.922 138.513 110.648 138.513 108.989C138.513 107.376 138.974 106.118 139.894 105.216C140.819 104.313 142.1 103.862 143.736 103.862C144.761 103.862 145.75 104.067 146.703 104.478L145.999 106.173C145.27 105.808 144.511 105.626 143.722 105.626C142.806 105.626 142.073 105.934 141.521 106.549C140.97 107.164 140.694 107.991 140.694 109.03C140.694 110.115 140.915 110.944 141.357 111.519C141.804 112.088 142.451 112.373 143.299 112.373C143.741 112.373 144.19 112.327 144.645 112.236V110.151H142.752V108.388ZM151.039 110.165C151.039 110.922 151.162 111.493 151.409 111.881C151.659 112.268 152.065 112.462 152.625 112.462C153.181 112.462 153.58 112.271 153.822 111.888C154.068 111.5 154.191 110.926 154.191 110.165C154.191 109.409 154.068 108.841 153.822 108.463C153.575 108.085 153.172 107.896 152.612 107.896C152.056 107.896 151.655 108.085 151.409 108.463C151.162 108.837 151.039 109.404 151.039 110.165ZM156.324 110.165C156.324 111.409 155.995 112.382 155.339 113.084C154.683 113.786 153.769 114.137 152.598 114.137C151.864 114.137 151.217 113.977 150.657 113.658C150.096 113.335 149.665 112.872 149.365 112.271C149.064 111.669 148.913 110.967 148.913 110.165C148.913 108.916 149.239 107.946 149.891 107.253C150.543 106.56 151.459 106.214 152.639 106.214C153.373 106.214 154.02 106.373 154.58 106.692C155.141 107.011 155.572 107.469 155.872 108.066C156.173 108.663 156.324 109.363 156.324 110.165ZM162.711 107.923H160.906V114H158.821V107.923H157.673V106.918L158.821 106.357V105.797C158.821 104.926 159.035 104.291 159.464 103.89C159.892 103.489 160.578 103.288 161.521 103.288C162.241 103.288 162.882 103.395 163.442 103.609L162.909 105.141C162.49 105.008 162.102 104.942 161.747 104.942C161.451 104.942 161.237 105.031 161.104 105.209C160.972 105.382 160.906 105.605 160.906 105.879V106.357H162.711V107.923ZM167.519 107.697C167.077 107.697 166.731 107.839 166.48 108.121C166.229 108.399 166.086 108.796 166.049 109.311H168.975C168.966 108.796 168.831 108.399 168.572 108.121C168.312 107.839 167.961 107.697 167.519 107.697ZM167.813 114.137C166.582 114.137 165.621 113.797 164.928 113.118C164.235 112.439 163.889 111.478 163.889 110.233C163.889 108.953 164.208 107.964 164.846 107.267C165.489 106.565 166.375 106.214 167.505 106.214C168.585 106.214 169.426 106.521 170.028 107.137C170.629 107.752 170.93 108.602 170.93 109.687V110.698H166.001C166.024 111.291 166.2 111.753 166.528 112.086C166.856 112.419 167.316 112.585 167.909 112.585C168.369 112.585 168.804 112.537 169.214 112.441C169.624 112.346 170.053 112.193 170.499 111.983V113.597C170.135 113.779 169.745 113.913 169.33 114C168.916 114.091 168.41 114.137 167.813 114.137ZM177.331 106.214C177.614 106.214 177.848 106.234 178.035 106.275L177.878 108.23C177.709 108.185 177.504 108.162 177.263 108.162C176.597 108.162 176.078 108.333 175.704 108.675C175.335 109.017 175.15 109.495 175.15 110.11V114H173.065V106.357H174.645L174.952 107.643H175.055C175.292 107.214 175.611 106.87 176.012 106.61C176.417 106.346 176.857 106.214 177.331 106.214ZM183.324 117.363C182.791 117.363 182.333 117.306 181.95 117.192V115.552C182.269 115.638 182.595 115.682 182.928 115.682C183.279 115.682 183.534 115.584 183.693 115.388C183.858 115.192 183.94 114.902 183.94 114.52V106.357H186.025V114.827C186.025 115.638 185.79 116.263 185.32 116.7C184.851 117.142 184.186 117.363 183.324 117.363ZM183.851 104.382C183.851 103.703 184.229 103.363 184.985 103.363C185.742 103.363 186.12 103.703 186.12 104.382C186.12 104.705 186.025 104.958 185.833 105.141C185.646 105.318 185.364 105.407 184.985 105.407C184.229 105.407 183.851 105.065 183.851 104.382ZM190.32 110.165C190.32 110.922 190.443 111.493 190.689 111.881C190.94 112.268 191.345 112.462 191.906 112.462C192.462 112.462 192.861 112.271 193.102 111.888C193.348 111.5 193.471 110.926 193.471 110.165C193.471 109.409 193.348 108.841 193.102 108.463C192.856 108.085 192.453 107.896 191.892 107.896C191.336 107.896 190.935 108.085 190.689 108.463C190.443 108.837 190.32 109.404 190.32 110.165ZM195.604 110.165C195.604 111.409 195.276 112.382 194.62 113.084C193.964 113.786 193.05 114.137 191.879 114.137C191.145 114.137 190.498 113.977 189.937 113.658C189.377 113.335 188.946 112.872 188.645 112.271C188.344 111.669 188.194 110.967 188.194 110.165C188.194 108.916 188.52 107.946 189.172 107.253C189.823 106.56 190.739 106.214 191.92 106.214C192.653 106.214 193.3 106.373 193.861 106.692C194.422 107.011 194.852 107.469 195.153 108.066C195.454 108.663 195.604 109.363 195.604 110.165ZM203.181 114L202.901 113.022H202.791C202.568 113.378 202.251 113.654 201.841 113.85C201.431 114.041 200.964 114.137 200.44 114.137C199.542 114.137 198.865 113.897 198.409 113.419C197.954 112.936 197.726 112.243 197.726 111.341V106.357H199.811V110.821C199.811 111.373 199.909 111.787 200.105 112.065C200.301 112.339 200.613 112.476 201.041 112.476C201.625 112.476 202.046 112.282 202.306 111.895C202.566 111.503 202.696 110.855 202.696 109.953V106.357H204.78V114H203.181ZM211.674 106.214C211.956 106.214 212.191 106.234 212.378 106.275L212.22 108.23C212.052 108.185 211.847 108.162 211.605 108.162C210.94 108.162 210.42 108.333 210.047 108.675C209.678 109.017 209.493 109.495 209.493 110.11V114H207.408V106.357H208.987L209.295 107.643H209.397C209.634 107.214 209.953 106.87 210.354 106.61C210.76 106.346 211.2 106.214 211.674 106.214ZM221.26 114H219.175V109.536C219.175 108.985 219.077 108.572 218.881 108.299C218.685 108.021 218.373 107.882 217.945 107.882C217.361 107.882 216.94 108.078 216.68 108.47C216.42 108.857 216.29 109.502 216.29 110.404V114H214.205V106.357H215.798L216.078 107.335H216.195C216.427 106.966 216.746 106.688 217.152 106.501C217.562 106.31 218.027 106.214 218.546 106.214C219.435 106.214 220.109 106.455 220.57 106.938C221.03 107.417 221.26 108.11 221.26 109.017V114ZM227.012 107.697C226.57 107.697 226.223 107.839 225.973 108.121C225.722 108.399 225.578 108.796 225.542 109.311H228.468C228.459 108.796 228.324 108.399 228.064 108.121C227.805 107.839 227.454 107.697 227.012 107.697ZM227.306 114.137C226.075 114.137 225.114 113.797 224.421 113.118C223.728 112.439 223.382 111.478 223.382 110.233C223.382 108.953 223.701 107.964 224.339 107.267C224.981 106.565 225.868 106.214 226.998 106.214C228.078 106.214 228.919 106.521 229.52 107.137C230.122 107.752 230.423 108.602 230.423 109.687V110.698H225.494C225.517 111.291 225.692 111.753 226.02 112.086C226.349 112.419 226.809 112.585 227.401 112.585C227.862 112.585 228.297 112.537 228.707 112.441C229.117 112.346 229.545 112.193 229.992 111.983V113.597C229.628 113.779 229.238 113.913 228.823 114C228.408 114.091 227.903 114.137 227.306 114.137ZM231.464 106.357H233.748L235.19 110.657C235.313 111.031 235.397 111.473 235.443 111.983H235.484C235.534 111.514 235.632 111.072 235.778 110.657L237.193 106.357H239.428L236.195 114.978C235.899 115.775 235.475 116.372 234.923 116.769C234.376 117.165 233.736 117.363 233.002 117.363C232.642 117.363 232.289 117.325 231.943 117.247V115.593C232.193 115.652 232.467 115.682 232.763 115.682C233.132 115.682 233.454 115.568 233.727 115.34C234.005 115.117 234.221 114.777 234.376 114.321L234.499 113.945L231.464 106.357Z" fill="#333333"/>
<path opacity="0.5" d="M148.5 273.5H126L323 94.5H344.5L148.5 273.5Z" fill="white"/>
<path opacity="0.5" d="M279 273.5H236L413.5 114V151L279 273.5Z" fill="white"/>
<path opacity="0.5" d="M376.87 274H365L414 230V240.207L376.87 274Z" fill="white"/>
<path opacity="0.6" d="M171 273.5H163L360 94.5H367L171 273.5Z" fill="white"/>
<path d="M331.8 216L331.8 253.4" stroke="#FD9850" stroke-width="2.2" stroke-dasharray="4.4 4.4"/>
<path d="M209.2 218L209.2 245.5" stroke="#FD9850" stroke-width="2.2" stroke-dasharray="4.4 4.4"/>
<rect x="295.925" y="136.825" width="72.05" height="80.85" rx="13.475" fill="#FAF0A7" stroke="#333333" stroke-width="1.65"/>
<path d="M303.115 204.3V196.448H304.78V204.3H303.115ZM310.478 198.182C311.119 198.182 311.634 198.358 312.025 198.709C312.415 199.056 312.61 199.615 312.61 200.385V204.3H310.972V200.793C310.972 200.363 310.893 200.039 310.736 199.821C310.582 199.602 310.338 199.493 310.005 199.493C309.504 199.493 309.162 199.663 308.979 200.003C308.797 200.343 308.705 200.834 308.705 201.475V204.3H307.067V198.295H308.319L308.539 199.063H308.63C308.759 198.856 308.918 198.687 309.108 198.558C309.302 198.429 309.515 198.335 309.747 198.274C309.984 198.213 310.227 198.182 310.478 198.182ZM317.267 203.102C317.446 203.102 317.619 203.084 317.788 203.049C317.959 203.013 318.129 202.968 318.298 202.914V204.134C318.122 204.212 317.904 204.277 317.642 204.327C317.385 204.381 317.102 204.407 316.794 204.407C316.436 204.407 316.114 204.35 315.827 204.236C315.544 204.117 315.32 203.915 315.156 203.629C314.995 203.339 314.914 202.936 314.914 202.42V199.525H314.13V198.832L315.032 198.284L315.505 197.017H316.552V198.295H318.233V199.525H316.552V202.42C316.552 202.649 316.617 202.821 316.746 202.936C316.878 203.047 317.052 203.102 317.267 203.102ZM322.433 198.182C322.988 198.182 323.466 198.29 323.867 198.505C324.268 198.716 324.578 199.024 324.796 199.428C325.015 199.833 325.124 200.327 325.124 200.911V201.706H321.251C321.269 202.168 321.407 202.531 321.665 202.796C321.926 203.058 322.288 203.188 322.75 203.188C323.133 203.188 323.484 203.149 323.803 203.07C324.121 202.991 324.449 202.873 324.786 202.716V203.983C324.488 204.13 324.177 204.237 323.851 204.305C323.529 204.373 323.137 204.407 322.675 204.407C322.073 204.407 321.54 204.296 321.074 204.074C320.612 203.852 320.249 203.514 319.984 203.059C319.722 202.605 319.592 202.032 319.592 201.341C319.592 200.639 319.71 200.055 319.946 199.59C320.186 199.121 320.519 198.77 320.945 198.537C321.371 198.301 321.867 198.182 322.433 198.182ZM322.444 199.348C322.125 199.348 321.86 199.45 321.649 199.654C321.441 199.858 321.321 200.179 321.289 200.615H323.588C323.584 200.372 323.54 200.155 323.454 199.966C323.371 199.776 323.246 199.625 323.078 199.514C322.913 199.403 322.702 199.348 322.444 199.348ZM330.248 198.182C330.33 198.182 330.425 198.188 330.532 198.198C330.643 198.206 330.733 198.216 330.801 198.231L330.677 199.767C330.624 199.749 330.547 199.736 330.446 199.729C330.35 199.719 330.265 199.713 330.194 199.713C329.983 199.713 329.777 199.74 329.576 199.794C329.379 199.847 329.202 199.935 329.044 200.057C328.887 200.175 328.762 200.333 328.668 200.53C328.579 200.723 328.534 200.961 328.534 201.244V204.3H326.896V198.295H328.137L328.378 199.305H328.459C328.577 199.101 328.724 198.915 328.899 198.746C329.078 198.574 329.281 198.438 329.506 198.338C329.736 198.234 329.983 198.182 330.248 198.182ZM335.65 199.525H334.233V204.3H332.594V199.525H331.692V198.736L332.594 198.295V197.855C332.594 197.343 332.68 196.945 332.852 196.662C333.028 196.376 333.273 196.175 333.588 196.061C333.907 195.943 334.283 195.884 334.716 195.884C335.035 195.884 335.325 195.91 335.586 195.964C335.847 196.014 336.06 196.072 336.225 196.136L335.806 197.339C335.681 197.3 335.545 197.264 335.398 197.232C335.251 197.199 335.083 197.183 334.893 197.183C334.664 197.183 334.496 197.253 334.388 197.393C334.284 197.529 334.233 197.704 334.233 197.919V198.295H335.65V199.525ZM339.496 198.172C340.301 198.172 340.919 198.347 341.349 198.698C341.778 199.049 341.993 199.582 341.993 200.299V204.3H340.849L340.532 203.484H340.489C340.318 203.698 340.142 203.874 339.963 204.01C339.784 204.146 339.578 204.246 339.345 204.311C339.113 204.375 338.83 204.407 338.497 204.407C338.142 204.407 337.824 204.339 337.541 204.203C337.261 204.067 337.041 203.86 336.88 203.58C336.719 203.297 336.638 202.939 336.638 202.506C336.638 201.869 336.862 201.4 337.31 201.099C337.757 200.795 338.429 200.626 339.324 200.594L340.366 200.562V200.299C340.366 199.983 340.284 199.753 340.119 199.606C339.954 199.459 339.725 199.385 339.431 199.385C339.141 199.385 338.857 199.427 338.577 199.509C338.298 199.591 338.019 199.695 337.739 199.821L337.197 198.714C337.516 198.546 337.872 198.413 338.266 198.317C338.663 198.22 339.073 198.172 339.496 198.172ZM340.366 201.518L339.732 201.539C339.202 201.554 338.833 201.649 338.626 201.824C338.422 201.999 338.319 202.23 338.319 202.517C338.319 202.767 338.393 202.947 338.54 203.054C338.686 203.158 338.878 203.21 339.114 203.21C339.465 203.21 339.761 203.106 340.001 202.898C340.244 202.691 340.366 202.395 340.366 202.012V201.518ZM346.564 204.407C345.969 204.407 345.463 204.3 345.044 204.085C344.625 203.867 344.306 203.53 344.088 203.075C343.869 202.621 343.76 202.039 343.76 201.33C343.76 200.596 343.883 199.998 344.131 199.536C344.381 199.07 344.727 198.728 345.167 198.51C345.611 198.292 346.125 198.182 346.709 198.182C347.124 198.182 347.482 198.224 347.783 198.306C348.087 198.385 348.352 198.48 348.578 198.591L348.094 199.858C347.837 199.754 347.597 199.67 347.375 199.606C347.153 199.538 346.931 199.504 346.709 199.504C346.422 199.504 346.184 199.572 345.994 199.708C345.805 199.84 345.663 200.041 345.57 200.309C345.477 200.578 345.43 200.914 345.43 201.319C345.43 201.717 345.481 202.046 345.581 202.307C345.681 202.569 345.826 202.764 346.016 202.893C346.206 203.018 346.437 203.081 346.709 203.081C347.049 203.081 347.351 203.036 347.616 202.947C347.881 202.853 348.139 202.725 348.39 202.56V203.962C348.139 204.119 347.876 204.232 347.6 204.3C347.328 204.372 346.983 204.407 346.564 204.407ZM352.702 198.182C353.257 198.182 353.735 198.29 354.136 198.505C354.538 198.716 354.847 199.024 355.066 199.428C355.284 199.833 355.393 200.327 355.393 200.911V201.706H351.521C351.539 202.168 351.677 202.531 351.934 202.796C352.196 203.058 352.557 203.188 353.019 203.188C353.402 203.188 353.753 203.149 354.072 203.07C354.391 202.991 354.718 202.873 355.055 202.716V203.983C354.758 204.13 354.446 204.237 354.12 204.305C353.798 204.373 353.406 204.407 352.944 204.407C352.343 204.407 351.809 204.296 351.344 204.074C350.882 203.852 350.518 203.514 350.253 203.059C349.992 202.605 349.861 202.032 349.861 201.341C349.861 200.639 349.979 200.055 350.216 199.59C350.455 199.121 350.789 198.77 351.215 198.537C351.641 198.301 352.137 198.182 352.702 198.182ZM352.713 199.348C352.394 199.348 352.129 199.45 351.918 199.654C351.711 199.858 351.591 200.179 351.558 200.615H353.857C353.854 200.372 353.809 200.155 353.723 199.966C353.641 199.776 353.515 199.625 353.347 199.514C353.182 199.403 352.971 199.348 352.713 199.348ZM361.355 202.517C361.355 202.925 361.258 203.271 361.065 203.553C360.875 203.833 360.59 204.046 360.211 204.193C359.831 204.336 359.359 204.407 358.793 204.407C358.374 204.407 358.014 204.381 357.713 204.327C357.416 204.273 357.115 204.184 356.811 204.058V202.705C357.137 202.852 357.486 202.973 357.858 203.07C358.234 203.163 358.564 203.21 358.847 203.21C359.165 203.21 359.393 203.163 359.529 203.07C359.668 202.973 359.738 202.848 359.738 202.694C359.738 202.594 359.709 202.504 359.652 202.426C359.598 202.343 359.48 202.252 359.298 202.152C359.115 202.048 358.829 201.913 358.438 201.749C358.062 201.591 357.753 201.432 357.509 201.271C357.269 201.11 357.09 200.92 356.972 200.701C356.857 200.479 356.8 200.198 356.8 199.858C356.8 199.303 357.015 198.886 357.445 198.607C357.878 198.324 358.456 198.182 359.18 198.182C359.552 198.182 359.906 198.22 360.243 198.295C360.583 198.37 360.932 198.49 361.29 198.655L360.796 199.837C360.499 199.708 360.218 199.602 359.953 199.52C359.692 199.437 359.425 199.396 359.153 199.396C358.913 199.396 358.732 199.428 358.61 199.493C358.488 199.557 358.428 199.656 358.428 199.788C358.428 199.885 358.458 199.971 358.519 200.046C358.583 200.121 358.705 200.205 358.884 200.299C359.067 200.388 359.333 200.504 359.684 200.648C360.025 200.787 360.32 200.934 360.571 201.088C360.821 201.239 361.015 201.427 361.151 201.652C361.287 201.874 361.355 202.162 361.355 202.517Z" fill="#333333"/>
<path d="M346.449 175.42V176.799L342.811 178.889L331.948 181.62V177.284L346.449 175.42Z" fill="#C78A0C"/>
<path d="M346.449 160.135V175.422L331.948 177.285V168.468L346.449 160.135Z" fill="#598F22"/>
<path d="M346.449 160.135L331.949 168.467L317.449 160.135L331.949 151.802L346.449 160.135Z" fill="#598F22"/>
<path d="M342.811 178.889L331.948 185.132V181.621L342.811 178.889Z" fill="#754C24"/>
<path d="M331.949 181.621V185.131L317.449 176.799V169.215L331.929 181.626L331.949 181.621Z" fill="#754C24"/>
<path d="M331.949 177.285V181.621L331.929 181.626L317.449 169.215V164.3L331.929 177.287L331.949 177.285Z" fill="#C78A0C"/>
<path d="M331.949 168.467V177.285L331.929 177.288L317.449 164.3V160.135L331.949 168.467Z" fill="#598F22"/>
<path d="M332.299 185.131H331.598V168.669L317.273 160.437L317.624 159.832L332.299 168.265L332.299 185.131Z" fill="#1D1D1B"/>
<path d="M346.274 159.832L331.774 168.166L332.125 168.77L346.625 160.436L346.274 159.832Z" fill="#1D1D1B"/>
<path d="M331.949 185.534L317.1 177V159.934L317.275 159.833L331.951 151.4L346.8 159.933V176.999L331.949 185.534ZM317.8 176.599L331.949 184.73L346.099 176.599V160.337L331.949 152.206L317.8 160.337V176.599Z" fill="#1D1D1B"/>
<path d="M331.835 182.006L317.22 169.479L317.678 168.95L332.02 181.243L342.726 178.55L342.896 179.228L332.008 181.966L331.835 182.006Z" fill="#1D1D1B"/>
<path d="M331.811 177.652L331.694 177.546L317.214 164.559L317.682 164.041L332.042 176.921L346.402 175.075L346.492 175.767L331.966 177.634L331.811 177.652Z" fill="#1D1D1B"/>
<path d="M126 269C161.311 258.903 188.345 251.118 241.862 252.081C295.38 253.043 342.416 269 414 267.096" stroke="#FD9850" stroke-width="5.5"/>
<circle cx="209.5" cy="252.5" r="6.4" fill="white" stroke="#FD9850" stroke-width="2.2"/>
<circle cx="331.5" cy="260.7" r="6.4" fill="white" stroke="#FD9850" stroke-width="2.2"/>
<rect x="163.825" y="136.825" width="91.85" height="80.85" rx="13.475" fill="#FAF0A7" stroke="#333333" stroke-width="1.65"/>
<path d="M174.359 195.521C174.04 195.521 173.757 195.583 173.51 195.708C173.266 195.83 173.061 196.007 172.892 196.24C172.728 196.473 172.602 196.754 172.516 197.083C172.43 197.413 172.387 197.784 172.387 198.195C172.387 198.75 172.455 199.225 172.591 199.619C172.731 200.009 172.946 200.308 173.236 200.516C173.526 200.72 173.9 200.822 174.359 200.822C174.677 200.822 174.996 200.786 175.315 200.714C175.637 200.643 175.986 200.541 176.362 200.408V201.805C176.015 201.948 175.673 202.05 175.336 202.111C174.999 202.175 174.622 202.208 174.203 202.208C173.394 202.208 172.728 202.041 172.205 201.708C171.686 201.371 171.301 200.902 171.05 200.301C170.799 199.696 170.674 198.99 170.674 198.185C170.674 197.59 170.755 197.046 170.916 196.552C171.077 196.058 171.313 195.63 171.625 195.268C171.936 194.906 172.321 194.627 172.779 194.43C173.238 194.233 173.764 194.135 174.359 194.135C174.749 194.135 175.139 194.185 175.529 194.285C175.923 194.382 176.299 194.516 176.657 194.688L176.12 196.042C175.827 195.902 175.531 195.78 175.234 195.676C174.937 195.572 174.645 195.521 174.359 195.521ZM183.806 199.087C183.806 199.588 183.738 200.032 183.602 200.419C183.469 200.806 183.274 201.133 183.016 201.402C182.762 201.667 182.454 201.867 182.092 202.003C181.734 202.139 181.33 202.208 180.879 202.208C180.456 202.208 180.068 202.139 179.713 202.003C179.362 201.867 179.056 201.667 178.795 201.402C178.537 201.133 178.336 200.806 178.193 200.419C178.053 200.032 177.984 199.588 177.984 199.087C177.984 198.421 178.102 197.857 178.338 197.395C178.574 196.933 178.911 196.582 179.348 196.342C179.785 196.102 180.306 195.982 180.911 195.982C181.473 195.982 181.971 196.102 182.404 196.342C182.841 196.582 183.183 196.933 183.43 197.395C183.681 197.857 183.806 198.421 183.806 199.087ZM179.654 199.087C179.654 199.481 179.697 199.812 179.783 200.081C179.869 200.349 180.003 200.551 180.186 200.688C180.368 200.824 180.606 200.892 180.9 200.892C181.19 200.892 181.425 200.824 181.604 200.688C181.786 200.551 181.919 200.349 182.001 200.081C182.087 199.812 182.13 199.481 182.13 199.087C182.13 198.689 182.087 198.36 182.001 198.099C181.919 197.834 181.786 197.635 181.604 197.502C181.421 197.37 181.183 197.304 180.889 197.304C180.456 197.304 180.141 197.452 179.944 197.75C179.751 198.047 179.654 198.493 179.654 199.087ZM189.01 195.982C189.651 195.982 190.167 196.158 190.557 196.509C190.947 196.856 191.142 197.415 191.142 198.185V202.1H189.504V198.593C189.504 198.163 189.425 197.839 189.268 197.621C189.114 197.402 188.87 197.293 188.537 197.293C188.036 197.293 187.694 197.463 187.511 197.803C187.329 198.143 187.238 198.634 187.238 199.275V202.1H185.599V196.095H186.851L187.071 196.863H187.162C187.291 196.656 187.451 196.487 187.64 196.358C187.834 196.229 188.047 196.135 188.28 196.074C188.516 196.013 188.759 195.982 189.01 195.982ZM197.458 200.317C197.458 200.725 197.362 201.071 197.168 201.354C196.979 201.633 196.694 201.846 196.314 201.993C195.935 202.136 195.462 202.208 194.896 202.208C194.477 202.208 194.118 202.181 193.817 202.127C193.52 202.073 193.219 201.984 192.914 201.858V200.505C193.24 200.652 193.589 200.773 193.962 200.87C194.338 200.963 194.667 201.01 194.95 201.01C195.269 201.01 195.496 200.963 195.632 200.87C195.772 200.773 195.842 200.648 195.842 200.494C195.842 200.394 195.813 200.304 195.756 200.226C195.702 200.143 195.584 200.052 195.401 199.952C195.219 199.848 194.932 199.714 194.542 199.549C194.166 199.391 193.856 199.232 193.613 199.071C193.373 198.91 193.194 198.72 193.076 198.501C192.961 198.279 192.904 197.998 192.904 197.658C192.904 197.103 193.118 196.686 193.548 196.407C193.981 196.124 194.56 195.982 195.283 195.982C195.655 195.982 196.01 196.02 196.347 196.095C196.687 196.17 197.036 196.29 197.394 196.455L196.9 197.637C196.603 197.508 196.321 197.402 196.056 197.32C195.795 197.237 195.528 197.196 195.256 197.196C195.016 197.196 194.835 197.229 194.714 197.293C194.592 197.357 194.531 197.456 194.531 197.588C194.531 197.685 194.562 197.771 194.622 197.846C194.687 197.921 194.809 198.006 194.988 198.099C195.17 198.188 195.437 198.305 195.788 198.448C196.128 198.587 196.423 198.734 196.674 198.888C196.925 199.039 197.118 199.227 197.254 199.452C197.39 199.674 197.458 199.962 197.458 200.317ZM204.634 199.087C204.634 199.588 204.566 200.032 204.43 200.419C204.297 200.806 204.102 201.133 203.844 201.402C203.59 201.667 203.282 201.867 202.92 202.003C202.562 202.139 202.158 202.208 201.706 202.208C201.284 202.208 200.895 202.139 200.541 202.003C200.19 201.867 199.884 201.667 199.622 201.402C199.365 201.133 199.164 200.806 199.021 200.419C198.881 200.032 198.811 199.588 198.811 199.087C198.811 198.421 198.93 197.857 199.166 197.395C199.402 196.933 199.739 196.582 200.176 196.342C200.613 196.102 201.134 195.982 201.739 195.982C202.301 195.982 202.799 196.102 203.232 196.342C203.669 196.582 204.011 196.933 204.258 197.395C204.508 197.857 204.634 198.421 204.634 199.087ZM200.482 199.087C200.482 199.481 200.525 199.812 200.611 200.081C200.697 200.349 200.831 200.551 201.014 200.688C201.196 200.824 201.434 200.892 201.728 200.892C202.018 200.892 202.252 200.824 202.432 200.688C202.614 200.551 202.747 200.349 202.829 200.081C202.915 199.812 202.958 199.481 202.958 199.087C202.958 198.689 202.915 198.36 202.829 198.099C202.747 197.834 202.614 197.635 202.432 197.502C202.249 197.37 202.011 197.304 201.717 197.304C201.284 197.304 200.969 197.452 200.772 197.75C200.578 198.047 200.482 198.493 200.482 199.087ZM208.065 202.1H206.427V193.743H208.065V202.1ZM211.868 196.095V202.1H210.229V196.095H211.868ZM211.051 193.743C211.295 193.743 211.504 193.8 211.68 193.915C211.855 194.026 211.943 194.235 211.943 194.543C211.943 194.847 211.855 195.059 211.68 195.177C211.504 195.291 211.295 195.349 211.051 195.349C210.804 195.349 210.593 195.291 210.417 195.177C210.246 195.059 210.16 194.847 210.16 194.543C210.16 194.235 210.246 194.026 210.417 193.915C210.593 193.8 210.804 193.743 211.051 193.743ZM215.933 202.208C215.264 202.208 214.718 201.946 214.295 201.423C213.876 200.897 213.667 200.125 213.667 199.108C213.667 198.081 213.88 197.304 214.306 196.777C214.732 196.247 215.289 195.982 215.976 195.982C216.263 195.982 216.515 196.022 216.733 196.101C216.952 196.179 217.14 196.285 217.297 196.417C217.459 196.55 217.595 196.699 217.706 196.863H217.759C217.738 196.749 217.711 196.58 217.679 196.358C217.65 196.133 217.636 195.902 217.636 195.666V193.743H219.279V202.1H218.023L217.706 201.321H217.636C217.532 201.486 217.401 201.636 217.244 201.772C217.09 201.905 216.905 202.011 216.69 202.089C216.476 202.168 216.223 202.208 215.933 202.208ZM216.508 200.902C216.955 200.902 217.271 200.77 217.453 200.505C217.639 200.236 217.738 199.833 217.749 199.296V199.119C217.749 198.535 217.659 198.09 217.48 197.782C217.301 197.47 216.968 197.314 216.481 197.314C216.119 197.314 215.836 197.47 215.632 197.782C215.428 198.093 215.326 198.543 215.326 199.13C215.326 199.717 215.428 200.159 215.632 200.457C215.84 200.754 216.132 200.902 216.508 200.902ZM223.893 195.972C224.698 195.972 225.316 196.147 225.746 196.498C226.175 196.849 226.39 197.382 226.39 198.099V202.1H225.246L224.929 201.284H224.886C224.714 201.499 224.539 201.674 224.36 201.81C224.181 201.946 223.975 202.046 223.742 202.111C223.51 202.175 223.227 202.208 222.894 202.208C222.539 202.208 222.22 202.139 221.938 202.003C221.658 201.867 221.438 201.66 221.277 201.38C221.116 201.097 221.035 200.739 221.035 200.306C221.035 199.669 221.259 199.2 221.707 198.899C222.154 198.595 222.826 198.426 223.721 198.394L224.763 198.362V198.099C224.763 197.784 224.68 197.553 224.516 197.406C224.351 197.259 224.122 197.186 223.828 197.186C223.538 197.186 223.254 197.227 222.974 197.309C222.695 197.391 222.416 197.495 222.136 197.621L221.594 196.514C221.913 196.346 222.269 196.213 222.663 196.117C223.06 196.02 223.47 195.972 223.893 195.972ZM224.763 199.318L224.129 199.339C223.599 199.354 223.23 199.449 223.023 199.624C222.818 199.799 222.716 200.03 222.716 200.317C222.716 200.568 222.79 200.747 222.937 200.854C223.083 200.958 223.275 201.01 223.511 201.01C223.862 201.01 224.158 200.906 224.398 200.698C224.641 200.491 224.763 200.195 224.763 199.812V199.318ZM231.052 200.902C231.231 200.902 231.405 200.884 231.573 200.849C231.745 200.813 231.915 200.768 232.083 200.714V201.934C231.908 202.012 231.689 202.077 231.428 202.127C231.17 202.181 230.887 202.208 230.579 202.208C230.221 202.208 229.899 202.15 229.612 202.036C229.33 201.917 229.106 201.715 228.941 201.429C228.78 201.139 228.699 200.736 228.699 200.22V197.325H227.915V196.632L228.818 196.084L229.29 194.817H230.338V196.095H232.019V197.325H230.338V200.22C230.338 200.449 230.402 200.621 230.531 200.736C230.663 200.847 230.837 200.902 231.052 200.902ZM235.381 196.095V202.1H233.742V196.095H235.381ZM234.564 193.743C234.808 193.743 235.017 193.8 235.193 193.915C235.368 194.026 235.456 194.235 235.456 194.543C235.456 194.847 235.368 195.059 235.193 195.177C235.017 195.291 234.808 195.349 234.564 195.349C234.317 195.349 234.106 195.291 233.93 195.177C233.759 195.059 233.673 194.847 233.673 194.543C233.673 194.235 233.759 194.026 233.93 193.915C234.106 193.8 234.317 193.743 234.564 193.743ZM243.002 199.087C243.002 199.588 242.934 200.032 242.798 200.419C242.665 200.806 242.47 201.133 242.212 201.402C241.958 201.667 241.65 201.867 241.288 202.003C240.93 202.139 240.526 202.208 240.075 202.208C239.652 202.208 239.263 202.139 238.909 202.003C238.558 201.867 238.252 201.667 237.991 201.402C237.733 201.133 237.532 200.806 237.389 200.419C237.249 200.032 237.179 199.588 237.179 199.087C237.179 198.421 237.298 197.857 237.534 197.395C237.77 196.933 238.107 196.582 238.544 196.342C238.981 196.102 239.502 195.982 240.107 195.982C240.669 195.982 241.167 196.102 241.6 196.342C242.037 196.582 242.379 196.933 242.626 197.395C242.876 197.857 243.002 198.421 243.002 199.087ZM238.85 199.087C238.85 199.481 238.893 199.812 238.979 200.081C239.065 200.349 239.199 200.551 239.382 200.688C239.564 200.824 239.802 200.892 240.096 200.892C240.386 200.892 240.621 200.824 240.8 200.688C240.982 200.551 241.115 200.349 241.197 200.081C241.283 199.812 241.326 199.481 241.326 199.087C241.326 198.689 241.283 198.36 241.197 198.099C241.115 197.834 240.982 197.635 240.8 197.502C240.617 197.37 240.379 197.304 240.085 197.304C239.652 197.304 239.337 197.452 239.14 197.75C238.947 198.047 238.85 198.493 238.85 199.087ZM248.206 195.982C248.847 195.982 249.362 196.158 249.753 196.509C250.143 196.856 250.338 197.415 250.338 198.185V202.1H248.7V198.593C248.7 198.163 248.621 197.839 248.464 197.621C248.31 197.402 248.066 197.293 247.733 197.293C247.232 197.293 246.89 197.463 246.707 197.803C246.525 198.143 246.433 198.634 246.433 199.275V202.1H244.795V196.095H246.047L246.267 196.863H246.358C246.487 196.656 246.647 196.487 246.836 196.358C247.03 196.229 247.243 196.135 247.475 196.074C247.712 196.013 247.955 195.982 248.206 195.982Z" fill="#333333"/>
<path d="M224.249 172.12V173.499L220.611 175.589L209.748 178.32V173.984L224.249 172.12Z" fill="#C78A0C"/>
<path d="M224.249 156.834V172.122L209.748 173.985V165.167L224.249 156.834Z" fill="#598F22"/>
<path d="M224.249 156.834L209.748 165.167L195.249 156.834L209.748 148.502L224.249 156.834Z" fill="#598F22"/>
<path d="M220.611 175.589L209.748 181.832V178.321L220.611 175.589Z" fill="#754C24"/>
<path d="M209.748 178.321V181.831L195.249 173.499V165.915L209.728 178.326L209.748 178.321Z" fill="#754C24"/>
<path d="M209.748 173.985V178.321L209.728 178.325L195.249 165.915V161L209.728 173.987L209.748 173.985Z" fill="#C78A0C"/>
<path d="M209.748 165.167V173.985L209.728 173.987L195.249 161V156.834L209.748 165.167Z" fill="#598F22"/>
<path d="M210.099 181.832H209.397V165.369L195.073 157.137L195.424 156.532L210.099 164.966L210.099 181.832Z" fill="#1D1D1B"/>
<path d="M224.074 156.532L209.574 164.866L209.924 165.471L224.425 157.137L224.074 156.532Z" fill="#1D1D1B"/>
<path d="M209.749 182.234L194.9 173.7V156.634L195.075 156.533L209.75 148.1L224.6 156.633V173.699L209.749 182.234ZM195.599 173.299L209.749 181.43L223.899 173.299V157.037L209.749 148.906L195.599 157.037V173.299Z" fill="#1D1D1B"/>
<path d="M209.635 178.706L195.02 166.18L195.478 165.651L209.82 177.943L220.526 175.251L220.696 175.928L209.807 178.666L209.635 178.706Z" fill="#1D1D1B"/>
<path d="M209.611 174.352L209.494 174.247L195.014 161.259L195.482 160.741L209.842 173.621L224.202 171.775L224.292 172.467L209.766 174.334L209.611 174.352Z" fill="#1D1D1B"/>
<ellipse cx="24.5" cy="25" rx="24.5" ry="25" transform="matrix(-1 0 0 1 85 271)" fill="#565656"/>
<circle cx="61" cy="296" r="13" transform="rotate(180 61 296)" fill="#F7F7F7"/>
<path d="M105 171C105 159.954 96.0457 151 85 151H-284C-295.046 151 -304 159.954 -304 171V297H105V171Z" fill="#E6A513"/>
<path opacity="0.8" d="M16 171C16 159.954 7.04569 151 -4 151H-284C-295.046 151 -304 159.954 -304 171V297H16V171Z" fill="#8A630B"/>
<rect width="420" height="12" rx="4.5" transform="matrix(-1 0 0 1 109 285)" fill="#649D35"/>
<rect width="89" height="60" transform="matrix(-1 0 0 1 105 180)" fill="#EEF8FC"/>
<path d="M-27 190C-27 184.477 -22.5228 180 -17 180H16V240H-17C-22.5228 240 -27 235.523 -27 230V190Z" fill="#D2E3EF"/>
<rect x="37" y="159" width="42" height="7" rx="3.5" fill="#FFF2D4"/>
<path d="M44 264H77" stroke="#6C6C6C" stroke-width="4" stroke-linecap="round" stroke-linejoin="round"/>
<path d="M44 271H76" stroke="#6C6C6C" stroke-width="4" stroke-linecap="round" stroke-linejoin="round"/>
<path d="M44 278H76" stroke="#6C6C6C" stroke-width="4" stroke-linecap="round" stroke-linejoin="round"/>
<g filter="url(#filter0_d_1877_5117)">
<path d="M70.4503 226.077H45V246.831H70.4503V226.077Z" fill="white"/>
<path d="M83.9478 219.456L74.3348 220.88L79.373 232.561L93.2047 224.44L103.174 214.115L98.1892 209.487L90.3564 216.608L83.9478 219.456Z" fill="white"/>
<path fill-rule="evenodd" clip-rule="evenodd" d="M98.1984 207.75L105 214.065L94.0033 225.455L78.7719 234.397L72.5011 219.858L83.5877 218.216L89.6485 215.522L98.1984 207.75ZM98.18 211.224L91.0643 217.693L84.3078 220.696L76.1685 221.901L79.9741 230.725L92.4061 223.426L101.348 214.165L98.18 211.224Z" fill="#1D1D1D"/>
<path d="M48.2214 229.169L44.5819 236.39L49.2422 241.953V251.689H41.549L32.5754 240.325L41.549 219.018C41.0998 204.869 41.8488 192.545 41.8488 192.545C41.8488 192.545 50.9384 186.957 54.3869 186.438C58.3382 185.845 70.1776 188.899 70.1776 188.899L84.2337 200.735L84.3432 200.829C84.4115 201.325 84.4459 201.825 84.4463 202.325C84.4063 204.435 83.8802 206.506 82.9092 208.379C80.101 214.099 74.3375 218.366 73.5222 218.95C73.4598 218.996 73.4255 219.019 73.4255 219.019L82.4 240.326L73.4247 247.693H65.7276V241.953L70.3879 236.391L66.7491 229.17" fill="white"/>
<path d="M71.7094 218.487L80.572 239.756L72.5783 245.751L74.177 248.149L83.9749 240.54L75.1019 219.479C77.0948 217.939 81.6496 214.046 84.1348 208.986C85.1998 206.925 85.7743 204.647 85.8135 202.327C85.8129 201.766 85.7742 201.205 85.6976 200.649L85.6272 200.136L70.8197 187.659L70.5184 187.579C69.2785 187.258 58.2904 184.472 54.1833 185.089C50.5645 185.633 42.0864 190.796 41.132 191.383L40.5261 191.756L40.4829 192.466C40.4749 192.588 39.7443 204.84 40.1711 218.765L31 240.54L40.8858 253.058H50.6117V240L46.2096 236.203L49.4438 229.786L47.001 228.555L42.957 236.579L47.8763 240.995V250.322H42.2127L34.1383 240.113L42.9146 219.276L42.905 218.977C42.5245 206.972 43.0169 196.163 43.164 193.342C46.0137 191.631 52.1689 188.156 54.579 187.794C57.5071 187.353 66.0811 189.278 69.5271 190.151L83.0365 201.525C83.0597 201.794 83.0708 202.063 83.0708 202.328C83.0307 204.228 82.5528 206.093 81.6744 207.778C78.9885 213.248 73.3529 217.387 72.6847 217.866L71.7094 218.487Z" fill="#1D1D1D"/>
<path d="M74.1771 245.75H49.3967V248.149H74.1771V245.75Z" fill="#1D1D1B"/>
<path d="M84.4442 202.327C84.4041 204.436 83.8781 206.508 82.907 208.381L77.9277 202.471L84.3403 200.832C84.4088 201.327 84.4435 201.827 84.4442 202.327Z" fill="#1D1D1B"/>
<path d="M51.17 201.095H46.0261C45.8352 201.095 45.6465 201.055 45.4721 200.977C45.2977 200.9 45.1414 200.786 45.0134 200.645C44.8854 200.503 44.7885 200.336 44.7289 200.155C44.6692 199.974 44.6482 199.782 44.6672 199.592L45.0956 195.305C45.1218 195.042 45.2237 194.792 45.389 194.585L47.1029 192.441C47.2311 192.281 47.3938 192.152 47.5788 192.063C47.7638 191.974 47.9664 191.928 48.1716 191.928H52.4586V194.664H48.8295L47.7775 195.979L47.5377 198.359H51.17V201.095Z" fill="#1D1D1B"/>
<path d="M83.1006 209.163V214.759C83.1011 214.833 83.0793 214.906 83.0382 214.968C82.997 215.03 82.9384 215.078 82.8697 215.106C82.801 215.134 82.7255 215.142 82.6527 215.127C82.5799 215.112 82.5132 215.076 82.4612 215.023L80.4268 212.988L83.1006 209.163Z" fill="white"/>
<path d="M82.7254 216.273C82.5268 216.272 82.3301 216.233 82.1467 216.157C81.9633 216.08 81.7968 215.969 81.6566 215.828L78.9468 213.117L84.241 205.541V214.758C84.2399 215.16 84.0795 215.545 83.7948 215.829C83.51 216.113 83.1243 216.273 82.7222 216.273H82.7254ZM81.9108 212.857L81.9612 212.907V212.786L81.9108 212.857Z" fill="#1D1D1B"/>
<path d="M83.2775 210.948L81.2847 208.576L81.6844 207.777C82.5622 206.092 83.0398 204.228 83.0801 202.329C83.0797 201.89 83.0495 201.453 82.9897 201.018L85.654 200.434C86.8531 204.367 84.3495 209.001 84.2423 209.197L83.2775 210.948Z" fill="#1D1D1B"/>
<path d="M73.1438 220.905L72.3677 219.687C71.0964 217.685 70.3863 215.378 70.3115 213.007C70.2367 210.636 70.8001 208.289 71.9426 206.211C73.0852 204.132 74.765 202.399 76.8066 201.191C78.8482 199.984 81.1766 199.347 83.5484 199.347C83.8015 199.347 84.0544 199.354 84.307 199.368L84.7723 199.393L85.6268 200.129L85.6971 200.642C85.774 201.198 85.813 201.759 85.8138 202.32C85.7746 204.64 85.2001 206.918 84.1352 208.979C81.2175 214.922 75.4452 219.249 74.3173 220.057L73.1438 220.905ZM83.0736 202.097C81.3634 202.176 79.6985 202.672 78.2234 203.541C76.7483 204.41 75.5078 205.626 74.6097 207.084C73.7116 208.541 73.183 210.196 73.0699 211.904C72.9568 213.612 73.2626 215.322 73.9608 216.886C75.9256 215.292 79.6491 211.914 81.6819 207.773C82.5604 206.088 83.0382 204.223 83.0784 202.323C83.0768 202.251 83.076 202.175 83.0736 202.097Z" fill="#1D1D1B"/>
<path d="M68.2505 201.726C68.1006 201.876 67.8975 201.96 67.6856 201.96C67.4737 201.96 67.2705 201.876 67.1207 201.726L63.4179 198.023L59.6806 201.76C59.5308 201.91 59.3276 201.994 59.1157 201.994C58.9039 201.994 58.7007 201.91 58.5509 201.76L57.6821 200.892C57.5323 200.742 57.4481 200.539 57.4481 200.327C57.4481 200.115 57.5323 199.912 57.6821 199.762L62.879 194.565C63.0288 194.415 63.232 194.331 63.4439 194.331C63.6557 194.331 63.8589 194.415 64.0088 194.565L64.8775 195.434C64.8956 195.452 64.9137 195.47 64.9312 195.487L69.1452 199.701C69.2951 199.851 69.3792 200.054 69.3792 200.266C69.3792 200.478 69.2951 200.681 69.1452 200.831L68.2505 201.726Z" fill="#2E2E2E"/>
<path opacity="0.6" d="M63.2016 208.406C65.6282 208.406 67.5954 207.333 67.5954 206.009C67.5954 204.686 65.6282 203.613 63.2016 203.613C60.775 203.613 58.8079 204.686 58.8079 206.009C58.8079 207.333 60.775 208.406 63.2016 208.406Z" fill="#FFB2E8"/>
</g>
<path d="M31 240H16V257H105V240H50.5V253H41L31 240Z" fill="#C78A0C"/>
<circle cx="28" cy="261" r="8" fill="#FEFBE7"/>
<circle cx="83" cy="261" r="8" fill="#FEFBE7"/>
</g>
<defs>
<filter id="filter0_d_1877_5117" x="26" y="184" width="84" height="78.0583" filterUnits="userSpaceOnUse" color-interpolation-filters="sRGB">
<feFlood flood-opacity="0" result="BackgroundImageFix"/>
<feColorMatrix in="SourceAlpha" type="matrix" values="0 0 0 0 0 0 0 0 0 0 0 0 0 0 0 0 0 0 127 0" result="hardAlpha"/>
<feOffset dy="4"/>
<feGaussianBlur stdDeviation="2.5"/>
<feComposite in2="hardAlpha" operator="out"/>
<feColorMatrix type="matrix" values="0 0 0 0 0 0 0 0 0 0 0 0 0 0 0 0 0 0 0.25 0"/>
<feBlend mode="normal" in2="BackgroundImageFix" result="effect1_dropShadow_1877_5117"/>
<feBlend mode="normal" in="SourceGraphic" in2="effect1_dropShadow_1877_5117" result="shape"/>
</filter>
<clipPath id="clip0_1877_5117">
<rect width="1500" height="350" fill="white"/>
</clipPath>
</defs>
</svg>
