<svg width="1500" height="350" viewBox="0 0 1500 350" fill="none" xmlns="http://www.w3.org/2000/svg">
<g clip-path="url(#clip0_1877_5117)">
<rect width="1500" height="350" fill="#FFF2D4"/>
<rect y="281" width="1500" height="69" fill="#9A9A9A"/>
<path d="M2.18557e-07 313.5C-1.38071 313.5 -2.5 314.619 -2.5 316C-2.5 317.381 -1.38071 318.5 -2.18557e-07 318.5L2.18557e-07 313.5ZM9.86842 318.5C11.2491 318.5 12.3684 317.381 12.3684 316C12.3684 314.619 11.2491 313.5 9.86842 313.5L9.86842 318.5ZM29.6053 313.5C28.2246 313.5 27.1053 314.619 27.1053 316C27.1053 317.381 28.2246 318.5 29.6053 318.5L29.6053 313.5ZM49.3421 318.5C50.7228 318.5 51.8421 317.381 51.8421 316C51.8421 314.619 50.7228 313.5 49.3421 313.5L49.3421 318.5ZM69.0789 313.5C67.6982 313.5 66.5789 314.619 66.5789 316C66.5789 317.381 67.6982 318.5 69.0789 318.5L69.0789 313.5ZM88.8158 318.5C90.1965 318.5 91.3158 317.381 91.3158 316C91.3158 314.619 90.1965 313.5 88.8158 313.5L88.8158 318.5ZM108.553 313.5C107.172 313.5 106.053 314.619 106.053 316C106.053 317.381 107.172 318.5 108.553 318.5L108.553 313.5ZM128.289 318.5C129.67 318.5 130.789 317.381 130.789 316C130.789 314.619 129.67 313.5 128.289 313.5L128.289 318.5ZM148.026 313.5C146.646 313.5 145.526 314.619 145.526 316C145.526 317.381 146.646 318.5 148.026 318.5L148.026 313.5ZM167.763 318.5C169.144 318.5 170.263 317.381 170.263 316C170.263 314.619 169.144 313.5 167.763 313.5L167.763 318.5ZM187.5 313.5C186.119 313.5 185 314.619 185 316C185 317.381 186.119 318.5 187.5 318.5L187.5 313.5ZM207.237 318.5C208.618 318.5 209.737 317.381 209.737 316C209.737 314.619 208.618 313.5 207.237 313.5L207.237 318.5ZM226.974 313.5C225.593 313.5 224.474 314.619 224.474 316C224.474 317.381 225.593 318.5 226.974 318.5L226.974 313.5ZM246.711 318.5C248.091 318.5 249.211 317.381 249.211 316C249.211 314.619 248.091 313.5 246.711 313.5L246.711 318.5ZM266.447 313.5C265.067 313.5 263.947 314.619 263.947 316C263.947 317.381 265.067 318.5 266.447 318.5L266.447 313.5ZM286.184 318.5C287.565 318.5 288.684 317.381 288.684 316C288.684 314.619 287.565 313.5 286.184 313.5L286.184 318.5ZM305.921 313.5C304.54 313.5 303.421 314.619 303.421 316C303.421 317.381 304.54 318.5 305.921 318.5L305.921 313.5ZM325.658 318.5C327.039 318.5 328.158 317.381 328.158 316C328.158 314.619 327.039 313.5 325.658 313.5L325.658 318.5ZM345.395 313.5C344.014 313.5 342.895 314.619 342.895 316C342.895 317.381 344.014 318.5 345.395 318.5L345.395 313.5ZM365.132 318.5C366.512 318.5 367.632 317.381 367.632 316C367.632 314.619 366.512 313.5 365.132 313.5L365.132 318.5ZM384.868 313.5C383.488 313.5 382.368 314.619 382.368 316C382.368 317.381 383.488 318.5 384.868 318.5L384.868 313.5ZM404.605 318.5C405.986 318.5 407.105 317.381 407.105 316C407.105 314.619 405.986 313.5 404.605 313.5L404.605 318.5ZM424.342 313.5C422.961 313.5 421.842 314.619 421.842 316C421.842 317.381 422.961 318.5 424.342 318.5L424.342 313.5ZM444.079 318.5C445.46 318.5 446.579 317.381 446.579 316C446.579 314.619 445.46 313.5 444.079 313.5L444.079 318.5ZM463.816 313.5C462.435 313.5 461.316 314.619 461.316 316C461.316 317.381 462.435 318.5 463.816 318.5L463.816 313.5ZM483.553 318.5C484.933 318.5 486.053 317.381 486.053 316C486.053 314.619 484.933 313.5 483.553 313.5L483.553 318.5ZM503.29 313.5C501.909 313.5 500.79 314.619 500.79 316C500.79 317.381 501.909 318.5 503.29 318.5L503.29 313.5ZM523.026 318.5C524.407 318.5 525.526 317.381 525.526 316C525.526 314.619 524.407 313.5 523.026 313.5L523.026 318.5ZM542.763 313.5C541.382 313.5 540.263 314.619 540.263 316C540.263 317.381 541.382 318.5 542.763 318.5L542.763 313.5ZM562.5 318.5C563.881 318.5 565 317.381 565 316C565 314.619 563.881 313.5 562.5 313.5L562.5 318.5ZM582.237 313.5C580.856 313.5 579.737 314.619 579.737 316C579.737 317.381 580.856 318.5 582.237 318.5L582.237 313.5ZM601.974 318.5C603.354 318.5 604.474 317.381 604.474 316C604.474 314.619 603.354 313.5 601.974 313.5L601.974 318.5ZM621.71 313.5C620.33 313.5 619.21 314.619 619.21 316C619.21 317.381 620.33 318.5 621.71 318.5L621.71 313.5ZM641.447 318.5C642.828 318.5 643.947 317.381 643.947 316C643.947 314.619 642.828 313.5 641.447 313.5L641.447 318.5ZM661.184 313.5C659.803 313.5 658.684 314.619 658.684 316C658.684 317.381 659.803 318.5 661.184 318.5L661.184 313.5ZM680.921 318.5C682.302 318.5 683.421 317.381 683.421 316C683.421 314.619 682.302 313.5 680.921 313.5L680.921 318.5ZM700.658 313.5C699.277 313.5 698.158 314.619 698.158 316C698.158 317.381 699.277 318.5 700.658 318.5L700.658 313.5ZM720.395 318.5C721.775 318.5 722.895 317.381 722.895 316C722.895 314.619 721.775 313.5 720.395 313.5L720.395 318.5ZM740.131 313.5C738.751 313.5 737.631 314.619 737.631 316C737.631 317.381 738.751 318.5 740.131 318.5L740.131 313.5ZM759.868 318.5C761.249 318.5 762.368 317.381 762.368 316C762.368 314.619 761.249 313.5 759.868 313.5L759.868 318.5ZM779.605 313.5C778.224 313.5 777.105 314.619 777.105 316C777.105 317.381 778.224 318.5 779.605 318.5L779.605 313.5ZM799.342 318.5C800.723 318.5 801.842 317.381 801.842 316C801.842 314.619 800.723 313.5 799.342 313.5L799.342 318.5ZM819.079 313.5C817.698 313.5 816.579 314.619 816.579 316C816.579 317.381 817.698 318.5 819.079 318.5L819.079 313.5ZM838.815 318.5C840.196 318.5 841.315 317.381 841.315 316C841.315 314.619 840.196 313.5 838.815 313.5L838.815 318.5ZM858.552 313.5C857.172 313.5 856.052 314.619 856.052 316C856.052 317.381 857.172 318.5 858.552 318.5L858.552 313.5ZM878.289 318.5C879.67 318.5 880.789 317.381 880.789 316C880.789 314.619 879.67 313.5 878.289 313.5L878.289 318.5ZM898.026 313.5C896.645 313.5 895.526 314.619 895.526 316C895.526 317.381 896.645 318.5 898.026 318.5L898.026 313.5ZM917.763 318.5C919.143 318.5 920.263 317.381 920.263 316C920.263 314.619 919.143 313.5 917.763 313.5L917.763 318.5ZM937.5 313.5C936.119 313.5 935 314.619 935 316C935 317.381 936.119 318.5 937.5 318.5L937.5 313.5ZM957.236 318.5C958.617 318.5 959.736 317.381 959.736 316C959.736 314.619 958.617 313.5 957.236 313.5L957.236 318.5ZM976.973 313.5C975.592 313.5 974.473 314.619 974.473 316C974.473 317.381 975.592 318.5 976.973 318.5L976.973 313.5ZM996.71 318.5C998.091 318.5 999.21 317.381 999.21 316C999.21 314.619 998.091 313.5 996.71 313.5L996.71 318.5ZM1016.45 313.5C1015.07 313.5 1013.95 314.619 1013.95 316C1013.95 317.381 1015.07 318.5 1016.45 318.5L1016.45 313.5ZM1036.18 318.5C1037.56 318.5 1038.68 317.381 1038.68 316C1038.68 314.619 1037.56 313.5 1036.18 313.5L1036.18 318.5ZM1055.92 313.5C1054.54 313.5 1053.42 314.619 1053.42 316C1053.42 317.381 1054.54 318.5 1055.92 318.5L1055.92 313.5ZM1075.66 318.5C1077.04 318.5 1078.16 317.381 1078.16 316C1078.16 314.619 1077.04 313.5 1075.66 313.5L1075.66 318.5ZM1095.39 313.5C1094.01 313.5 1092.89 314.619 1092.89 316C1092.89 317.381 1094.01 318.5 1095.39 318.5L1095.39 313.5ZM1115.13 318.5C1116.51 318.5 1117.63 317.381 1117.63 316C1117.63 314.619 1116.51 313.5 1115.13 313.5L1115.13 318.5ZM1134.87 313.5C1133.49 313.5 1132.37 314.619 1132.37 316C1132.37 317.381 1133.49 318.5 1134.87 318.5L1134.87 313.5ZM1154.6 318.5C1155.99 318.5 1157.1 317.381 1157.1 316C1157.1 314.619 1155.99 313.5 1154.6 313.5L1154.6 318.5ZM1174.34 313.5C1172.96 313.5 1171.84 314.619 1171.84 316C1171.84 317.381 1172.96 318.5 1174.34 318.5L1174.34 313.5ZM1194.08 318.5C1195.46 318.5 1196.58 317.381 1196.58 316C1196.58 314.619 1195.46 313.5 1194.08 313.5L1194.08 318.5ZM1213.81 313.5C1212.43 313.5 1211.31 314.619 1211.31 316C1211.31 317.381 1212.43 318.5 1213.81 318.5L1213.81 313.5ZM1233.55 318.5C1234.93 318.5 1236.05 317.381 1236.05 316C1236.05 314.619 1234.93 313.5 1233.55 313.5L1233.55 318.5ZM1253.29 313.5C1251.91 313.5 1250.79 314.619 1250.79 316C1250.79 317.381 1251.91 318.5 1253.29 318.5L1253.29 313.5ZM1273.03 318.5C1274.41 318.5 1275.53 317.381 1275.53 316C1275.53 314.619 1274.41 313.5 1273.03 313.5L1273.03 318.5ZM1292.76 313.5C1291.38 313.5 1290.26 314.619 1290.26 316C1290.26 317.381 1291.38 318.5 1292.76 318.5L1292.76 313.5ZM1312.5 318.5C1313.88 318.5 1315 317.381 1315 316C1315 314.619 1313.88 313.5 1312.5 313.5L1312.5 318.5ZM1332.24 313.5C1330.86 313.5 1329.74 314.619 1329.74 316C1329.74 317.381 1330.86 318.5 1332.24 318.5L1332.24 313.5ZM1351.97 318.5C1353.35 318.5 1354.47 317.381 1354.47 316C1354.47 314.619 1353.35 313.5 1351.97 313.5L1351.97 318.5ZM1371.71 313.5C1370.33 313.5 1369.21 314.619 1369.21 316C1369.21 317.381 1370.33 318.5 1371.71 318.5L1371.71 313.5ZM1391.45 318.5C1392.83 318.5 1393.95 317.381 1393.95 316C1393.95 314.619 1392.83 313.5 1391.45 313.5L1391.45 318.5ZM1411.18 313.5C1409.8 313.5 1408.68 314.619 1408.68 316C1408.68 317.381 1409.8 318.5 1411.18 318.5L1411.18 313.5ZM1430.92 318.5C1432.3 318.5 1433.42 317.381 1433.42 316C1433.42 314.619 1432.3 313.5 1430.92 313.5L1430.92 318.5ZM1450.66 313.5C1449.28 313.5 1448.16 314.619 1448.16 316C1448.16 317.381 1449.28 318.5 1450.66 318.5L1450.66 313.5ZM1470.39 318.5C1471.77 318.5 1472.89 317.381 1472.89 316C1472.89 314.619 1471.77 313.5 1470.39 313.5L1470.39 318.5ZM1490.13 313.5C1488.75 313.5 1487.63 314.619 1487.63 316C1487.63 317.381 1488.75 318.5 1490.13 318.5L1490.13 313.5ZM-2.18557e-07 318.5L9.86842 318.5L9.86842 313.5L2.18557e-07 313.5L-2.18557e-07 318.5ZM29.6053 318.5L49.3421 318.5L49.3421 313.5L29.6053 313.5L29.6053 318.5ZM69.0789 318.5L88.8158 318.5L88.8158 313.5L69.0789 313.5L69.0789 318.5ZM108.553 318.5L128.289 318.5L128.289 313.5L108.553 313.5L108.553 318.5ZM148.026 318.5L167.763 318.5L167.763 313.5L148.026 313.5L148.026 318.5ZM187.5 318.5L207.237 318.5L207.237 313.5L187.5 313.5L187.5 318.5ZM226.974 318.5L246.711 318.5L246.711 313.5L226.974 313.5L226.974 318.5ZM266.447 318.5L286.184 318.5L286.184 313.5L266.447 313.5L266.447 318.5ZM305.921 318.5L325.658 318.5L325.658 313.5L305.921 313.5L305.921 318.5ZM345.395 318.5L365.132 318.5L365.132 313.5L345.395 313.5L345.395 318.5ZM384.868 318.5L404.605 318.5L404.605 313.5L384.868 313.5L384.868 318.5ZM424.342 318.5L444.079 318.5L444.079 313.5L424.342 313.5L424.342 318.5ZM463.816 318.5L483.553 318.5L483.553 313.5L463.816 313.5L463.816 318.5ZM503.29 318.5L523.026 318.5L523.026 313.5L503.29 313.5L503.29 318.5ZM542.763 318.5L562.5 318.5L562.5 313.5L542.763 313.5L542.763 318.5ZM582.237 318.5L601.974 318.5L601.974 313.5L582.237 313.5L582.237 318.5ZM621.71 318.5L641.447 318.5L641.447 313.5L621.71 313.5L621.71 318.5ZM661.184 318.5L680.921 318.5L680.921 313.5L661.184 313.5L661.184 318.5ZM700.658 318.5L720.395 318.5L720.395 313.5L700.658 313.5L700.658 318.5ZM740.131 318.5L759.868 318.5L759.868 313.5L740.131 313.5L740.131 318.5ZM779.605 318.5L799.342 318.5L799.342 313.5L779.605 313.5L779.605 318.5ZM819.079 318.5L838.815 318.5L838.815 313.5L819.079 313.5L819.079 318.5ZM858.552 318.5L878.289 318.5L878.289 313.5L858.552 313.5L858.552 318.5ZM898.026 318.5L917.763 318.5L917.763 313.5L898.026 313.5L898.026 318.5ZM937.5 318.5L957.236 318.5L957.236 313.5L937.5 313.5L937.5 318.5ZM976.973 318.5L996.71 318.5L996.71 313.5L976.973 313.5L976.973 318.5ZM1016.45 318.5L1036.18 318.5L1036.18 313.5L1016.45 313.5L1016.45 318.5ZM1055.92 318.5L1075.66 318.5L1075.66 313.5L1055.92 313.5L1055.92 318.5ZM1095.39 318.5L1115.13 318.5L1115.13 313.5L1095.39 313.5L1095.39 318.5ZM1134.87 318.5L1154.6 318.5L1154.6 313.5L1134.87 313.5L1134.87 318.5ZM1174.34 318.5L1194.08 318.5L1194.08 313.5L1174.34 313.5L1174.34 318.5ZM1213.81 318.5L1233.55 318.5L1233.55 313.5L1213.81 313.5L1213.81 318.5ZM1253.29 318.5L1273.03 318.5L1273.03 313.5L1253.29 313.5L1253.29 318.5ZM1292.76 318.5L1312.5 318.5L1312.5 313.5L1292.76 313.5L1292.76 318.5ZM1332.24 318.5L1351.97 318.5L1351.97 313.5L1332.24 313.5L1332.24 318.5ZM1371.71 318.5L1391.45 318.5L1391.45 313.5L1371.71 313.5L1371.71 318.5ZM1411.18 318.5L1430.92 318.5L1430.92 313.5L1411.18 313.5L1411.18 318.5ZM1450.66 318.5L1470.39 318.5L1470.39 313.5L1450.66 313.5L1450.66 318.5ZM1490.13 318.5L1500 318.5L1500 313.5L1490.13 313.5L1490.13 318.5Z" fill="#FEC955"/>
<path fill-rule="evenodd" clip-rule="evenodd" d="M1390.99 48.515C1391.26 48.5288 1391.53 48.5357 1391.8 48.5357C1400.23 48.5357 1407.07 41.6965 1407.07 33.2598C1407.07 24.8231 1400.23 17.9839 1391.8 17.9839C1390.91 17.9839 1390.05 18.0585 1389.21 18.2019C1385.87 10.5045 1378.21 5.11986 1369.28 5.11986C1367.48 5.11986 1365.72 5.34021 1364.05 5.75548C1360.1 -8.51853 1347.02 -19 1331.5 -19C1314.08 -19 1299.75 -5.81783 1297.92 11.1123C1295.86 10.3565 1293.62 9.94399 1291.3 9.94399C1280.64 9.94399 1272 18.5831 1272 29.2399C1272 39.8967 1280.64 48.5358 1291.3 48.5358C1292.39 48.5358 1293.47 48.4444 1294.51 48.2688V48.5359H1390.99V48.515Z" fill="white"/>
<path fill-rule="evenodd" clip-rule="evenodd" d="M69.2143 85.4718C69.575 85.4905 69.9382 85.5 70.3036 85.5C81.7339 85.5 91 76.2339 91 64.8036C91 53.3732 81.7339 44.1071 70.3036 44.1071C69.1096 44.1071 67.9393 44.2082 66.8007 44.4023C62.2801 33.9737 51.8938 26.6786 39.8036 26.6786C37.3577 26.6786 34.9816 26.9771 32.7097 27.5398C27.3673 8.20076 9.64558 -6 -11.3929 -6C-34.9864 -6 -54.4087 11.8596 -56.8779 34.7971C-59.6781 33.7731 -62.7023 33.2143 -65.8571 33.2143C-80.2954 33.2143 -92 44.9188 -92 59.3571C-92 73.7954 -80.2954 85.5 -65.8571 85.5C-64.3726 85.5 -62.917 85.3763 -61.5 85.1385V85.5H-11.3929H39.8036H69.2143V85.4718Z" fill="white"/>
<path fill-rule="evenodd" clip-rule="evenodd" d="M294.993 47.515C295.259 47.5288 295.527 47.5357 295.796 47.5357C304.233 47.5357 311.072 40.6965 311.072 32.2598C311.072 23.8231 304.233 16.9839 295.796 16.9839C294.915 16.9839 294.051 17.0585 293.21 17.2019C289.873 9.50448 282.207 4.11986 273.283 4.11986C271.478 4.11986 269.725 4.34021 268.048 4.75548C264.104 -9.51852 251.024 -20 235.496 -20C218.081 -20 203.746 -6.81783 201.924 10.1123C199.857 9.35646 197.624 8.94399 195.296 8.94399C184.639 8.94399 176 17.5831 176 28.2399C176 38.8968 184.639 47.5358 195.296 47.5358C196.392 47.5358 197.467 47.4444 198.513 47.2688V47.5359H294.993V47.515Z" fill="white"/>
<path fill-rule="evenodd" clip-rule="evenodd" d="M757.208 64.5634H728.969C728.957 64.5634 728.944 64.5634 728.932 64.5634C728.92 64.5634 728.907 64.5634 728.895 64.5634H703.093C703.078 64.5634 703.064 64.5635 703.049 64.5635C703.034 64.5635 703.019 64.5634 703.004 64.5634H701.242V64.4562C693.783 63.5639 688 57.2147 688 49.5148C688 41.2037 694.738 34.4662 703.049 34.4662C703.403 34.4662 703.754 34.4784 704.101 34.5024C706.336 22.8249 716.603 14 728.932 14C740.558 14 750.351 21.8474 753.303 32.5343C754.559 32.2234 755.872 32.0583 757.224 32.0583C766.2 32.0583 773.476 39.3349 773.476 48.3109C773.476 56.6766 767.156 63.5661 759.029 64.4643V64.5634H757.24C757.234 64.5634 757.229 64.5634 757.224 64.5634C757.218 64.5634 757.213 64.5634 757.208 64.5634Z" fill="white"/>
<path fill-rule="evenodd" clip-rule="evenodd" d="M439.208 109.563H410.969C410.957 109.563 410.944 109.563 410.932 109.563C410.92 109.563 410.907 109.563 410.895 109.563H385.093C385.078 109.563 385.064 109.563 385.049 109.563C385.034 109.563 385.019 109.563 385.004 109.563H383.242V109.456C375.783 108.564 370 102.215 370 94.5148C370 86.2037 376.738 79.4662 385.049 79.4662C385.403 79.4662 385.754 79.4784 386.101 79.5024C388.336 67.8249 398.603 59 410.932 59C422.558 59 432.351 66.8474 435.303 77.5343C436.559 77.2234 437.872 77.0583 439.224 77.0583C448.2 77.0583 455.476 84.3349 455.476 93.3109C455.476 101.677 449.156 108.566 441.029 109.464V109.563H439.24C439.234 109.563 439.229 109.563 439.224 109.563C439.218 109.563 439.213 109.563 439.208 109.563Z" fill="white"/>
<rect x="1427.7" y="127.6" width="7.2" height="163.2" fill="#6C6C6C"/>
<path fill-rule="evenodd" clip-rule="evenodd" d="M1404.9 296.081H1457.71C1453.26 285.909 1443.11 278.8 1431.3 278.8C1419.49 278.8 1409.34 285.909 1404.9 296.081Z" fill="#6C6C6C"/>
<rect x="1390.2" y="76.9" width="78.6" height="88.2" rx="14.7" fill="#FAF0A7" stroke="#333333" stroke-width="1.8"/>
<rect x="1401.3" y="294.4" width="60" height="4.8" rx="2.4" fill="#565656"/>
<path d="M1416.59 138.6H1414.78V131.545H1412.45V130.034H1418.92V131.545H1416.59V138.6ZM1426.53 135.313C1426.53 135.86 1426.46 136.344 1426.31 136.766C1426.16 137.188 1425.95 137.545 1425.67 137.838C1425.39 138.127 1425.06 138.346 1424.66 138.495C1424.27 138.643 1423.83 138.717 1423.34 138.717C1422.88 138.717 1422.45 138.643 1422.07 138.495C1421.68 138.346 1421.35 138.127 1421.06 137.838C1420.78 137.545 1420.56 137.188 1420.41 136.766C1420.25 136.344 1420.18 135.86 1420.18 135.313C1420.18 134.586 1420.31 133.971 1420.57 133.467C1420.82 132.963 1421.19 132.581 1421.67 132.319C1422.14 132.057 1422.71 131.926 1423.37 131.926C1423.99 131.926 1424.53 132.057 1425 132.319C1425.48 132.581 1425.85 132.963 1426.12 133.467C1426.39 133.971 1426.53 134.586 1426.53 135.313ZM1422 135.313C1422 135.743 1422.05 136.104 1422.14 136.397C1422.24 136.69 1422.38 136.911 1422.58 137.059C1422.78 137.208 1423.04 137.282 1423.36 137.282C1423.68 137.282 1423.93 137.208 1424.13 137.059C1424.33 136.911 1424.47 136.69 1424.56 136.397C1424.66 136.104 1424.7 135.743 1424.7 135.313C1424.7 134.879 1424.66 134.52 1424.56 134.235C1424.47 133.946 1424.33 133.729 1424.13 133.584C1423.93 133.44 1423.67 133.368 1423.35 133.368C1422.88 133.368 1422.53 133.53 1422.32 133.854C1422.11 134.178 1422 134.665 1422 135.313ZM1433.87 129.483V131.604C1433.87 131.85 1433.86 132.094 1433.85 132.336C1433.84 132.579 1433.82 132.766 1433.8 132.899H1433.87C1434.04 132.629 1434.28 132.401 1434.57 132.213C1434.87 132.022 1435.26 131.926 1435.73 131.926C1436.46 131.926 1437.06 132.213 1437.52 132.788C1437.97 133.362 1438.2 134.204 1438.2 135.313C1438.2 136.059 1438.1 136.686 1437.88 137.194C1437.67 137.698 1437.38 138.079 1437 138.336C1436.62 138.59 1436.18 138.717 1435.68 138.717C1435.2 138.717 1434.82 138.631 1434.54 138.459C1434.27 138.288 1434.04 138.094 1433.87 137.879H1433.75L1433.45 138.6H1432.08V129.483H1433.87ZM1435.15 133.356C1434.84 133.356 1434.59 133.42 1434.41 133.549C1434.23 133.678 1434.09 133.872 1434.01 134.129C1433.92 134.387 1433.88 134.713 1433.87 135.108V135.301C1433.87 135.938 1433.96 136.426 1434.15 136.766C1434.34 137.102 1434.68 137.27 1435.18 137.27C1435.54 137.27 1435.84 137.1 1436.05 136.76C1436.27 136.42 1436.38 135.93 1436.38 135.29C1436.38 134.649 1436.27 134.167 1436.05 133.842C1435.83 133.518 1435.53 133.356 1435.15 133.356ZM1442.86 131.926C1443.46 131.926 1443.99 132.043 1444.42 132.278C1444.86 132.508 1445.2 132.844 1445.44 133.286C1445.68 133.727 1445.79 134.266 1445.79 134.903V135.77H1441.57C1441.59 136.274 1441.74 136.67 1442.02 136.959C1442.31 137.245 1442.7 137.387 1443.2 137.387C1443.62 137.387 1444.01 137.344 1444.35 137.258C1444.7 137.172 1445.06 137.043 1445.43 136.872V138.254C1445.1 138.415 1444.76 138.532 1444.41 138.606C1444.05 138.68 1443.63 138.717 1443.12 138.717C1442.47 138.717 1441.88 138.596 1441.38 138.354C1440.87 138.112 1440.48 137.743 1440.19 137.247C1439.9 136.75 1439.76 136.125 1439.76 135.372C1439.76 134.606 1439.89 133.969 1440.15 133.461C1440.41 132.95 1440.77 132.567 1441.24 132.313C1441.7 132.055 1442.24 131.926 1442.86 131.926ZM1442.87 133.198C1442.52 133.198 1442.23 133.309 1442 133.532C1441.78 133.754 1441.65 134.104 1441.61 134.581H1444.12C1444.11 134.315 1444.07 134.079 1443.97 133.872C1443.88 133.665 1443.75 133.5 1443.56 133.379C1443.38 133.258 1443.15 133.198 1442.87 133.198ZM1400.76 150.717C1400.11 150.717 1399.56 150.6 1399.1 150.366C1398.65 150.127 1398.3 149.76 1398.06 149.264C1397.82 148.768 1397.7 148.133 1397.7 147.36C1397.7 146.559 1397.84 145.907 1398.11 145.403C1398.38 144.895 1398.76 144.522 1399.24 144.284C1399.72 144.045 1400.28 143.926 1400.92 143.926C1401.37 143.926 1401.76 143.971 1402.09 144.061C1402.42 144.147 1402.71 144.25 1402.96 144.372L1402.43 145.754C1402.15 145.641 1401.89 145.549 1401.65 145.479C1401.4 145.405 1401.16 145.368 1400.92 145.368C1400.61 145.368 1400.35 145.442 1400.14 145.59C1399.93 145.735 1399.78 145.954 1399.68 146.247C1399.58 146.54 1399.53 146.907 1399.53 147.348C1399.53 147.782 1399.58 148.141 1399.69 148.426C1399.8 148.711 1399.96 148.924 1400.16 149.065C1400.37 149.202 1400.62 149.27 1400.92 149.27C1401.29 149.27 1401.62 149.221 1401.91 149.124C1402.2 149.022 1402.48 148.881 1402.75 148.702V150.231C1402.48 150.403 1402.19 150.526 1401.89 150.6C1401.6 150.678 1401.22 150.717 1400.76 150.717ZM1410.71 147.313C1410.71 147.86 1410.64 148.344 1410.49 148.766C1410.34 149.188 1410.13 149.545 1409.85 149.838C1409.57 150.127 1409.24 150.346 1408.84 150.495C1408.45 150.643 1408.01 150.717 1407.52 150.717C1407.06 150.717 1406.63 150.643 1406.25 150.495C1405.86 150.346 1405.53 150.127 1405.24 149.838C1404.96 149.545 1404.74 149.188 1404.59 148.766C1404.44 148.344 1404.36 147.86 1404.36 147.313C1404.36 146.586 1404.49 145.971 1404.75 145.467C1405 144.963 1405.37 144.581 1405.85 144.319C1406.32 144.057 1406.89 143.926 1407.55 143.926C1408.17 143.926 1408.71 144.057 1409.18 144.319C1409.66 144.581 1410.03 144.963 1410.3 145.467C1410.57 145.971 1410.71 146.586 1410.71 147.313ZM1406.18 147.313C1406.18 147.743 1406.23 148.104 1406.32 148.397C1406.42 148.69 1406.56 148.911 1406.76 149.059C1406.96 149.208 1407.22 149.282 1407.54 149.282C1407.86 149.282 1408.11 149.208 1408.31 149.059C1408.51 148.911 1408.65 148.69 1408.74 148.397C1408.84 148.104 1408.88 147.743 1408.88 147.313C1408.88 146.879 1408.84 146.52 1408.74 146.235C1408.65 145.946 1408.51 145.729 1408.31 145.584C1408.11 145.44 1407.85 145.368 1407.53 145.368C1407.06 145.368 1406.71 145.53 1406.5 145.854C1406.29 146.178 1406.18 146.665 1406.18 147.313ZM1416.39 143.926C1417.09 143.926 1417.65 144.118 1418.08 144.5C1418.5 144.879 1418.71 145.489 1418.71 146.329V150.6H1416.93V146.774C1416.93 146.305 1416.84 145.952 1416.67 145.713C1416.5 145.475 1416.24 145.356 1415.87 145.356C1415.33 145.356 1414.95 145.542 1414.75 145.913C1414.55 146.284 1414.45 146.819 1414.45 147.518V150.6H1412.67V144.049H1414.03L1414.27 144.887H1414.37C1414.51 144.661 1414.69 144.477 1414.89 144.336C1415.1 144.196 1415.34 144.092 1415.59 144.026C1415.85 143.959 1416.11 143.926 1416.39 143.926ZM1423.79 149.293C1423.99 149.293 1424.18 149.274 1424.36 149.235C1424.55 149.196 1424.73 149.147 1424.92 149.088V150.418C1424.73 150.504 1424.49 150.575 1424.2 150.629C1423.92 150.688 1423.61 150.717 1423.28 150.717C1422.89 150.717 1422.54 150.655 1422.22 150.53C1421.91 150.401 1421.67 150.18 1421.49 149.868C1421.32 149.551 1421.23 149.112 1421.23 148.549V145.391H1420.37V144.635L1421.36 144.038L1421.87 142.655H1423.01V144.049H1424.85V145.391H1423.01V148.549C1423.01 148.799 1423.08 148.987 1423.23 149.112C1423.37 149.233 1423.56 149.293 1423.79 149.293ZM1428.52 144.049V150.6H1426.73V144.049H1428.52ZM1427.63 141.483C1427.89 141.483 1428.12 141.545 1428.31 141.67C1428.5 141.792 1428.6 142.02 1428.6 142.356C1428.6 142.688 1428.5 142.918 1428.31 143.047C1428.12 143.172 1427.89 143.235 1427.63 143.235C1427.36 143.235 1427.13 143.172 1426.93 143.047C1426.75 142.918 1426.65 142.688 1426.65 142.356C1426.65 142.02 1426.75 141.792 1426.93 141.67C1427.13 141.545 1427.36 141.483 1427.63 141.483ZM1434.6 143.926C1435.3 143.926 1435.86 144.118 1436.28 144.5C1436.71 144.879 1436.92 145.489 1436.92 146.329V150.6H1435.14V146.774C1435.14 146.305 1435.05 145.952 1434.88 145.713C1434.71 145.475 1434.44 145.356 1434.08 145.356C1433.53 145.356 1433.16 145.542 1432.96 145.913C1432.76 146.284 1432.66 146.819 1432.66 147.518V150.6H1430.88V144.049H1432.24L1432.48 144.887H1432.58C1432.72 144.661 1432.9 144.477 1433.1 144.336C1433.31 144.196 1433.55 144.092 1433.8 144.026C1434.06 143.959 1434.32 143.926 1434.6 143.926ZM1445.26 144.049V150.6H1443.88L1443.64 149.762H1443.55C1443.41 149.985 1443.23 150.167 1443.02 150.307C1442.81 150.448 1442.58 150.551 1442.33 150.618C1442.07 150.684 1441.81 150.717 1441.53 150.717C1441.07 150.717 1440.66 150.635 1440.31 150.471C1439.96 150.303 1439.69 150.043 1439.5 149.692C1439.3 149.34 1439.21 148.883 1439.21 148.321V144.049H1441V147.875C1441 148.344 1441.08 148.698 1441.25 148.936C1441.42 149.174 1441.68 149.293 1442.05 149.293C1442.41 149.293 1442.7 149.211 1442.91 149.047C1443.11 148.879 1443.26 148.635 1443.34 148.315C1443.42 147.991 1443.47 147.596 1443.47 147.131V144.049H1445.26ZM1450.31 143.926C1450.92 143.926 1451.44 144.043 1451.88 144.278C1452.31 144.508 1452.65 144.844 1452.89 145.286C1453.13 145.727 1453.25 146.266 1453.25 146.903V147.77H1449.02C1449.04 148.274 1449.19 148.67 1449.47 148.959C1449.76 149.245 1450.15 149.387 1450.66 149.387C1451.07 149.387 1451.46 149.344 1451.81 149.258C1452.15 149.172 1452.51 149.043 1452.88 148.872V150.254C1452.55 150.415 1452.21 150.532 1451.86 150.606C1451.51 150.68 1451.08 150.717 1450.57 150.717C1449.92 150.717 1449.34 150.596 1448.83 150.354C1448.32 150.112 1447.93 149.743 1447.64 149.247C1447.35 148.75 1447.21 148.125 1447.21 147.372C1447.21 146.606 1447.34 145.969 1447.6 145.461C1447.86 144.95 1448.22 144.567 1448.69 144.313C1449.15 144.055 1449.69 143.926 1450.31 143.926ZM1450.32 145.198C1449.98 145.198 1449.69 145.309 1449.46 145.532C1449.23 145.754 1449.1 146.104 1449.06 146.581H1451.57C1451.57 146.315 1451.52 146.079 1451.42 145.872C1451.33 145.665 1451.2 145.5 1451.01 145.379C1450.83 145.258 1450.6 145.198 1450.32 145.198ZM1457.25 150.717C1456.52 150.717 1455.93 150.432 1455.47 149.862C1455.01 149.288 1454.78 148.446 1454.78 147.336C1454.78 146.215 1455.01 145.368 1455.48 144.793C1455.94 144.215 1456.55 143.926 1457.3 143.926C1457.61 143.926 1457.89 143.969 1458.13 144.055C1458.37 144.141 1458.57 144.256 1458.74 144.401C1458.92 144.545 1459.07 144.708 1459.19 144.887H1459.25C1459.22 144.762 1459.19 144.579 1459.16 144.336C1459.13 144.09 1459.11 143.838 1459.11 143.581V141.483H1460.9V150.6H1459.53L1459.19 149.75H1459.11C1459 149.93 1458.86 150.094 1458.68 150.243C1458.52 150.387 1458.31 150.502 1458.08 150.588C1457.85 150.674 1457.57 150.717 1457.25 150.717ZM1457.88 149.293C1458.37 149.293 1458.71 149.149 1458.91 148.86C1459.12 148.567 1459.22 148.127 1459.23 147.542V147.348C1459.23 146.711 1459.14 146.225 1458.94 145.889C1458.75 145.549 1458.38 145.379 1457.85 145.379C1457.46 145.379 1457.15 145.549 1456.93 145.889C1456.7 146.229 1456.59 146.719 1456.59 147.36C1456.59 148 1456.7 148.483 1456.93 148.807C1457.15 149.131 1457.47 149.293 1457.88 149.293Z" fill="#333333"/>
<path d="M1445.32 113.004V114.508L1441.35 116.788L1429.5 119.767V115.037L1445.32 113.004Z" fill="#C78A0C"/>
<path d="M1445.32 96.3284V113.006L1429.5 115.038V105.419L1445.32 96.3284Z" fill="#598F22"/>
<path d="M1445.32 96.3284L1429.5 105.419L1413.68 96.3284L1429.5 87.2385L1445.32 96.3284Z" fill="#598F22"/>
<path d="M1441.35 116.788L1429.5 123.598V119.769L1441.35 116.788Z" fill="#754C24"/>
<path d="M1429.5 119.768V123.598L1413.68 114.508V106.235L1429.48 119.774L1429.5 119.768Z" fill="#754C24"/>
<path d="M1429.5 115.038V119.768L1429.48 119.773L1413.68 106.234V100.872L1429.48 115.04L1429.5 115.038Z" fill="#C78A0C"/>
<path d="M1429.5 105.419V115.038L1429.48 115.041L1413.68 100.872V96.3284L1429.5 105.419Z" fill="#598F22"/>
<path d="M1429.88 123.598H1429.12V105.639L1413.49 96.6583L1413.87 95.999L1429.88 105.199L1429.88 123.598Z" fill="#1D1D1B"/>
<path d="M1445.13 95.9987L1429.31 105.09L1429.69 105.75L1445.51 96.658L1445.13 95.9987Z" fill="#1D1D1B"/>
<path d="M1429.5 124.037L1413.3 114.728V96.1099L1413.49 95.9999L1429.5 86.8L1445.7 96.1089V114.727L1429.5 124.037ZM1414.06 114.29L1429.5 123.16L1444.93 114.29V96.5496L1429.5 87.6797L1414.06 96.5496V114.29Z" fill="#1D1D1B"/>
<path d="M1429.37 120.188L1413.43 106.523L1413.93 105.946L1429.58 119.356L1441.26 116.419L1441.44 117.158L1429.56 120.145L1429.37 120.188Z" fill="#1D1D1B"/>
<path d="M1429.35 115.439L1429.22 115.323L1413.42 101.156L1413.93 100.59L1429.6 114.641L1445.27 112.627L1445.36 113.382L1429.52 115.419L1429.35 115.439Z" fill="#1D1D1B"/>
<rect x="75" y="76.8" width="391.6" height="17.6" fill="#626463"/>
<rect x="88.2" y="94.4001" width="12.1" height="201.3" fill="#626463"/>
<rect x="439.1" y="94.4001" width="12.1" height="201.3" fill="#626463"/>
<rect x="75.0002" y="68" width="391.6" height="8.8" fill="#8F908C"/>
<rect x="115.7" y="94.4001" width="306.9" height="191.4" fill="#626463"/>
<rect x="125.6" y="94.4001" width="288.2" height="179.3" fill="#DBE9F0"/>
<path opacity="0.3" d="M126 154V94.5H216L126 154Z" fill="#A1C5DD"/>
<path opacity="0.3" d="M414 197.5L414 273.5L324 273.5L414 197.5Z" fill="#A1C5DD"/>
<path d="M142.752 108.388H146.717V113.569C146.192 113.743 145.648 113.882 145.083 113.986C144.518 114.087 143.877 114.137 143.162 114.137C142.168 114.137 141.325 113.941 140.633 113.549C139.94 113.157 139.413 112.578 139.053 111.812C138.693 111.047 138.513 110.106 138.513 108.989C138.513 107.941 138.714 107.034 139.115 106.269C139.521 105.503 140.111 104.91 140.885 104.491C141.665 104.072 142.615 103.862 143.736 103.862C144.265 103.862 144.787 103.919 145.302 104.033C145.816 104.147 146.284 104.295 146.703 104.478L145.999 106.173C145.693 106.018 145.345 105.888 144.953 105.783C144.561 105.678 144.151 105.626 143.722 105.626C143.107 105.626 142.572 105.767 142.116 106.05C141.665 106.332 141.314 106.729 141.063 107.239C140.817 107.745 140.694 108.342 140.694 109.03C140.694 109.682 140.783 110.261 140.961 110.767C141.138 111.268 141.419 111.662 141.802 111.949C142.184 112.232 142.683 112.373 143.299 112.373C143.599 112.373 143.852 112.359 144.057 112.332C144.267 112.3 144.463 112.268 144.645 112.236V110.151H142.752V108.388ZM156.324 110.165C156.324 110.803 156.237 111.368 156.064 111.86C155.895 112.353 155.647 112.77 155.319 113.111C154.995 113.449 154.603 113.704 154.143 113.877C153.687 114.05 153.172 114.137 152.598 114.137C152.06 114.137 151.566 114.05 151.115 113.877C150.668 113.704 150.278 113.449 149.946 113.111C149.617 112.77 149.362 112.353 149.18 111.86C149.002 111.368 148.913 110.803 148.913 110.165C148.913 109.317 149.064 108.6 149.365 108.012C149.665 107.424 150.094 106.977 150.65 106.672C151.206 106.367 151.869 106.214 152.639 106.214C153.354 106.214 153.988 106.367 154.539 106.672C155.095 106.977 155.531 107.424 155.845 108.012C156.164 108.6 156.324 109.317 156.324 110.165ZM151.039 110.165C151.039 110.666 151.094 111.088 151.203 111.43C151.313 111.771 151.484 112.029 151.716 112.202C151.949 112.375 152.252 112.462 152.625 112.462C152.994 112.462 153.293 112.375 153.521 112.202C153.753 112.029 153.922 111.771 154.027 111.43C154.136 111.088 154.191 110.666 154.191 110.165C154.191 109.659 154.136 109.24 154.027 108.907C153.922 108.57 153.753 108.317 153.521 108.148C153.288 107.98 152.985 107.896 152.612 107.896C152.06 107.896 151.659 108.085 151.409 108.463C151.162 108.841 151.039 109.409 151.039 110.165ZM162.711 107.923H160.906V114H158.821V107.923H157.673V106.918L158.821 106.357V105.797C158.821 105.145 158.931 104.639 159.149 104.279C159.373 103.915 159.685 103.66 160.086 103.514C160.491 103.363 160.97 103.288 161.521 103.288C161.927 103.288 162.296 103.322 162.629 103.391C162.961 103.454 163.233 103.527 163.442 103.609L162.909 105.141C162.75 105.09 162.576 105.045 162.39 105.004C162.203 104.963 161.988 104.942 161.747 104.942C161.455 104.942 161.241 105.031 161.104 105.209C160.972 105.382 160.906 105.605 160.906 105.879V106.357H162.711V107.923ZM167.505 106.214C168.212 106.214 168.82 106.351 169.33 106.624C169.841 106.893 170.235 107.285 170.513 107.8C170.791 108.315 170.93 108.944 170.93 109.687V110.698H166.001C166.024 111.286 166.2 111.749 166.528 112.086C166.86 112.419 167.321 112.585 167.909 112.585C168.396 112.585 168.843 112.535 169.248 112.435C169.654 112.334 170.071 112.184 170.499 111.983V113.597C170.121 113.784 169.725 113.92 169.31 114.007C168.9 114.093 168.401 114.137 167.813 114.137C167.047 114.137 166.368 113.995 165.776 113.713C165.188 113.43 164.725 113 164.388 112.421C164.055 111.842 163.889 111.113 163.889 110.233C163.889 109.34 164.039 108.597 164.34 108.005C164.646 107.408 165.069 106.961 165.612 106.665C166.154 106.364 166.785 106.214 167.505 106.214ZM167.519 107.697C167.113 107.697 166.776 107.827 166.507 108.087C166.243 108.347 166.09 108.755 166.049 109.311H168.975C168.97 109.001 168.914 108.725 168.804 108.483C168.699 108.242 168.54 108.05 168.326 107.909C168.116 107.768 167.847 107.697 167.519 107.697ZM177.331 106.214C177.436 106.214 177.557 106.221 177.693 106.234C177.835 106.243 177.949 106.257 178.035 106.275L177.878 108.23C177.81 108.208 177.712 108.192 177.584 108.183C177.461 108.169 177.354 108.162 177.263 108.162C176.994 108.162 176.732 108.196 176.477 108.265C176.226 108.333 176 108.445 175.8 108.6C175.599 108.75 175.44 108.951 175.321 109.201C175.207 109.447 175.15 109.75 175.15 110.11V114H173.065V106.357H174.645L174.952 107.643H175.055C175.205 107.383 175.392 107.146 175.615 106.932C175.843 106.713 176.101 106.54 176.388 106.412C176.679 106.28 176.994 106.214 177.331 106.214ZM183.324 117.363C183.087 117.363 182.841 117.345 182.586 117.309C182.331 117.277 182.119 117.238 181.95 117.192V115.552C182.119 115.597 182.278 115.629 182.429 115.647C182.575 115.67 182.741 115.682 182.928 115.682C183.21 115.682 183.45 115.602 183.646 115.442C183.842 115.287 183.94 114.98 183.94 114.52V106.357H186.025V114.827C186.025 115.292 185.936 115.716 185.758 116.099C185.58 116.486 185.293 116.794 184.897 117.021C184.5 117.249 183.976 117.363 183.324 117.363ZM183.851 104.382C183.851 103.99 183.96 103.723 184.179 103.582C184.402 103.436 184.671 103.363 184.985 103.363C185.295 103.363 185.562 103.436 185.785 103.582C186.009 103.723 186.12 103.99 186.12 104.382C186.12 104.769 186.009 105.038 185.785 105.188C185.562 105.334 185.295 105.407 184.985 105.407C184.671 105.407 184.402 105.334 184.179 105.188C183.96 105.038 183.851 104.769 183.851 104.382ZM195.604 110.165C195.604 110.803 195.518 111.368 195.344 111.86C195.176 112.353 194.927 112.77 194.599 113.111C194.276 113.449 193.884 113.704 193.424 113.877C192.968 114.05 192.453 114.137 191.879 114.137C191.341 114.137 190.846 114.05 190.395 113.877C189.949 113.704 189.559 113.449 189.226 113.111C188.898 112.77 188.643 112.353 188.461 111.86C188.283 111.368 188.194 110.803 188.194 110.165C188.194 109.317 188.344 108.6 188.645 108.012C188.946 107.424 189.374 106.977 189.93 106.672C190.486 106.367 191.149 106.214 191.92 106.214C192.635 106.214 193.269 106.367 193.82 106.672C194.376 106.977 194.811 107.424 195.126 108.012C195.445 108.6 195.604 109.317 195.604 110.165ZM190.32 110.165C190.32 110.666 190.375 111.088 190.484 111.43C190.593 111.771 190.764 112.029 190.997 112.202C191.229 112.375 191.532 112.462 191.906 112.462C192.275 112.462 192.574 112.375 192.801 112.202C193.034 112.029 193.202 111.771 193.307 111.43C193.417 111.088 193.471 110.666 193.471 110.165C193.471 109.659 193.417 109.24 193.307 108.907C193.202 108.57 193.034 108.317 192.801 108.148C192.569 107.98 192.266 107.896 191.892 107.896C191.341 107.896 190.94 108.085 190.689 108.463C190.443 108.841 190.32 109.409 190.32 110.165ZM204.78 106.357V114H203.181L202.901 113.022H202.791C202.627 113.282 202.422 113.494 202.176 113.658C201.93 113.822 201.659 113.943 201.363 114.021C201.066 114.098 200.759 114.137 200.44 114.137C199.893 114.137 199.417 114.041 199.011 113.85C198.605 113.654 198.289 113.351 198.061 112.94C197.837 112.53 197.726 111.997 197.726 111.341V106.357H199.811V110.821C199.811 111.368 199.909 111.781 200.105 112.059C200.301 112.337 200.613 112.476 201.041 112.476C201.465 112.476 201.798 112.38 202.039 112.188C202.281 111.993 202.449 111.708 202.545 111.334C202.645 110.956 202.696 110.495 202.696 109.953V106.357H204.78ZM211.674 106.214C211.778 106.214 211.899 106.221 212.036 106.234C212.177 106.243 212.291 106.257 212.378 106.275L212.22 108.23C212.152 108.208 212.054 108.192 211.927 108.183C211.804 108.169 211.696 108.162 211.605 108.162C211.336 108.162 211.074 108.196 210.819 108.265C210.568 108.333 210.343 108.445 210.142 108.6C209.942 108.75 209.782 108.951 209.664 109.201C209.55 109.447 209.493 109.75 209.493 110.11V114H207.408V106.357H208.987L209.295 107.643H209.397C209.548 107.383 209.734 107.146 209.958 106.932C210.186 106.713 210.443 106.54 210.73 106.412C211.022 106.28 211.336 106.214 211.674 106.214ZM218.546 106.214C219.362 106.214 220.018 106.437 220.515 106.884C221.012 107.326 221.26 108.037 221.26 109.017V114H219.175V109.536C219.175 108.989 219.075 108.577 218.874 108.299C218.678 108.021 218.369 107.882 217.945 107.882C217.307 107.882 216.871 108.098 216.639 108.531C216.407 108.964 216.29 109.589 216.29 110.404V114H214.205V106.357H215.798L216.078 107.335H216.195C216.359 107.071 216.562 106.856 216.803 106.692C217.049 106.528 217.32 106.408 217.617 106.33C217.917 106.253 218.227 106.214 218.546 106.214ZM226.998 106.214C227.704 106.214 228.313 106.351 228.823 106.624C229.334 106.893 229.728 107.285 230.006 107.8C230.284 108.315 230.423 108.944 230.423 109.687V110.698H225.494C225.517 111.286 225.692 111.749 226.02 112.086C226.353 112.419 226.813 112.585 227.401 112.585C227.889 112.585 228.336 112.535 228.741 112.435C229.147 112.334 229.564 112.184 229.992 111.983V113.597C229.614 113.784 229.217 113.92 228.803 114.007C228.392 114.093 227.893 114.137 227.306 114.137C226.54 114.137 225.861 113.995 225.268 113.713C224.681 113.43 224.218 113 223.881 112.421C223.548 111.842 223.382 111.113 223.382 110.233C223.382 109.34 223.532 108.597 223.833 108.005C224.138 107.408 224.562 106.961 225.104 106.665C225.647 106.364 226.278 106.214 226.998 106.214ZM227.012 107.697C226.606 107.697 226.269 107.827 226 108.087C225.736 108.347 225.583 108.755 225.542 109.311H228.468C228.463 109.001 228.406 108.725 228.297 108.483C228.192 108.242 228.032 108.05 227.818 107.909C227.609 107.768 227.34 107.697 227.012 107.697ZM231.464 106.357H233.748L235.19 110.657C235.235 110.794 235.274 110.933 235.306 111.074C235.338 111.215 235.365 111.361 235.388 111.512C235.411 111.662 235.429 111.819 235.443 111.983H235.484C235.511 111.737 235.548 111.507 235.593 111.293C235.643 111.079 235.705 110.867 235.778 110.657L237.193 106.357H239.428L236.195 114.978C235.999 115.506 235.744 115.946 235.429 116.297C235.115 116.652 234.752 116.919 234.342 117.097C233.937 117.274 233.49 117.363 233.002 117.363C232.765 117.363 232.56 117.35 232.387 117.322C232.214 117.299 232.066 117.274 231.943 117.247V115.593C232.039 115.616 232.159 115.636 232.305 115.654C232.451 115.673 232.604 115.682 232.763 115.682C233.055 115.682 233.305 115.62 233.515 115.497C233.725 115.374 233.9 115.208 234.041 114.998C234.183 114.793 234.294 114.567 234.376 114.321L234.499 113.945L231.464 106.357Z" fill="#333333"/>
<path opacity="0.5" d="M148.5 273.5H126L323 94.5H344.5L148.5 273.5Z" fill="white"/>
<path opacity="0.5" d="M279 273.5H236L413.5 114V151L279 273.5Z" fill="white"/>
<path opacity="0.5" d="M376.87 274H365L414 230V240.207L376.87 274Z" fill="white"/>
<path opacity="0.6" d="M171 273.5H163L360 94.5H367L171 273.5Z" fill="white"/>
<rect x="139.625" y="139.225" width="72.05" height="80.85" rx="13.475" fill="#FAF0A7" stroke="#333333" stroke-width="1.65"/>
<path d="M159.785 197.919C159.785 198.385 159.672 198.79 159.447 199.133C159.221 199.477 158.892 199.742 158.458 199.928C158.029 200.114 157.506 200.208 156.89 200.208C156.618 200.208 156.351 200.19 156.09 200.154C155.832 200.118 155.583 200.066 155.343 199.998C155.107 199.926 154.881 199.839 154.666 199.735V198.188C155.039 198.353 155.425 198.501 155.827 198.634C156.228 198.766 156.625 198.833 157.019 198.833C157.291 198.833 157.509 198.797 157.674 198.725C157.842 198.653 157.964 198.555 158.039 198.43C158.115 198.304 158.152 198.161 158.152 198C158.152 197.803 158.086 197.635 157.953 197.495C157.821 197.355 157.638 197.225 157.406 197.103C157.176 196.981 156.917 196.851 156.627 196.711C156.444 196.625 156.245 196.521 156.031 196.399C155.816 196.274 155.612 196.122 155.418 195.943C155.225 195.764 155.066 195.547 154.94 195.293C154.819 195.035 154.758 194.727 154.758 194.369C154.758 193.9 154.865 193.499 155.08 193.166C155.295 192.833 155.601 192.579 155.998 192.403C156.399 192.224 156.872 192.135 157.416 192.135C157.825 192.135 158.213 192.183 158.582 192.28C158.954 192.373 159.343 192.509 159.747 192.688L159.21 193.982C158.849 193.836 158.525 193.723 158.238 193.644C157.952 193.562 157.66 193.521 157.363 193.521C157.155 193.521 156.978 193.555 156.831 193.623C156.684 193.687 156.573 193.78 156.498 193.902C156.423 194.02 156.385 194.158 156.385 194.315C156.385 194.502 156.439 194.659 156.546 194.788C156.657 194.913 156.822 195.035 157.04 195.153C157.262 195.271 157.538 195.409 157.868 195.567C158.269 195.757 158.611 195.955 158.893 196.163C159.18 196.367 159.4 196.609 159.554 196.888C159.708 197.164 159.785 197.508 159.785 197.919ZM163.979 193.972C164.785 193.972 165.403 194.147 165.832 194.498C166.262 194.849 166.477 195.382 166.477 196.099V200.1H165.333L165.016 199.284H164.973C164.801 199.499 164.626 199.674 164.447 199.81C164.268 199.946 164.062 200.046 163.829 200.111C163.596 200.175 163.313 200.208 162.98 200.208C162.626 200.208 162.307 200.139 162.024 200.003C161.745 199.867 161.525 199.66 161.364 199.38C161.203 199.097 161.122 198.739 161.122 198.306C161.122 197.669 161.346 197.2 161.793 196.899C162.241 196.595 162.912 196.426 163.808 196.394L164.85 196.362V196.099C164.85 195.784 164.767 195.553 164.602 195.406C164.438 195.259 164.209 195.186 163.915 195.186C163.625 195.186 163.34 195.227 163.061 195.309C162.782 195.391 162.502 195.495 162.223 195.621L161.681 194.514C161.999 194.346 162.356 194.213 162.749 194.117C163.147 194.02 163.557 193.972 163.979 193.972ZM164.85 197.318L164.216 197.339C163.686 197.354 163.317 197.449 163.109 197.624C162.905 197.799 162.803 198.03 162.803 198.317C162.803 198.568 162.877 198.747 163.023 198.854C163.17 198.958 163.362 199.01 163.598 199.01C163.949 199.01 164.244 198.906 164.484 198.698C164.728 198.491 164.85 198.195 164.85 197.812V197.318ZM175.661 193.982C176.341 193.982 176.855 194.158 177.203 194.509C177.554 194.856 177.729 195.415 177.729 196.185V200.1H176.085V196.593C176.085 196.163 176.012 195.839 175.865 195.621C175.718 195.402 175.491 195.293 175.183 195.293C174.75 195.293 174.442 195.449 174.259 195.76C174.077 196.068 173.985 196.51 173.985 197.087V200.1H172.347V196.593C172.347 196.306 172.315 196.066 172.25 195.873C172.186 195.68 172.088 195.535 171.955 195.438C171.823 195.341 171.652 195.293 171.445 195.293C171.14 195.293 170.901 195.37 170.725 195.524C170.553 195.674 170.43 195.898 170.354 196.195C170.283 196.489 170.247 196.849 170.247 197.275V200.1H168.609V194.095H169.86L170.081 194.863H170.172C170.294 194.656 170.446 194.487 170.628 194.358C170.815 194.229 171.019 194.135 171.241 194.074C171.463 194.013 171.688 193.982 171.917 193.982C172.358 193.982 172.73 194.054 173.035 194.197C173.343 194.34 173.579 194.562 173.744 194.863H173.889C174.068 194.555 174.32 194.332 174.646 194.192C174.975 194.052 175.314 193.982 175.661 193.982ZM183.196 193.982C183.873 193.982 184.419 194.246 184.835 194.772C185.253 195.298 185.463 196.07 185.463 197.087C185.463 197.767 185.364 198.34 185.168 198.806C184.971 199.268 184.698 199.617 184.351 199.853C184.004 200.089 183.605 200.208 183.153 200.208C182.863 200.208 182.614 200.172 182.407 200.1C182.199 200.025 182.022 199.93 181.875 199.815C181.728 199.697 181.601 199.572 181.494 199.439H181.408C181.436 199.583 181.458 199.729 181.472 199.88C181.487 200.03 181.494 200.177 181.494 200.32V202.743H179.856V194.095H181.188L181.419 194.874H181.494C181.601 194.713 181.732 194.564 181.886 194.428C182.04 194.292 182.224 194.185 182.439 194.106C182.657 194.024 182.91 193.982 183.196 193.982ZM182.67 195.293C182.384 195.293 182.156 195.352 181.988 195.47C181.82 195.588 181.696 195.766 181.617 196.002C181.542 196.238 181.501 196.537 181.494 196.899V197.076C181.494 197.463 181.53 197.791 181.601 198.059C181.676 198.328 181.8 198.532 181.972 198.671C182.147 198.811 182.387 198.881 182.691 198.881C182.942 198.881 183.148 198.811 183.309 198.671C183.47 198.532 183.59 198.328 183.669 198.059C183.751 197.787 183.793 197.456 183.793 197.065C183.793 196.478 183.701 196.036 183.519 195.739C183.336 195.442 183.053 195.293 182.67 195.293ZM188.895 200.1H187.256V191.743H188.895V200.1ZM193.535 193.982C194.09 193.982 194.568 194.09 194.969 194.305C195.37 194.516 195.68 194.824 195.898 195.229C196.117 195.633 196.226 196.127 196.226 196.711V197.506H192.353C192.371 197.968 192.509 198.331 192.767 198.596C193.028 198.858 193.39 198.988 193.852 198.988C194.235 198.988 194.586 198.949 194.904 198.87C195.223 198.791 195.551 198.673 195.887 198.516V199.783C195.59 199.93 195.279 200.037 194.953 200.105C194.631 200.174 194.238 200.208 193.777 200.208C193.175 200.208 192.641 200.097 192.176 199.875C191.714 199.653 191.351 199.314 191.086 198.859C190.824 198.405 190.694 197.832 190.694 197.141C190.694 196.439 190.812 195.855 191.048 195.39C191.288 194.921 191.621 194.57 192.047 194.337C192.473 194.101 192.969 193.982 193.535 193.982ZM193.546 195.148C193.227 195.148 192.962 195.25 192.751 195.454C192.543 195.658 192.423 195.979 192.391 196.416H194.69C194.686 196.172 194.641 195.955 194.555 195.766C194.473 195.576 194.348 195.425 194.179 195.314C194.015 195.203 193.803 195.148 193.546 195.148ZM164.398 204.982C165.075 204.982 165.621 205.246 166.037 205.772C166.455 206.298 166.665 207.07 166.665 208.087C166.665 208.767 166.567 209.34 166.37 209.806C166.173 210.268 165.9 210.617 165.553 210.853C165.206 211.089 164.807 211.208 164.355 211.208C164.065 211.208 163.817 211.172 163.609 211.1C163.401 211.025 163.224 210.93 163.077 210.815C162.93 210.697 162.803 210.572 162.696 210.439H162.61C162.638 210.583 162.66 210.729 162.674 210.88C162.689 211.03 162.696 211.177 162.696 211.32V213.743H161.058V205.095H162.39L162.621 205.874H162.696C162.803 205.713 162.934 205.564 163.088 205.428C163.242 205.292 163.426 205.185 163.641 205.106C163.859 205.024 164.112 204.982 164.398 204.982ZM163.872 206.293C163.586 206.293 163.358 206.352 163.19 206.47C163.022 206.588 162.898 206.766 162.819 207.002C162.744 207.238 162.703 207.537 162.696 207.899V208.076C162.696 208.463 162.732 208.791 162.803 209.059C162.878 209.328 163.002 209.532 163.174 209.671C163.349 209.811 163.589 209.881 163.893 209.881C164.144 209.881 164.35 209.811 164.511 209.671C164.672 209.532 164.792 209.328 164.871 209.059C164.953 208.787 164.995 208.456 164.995 208.065C164.995 207.478 164.903 207.036 164.721 206.739C164.538 206.442 164.255 206.293 163.872 206.293ZM173.916 208.087C173.916 208.588 173.847 209.032 173.711 209.419C173.579 209.806 173.384 210.133 173.126 210.402C172.872 210.667 172.564 210.867 172.202 211.003C171.844 211.139 171.439 211.208 170.988 211.208C170.566 211.208 170.177 211.139 169.823 211.003C169.472 210.867 169.166 210.667 168.904 210.402C168.646 210.133 168.446 209.806 168.303 209.419C168.163 209.032 168.093 208.588 168.093 208.087C168.093 207.421 168.211 206.857 168.448 206.395C168.684 205.933 169.021 205.582 169.458 205.342C169.894 205.102 170.415 204.982 171.02 204.982C171.583 204.982 172.08 205.102 172.514 205.342C172.951 205.582 173.292 205.933 173.54 206.395C173.79 206.857 173.916 207.421 173.916 208.087ZM169.764 208.087C169.764 208.481 169.807 208.812 169.893 209.081C169.979 209.349 170.113 209.551 170.295 209.688C170.478 209.824 170.716 209.892 171.01 209.892C171.3 209.892 171.534 209.824 171.713 209.688C171.896 209.551 172.028 209.349 172.111 209.081C172.197 208.812 172.24 208.481 172.24 208.087C172.24 207.689 172.197 207.36 172.111 207.099C172.028 206.834 171.896 206.635 171.713 206.502C171.531 206.37 171.293 206.304 170.999 206.304C170.566 206.304 170.251 206.452 170.054 206.75C169.86 207.047 169.764 207.493 169.764 208.087ZM177.347 205.095V211.1H175.709V205.095H177.347ZM176.531 202.743C176.774 202.743 176.984 202.8 177.159 202.915C177.335 203.026 177.422 203.235 177.422 203.543C177.422 203.847 177.335 204.059 177.159 204.177C176.984 204.291 176.774 204.349 176.531 204.349C176.284 204.349 176.072 204.291 175.897 204.177C175.725 204.059 175.639 203.847 175.639 203.543C175.639 203.235 175.725 203.026 175.897 202.915C176.072 202.8 176.284 202.743 176.531 202.743ZM182.922 204.982C183.563 204.982 184.079 205.158 184.469 205.509C184.859 205.856 185.054 206.415 185.054 207.185V211.1H183.416V207.593C183.416 207.163 183.337 206.839 183.18 206.621C183.026 206.402 182.782 206.293 182.449 206.293C181.948 206.293 181.606 206.463 181.423 206.803C181.241 207.143 181.15 207.634 181.15 208.275V211.1H179.511V205.095H180.763L180.983 205.863H181.074C181.203 205.656 181.363 205.487 181.552 205.358C181.746 205.229 181.959 205.135 182.192 205.074C182.428 205.013 182.671 204.982 182.922 204.982ZM189.711 209.902C189.89 209.902 190.063 209.884 190.232 209.849C190.403 209.813 190.574 209.768 190.742 209.714V210.934C190.566 211.012 190.348 211.077 190.087 211.127C189.829 211.181 189.546 211.208 189.238 211.208C188.88 211.208 188.558 211.15 188.271 211.036C187.988 210.917 187.764 210.715 187.6 210.429C187.439 210.139 187.358 209.736 187.358 209.22V206.325H186.574V205.632L187.476 205.084L187.949 203.817H188.996V205.095H190.677V206.325H188.996V209.22C188.996 209.449 189.061 209.621 189.19 209.736C189.322 209.847 189.496 209.902 189.711 209.902Z" fill="#333333"/>
<path d="M190.149 172.32V173.699L186.511 175.789L175.648 178.52V174.184L190.149 172.32Z" fill="#C78A0C"/>
<path d="M190.149 157.034V172.322L175.648 174.185V165.368L190.149 157.034Z" fill="#598F22"/>
<path d="M190.149 157.035L175.648 165.367L161.148 157.035L175.648 148.702L190.149 157.035Z" fill="#598F22"/>
<path d="M186.511 175.789L175.648 182.032V178.522L186.511 175.789Z" fill="#754C24"/>
<path d="M175.648 178.521V182.032L161.148 173.699V166.115L175.628 178.526L175.648 178.521Z" fill="#754C24"/>
<path d="M175.648 174.185V178.521L175.628 178.526L161.148 166.115V161.2L175.628 174.187L175.648 174.185Z" fill="#C78A0C"/>
<path d="M175.648 165.367V174.185L175.628 174.187L161.148 161.2V157.034L175.648 165.367Z" fill="#598F22"/>
<path d="M175.998 182.032H175.297V165.569L160.973 157.337L161.324 156.732L175.999 165.166L175.998 182.032Z" fill="#1D1D1B"/>
<path d="M189.973 156.732L175.473 165.066L175.824 165.671L190.324 157.336L189.973 156.732Z" fill="#1D1D1B"/>
<path d="M175.649 182.434L160.8 173.9V156.834L160.975 156.733L175.65 148.3L190.5 156.833V173.899L175.649 182.434ZM161.499 173.499L175.649 181.63L189.799 173.499V157.237L175.649 149.106L161.499 157.237V173.499Z" fill="#1D1D1B"/>
<path d="M175.535 178.906L160.92 166.38L161.378 165.851L175.72 178.143L186.426 175.45L186.596 176.128L175.707 178.866L175.535 178.906Z" fill="#1D1D1B"/>
<path d="M175.511 174.552L175.393 174.447L160.914 161.459L161.382 160.941L175.742 173.821L190.102 171.975L190.192 172.667L175.666 174.534L175.511 174.552Z" fill="#1D1D1B"/>
<rect x="225.425" y="127.125" width="91.85" height="80.85" rx="13.475" fill="#FAF0A7" stroke="#333333" stroke-width="1.65"/>
<path d="M235.959 185.821C235.64 185.821 235.357 185.883 235.11 186.009C234.867 186.13 234.661 186.308 234.492 186.54C234.328 186.773 234.202 187.054 234.116 187.384C234.03 187.713 233.987 188.084 233.987 188.495C233.987 189.05 234.055 189.525 234.192 189.919C234.331 190.309 234.546 190.608 234.836 190.816C235.126 191.02 235.5 191.122 235.959 191.122C236.277 191.122 236.596 191.086 236.915 191.014C237.237 190.943 237.586 190.841 237.962 190.708V192.105C237.615 192.248 237.273 192.35 236.936 192.411C236.6 192.475 236.222 192.508 235.803 192.508C234.994 192.508 234.328 192.341 233.805 192.008C233.286 191.671 232.901 191.202 232.65 190.601C232.399 189.996 232.274 189.29 232.274 188.485C232.274 187.89 232.355 187.346 232.516 186.852C232.677 186.358 232.913 185.93 233.225 185.568C233.536 185.206 233.921 184.927 234.38 184.73C234.838 184.533 235.364 184.435 235.959 184.435C236.349 184.435 236.739 184.485 237.13 184.585C237.523 184.682 237.899 184.816 238.257 184.988L237.72 186.342C237.427 186.202 237.131 186.08 236.834 185.976C236.537 185.872 236.245 185.821 235.959 185.821ZM245.406 189.387C245.406 189.888 245.338 190.332 245.202 190.719C245.069 191.106 244.874 191.433 244.616 191.702C244.362 191.967 244.054 192.167 243.693 192.303C243.335 192.44 242.93 192.508 242.479 192.508C242.056 192.508 241.668 192.44 241.313 192.303C240.962 192.167 240.656 191.967 240.395 191.702C240.137 191.433 239.936 191.106 239.793 190.719C239.654 190.332 239.584 189.888 239.584 189.387C239.584 188.721 239.702 188.157 239.938 187.695C240.175 187.233 240.511 186.882 240.948 186.642C241.385 186.402 241.906 186.282 242.511 186.282C243.073 186.282 243.571 186.402 244.004 186.642C244.441 186.882 244.783 187.233 245.03 187.695C245.281 188.157 245.406 188.721 245.406 189.387ZM241.254 189.387C241.254 189.781 241.297 190.112 241.383 190.381C241.469 190.649 241.603 190.851 241.786 190.988C241.968 191.124 242.207 191.192 242.5 191.192C242.79 191.192 243.025 191.124 243.204 190.988C243.386 190.851 243.519 190.649 243.601 190.381C243.687 190.112 243.73 189.781 243.73 189.387C243.73 188.99 243.687 188.66 243.601 188.399C243.519 188.134 243.386 187.935 243.204 187.802C243.021 187.67 242.783 187.604 242.489 187.604C242.056 187.604 241.741 187.752 241.544 188.05C241.351 188.347 241.254 188.793 241.254 189.387ZM250.61 186.282C251.251 186.282 251.767 186.458 252.157 186.809C252.547 187.156 252.742 187.715 252.742 188.485V192.4H251.104V188.893C251.104 188.463 251.025 188.139 250.868 187.921C250.714 187.702 250.47 187.593 250.137 187.593C249.636 187.593 249.294 187.763 249.112 188.103C248.929 188.443 248.838 188.934 248.838 189.575V192.4H247.199V186.395H248.451L248.671 187.163H248.762C248.891 186.956 249.051 186.787 249.24 186.658C249.434 186.53 249.647 186.435 249.88 186.374C250.116 186.313 250.359 186.282 250.61 186.282ZM259.058 190.617C259.058 191.025 258.962 191.371 258.768 191.654C258.579 191.933 258.294 192.146 257.914 192.293C257.535 192.436 257.062 192.508 256.496 192.508C256.077 192.508 255.718 192.481 255.417 192.427C255.12 192.373 254.819 192.284 254.514 192.158V190.805C254.84 190.952 255.189 191.073 255.562 191.17C255.938 191.263 256.267 191.31 256.55 191.31C256.869 191.31 257.096 191.263 257.232 191.17C257.372 191.073 257.442 190.948 257.442 190.794C257.442 190.694 257.413 190.604 257.356 190.526C257.302 190.443 257.184 190.352 257.001 190.252C256.819 190.148 256.532 190.014 256.142 189.849C255.766 189.691 255.456 189.532 255.213 189.371C254.973 189.21 254.794 189.02 254.676 188.802C254.561 188.58 254.504 188.298 254.504 187.958C254.504 187.403 254.719 186.986 255.148 186.707C255.582 186.424 256.16 186.282 256.883 186.282C257.256 186.282 257.61 186.32 257.947 186.395C258.287 186.47 258.636 186.59 258.994 186.755L258.5 187.937C258.203 187.808 257.922 187.702 257.657 187.62C257.395 187.538 257.128 187.496 256.856 187.496C256.616 187.496 256.436 187.529 256.314 187.593C256.192 187.657 256.131 187.756 256.131 187.888C256.131 187.985 256.162 188.071 256.222 188.146C256.287 188.221 256.409 188.306 256.588 188.399C256.77 188.488 257.037 188.605 257.388 188.748C257.728 188.887 258.024 189.034 258.274 189.188C258.525 189.339 258.718 189.527 258.854 189.752C258.99 189.974 259.058 190.262 259.058 190.617ZM266.234 189.387C266.234 189.888 266.166 190.332 266.03 190.719C265.897 191.106 265.702 191.433 265.444 191.702C265.19 191.967 264.882 192.167 264.52 192.303C264.162 192.44 263.758 192.508 263.307 192.508C262.884 192.508 262.495 192.44 262.141 192.303C261.79 192.167 261.484 191.967 261.223 191.702C260.965 191.433 260.764 191.106 260.621 190.719C260.481 190.332 260.412 189.888 260.412 189.387C260.412 188.721 260.53 188.157 260.766 187.695C261.002 187.233 261.339 186.882 261.776 186.642C262.213 186.402 262.734 186.282 263.339 186.282C263.901 186.282 264.399 186.402 264.832 186.642C265.269 186.882 265.611 187.233 265.858 187.695C266.108 188.157 266.234 188.721 266.234 189.387ZM262.082 189.387C262.082 189.781 262.125 190.112 262.211 190.381C262.297 190.649 262.431 190.851 262.614 190.988C262.796 191.124 263.034 191.192 263.328 191.192C263.618 191.192 263.853 191.124 264.032 190.988C264.214 190.851 264.347 190.649 264.429 190.381C264.515 190.112 264.558 189.781 264.558 189.387C264.558 188.99 264.515 188.66 264.429 188.399C264.347 188.134 264.214 187.935 264.032 187.802C263.849 187.67 263.611 187.604 263.317 187.604C262.884 187.604 262.569 187.752 262.372 188.05C262.179 188.347 262.082 188.793 262.082 189.387ZM269.665 192.4H268.027V184.043H269.665V192.4ZM273.468 186.395V192.4H271.83V186.395H273.468ZM272.651 184.043C272.895 184.043 273.104 184.1 273.28 184.215C273.455 184.326 273.543 184.535 273.543 184.843C273.543 185.147 273.455 185.359 273.28 185.477C273.104 185.591 272.895 185.649 272.651 185.649C272.404 185.649 272.193 185.591 272.018 185.477C271.846 185.359 271.76 185.147 271.76 184.843C271.76 184.535 271.846 184.326 272.018 184.215C272.193 184.1 272.404 184.043 272.651 184.043ZM277.533 192.508C276.864 192.508 276.318 192.246 275.895 191.723C275.476 191.197 275.267 190.425 275.267 189.408C275.267 188.381 275.48 187.604 275.906 187.077C276.332 186.547 276.889 186.282 277.576 186.282C277.863 186.282 278.115 186.322 278.334 186.401C278.552 186.479 278.74 186.585 278.898 186.718C279.059 186.85 279.195 186.999 279.306 187.163H279.359C279.338 187.049 279.311 186.88 279.279 186.658C279.25 186.433 279.236 186.202 279.236 185.966V184.043H280.879V192.4H279.623L279.306 191.621H279.236C279.132 191.786 279.001 191.936 278.844 192.073C278.69 192.205 278.505 192.311 278.291 192.389C278.076 192.468 277.823 192.508 277.533 192.508ZM278.108 191.202C278.556 191.202 278.871 191.07 279.053 190.805C279.239 190.536 279.338 190.134 279.349 189.596V189.419C279.349 188.836 279.259 188.39 279.08 188.082C278.901 187.77 278.568 187.615 278.081 187.615C277.719 187.615 277.437 187.77 277.232 188.082C277.028 188.393 276.926 188.843 276.926 189.43C276.926 190.017 277.028 190.459 277.232 190.757C277.44 191.054 277.732 191.202 278.108 191.202ZM285.493 186.272C286.298 186.272 286.916 186.447 287.346 186.798C287.776 187.149 287.99 187.683 287.99 188.399V192.4H286.846L286.529 191.584H286.486C286.315 191.799 286.139 191.974 285.96 192.11C285.781 192.246 285.575 192.346 285.342 192.411C285.11 192.475 284.827 192.508 284.494 192.508C284.139 192.508 283.821 192.44 283.538 192.303C283.258 192.167 283.038 191.96 282.877 191.68C282.716 191.398 282.635 191.039 282.635 190.606C282.635 189.969 282.859 189.5 283.307 189.199C283.754 188.895 284.426 188.726 285.321 188.694L286.363 188.662V188.399C286.363 188.084 286.281 187.853 286.116 187.706C285.951 187.559 285.722 187.486 285.428 187.486C285.138 187.486 284.854 187.527 284.574 187.609C284.295 187.691 284.016 187.795 283.736 187.921L283.194 186.814C283.513 186.646 283.869 186.513 284.263 186.417C284.66 186.32 285.07 186.272 285.493 186.272ZM286.363 189.618L285.729 189.639C285.199 189.654 284.83 189.749 284.623 189.924C284.419 190.1 284.317 190.33 284.317 190.617C284.317 190.868 284.39 191.047 284.537 191.154C284.684 191.258 284.875 191.31 285.111 191.31C285.462 191.31 285.758 191.206 285.998 190.998C286.241 190.791 286.363 190.495 286.363 190.112V189.618ZM292.652 191.202C292.831 191.202 293.005 191.184 293.173 191.149C293.345 191.113 293.515 191.068 293.683 191.014V192.234C293.508 192.312 293.289 192.377 293.028 192.427C292.77 192.481 292.487 192.508 292.179 192.508C291.821 192.508 291.499 192.45 291.213 192.336C290.93 192.218 290.706 192.015 290.541 191.729C290.38 191.439 290.299 191.036 290.299 190.52V187.625H289.515V186.932L290.418 186.385L290.89 185.117H291.938V186.395H293.619V187.625H291.938V190.52C291.938 190.749 292.002 190.921 292.131 191.036C292.264 191.147 292.437 191.202 292.652 191.202ZM296.981 186.395V192.4H295.343V186.395H296.981ZM296.164 184.043C296.408 184.043 296.617 184.1 296.793 184.215C296.968 184.326 297.056 184.535 297.056 184.843C297.056 185.147 296.968 185.359 296.793 185.477C296.617 185.591 296.408 185.649 296.164 185.649C295.917 185.649 295.706 185.591 295.531 185.477C295.359 185.359 295.273 185.147 295.273 184.843C295.273 184.535 295.359 184.326 295.531 184.215C295.706 184.1 295.917 184.043 296.164 184.043ZM304.602 189.387C304.602 189.888 304.534 190.332 304.398 190.719C304.265 191.106 304.07 191.433 303.812 191.702C303.558 191.967 303.25 192.167 302.888 192.303C302.53 192.44 302.126 192.508 301.675 192.508C301.252 192.508 300.864 192.44 300.509 192.303C300.158 192.167 299.852 191.967 299.591 191.702C299.333 191.433 299.132 191.106 298.989 190.719C298.849 190.332 298.78 189.888 298.78 189.387C298.78 188.721 298.898 188.157 299.134 187.695C299.37 187.233 299.707 186.882 300.144 186.642C300.581 186.402 301.102 186.282 301.707 186.282C302.269 186.282 302.767 186.402 303.2 186.642C303.637 186.882 303.979 187.233 304.226 187.695C304.477 188.157 304.602 188.721 304.602 189.387ZM300.45 189.387C300.45 189.781 300.493 190.112 300.579 190.381C300.665 190.649 300.799 190.851 300.982 190.988C301.164 191.124 301.402 191.192 301.696 191.192C301.986 191.192 302.221 191.124 302.4 190.988C302.582 190.851 302.715 190.649 302.797 190.381C302.883 190.112 302.926 189.781 302.926 189.387C302.926 188.99 302.883 188.66 302.797 188.399C302.715 188.134 302.582 187.935 302.4 187.802C302.217 187.67 301.979 187.604 301.685 187.604C301.252 187.604 300.937 187.752 300.74 188.05C300.547 188.347 300.45 188.793 300.45 189.387ZM309.806 186.282C310.447 186.282 310.963 186.458 311.353 186.809C311.743 187.156 311.938 187.715 311.938 188.485V192.4H310.3V188.893C310.3 188.463 310.221 188.139 310.064 187.921C309.91 187.702 309.666 187.593 309.333 187.593C308.832 187.593 308.49 187.763 308.307 188.103C308.125 188.443 308.034 188.934 308.034 189.575V192.4H306.395V186.395H307.647L307.867 187.163H307.958C308.087 186.956 308.247 186.787 308.436 186.658C308.63 186.53 308.843 186.435 309.076 186.374C309.312 186.313 309.555 186.282 309.806 186.282Z" fill="#333333"/>
<path d="M285.849 162.42V163.799L282.211 165.889L271.348 168.62V164.284L285.849 162.42Z" fill="#C78A0C"/>
<path d="M285.849 147.134V162.422L271.348 164.285V155.468L285.849 147.134Z" fill="#598F22"/>
<path d="M285.849 147.134L271.348 155.467L256.849 147.134L271.348 138.802L285.849 147.134Z" fill="#598F22"/>
<path d="M282.211 165.889L271.348 172.132V168.621L282.211 165.889Z" fill="#754C24"/>
<path d="M271.348 168.621V172.131L256.849 163.799V156.215L271.328 168.626L271.348 168.621Z" fill="#754C24"/>
<path d="M271.348 164.285V168.621L271.328 168.625L256.849 156.215V151.3L271.328 164.287L271.348 164.285Z" fill="#C78A0C"/>
<path d="M271.348 155.467V164.285L271.328 164.287L256.849 151.3V147.134L271.348 155.467Z" fill="#598F22"/>
<path d="M271.699 172.132H270.997V155.669L256.673 147.437L257.024 146.833L271.699 155.266L271.699 172.132Z" fill="#1D1D1B"/>
<path d="M285.674 146.832L271.174 155.166L271.524 155.771L286.025 147.437L285.674 146.832Z" fill="#1D1D1B"/>
<path d="M271.349 172.534L256.5 164V146.934L256.675 146.833L271.35 138.4L286.2 146.933V164L271.349 172.534ZM257.199 163.599L271.349 171.73L285.499 163.599V147.337L271.349 139.206L257.199 147.337V163.599Z" fill="#1D1D1B"/>
<path d="M271.235 169.006L256.62 156.48L257.078 155.951L271.42 168.243L282.126 165.551L282.296 166.228L271.408 168.966L271.235 169.006Z" fill="#1D1D1B"/>
<path d="M271.211 164.652L271.094 164.547L256.614 151.559L257.082 151.041L271.442 163.921L285.802 162.075L285.892 162.767L271.366 164.634L271.211 164.652Z" fill="#1D1D1B"/>
<path d="M270.8 208.8L270.8 246.2" stroke="#FD9850" stroke-width="2.2" stroke-dasharray="4.4 4.4"/>
<path d="M176.2 222L176.2 249.5" stroke="#FD9850" stroke-width="2.2" stroke-dasharray="4.4 4.4"/>
<path d="M367.6 228.6L367.6 263.8" stroke="#FD9850" stroke-width="2.2" stroke-dasharray="4.4 4.4"/>
<rect x="331.025" y="152.425" width="72.05" height="80.85" rx="13.475" fill="#FAF0A7" stroke="#333333" stroke-width="1.65"/>
<path d="M338.215 219.9V212.048H339.88V219.9H338.215ZM345.578 213.782C346.219 213.782 346.735 213.958 347.125 214.309C347.515 214.656 347.71 215.215 347.71 215.985V219.9H346.072V216.393C346.072 215.963 345.993 215.639 345.836 215.421C345.682 215.202 345.438 215.093 345.105 215.093C344.604 215.093 344.262 215.263 344.079 215.603C343.897 215.943 343.806 216.434 343.806 217.075V219.9H342.167V213.895H343.419L343.639 214.663H343.73C343.859 214.456 344.019 214.287 344.208 214.158C344.402 214.03 344.615 213.935 344.848 213.874C345.084 213.813 345.327 213.782 345.578 213.782ZM352.367 218.702C352.546 218.702 352.719 218.684 352.888 218.649C353.059 218.613 353.23 218.568 353.398 218.514V219.734C353.222 219.812 353.004 219.877 352.743 219.927C352.485 219.981 352.202 220.008 351.894 220.008C351.536 220.008 351.214 219.95 350.927 219.836C350.644 219.718 350.42 219.515 350.256 219.229C350.095 218.939 350.014 218.536 350.014 218.02V215.125H349.23V214.432L350.132 213.885L350.605 212.617H351.652V213.895H353.333V215.125H351.652V218.02C351.652 218.249 351.717 218.421 351.846 218.536C351.978 218.647 352.152 218.702 352.367 218.702ZM357.533 213.782C358.088 213.782 358.566 213.89 358.967 214.105C359.368 214.316 359.678 214.624 359.896 215.029C360.115 215.433 360.224 215.927 360.224 216.511V217.306H356.352C356.369 217.768 356.507 218.131 356.765 218.396C357.026 218.658 357.388 218.788 357.85 218.788C358.233 218.788 358.584 218.749 358.903 218.67C359.221 218.591 359.549 218.473 359.886 218.316V219.583C359.589 219.73 359.277 219.837 358.951 219.906C358.629 219.974 358.237 220.008 357.775 220.008C357.173 220.008 356.64 219.897 356.174 219.675C355.712 219.453 355.349 219.114 355.084 218.659C354.823 218.205 354.692 217.632 354.692 216.941C354.692 216.239 354.81 215.655 355.046 215.19C355.286 214.721 355.619 214.37 356.045 214.137C356.471 213.901 356.967 213.782 357.533 213.782ZM357.544 214.948C357.225 214.948 356.96 215.05 356.749 215.254C356.541 215.458 356.421 215.779 356.389 216.216H358.688C358.684 215.972 358.64 215.755 358.554 215.566C358.471 215.376 358.346 215.226 358.178 215.115C358.013 215.003 357.802 214.948 357.544 214.948ZM365.348 213.782C365.43 213.782 365.525 213.788 365.632 213.799C365.743 213.806 365.833 213.816 365.901 213.831L365.777 215.367C365.724 215.349 365.647 215.337 365.546 215.329C365.45 215.319 365.366 215.313 365.294 215.313C365.083 215.313 364.877 215.34 364.676 215.394C364.479 215.448 364.302 215.535 364.145 215.657C363.987 215.775 363.862 215.933 363.769 216.13C363.679 216.323 363.634 216.561 363.634 216.844V219.9H361.996V213.895H363.237L363.479 214.905H363.559C363.677 214.701 363.824 214.515 364 214.346C364.179 214.175 364.381 214.038 364.606 213.938C364.836 213.834 365.083 213.782 365.348 213.782ZM370.751 215.125H369.333V219.9H367.694V215.125H366.792V214.336L367.694 213.895V213.455C367.694 212.943 367.78 212.545 367.952 212.262C368.128 211.976 368.373 211.775 368.688 211.661C369.007 211.543 369.383 211.484 369.816 211.484C370.135 211.484 370.425 211.51 370.686 211.564C370.948 211.614 371.161 211.672 371.325 211.736L370.906 212.939C370.781 212.9 370.645 212.864 370.498 212.832C370.351 212.8 370.183 212.783 369.993 212.783C369.764 212.783 369.596 212.853 369.488 212.993C369.385 213.129 369.333 213.304 369.333 213.519V213.895H370.751V215.125ZM374.596 213.772C375.402 213.772 376.019 213.947 376.449 214.298C376.879 214.649 377.093 215.183 377.093 215.899V219.9H375.949L375.632 219.084H375.589C375.418 219.299 375.242 219.474 375.063 219.61C374.884 219.746 374.678 219.846 374.445 219.911C374.213 219.975 373.93 220.008 373.597 220.008C373.242 220.008 372.924 219.94 372.641 219.803C372.361 219.667 372.141 219.46 371.98 219.18C371.819 218.898 371.738 218.539 371.738 218.106C371.738 217.469 371.962 217 372.41 216.699C372.857 216.395 373.529 216.226 374.424 216.194L375.466 216.162V215.899C375.466 215.584 375.384 215.353 375.219 215.206C375.054 215.059 374.825 214.986 374.531 214.986C374.241 214.986 373.957 215.027 373.677 215.109C373.398 215.191 373.119 215.295 372.839 215.421L372.297 214.314C372.616 214.146 372.972 214.013 373.366 213.917C373.763 213.82 374.173 213.772 374.596 213.772ZM375.466 217.118L374.832 217.139C374.302 217.154 373.933 217.249 373.726 217.424C373.522 217.6 373.42 217.83 373.42 218.117C373.42 218.368 373.493 218.547 373.64 218.654C373.787 218.758 373.978 218.81 374.214 218.81C374.565 218.81 374.861 218.706 375.101 218.498C375.344 218.291 375.466 217.995 375.466 217.612V217.118ZM381.664 220.008C381.069 220.008 380.563 219.9 380.144 219.685C379.725 219.467 379.406 219.13 379.188 218.676C378.969 218.221 378.86 217.639 378.86 216.93C378.86 216.196 378.984 215.598 379.231 215.136C379.481 214.67 379.827 214.329 380.267 214.11C380.711 213.892 381.225 213.782 381.809 213.782C382.224 213.782 382.582 213.824 382.883 213.906C383.187 213.985 383.452 214.08 383.678 214.191L383.195 215.458C382.937 215.354 382.697 215.27 382.475 215.206C382.253 215.138 382.031 215.104 381.809 215.104C381.522 215.104 381.284 215.172 381.094 215.308C380.905 215.44 380.763 215.641 380.67 215.909C380.577 216.178 380.53 216.515 380.53 216.919C380.53 217.317 380.581 217.646 380.681 217.907C380.781 218.169 380.926 218.364 381.116 218.493C381.306 218.618 381.537 218.681 381.809 218.681C382.149 218.681 382.452 218.636 382.717 218.547C382.981 218.454 383.239 218.325 383.49 218.16V219.562C383.239 219.719 382.976 219.832 382.7 219.9C382.428 219.972 382.083 220.008 381.664 220.008ZM387.803 213.782C388.358 213.782 388.836 213.89 389.237 214.105C389.638 214.316 389.947 214.624 390.166 215.029C390.384 215.433 390.493 215.927 390.493 216.511V217.306H386.621C386.639 217.768 386.777 218.131 387.034 218.396C387.296 218.658 387.657 218.788 388.119 218.788C388.503 218.788 388.853 218.749 389.172 218.67C389.491 218.591 389.818 218.473 390.155 218.316V219.583C389.858 219.73 389.546 219.837 389.22 219.906C388.898 219.974 388.506 220.008 388.044 220.008C387.443 220.008 386.909 219.897 386.444 219.675C385.982 219.453 385.618 219.114 385.353 218.659C385.092 218.205 384.961 217.632 384.961 216.941C384.961 216.239 385.079 215.655 385.316 215.19C385.556 214.721 385.889 214.37 386.315 214.137C386.741 213.901 387.237 213.782 387.803 213.782ZM387.813 214.948C387.495 214.948 387.23 215.05 387.018 215.254C386.811 215.458 386.691 215.779 386.658 216.216H388.957C388.954 215.972 388.909 215.755 388.823 215.566C388.741 215.376 388.615 215.226 388.447 215.115C388.282 215.003 388.071 214.948 387.813 214.948ZM396.455 218.117C396.455 218.525 396.358 218.871 396.165 219.154C395.975 219.433 395.69 219.646 395.311 219.793C394.931 219.936 394.459 220.008 393.893 220.008C393.474 220.008 393.114 219.981 392.813 219.927C392.516 219.873 392.215 219.784 391.911 219.658V218.305C392.237 218.452 392.586 218.573 392.958 218.67C393.334 218.763 393.664 218.81 393.947 218.81C394.265 218.81 394.493 218.763 394.629 218.67C394.768 218.573 394.838 218.448 394.838 218.294C394.838 218.194 394.81 218.104 394.752 218.026C394.699 217.943 394.58 217.852 394.398 217.752C394.215 217.648 393.929 217.514 393.538 217.349C393.162 217.191 392.853 217.032 392.609 216.871C392.369 216.71 392.19 216.52 392.072 216.302C391.958 216.08 391.9 215.798 391.9 215.458C391.9 214.903 392.115 214.486 392.545 214.207C392.978 213.924 393.556 213.782 394.28 213.782C394.652 213.782 395.006 213.82 395.343 213.895C395.683 213.97 396.032 214.09 396.39 214.255L395.896 215.437C395.599 215.308 395.318 215.202 395.053 215.12C394.792 215.038 394.525 214.996 394.253 214.996C394.013 214.996 393.832 215.029 393.71 215.093C393.589 215.157 393.528 215.256 393.528 215.388C393.528 215.485 393.558 215.571 393.619 215.646C393.683 215.721 393.805 215.806 393.984 215.899C394.167 215.988 394.434 216.105 394.784 216.248C395.125 216.387 395.42 216.534 395.671 216.688C395.921 216.839 396.115 217.027 396.251 217.252C396.387 217.474 396.455 217.762 396.455 218.117Z" fill="#333333"/>
<path d="M381.549 191.021V192.399L377.911 194.489L367.048 197.22V192.884L381.549 191.021Z" fill="#C78A0C"/>
<path d="M381.549 175.735V191.022L367.048 192.886V184.068L381.549 175.735Z" fill="#598F22"/>
<path d="M381.549 175.735L367.049 184.068L352.549 175.735L367.049 167.402L381.549 175.735Z" fill="#598F22"/>
<path d="M377.911 194.489L367.048 200.732V197.222L377.911 194.489Z" fill="#754C24"/>
<path d="M367.049 197.221V200.732L352.549 192.399V184.815L367.029 197.226L367.049 197.221Z" fill="#754C24"/>
<path d="M367.049 192.885V197.221L367.029 197.226L352.549 184.815V179.9L367.029 192.887L367.049 192.885Z" fill="#C78A0C"/>
<path d="M367.049 184.067V192.885L367.029 192.888L352.549 179.9V175.735L367.049 184.067Z" fill="#598F22"/>
<path d="M367.399 200.732H366.698V184.269L352.374 176.037L352.724 175.432L367.399 183.866L367.399 200.732Z" fill="#1D1D1B"/>
<path d="M381.374 175.432L366.874 183.766L367.225 184.37L381.725 176.036L381.374 175.432Z" fill="#1D1D1B"/>
<path d="M367.049 201.134L352.2 192.6V175.534L352.375 175.433L367.051 167L381.9 175.533V192.599L367.049 201.134ZM352.9 192.199L367.049 200.33L381.199 192.199V175.937L367.049 167.806L352.9 175.937V192.199Z" fill="#1D1D1B"/>
<path d="M366.935 197.606L352.32 185.079L352.778 184.551L367.12 196.843L377.826 194.15L377.996 194.828L367.108 197.566L366.935 197.606Z" fill="#1D1D1B"/>
<path d="M366.911 193.252L366.794 193.146L352.314 180.159L352.782 179.641L367.142 192.521L381.503 190.675L381.592 191.367L367.067 193.234L366.911 193.252Z" fill="#1D1D1B"/>
<path d="M126 269C161.311 258.903 188.345 251.118 241.862 252.081C295.38 253.043 342.416 269 414 267.096" stroke="#FD9850" stroke-width="5.5"/>
<circle cx="176.5" cy="256.5" r="6.4" fill="white" stroke="#FD9850" stroke-width="2.2"/>
<circle cx="270.5" cy="253.5" r="6.4" fill="white" stroke="#FD9850" stroke-width="2.2"/>
<circle cx="367.5" cy="266.5" r="6.4" fill="white" stroke="#FD9850" stroke-width="2.2"/>
<ellipse cx="24.5" cy="25" rx="24.5" ry="25" transform="matrix(-1 0 0 1 85 271)" fill="#565656"/>
<circle cx="61" cy="296" r="13" transform="rotate(180 61 296)" fill="#F7F7F7"/>
<path d="M105 171C105 159.954 96.0457 151 85 151H-284C-295.046 151 -304 159.954 -304 171V297H105V171Z" fill="#E6A513"/>
<path opacity="0.8" d="M16 171C16 159.954 7.04569 151 -4 151H-284C-295.046 151 -304 159.954 -304 171V297H16V171Z" fill="#8A630B"/>
<rect width="420" height="12" rx="4.5" transform="matrix(-1 0 0 1 109 285)" fill="#649D35"/>
<rect width="89" height="60" transform="matrix(-1 0 0 1 105 180)" fill="#EEF8FC"/>
<path d="M-27 190C-27 184.477 -22.5228 180 -17 180H16V240H-17C-22.5228 240 -27 235.523 -27 230V190Z" fill="#D2E3EF"/>
<rect x="37" y="159" width="42" height="7" rx="3.5" fill="#FFF2D4"/>
<path d="M44 264H77" stroke="#6C6C6C" stroke-width="4" stroke-linecap="round" stroke-linejoin="round"/>
<path d="M44 271H76" stroke="#6C6C6C" stroke-width="4" stroke-linecap="round" stroke-linejoin="round"/>
<path d="M44 278H76" stroke="#6C6C6C" stroke-width="4" stroke-linecap="round" stroke-linejoin="round"/>
<g filter="url(#filter0_d_1877_5117)">
<path d="M70.4503 226.077H45V246.831H70.4503V226.077Z" fill="white"/>
<path d="M83.9478 219.456L74.3348 220.88L79.373 232.561L93.2047 224.44L103.174 214.115L98.1892 209.487L90.3564 216.608L83.9478 219.456Z" fill="white"/>
<path fill-rule="evenodd" clip-rule="evenodd" d="M98.1984 207.75L105 214.065L94.0033 225.455L78.7719 234.397L72.5011 219.858L83.5877 218.216L89.6485 215.522L98.1984 207.75ZM98.18 211.224L91.0643 217.693L84.3078 220.696L76.1685 221.901L79.9741 230.725L92.4061 223.426L101.348 214.165L98.18 211.224Z" fill="#1D1D1D"/>
<path d="M48.2214 229.169L44.5819 236.39L49.2422 241.953V251.689H41.549L32.5754 240.325L41.549 219.018C41.0998 204.869 41.8488 192.545 41.8488 192.545C41.8488 192.545 50.9384 186.957 54.3869 186.438C58.3382 185.845 70.1776 188.899 70.1776 188.899L84.2337 200.735L84.3432 200.829C84.4115 201.325 84.4459 201.825 84.4463 202.325C84.4063 204.435 83.8802 206.506 82.9092 208.379C80.101 214.099 74.3375 218.366 73.5222 218.95C73.4598 218.996 73.4255 219.019 73.4255 219.019L82.4 240.326L73.4247 247.693H65.7276V241.953L70.3879 236.391L66.7491 229.17" fill="white"/>
<path d="M71.7094 218.487L80.572 239.756L72.5783 245.751L74.177 248.149L83.9749 240.54L75.1019 219.479C77.0948 217.939 81.6496 214.046 84.1348 208.986C85.1998 206.925 85.7743 204.647 85.8135 202.327C85.8129 201.766 85.7742 201.205 85.6976 200.649L85.6272 200.136L70.8197 187.659L70.5184 187.579C69.2785 187.258 58.2904 184.472 54.1833 185.089C50.5645 185.633 42.0864 190.796 41.132 191.383L40.5261 191.756L40.4829 192.466C40.4749 192.588 39.7443 204.84 40.1711 218.765L31 240.54L40.8858 253.058H50.6117V240L46.2096 236.203L49.4438 229.786L47.001 228.555L42.957 236.579L47.8763 240.995V250.322H42.2127L34.1383 240.113L42.9146 219.276L42.905 218.977C42.5245 206.972 43.0169 196.163 43.164 193.342C46.0137 191.631 52.1689 188.156 54.579 187.794C57.5071 187.353 66.0811 189.278 69.5271 190.151L83.0365 201.525C83.0597 201.794 83.0708 202.063 83.0708 202.328C83.0307 204.228 82.5528 206.093 81.6744 207.778C78.9885 213.248 73.3529 217.387 72.6847 217.866L71.7094 218.487Z" fill="#1D1D1D"/>
<path d="M74.1771 245.75H49.3967V248.149H74.1771V245.75Z" fill="#1D1D1B"/>
<path d="M84.4442 202.327C84.4041 204.436 83.8781 206.508 82.907 208.381L77.9277 202.471L84.3403 200.832C84.4088 201.327 84.4435 201.827 84.4442 202.327V202.327Z" fill="#1D1D1B"/>
<path d="M51.17 201.095H46.0261C45.8352 201.095 45.6465 201.055 45.4721 200.977C45.2977 200.9 45.1414 200.786 45.0134 200.645C44.8854 200.503 44.7885 200.336 44.7289 200.155C44.6692 199.974 44.6482 199.782 44.6672 199.592L45.0956 195.305C45.1218 195.042 45.2237 194.792 45.389 194.585L47.1029 192.441C47.2311 192.281 47.3938 192.152 47.5788 192.063C47.7638 191.974 47.9664 191.928 48.1716 191.928H52.4586V194.664H48.8295L47.7775 195.979L47.5377 198.359H51.17V201.095Z" fill="#1D1D1B"/>
<path d="M83.1006 209.163V214.759C83.1011 214.833 83.0793 214.906 83.0382 214.968C82.997 215.03 82.9384 215.078 82.8697 215.106C82.801 215.134 82.7255 215.142 82.6527 215.127C82.5799 215.112 82.5132 215.076 82.4612 215.023L80.4268 212.988L83.1006 209.163Z" fill="white"/>
<path d="M82.7254 216.273C82.5268 216.272 82.3301 216.233 82.1467 216.157C81.9633 216.08 81.7968 215.969 81.6566 215.828L78.9468 213.117L84.241 205.541V214.758C84.2399 215.16 84.0795 215.545 83.7948 215.829C83.51 216.113 83.1243 216.273 82.7222 216.273H82.7254ZM81.9108 212.857L81.9612 212.907V212.786L81.9108 212.857Z" fill="#1D1D1B"/>
<path d="M83.2775 210.948L81.2847 208.576L81.6844 207.777C82.5622 206.092 83.0398 204.228 83.0801 202.329C83.0797 201.89 83.0495 201.453 82.9897 201.018L85.654 200.434C86.8531 204.367 84.3495 209.001 84.2423 209.197L83.2775 210.948Z" fill="#1D1D1B"/>
<path d="M73.1438 220.905L72.3677 219.687C71.0964 217.685 70.3863 215.378 70.3115 213.007C70.2367 210.636 70.8001 208.289 71.9426 206.211C73.0852 204.132 74.765 202.399 76.8066 201.191C78.8482 199.984 81.1766 199.347 83.5484 199.347C83.8015 199.347 84.0544 199.354 84.307 199.368L84.7723 199.393L85.6268 200.129L85.6971 200.642C85.774 201.198 85.813 201.759 85.8138 202.32C85.7746 204.64 85.2001 206.918 84.1352 208.979C81.2175 214.922 75.4452 219.249 74.3173 220.057L73.1438 220.905ZM83.0736 202.097C81.3634 202.176 79.6985 202.672 78.2234 203.541C76.7483 204.41 75.5078 205.626 74.6097 207.084C73.7116 208.541 73.183 210.196 73.0699 211.904C72.9568 213.612 73.2626 215.322 73.9608 216.886C75.9256 215.292 79.6491 211.914 81.6819 207.773C82.5604 206.088 83.0382 204.223 83.0784 202.323C83.0768 202.251 83.076 202.175 83.0736 202.097V202.097Z" fill="#1D1D1B"/>
<path d="M68.2505 201.726C68.1006 201.876 67.8975 201.96 67.6856 201.96C67.4737 201.96 67.2705 201.876 67.1207 201.726L63.4179 198.023L59.6806 201.76C59.5308 201.91 59.3276 201.994 59.1157 201.994C58.9039 201.994 58.7007 201.91 58.5509 201.76L57.6821 200.892C57.5323 200.742 57.4481 200.539 57.4481 200.327C57.4481 200.115 57.5323 199.912 57.6821 199.762L62.879 194.565C63.0288 194.415 63.232 194.331 63.4439 194.331C63.6557 194.331 63.8589 194.415 64.0088 194.565L64.8775 195.434C64.8956 195.452 64.9137 195.47 64.9312 195.487L69.1452 199.701C69.2951 199.851 69.3792 200.054 69.3792 200.266C69.3792 200.478 69.2951 200.681 69.1452 200.831L68.2505 201.726Z" fill="#2E2E2E"/>
<path opacity="0.6" d="M63.2016 208.406C65.6282 208.406 67.5954 207.333 67.5954 206.009C67.5954 204.686 65.6282 203.613 63.2016 203.613C60.775 203.613 58.8079 204.686 58.8079 206.009C58.8079 207.333 60.775 208.406 63.2016 208.406Z" fill="#FFB2E8"/>
</g>
<path d="M31 240H16V257H105V240H50.5V253H41L31 240Z" fill="#C78A0C"/>
<circle cx="28" cy="261" r="8" fill="#FEFBE7"/>
<circle cx="83" cy="261" r="8" fill="#FEFBE7"/>
</g>
<defs>
<filter id="filter0_d_1877_5117" x="26" y="184" width="84" height="78.0583" filterUnits="userSpaceOnUse" color-interpolation-filters="sRGB">
<feFlood flood-opacity="0" result="BackgroundImageFix"/>
<feColorMatrix in="SourceAlpha" type="matrix" values="0 0 0 0 0 0 0 0 0 0 0 0 0 0 0 0 0 0 127 0" result="hardAlpha"/>
<feOffset dy="4"/>
<feGaussianBlur stdDeviation="2.5"/>
<feComposite in2="hardAlpha" operator="out"/>
<feColorMatrix type="matrix" values="0 0 0 0 0 0 0 0 0 0 0 0 0 0 0 0 0 0 0.25 0"/>
<feBlend mode="normal" in2="BackgroundImageFix" result="effect1_dropShadow_1877_5117"/>
<feBlend mode="normal" in="SourceGraphic" in2="effect1_dropShadow_1877_5117" result="shape"/>
</filter>
<clipPath id="clip0_1877_5117">
<rect width="1500" height="350" fill="white"/>
</clipPath>
</defs>
</svg>
