<svg width="160" height="160" viewBox="0 0 160 160" fill="none" xmlns="http://www.w3.org/2000/svg">
<g clip-path="url(#clip0_1854_8247)">
<rect width="160" height="160" rx="8" fill="white"/>
<rect width="160" height="164" rx="8" fill="#FFECCE"/>
<path d="M157.5 131.5H43C39.6863 131.5 37 128.814 37 125.5V90C37 86.6863 39.6863 84 43 84H113C116.314 84 119 81.3137 119 78V39C119 35.6863 116.314 33 113 33H2.5" stroke="#8B8B8B" stroke-width="20" stroke-linecap="round"/>
<path d="M157.5 131.5H43C39.6863 131.5 37 128.814 37 125.5V90C37 86.6863 39.6863 84 43 84H113C116.314 84 119 81.3137 119 78V39C119 35.6863 116.314 33 113 33H2.5" stroke="#F9B500" stroke-width="3" stroke-linecap="round" stroke-dasharray="8 8"/>
<mask id="path-5-outside-1_1854_8247" maskUnits="userSpaceOnUse" x="95" y="-12" width="39" height="60" fill="black">
<rect fill="white" x="95" y="-12" width="39" height="60"/>
<path fill-rule="evenodd" clip-rule="evenodd" d="M129.034 17.2339C130.902 14.4503 131.992 11.1004 131.992 7.496C131.992 -2.16677 124.159 -10 114.496 -10C104.833 -10 97 -2.16677 97 7.496C97 11.0987 98.0889 14.447 99.9555 17.2298L111.832 43.8784C112.859 46.1837 116.132 46.1837 117.159 43.8784L129.034 17.2339Z"/>
</mask>
<path fill-rule="evenodd" clip-rule="evenodd" d="M129.034 17.2339C130.902 14.4503 131.992 11.1004 131.992 7.496C131.992 -2.16677 124.159 -10 114.496 -10C104.833 -10 97 -2.16677 97 7.496C97 11.0987 98.0889 14.447 99.9555 17.2298L111.832 43.8784C112.859 46.1837 116.132 46.1837 117.159 43.8784L129.034 17.2339Z" fill="#649D35"/>
<path d="M129.034 17.2339L127.823 16.4214L127.753 16.5257L127.702 16.6404L129.034 17.2339ZM99.9555 17.2298L101.287 16.6363L101.236 16.5218L101.166 16.4177L99.9555 17.2298ZM111.832 43.8784L113.164 43.2849L111.832 43.8784ZM117.159 43.8784L118.491 44.472L117.159 43.8784ZM130.534 7.496C130.534 10.8021 129.535 13.8705 127.823 16.4214L130.244 18.0465C132.269 15.03 133.45 11.3987 133.45 7.496H130.534ZM114.496 -8.542C123.354 -8.542 130.534 -1.36154 130.534 7.496H133.45C133.45 -2.972 124.964 -11.458 114.496 -11.458V-8.542ZM98.458 7.496C98.458 -1.36154 105.638 -8.542 114.496 -8.542V-11.458C104.028 -11.458 95.542 -2.972 95.542 7.496H98.458ZM101.166 16.4177C99.4558 13.8675 98.458 10.8005 98.458 7.496H95.542C95.542 11.3968 96.722 15.0265 98.7447 18.042L101.166 16.4177ZM113.164 43.2849L101.287 16.6363L98.6238 17.8234L110.5 44.4719L113.164 43.2849ZM115.827 43.2849C115.314 44.4376 113.678 44.4376 113.164 43.2849L110.5 44.4719C112.041 47.9299 116.95 47.9299 118.491 44.472L115.827 43.2849ZM127.702 16.6404L115.827 43.2849L118.491 44.472L130.365 17.8275L127.702 16.6404Z" fill="black" mask="url(#path-5-outside-1_1854_8247)"/>
<ellipse cx="114.496" cy="7.1845" rx="13.851" ry="13.4865" fill="white"/>
<path d="M120.328 0.205933H118.87V4.57993H120.328V0.205933Z" fill="#353535"/>
<path d="M121.786 3.12194V1.66394L117.412 1.66394V3.12194L121.786 3.12194Z" fill="#353535"/>
<rect x="113.767" y="0.205933" width="1.458" height="4.374" fill="#353535"/>
<rect x="113.767" y="10.4119" width="1.458" height="4.374" fill="#353535"/>
<rect x="111.58" y="6.76697" width="1.458" height="4.374" transform="rotate(90 111.58 6.76697)" fill="#353535"/>
<rect x="121.786" y="6.76697" width="1.458" height="4.374" transform="rotate(90 121.786 6.76697)" fill="#353535"/>
<circle cx="114.496" cy="7.49596" r="1.458" fill="#353535"/>
<path fill-rule="evenodd" clip-rule="evenodd" d="M110.989 6.03794C110.989 5.76888 111.042 5.50245 111.145 5.25387C111.248 5.00529 111.399 4.77942 111.589 4.58916C111.779 4.39891 112.005 4.24799 112.254 4.14502C112.503 4.04206 112.769 3.98906 113.038 3.98906V2.39294C112.559 2.39294 112.085 2.48723 111.643 2.6704C111.622 2.67916 111.601 2.68811 111.58 2.69725C111.163 2.8794 110.783 3.13824 110.461 3.46054C110.138 3.78284 109.879 4.16257 109.697 4.57994C109.688 4.60089 109.679 4.62193 109.67 4.64306C109.487 5.0853 109.393 5.55928 109.393 6.03794H110.989Z" fill="#353535"/>
<path fill-rule="evenodd" clip-rule="evenodd" d="M118.003 8.95388C118.003 9.22294 117.95 9.48937 117.847 9.73795C117.744 9.98653 117.593 10.2124 117.403 10.4027C117.213 10.5929 116.987 10.7438 116.738 10.8468C116.489 10.9498 116.223 11.0028 115.954 11.0028V12.5989C116.433 12.5989 116.907 12.5046 117.349 12.3214C117.37 12.3127 117.391 12.3037 117.412 12.2946C117.829 12.1124 118.209 11.8536 118.531 11.5313C118.854 11.209 119.113 10.8292 119.295 10.4119C119.304 10.3909 119.313 10.3699 119.322 10.3488C119.505 9.90653 119.599 9.43255 119.599 8.95388H118.003Z" fill="#353535"/>
<path fill-rule="evenodd" clip-rule="evenodd" d="M110.989 8.95388C110.989 9.22294 111.042 9.48937 111.145 9.73795C111.248 9.98653 111.399 10.2124 111.589 10.4027C111.779 10.5929 112.005 10.7438 112.254 10.8468C112.503 10.9498 112.769 11.0028 113.038 11.0028V12.5989C112.559 12.5989 112.085 12.5046 111.643 12.3214C111.622 12.3127 111.601 12.3037 111.58 12.2946C111.163 12.1124 110.783 11.8536 110.461 11.5313C110.138 11.209 109.879 10.8292 109.697 10.4119C109.688 10.3909 109.679 10.3699 109.67 10.3488C109.487 9.90653 109.393 9.43255 109.393 8.95388H110.989Z" fill="#353535"/>
<mask id="path-18-outside-2_1854_8247" maskUnits="userSpaceOnUse" x="17" y="31" width="39" height="59" fill="black">
<rect fill="white" x="17" y="31" width="39" height="59"/>
<path fill-rule="evenodd" clip-rule="evenodd" d="M51.0425 60.238C52.9104 57.4541 54 54.1043 54 50.5C54 40.835 46.165 33 36.5 33C26.835 33 19 40.835 19 50.5C19 54.1043 20.0896 57.4541 21.9575 60.238L32.8464 84.6706C34.2558 87.8328 38.7442 87.8328 40.1536 84.6705L51.0425 60.238Z"/>
</mask>
<path fill-rule="evenodd" clip-rule="evenodd" d="M51.0425 60.238C52.9104 57.4541 54 54.1043 54 50.5C54 40.835 46.165 33 36.5 33C26.835 33 19 40.835 19 50.5C19 54.1043 20.0896 57.4541 21.9575 60.238L32.8464 84.6706C34.2558 87.8328 38.7442 87.8328 40.1536 84.6705L51.0425 60.238Z" fill="#649D35"/>
<path d="M51.0425 60.238L49.3817 59.1237L49.2858 59.2666L49.2158 59.4238L51.0425 60.238ZM21.9575 60.238L23.7843 59.4238L23.7142 59.2666L23.6183 59.1237L21.9575 60.238ZM32.8464 84.6706L31.0196 85.4847L32.8464 84.6706ZM40.1536 84.6705L38.3268 83.8564L40.1536 84.6705ZM52 50.5C52 53.6952 51.0354 56.659 49.3817 59.1237L52.7034 61.3523C54.7854 58.2492 56 54.5134 56 50.5H52ZM36.5 35C45.0604 35 52 41.9396 52 50.5H56C56 39.7304 47.2696 31 36.5 31V35ZM21 50.5C21 41.9396 27.9396 35 36.5 35V31C25.7304 31 17 39.7304 17 50.5H21ZM23.6183 59.1237C21.9647 56.6591 21 53.6952 21 50.5H17C17 54.5134 18.2146 58.2492 20.2967 61.3523L23.6183 59.1237ZM34.6732 83.8564L23.7843 59.4238L20.1307 61.0521L31.0196 85.4847L34.6732 83.8564ZM38.3268 83.8564C37.6221 85.4375 35.3779 85.4375 34.6732 83.8564L31.0196 85.4847C33.1336 90.2281 39.8664 90.2281 41.9804 85.4847L38.3268 83.8564ZM49.2158 59.4238L38.3268 83.8564L41.9804 85.4847L52.8693 61.0521L49.2158 59.4238Z" fill="black" mask="url(#path-18-outside-2_1854_8247)"/>
<circle cx="36.5" cy="50.5" r="13.5" fill="white"/>
<path fill-rule="evenodd" clip-rule="evenodd" d="M44.5 50.625C44.5 53.3174 42.3174 55.5 39.625 55.5C36.9326 55.5 34.75 53.3174 34.75 50.625C34.75 47.9326 36.9326 45.75 39.625 45.75C42.3174 45.75 44.5 47.9326 44.5 50.625ZM39.625 54C41.489 54 43 52.489 43 50.625C43 48.761 41.489 47.25 39.625 47.25C37.761 47.25 36.25 48.761 36.25 50.625C36.25 52.489 37.761 54 39.625 54Z" fill="#353535"/>
<path fill-rule="evenodd" clip-rule="evenodd" d="M39.625 51.75C40.2463 51.75 40.75 51.2463 40.75 50.625C40.75 50.0037 40.2463 49.5 39.625 49.5C39.0037 49.5 38.5 50.0037 38.5 50.625C38.5 51.2463 39.0037 51.75 39.625 51.75ZM39.625 52.5C40.6605 52.5 41.5 51.6605 41.5 50.625C41.5 49.5895 40.6605 48.75 39.625 48.75C38.5895 48.75 37.75 49.5895 37.75 50.625C37.75 51.6605 38.5895 52.5 39.625 52.5Z" fill="#353535"/>
<rect x="40" y="51" width="0.75" height="0.75" transform="rotate(-180 40 51)" fill="#353535"/>
<path d="M37 44.25L34.75 44.25L34.75 45L37 45L37 44.25Z" fill="#353535"/>
<path d="M37 57L34.75 57L34.75 57.75L37 57.75L37 57Z" fill="#353535"/>
<path d="M39.25 53.25L40 53.25L40 52.5L39.25 52.5L39.25 53.25Z" fill="#353535"/>
<path d="M39.25 48L40 48L40 48.75L39.25 48.75L39.25 48Z" fill="#353535"/>
<path d="M39.25 44.25L40 44.25L40 45.75L39.25 45.75L39.25 44.25Z" fill="#353535"/>
<path d="M39.25 56.25L40 56.25L40 57.75L39.25 57.75L39.25 56.25Z" fill="#353535"/>
<path fill-rule="evenodd" clip-rule="evenodd" d="M31.75 59.1651L28.75 57L31.75 54.835V56.25H33.25V57.75H31.75V59.1651Z" fill="#353535"/>
<path fill-rule="evenodd" clip-rule="evenodd" d="M31.75 47.0801L28.75 44.9151L31.75 42.75V44.1651H33.25V45.6651H31.75V47.0801Z" fill="#353535"/>
<rect x="102.5" y="105.5" width="4" height="31" fill="#B2B2B2" stroke="#1F1F1F"/>
<rect x="103.25" y="105.25" width="0.5" height="31.5" fill="#8A3E08" stroke="#1F1F1F" stroke-width="0.5"/>
<path d="M63.75 84C63.75 82.2051 65.2051 80.75 67 80.75H142C143.795 80.75 145.25 82.2051 145.25 84V111C145.25 112.795 143.795 114.25 142 114.25H67C65.2051 114.25 63.75 112.795 63.75 111V84Z" fill="#649D35" stroke="#1F1F1F" stroke-width="1.5"/>
<path d="M74.6523 95H73.1387V89.1211H71.2002V87.8613H76.5908V89.1211H74.6523V95ZM84.4689 91.4209C84.4689 91.971 84.4006 92.4723 84.2639 92.9248C84.1271 93.374 83.9188 93.7614 83.6389 94.0869C83.3622 94.4124 83.0106 94.6631 82.5842 94.8389C82.1577 95.0114 81.6532 95.0977 81.0705 95.0977C80.4878 95.0977 79.9833 95.0114 79.5568 94.8389C79.1304 94.6631 78.7772 94.4124 78.4973 94.0869C78.2206 93.7614 78.0139 93.3724 77.8771 92.9199C77.7404 92.4674 77.6721 91.9645 77.6721 91.4111C77.6721 90.6722 77.7925 90.0293 78.0334 89.4824C78.2775 88.9323 78.6519 88.5059 79.1564 88.2031C79.661 87.9004 80.3023 87.749 81.0803 87.749C81.855 87.749 82.4914 87.9004 82.9895 88.2031C83.4908 88.5059 83.8618 88.9323 84.1027 89.4824C84.3469 90.0326 84.4689 90.6787 84.4689 91.4209ZM79.259 91.4209C79.259 91.9189 79.3208 92.3486 79.4445 92.71C79.5715 93.068 79.7684 93.3447 80.0354 93.54C80.3023 93.7321 80.6473 93.8281 81.0705 93.8281C81.5002 93.8281 81.8485 93.7321 82.1154 93.54C82.3824 93.3447 82.576 93.068 82.6965 92.71C82.8202 92.3486 82.882 91.9189 82.882 91.4209C82.882 90.6722 82.7421 90.083 82.4621 89.6533C82.1822 89.2236 81.7215 89.0088 81.0803 89.0088C80.6538 89.0088 80.3055 89.1064 80.0354 89.3018C79.7684 89.4938 79.5715 89.7705 79.4445 90.1318C79.3208 90.4899 79.259 90.9196 79.259 91.4209ZM89.1461 87.8613H91.3678C92.3183 87.8613 93.0377 87.9948 93.526 88.2617C94.0143 88.5286 94.2584 88.9974 94.2584 89.668C94.2584 89.9382 94.2145 90.1823 94.1266 90.4004C94.0419 90.6185 93.9182 90.7975 93.7555 90.9375C93.5927 91.0775 93.3941 91.1686 93.1598 91.2109V91.2598C93.3974 91.3086 93.6122 91.3932 93.8043 91.5137C93.9964 91.6309 94.1493 91.8034 94.2633 92.0312C94.3805 92.2559 94.4391 92.5553 94.4391 92.9297C94.4391 93.3626 94.3333 93.7337 94.1217 94.043C93.9101 94.3522 93.6074 94.5898 93.2135 94.7559C92.8229 94.9186 92.3574 95 91.817 95H89.1461V87.8613ZM90.6598 90.6885H91.5387C91.9781 90.6885 92.2825 90.6201 92.4518 90.4834C92.621 90.3434 92.7057 90.1383 92.7057 89.8682C92.7057 89.5947 92.6048 89.3994 92.4029 89.2822C92.2044 89.1618 91.8886 89.1016 91.4557 89.1016H90.6598V90.6885ZM90.6598 91.8896V93.75H91.6461C92.1018 93.75 92.4192 93.6621 92.5982 93.4863C92.7773 93.3105 92.8668 93.0745 92.8668 92.7783C92.8668 92.6025 92.8277 92.4479 92.7496 92.3145C92.6715 92.181 92.5396 92.0768 92.3541 92.002C92.1718 91.9271 91.9195 91.8896 91.5973 91.8896H90.6598ZM100.276 95H96.1648V87.8613H100.276V89.1016H97.6785V90.6689H100.096V91.9092H97.6785V93.75H100.276V95ZM74.9307 103.019C74.641 103.019 74.3838 103.076 74.1592 103.189C73.9378 103.3 73.7507 103.461 73.5977 103.673C73.4479 103.884 73.334 104.14 73.2559 104.439C73.1777 104.739 73.1387 105.076 73.1387 105.45C73.1387 105.955 73.2005 106.386 73.3242 106.744C73.4512 107.099 73.6465 107.371 73.9102 107.56C74.1738 107.745 74.514 107.838 74.9307 107.838C75.2204 107.838 75.5101 107.805 75.7998 107.74C76.0928 107.675 76.4102 107.582 76.752 107.462V108.731C76.4362 108.862 76.1253 108.954 75.8193 109.01C75.5133 109.068 75.1699 109.098 74.7891 109.098C74.0534 109.098 73.4479 108.946 72.9727 108.644C72.5007 108.338 72.1507 107.911 71.9229 107.364C71.695 106.814 71.5811 106.173 71.5811 105.44C71.5811 104.9 71.6543 104.405 71.8008 103.956C71.9473 103.507 72.1621 103.118 72.4453 102.789C72.7285 102.46 73.0785 102.206 73.4951 102.027C73.9118 101.848 74.3903 101.759 74.9307 101.759C75.2855 101.759 75.6403 101.804 75.9951 101.896C76.3532 101.983 76.695 102.105 77.0205 102.262L76.5322 103.492C76.2653 103.365 75.9967 103.255 75.7266 103.16C75.4564 103.066 75.1911 103.019 74.9307 103.019ZM85.0549 105.421C85.0549 105.971 84.9865 106.472 84.8498 106.925C84.7131 107.374 84.5048 107.761 84.2248 108.087C83.9481 108.412 83.5965 108.663 83.1701 108.839C82.7437 109.011 82.2391 109.098 81.6564 109.098C81.0738 109.098 80.5692 109.011 80.1428 108.839C79.7163 108.663 79.3632 108.412 79.0832 108.087C78.8065 107.761 78.5998 107.372 78.4631 106.92C78.3264 106.467 78.258 105.965 78.258 105.411C78.258 104.672 78.3785 104.029 78.6193 103.482C78.8635 102.932 79.2378 102.506 79.7424 102.203C80.2469 101.9 80.8882 101.749 81.6662 101.749C82.441 101.749 83.0773 101.9 83.5754 102.203C84.0767 102.506 84.4478 102.932 84.6887 103.482C84.9328 104.033 85.0549 104.679 85.0549 105.421ZM79.8449 105.421C79.8449 105.919 79.9068 106.349 80.0305 106.71C80.1574 107.068 80.3544 107.345 80.6213 107.54C80.8882 107.732 81.2333 107.828 81.6564 107.828C82.0861 107.828 82.4344 107.732 82.7014 107.54C82.9683 107.345 83.162 107.068 83.2824 106.71C83.4061 106.349 83.468 105.919 83.468 105.421C83.468 104.672 83.328 104.083 83.048 103.653C82.7681 103.224 82.3075 103.009 81.6662 103.009C81.2398 103.009 80.8915 103.106 80.6213 103.302C80.3544 103.494 80.1574 103.771 80.0305 104.132C79.9068 104.49 79.8449 104.92 79.8449 105.421ZM93.1674 109H91.2436L88.1381 103.6H88.0941C88.1072 103.824 88.1186 104.05 88.1283 104.278C88.1381 104.506 88.1479 104.734 88.1576 104.962C88.1674 105.187 88.1771 105.413 88.1869 105.641V109H86.8344V101.861H88.7436L91.8441 107.208H91.8783C91.8718 106.987 91.8637 106.767 91.8539 106.549C91.8441 106.331 91.8344 106.113 91.8246 105.895C91.8181 105.676 91.8116 105.458 91.8051 105.24V101.861H93.1674V109ZM98.023 109H96.5094V103.121H94.5709V101.861H99.9615V103.121H98.023V109ZM101.36 109V101.861H102.874V109H101.36ZM111.304 109H109.38L106.274 103.6H106.23C106.243 103.824 106.255 104.05 106.265 104.278C106.274 104.506 106.284 104.734 106.294 104.962C106.304 105.187 106.313 105.413 106.323 105.641V109H104.971V101.861H106.88L109.98 107.208H110.015C110.008 106.987 110 106.767 109.99 106.549C109.98 106.331 109.971 106.113 109.961 105.895C109.954 105.676 109.948 105.458 109.941 105.24V101.861H111.304V109ZM119.216 101.861V106.48C119.216 106.972 119.107 107.416 118.889 107.813C118.674 108.207 118.347 108.52 117.907 108.751C117.471 108.982 116.921 109.098 116.257 109.098C115.313 109.098 114.594 108.857 114.099 108.375C113.604 107.893 113.357 107.255 113.357 106.461V101.861H114.865V106.231C114.865 106.821 114.986 107.234 115.227 107.472C115.468 107.709 115.824 107.828 116.296 107.828C116.628 107.828 116.897 107.771 117.102 107.657C117.31 107.543 117.463 107.368 117.561 107.13C117.658 106.892 117.707 106.59 117.707 106.222V101.861H119.216ZM125.375 109H121.264V101.861H125.375V103.102H122.778V104.669H125.195V105.909H122.778V107.75H125.375V109ZM133.092 105.362C133.092 106.166 132.938 106.839 132.629 107.379C132.323 107.916 131.878 108.321 131.296 108.595C130.713 108.865 130.011 109 129.191 109H127.17V101.861H129.411C130.159 101.861 130.809 101.995 131.359 102.262C131.909 102.525 132.336 102.918 132.638 103.438C132.941 103.956 133.092 104.597 133.092 105.362ZM131.52 105.401C131.52 104.874 131.442 104.441 131.286 104.103C131.133 103.761 130.905 103.508 130.602 103.346C130.303 103.183 129.932 103.102 129.489 103.102H128.683V107.75H129.333C130.072 107.75 130.62 107.553 130.978 107.159C131.339 106.765 131.52 106.179 131.52 105.401Z" fill="#F7F7F7"/>
</g>
<defs>
<clipPath id="clip0_1854_8247">
<rect width="160" height="160" rx="8" fill="white"/>
</clipPath>
</defs>
</svg>
