<svg width="900" height="350" viewBox="0 0 900 350" fill="none" xmlns="http://www.w3.org/2000/svg">
<g clip-path="url(#clip0_1839_11417)">
<rect width="900" height="350" fill="#FFF2D4"/>
<rect y="281" width="1500" height="69" fill="#9A9A9A"/>
<path d="M2.18557e-07 313.5C-1.38071 313.5 -2.5 314.619 -2.5 316C-2.5 317.381 -1.38071 318.5 -2.18557e-07 318.5L2.18557e-07 313.5ZM9.86842 318.5C11.2491 318.5 12.3684 317.381 12.3684 316C12.3684 314.619 11.2491 313.5 9.86842 313.5L9.86842 318.5ZM29.6053 313.5C28.2246 313.5 27.1053 314.619 27.1053 316C27.1053 317.381 28.2246 318.5 29.6053 318.5L29.6053 313.5ZM49.3421 318.5C50.7228 318.5 51.8421 317.381 51.8421 316C51.8421 314.619 50.7228 313.5 49.3421 313.5L49.3421 318.5ZM69.0789 313.5C67.6982 313.5 66.5789 314.619 66.5789 316C66.5789 317.381 67.6982 318.5 69.0789 318.5L69.0789 313.5ZM88.8158 318.5C90.1965 318.5 91.3158 317.381 91.3158 316C91.3158 314.619 90.1965 313.5 88.8158 313.5L88.8158 318.5ZM108.553 313.5C107.172 313.5 106.053 314.619 106.053 316C106.053 317.381 107.172 318.5 108.553 318.5L108.553 313.5ZM128.289 318.5C129.67 318.5 130.789 317.381 130.789 316C130.789 314.619 129.67 313.5 128.289 313.5L128.289 318.5ZM148.026 313.5C146.646 313.5 145.526 314.619 145.526 316C145.526 317.381 146.646 318.5 148.026 318.5L148.026 313.5ZM167.763 318.5C169.144 318.5 170.263 317.381 170.263 316C170.263 314.619 169.144 313.5 167.763 313.5L167.763 318.5ZM187.5 313.5C186.119 313.5 185 314.619 185 316C185 317.381 186.119 318.5 187.5 318.5L187.5 313.5ZM207.237 318.5C208.618 318.5 209.737 317.381 209.737 316C209.737 314.619 208.618 313.5 207.237 313.5L207.237 318.5ZM226.974 313.5C225.593 313.5 224.474 314.619 224.474 316C224.474 317.381 225.593 318.5 226.974 318.5L226.974 313.5ZM246.711 318.5C248.091 318.5 249.211 317.381 249.211 316C249.211 314.619 248.091 313.5 246.711 313.5L246.711 318.5ZM266.447 313.5C265.067 313.5 263.947 314.619 263.947 316C263.947 317.381 265.067 318.5 266.447 318.5L266.447 313.5ZM286.184 318.5C287.565 318.5 288.684 317.381 288.684 316C288.684 314.619 287.565 313.5 286.184 313.5L286.184 318.5ZM305.921 313.5C304.54 313.5 303.421 314.619 303.421 316C303.421 317.381 304.54 318.5 305.921 318.5L305.921 313.5ZM325.658 318.5C327.039 318.5 328.158 317.381 328.158 316C328.158 314.619 327.039 313.5 325.658 313.5L325.658 318.5ZM345.395 313.5C344.014 313.5 342.895 314.619 342.895 316C342.895 317.381 344.014 318.5 345.395 318.5L345.395 313.5ZM365.132 318.5C366.512 318.5 367.632 317.381 367.632 316C367.632 314.619 366.512 313.5 365.132 313.5L365.132 318.5ZM384.868 313.5C383.488 313.5 382.368 314.619 382.368 316C382.368 317.381 383.488 318.5 384.868 318.5L384.868 313.5ZM404.605 318.5C405.986 318.5 407.105 317.381 407.105 316C407.105 314.619 405.986 313.5 404.605 313.5L404.605 318.5ZM424.342 313.5C422.961 313.5 421.842 314.619 421.842 316C421.842 317.381 422.961 318.5 424.342 318.5L424.342 313.5ZM444.079 318.5C445.46 318.5 446.579 317.381 446.579 316C446.579 314.619 445.46 313.5 444.079 313.5L444.079 318.5ZM463.816 313.5C462.435 313.5 461.316 314.619 461.316 316C461.316 317.381 462.435 318.5 463.816 318.5L463.816 313.5ZM483.553 318.5C484.933 318.5 486.053 317.381 486.053 316C486.053 314.619 484.933 313.5 483.553 313.5L483.553 318.5ZM503.29 313.5C501.909 313.5 500.79 314.619 500.79 316C500.79 317.381 501.909 318.5 503.29 318.5L503.29 313.5ZM523.026 318.5C524.407 318.5 525.526 317.381 525.526 316C525.526 314.619 524.407 313.5 523.026 313.5L523.026 318.5ZM542.763 313.5C541.383 313.5 540.263 314.619 540.263 316C540.263 317.381 541.383 318.5 542.763 318.5L542.763 313.5ZM562.5 318.5C563.881 318.5 565 317.381 565 316C565 314.619 563.881 313.5 562.5 313.5L562.5 318.5ZM582.237 313.5C580.856 313.5 579.737 314.619 579.737 316C579.737 317.381 580.856 318.5 582.237 318.5L582.237 313.5ZM601.974 318.5C603.354 318.5 604.474 317.381 604.474 316C604.474 314.619 603.354 313.5 601.974 313.5L601.974 318.5ZM621.71 313.5C620.33 313.5 619.21 314.619 619.21 316C619.21 317.381 620.33 318.5 621.71 318.5L621.71 313.5ZM641.447 318.5C642.828 318.5 643.947 317.381 643.947 316C643.947 314.619 642.828 313.5 641.447 313.5L641.447 318.5ZM661.184 313.5C659.803 313.5 658.684 314.619 658.684 316C658.684 317.381 659.803 318.5 661.184 318.5L661.184 313.5ZM680.921 318.5C682.302 318.5 683.421 317.381 683.421 316C683.421 314.619 682.302 313.5 680.921 313.5L680.921 318.5ZM700.658 313.5C699.277 313.5 698.158 314.619 698.158 316C698.158 317.381 699.277 318.5 700.658 318.5L700.658 313.5ZM720.395 318.5C721.775 318.5 722.895 317.381 722.895 316C722.895 314.619 721.775 313.5 720.395 313.5L720.395 318.5ZM740.131 313.5C738.751 313.5 737.631 314.619 737.631 316C737.631 317.381 738.751 318.5 740.131 318.5L740.131 313.5ZM759.868 318.5C761.249 318.5 762.368 317.381 762.368 316C762.368 314.619 761.249 313.5 759.868 313.5L759.868 318.5ZM779.605 313.5C778.224 313.5 777.105 314.619 777.105 316C777.105 317.381 778.224 318.5 779.605 318.5L779.605 313.5ZM799.342 318.5C800.723 318.5 801.842 317.381 801.842 316C801.842 314.619 800.723 313.5 799.342 313.5L799.342 318.5ZM819.079 313.5C817.698 313.5 816.579 314.619 816.579 316C816.579 317.381 817.698 318.5 819.079 318.5L819.079 313.5ZM838.815 318.5C840.196 318.5 841.315 317.381 841.315 316C841.315 314.619 840.196 313.5 838.815 313.5L838.815 318.5ZM858.552 313.5C857.172 313.5 856.052 314.619 856.052 316C856.052 317.381 857.172 318.5 858.552 318.5L858.552 313.5ZM878.289 318.5C879.67 318.5 880.789 317.381 880.789 316C880.789 314.619 879.67 313.5 878.289 313.5L878.289 318.5ZM898.026 313.5C896.645 313.5 895.526 314.619 895.526 316C895.526 317.381 896.645 318.5 898.026 318.5L898.026 313.5ZM917.763 318.5C919.143 318.5 920.263 317.381 920.263 316C920.263 314.619 919.143 313.5 917.763 313.5L917.763 318.5ZM937.5 313.5C936.119 313.5 935 314.619 935 316C935 317.381 936.119 318.5 937.5 318.5L937.5 313.5ZM957.236 318.5C958.617 318.5 959.736 317.381 959.736 316C959.736 314.619 958.617 313.5 957.236 313.5L957.236 318.5ZM976.973 313.5C975.592 313.5 974.473 314.619 974.473 316C974.473 317.381 975.592 318.5 976.973 318.5L976.973 313.5ZM996.71 318.5C998.091 318.5 999.21 317.381 999.21 316C999.21 314.619 998.091 313.5 996.71 313.5L996.71 318.5ZM1016.45 313.5C1015.07 313.5 1013.95 314.619 1013.95 316C1013.95 317.381 1015.07 318.5 1016.45 318.5L1016.45 313.5ZM1036.18 318.5C1037.56 318.5 1038.68 317.381 1038.68 316C1038.68 314.619 1037.56 313.5 1036.18 313.5L1036.18 318.5ZM1055.92 313.5C1054.54 313.5 1053.42 314.619 1053.42 316C1053.42 317.381 1054.54 318.5 1055.92 318.5L1055.92 313.5ZM1075.66 318.5C1077.04 318.5 1078.16 317.381 1078.16 316C1078.16 314.619 1077.04 313.5 1075.66 313.5L1075.66 318.5ZM1095.39 313.5C1094.01 313.5 1092.89 314.619 1092.89 316C1092.89 317.381 1094.01 318.5 1095.39 318.5L1095.39 313.5ZM1115.13 318.5C1116.51 318.5 1117.63 317.381 1117.63 316C1117.63 314.619 1116.51 313.5 1115.13 313.5L1115.13 318.5ZM1134.87 313.5C1133.49 313.5 1132.37 314.619 1132.37 316C1132.37 317.381 1133.49 318.5 1134.87 318.5L1134.87 313.5ZM1154.6 318.5C1155.99 318.5 1157.1 317.381 1157.1 316C1157.1 314.619 1155.99 313.5 1154.6 313.5L1154.6 318.5ZM1174.34 313.5C1172.96 313.5 1171.84 314.619 1171.84 316C1171.84 317.381 1172.96 318.5 1174.34 318.5L1174.34 313.5ZM1194.08 318.5C1195.46 318.5 1196.58 317.381 1196.58 316C1196.58 314.619 1195.46 313.5 1194.08 313.5L1194.08 318.5ZM1213.81 313.5C1212.43 313.5 1211.31 314.619 1211.31 316C1211.31 317.381 1212.43 318.5 1213.81 318.5L1213.81 313.5ZM1233.55 318.5C1234.93 318.5 1236.05 317.381 1236.05 316C1236.05 314.619 1234.93 313.5 1233.55 313.5L1233.55 318.5ZM1253.29 313.5C1251.91 313.5 1250.79 314.619 1250.79 316C1250.79 317.381 1251.91 318.5 1253.29 318.5L1253.29 313.5ZM1273.03 318.5C1274.41 318.5 1275.53 317.381 1275.53 316C1275.53 314.619 1274.41 313.5 1273.03 313.5L1273.03 318.5ZM1292.76 313.5C1291.38 313.5 1290.26 314.619 1290.26 316C1290.26 317.381 1291.38 318.5 1292.76 318.5L1292.76 313.5ZM1312.5 318.5C1313.88 318.5 1315 317.381 1315 316C1315 314.619 1313.88 313.5 1312.5 313.5L1312.5 318.5ZM1332.24 313.5C1330.86 313.5 1329.74 314.619 1329.74 316C1329.74 317.381 1330.86 318.5 1332.24 318.5L1332.24 313.5ZM1351.97 318.5C1353.35 318.5 1354.47 317.381 1354.47 316C1354.47 314.619 1353.35 313.5 1351.97 313.5L1351.97 318.5ZM1371.71 313.5C1370.33 313.5 1369.21 314.619 1369.21 316C1369.21 317.381 1370.33 318.5 1371.71 318.5L1371.71 313.5ZM1391.45 318.5C1392.83 318.5 1393.95 317.381 1393.95 316C1393.95 314.619 1392.83 313.5 1391.45 313.5L1391.45 318.5ZM1411.18 313.5C1409.8 313.5 1408.68 314.619 1408.68 316C1408.68 317.381 1409.8 318.5 1411.18 318.5L1411.18 313.5ZM1430.92 318.5C1432.3 318.5 1433.42 317.381 1433.42 316C1433.42 314.619 1432.3 313.5 1430.92 313.5L1430.92 318.5ZM1450.66 313.5C1449.28 313.5 1448.16 314.619 1448.16 316C1448.16 317.381 1449.28 318.5 1450.66 318.5L1450.66 313.5ZM1470.39 318.5C1471.77 318.5 1472.89 317.381 1472.89 316C1472.89 314.619 1471.77 313.5 1470.39 313.5L1470.39 318.5ZM1490.13 313.5C1488.75 313.5 1487.63 314.619 1487.63 316C1487.63 317.381 1488.75 318.5 1490.13 318.5L1490.13 313.5ZM-2.18557e-07 318.5L9.86842 318.5L9.86842 313.5L2.18557e-07 313.5L-2.18557e-07 318.5ZM29.6053 318.5L49.3421 318.5L49.3421 313.5L29.6053 313.5L29.6053 318.5ZM69.0789 318.5L88.8158 318.5L88.8158 313.5L69.0789 313.5L69.0789 318.5ZM108.553 318.5L128.289 318.5L128.289 313.5L108.553 313.5L108.553 318.5ZM148.026 318.5L167.763 318.5L167.763 313.5L148.026 313.5L148.026 318.5ZM187.5 318.5L207.237 318.5L207.237 313.5L187.5 313.5L187.5 318.5ZM226.974 318.5L246.711 318.5L246.711 313.5L226.974 313.5L226.974 318.5ZM266.447 318.5L286.184 318.5L286.184 313.5L266.447 313.5L266.447 318.5ZM305.921 318.5L325.658 318.5L325.658 313.5L305.921 313.5L305.921 318.5ZM345.395 318.5L365.132 318.5L365.132 313.5L345.395 313.5L345.395 318.5ZM384.868 318.5L404.605 318.5L404.605 313.5L384.868 313.5L384.868 318.5ZM424.342 318.5L444.079 318.5L444.079 313.5L424.342 313.5L424.342 318.5ZM463.816 318.5L483.553 318.5L483.553 313.5L463.816 313.5L463.816 318.5ZM503.29 318.5L523.026 318.5L523.026 313.5L503.29 313.5L503.29 318.5ZM542.763 318.5L562.5 318.5L562.5 313.5L542.763 313.5L542.763 318.5ZM582.237 318.5L601.974 318.5L601.974 313.5L582.237 313.5L582.237 318.5ZM621.71 318.5L641.447 318.5L641.447 313.5L621.71 313.5L621.71 318.5ZM661.184 318.5L680.921 318.5L680.921 313.5L661.184 313.5L661.184 318.5ZM700.658 318.5L720.395 318.5L720.395 313.5L700.658 313.5L700.658 318.5ZM740.131 318.5L759.868 318.5L759.868 313.5L740.131 313.5L740.131 318.5ZM779.605 318.5L799.342 318.5L799.342 313.5L779.605 313.5L779.605 318.5ZM819.079 318.5L838.815 318.5L838.815 313.5L819.079 313.5L819.079 318.5ZM858.552 318.5L878.289 318.5L878.289 313.5L858.552 313.5L858.552 318.5ZM898.026 318.5L917.763 318.5L917.763 313.5L898.026 313.5L898.026 318.5ZM937.5 318.5L957.236 318.5L957.236 313.5L937.5 313.5L937.5 318.5ZM976.973 318.5L996.71 318.5L996.71 313.5L976.973 313.5L976.973 318.5ZM1016.45 318.5L1036.18 318.5L1036.18 313.5L1016.45 313.5L1016.45 318.5ZM1055.92 318.5L1075.66 318.5L1075.66 313.5L1055.92 313.5L1055.92 318.5ZM1095.39 318.5L1115.13 318.5L1115.13 313.5L1095.39 313.5L1095.39 318.5ZM1134.87 318.5L1154.6 318.5L1154.6 313.5L1134.87 313.5L1134.87 318.5ZM1174.34 318.5L1194.08 318.5L1194.08 313.5L1174.34 313.5L1174.34 318.5ZM1213.81 318.5L1233.55 318.5L1233.55 313.5L1213.81 313.5L1213.81 318.5ZM1253.29 318.5L1273.03 318.5L1273.03 313.5L1253.29 313.5L1253.29 318.5ZM1292.76 318.5L1312.5 318.5L1312.5 313.5L1292.76 313.5L1292.76 318.5ZM1332.24 318.5L1351.97 318.5L1351.97 313.5L1332.24 313.5L1332.24 318.5ZM1371.71 318.5L1391.45 318.5L1391.45 313.5L1371.71 313.5L1371.71 318.5ZM1411.18 318.5L1430.92 318.5L1430.92 313.5L1411.18 313.5L1411.18 318.5ZM1450.66 318.5L1470.39 318.5L1470.39 313.5L1450.66 313.5L1450.66 318.5ZM1490.13 318.5L1500 318.5L1500 313.5L1490.13 313.5L1490.13 318.5Z" fill="#FEC955"/>
<path fill-rule="evenodd" clip-rule="evenodd" d="M69.2143 85.4718C69.575 85.4905 69.9382 85.5 70.3036 85.5C81.7339 85.5 91 76.2339 91 64.8036C91 53.3732 81.7339 44.1071 70.3036 44.1071C69.1096 44.1071 67.9393 44.2082 66.8007 44.4023C62.2801 33.9737 51.8938 26.6786 39.8036 26.6786C37.3577 26.6786 34.9816 26.9771 32.7097 27.5398C27.3673 8.20076 9.64558 -6 -11.3929 -6C-34.9864 -6 -54.4087 11.8596 -56.8779 34.7971C-59.6781 33.7731 -62.7023 33.2143 -65.8571 33.2143C-80.2954 33.2143 -92 44.9188 -92 59.3571C-92 73.7954 -80.2954 85.5 -65.8571 85.5C-64.3726 85.5 -62.917 85.3763 -61.5 85.1385V85.5H-11.3929H39.8036H69.2143V85.4718Z" fill="white"/>
<path fill-rule="evenodd" clip-rule="evenodd" d="M294.993 47.515C295.259 47.5288 295.527 47.5357 295.796 47.5357C304.233 47.5357 311.072 40.6965 311.072 32.2598C311.072 23.8231 304.233 16.9839 295.796 16.9839C294.915 16.9839 294.051 17.0585 293.21 17.2019C289.873 9.50448 282.207 4.11986 273.283 4.11986C271.478 4.11986 269.725 4.34021 268.048 4.75548C264.104 -9.51852 251.024 -20 235.496 -20C218.081 -20 203.746 -6.81783 201.924 10.1123C199.857 9.35646 197.624 8.94399 195.296 8.94399C184.639 8.94399 176 17.5831 176 28.2399C176 38.8968 184.639 47.5358 195.296 47.5358C196.392 47.5358 197.467 47.4444 198.513 47.2688V47.5359H294.993V47.515Z" fill="white"/>
<path fill-rule="evenodd" clip-rule="evenodd" d="M757.208 64.5634H728.969C728.957 64.5634 728.944 64.5634 728.932 64.5634C728.92 64.5634 728.907 64.5634 728.895 64.5634H703.093C703.078 64.5634 703.064 64.5635 703.049 64.5635C703.034 64.5635 703.019 64.5634 703.004 64.5634H701.242V64.4562C693.783 63.5639 688 57.2147 688 49.5148C688 41.2037 694.738 34.4662 703.049 34.4662C703.403 34.4662 703.754 34.4784 704.101 34.5024C706.336 22.8249 716.603 14 728.932 14C740.558 14 750.351 21.8474 753.303 32.5343C754.559 32.2234 755.872 32.0583 757.224 32.0583C766.2 32.0583 773.476 39.3349 773.476 48.3109C773.476 56.6766 767.156 63.5661 759.029 64.4643V64.5634H757.24C757.234 64.5634 757.229 64.5634 757.224 64.5634C757.218 64.5634 757.213 64.5634 757.208 64.5634Z" fill="white"/>
<path fill-rule="evenodd" clip-rule="evenodd" d="M439.208 109.563H410.969C410.957 109.563 410.944 109.563 410.932 109.563C410.92 109.563 410.907 109.563 410.895 109.563H385.093C385.078 109.563 385.064 109.563 385.049 109.563C385.034 109.563 385.019 109.563 385.004 109.563H383.242V109.456C375.783 108.564 370 102.215 370 94.5148C370 86.2037 376.738 79.4662 385.049 79.4662C385.403 79.4662 385.754 79.4784 386.101 79.5024C388.336 67.8249 398.603 59 410.932 59C422.558 59 432.351 66.8474 435.303 77.5343C436.559 77.2234 437.872 77.0583 439.224 77.0583C448.2 77.0583 455.476 84.3349 455.476 93.3109C455.476 101.677 449.156 108.566 441.029 109.464V109.563H439.24C439.234 109.563 439.229 109.563 439.224 109.563C439.218 109.563 439.213 109.563 439.208 109.563Z" fill="white"/>
</g>
<defs>
<clipPath id="clip0_1839_11417">
<rect width="900" height="350" fill="white"/>
</clipPath>
</defs>
</svg>
