<svg width="900" height="350" viewBox="0 0 900 350" fill="none" xmlns="http://www.w3.org/2000/svg">
<g clip-path="url(#clip0_9994_5548)">
<rect width="900" height="350" fill="url(#paint0_linear_9994_5548)"/>
<rect x="-114" y="292.503" width="700" height="64.4493" transform="rotate(-35 -114 292.503)" fill="url(#paint1_linear_9994_5548)" fill-opacity="0.2"/>
<rect x="-57" y="284.146" width="600" height="60.9575" transform="rotate(-35 -57 284.146)" fill="url(#paint2_linear_9994_5548)" fill-opacity="0.34"/>
<rect x="-57" y="434.219" width="900" height="36.0241" transform="rotate(-35 -57 434.219)" fill="url(#paint3_linear_9994_5548)" fill-opacity="0.28"/>
<rect x="15" y="450.219" width="900" height="22.1527" transform="rotate(-35 15 450.219)" fill="url(#paint4_linear_9994_5548)" fill-opacity="0.3"/>
<rect x="167" y="415.219" width="900" height="9.3048" transform="rotate(-35 167 415.219)" fill="url(#paint5_linear_9994_5548)" fill-opacity="0.15"/>
<rect x="272" y="392.219" width="900" height="8" transform="rotate(-35 272 392.219)" fill="url(#paint6_linear_9994_5548)" fill-opacity="0.09"/>
<rect x="-195" y="259.503" width="700" height="20" transform="rotate(-35 -195 259.503)" fill="url(#paint7_linear_9994_5548)" fill-opacity="0.32"/>
<rect x="-171" y="308.503" width="700" height="8.28184" transform="rotate(-35 -171 308.503)" fill="url(#paint8_linear_9994_5548)" fill-opacity="0.26"/>
<rect x="-306" y="218.503" width="700" height="75.7492" transform="rotate(-35 -306 218.503)" fill="url(#paint9_linear_9994_5548)" fill-opacity="0.15"/>
<rect x="-180" y="55.959" width="380" height="8" transform="rotate(-35 -180 55.959)" fill="url(#paint10_linear_9994_5548)" fill-opacity="0.5"/>
<rect x="-254" y="132.503" width="700" height="8" transform="rotate(-35 -254 132.503)" fill="url(#paint11_linear_9994_5548)" fill-opacity="0.5"/>
</g>
<defs>
<linearGradient id="paint0_linear_9994_5548" x1="19.5" y1="17.5" x2="900" y2="350" gradientUnits="userSpaceOnUse">
<stop stop-color="#70A739"/>
<stop offset="1" stop-color="#C78A0C"/>
</linearGradient>
<linearGradient id="paint1_linear_9994_5548" x1="-114" y1="324.728" x2="586" y2="324.728" gradientUnits="userSpaceOnUse">
<stop offset="0.0616663" stop-color="#FED77F"/>
</linearGradient>
<linearGradient id="paint2_linear_9994_5548" x1="-57" y1="314.625" x2="543" y2="314.625" gradientUnits="userSpaceOnUse">
<stop offset="0.0616663" stop-color="#FED77F"/>
</linearGradient>
<linearGradient id="paint3_linear_9994_5548" x1="-57" y1="452.231" x2="843" y2="452.231" gradientUnits="userSpaceOnUse">
<stop offset="0.0616663" stop-color="#FED77F"/>
</linearGradient>
<linearGradient id="paint4_linear_9994_5548" x1="15" y1="461.295" x2="915" y2="461.295" gradientUnits="userSpaceOnUse">
<stop offset="0.0616663" stop-color="#FED77F"/>
</linearGradient>
<linearGradient id="paint5_linear_9994_5548" x1="167" y1="419.871" x2="1067" y2="419.871" gradientUnits="userSpaceOnUse">
<stop offset="0.0616663" stop-color="#FED77F"/>
</linearGradient>
<linearGradient id="paint6_linear_9994_5548" x1="272" y1="396.219" x2="1172" y2="396.219" gradientUnits="userSpaceOnUse">
<stop offset="0.0616663" stop-color="#FED77F"/>
</linearGradient>
<linearGradient id="paint7_linear_9994_5548" x1="-195" y1="269.503" x2="505" y2="269.503" gradientUnits="userSpaceOnUse">
<stop offset="0.0616663" stop-color="#FED77F"/>
</linearGradient>
<linearGradient id="paint8_linear_9994_5548" x1="-171" y1="312.644" x2="529" y2="312.644" gradientUnits="userSpaceOnUse">
<stop offset="0.0616663" stop-color="#FED77F"/>
</linearGradient>
<linearGradient id="paint9_linear_9994_5548" x1="-306" y1="256.378" x2="394" y2="256.378" gradientUnits="userSpaceOnUse">
<stop offset="0.0616663" stop-color="#FED77F"/>
</linearGradient>
<linearGradient id="paint10_linear_9994_5548" x1="-180" y1="59.959" x2="200" y2="59.959" gradientUnits="userSpaceOnUse">
<stop offset="0.0616663" stop-color="#FED77F"/>
</linearGradient>
<linearGradient id="paint11_linear_9994_5548" x1="-254" y1="136.503" x2="446" y2="136.503" gradientUnits="userSpaceOnUse">
<stop offset="0.0616663" stop-color="#FED77F"/>
</linearGradient>
<clipPath id="clip0_9994_5548">
<rect width="900" height="350" fill="white"/>
</clipPath>
</defs>
</svg>
