<svg width="1500" height="350" viewBox="0 0 1500 350" fill="none" xmlns="http://www.w3.org/2000/svg">
<g clip-path="url(#clip0_1369_1623)">
<rect width="1500" height="350" fill="#FCE9CD"/>
<g opacity="0.38">
<path fill-rule="evenodd" clip-rule="evenodd" d="M833.464 18.1761L848.621 23.3012C849.663 23.6536 850.227 24.7945 849.875 25.8365L846.372 36.1954C846.959 34.4074 846.785 32.5495 846.026 30.9752L846.058 30.8797L845.963 30.8474C845.163 29.2711 843.77 27.9946 841.963 27.3837C840.156 26.7727 838.274 26.9414 836.681 27.709L836.585 27.6765L836.553 27.7726C834.977 28.5723 833.7 29.9659 833.089 31.7726C832.478 33.5792 832.647 35.4614 833.415 37.0537L833.382 37.1495L833.478 37.182C834.272 38.7475 835.652 40.0172 837.441 40.6331L827.058 37.1222C826.016 36.7699 825.451 35.629 825.804 34.5869L830.929 19.43C831.281 18.388 832.422 17.8237 833.464 18.1761ZM827.698 35.2276L831.488 36.5089L832.769 32.7197L828.98 31.4384L827.698 35.2276ZM829.62 29.5437L833.409 30.825L834.691 27.0358L830.902 25.7545L829.62 29.5437ZM831.542 23.8599L835.331 25.1412L836.613 21.352L832.823 20.0707L831.542 23.8599ZM837.226 25.7818L841.015 27.0631L842.297 23.2739L838.507 21.9926L837.226 25.7818ZM842.91 27.7038L846.699 28.9851L847.98 25.1959L844.191 23.9146L842.91 27.7038Z" fill="#EDA768"/>
<rect x="835.375" y="33.9175" width="2.15921" height="2.15921" transform="rotate(-26.3174 835.375 33.9175)" fill="#EDA768"/>
<rect x="840.214" y="31.5249" width="2.15921" height="2.15921" transform="rotate(-26.3174 840.214 31.5249)" fill="#EDA768"/>
<path fill-rule="evenodd" clip-rule="evenodd" d="M835.375 33.918L837.311 32.9607L838.265 34.8896L836.329 35.8468L835.375 33.918ZM836.772 36.7432L837.529 38.2727C838.454 40.1432 840.721 40.9096 842.591 39.9844C844.462 39.0592 845.228 36.7928 844.303 34.9222L843.546 33.3927L841.611 34.35L842.368 35.8795C842.764 36.6811 842.436 37.6525 841.634 38.049C840.832 38.4455 839.861 38.1171 839.464 37.3154L838.708 35.7859L836.772 36.7432ZM841.168 33.4537L843.103 32.4964L842.149 30.5675L840.214 31.5248L841.168 33.4537Z" fill="#EDA768"/>
<path d="M837.199 32.1062L837.292 31.8287C837.438 31.3998 837.747 31.0461 838.153 30.8454V30.8454C838.559 30.6446 839.028 30.6133 839.456 30.7584L839.734 30.8522" stroke="#EDA768"/>
<path d="M835.304 31.4656L835.492 30.9107C835.782 30.0529 836.401 29.3455 837.212 28.944V28.944C838.024 28.5426 838.962 28.48 839.82 28.77L840.375 28.9577" stroke="#EDA768"/>
<g clip-path="url(#clip1_1369_1623)">
<path fill-rule="evenodd" clip-rule="evenodd" d="M935.678 74.9067L940.483 60.6971L942.377 61.3378L937.572 75.5474L935.678 74.9067Z" fill="#EDA768"/>
<path d="M933.967 54.0219C933.211 53.7664 932.53 53.8535 931.923 54.2833C931.317 54.7087 930.843 55.4286 930.5 56.4432C929.786 58.5543 930.221 59.8777 931.806 60.4134C932.47 60.6383 933.332 60.7443 934.39 60.7316L933.82 62.4153C932.934 62.4763 932.011 62.3448 931.053 62.0207C929.676 61.555 928.763 60.7822 928.315 59.7023C927.869 58.618 927.91 57.2945 928.438 55.7317C928.771 54.7474 929.242 53.9467 929.85 53.3296C930.459 52.7082 931.165 52.3143 931.967 52.1477C932.774 51.9782 933.63 52.046 934.532 52.3511C935.451 52.6621 936.3 53.1968 937.078 53.9554L935.879 55.3683C935.581 55.0802 935.275 54.813 934.959 54.5666C934.643 54.3202 934.312 54.1387 933.967 54.0219Z" fill="#EDA768"/>
<path fill-rule="evenodd" clip-rule="evenodd" d="M940.148 64.8064C937.959 64.0662 935.826 65.101 935.238 66.8407C934.65 68.5804 935.717 70.6974 937.906 71.4376C940.095 72.1778 942.228 71.143 942.817 69.4033C943.405 67.6636 942.338 65.5467 940.148 64.8064ZM933.343 66.2001C934.347 63.2311 937.746 61.8829 940.789 62.9118C943.832 63.9407 945.715 67.075 944.711 70.044C943.707 73.0129 940.308 74.3611 937.266 73.3322C934.223 72.3033 932.34 69.169 933.343 66.2001Z" fill="#EDA768"/>
</g>
<g clip-path="url(#clip2_1369_1623)">
<path d="M1038.46 98.0431L1042.92 99.5565L1041.41 104.017L1040.31 101.778L1031.34 106.213L1030.6 104.72L1039.57 100.283L1038.46 98.0431Z" fill="#EDA768"/>
<path d="M1041.02 90.4648L1045.48 91.9782L1043.98 96.4391L1042.87 94.1992L1025.03 103.024L1024.29 101.53L1042.13 92.7047L1041.02 90.4648Z" fill="#EDA768"/>
<path d="M1033.76 86.9542L1038.22 88.4677L1036.72 92.9286L1035.61 90.6886L1026.64 95.1242L1025.9 93.6309L1034.87 89.1941L1033.76 86.9542Z" fill="#EDA768"/>
</g>
<g clip-path="url(#clip3_1369_1623)">
<path d="M1123.27 128.909L1126.11 129.869L1128.8 126.592L1128.81 134.372L1131.75 128.787L1134.7 123.203L1131.94 139.16L1138.78 128.28L1139.55 133.817L1142.39 134.778" stroke="#EDA768" stroke-width="2" stroke-linejoin="round"/>
<rect width="2" height="4" transform="matrix(-0.947308 -0.320325 -0.320325 0.947308 1146.08 123.884)" fill="#EDA768"/>
<rect width="2" height="2" transform="matrix(-0.947308 -0.320325 -0.320325 0.947308 1142.59 124.817)" fill="#EDA768"/>
<rect width="2" height="1" transform="matrix(-0.947308 -0.320325 -0.320325 0.947308 1139.43 124.804)" fill="#EDA768"/>
</g>
<g clip-path="url(#clip4_1369_1623)">
<path d="M1230.69 154.608L1230.41 155.451L1231.66 157.986L1232.59 155.248L1236.38 156.53L1235.1 160.319L1232.36 159.393L1233.61 161.928L1234.46 162.213L1234.17 163.056L1235.42 165.592L1236.35 162.854L1240.14 164.135L1238.86 167.925L1236.12 166.999L1237.37 169.534L1238.22 169.819L1237.93 170.662L1239.19 173.198L1243.96 159.092C1244.31 158.05 1243.74 156.909 1242.7 156.557L1228.6 151.787L1229.85 154.323L1230.69 154.608ZM1238.27 157.17L1242.06 158.451L1240.78 162.241L1236.99 160.959L1238.27 157.17ZM1225.37 149.787L1223.58 150.671L1224.83 153.207L1219.88 167.843C1219.53 168.885 1220.1 170.025 1221.14 170.378L1235.77 175.327L1237.03 177.875L1238.82 176.991L1225.37 149.787ZM1229.85 163.348L1230.76 165.186L1229.38 164.721L1229.85 163.348ZM1226.09 155.742L1227 157.58L1225.62 157.116L1226.09 155.742ZM1225.57 169.765L1221.78 168.483L1223.06 164.694L1226.85 165.975L1225.57 169.765ZM1227.49 164.081L1223.7 162.799L1224.98 159.01L1228.25 160.115L1228.6 160.812L1227.49 164.081ZM1231.25 171.686L1227.46 170.405L1228.74 166.616L1232.01 167.721L1232.36 168.418L1231.25 171.686ZM1233.15 172.327L1233.61 170.954L1234.52 172.792L1233.15 172.327Z" fill="#EDA768"/>
</g>
<path d="M1422.37 218.366L1419.81 225.944C1419.61 226.513 1419.87 227.02 1420.43 227.212L1438.77 229.188C1439.34 229.381 1439.84 229.13 1440.03 228.561L1441.32 224.772C1441.51 224.204 1441.26 223.697 1440.69 223.505L1423.64 217.739C1423.07 217.547 1422.56 217.797 1422.37 218.366ZM1438.46 226.974L1422.02 225.638L1423.94 219.954L1439.1 225.079L1438.46 226.974Z" fill="#EDA768"/>
<path fill-rule="evenodd" clip-rule="evenodd" d="M1429.51 230.544C1429.65 230.793 1429.68 231.091 1429.59 231.362L1427.02 238.941C1426.85 239.464 1426.28 239.745 1425.76 239.568L1417.23 236.685C1416.71 236.508 1416.43 235.941 1416.6 235.417L1418.85 228.786C1419.01 228.308 1419.5 228.026 1419.99 228.127L1428.84 230.062C1429.12 230.12 1429.36 230.295 1429.51 230.544ZM1420.46 230.263L1418.82 235.111L1425.45 237.353L1427.33 231.795L1420.46 230.263Z" fill="#EDA768"/>
<path fill-rule="evenodd" clip-rule="evenodd" d="M1438.61 231.434C1438.8 231.698 1438.86 232.04 1438.75 232.351L1435.55 241.824C1435.37 242.347 1434.81 242.628 1434.28 242.451L1429.55 240.849C1429.02 240.672 1428.74 240.105 1428.92 239.582L1431.64 231.529C1431.78 231.135 1432.14 230.864 1432.56 230.85L1437.77 231.031C1438.1 231.02 1438.41 231.171 1438.61 231.434ZM1433.31 232.827L1431.13 239.275L1433.98 240.236L1436.4 233.077L1433.31 232.827Z" fill="#EDA768"/>
<path fill-rule="evenodd" clip-rule="evenodd" d="M1320.32 196.384C1320.59 195.583 1319.92 194.796 1319.15 195.141C1317.68 195.8 1316.47 197.048 1315.91 198.697C1314.85 201.836 1316.54 205.241 1319.68 206.303C1322.82 207.364 1326.22 205.68 1327.28 202.541C1327.84 200.892 1327.64 199.169 1326.87 197.751C1326.46 197.008 1325.46 197.23 1325.19 198.031C1325.08 198.354 1325.13 198.704 1325.26 199.015C1325.65 199.896 1325.72 200.918 1325.39 201.9C1324.68 203.993 1322.41 205.116 1320.32 204.408C1318.22 203.7 1317.1 201.43 1317.81 199.338C1318.14 198.355 1318.82 197.587 1319.66 197.121C1319.96 196.956 1320.21 196.707 1320.32 196.384Z" fill="#EDA768"/>
<rect x="1322.89" y="193.667" width="2" height="6" rx="1" transform="rotate(18.6826 1322.89 193.667)" fill="#EDA768"/>
<path fill-rule="evenodd" clip-rule="evenodd" d="M1328.59 192.427C1328.07 192.25 1327.5 192.531 1327.32 193.054L1326.59 195.223C1327.21 195.658 1327.74 196.185 1328.18 196.778L1329.22 193.695C1329.39 193.171 1329.11 192.604 1328.59 192.427Z" fill="#EDA768"/>
<path fill-rule="evenodd" clip-rule="evenodd" d="M1333.66 189.919C1333.14 189.742 1332.57 190.023 1332.39 190.546L1331.66 192.715C1332.28 193.15 1332.81 193.677 1333.25 194.27L1334.29 191.186C1334.47 190.663 1334.18 190.096 1333.66 189.919Z" fill="#EDA768"/>
<path fill-rule="evenodd" clip-rule="evenodd" d="M1333.54 202.165C1335.16 201.551 1336.51 200.244 1337.1 198.473C1337.66 196.824 1337.46 195.101 1336.69 193.683C1336.29 192.94 1335.28 193.162 1335.01 193.963C1334.9 194.286 1334.95 194.636 1335.08 194.948C1335.47 195.828 1335.54 196.85 1335.21 197.833C1335.07 198.259 1334.86 198.646 1334.6 198.985C1334.55 199.548 1334.44 200.114 1334.25 200.674C1334.07 201.209 1333.83 201.707 1333.54 202.165Z" fill="#EDA768"/>
</g>
<g opacity="0.38">
<g clip-path="url(#clip5_1369_1623)">
<path d="M829.413 143.857L818.393 132.741L816.499 132.101L811.897 145.71L810.002 145.069L811.84 148.999L815.686 146.991L813.791 146.35L817.592 135.11L821.528 139.079L818.528 147.952L816.633 147.311L818.471 151.241L822.317 149.233L820.423 148.593L823.137 140.564L827.058 144.577L825.159 150.194L823.264 149.554L825.103 153.483L828.948 151.476L827.054 150.835L829.413 143.857Z" fill="#EDA768"/>
<path d="M832.457 134.858L830.563 134.217L828.641 139.901L830.535 140.542L832.457 134.858Z" fill="#EDA768"/>
<path d="M833.071 139.288L833.711 137.393L828.027 135.471L827.387 137.366L833.071 139.288Z" fill="#EDA768"/>
</g>
<path d="M913.605 163.353L911.043 170.932C910.851 171.5 911.101 172.007 911.67 172.199L930.003 174.176C930.571 174.368 931.078 174.117 931.27 173.549L932.552 169.76C932.744 169.191 932.493 168.684 931.925 168.492L914.873 162.726C914.305 162.534 913.798 162.785 913.605 163.353ZM929.696 171.961L913.258 170.625L915.18 164.941L930.337 170.066L929.696 171.961Z" fill="#EDA768"/>
<path fill-rule="evenodd" clip-rule="evenodd" d="M920.743 175.532C920.885 175.78 920.915 176.078 920.823 176.35L918.26 183.929C918.083 184.452 917.516 184.732 916.993 184.555L908.467 181.673C907.944 181.496 907.663 180.928 907.84 180.405L910.082 173.774C910.244 173.296 910.736 173.013 911.23 173.114L920.076 175.05C920.357 175.107 920.6 175.283 920.743 175.532ZM911.694 175.251L910.055 180.098L916.686 182.341L918.565 176.782L911.694 175.251Z" fill="#EDA768"/>
<path fill-rule="evenodd" clip-rule="evenodd" d="M929.845 176.422C930.04 176.685 930.094 177.028 929.989 177.339L926.786 186.812C926.609 187.335 926.042 187.615 925.519 187.439L920.782 185.837C920.259 185.66 919.978 185.093 920.155 184.569L922.878 176.517C923.011 176.122 923.376 175.852 923.792 175.838L929.009 176.019C929.337 176.008 929.649 176.159 929.845 176.422ZM924.55 177.814L922.37 184.263L925.212 185.224L927.633 178.065L924.55 177.814Z" fill="#EDA768"/>
<path fill-rule="evenodd" clip-rule="evenodd" d="M1012.36 206.669C1012.63 205.868 1011.97 205.081 1011.2 205.426C1009.72 206.085 1008.52 207.333 1007.96 208.982C1006.9 212.121 1008.58 215.526 1011.72 216.588C1014.86 217.649 1018.27 215.965 1019.33 212.826C1019.89 211.176 1019.69 209.454 1018.92 208.036C1018.51 207.293 1017.51 207.515 1017.23 208.316C1017.13 208.638 1017.17 208.989 1017.31 209.3C1017.7 210.181 1017.77 211.203 1017.43 212.185C1016.73 214.278 1014.46 215.401 1012.36 214.693C1010.27 213.985 1009.15 211.715 1009.86 209.623C1010.19 208.64 1010.86 207.872 1011.7 207.406C1012 207.241 1012.25 206.992 1012.36 206.669Z" fill="#EDA768"/>
<rect x="1014.94" y="203.952" width="2" height="6" rx="1" transform="rotate(18.6826 1014.94 203.952)" fill="#EDA768"/>
<path fill-rule="evenodd" clip-rule="evenodd" d="M1020.64 202.712C1020.11 202.535 1019.55 202.816 1019.37 203.339L1018.64 205.508C1019.25 205.943 1019.78 206.47 1020.22 207.063L1021.26 203.98C1021.44 203.456 1021.16 202.889 1020.64 202.712Z" fill="#EDA768"/>
<path fill-rule="evenodd" clip-rule="evenodd" d="M1025.71 200.204C1025.18 200.027 1024.62 200.307 1024.44 200.831L1023.71 203C1024.32 203.435 1024.85 203.962 1025.29 204.555L1026.33 201.471C1026.51 200.948 1026.23 200.381 1025.71 200.204Z" fill="#EDA768"/>
<path fill-rule="evenodd" clip-rule="evenodd" d="M1025.59 212.449C1027.21 211.836 1028.55 210.529 1029.15 208.758C1029.71 207.109 1029.51 205.386 1028.74 203.968C1028.33 203.225 1027.33 203.447 1027.06 204.248C1026.95 204.571 1026.99 204.921 1027.13 205.233C1027.52 206.113 1027.59 207.135 1027.26 208.118C1027.11 208.544 1026.9 208.931 1026.64 209.269C1026.6 209.833 1026.48 210.399 1026.29 210.959C1026.11 211.493 1025.87 211.992 1025.59 212.449Z" fill="#EDA768"/>
<path fill-rule="evenodd" clip-rule="evenodd" d="M1112.86 229.675L1128.02 234.8C1129.06 235.153 1129.62 236.294 1129.27 237.336L1125.77 247.689C1126.36 245.902 1126.18 244.047 1125.42 242.474L1125.46 242.379L1125.36 242.346C1124.56 240.77 1123.17 239.494 1121.36 238.883C1119.55 238.272 1117.67 238.441 1116.08 239.208L1115.98 239.175L1115.95 239.272C1114.37 240.071 1113.1 241.465 1112.49 243.272C1111.88 245.078 1112.04 246.96 1112.81 248.553L1112.78 248.649L1112.88 248.681C1113.67 250.245 1115.05 251.514 1116.83 252.131L1106.46 248.621C1105.41 248.269 1104.85 247.128 1105.2 246.086L1110.33 230.929C1110.68 229.887 1111.82 229.323 1112.86 229.675ZM1107.1 246.727L1110.88 248.008L1112.17 244.219L1108.38 242.937L1107.1 246.727ZM1109.02 241.043L1112.81 242.324L1114.09 238.535L1110.3 237.254L1109.02 241.043ZM1110.94 235.359L1114.73 236.64L1116.01 232.851L1112.22 231.57L1110.94 235.359ZM1116.62 237.281L1120.41 238.562L1121.69 234.773L1117.9 233.492L1116.62 237.281ZM1122.31 239.203L1126.1 240.484L1127.38 236.695L1123.59 235.414L1122.31 239.203Z" fill="#EDA768"/>
<rect x="1114.77" y="245.416" width="2.15921" height="2.15921" transform="rotate(-26.3174 1114.77 245.416)" fill="#EDA768"/>
<rect x="1119.61" y="243.024" width="2.15921" height="2.15921" transform="rotate(-26.3174 1119.61 243.024)" fill="#EDA768"/>
<path fill-rule="evenodd" clip-rule="evenodd" d="M1114.77 245.416L1116.71 244.459L1117.66 246.388L1115.73 247.346L1114.77 245.416ZM1116.17 248.242L1116.93 249.771C1117.85 251.642 1120.12 252.408 1121.99 251.483C1123.86 250.557 1124.62 248.291 1123.7 246.42L1122.94 244.891L1121.01 245.849L1121.76 247.378C1122.16 248.179 1121.83 249.151 1121.03 249.547C1120.23 249.944 1119.26 249.615 1118.86 248.814L1118.1 247.285L1116.17 248.242ZM1120.56 244.952L1122.5 243.995L1121.55 242.066L1119.61 243.023L1120.56 244.952Z" fill="#EDA768"/>
<path d="M1116.6 243.605L1116.69 243.327C1116.83 242.898 1117.14 242.545 1117.55 242.344V242.344C1117.96 242.143 1118.42 242.112 1118.85 242.257L1119.13 242.351" stroke="#EDA768"/>
<path d="M1114.7 242.965L1114.89 242.41C1115.18 241.552 1115.8 240.845 1116.61 240.443V240.443C1117.42 240.042 1118.36 239.979 1119.22 240.269L1119.77 240.457" stroke="#EDA768"/>
<g clip-path="url(#clip6_1369_1623)">
<path d="M1221.37 286.533L1227.13 269.483C1227.13 269.483 1227.13 269.482 1227.13 269.482L1221.45 267.561C1221.45 267.561 1221.45 267.561 1221.45 267.561L1215.68 284.611C1215.68 284.612 1215.68 284.612 1215.68 284.612L1221.37 286.534C1221.37 286.534 1221.37 286.534 1221.37 286.533Z" stroke="#EDA768" stroke-width="2" stroke-miterlimit="10"/>
<path d="M1210 282.689L1215.76 265.64C1215.76 265.639 1215.76 265.639 1215.76 265.638L1210.08 263.717C1210.08 263.717 1210.08 263.717 1210.08 263.718L1204.32 280.767C1204.31 280.768 1204.32 280.768 1204.32 280.769L1210 282.69C1210 282.69 1210 282.69 1210 282.689Z" stroke="#EDA768" stroke-width="2" stroke-miterlimit="10"/>
<path d="M1218.96 265.551L1212.52 284.597" stroke="#EDA768" stroke-width="2" stroke-miterlimit="10" stroke-linecap="round" stroke-dasharray="3 3"/>
</g>
<g clip-path="url(#clip7_1369_1623)">
<path d="M1313.05 299.478L1312.76 300.321L1314.02 302.857L1314.94 300.119L1318.73 301.4L1317.45 305.189L1314.71 304.264L1315.97 306.799L1316.81 307.084L1316.53 307.927L1317.78 310.462L1318.71 307.725L1322.5 309.006L1321.21 312.795L1318.48 311.869L1319.73 314.405L1320.57 314.69L1320.29 315.533L1321.54 318.068L1326.31 303.963C1326.66 302.921 1326.1 301.78 1325.06 301.427L1310.95 296.658L1312.21 299.193L1313.05 299.478ZM1320.63 302.041L1324.42 303.322L1323.14 307.111L1319.35 305.83L1320.63 302.041ZM1307.72 294.658L1305.94 295.542L1307.19 298.077L1302.24 312.713C1301.89 313.755 1302.45 314.896 1303.49 315.248L1318.13 320.197L1319.39 322.745L1321.18 321.861L1307.72 294.658ZM1312.21 308.218L1313.11 310.056L1311.74 309.592L1312.21 308.218ZM1308.44 300.613L1309.35 302.451L1307.98 301.986L1308.44 300.613ZM1307.92 314.635L1304.14 313.354L1305.42 309.565L1309.21 310.846L1307.92 314.635ZM1309.85 308.951L1306.06 307.67L1307.34 303.881L1310.61 304.986L1310.95 305.683L1309.85 308.951ZM1313.61 316.557L1309.82 315.276L1311.1 311.487L1314.37 312.592L1314.71 313.289L1313.61 316.557ZM1315.5 317.198L1315.97 315.824L1316.88 317.662L1315.5 317.198Z" fill="#EDA768"/>
</g>
</g>
<g opacity="0.38">
<path fill-rule="evenodd" clip-rule="evenodd" d="M371.616 -2.50635C371.887 -3.30765 371.222 -4.0947 370.45 -3.74941C368.977 -3.09059 367.772 -1.84284 367.214 -0.193421C366.153 2.94568 367.837 6.35091 370.976 7.41238C374.115 8.47384 377.52 6.78958 378.582 3.65048C379.14 2.00154 378.939 0.27916 378.169 -1.13836C377.765 -1.88165 376.759 -1.65959 376.488 -0.858147C376.379 -0.53595 376.427 -0.185767 376.563 0.125817C376.948 1.00631 377.019 2.02761 376.687 3.00983C375.98 5.10256 373.71 6.2254 371.617 5.51776C369.524 4.81012 368.401 2.53996 369.109 0.447229C369.441 -0.535316 370.118 -1.30406 370.959 -1.76995C371.256 -1.9348 371.507 -2.18408 371.616 -2.50635Z" fill="#EDA768"/>
<rect x="374.193" y="-5.22302" width="2" height="6" rx="1" transform="rotate(18.6826 374.193 -5.22302)" fill="#EDA768"/>
<path fill-rule="evenodd" clip-rule="evenodd" d="M379.77 5.78073C381.39 5.16714 382.734 3.85978 383.332 2.08999C383.89 0.440816 383.69 -1.28182 382.919 -2.69945C382.515 -3.44263 381.509 -3.22054 381.238 -2.41917C381.129 -2.09693 381.177 -1.74671 381.313 -1.4351C381.699 -0.55451 381.77 0.466965 381.438 1.44934C381.294 1.87563 381.085 2.26167 380.825 2.6002C380.781 3.16387 380.666 3.73118 380.477 4.29123C380.296 4.82539 380.057 5.32345 379.77 5.78073Z" fill="#EDA768"/>
<path fill-rule="evenodd" clip-rule="evenodd" d="M472.114 20.499L487.271 25.6242C488.313 25.9766 488.877 27.1175 488.525 28.1595L483.399 43.3164C483.399 43.3184 483.398 43.3204 483.397 43.3223L485.001 38.5799C485.612 36.7731 485.443 34.8907 484.676 33.2984L484.708 33.2027L484.612 33.1704C483.813 31.5939 482.419 30.3174 480.612 29.7065C478.805 29.0955 476.923 29.2642 475.331 30.0318L475.235 29.9995L475.203 30.0951C473.626 30.8948 472.35 32.2885 471.739 34.0953C471.128 35.9022 471.297 37.7845 472.064 39.3768L472.032 39.4725L472.127 39.5049C472.927 41.0813 474.321 42.3578 476.128 42.9688L480.869 44.5722C480.868 44.5716 480.866 44.571 480.864 44.5704L465.707 39.4452C464.665 39.0928 464.101 37.952 464.453 36.9099L469.579 21.753C469.931 20.711 471.072 20.1467 472.114 20.499ZM466.348 37.5506L470.137 38.8319L471.418 35.0427L467.629 33.7614L466.348 37.5506ZM468.27 31.8667L472.059 33.148L473.34 29.3588L469.551 28.0775L468.27 31.8667ZM470.192 26.1829L473.981 27.4642L475.262 23.675L471.473 22.3937L470.192 26.1829ZM475.876 28.1048L479.665 29.3861L480.946 25.5969L477.157 24.3156L475.876 28.1048ZM481.56 30.0268L485.349 31.3081L486.63 27.5189L482.841 26.2376L481.56 30.0268Z" fill="#EDA768"/>
<rect x="474.024" y="36.24" width="2.15921" height="2.15921" transform="rotate(-26.3174 474.024 36.24)" fill="#EDA768"/>
<rect x="478.862" y="33.847" width="2.15921" height="2.15921" transform="rotate(-26.3174 478.862 33.847)" fill="#EDA768"/>
<path fill-rule="evenodd" clip-rule="evenodd" d="M474.024 36.24L475.959 35.2827L476.913 37.2116L474.978 38.1689L474.024 36.24ZM475.421 39.0652L476.177 40.5947C477.103 42.4652 479.369 43.2316 481.24 42.3064C483.11 41.3812 483.877 39.1148 482.951 37.2442L482.195 35.7148L480.26 36.672L481.016 38.2015C481.413 39.0032 481.084 39.9745 480.282 40.371C479.481 40.7675 478.509 40.4391 478.113 39.6374L477.356 38.1079L475.421 39.0652ZM479.816 35.7757L481.752 34.8184L480.798 32.8895L478.862 33.8468L479.816 35.7757Z" fill="#EDA768"/>
<path d="M475.848 34.4289L475.942 34.1515C476.087 33.7226 476.396 33.3688 476.802 33.1681V33.1681C477.208 32.9674 477.677 32.9361 478.106 33.0811L478.383 33.175" stroke="#EDA768"/>
<path d="M473.953 33.7881L474.141 33.2332C474.431 32.3754 475.05 31.668 475.861 31.2665V31.2665C476.673 30.8651 477.611 30.8025 478.469 31.0926L479.024 31.2802" stroke="#EDA768"/>
<g clip-path="url(#clip8_1369_1623)">
<path d="M580.619 77.3572L586.384 60.3076C586.384 60.3071 586.384 60.3065 586.384 60.3063L580.702 58.385C580.701 58.3848 580.701 58.3851 580.7 58.3856L574.935 75.4353C574.935 75.4358 574.935 75.4364 574.936 75.4366L580.618 77.3579C580.618 77.358 580.619 77.3578 580.619 77.3572Z" stroke="#EDA768" stroke-width="2" stroke-miterlimit="10"/>
<path d="M569.251 73.5126L575.016 56.463C575.016 56.4625 575.016 56.4619 575.015 56.4617L569.333 54.5404C569.333 54.5402 569.332 54.5405 569.332 54.541L563.567 71.5907C563.567 71.5912 563.567 71.5918 563.567 71.5919L569.249 73.5133C569.25 73.5134 569.25 73.5132 569.251 73.5126Z" stroke="#EDA768" stroke-width="2" stroke-miterlimit="10"/>
<path d="M578.212 56.3751L571.772 75.4217" stroke="#EDA768" stroke-width="2" stroke-miterlimit="10" stroke-linecap="round" stroke-dasharray="3 3"/>
</g>
<g clip-path="url(#clip9_1369_1623)">
<path d="M672.303 90.3027L672.018 91.1458L673.272 93.681L674.198 90.9433L677.987 92.2246L676.705 96.0138L673.968 95.0881L675.222 97.6234L676.065 97.9085L675.78 98.7516L677.034 101.287L677.959 98.5491L681.749 99.8304L680.467 103.62L677.73 102.694L678.984 105.229L679.827 105.514L679.542 106.357L680.796 108.893L685.565 94.7872C685.918 93.7452 685.353 92.6043 684.311 92.2519L670.206 87.4823L671.46 90.0176L672.303 90.3027ZM679.881 92.8653L683.671 94.1466L682.389 97.9358L678.6 96.6545L679.881 92.8653ZM666.976 85.4824L665.189 86.3665L666.443 88.9017L661.494 103.538C661.141 104.58 661.706 105.721 662.748 106.073L677.384 111.022L678.644 113.57L680.431 112.686L666.976 85.4824ZM671.459 99.0428L672.368 100.881L670.994 100.416L671.459 99.0428ZM667.697 91.437L668.606 93.2751L667.232 92.8106L667.697 91.437ZM667.178 105.46L663.388 104.178L664.67 100.389L668.459 101.67L667.178 105.46ZM669.1 99.7757L665.31 98.4944L666.592 94.7052L669.86 95.8103L670.205 96.5075L669.1 99.7757ZM672.862 107.382L669.072 106.1L670.354 102.311L673.622 103.416L673.967 104.113L672.862 107.382ZM674.756 108.022L675.221 106.649L676.13 108.487L674.756 108.022Z" fill="#EDA768"/>
</g>
</g>
<g opacity="0.38">
<path fill-rule="evenodd" clip-rule="evenodd" d="M111.556 34.0219L126.713 39.1471C127.755 39.4994 128.319 40.6403 127.967 41.6823L122.841 56.8393C122.841 56.841 122.84 56.8428 122.84 56.8445L124.443 52.1027C125.054 50.2959 124.885 48.4136 124.118 46.8213L124.15 46.7255L124.054 46.6932C123.255 45.1168 121.861 43.8403 120.054 43.2293C118.247 42.6184 116.365 42.7871 114.773 43.5547L114.677 43.5223L114.645 43.618C113.068 44.4177 111.792 45.8114 111.181 47.6182C110.57 49.425 110.739 51.3074 111.506 52.8997L111.474 52.9954L111.569 53.0277C112.367 54.5998 113.755 55.8737 115.555 56.4866L105.149 52.968C104.107 52.6157 103.543 51.4748 103.895 50.4328L109.02 35.2758C109.373 34.2338 110.514 33.6695 111.556 34.0219ZM105.79 51.0734L109.579 52.3547L110.86 48.5655L107.071 47.2842L105.79 51.0734ZM107.712 45.3896L111.501 46.6709L112.782 42.8816L108.993 41.6003L107.712 45.3896ZM109.634 39.7057L113.423 40.987L114.704 37.1978L110.915 35.9165L109.634 39.7057ZM115.318 41.6277L119.107 42.909L120.388 39.1197L116.599 37.8384L115.318 41.6277ZM121.001 43.5496L124.791 44.8309L126.072 41.0417L122.283 39.7604L121.001 43.5496Z" fill="#EDA768"/>
<rect x="113.466" y="49.7631" width="2.15921" height="2.15921" transform="rotate(-26.3174 113.466 49.7631)" fill="#EDA768"/>
<rect x="118.305" y="47.3701" width="2.15921" height="2.15921" transform="rotate(-26.3174 118.305 47.3701)" fill="#EDA768"/>
<path fill-rule="evenodd" clip-rule="evenodd" d="M113.466 49.7631L115.401 48.8058L116.355 50.7348L114.42 51.692L113.466 49.7631ZM114.863 52.5884L115.62 54.1177C116.545 55.9883 118.811 56.7547 120.682 55.8295C122.552 54.9043 123.319 52.6379 122.394 50.7673L121.637 49.2379L119.702 50.1952L120.458 51.7245C120.855 52.5262 120.526 53.4975 119.725 53.8941C118.923 54.2906 117.952 53.9621 117.555 53.1605L116.799 51.6311L114.863 52.5884ZM119.258 49.2989L121.194 48.3416L120.24 46.4126L118.304 47.3699L119.258 49.2989Z" fill="#EDA768"/>
<path d="M115.29 47.952L115.384 47.6745C115.529 47.2456 115.838 46.8919 116.244 46.6912V46.6912C116.65 46.4905 117.119 46.4592 117.548 46.6042L117.825 46.698" stroke="#EDA768"/>
<path d="M113.396 47.3114L113.583 46.7565C113.873 45.8987 114.492 45.1913 115.304 44.7898V44.7898C116.115 44.3884 117.053 44.3258 117.911 44.6159L118.466 44.8035" stroke="#EDA768"/>
<g clip-path="url(#clip10_1369_1623)">
<path fill-rule="evenodd" clip-rule="evenodd" d="M213.769 90.7528L218.574 76.5432L220.469 77.1838L215.664 91.3935L213.769 90.7528Z" fill="#EDA768"/>
<path d="M212.058 69.8677C211.303 69.6122 210.622 69.6994 210.014 70.1291C209.409 70.5545 208.934 71.2745 208.591 72.289C207.877 74.4001 208.313 75.7235 209.897 76.2593C210.562 76.4841 211.423 76.5901 212.481 76.5774L211.912 78.2611C211.025 78.3221 210.103 78.1906 209.144 77.8665C207.767 77.4008 206.855 76.628 206.407 75.5481C205.96 74.4639 206.001 73.1403 206.53 71.5775C206.863 70.5932 207.333 69.7925 207.941 69.1755C208.551 68.5541 209.256 68.1601 210.058 67.9935C210.866 67.824 211.721 67.8919 212.623 68.197C213.543 68.5079 214.392 69.0426 215.169 69.8012L213.97 71.2141C213.673 70.926 213.366 70.6588 213.05 70.4124C212.734 70.1661 212.404 69.9845 212.058 69.8677Z" fill="#EDA768"/>
<path fill-rule="evenodd" clip-rule="evenodd" d="M218.24 80.6525C216.051 79.9123 213.918 80.9471 213.33 82.6868C212.741 84.4265 213.809 86.5434 215.998 87.2837C218.187 88.0239 220.32 86.9891 220.908 85.2494C221.496 83.5097 220.429 81.3927 218.24 80.6525ZM211.435 82.0461C212.439 79.0772 215.838 77.729 218.881 78.7579C221.923 79.7868 223.807 82.9211 222.803 85.89C221.799 88.859 218.4 90.2072 215.357 89.1783C212.314 88.1494 210.431 85.0151 211.435 82.0461Z" fill="#EDA768"/>
</g>
<g clip-path="url(#clip11_1369_1623)">
<path d="M316.55 113.889L321.007 115.402L319.505 119.863L318.397 117.623L309.427 122.059L308.689 120.566L317.657 116.129L316.55 113.889Z" fill="#EDA768"/>
<path d="M319.112 106.31L323.569 107.824L322.067 112.285L320.959 110.045L303.116 118.869L302.378 117.376L320.22 108.55L319.112 106.31Z" fill="#EDA768"/>
<path d="M311.854 102.8L316.311 104.314L314.809 108.775L313.701 106.535L304.732 110.97L303.993 109.477L312.962 105.04L311.854 102.8Z" fill="#EDA768"/>
</g>
<g clip-path="url(#clip12_1369_1623)">
<g clip-path="url(#clip13_1369_1623)">
<path d="M413.347 149.874L411.211 137.459L409.635 142.123L411.77 154.538L413.347 149.874Z" fill="#EDA768"/>
<path fill-rule="evenodd" clip-rule="evenodd" d="M406.448 142.183C408.541 142.89 410.811 141.767 411.519 139.675C412.226 137.582 411.103 135.312 409.011 134.604C406.918 133.896 404.648 135.019 403.94 137.112C403.232 139.205 404.355 141.475 406.448 142.183ZM407.089 140.288C408.135 140.642 409.27 140.08 409.624 139.034C409.978 137.988 409.416 136.852 408.37 136.499C407.324 136.145 406.189 136.706 405.835 137.753C405.481 138.799 406.042 139.934 407.089 140.288Z" fill="#EDA768"/>
<path fill-rule="evenodd" clip-rule="evenodd" d="M413.971 157.393C416.064 158.101 418.334 156.978 419.042 154.886C419.749 152.793 418.626 150.523 416.534 149.815C414.441 149.107 412.171 150.23 411.463 152.323C410.756 154.416 411.878 156.686 413.971 157.393ZM414.612 155.499C415.658 155.853 416.793 155.291 417.147 154.245C417.501 153.199 416.94 152.064 415.893 151.71C414.847 151.356 413.712 151.917 413.358 152.964C413.004 154.01 413.566 155.145 414.612 155.499Z" fill="#EDA768"/>
<path d="M422.273 139.088L420.378 138.448L418.456 144.132L420.351 144.772L422.273 139.088Z" fill="#EDA768"/>
<path d="M422.886 143.518L423.527 141.624L417.843 139.702L417.202 141.596L422.886 143.518Z" fill="#EDA768"/>
</g>
</g>
<g clip-path="url(#clip14_1369_1623)">
<path d="M508.785 170.453L508.5 171.296L509.754 173.832L510.679 171.094L514.469 172.375L513.187 176.164L510.45 175.239L511.704 177.774L512.547 178.059L512.262 178.902L513.516 181.437L514.441 178.7L518.231 179.981L516.949 183.77L514.212 182.845L515.466 185.38L516.309 185.665L516.024 186.508L517.278 189.043L522.047 174.938C522.4 173.896 521.835 172.755 520.793 172.403L506.688 167.633L507.942 170.168L508.785 170.453ZM516.363 173.016L520.153 174.297L518.871 178.086L515.082 176.805L516.363 173.016ZM503.458 165.633L501.671 166.517L502.925 169.052L497.976 183.688C497.623 184.73 498.188 185.871 499.23 186.224L513.866 191.173L515.126 193.721L516.913 192.836L503.458 165.633ZM507.941 179.193L508.85 181.031L507.476 180.567L507.941 179.193ZM504.179 171.588L505.088 173.426L503.714 172.961L504.179 171.588ZM503.66 185.61L499.87 184.329L501.152 180.54L504.941 181.821L503.66 185.61ZM505.582 179.926L501.792 178.645L503.074 174.856L506.342 175.961L506.687 176.658L505.582 179.926ZM509.343 187.532L505.554 186.251L506.836 182.462L510.104 183.567L510.449 184.264L509.343 187.532ZM511.238 188.173L511.703 186.799L512.612 188.637L511.238 188.173Z" fill="#EDA768"/>
</g>
<g clip-path="url(#clip15_1369_1623)">
<path d="M612.544 213.89L617.001 215.403L615.499 219.864L614.391 217.624L605.422 222.06L604.683 220.567L613.652 216.13L612.544 213.89Z" fill="#EDA768"/>
<path d="M615.107 206.312L619.564 207.825L618.062 212.286L616.954 210.046L599.111 218.871L598.373 217.377L616.215 208.552L615.107 206.312Z" fill="#EDA768"/>
<path d="M607.848 202.801L612.305 204.315L610.803 208.775L609.695 206.536L600.726 210.971L599.987 209.478L608.956 205.041L607.848 202.801Z" fill="#EDA768"/>
</g>
<path d="M700.461 234.211L697.899 241.79C697.706 242.358 697.957 242.865 698.526 243.058L716.858 245.034C717.427 245.226 717.934 244.976 718.126 244.407L719.407 240.618C719.6 240.05 719.349 239.543 718.78 239.35L701.729 233.584C701.16 233.392 700.653 233.643 700.461 234.211ZM716.552 242.819L700.114 241.483L702.036 235.799L717.192 240.925L716.552 242.819Z" fill="#EDA768"/>
<path fill-rule="evenodd" clip-rule="evenodd" d="M707.598 246.389C707.741 246.638 707.77 246.936 707.678 247.208L705.115 254.786C704.939 255.309 704.371 255.59 703.848 255.413L695.322 252.53C694.799 252.353 694.518 251.786 694.695 251.263L696.937 244.631C697.099 244.154 697.591 243.871 698.085 243.972L706.931 245.908C707.212 245.965 707.455 246.14 707.598 246.389ZM698.549 246.108L696.91 250.956L703.541 253.198L705.421 247.64L698.549 246.108Z" fill="#EDA768"/>
<path fill-rule="evenodd" clip-rule="evenodd" d="M716.7 247.28C716.896 247.543 716.95 247.885 716.844 248.196L713.641 257.669C713.464 258.192 712.897 258.473 712.374 258.296L707.637 256.695C707.114 256.518 706.833 255.95 707.01 255.427L709.733 247.375C709.866 246.98 710.231 246.709 710.647 246.696L715.864 246.876C716.192 246.866 716.505 247.016 716.7 247.28ZM711.405 248.672L709.225 255.12L712.067 256.081L714.488 248.922L711.405 248.672Z" fill="#EDA768"/>
</g>
<g opacity="0.38">
<path fill-rule="evenodd" clip-rule="evenodd" d="M11.4636 124.644L26.6205 129.769C27.6626 130.121 28.2268 131.262 27.8745 132.304L22.7493 147.461C22.7489 147.462 22.7484 147.463 22.748 147.465L24.3509 142.724C24.9619 140.918 24.7931 139.035 24.0256 137.443L24.0579 137.347L23.9622 137.315C23.1625 135.738 21.7688 134.462 19.962 133.851C18.1552 133.24 16.2728 133.409 14.6805 134.176L14.5848 134.144L14.5525 134.24C12.9761 135.039 11.6995 136.433 11.0886 138.24C10.4776 140.047 10.6464 141.929 11.4139 143.521L11.3816 143.617L11.4773 143.649C12.276 145.224 13.6671 146.499 15.4705 147.111L5.05709 143.59C4.01505 143.237 3.45077 142.097 3.80313 141.054L8.92832 125.898C9.28068 124.856 10.4215 124.291 11.4636 124.644ZM5.69774 141.695L9.48697 142.976L10.7683 139.187L6.97904 137.906L5.69774 141.695ZM7.61969 136.011L11.4089 137.293L12.6902 133.503L8.90099 132.222L7.61969 136.011ZM9.54164 130.327L13.3309 131.609L14.6122 127.819L10.8229 126.538L9.54164 130.327ZM15.2255 132.249L19.0147 133.531L20.296 129.741L16.5068 128.46L15.2255 132.249ZM20.9093 134.171L24.6986 135.453L25.9799 131.663L22.1906 130.382L20.9093 134.171Z" fill="#EDA768"/>
<rect x="13.3738" y="140.385" width="2.15921" height="2.15921" transform="rotate(-26.3174 13.3738 140.385)" fill="#EDA768"/>
<rect x="18.2123" y="137.992" width="2.15921" height="2.15921" transform="rotate(-26.3174 18.2123 137.992)" fill="#EDA768"/>
<path fill-rule="evenodd" clip-rule="evenodd" d="M13.3738 140.385L15.3092 139.427L16.2632 141.356L14.3278 142.314L13.3738 140.385ZM14.7712 143.21L15.5276 144.739C16.4529 146.61 18.7193 147.376 20.5899 146.451C22.4604 145.526 23.2268 143.26 22.3016 141.389L21.5451 139.86L19.6097 140.817L20.3662 142.346C20.7627 143.148 20.4343 144.119 19.6326 144.516C18.8309 144.912 17.8596 144.584 17.4631 143.782L16.7066 142.253L14.7712 143.21ZM19.1664 139.92L21.1018 138.963L20.1477 137.034L18.2123 137.992L19.1664 139.92Z" fill="#EDA768"/>
<path d="M15.1981 138.574L15.2919 138.297C15.4369 137.868 15.7464 137.514 16.1522 137.313V137.313C16.5581 137.113 17.027 137.081 17.4559 137.226L17.7334 137.32" stroke="#EDA768"/>
<path d="M13.3035 137.933L13.4912 137.378C13.7812 136.521 14.4002 135.813 15.2118 135.412V135.412C16.0235 135.01 16.9614 134.948 17.8192 135.238L18.3741 135.425" stroke="#EDA768"/>
<g clip-path="url(#clip16_1369_1623)">
<path fill-rule="evenodd" clip-rule="evenodd" d="M113.677 181.374L118.482 167.165L120.377 167.805L115.572 182.015L113.677 181.374Z" fill="#EDA768"/>
<path d="M111.966 160.489C111.211 160.234 110.529 160.321 109.922 160.751C109.317 161.176 108.842 161.896 108.499 162.911C107.785 165.022 108.221 166.345 109.805 166.881C110.47 167.106 111.331 167.212 112.389 167.199L111.82 168.883C110.933 168.944 110.011 168.812 109.052 168.488C107.675 168.022 106.763 167.25 106.315 166.17C105.868 165.085 105.909 163.762 106.438 162.199C106.771 161.215 107.241 160.414 107.849 159.797C108.458 159.176 109.164 158.782 109.966 158.615C110.774 158.446 111.629 158.513 112.531 158.819C113.451 159.129 114.299 159.664 115.077 160.423L113.878 161.836C113.581 161.548 113.274 161.28 112.958 161.034C112.642 160.788 112.312 160.606 111.966 160.489Z" fill="#EDA768"/>
<path fill-rule="evenodd" clip-rule="evenodd" d="M118.148 171.274C115.959 170.534 113.826 171.569 113.238 173.308C112.649 175.048 113.717 177.165 115.906 177.905C118.095 178.645 120.228 177.611 120.816 175.871C121.404 174.131 120.337 172.014 118.148 171.274ZM111.343 172.668C112.347 169.699 115.746 168.351 118.789 169.379C121.831 170.408 123.715 173.543 122.711 176.512C121.707 179.481 118.308 180.829 115.265 179.8C112.222 178.771 110.339 175.637 111.343 172.668Z" fill="#EDA768"/>
</g>
<g clip-path="url(#clip17_1369_1623)">
<path d="M216.458 204.511L220.915 206.024L219.413 210.485L218.305 208.245L209.336 212.681L208.597 211.187L217.566 206.75L216.458 204.511Z" fill="#EDA768"/>
<path d="M219.02 196.932L223.477 198.446L221.975 202.906L220.867 200.667L203.025 209.491L202.286 207.998L220.128 199.172L219.02 196.932Z" fill="#EDA768"/>
<path d="M211.762 193.422L216.219 194.936L214.717 199.397L213.609 197.157L204.64 201.592L203.901 200.099L212.87 195.662L211.762 193.422Z" fill="#EDA768"/>
</g>
<g clip-path="url(#clip18_1369_1623)">
<path d="M301.264 235.375L304.106 236.336L306.797 233.059L306.806 240.838L309.75 235.254L312.694 229.669L309.937 245.627L316.783 234.746L317.55 240.284L320.391 241.245" stroke="#EDA768" stroke-width="2" stroke-linejoin="round"/>
<rect width="2" height="4" transform="matrix(-0.947308 -0.320325 -0.320325 0.947308 324.075 230.351)" fill="#EDA768"/>
<rect width="2" height="2" transform="matrix(-0.947308 -0.320325 -0.320325 0.947308 320.593 231.284)" fill="#EDA768"/>
<rect width="2" height="1" transform="matrix(-0.947308 -0.320325 -0.320325 0.947308 317.431 231.271)" fill="#EDA768"/>
</g>
<g clip-path="url(#clip19_1369_1623)">
<path d="M408.692 261.075L408.407 261.918L409.661 264.453L410.587 261.716L414.376 262.997L413.095 266.786L410.357 265.86L411.611 268.396L412.454 268.681L412.169 269.524L413.423 272.059L414.349 269.321L418.138 270.603L416.857 274.392L414.119 273.466L415.373 276.001L416.216 276.286L415.931 277.13L417.185 279.665L421.955 265.559C422.307 264.517 421.743 263.377 420.701 263.024L406.595 258.255L407.849 260.79L408.692 261.075ZM416.271 263.637L420.06 264.919L418.779 268.708L414.99 267.427L416.271 263.637ZM403.366 256.255L401.578 257.139L402.832 259.674L397.883 274.31C397.531 275.352 398.095 276.493 399.137 276.845L413.773 281.794L415.033 284.342L416.821 283.458L403.366 256.255ZM407.848 269.815L408.757 271.653L407.384 271.189L407.848 269.815ZM404.086 262.209L404.995 264.047L403.622 263.583L404.086 262.209ZM403.567 276.232L399.778 274.951L401.059 271.161L404.848 272.443L403.567 276.232ZM405.489 270.548L401.7 269.267L402.981 265.477L406.249 266.583L406.594 267.28L405.489 270.548ZM409.251 278.154L405.462 276.872L406.743 273.083L410.011 274.188L410.356 274.886L409.251 278.154ZM411.146 278.794L411.61 277.421L412.519 279.259L411.146 278.794Z" fill="#EDA768"/>
</g>
<g clip-path="url(#clip20_1369_1623)">
<path d="M511.988 304.731L516.445 306.245L514.943 310.706L513.835 308.466L504.865 312.901L504.127 311.408L513.096 306.971L511.988 304.731Z" fill="#EDA768"/>
<path d="M514.551 297.153L519.008 298.666L517.506 303.127L516.398 300.887L498.555 309.712L497.816 308.219L515.658 299.393L514.551 297.153Z" fill="#EDA768"/>
<path d="M507.292 293.642L511.749 295.156L510.247 299.617L509.139 297.377L500.169 301.812L499.431 300.319L508.399 295.882L507.292 293.642Z" fill="#EDA768"/>
</g>
<path d="M600.37 324.834L597.807 332.412C597.615 332.981 597.866 333.488 598.434 333.68L616.767 335.656C617.335 335.849 617.842 335.598 618.035 335.03L619.316 331.24C619.508 330.672 619.257 330.165 618.689 329.973L601.637 324.207C601.069 324.015 600.562 324.265 600.37 324.834ZM616.46 333.442L600.022 332.106L601.944 326.422L617.101 331.547L616.46 333.442Z" fill="#EDA768"/>
<path fill-rule="evenodd" clip-rule="evenodd" d="M607.506 337.012C607.649 337.26 607.678 337.558 607.587 337.83L605.024 345.408C604.847 345.932 604.279 346.212 603.756 346.035L595.231 343.153C594.707 342.976 594.427 342.408 594.604 341.885L596.846 335.254C597.007 334.776 597.499 334.493 597.993 334.594L606.84 336.53C607.121 336.587 607.363 336.763 607.506 337.012ZM598.458 336.731L596.818 341.578L603.45 343.821L605.329 338.262L598.458 336.731Z" fill="#EDA768"/>
<path fill-rule="evenodd" clip-rule="evenodd" d="M616.608 337.902C616.804 338.165 616.858 338.508 616.753 338.818L613.55 348.292C613.373 348.815 612.805 349.095 612.282 348.919L607.546 347.317C607.022 347.14 606.742 346.572 606.919 346.049L609.641 337.997C609.775 337.602 610.139 337.332 610.556 337.318L615.773 337.499C616.101 337.488 616.413 337.639 616.608 337.902ZM611.314 339.294L609.133 345.743L611.975 346.704L614.396 339.545L611.314 339.294Z" fill="#EDA768"/>
</g>
<g opacity="0.38">
<g clip-path="url(#clip21_1369_1623)">
<path d="M72.2485 278.969L61.2284 267.853L59.3338 267.213L54.732 280.822L52.8374 280.181L54.6754 284.111L58.5212 282.103L56.6266 281.462L60.4276 270.222L64.3634 274.191L61.3631 283.064L59.4685 282.423L61.3066 286.353L65.1524 284.345L63.2578 283.705L65.9726 275.676L69.8936 279.689L67.9943 285.306L66.0997 284.666L67.9378 288.595L71.7835 286.588L69.8889 285.947L72.2485 278.969Z" fill="#EDA768"/>
<path d="M75.2924 269.97L73.3978 269.329L71.4759 275.013L73.3705 275.654L75.2924 269.97Z" fill="#EDA768"/>
<path d="M75.9057 274.4L76.5464 272.505L70.8625 270.583L70.2219 272.478L75.9057 274.4Z" fill="#EDA768"/>
</g>
<path d="M156.44 298.465L153.878 306.044C153.685 306.612 153.936 307.119 154.505 307.311L172.837 309.288C173.406 309.48 173.913 309.229 174.105 308.661L175.386 304.872C175.579 304.303 175.328 303.796 174.759 303.604L157.708 297.838C157.139 297.646 156.632 297.897 156.44 298.465ZM172.531 307.073L156.093 305.737L158.015 300.053L173.171 305.178L172.531 307.073Z" fill="#EDA768"/>
<path fill-rule="evenodd" clip-rule="evenodd" d="M163.577 310.643C163.72 310.892 163.75 311.19 163.658 311.462L161.095 319.04C160.918 319.564 160.351 319.844 159.827 319.667L151.302 316.784C150.778 316.607 150.498 316.04 150.675 315.517L152.917 308.886C153.079 308.408 153.571 308.125 154.065 308.226L162.911 310.162C163.192 310.219 163.435 310.395 163.577 310.643ZM154.529 310.363L152.89 315.21L159.521 317.452L161.4 311.894L154.529 310.363Z" fill="#EDA768"/>
<path fill-rule="evenodd" clip-rule="evenodd" d="M172.679 311.533C172.875 311.797 172.929 312.139 172.824 312.45L169.62 321.923C169.444 322.446 168.876 322.727 168.353 322.55L163.616 320.948C163.093 320.771 162.812 320.204 162.989 319.681L165.712 311.629C165.846 311.234 166.21 310.963 166.627 310.949L171.844 311.13C172.172 311.119 172.484 311.27 172.679 311.533ZM167.385 312.926L165.204 319.374L168.046 320.335L170.467 313.176L167.385 312.926Z" fill="#EDA768"/>
<path fill-rule="evenodd" clip-rule="evenodd" d="M255.198 341.781C255.469 340.98 254.804 340.193 254.032 340.538C252.559 341.197 251.354 342.445 250.796 344.094C249.735 347.233 251.419 350.638 254.558 351.7C257.697 352.761 261.103 351.077 262.164 347.938C262.722 346.289 262.522 344.567 261.751 343.149C261.347 342.406 260.341 342.628 260.07 343.429C259.961 343.752 260.009 344.102 260.145 344.413C260.531 345.294 260.602 346.315 260.269 347.297C259.562 349.39 257.292 350.513 255.199 349.805C253.106 349.098 251.983 346.827 252.691 344.735C253.023 343.752 253.7 342.983 254.541 342.518C254.839 342.353 255.089 342.103 255.198 341.781Z" fill="#EDA768"/>
<rect x="257.775" y="339.064" width="2" height="6" rx="1" transform="rotate(18.6826 257.775 339.064)" fill="#EDA768"/>
<path fill-rule="evenodd" clip-rule="evenodd" d="M263.473 337.824C262.95 337.647 262.382 337.928 262.205 338.451L261.472 340.62C262.087 341.056 262.62 341.583 263.057 342.175L264.1 339.092C264.277 338.569 263.996 338.001 263.473 337.824Z" fill="#EDA768"/>
<path fill-rule="evenodd" clip-rule="evenodd" d="M263.352 350.068C264.972 349.454 266.316 348.147 266.914 346.377C267.472 344.728 267.272 343.005 266.501 341.588C266.097 340.845 265.091 341.067 264.82 341.868C264.711 342.19 264.759 342.541 264.895 342.852C265.281 343.733 265.352 344.754 265.02 345.737C264.875 346.163 264.667 346.549 264.407 346.887C264.363 347.451 264.248 348.018 264.059 348.578C263.878 349.113 263.639 349.611 263.352 350.068Z" fill="#EDA768"/>
<path fill-rule="evenodd" clip-rule="evenodd" d="M268.543 335.316C268.02 335.14 267.453 335.42 267.276 335.943L266.542 338.113C267.158 338.548 267.691 339.075 268.128 339.667L269.17 336.584C269.347 336.061 269.067 335.493 268.543 335.316Z" fill="#EDA768"/>
<path fill-rule="evenodd" clip-rule="evenodd" d="M268.422 347.559C270.043 346.946 271.386 345.638 271.984 343.869C272.542 342.22 272.342 340.497 271.571 339.079C271.167 338.336 270.161 338.558 269.89 339.36C269.781 339.682 269.829 340.032 269.965 340.344C270.351 341.224 270.422 342.246 270.09 343.228C269.946 343.654 269.737 344.04 269.478 344.379C269.433 344.943 269.318 345.51 269.129 346.07C268.948 346.604 268.71 347.102 268.422 347.559Z" fill="#EDA768"/>
</g>
<g opacity="0.38">
<path fill-rule="evenodd" clip-rule="evenodd" d="M802.464 268.175L817.621 273.301C818.663 273.653 819.227 274.794 818.875 275.836L815.374 286.187C815.958 284.402 815.784 282.547 815.026 280.974L815.058 280.879L814.963 280.847C814.163 279.27 812.769 277.994 810.962 277.383C809.156 276.772 807.273 276.941 805.681 277.708L805.585 277.676L805.552 277.772C803.976 278.572 802.7 279.965 802.089 281.772C801.478 283.578 801.647 285.461 802.414 287.053L802.382 287.149L802.478 287.181C803.271 288.746 804.651 290.016 806.439 290.632L796.057 287.121C795.015 286.769 794.451 285.628 794.803 284.586L799.928 269.429C800.281 268.387 801.422 267.823 802.464 268.175ZM796.698 285.227L800.487 286.508L801.768 282.719L797.979 281.438L796.698 285.227ZM798.62 279.543L802.409 280.824L803.69 277.035L799.901 275.754L798.62 279.543ZM800.542 273.859L804.331 275.14L805.612 271.351L801.823 270.07L800.542 273.859ZM806.226 275.781L810.015 277.062L811.296 273.273L807.507 271.992L806.226 275.781ZM811.909 277.703L815.699 278.984L816.98 275.195L813.191 273.914L811.909 277.703Z" fill="#EDA768"/>
<rect x="804.375" y="283.917" width="2.15921" height="2.15921" transform="rotate(-26.3174 804.375 283.917)" fill="#EDA768"/>
<rect x="809.214" y="281.525" width="2.15921" height="2.15921" transform="rotate(-26.3174 809.214 281.525)" fill="#EDA768"/>
<path fill-rule="evenodd" clip-rule="evenodd" d="M804.375 283.918L806.311 282.96L807.265 284.889L805.329 285.847L804.375 283.918ZM805.773 286.743L806.529 288.272C807.454 290.143 809.721 290.909 811.591 289.984C813.462 289.059 814.228 286.793 813.303 284.922L812.547 283.393L810.611 284.35L811.368 285.879C811.764 286.681 811.436 287.652 810.634 288.049C809.833 288.445 808.861 288.117 808.465 287.315L807.708 285.786L805.773 286.743ZM810.168 283.454L812.103 282.496L811.149 280.567L809.214 281.525L810.168 283.454Z" fill="#EDA768"/>
<path d="M806.199 282.106L806.293 281.829C806.438 281.4 806.747 281.046 807.153 280.845V280.845C807.559 280.645 808.028 280.613 808.457 280.758L808.734 280.852" stroke="#EDA768"/>
<path d="M804.305 281.466L804.492 280.911C804.782 280.053 805.401 279.346 806.213 278.944V278.944C807.025 278.543 807.962 278.48 808.82 278.77L809.375 278.958" stroke="#EDA768"/>
<g clip-path="url(#clip22_1369_1623)">
<path fill-rule="evenodd" clip-rule="evenodd" d="M904.678 324.907L909.483 310.697L911.377 311.338L906.572 325.548L904.678 324.907Z" fill="#EDA768"/>
<path d="M902.967 304.022C902.211 303.767 901.53 303.854 900.923 304.283C900.317 304.709 899.843 305.429 899.5 306.443C898.786 308.554 899.221 309.878 900.806 310.414C901.471 310.638 902.332 310.744 903.39 310.732L902.82 312.415C901.934 312.476 901.011 312.345 900.053 312.021C898.676 311.555 897.763 310.782 897.315 309.702C896.869 308.618 896.91 307.295 897.438 305.732C897.771 304.748 898.242 303.947 898.85 303.33C899.459 302.708 900.165 302.314 900.967 302.148C901.775 301.978 902.63 302.046 903.532 302.351C904.451 302.662 905.3 303.197 906.078 303.955L904.879 305.368C904.581 305.08 904.275 304.813 903.959 304.567C903.643 304.32 903.312 304.139 902.967 304.022Z" fill="#EDA768"/>
<path fill-rule="evenodd" clip-rule="evenodd" d="M909.149 314.807C906.96 314.067 904.827 315.102 904.239 316.841C903.65 318.581 904.718 320.698 906.907 321.438C909.096 322.178 911.229 321.144 911.817 319.404C912.405 317.664 911.338 315.547 909.149 314.807ZM902.344 316.201C903.348 313.232 906.747 311.884 909.79 312.912C912.832 313.941 914.716 317.076 913.712 320.045C912.708 323.013 909.309 324.362 906.266 323.333C903.223 322.304 901.34 319.17 902.344 316.201Z" fill="#EDA768"/>
</g>
<g clip-path="url(#clip23_1369_1623)">
<path d="M1007.46 348.043L1011.92 349.557L1010.41 354.017L1009.31 351.778L1000.34 356.213L999.597 354.72L1008.57 350.283L1007.46 348.043Z" fill="#EDA768"/>
<path d="M1010.02 340.465L1014.48 341.978L1012.98 346.439L1011.87 344.199L994.025 353.024L993.287 351.53L1011.13 342.705L1010.02 340.465Z" fill="#EDA768"/>
<path d="M1002.76 336.954L1007.22 338.468L1005.72 342.929L1004.61 340.689L995.64 345.124L994.901 343.631L1003.87 339.194L1002.76 336.954Z" fill="#EDA768"/>
</g>
</g>
<g opacity="0.38">
<g clip-path="url(#clip24_1369_1623)">
<g clip-path="url(#clip25_1369_1623)">
<path d="M1097.46 13.0286L1095.32 0.613403L1093.75 5.27707L1095.88 17.6923L1097.46 13.0286Z" fill="#EDA768"/>
<path fill-rule="evenodd" clip-rule="evenodd" d="M1090.56 5.33669C1092.65 6.04433 1094.92 4.92149 1095.63 2.82876C1096.34 0.736025 1095.21 -1.53413 1093.12 -2.24177C1091.03 -2.94941 1088.76 -1.82657 1088.05 0.26616C1087.34 2.35889 1088.47 4.62905 1090.56 5.33669ZM1091.2 3.44208C1092.25 3.7959 1093.38 3.23448 1093.74 2.18811C1094.09 1.14175 1093.53 0.00666886 1092.48 -0.347152C1091.44 -0.700974 1090.3 -0.139554 1089.95 0.906814C1089.59 1.95318 1090.15 3.08826 1091.2 3.44208Z" fill="#EDA768"/>
<path fill-rule="evenodd" clip-rule="evenodd" d="M1098.08 20.5476C1100.18 21.2553 1102.45 20.1324 1103.15 18.0397C1103.86 15.947 1102.74 13.6768 1100.65 12.9692C1098.55 12.2615 1096.28 13.3844 1095.57 15.4771C1094.87 17.5698 1095.99 19.84 1098.08 20.5476ZM1098.72 18.6531C1099.77 19.0069 1100.91 18.4455 1101.26 17.3992C1101.61 16.3528 1101.05 15.2177 1100 14.8639C1098.96 14.5101 1097.82 15.0715 1097.47 16.1179C1097.12 17.1642 1097.68 18.2993 1098.72 18.6531Z" fill="#EDA768"/>
<path d="M1106.38 2.2427L1104.49 1.60205L1102.57 7.2859L1104.46 7.92655L1106.38 2.2427Z" fill="#EDA768"/>
<path d="M1107 6.67257L1107.64 4.77795L1101.95 2.856L1101.31 4.75062L1107 6.67257Z" fill="#EDA768"/>
</g>
</g>
<g clip-path="url(#clip26_1369_1623)">
<path d="M1192.9 33.6074L1192.61 34.4505L1193.87 36.9857L1194.79 34.248L1198.58 35.5293L1197.3 39.3185L1194.56 38.3928L1195.82 40.9281L1196.66 41.2131L1196.37 42.0563L1197.63 44.5915L1198.55 41.8538L1202.34 43.1351L1201.06 46.9243L1198.32 45.9986L1199.58 48.5339L1200.42 48.8189L1200.14 49.662L1201.39 52.1973L1206.16 38.0919C1206.51 37.0499 1205.95 35.909 1204.9 35.5566L1190.8 30.787L1192.05 33.3223L1192.9 33.6074ZM1200.47 36.17L1204.26 37.4513L1202.98 41.2405L1199.19 39.9592L1200.47 36.17ZM1187.57 28.7871L1185.78 29.6712L1187.04 32.2064L1182.09 46.8423C1181.74 47.8844 1182.3 49.0252 1183.34 49.3776L1197.98 54.3266L1199.24 56.8746L1201.02 55.9905L1187.57 28.7871ZM1192.05 42.3475L1192.96 44.1856L1191.59 43.7211L1192.05 42.3475ZM1188.29 34.7417L1189.2 36.5798L1187.83 36.1153L1188.29 34.7417ZM1187.77 48.7643L1183.98 47.483L1185.26 43.6937L1189.05 44.975L1187.77 48.7643ZM1189.69 43.0804L1185.9 41.7991L1187.19 38.0099L1190.45 39.115L1190.8 39.8122L1189.69 43.0804ZM1193.46 50.6862L1189.67 49.4049L1190.95 45.6157L1194.22 46.7208L1194.56 47.418L1193.46 50.6862ZM1195.35 51.3269L1195.81 49.9533L1196.72 51.7913L1195.35 51.3269Z" fill="#EDA768"/>
</g>
<g clip-path="url(#clip27_1369_1623)">
<path d="M1296.19 76.5587L1300.65 78.0721L1299.15 82.533L1298.04 80.2931L1289.07 84.7287L1288.33 83.2354L1297.3 78.7986L1296.19 76.5587Z" fill="#EDA768"/>
<path d="M1298.75 68.9804L1303.21 70.4939L1301.71 74.9548L1300.6 72.7149L1282.76 81.5393L1282.02 80.046L1299.86 71.2203L1298.75 68.9804Z" fill="#EDA768"/>
<path d="M1291.49 65.4698L1295.95 66.9833L1294.45 71.4442L1293.34 69.2043L1284.37 73.6398L1283.63 72.1466L1292.6 67.7097L1291.49 65.4698Z" fill="#EDA768"/>
</g>
<path d="M1384.57 97.3655L1382.01 104.944C1381.82 105.512 1382.07 106.019 1382.64 106.212L1400.97 108.188C1401.54 108.38 1402.05 108.13 1402.24 107.561L1403.52 103.772C1403.71 103.204 1403.46 102.697 1402.89 102.504L1385.84 96.7385C1385.27 96.5463 1384.76 96.7971 1384.57 97.3655ZM1400.66 105.973L1384.23 104.637L1386.15 98.9535L1401.3 104.079L1400.66 105.973Z" fill="#EDA768"/>
<path fill-rule="evenodd" clip-rule="evenodd" d="M1391.71 109.543C1391.85 109.792 1391.88 110.09 1391.79 110.362L1389.23 117.94C1389.05 118.463 1388.48 118.744 1387.96 118.567L1379.43 115.684C1378.91 115.507 1378.63 114.94 1378.81 114.417L1381.05 107.785C1381.21 107.308 1381.7 107.025 1382.2 107.126L1391.04 109.062C1391.32 109.119 1391.57 109.295 1391.71 109.543ZM1382.66 109.262L1381.02 114.11L1387.65 116.352L1389.53 110.794L1382.66 109.262Z" fill="#EDA768"/>
<path fill-rule="evenodd" clip-rule="evenodd" d="M1400.81 110.434C1401.01 110.697 1401.06 111.04 1400.96 111.35L1397.75 120.823C1397.58 121.346 1397.01 121.627 1396.49 121.45L1391.75 119.849C1391.23 119.672 1390.94 119.104 1391.12 118.581L1393.84 110.529C1393.98 110.134 1394.34 109.863 1394.76 109.85L1399.98 110.03C1400.3 110.02 1400.62 110.17 1400.81 110.434ZM1395.52 111.826L1393.34 118.274L1396.18 119.235L1398.6 112.077L1395.52 111.826Z" fill="#EDA768"/>
</g>
<g opacity="0.38">
<path fill-rule="evenodd" clip-rule="evenodd" d="M1380.53 10.1125C1380.8 9.3111 1380.13 8.52399 1379.36 8.86948C1377.89 9.52842 1376.68 10.776 1376.12 12.425C1375.06 15.5641 1376.75 18.9693 1379.89 20.0308C1383.03 21.0922 1386.43 19.408 1387.49 16.2689C1388.05 14.6195 1387.85 12.8967 1387.08 11.479C1386.67 10.7359 1385.67 10.958 1385.4 11.7593C1385.29 12.0816 1385.34 12.4319 1385.47 12.7435C1385.86 13.6241 1385.93 14.6457 1385.6 15.6282C1384.89 17.721 1382.62 18.8438 1380.53 18.1362C1378.43 17.4285 1377.31 15.1584 1378.02 13.0656C1378.35 12.0834 1379.03 11.3148 1379.87 10.8489C1380.17 10.684 1380.42 10.4347 1380.53 10.1125Z" fill="#EDA768"/>
<rect x="1383.1" y="7.39539" width="2" height="6" rx="1" transform="rotate(18.6826 1383.1 7.39539)" fill="#EDA768"/>
<path fill-rule="evenodd" clip-rule="evenodd" d="M1388.8 6.15529C1388.28 5.97838 1387.71 6.25909 1387.53 6.78227L1386.8 8.95145C1387.42 9.38657 1387.95 9.91354 1388.39 10.5062L1389.43 7.42292C1389.61 6.89974 1389.32 6.3322 1388.8 6.15529Z" fill="#EDA768"/>
<path fill-rule="evenodd" clip-rule="evenodd" d="M1393.87 3.64699C1393.35 3.47007 1392.78 3.75078 1392.6 4.27397L1391.87 6.44315C1392.49 6.87827 1393.02 7.40524 1393.46 7.99786L1394.5 4.91462C1394.68 4.39143 1394.39 3.8239 1393.87 3.64699Z" fill="#EDA768"/>
<path fill-rule="evenodd" clip-rule="evenodd" d="M1393.75 15.8927C1395.37 15.2793 1396.72 13.9718 1397.31 12.2015C1397.87 10.552 1397.67 8.82905 1396.9 7.41126C1396.5 6.66822 1395.49 6.89035 1395.22 7.69163C1395.11 8.01392 1395.16 8.3642 1395.3 8.67584C1395.68 9.55655 1395.75 10.5783 1395.42 11.5608C1395.28 11.9875 1395.07 12.3739 1394.81 12.7127C1394.76 13.2758 1394.65 13.8426 1394.46 14.4021C1394.28 14.9367 1394.04 15.4352 1393.75 15.8927Z" fill="#EDA768"/>
<path fill-rule="evenodd" clip-rule="evenodd" d="M1481.03 33.1182L1496.18 38.2434C1497.22 38.5957 1497.79 39.7366 1497.44 40.7787L1493.94 51.1319C1494.52 49.3456 1494.35 47.49 1493.59 45.9173L1493.62 45.8219L1493.52 45.7896C1492.72 44.2132 1491.33 42.9368 1489.52 42.3259C1487.72 41.7149 1485.83 41.8836 1484.24 42.6511L1484.15 42.6186L1484.11 42.7148C1482.54 43.5145 1481.26 44.9081 1480.65 46.7147C1480.04 48.5214 1480.21 50.4036 1480.98 51.9958L1480.94 52.0917L1481.04 52.1241C1481.83 53.6884 1483.21 54.9574 1485 55.5738L1474.62 52.0643C1473.58 51.712 1473.01 50.5711 1473.36 49.5291L1478.49 34.3722C1478.84 33.3301 1479.98 32.7658 1481.03 33.1182ZM1475.26 50.1697L1479.05 51.451L1480.33 47.6618L1476.54 46.3805L1475.26 50.1697ZM1477.18 44.4859L1480.97 45.7672L1482.25 41.978L1478.46 40.6967L1477.18 44.4859ZM1479.1 38.802L1482.89 40.0833L1484.17 36.2941L1480.38 35.0128L1479.1 38.802ZM1484.79 40.724L1488.58 42.0053L1489.86 38.2161L1486.07 36.9348L1484.79 40.724ZM1490.47 42.6459L1494.26 43.9272L1495.54 40.138L1491.75 38.8567L1490.47 42.6459Z" fill="#EDA768"/>
<rect x="1482.94" y="48.8593" width="2.15921" height="2.15921" transform="rotate(-26.3174 1482.94 48.8593)" fill="#EDA768"/>
<rect x="1487.77" y="46.4667" width="2.15921" height="2.15921" transform="rotate(-26.3174 1487.77 46.4667)" fill="#EDA768"/>
<path fill-rule="evenodd" clip-rule="evenodd" d="M1482.94 48.8593L1484.87 47.902L1485.82 49.8313L1483.89 50.7885L1482.94 48.8593ZM1484.33 51.6849L1485.09 53.2139C1486.01 55.0845 1488.28 55.8509 1490.15 54.9257C1492.02 54.0005 1492.79 51.7341 1491.86 49.8635L1491.11 48.3344L1489.17 49.2917L1489.93 50.8208C1490.32 51.6225 1490 52.5938 1489.19 52.9903C1488.39 53.3868 1487.42 53.0584 1487.02 52.2567L1486.27 50.7276L1484.33 51.6849ZM1488.73 48.3953L1490.66 47.4381L1489.71 45.5088L1487.77 46.4661L1488.73 48.3953Z" fill="#EDA768"/>
<path d="M1484.76 47.0479L1484.85 46.7705C1485 46.3416 1485.31 45.9879 1485.71 45.7871V45.7871C1486.12 45.5864 1486.59 45.5551 1487.02 45.7001L1487.29 45.794" stroke="#EDA768"/>
<path d="M1482.87 46.4078L1483.05 45.8528C1483.34 44.995 1483.96 44.2876 1484.77 43.8862V43.8862C1485.58 43.4847 1486.52 43.4221 1487.38 43.7122L1487.94 43.8998" stroke="#EDA768"/>
</g>
<path d="M1220 435V344C1220 316.386 1242.39 294 1270 294H1511" stroke="#8B8B8B" stroke-width="30"/>
<path d="M1220 435V344C1220 316.386 1242.39 294 1270 294H1511" stroke="#FEC955" stroke-width="4" stroke-dasharray="12 12"/>
<path fill-rule="evenodd" clip-rule="evenodd" d="M1402.58 222.531C1403.46 222.019 1404.06 221.061 1404.06 219.963C1404.06 218.327 1402.73 217 1401.1 217C1399.46 217 1398.13 218.327 1398.13 219.963C1398.13 221.06 1398.73 222.018 1399.61 222.53V277.751H1402.58V248.354L1432.21 235.522L1402.58 222.689V222.531Z" fill="#D0213B"/>
<path d="M1385 278C1385 275.239 1387.24 273 1390 273H1413C1415.76 273 1418 275.239 1418 278H1385Z" fill="#D0213B"/>
<path d="M1383 279C1383 278.448 1383.45 278 1384 278H1419C1419.55 278 1420 278.448 1420 279C1420 279.552 1419.55 280 1419 280H1384C1383.45 280 1383 279.552 1383 279Z" fill="#B90A24"/>
<path d="M-22 298C-15.4017 297.01 192.913 297.467 320.188 297.894C336.8 297.95 350.23 284.501 350.23 267.889V245.777C350.23 229.208 336.798 215.777 320.23 215.777H169.761C153.193 215.777 139.761 202.345 139.761 185.777V159.978C139.761 143.41 153.193 129.978 169.761 129.978H380.555C397.124 129.978 410.555 116.547 410.555 99.9782V78.2016C410.555 61.6331 423.987 48.2016 440.555 48.2016H566C582.569 48.2016 596 34.7702 596 18.2016V-30" stroke="#8B8B8B" stroke-width="30"/>
<path d="M-22 298C-15.4017 297.01 192.913 297.467 320.188 297.894C336.8 297.95 350.23 284.501 350.23 267.889V245.777C350.23 229.208 336.798 215.777 320.23 215.777H169.761C153.193 215.777 139.761 202.345 139.761 185.777V159.978C139.761 143.41 153.193 129.978 169.761 129.978H380.555C397.124 129.978 410.555 116.547 410.555 99.9782V78.2016C410.555 61.6331 423.987 48.2016 440.555 48.2016H566C582.569 48.2016 596 34.7702 596 18.2016V-30" stroke="#FEC955" stroke-width="4" stroke-dasharray="12 12"/>
<path fill-rule="evenodd" clip-rule="evenodd" d="M83.2526 218.256C84.2548 217.677 84.9292 216.593 84.9292 215.352C84.9292 213.501 83.4283 212 81.5769 212C79.7255 212 78.2246 213.501 78.2246 215.352C78.2246 216.593 78.8986 217.676 79.9003 218.256V280.722H83.2526V247.467L116.775 232.951L83.2526 218.436V218.256Z" fill="#E6A513"/>
<mask id="path-162-outside-1_1369_1623" maskUnits="userSpaceOnUse" x="331" y="196" width="39" height="59" fill="black">
<rect fill="white" x="331" y="196" width="39" height="59"/>
<path fill-rule="evenodd" clip-rule="evenodd" d="M365.043 225.238C366.91 222.454 368 219.104 368 215.5C368 205.835 360.165 198 350.5 198C340.835 198 333 205.835 333 215.5C333 219.104 334.09 222.454 335.957 225.238L346.846 249.671C348.256 252.833 352.744 252.833 354.154 249.671L365.043 225.238Z"/>
</mask>
<path fill-rule="evenodd" clip-rule="evenodd" d="M365.043 225.238C366.91 222.454 368 219.104 368 215.5C368 205.835 360.165 198 350.5 198C340.835 198 333 205.835 333 215.5C333 219.104 334.09 222.454 335.957 225.238L346.846 249.671C348.256 252.833 352.744 252.833 354.154 249.671L365.043 225.238Z" fill="#70A739"/>
<path d="M365.043 225.238L363.382 224.124L363.286 224.267L363.216 224.424L365.043 225.238ZM335.957 225.238L337.784 224.424L337.714 224.267L337.618 224.124L335.957 225.238ZM346.846 249.671L348.673 248.856L346.846 249.671ZM354.154 249.671L352.327 248.856L354.154 249.671ZM366 215.5C366 218.695 365.035 221.659 363.382 224.124L366.703 226.352C368.785 223.249 370 219.513 370 215.5H366ZM350.5 200C359.06 200 366 206.94 366 215.5H370C370 204.73 361.27 196 350.5 196V200ZM335 215.5C335 206.94 341.94 200 350.5 200V196C339.73 196 331 204.73 331 215.5H335ZM337.618 224.124C335.965 221.659 335 218.695 335 215.5H331C331 219.513 332.215 223.249 334.297 226.352L337.618 224.124ZM348.673 248.856L337.784 224.424L334.131 226.052L345.02 250.485L348.673 248.856ZM352.327 248.856C351.622 250.438 349.378 250.438 348.673 248.856L345.02 250.485C347.134 255.228 353.866 255.228 355.98 250.485L352.327 248.856ZM363.216 224.424L352.327 248.856L355.98 250.485L366.869 226.052L363.216 224.424Z" fill="black" mask="url(#path-162-outside-1_1369_1623)"/>
<circle cx="350.5" cy="215.5" r="13.5" fill="white"/>
<mask id="path-165-outside-2_1369_1623" maskUnits="userSpaceOnUse" x="182" y="225" width="52" height="81" fill="black">
<rect fill="white" x="182" y="225" width="52" height="81"/>
<path fill-rule="evenodd" clip-rule="evenodd" d="M227.942 264.358C230.505 260.539 232 255.944 232 251C232 237.745 221.255 227 208 227C194.745 227 184 237.745 184 251C184 255.942 185.494 260.535 188.054 264.352L204.346 300.907C205.755 304.07 210.244 304.07 211.653 300.907L227.942 264.358Z"/>
</mask>
<path fill-rule="evenodd" clip-rule="evenodd" d="M227.942 264.358C230.505 260.539 232 255.944 232 251C232 237.745 221.255 227 208 227C194.745 227 184 237.745 184 251C184 255.942 185.494 260.535 188.054 264.352L204.346 300.907C205.755 304.07 210.244 304.07 211.653 300.907L227.942 264.358Z" fill="#70A739"/>
<path d="M227.942 264.358L226.281 263.243L226.185 263.386L226.115 263.544L227.942 264.358ZM188.054 264.352L189.881 263.538L189.811 263.381L189.715 263.238L188.054 264.352ZM204.346 300.907L202.519 301.722L204.346 300.907ZM211.653 300.907L209.826 300.093V300.093L211.653 300.907ZM230 251C230 255.535 228.63 259.744 226.281 263.243L229.603 265.472C232.38 261.335 234 256.353 234 251H230ZM208 229C220.15 229 230 238.85 230 251H234C234 236.641 222.359 225 208 225V229ZM186 251C186 238.85 195.85 229 208 229V225C193.641 225 182 236.641 182 251H186ZM189.715 263.238C187.369 259.74 186 255.533 186 251H182C182 256.351 183.619 261.33 186.393 265.466L189.715 263.238ZM206.173 300.093L189.881 263.538L186.227 265.166L202.519 301.722L206.173 300.093ZM209.826 300.093C209.121 301.674 206.877 301.674 206.173 300.093L202.519 301.722C204.633 306.465 211.366 306.465 213.48 301.722L209.826 300.093ZM226.115 263.544L209.826 300.093L213.48 301.722L229.769 265.172L226.115 263.544Z" fill="black" mask="url(#path-165-outside-2_1369_1623)"/>
<ellipse cx="208" cy="250.573" rx="19" ry="18.5" fill="white"/>
<mask id="path-168-outside-3_1369_1623" maskUnits="userSpaceOnUse" x="119" y="109" width="39" height="59" fill="black">
<rect fill="white" x="119" y="109" width="39" height="59"/>
<path fill-rule="evenodd" clip-rule="evenodd" d="M153.043 138.238C154.91 135.454 156 132.104 156 128.5C156 118.835 148.165 111 138.5 111C128.835 111 121 118.835 121 128.5C121 132.104 122.09 135.454 123.957 138.238L134.846 162.671C136.256 165.833 140.744 165.833 142.154 162.671L153.043 138.238Z"/>
</mask>
<path fill-rule="evenodd" clip-rule="evenodd" d="M153.043 138.238C154.91 135.454 156 132.104 156 128.5C156 118.835 148.165 111 138.5 111C128.835 111 121 118.835 121 128.5C121 132.104 122.09 135.454 123.957 138.238L134.846 162.671C136.256 165.833 140.744 165.833 142.154 162.671L153.043 138.238Z" fill="#70A739"/>
<path d="M153.043 138.238L151.382 137.124L151.286 137.267L151.216 137.424L153.043 138.238ZM123.957 138.238L125.784 137.424L125.714 137.267L125.618 137.124L123.957 138.238ZM134.846 162.671L136.673 161.856L134.846 162.671ZM142.154 162.671L140.327 161.856L142.154 162.671ZM154 128.5C154 131.695 153.035 134.659 151.382 137.124L154.703 139.352C156.785 136.249 158 132.513 158 128.5H154ZM138.5 113C147.06 113 154 119.94 154 128.5H158C158 117.73 149.27 109 138.5 109V113ZM123 128.5C123 119.94 129.94 113 138.5 113V109C127.73 109 119 117.73 119 128.5H123ZM125.618 137.124C123.965 134.659 123 131.695 123 128.5H119C119 132.513 120.215 136.249 122.297 139.352L125.618 137.124ZM136.673 161.856L125.784 137.424L122.131 139.052L133.02 163.485L136.673 161.856ZM140.327 161.856C139.622 163.438 137.378 163.438 136.673 161.856L133.02 163.485C135.134 168.228 141.866 168.228 143.98 163.485L140.327 161.856ZM151.216 137.424L140.327 161.856L143.98 163.485L154.869 139.052L151.216 137.424Z" fill="black" mask="url(#path-168-outside-3_1369_1623)"/>
<circle cx="138.5" cy="128.5" r="13.5" fill="white"/>
<mask id="path-171-outside-4_1369_1623" maskUnits="userSpaceOnUse" x="270" y="56" width="50" height="77" fill="black">
<rect fill="white" x="270" y="56" width="50" height="77"/>
<path fill-rule="evenodd" clip-rule="evenodd" d="M314.111 93.8012C316.567 90.1419 318 85.7383 318 81C318 68.2975 307.703 58 295 58C282.297 58 272 68.2975 272 81C272 85.7359 273.431 90.1375 275.885 93.7958L291.346 128.486C292.755 131.649 297.244 131.649 298.653 128.486L314.111 93.8012Z"/>
</mask>
<path fill-rule="evenodd" clip-rule="evenodd" d="M314.111 93.8012C316.567 90.1419 318 85.7383 318 81C318 68.2975 307.703 58 295 58C282.297 58 272 68.2975 272 81C272 85.7359 273.431 90.1375 275.885 93.7958L291.346 128.486C292.755 131.649 297.244 131.649 298.653 128.486L314.111 93.8012Z" fill="#70A739"/>
<path d="M314.111 93.8012L312.451 92.6866L312.355 92.8297L312.284 92.987L314.111 93.8012ZM275.885 93.7958L277.712 92.9817L277.642 92.8246L277.546 92.6817L275.885 93.7958ZM291.346 128.486L289.519 129.3L291.346 128.486ZM298.653 128.486L300.48 129.3L298.653 128.486ZM316 81C316 85.3291 314.692 89.3466 312.451 92.6866L315.772 94.9158C318.442 90.9371 320 86.1475 320 81H316ZM295 60C306.598 60 316 69.402 316 81H320C320 67.1929 308.807 56 295 56V60ZM274 81C274 69.402 283.402 60 295 60V56C281.193 56 270 67.1929 270 81H274ZM277.546 92.6817C275.306 89.3427 274 85.3269 274 81H270C270 86.1449 271.556 90.9324 274.224 94.9099L277.546 92.6817ZM293.173 127.672L277.712 92.9817L274.058 94.61L289.519 129.3L293.173 127.672ZM296.826 127.672C296.122 129.253 293.877 129.253 293.173 127.672L289.519 129.3C291.633 134.044 298.366 134.044 300.48 129.3L296.826 127.672ZM312.284 92.987L296.826 127.672L300.48 129.3L315.938 94.6154L312.284 92.987Z" fill="black" mask="url(#path-171-outside-4_1369_1623)"/>
<circle cx="295" cy="80.9847" r="18" fill="white"/>
<mask id="path-174-outside-5_1369_1623" maskUnits="userSpaceOnUse" x="479" y="-11" width="46" height="68" fill="black">
<rect fill="white" x="479" y="-11" width="46" height="68"/>
<path fill-rule="evenodd" clip-rule="evenodd" d="M518.618 23.1315C520.754 19.9495 522 16.1202 522 12C522 0.9543 513.046 -8 502 -8C490.954 -8 482 0.9543 482 12C482 16.1182 483.245 19.9457 485.378 23.1268L497.824 51.052C499.435 54.6661 504.564 54.666 506.175 51.052L518.618 23.1315Z"/>
</mask>
<path fill-rule="evenodd" clip-rule="evenodd" d="M518.618 23.1315C520.754 19.9495 522 16.1202 522 12C522 0.9543 513.046 -8 502 -8C490.954 -8 482 0.9543 482 12C482 16.1182 483.245 19.9457 485.378 23.1268L497.824 51.052C499.435 54.6661 504.564 54.666 506.175 51.052L518.618 23.1315Z" fill="#70A739"/>
<path d="M518.618 23.1315L516.721 21.8577L516.611 22.0212L516.531 22.201L518.618 23.1315ZM485.378 23.1268L487.466 22.1964L487.386 22.0168L487.277 21.8536L485.378 23.1268ZM497.824 51.052L499.912 50.1216L497.824 51.052ZM506.175 51.052L504.087 50.1216H504.087L506.175 51.052ZM519.714 12C519.714 15.6526 518.611 19.0406 516.721 21.8577L520.516 24.4053C522.897 20.8583 524.286 16.5879 524.286 12H519.714ZM502 -5.71429C511.783 -5.71429 519.714 2.21667 519.714 12H524.286C524.286 -0.308065 514.308 -10.2857 502 -10.2857V-5.71429ZM484.286 12C484.286 2.21667 492.217 -5.71429 502 -5.71429V-10.2857C489.692 -10.2857 479.714 -0.308065 479.714 12H484.286ZM487.277 21.8536C485.388 19.0373 484.286 15.6508 484.286 12H479.714C479.714 16.5856 481.102 20.8542 483.48 24.4001L487.277 21.8536ZM499.912 50.1216L487.466 22.1964L483.291 24.0573L495.736 51.9825L499.912 50.1216ZM504.087 50.1216C503.282 51.9286 500.717 51.9286 499.912 50.1216L495.736 51.9825C498.152 57.4035 505.847 57.4035 508.263 51.9825L504.087 50.1216ZM516.531 22.201L504.087 50.1216L508.263 51.9825L520.706 24.0619L516.531 22.201Z" fill="black" mask="url(#path-174-outside-5_1369_1623)"/>
<circle cx="502" cy="12" r="15.4286" fill="white"/>
<path fill-rule="evenodd" clip-rule="evenodd" d="M352.5 220.5L352.5 213L353.5 213L353.5 220.5L352.5 220.5Z" fill="#333333"/>
<path d="M348.345 210.882C347.946 210.882 347.637 211.032 347.418 211.333C347.2 211.632 347.09 212.049 347.09 212.584C347.09 213.698 347.508 214.255 348.345 214.255C348.696 214.255 349.121 214.168 349.62 213.992V214.881C349.209 215.052 348.751 215.137 348.246 215.137C347.519 215.137 346.963 214.917 346.578 214.478C346.193 214.035 346 213.402 346 212.577C346 212.058 346.095 211.603 346.284 211.213C346.473 210.821 346.744 210.522 347.097 210.314C347.453 210.105 347.868 210 348.345 210C348.83 210 349.318 210.117 349.808 210.352L349.466 211.213C349.279 211.125 349.091 211.047 348.902 210.981C348.713 210.915 348.527 210.882 348.345 210.882Z" fill="#333333"/>
<path fill-rule="evenodd" clip-rule="evenodd" d="M353 215C351.845 215 351 215.832 351 216.75C351 217.668 351.845 218.5 353 218.5C354.155 218.5 355 217.668 355 216.75C355 215.832 354.155 215 353 215ZM350 216.75C350 215.183 351.394 214 353 214C354.606 214 356 215.183 356 216.75C356 218.317 354.606 219.5 353 219.5C351.394 219.5 350 218.317 350 216.75Z" fill="#333333"/>
<path d="M63 281C63 278.239 65.2386 276 68 276H95C97.7614 276 100 278.239 100 281H63Z" fill="#E6A513"/>
<path d="M61 282C61 281.448 61.4477 281 62 281H102C102.552 281 103 281.448 103 282C103 282.552 102.552 283 102 283H62C61.4477 283 61 282.552 61 282Z" fill="#B8840F"/>
<g clip-path="url(#clip28_1369_1623)">
<path d="M199.25 247.5H216.75V252.5H199.25V247.5Z" fill="#E6A725"/>
<path d="M199.25 241.25H216.75V246.25H199.25V241.25Z" fill="#71B62B"/>
<path d="M199.25 253.75H216.75V258.75H199.25V253.75Z" fill="#956025"/>
<path fill-rule="evenodd" clip-rule="evenodd" d="M216.75 241.25H199.25V246.25H216.75V241.25ZM216.75 247.5H199.25V252.5H216.75V247.5ZM199.25 258.75V253.75H216.75V258.75H199.25ZM198 240V260H218V240H198Z" fill="#282D36"/>
</g>
<path fill-rule="evenodd" clip-rule="evenodd" d="M503 8C500.239 8 498 10.2386 498 13C498 15.7614 500.239 18 503 18C505.761 18 508 15.7614 508 13C508 10.2386 505.761 8 503 8ZM503 10C501.343 10 500 11.3431 500 13C500 14.6569 501.343 16 503 16C504.657 16 506 14.6569 506 13C506 11.3431 504.657 10 503 10Z" fill="#353535"/>
<rect x="501" y="2" width="4" height="5" fill="#353535"/>
<rect x="496.828" y="16" width="4" height="5" transform="rotate(45 496.828 16)" fill="#353535"/>
<path d="M511 2H509V8H511V2Z" fill="#353535"/>
<path d="M513 6V4L507 4V6L513 6Z" fill="#353535"/>
<path d="M136.5 120.5H138L141 133.25H136.5V120.5Z" fill="#353535"/>
<rect x="133.5" y="131" width="12" height="2.25" fill="#353535"/>
<rect width="1.5" height="4.5" transform="matrix(-1 0 0 1 133.5 131)" fill="#353535"/>
<rect x="141.75" y="120.5" width="1.5" height="4.5" fill="#353535"/>
<rect x="140.25" y="123.5" width="1.5" height="4.5" transform="rotate(-90 140.25 123.5)" fill="#353535"/>
<g clip-path="url(#clip29_1369_1623)">
<path d="M295 87C293.895 87 293 87.8954 293 89C293 90.1046 293.895 91 295 91C296.105 91 297 90.1046 297 89C297 87.8954 296.105 87 295 87Z" fill="#353535"/>
<path fill-rule="evenodd" clip-rule="evenodd" d="M290 81L295 86L300 81H290Z" fill="#353535"/>
<rect x="294" y="70" width="2" height="11" fill="#353535"/>
<path d="M303 70H301V76H303V70Z" fill="#353535"/>
<path d="M305 74V72H299V74H305Z" fill="#353535"/>
</g>
</g>
<defs>
<clipPath id="clip0_1369_1623">
<rect width="1500" height="350" fill="white"/>
</clipPath>
<clipPath id="clip1_1369_1623">
<rect width="24" height="24" fill="white" transform="translate(928.835 48.3136) rotate(18.6826)"/>
</clipPath>
<clipPath id="clip2_1369_1623">
<rect width="24" height="24" fill="white" transform="translate(1027.36 81.6274) rotate(18.6826)"/>
</clipPath>
<clipPath id="clip3_1369_1623">
<rect width="24" height="24" fill="white" transform="translate(1125.88 114.942) rotate(18.6826)"/>
</clipPath>
<clipPath id="clip4_1369_1623">
<rect width="24" height="24" fill="white" transform="translate(1224.4 148.255) rotate(18.6826)"/>
</clipPath>
<clipPath id="clip5_1369_1623">
<rect width="24" height="24" fill="white" transform="translate(814.152 126.557) rotate(18.6826)"/>
</clipPath>
<clipPath id="clip6_1369_1623">
<rect width="24" height="24" fill="white" transform="translate(1208.23 259.812) rotate(18.6826)"/>
</clipPath>
<clipPath id="clip7_1369_1623">
<rect width="24" height="24" fill="white" transform="translate(1306.75 293.126) rotate(18.6826)"/>
</clipPath>
<clipPath id="clip8_1369_1623">
<rect width="24" height="24" fill="white" transform="translate(567.485 50.6365) rotate(18.6826)"/>
</clipPath>
<clipPath id="clip9_1369_1623">
<rect width="24" height="24" fill="white" transform="translate(666.005 83.9504) rotate(18.6826)"/>
</clipPath>
<clipPath id="clip10_1369_1623">
<rect width="24" height="24" fill="white" transform="translate(206.927 64.1597) rotate(18.6826)"/>
</clipPath>
<clipPath id="clip11_1369_1623">
<rect width="24" height="24" fill="white" transform="translate(305.447 97.4734) rotate(18.6826)"/>
</clipPath>
<clipPath id="clip12_1369_1623">
<rect width="24" height="24" fill="white" transform="translate(403.967 130.787) rotate(18.6826)"/>
</clipPath>
<clipPath id="clip13_1369_1623">
<rect width="24" height="24" fill="white" transform="translate(403.967 130.787) rotate(18.6826)"/>
</clipPath>
<clipPath id="clip14_1369_1623">
<rect width="24" height="24" fill="white" transform="translate(502.487 164.101) rotate(18.6826)"/>
</clipPath>
<clipPath id="clip15_1369_1623">
<rect width="24" height="24" fill="white" transform="translate(601.441 197.474) rotate(18.6826)"/>
</clipPath>
<clipPath id="clip16_1369_1623">
<rect width="24" height="24" fill="white" transform="translate(106.835 154.781) rotate(18.6826)"/>
</clipPath>
<clipPath id="clip17_1369_1623">
<rect width="24" height="24" fill="white" transform="translate(205.355 188.095) rotate(18.6826)"/>
</clipPath>
<clipPath id="clip18_1369_1623">
<rect width="24" height="24" fill="white" transform="translate(303.875 221.409) rotate(18.6826)"/>
</clipPath>
<clipPath id="clip19_1369_1623">
<rect width="24" height="24" fill="white" transform="translate(402.395 254.723) rotate(18.6826)"/>
</clipPath>
<clipPath id="clip20_1369_1623">
<rect width="24" height="24" fill="white" transform="translate(500.885 288.316) rotate(18.6826)"/>
</clipPath>
<clipPath id="clip21_1369_1623">
<rect width="24" height="24" fill="white" transform="translate(56.9871 261.669) rotate(18.6826)"/>
</clipPath>
<clipPath id="clip22_1369_1623">
<rect width="24" height="24" fill="white" transform="translate(897.835 298.314) rotate(18.6826)"/>
</clipPath>
<clipPath id="clip23_1369_1623">
<rect width="24" height="24" fill="white" transform="translate(996.355 331.627) rotate(18.6826)"/>
</clipPath>
<clipPath id="clip24_1369_1623">
<rect width="24" height="24" fill="white" transform="translate(1088.08 -6.05872) rotate(18.6826)"/>
</clipPath>
<clipPath id="clip25_1369_1623">
<rect width="24" height="24" fill="white" transform="translate(1088.08 -6.05872) rotate(18.6826)"/>
</clipPath>
<clipPath id="clip26_1369_1623">
<rect width="24" height="24" fill="white" transform="translate(1186.6 27.2551) rotate(18.6826)"/>
</clipPath>
<clipPath id="clip27_1369_1623">
<rect width="24" height="24" fill="white" transform="translate(1285.09 60.1431) rotate(18.6826)"/>
</clipPath>
<clipPath id="clip28_1369_1623">
<rect width="20" height="20" fill="white" transform="translate(198 240)"/>
</clipPath>
<clipPath id="clip29_1369_1623">
<rect width="24" height="24" fill="white" transform="translate(283 68)"/>
</clipPath>
</defs>
</svg>
