<svg width="1208" height="350" viewBox="0 0 1208 350" fill="none" xmlns="http://www.w3.org/2000/svg">
<g clip-path="url(#clip0_1369_1623)">
<rect width="1208" height="350" fill="#FCE9CD"/>
<path d="M-22 298C-15.4017 297.01 192.913 297.467 320.188 297.894C336.8 297.95 350.23 284.501 350.23 267.889V245.777C350.23 229.208 336.798 215.777 320.23 215.777H169.761C153.193 215.777 139.761 202.345 139.761 185.777V159.978C139.761 143.41 153.193 129.978 169.761 129.978H380.555C397.124 129.978 410.555 116.547 410.555 99.9782V78.2016C410.555 61.6331 423.987 48.2016 440.555 48.2016H566C582.569 48.2016 596 34.7702 596 18.2016V-30" stroke="#8B8B8B" stroke-width="30"/>
<path d="M-22 298C-15.4017 297.01 192.913 297.467 320.188 297.894C336.8 297.95 350.23 284.501 350.23 267.889V245.777C350.23 229.208 336.798 215.777 320.23 215.777H169.761C153.193 215.777 139.761 202.345 139.761 185.777V159.978C139.761 143.41 153.193 129.978 169.761 129.978H380.555C397.124 129.978 410.555 116.547 410.555 99.9782V78.2016C410.555 61.6331 423.987 48.2016 440.555 48.2016H566C582.569 48.2016 596 34.7702 596 18.2016V-30" stroke="#FEC955" stroke-width="4" stroke-dasharray="12 12"/>
<path fill-rule="evenodd" clip-rule="evenodd" d="M83.2526 218.256C84.2548 217.677 84.9292 216.593 84.9292 215.352C84.9292 213.501 83.4283 212 81.5769 212C79.7255 212 78.2246 213.501 78.2246 215.352C78.2246 216.593 78.8986 217.676 79.9003 218.256V280.722H83.2526V247.467L116.775 232.951L83.2526 218.436V218.256Z" fill="#E6A513"/>
<mask id="path-4-outside-1_1369_1623" maskUnits="userSpaceOnUse" x="331" y="196" width="39" height="59" fill="black">
<rect fill="white" x="331" y="196" width="39" height="59"/>
<path fill-rule="evenodd" clip-rule="evenodd" d="M365.043 225.238C366.91 222.454 368 219.104 368 215.5C368 205.835 360.165 198 350.5 198C340.835 198 333 205.835 333 215.5C333 219.104 334.09 222.454 335.957 225.238L346.846 249.671C348.256 252.833 352.744 252.833 354.154 249.671L365.043 225.238Z"/>
</mask>
<path fill-rule="evenodd" clip-rule="evenodd" d="M365.043 225.238C366.91 222.454 368 219.104 368 215.5C368 205.835 360.165 198 350.5 198C340.835 198 333 205.835 333 215.5C333 219.104 334.09 222.454 335.957 225.238L346.846 249.671C348.256 252.833 352.744 252.833 354.154 249.671L365.043 225.238Z" fill="#70A739"/>
<path d="M365.043 225.238L363.382 224.124L363.286 224.267L363.216 224.424L365.043 225.238ZM335.957 225.238L337.784 224.424L337.714 224.267L337.618 224.124L335.957 225.238ZM346.846 249.671L348.673 248.856L346.846 249.671ZM354.154 249.671L355.98 250.485L354.154 249.671ZM366 215.5C366 218.695 365.035 221.659 363.382 224.124L366.703 226.352C368.785 223.249 370 219.513 370 215.5H366ZM350.5 200C359.06 200 366 206.94 366 215.5H370C370 204.73 361.27 196 350.5 196V200ZM335 215.5C335 206.94 341.94 200 350.5 200V196C339.73 196 331 204.73 331 215.5H335ZM337.618 224.124C335.965 221.659 335 218.695 335 215.5H331C331 219.513 332.215 223.249 334.297 226.352L337.618 224.124ZM348.673 248.856L337.784 224.424L334.131 226.052L345.02 250.485L348.673 248.856ZM352.327 248.856C351.622 250.438 349.378 250.438 348.673 248.856L345.02 250.485C347.134 255.228 353.866 255.228 355.98 250.485L352.327 248.856ZM363.216 224.424L352.327 248.856L355.98 250.485L366.869 226.052L363.216 224.424Z" fill="black" mask="url(#path-4-outside-1_1369_1623)"/>
<circle cx="350.5" cy="215.5" r="13.5" fill="white"/>
<mask id="path-7-outside-2_1369_1623" maskUnits="userSpaceOnUse" x="182" y="225" width="52" height="81" fill="black">
<rect fill="white" x="182" y="225" width="52" height="81"/>
<path fill-rule="evenodd" clip-rule="evenodd" d="M227.942 264.358C230.505 260.539 232 255.944 232 251C232 237.745 221.255 227 208 227C194.745 227 184 237.745 184 251C184 255.942 185.494 260.535 188.054 264.352L204.346 300.907C205.755 304.07 210.244 304.07 211.653 300.907L227.942 264.358Z"/>
</mask>
<path fill-rule="evenodd" clip-rule="evenodd" d="M227.942 264.358C230.505 260.539 232 255.944 232 251C232 237.745 221.255 227 208 227C194.745 227 184 237.745 184 251C184 255.942 185.494 260.535 188.054 264.352L204.346 300.907C205.755 304.07 210.244 304.07 211.653 300.907L227.942 264.358Z" fill="#70A739"/>
<path d="M227.942 264.358L226.281 263.243L226.185 263.386L226.115 263.544L227.942 264.358ZM188.054 264.352L189.881 263.538L189.811 263.381L189.715 263.238L188.054 264.352ZM204.346 300.907L202.519 301.722L204.346 300.907ZM211.653 300.907L209.826 300.093L211.653 300.907ZM230 251C230 255.535 228.63 259.744 226.281 263.243L229.603 265.472C232.38 261.335 234 256.353 234 251H230ZM208 229C220.15 229 230 238.85 230 251H234C234 236.641 222.359 225 208 225V229ZM186 251C186 238.85 195.85 229 208 229V225C193.641 225 182 236.641 182 251H186ZM189.715 263.238C187.369 259.74 186 255.533 186 251H182C182 256.351 183.619 261.33 186.393 265.466L189.715 263.238ZM206.173 300.093L189.881 263.538L186.227 265.166L202.519 301.722L206.173 300.093ZM209.826 300.093C209.121 301.674 206.877 301.674 206.173 300.093L202.519 301.722C204.633 306.465 211.366 306.465 213.48 301.722L209.826 300.093ZM226.115 263.544L209.826 300.093L213.48 301.722L229.769 265.172L226.115 263.544Z" fill="black" mask="url(#path-7-outside-2_1369_1623)"/>
<ellipse cx="208" cy="250.573" rx="19" ry="18.5" fill="white"/>
<mask id="path-10-outside-3_1369_1623" maskUnits="userSpaceOnUse" x="119" y="109" width="39" height="59" fill="black">
<rect fill="white" x="119" y="109" width="39" height="59"/>
<path fill-rule="evenodd" clip-rule="evenodd" d="M153.043 138.238C154.91 135.454 156 132.104 156 128.5C156 118.835 148.165 111 138.5 111C128.835 111 121 118.835 121 128.5C121 132.104 122.09 135.454 123.957 138.238L134.846 162.671C136.256 165.833 140.744 165.833 142.154 162.671L153.043 138.238Z"/>
</mask>
<path fill-rule="evenodd" clip-rule="evenodd" d="M153.043 138.238C154.91 135.454 156 132.104 156 128.5C156 118.835 148.165 111 138.5 111C128.835 111 121 118.835 121 128.5C121 132.104 122.09 135.454 123.957 138.238L134.846 162.671C136.256 165.833 140.744 165.833 142.154 162.671L153.043 138.238Z" fill="#70A739"/>
<path d="M153.043 138.238L151.382 137.124L151.286 137.267L151.216 137.424L153.043 138.238ZM123.957 138.238L125.784 137.424L125.714 137.267L125.618 137.124L123.957 138.238ZM134.846 162.671L136.673 161.856L134.846 162.671ZM142.154 162.671L143.98 163.485L142.154 162.671ZM154 128.5C154 131.695 153.035 134.659 151.382 137.124L154.703 139.352C156.785 136.249 158 132.513 158 128.5H154ZM138.5 113C147.06 113 154 119.94 154 128.5H158C158 117.73 149.27 109 138.5 109V113ZM123 128.5C123 119.94 129.94 113 138.5 113V109C127.73 109 119 117.73 119 128.5H123ZM125.618 137.124C123.965 134.659 123 131.695 123 128.5H119C119 132.513 120.215 136.249 122.297 139.352L125.618 137.124ZM136.673 161.856L125.784 137.424L122.131 139.052L133.02 163.485L136.673 161.856ZM140.327 161.856C139.622 163.438 137.378 163.438 136.673 161.856L133.02 163.485C135.134 168.228 141.866 168.228 143.98 163.485L140.327 161.856ZM151.216 137.424L140.327 161.856L143.98 163.485L154.869 139.052L151.216 137.424Z" fill="black" mask="url(#path-10-outside-3_1369_1623)"/>
<circle cx="138.5" cy="128.5" r="13.5" fill="white"/>
<mask id="path-13-outside-4_1369_1623" maskUnits="userSpaceOnUse" x="270" y="56" width="50" height="77" fill="black">
<rect fill="white" x="270" y="56" width="50" height="77"/>
<path fill-rule="evenodd" clip-rule="evenodd" d="M314.111 93.8012C316.567 90.1419 318 85.7383 318 81C318 68.2975 307.703 58 295 58C282.297 58 272 68.2975 272 81C272 85.7359 273.431 90.1376 275.885 93.7958L291.346 128.486C292.755 131.649 297.244 131.649 298.653 128.486L314.111 93.8012Z"/>
</mask>
<path fill-rule="evenodd" clip-rule="evenodd" d="M314.111 93.8012C316.567 90.1419 318 85.7383 318 81C318 68.2975 307.703 58 295 58C282.297 58 272 68.2975 272 81C272 85.7359 273.431 90.1376 275.885 93.7958L291.346 128.486C292.755 131.649 297.244 131.649 298.653 128.486L314.111 93.8012Z" fill="#70A739"/>
<path d="M314.111 93.8012L312.451 92.6867L312.355 92.8297L312.284 92.9871L314.111 93.8012ZM275.885 93.7958L277.712 92.9817L277.642 92.8246L277.546 92.6817L275.885 93.7958ZM291.346 128.486L289.519 129.3L291.346 128.486ZM298.653 128.486L300.48 129.3L298.653 128.486ZM316 81C316 85.3291 314.692 89.3466 312.451 92.6867L315.772 94.9158C318.442 90.9371 320 86.1475 320 81H316ZM295 60C306.598 60 316 69.402 316 81H320C320 67.1929 308.807 56 295 56V60ZM274 81C274 69.402 283.402 60 295 60V56C281.193 56 270 67.1929 270 81H274ZM277.546 92.6817C275.306 89.3427 274 85.3269 274 81H270C270 86.1449 271.556 90.9324 274.224 94.9099L277.546 92.6817ZM293.173 127.672L277.712 92.9817L274.058 94.61L289.519 129.3L293.173 127.672ZM296.826 127.672C296.122 129.253 293.877 129.253 293.173 127.672L289.519 129.3C291.633 134.044 298.366 134.044 300.48 129.3L296.826 127.672ZM312.284 92.9871L296.826 127.672L300.48 129.3L315.938 94.6154L312.284 92.9871Z" fill="black" mask="url(#path-13-outside-4_1369_1623)"/>
<circle cx="295" cy="80.9847" r="18" fill="white"/>
<mask id="path-16-outside-5_1369_1623" maskUnits="userSpaceOnUse" x="479" y="-11" width="46" height="68" fill="black">
<rect fill="white" x="479" y="-11" width="46" height="68"/>
<path fill-rule="evenodd" clip-rule="evenodd" d="M518.618 23.1315C520.754 19.9495 522 16.1202 522 12C522 0.954305 513.046 -8 502 -8C490.954 -8 482 0.954305 482 12C482 16.1182 483.245 19.9457 485.378 23.1268L497.824 51.052C499.435 54.6661 504.564 54.666 506.175 51.052L518.618 23.1315Z"/>
</mask>
<path fill-rule="evenodd" clip-rule="evenodd" d="M518.618 23.1315C520.754 19.9495 522 16.1202 522 12C522 0.954305 513.046 -8 502 -8C490.954 -8 482 0.954305 482 12C482 16.1182 483.245 19.9457 485.378 23.1268L497.824 51.052C499.435 54.6661 504.564 54.666 506.175 51.052L518.618 23.1315Z" fill="#70A739"/>
<path d="M518.618 23.1315L516.721 21.8577L516.611 22.0212L516.531 22.201L518.618 23.1315ZM485.378 23.1268L487.466 22.1964L487.386 22.0168L487.277 21.8536L485.378 23.1268ZM497.824 51.052L499.912 50.1216L497.824 51.052ZM506.175 51.052L504.087 50.1216L506.175 51.052ZM519.714 12C519.714 15.6526 518.611 19.0406 516.721 21.8577L520.516 24.4053C522.897 20.8583 524.286 16.5879 524.286 12H519.714ZM502 -5.71429C511.783 -5.71429 519.714 2.21667 519.714 12H524.286C524.286 -0.308061 514.308 -10.2857 502 -10.2857V-5.71429ZM484.286 12C484.286 2.21667 492.217 -5.71429 502 -5.71429V-10.2857C489.692 -10.2857 479.714 -0.30806 479.714 12H484.286ZM487.277 21.8536C485.388 19.0373 484.286 15.6508 484.286 12H479.714C479.714 16.5856 481.102 20.8542 483.48 24.4001L487.277 21.8536ZM499.912 50.1216L487.466 22.1964L483.291 24.0573L495.736 51.9825L499.912 50.1216ZM504.087 50.1216C503.282 51.9286 500.717 51.9286 499.912 50.1216L495.736 51.9825C498.152 57.4035 505.847 57.4035 508.263 51.9825L504.087 50.1216ZM516.531 22.201L504.087 50.1216L508.263 51.9825L520.706 24.0619L516.531 22.201Z" fill="black" mask="url(#path-16-outside-5_1369_1623)"/>
<circle cx="502" cy="12" r="15.4286" fill="white"/>
<g opacity="0.38">
<path fill-rule="evenodd" clip-rule="evenodd" d="M673.357 9.1343L688.514 14.2595C689.556 14.6119 690.12 15.7527 689.767 16.7948L686.265 27.1537C686.851 25.3656 686.678 23.5078 685.919 21.9335L685.951 21.838L685.855 21.8057C685.056 20.2293 683.662 18.9529 681.855 18.3419C680.049 17.731 678.166 17.8997 676.574 18.6672L676.478 18.6347L676.445 18.7308C674.869 19.5305 673.593 20.9241 672.982 22.7308C672.371 24.5375 672.54 26.4197 673.307 28.0119L673.275 28.1078L673.37 28.1402C674.165 29.7057 675.545 30.9755 677.333 31.5914L666.95 28.0805C665.908 27.7281 665.344 26.5872 665.696 25.5452L670.821 10.3883C671.174 9.34623 672.315 8.78194 673.357 9.1343ZM667.591 26.1858L671.38 27.4671L672.661 23.6779L668.872 22.3966L667.591 26.1858ZM669.513 20.502L673.302 21.7833L674.583 17.9941L670.794 16.7128L669.513 20.502ZM671.435 14.8182L675.224 16.0995L676.505 12.3102L672.716 11.0289L671.435 14.8182ZM677.118 16.7401L680.908 18.0214L682.189 14.2322L678.4 12.9509L677.118 16.7401ZM682.802 18.662L686.592 19.9433L687.873 16.1541L684.084 14.8728L682.802 18.662Z" fill="#EDA768"/>
<rect x="675.267" y="24.8757" width="2.15921" height="2.15921" transform="rotate(-26.3174 675.267 24.8757)" fill="#EDA768"/>
<rect x="680.106" y="22.4832" width="2.15921" height="2.15921" transform="rotate(-26.3174 680.106 22.4832)" fill="#EDA768"/>
<path fill-rule="evenodd" clip-rule="evenodd" d="M675.268 24.8762L677.203 23.9189L678.157 25.8478L676.222 26.8051L675.268 24.8762ZM676.665 27.7015L677.421 29.2309C678.347 31.1015 680.613 31.8679 682.484 30.9427C684.354 30.0174 685.121 27.751 684.195 25.8804L683.439 24.351L681.504 25.3083L682.26 26.8377C682.657 27.6394 682.328 28.6107 681.526 29.0072C680.725 29.4038 679.753 29.0753 679.357 28.2736L678.6 26.7442L676.665 27.7015ZM681.06 24.4119L682.996 23.4546L682.042 21.5258L680.106 22.483L681.06 24.4119Z" fill="#EDA768"/>
<path d="M677.091 23.0644L677.185 22.787C677.33 22.3581 677.639 22.0043 678.045 21.8036V21.8036C678.451 21.6029 678.92 21.5716 679.349 21.7166L679.626 21.8104" stroke="#EDA768"/>
<path d="M675.197 22.4239L675.384 21.869C675.674 21.0112 676.293 20.3037 677.105 19.9023V19.9023C677.916 19.5008 678.854 19.4382 679.712 19.7283L680.267 19.9159" stroke="#EDA768"/>
<g clip-path="url(#clip1_1369_1623)">
<path fill-rule="evenodd" clip-rule="evenodd" d="M775.57 65.865L780.375 51.6554L782.27 52.296L777.465 66.5056L775.57 65.865Z" fill="#EDA768"/>
<path d="M773.859 44.9801C773.104 44.7247 772.422 44.8118 771.815 45.2415C771.21 45.6669 770.735 46.3869 770.392 47.4014C769.678 49.5125 770.114 50.8359 771.698 51.3717C772.363 51.5965 773.224 51.7025 774.282 51.6898L773.713 53.3735C772.826 53.4345 771.904 53.303 770.945 52.9789C769.568 52.5133 768.656 51.7405 768.208 50.6605C767.761 49.5763 767.802 48.2528 768.331 46.69C768.664 45.7056 769.134 44.905 769.742 44.2879C770.351 43.6665 771.057 43.2725 771.859 43.1059C772.667 42.9365 773.522 43.0043 774.424 43.3094C775.344 43.6203 776.193 44.1551 776.97 44.9136L775.771 46.3265C775.474 46.0384 775.167 45.7712 774.851 45.5249C774.535 45.2785 774.205 45.0969 773.859 44.9801Z" fill="#EDA768"/>
<path fill-rule="evenodd" clip-rule="evenodd" d="M780.041 55.7647C777.852 55.0245 775.719 56.0592 775.131 57.799C774.542 59.5387 775.61 61.6556 777.799 62.3958C779.988 63.1361 782.121 62.1013 782.709 60.3616C783.297 58.6218 782.23 56.5049 780.041 55.7647ZM773.236 57.1583C774.24 54.1894 777.639 52.8412 780.682 53.8701C783.724 54.899 785.608 58.0333 784.604 61.0022C783.6 63.9711 780.201 65.3193 777.158 64.2905C774.115 63.2616 772.232 60.1272 773.236 57.1583Z" fill="#EDA768"/>
</g>
<g clip-path="url(#clip2_1369_1623)">
<path d="M878.351 89.0012L882.808 90.5146L881.306 94.9755L880.198 92.7356L871.228 97.1712L870.49 95.6779L879.459 91.2411L878.351 89.0012Z" fill="#EDA768"/>
<path d="M880.913 81.4229L885.37 82.9364L883.868 87.3973L882.76 85.1574L864.918 93.9818L864.179 92.4885L882.021 83.6628L880.913 81.4229Z" fill="#EDA768"/>
<path d="M873.654 77.9124L878.112 79.4259L876.609 83.8868L875.502 81.6469L866.532 86.0825L865.794 84.5892L874.762 80.1523L873.654 77.9124Z" fill="#EDA768"/>
</g>
<g clip-path="url(#clip3_1369_1623)">
<path d="M963.158 119.867L966 120.828L968.691 117.55L968.7 125.33L971.644 119.745L974.588 114.161L971.831 130.118L978.677 119.238L979.444 124.775L982.285 125.736" stroke="#EDA768" stroke-width="2" stroke-linejoin="round"/>
<rect width="2" height="4" transform="matrix(-0.947308 -0.320325 -0.320325 0.947308 985.969 114.842)" fill="#EDA768"/>
<rect width="2" height="2" transform="matrix(-0.947308 -0.320325 -0.320325 0.947308 982.486 115.775)" fill="#EDA768"/>
<rect width="2" height="1" transform="matrix(-0.947308 -0.320325 -0.320325 0.947308 979.324 115.762)" fill="#EDA768"/>
</g>
<g clip-path="url(#clip4_1369_1623)">
<path d="M1070.59 145.566L1070.3 146.409L1071.55 148.944L1072.48 146.206L1076.27 147.488L1074.99 151.277L1072.25 150.351L1073.5 152.886L1074.35 153.172L1074.06 154.015L1075.32 156.55L1076.24 153.812L1080.03 155.093L1078.75 158.883L1076.01 157.957L1077.27 160.492L1078.11 160.777L1077.82 161.62L1079.08 164.156L1083.85 150.05C1084.2 149.008 1083.64 147.867 1082.59 147.515L1068.49 142.745L1069.74 145.281L1070.59 145.566ZM1078.16 148.128L1081.95 149.41L1080.67 153.199L1076.88 151.918L1078.16 148.128ZM1065.26 140.745L1063.47 141.63L1064.73 144.165L1059.78 158.801C1059.42 159.843 1059.99 160.984 1061.03 161.336L1075.67 166.285L1076.93 168.833L1078.71 167.949L1065.26 140.745ZM1069.74 154.306L1070.65 156.144L1069.28 155.679L1069.74 154.306ZM1065.98 146.7L1066.89 148.538L1065.52 148.074L1065.98 146.7ZM1065.46 160.723L1061.67 159.441L1062.95 155.652L1066.74 156.933L1065.46 160.723ZM1067.38 155.039L1063.59 153.758L1064.87 149.968L1068.14 151.073L1068.49 151.771L1067.38 155.039ZM1071.14 162.645L1067.36 161.363L1068.64 157.574L1071.9 158.679L1072.25 159.376L1071.14 162.645ZM1073.04 163.285L1073.5 161.912L1074.41 163.75L1073.04 163.285Z" fill="#EDA768"/>
</g>
</g>
<g opacity="0.38">
<g clip-path="url(#clip5_1369_1623)">
<path d="M670.949 126.3L659.929 115.184L658.034 114.544L653.432 128.153L651.538 127.512L653.376 131.442L657.222 129.434L655.327 128.794L659.128 117.553L663.064 121.523L660.063 130.395L658.169 129.755L660.007 133.684L663.853 131.676L661.958 131.036L664.673 123.007L668.594 127.02L666.695 132.637L664.8 131.997L666.638 135.926L670.484 133.919L668.589 133.278L670.949 126.3Z" fill="#EDA768"/>
<path d="M673.993 117.301L672.098 116.66L670.176 122.344L672.071 122.985L673.993 117.301Z" fill="#EDA768"/>
<path d="M674.606 121.731L675.247 119.836L669.563 117.914L668.922 119.809L674.606 121.731Z" fill="#EDA768"/>
</g>
<path d="M755.141 145.796L752.578 153.375C752.386 153.943 752.637 154.45 753.205 154.642L771.538 156.619C772.107 156.811 772.614 156.56 772.806 155.992L774.087 152.203C774.279 151.634 774.029 151.127 773.46 150.935L756.409 145.169C755.84 144.977 755.333 145.228 755.141 145.796ZM771.232 154.404L754.793 153.068L756.715 147.384L771.872 152.509L771.232 154.404Z" fill="#EDA768"/>
<path fill-rule="evenodd" clip-rule="evenodd" d="M762.278 157.975C762.421 158.223 762.45 158.521 762.358 158.793L759.796 166.371C759.619 166.895 759.051 167.175 758.528 166.998L750.002 164.116C749.479 163.939 749.198 163.371 749.375 162.848L751.618 156.217C751.779 155.739 752.271 155.456 752.765 155.557L761.611 157.493C761.892 157.55 762.135 157.726 762.278 157.975ZM753.229 157.694L751.59 162.541L758.221 164.784L760.101 159.225L753.229 157.694Z" fill="#EDA768"/>
<path fill-rule="evenodd" clip-rule="evenodd" d="M771.381 158.865C771.576 159.128 771.63 159.471 771.525 159.782L768.322 169.255C768.145 169.778 767.577 170.058 767.054 169.882L762.318 168.28C761.794 168.103 761.514 167.535 761.691 167.012L764.413 158.96C764.547 158.565 764.911 158.295 765.328 158.281L770.545 158.462C770.873 158.451 771.185 158.602 771.381 158.865ZM766.086 160.257L763.906 166.706L766.747 167.667L769.168 160.508L766.086 160.257Z" fill="#EDA768"/>
<path fill-rule="evenodd" clip-rule="evenodd" d="M853.898 189.113C854.169 188.311 853.504 187.524 852.731 187.869C851.259 188.528 850.054 189.776 849.497 191.425C848.435 194.564 850.119 197.969 853.259 199.031C856.398 200.092 859.803 198.408 860.864 195.269C861.422 193.62 861.222 191.897 860.451 190.479C860.047 189.736 859.041 189.958 858.77 190.759C858.661 191.082 858.709 191.432 858.845 191.743C859.231 192.624 859.302 193.646 858.97 194.628C858.262 196.721 855.992 197.844 853.899 197.136C851.806 196.429 850.684 194.158 851.391 192.066C851.723 191.083 852.4 190.315 853.241 189.849C853.538 189.684 853.789 189.435 853.898 189.113Z" fill="#EDA768"/>
<rect x="856.475" y="186.395" width="2" height="6" rx="1" transform="rotate(18.6826 856.475 186.395)" fill="#EDA768"/>
<path fill-rule="evenodd" clip-rule="evenodd" d="M862.173 185.155C861.65 184.978 861.083 185.259 860.906 185.782L860.172 187.951C860.788 188.387 861.32 188.914 861.758 189.506L862.8 186.423C862.977 185.9 862.696 185.332 862.173 185.155Z" fill="#EDA768"/>
<path fill-rule="evenodd" clip-rule="evenodd" d="M867.243 182.647C866.72 182.47 866.153 182.751 865.976 183.274L865.242 185.443C865.858 185.878 866.39 186.405 866.828 186.998L867.87 183.915C868.047 183.391 867.766 182.824 867.243 182.647Z" fill="#EDA768"/>
<path fill-rule="evenodd" clip-rule="evenodd" d="M867.123 194.893C868.744 194.279 870.088 192.972 870.686 191.201C871.244 189.552 871.044 187.829 870.273 186.411C869.868 185.668 868.862 185.89 868.592 186.692C868.483 187.014 868.531 187.364 868.667 187.676C869.053 188.557 869.124 189.578 868.792 190.561C868.647 190.988 868.438 191.374 868.179 191.713C868.134 192.276 868.019 192.843 867.83 193.402C867.649 193.937 867.41 194.435 867.123 194.893Z" fill="#EDA768"/>
<path fill-rule="evenodd" clip-rule="evenodd" d="M954.397 212.118L969.554 217.243C970.596 217.596 971.16 218.737 970.808 219.779L967.307 230.132C967.891 228.346 967.717 226.49 966.959 224.917L966.991 224.822L966.896 224.79C966.096 223.213 964.703 221.937 962.896 221.326C961.089 220.715 959.207 220.884 957.615 221.651L957.518 221.619L957.486 221.715C955.91 222.515 954.633 223.908 954.022 225.715C953.412 227.521 953.58 229.404 954.348 230.996L954.315 231.092L954.411 231.124C955.204 232.688 956.583 233.957 958.369 234.574L947.991 231.064C946.949 230.712 946.384 229.571 946.737 228.529L951.862 213.372C952.214 212.33 953.355 211.766 954.397 212.118ZM948.631 229.17L952.42 230.451L953.702 226.662L949.913 225.381L948.631 229.17ZM950.553 223.486L954.342 224.767L955.624 220.978L951.835 219.697L950.553 223.486ZM952.475 217.802L956.264 219.083L957.546 215.294L953.756 214.013L952.475 217.802ZM958.159 219.724L961.948 221.005L963.23 217.216L959.44 215.935L958.159 219.724ZM963.843 221.646L967.632 222.927L968.913 219.138L965.124 217.857L963.843 221.646Z" fill="#EDA768"/>
<rect x="956.307" y="227.859" width="2.15921" height="2.15921" transform="rotate(-26.3174 956.307 227.859)" fill="#EDA768"/>
<rect x="961.146" y="225.467" width="2.15921" height="2.15921" transform="rotate(-26.3174 961.146 225.467)" fill="#EDA768"/>
<path fill-rule="evenodd" clip-rule="evenodd" d="M956.307 227.859L958.243 226.902L959.197 228.831L957.261 229.789L956.307 227.859ZM957.705 230.685L958.461 232.214C959.386 234.085 961.653 234.851 963.523 233.926C965.394 233 966.16 230.734 965.235 228.863L964.479 227.334L962.543 228.292L963.3 229.821C963.696 230.622 963.368 231.594 962.566 231.99C961.764 232.387 960.793 232.058 960.396 231.257L959.64 229.728L957.705 230.685ZM962.1 227.395L964.035 226.438L963.081 224.509L961.146 225.466L962.1 227.395Z" fill="#EDA768"/>
<path d="M958.131 226.048L958.225 225.77C958.37 225.342 958.679 224.988 959.085 224.787V224.787C959.491 224.586 959.96 224.555 960.389 224.7L960.666 224.794" stroke="#EDA768"/>
<path d="M956.237 225.408L956.425 224.853C956.715 223.995 957.334 223.288 958.145 222.886V222.886C958.957 222.485 959.895 222.422 960.753 222.712L961.307 222.9" stroke="#EDA768"/>
<g clip-path="url(#clip6_1369_1623)">
<path d="M1062.9 268.976L1068.67 251.927C1068.67 251.926 1068.67 251.926 1068.67 251.925L1062.98 250.004C1062.98 250.004 1062.98 250.004 1062.98 250.005L1057.22 267.054C1057.22 267.055 1057.22 267.055 1057.22 267.056L1062.9 268.977C1062.9 268.977 1062.9 268.977 1062.9 268.976Z" stroke="#EDA768" stroke-width="2" stroke-miterlimit="10"/>
<path d="M1051.53 265.133L1057.3 248.083C1057.3 248.082 1057.3 248.082 1057.3 248.082L1051.62 246.16C1051.62 246.16 1051.62 246.16 1051.62 246.161L1045.85 263.211C1045.85 263.211 1045.85 263.212 1045.85 263.212L1051.53 265.133C1051.53 265.133 1051.53 265.133 1051.53 265.133Z" stroke="#EDA768" stroke-width="2" stroke-miterlimit="10"/>
<path d="M1060.49 247.994L1054.05 267.04" stroke="#EDA768" stroke-width="2" stroke-miterlimit="10" stroke-linecap="round" stroke-dasharray="3 3"/>
</g>
<g clip-path="url(#clip7_1369_1623)">
<path d="M1154.59 281.921L1154.3 282.764L1155.55 285.3L1156.48 282.562L1160.27 283.843L1158.99 287.632L1156.25 286.707L1157.5 289.242L1158.35 289.527L1158.06 290.37L1159.32 292.905L1160.24 290.168L1164.03 291.449L1162.75 295.238L1160.01 294.312L1161.27 296.848L1162.11 297.133L1161.82 297.976L1163.08 300.511L1167.85 286.406C1168.2 285.364 1167.64 284.223 1166.59 283.87L1152.49 279.101L1153.74 281.636L1154.59 281.921ZM1162.16 284.484L1165.95 285.765L1164.67 289.554L1160.88 288.273L1162.16 284.484ZM1149.26 277.101L1147.47 277.985L1148.73 280.52L1143.78 295.156C1143.42 296.198 1143.99 297.339 1145.03 297.691L1159.67 302.64L1160.93 305.188L1162.71 304.304L1149.26 277.101ZM1153.74 290.661L1154.65 292.499L1153.28 292.035L1153.74 290.661ZM1149.98 283.056L1150.89 284.894L1149.51 284.429L1149.98 283.056ZM1149.46 297.078L1145.67 295.797L1146.95 292.008L1150.74 293.289L1149.46 297.078ZM1151.38 291.394L1147.59 290.113L1148.87 286.324L1152.14 287.429L1152.49 288.126L1151.38 291.394ZM1155.14 299L1151.35 297.719L1152.64 293.93L1155.9 295.035L1156.25 295.732L1155.14 299ZM1157.04 299.641L1157.5 298.267L1158.41 300.105L1157.04 299.641Z" fill="#EDA768"/>
</g>
</g>
<g opacity="0.38">
<path fill-rule="evenodd" clip-rule="evenodd" d="M261.525 -4.27149C261.796 -5.07279 261.131 -5.85984 260.359 -5.51455C258.885 -4.85573 257.681 -3.60798 257.123 -1.95856C256.061 1.18054 257.746 4.58578 260.885 5.64724C264.024 6.7087 267.429 5.02444 268.491 1.88534C269.048 0.236399 268.848 -1.48598 268.077 -2.9035C267.673 -3.64679 266.667 -3.42472 266.396 -2.62328C266.287 -2.30109 266.335 -1.9509 266.472 -1.63932C266.857 -0.758828 266.928 0.262474 266.596 1.24469C265.888 3.33743 263.618 4.46027 261.525 3.75262C259.433 3.04498 258.31 0.774827 259.017 -1.31791C259.35 -2.30045 260.026 -3.0692 260.867 -3.53509C261.165 -3.69994 261.416 -3.94921 261.525 -4.27149Z" fill="#EDA768"/>
<path fill-rule="evenodd" clip-rule="evenodd" d="M269.678 4.0156C271.299 3.402 272.642 2.09465 273.241 0.324857C273.799 -1.32432 273.598 -3.04695 272.827 -4.46459C272.423 -5.20777 271.417 -4.98568 271.146 -4.18431C271.037 -3.86207 271.085 -3.51184 271.222 -3.20024C271.607 -2.31965 271.678 -1.29817 271.346 -0.315792C271.202 0.110493 270.993 0.496535 270.734 0.835059C270.689 1.39874 270.575 1.96604 270.385 2.52609C270.205 3.06026 269.966 3.55832 269.678 4.0156Z" fill="#EDA768"/>
<path fill-rule="evenodd" clip-rule="evenodd" d="M362.022 18.7339L377.179 23.8591C378.221 24.2115 378.786 25.3523 378.433 26.3944L373.308 41.5513C373.307 41.5533 373.307 41.5552 373.306 41.5572L374.91 36.8148C375.521 35.008 375.352 33.1256 374.584 31.5333L374.617 31.4376L374.521 31.4052C373.721 29.8288 372.328 28.5523 370.521 27.9413C368.714 27.3304 366.832 27.4991 365.239 28.2667L365.144 28.2343L365.111 28.33C363.535 29.1297 362.258 30.5234 361.647 32.3302C361.036 34.137 361.205 36.0194 361.973 37.6117L361.94 37.7074L362.036 37.7398C362.836 39.3162 364.229 40.5927 366.036 41.2036L370.778 42.807C370.776 42.8065 370.775 42.8059 370.773 42.8053L355.616 37.6801C354.574 37.3277 354.01 36.1868 354.362 35.1448L359.487 19.9879C359.839 18.9458 360.98 18.3816 362.022 18.7339ZM356.257 35.7855L360.046 37.0668L361.327 33.2775L357.538 31.9962L356.257 35.7855ZM358.178 30.1016L361.968 31.3829L363.249 27.5937L359.46 26.3124L358.178 30.1016ZM360.1 24.4178L363.89 25.6991L365.171 21.9098L361.382 20.6285L360.1 24.4178ZM365.784 26.3397L369.573 27.621L370.855 23.8318L367.066 22.5505L365.784 26.3397ZM371.468 28.2617L375.257 29.543L376.539 25.7537L372.749 24.4724L371.468 28.2617Z" fill="#EDA768"/>
<rect x="363.932" y="34.4749" width="2.15921" height="2.15921" transform="rotate(-26.3174 363.932 34.4749)" fill="#EDA768"/>
<rect x="368.771" y="32.0819" width="2.15921" height="2.15921" transform="rotate(-26.3174 368.771 32.0819)" fill="#EDA768"/>
<path fill-rule="evenodd" clip-rule="evenodd" d="M363.932 34.4749L365.868 33.5176L366.822 35.4464L364.886 36.4037L363.932 34.4749ZM365.33 37.3001L366.086 38.8295C367.011 40.7001 369.278 41.4665 371.148 40.5413C373.019 39.6161 373.785 37.3497 372.86 35.4791L372.104 33.9496L370.168 34.9069L370.925 36.4364C371.321 37.238 370.993 38.2094 370.191 38.6059C369.389 39.0024 368.418 38.674 368.022 37.8723L367.265 36.3428L365.33 37.3001ZM369.725 34.0105L371.66 33.0533L370.706 31.1244L368.771 32.0817L369.725 34.0105Z" fill="#EDA768"/>
<path d="M365.756 32.6638L365.85 32.3863C365.995 31.9574 366.305 31.6037 366.711 31.403V31.403C367.116 31.2023 367.585 31.171 368.014 31.316L368.292 31.4098" stroke="#EDA768"/>
<path d="M363.862 32.023L364.049 31.4681C364.339 30.6103 364.958 29.9028 365.77 29.5014V29.5014C366.582 29.0999 367.52 29.0374 368.377 29.3274L368.932 29.5151" stroke="#EDA768"/>
<g clip-path="url(#clip8_1369_1623)">
<path d="M470.528 75.5921L476.293 58.5425C476.293 58.5419 476.293 58.5414 476.292 58.5412L470.61 56.6199C470.61 56.6197 470.609 56.62 470.609 56.6205L464.844 73.6701C464.843 73.6707 464.844 73.6712 464.844 73.6714L470.526 75.5927C470.527 75.5929 470.527 75.5926 470.528 75.5921Z" stroke="#EDA768" stroke-width="2" stroke-miterlimit="10"/>
<path d="M459.159 71.7475L464.924 54.6978C464.924 54.6973 464.924 54.6968 464.924 54.6966L459.242 52.7753C459.241 52.7751 459.241 52.7754 459.24 52.7759L453.475 69.8255C453.475 69.8261 453.475 69.8266 453.476 69.8268L459.158 71.7481C459.158 71.7483 459.159 71.748 459.159 71.7475Z" stroke="#EDA768" stroke-width="2" stroke-miterlimit="10"/>
<path d="M468.121 54.61L461.68 73.6566" stroke="#EDA768" stroke-width="2" stroke-miterlimit="10" stroke-linecap="round" stroke-dasharray="3 3"/>
</g>
<g clip-path="url(#clip9_1369_1623)">
<path d="M562.211 88.5376L561.926 89.3808L563.18 91.916L564.106 89.1783L567.895 90.4596L566.614 94.2488L563.876 93.3231L565.13 95.8584L565.973 96.1434L565.688 96.9865L566.942 99.5218L567.868 96.7841L571.657 98.0654L570.376 101.855L567.638 100.929L568.892 103.464L569.735 103.749L569.45 104.592L570.704 107.128L575.474 93.0222C575.826 91.9802 575.262 90.8393 574.22 90.4869L560.114 85.7173L561.368 88.2526L562.211 88.5376ZM569.79 91.1002L573.579 92.3815L572.298 96.1708L568.509 94.8895L569.79 91.1002ZM556.885 83.7174L555.097 84.6015L556.351 87.1367L551.402 101.773C551.05 102.815 551.614 103.956 552.656 104.308L567.292 109.257L568.553 111.805L570.34 110.921L556.885 83.7174ZM561.367 97.2778L562.276 99.1158L560.903 98.6514L561.367 97.2778ZM557.605 89.672L558.515 91.5101L557.141 91.0456L557.605 89.672ZM557.086 103.695L553.297 102.413L554.578 98.624L558.368 99.9053L557.086 103.695ZM559.008 98.0107L555.219 96.7294L556.5 92.9402L559.769 94.0453L560.113 94.7425L559.008 98.0107ZM562.77 105.617L558.981 104.335L560.262 100.546L563.53 101.651L563.875 102.348L562.77 105.617ZM564.665 106.257L565.129 104.884L566.038 106.722L564.665 106.257Z" fill="#EDA768"/>
</g>
</g>
<g opacity="0.38">
<path fill-rule="evenodd" clip-rule="evenodd" d="M6.3713 23.6907L21.5282 28.8159C22.5703 29.1683 23.1346 30.3091 22.7822 31.3512L17.657 46.5081C17.6564 46.5098 17.6558 46.5116 17.6552 46.5133L19.2586 41.7716C19.8696 39.9648 19.7008 38.0824 18.9333 36.4901L18.9656 36.3944L18.8699 36.362C18.0702 34.7856 16.6765 33.5091 14.8697 32.8981C13.0629 32.2872 11.1806 32.4559 9.58825 33.2235L9.49255 33.1911L9.46019 33.2868C7.88377 34.0865 6.60726 35.4802 5.9963 37.287C5.38534 39.0938 5.55407 40.9762 6.32165 42.5685L6.2893 42.6642L6.38497 42.6965C7.18249 44.2687 8.57074 45.5425 10.3703 46.1554L-0.0351926 42.6369C-1.07723 42.2845 -1.64152 41.1436 -1.28916 40.1016L3.83604 24.9447C4.18839 23.9026 5.32926 23.3383 6.3713 23.6907ZM0.605457 40.7422L4.39469 42.0235L5.67599 38.2343L1.88676 36.953L0.605457 40.7422ZM2.5274 35.0584L6.31664 36.3397L7.59794 32.5505L3.8087 31.2692L2.5274 35.0584ZM4.44935 29.3745L8.23858 30.6558L9.51988 26.8666L5.73065 25.5853L4.44935 29.3745ZM10.1332 31.2965L13.9224 32.5778L15.2037 28.7886L11.4145 27.5073L10.1332 31.2965ZM15.817 33.2184L19.6063 34.4997L20.8876 30.7105L17.0983 29.4292L15.817 33.2184Z" fill="#EDA768"/>
<rect x="8.28143" y="39.4319" width="2.15921" height="2.15921" transform="rotate(-26.3174 8.28143 39.4319)" fill="#EDA768"/>
<rect x="13.1201" y="37.0389" width="2.15921" height="2.15921" transform="rotate(-26.3174 13.1201 37.0389)" fill="#EDA768"/>
<path fill-rule="evenodd" clip-rule="evenodd" d="M8.28137 39.4319L10.2168 38.4746L11.1709 40.4036L9.23547 41.3609L8.28137 39.4319ZM9.67881 42.2572L10.4352 43.7866C11.3604 45.6571 13.6269 46.4235 15.4974 45.4983C17.368 44.5731 18.1344 42.3067 17.2092 40.4361L16.4528 38.9068L14.5174 39.864L15.2738 41.3934C15.6703 42.195 15.3418 43.1664 14.5402 43.5629C13.7385 43.9594 12.7672 43.631 12.3707 42.8293L11.6142 41.2999L9.67881 42.2572ZM14.074 38.9677L16.0094 38.0104L15.0553 36.0814L13.1199 37.0387L14.074 38.9677Z" fill="#EDA768"/>
<path d="M10.1057 37.6208L10.1995 37.3434C10.3445 36.9145 10.654 36.5607 11.0598 36.36V36.36C11.4657 36.1593 11.9346 36.128 12.3635 36.273L12.641 36.3668" stroke="#EDA768"/>
<path d="M8.21107 36.9803L8.39871 36.4254C8.68877 35.5676 9.3077 34.8601 10.1194 34.4587V34.4587C10.931 34.0572 11.8689 33.9946 12.7267 34.2847L13.2816 34.4723" stroke="#EDA768"/>
<g clip-path="url(#clip10_1369_1623)">
<path fill-rule="evenodd" clip-rule="evenodd" d="M108.585 80.4215L113.39 66.2119L115.284 66.8525L110.479 81.0622L108.585 80.4215Z" fill="#EDA768"/>
<path d="M106.874 59.5367C106.118 59.2812 105.437 59.3683 104.83 59.798C104.224 60.2234 103.75 60.9434 103.407 61.9579C102.693 64.069 103.128 65.3925 104.713 65.9282C105.378 66.153 106.239 66.2591 107.297 66.2463L106.727 67.93C105.841 67.9911 104.918 67.8595 103.96 67.5355C102.583 67.0698 101.67 66.297 101.222 65.217C100.776 64.1328 100.817 62.8093 101.345 61.2465C101.678 60.2622 102.149 59.4615 102.757 58.8444C103.366 58.223 104.072 57.829 104.874 57.6624C105.682 57.493 106.537 57.5608 107.439 57.8659C108.358 58.1769 109.207 58.7116 109.985 59.4701L108.786 60.883C108.488 60.595 108.182 60.3277 107.866 60.0814C107.55 59.835 107.219 59.6534 106.874 59.5367Z" fill="#EDA768"/>
<path fill-rule="evenodd" clip-rule="evenodd" d="M113.055 70.3212C110.866 69.581 108.733 70.6158 108.145 72.3555C107.557 74.0952 108.624 76.2121 110.813 76.9524C113.002 77.6926 115.135 76.6578 115.724 74.9181C116.312 73.1784 115.245 71.0614 113.055 70.3212ZM106.25 71.7148C107.254 68.7459 110.653 67.3977 113.696 68.4266C116.739 69.4555 118.622 72.5898 117.618 75.5587C116.614 78.5277 113.215 79.8759 110.173 78.847C107.13 77.8181 105.247 74.6838 106.25 71.7148Z" fill="#EDA768"/>
</g>
<g clip-path="url(#clip11_1369_1623)">
<path d="M211.365 103.558L215.822 105.071L214.32 109.532L213.212 107.292L204.243 111.728L203.504 110.234L212.473 105.797L211.365 103.558Z" fill="#EDA768"/>
<path d="M213.928 95.9792L218.385 97.4926L216.883 101.954L215.775 99.7136L197.932 108.538L197.193 107.045L215.036 98.2191L213.928 95.9792Z" fill="#EDA768"/>
<path d="M206.67 92.4692L211.127 93.9827L209.625 98.4436L208.517 96.2037L199.547 100.639L198.809 99.1459L207.777 94.7091L206.67 92.4692Z" fill="#EDA768"/>
</g>
<g clip-path="url(#clip12_1369_1623)">
<g clip-path="url(#clip13_1369_1623)">
<path d="M308.163 139.543L306.027 127.128L304.45 131.792L306.586 144.207L308.163 139.543Z" fill="#EDA768"/>
<path fill-rule="evenodd" clip-rule="evenodd" d="M301.264 131.851C303.356 132.559 305.627 131.436 306.334 129.344C307.042 127.251 305.919 124.981 303.826 124.273C301.733 123.565 299.463 124.688 298.756 126.781C298.048 128.874 299.171 131.144 301.264 131.851ZM301.904 129.957C302.951 130.311 304.086 129.749 304.44 128.703C304.793 127.657 304.232 126.521 303.186 126.168C302.139 125.814 301.004 126.375 300.65 127.422C300.296 128.468 300.858 129.603 301.904 129.957Z" fill="#EDA768"/>
<path fill-rule="evenodd" clip-rule="evenodd" d="M308.787 147.062C310.879 147.77 313.15 146.647 313.857 144.554C314.565 142.462 313.442 140.192 311.349 139.484C309.257 138.776 306.986 139.899 306.279 141.992C305.571 144.085 306.694 146.355 308.787 147.062ZM309.428 145.168C310.474 145.522 311.609 144.96 311.963 143.914C312.317 142.868 311.755 141.732 310.709 141.379C309.662 141.025 308.527 141.586 308.174 142.633C307.82 143.679 308.381 144.814 309.428 145.168Z" fill="#EDA768"/>
<path d="M317.089 128.757L315.194 128.117L313.272 133.801L315.167 134.441L317.089 128.757Z" fill="#EDA768"/>
<path d="M317.702 133.187L318.343 131.293L312.659 129.371L312.018 131.265L317.702 133.187Z" fill="#EDA768"/>
</g>
</g>
<g clip-path="url(#clip14_1369_1623)">
<path d="M403.6 160.122L403.315 160.965L404.569 163.5L405.495 160.763L409.284 162.044L408.003 165.833L405.265 164.908L406.519 167.443L407.362 167.728L407.077 168.571L408.331 171.106L409.257 168.369L413.046 169.65L411.765 173.439L409.027 172.513L410.281 175.049L411.124 175.334L410.839 176.177L412.093 178.712L416.863 164.607C417.215 163.565 416.651 162.424 415.609 162.071L401.503 157.302L402.757 159.837L403.6 160.122ZM411.179 162.685L414.968 163.966L413.687 167.755L409.898 166.474L411.179 162.685ZM398.274 155.302L396.486 156.186L397.74 158.721L392.791 173.357C392.439 174.399 393.003 175.54 394.045 175.892L408.681 180.841L409.941 183.389L411.729 182.505L398.274 155.302ZM402.756 168.862L403.665 170.7L402.292 170.236L402.756 168.862ZM398.994 161.256L399.903 163.095L398.53 162.63L398.994 161.256ZM398.475 175.279L394.686 173.998L395.967 170.209L399.757 171.49L398.475 175.279ZM400.397 169.595L396.608 168.314L397.889 164.525L401.157 165.63L401.502 166.327L400.397 169.595ZM404.159 177.201L400.37 175.92L401.651 172.13L404.919 173.236L405.264 173.933L404.159 177.201ZM406.054 177.842L406.518 176.468L407.427 178.306L406.054 177.842Z" fill="#EDA768"/>
</g>
<g clip-path="url(#clip15_1369_1623)">
<path d="M507.36 203.559L511.817 205.072L510.315 209.533L509.207 207.293L500.237 211.729L499.499 210.236L508.468 205.799L507.36 203.559Z" fill="#EDA768"/>
<path d="M509.922 195.98L514.38 197.494L512.877 201.955L511.77 199.715L493.927 208.539L493.188 207.046L511.03 198.22L509.922 195.98Z" fill="#EDA768"/>
<path d="M502.664 192.47L507.121 193.983L505.619 198.444L504.511 196.204L495.541 200.64L494.803 199.147L503.771 194.71L502.664 192.47Z" fill="#EDA768"/>
</g>
<path d="M595.277 223.88L592.714 231.459C592.522 232.027 592.773 232.534 593.341 232.727L611.674 234.703C612.242 234.895 612.749 234.645 612.942 234.076L614.223 230.287C614.415 229.719 614.164 229.211 613.596 229.019L596.544 223.253C595.976 223.061 595.469 223.312 595.277 223.88ZM611.367 232.488L594.929 231.152L596.851 225.468L612.008 230.594L611.367 232.488Z" fill="#EDA768"/>
<path fill-rule="evenodd" clip-rule="evenodd" d="M602.413 236.058C602.556 236.307 602.585 236.605 602.494 236.877L599.931 244.455C599.754 244.978 599.187 245.259 598.663 245.082L590.138 242.199C589.614 242.022 589.334 241.455 589.511 240.932L591.753 234.301C591.914 233.823 592.406 233.54 592.901 233.641L601.747 235.577C602.028 235.634 602.27 235.81 602.413 236.058ZM593.365 235.777L591.726 240.625L598.357 242.867L600.236 237.309L593.365 235.777Z" fill="#EDA768"/>
<path fill-rule="evenodd" clip-rule="evenodd" d="M611.516 236.949C611.711 237.212 611.765 237.554 611.66 237.865L608.457 247.338C608.28 247.861 607.712 248.142 607.189 247.965L602.453 246.364C601.929 246.187 601.649 245.619 601.826 245.096L604.548 237.044C604.682 236.649 605.046 236.378 605.463 236.365L610.68 236.545C611.008 236.535 611.32 236.685 611.516 236.949ZM606.221 238.341L604.041 244.789L606.883 245.75L609.303 238.591L606.221 238.341Z" fill="#EDA768"/>
</g>
<g opacity="0.38">
<g clip-path="url(#clip16_1369_1623)">
<path fill-rule="evenodd" clip-rule="evenodd" d="M16.049 164.202L20.8539 149.992L22.7485 150.633L17.9437 164.842L16.049 164.202Z" fill="#EDA768"/>
<path d="M14.3382 143.317C13.5827 143.061 12.9014 143.148 12.2943 143.578C11.6886 144.004 11.2142 144.724 10.8711 145.738C10.1573 147.849 10.5926 149.173 12.177 149.708C12.8418 149.933 13.7032 150.039 14.761 150.026L14.1917 151.71C13.3051 151.771 12.3826 151.64 11.4242 151.316C10.0471 150.85 9.13454 150.077 8.68668 148.997C8.24029 147.913 8.28131 146.589 8.80977 145.027C9.1426 144.042 9.613 143.242 10.221 142.625C10.8304 142.003 11.5361 141.609 12.3381 141.443C13.1459 141.273 14.0009 141.341 14.9032 141.646C15.8227 141.957 16.6714 142.492 17.4492 143.25L16.2499 144.663C15.9528 144.375 15.6463 144.108 15.3303 143.862C15.0143 143.615 14.6836 143.434 14.3382 143.317Z" fill="#EDA768"/>
<path fill-rule="evenodd" clip-rule="evenodd" d="M20.5199 154.101C18.3308 153.361 16.1978 154.396 15.6095 156.136C15.0212 157.875 16.0885 159.992 18.2776 160.733C20.4667 161.473 22.5997 160.438 23.188 158.698C23.7763 156.959 22.709 154.842 20.5199 154.101ZM13.7149 155.495C14.7188 152.526 18.1178 151.178 21.1605 152.207C24.2033 153.236 26.0865 156.37 25.0826 159.339C24.0787 162.308 20.6797 163.656 17.637 162.627C14.5942 161.598 12.711 158.464 13.7149 155.495Z" fill="#EDA768"/>
</g>
<g clip-path="url(#clip17_1369_1623)">
<path d="M118.83 187.338L123.287 188.852L121.785 193.312L120.677 191.073L111.708 195.508L110.969 194.015L119.938 189.578L118.83 187.338Z" fill="#EDA768"/>
<path d="M121.392 179.76L125.849 181.273L124.347 185.734L123.239 183.494L105.396 192.318L104.658 190.825L122.5 181.999L121.392 179.76Z" fill="#EDA768"/>
<path d="M114.134 176.25L118.591 177.763L117.089 182.224L115.981 179.984L107.012 184.42L106.273 182.926L115.242 178.49L114.134 176.25Z" fill="#EDA768"/>
</g>
<g clip-path="url(#clip18_1369_1623)">
<path d="M203.636 218.202L206.478 219.163L209.169 215.886L209.178 223.666L212.122 218.081L215.066 212.496L212.309 228.454L219.155 217.574L219.921 223.111L222.763 224.072" stroke="#EDA768" stroke-width="2" stroke-linejoin="round"/>
<rect width="2" height="4" transform="matrix(-0.947308 -0.320325 -0.320325 0.947308 226.447 213.178)" fill="#EDA768"/>
<rect width="2" height="2" transform="matrix(-0.947308 -0.320325 -0.320325 0.947308 222.965 214.112)" fill="#EDA768"/>
<rect width="2" height="1" transform="matrix(-0.947308 -0.320325 -0.320325 0.947308 219.803 214.098)" fill="#EDA768"/>
</g>
<g clip-path="url(#clip19_1369_1623)">
<path d="M311.064 243.902L310.779 244.745L312.033 247.28L312.959 244.543L316.748 245.824L315.467 249.613L312.729 248.687L313.983 251.223L314.826 251.508L314.541 252.351L315.795 254.886L316.721 252.148L320.51 253.43L319.229 257.219L316.491 256.293L317.745 258.829L318.588 259.114L318.303 259.957L319.557 262.492L324.327 248.387C324.679 247.345 324.115 246.204 323.073 245.851L308.967 241.082L310.221 243.617L311.064 243.902ZM318.643 246.465L322.432 247.746L321.151 251.535L317.361 250.254L318.643 246.465ZM305.738 239.082L303.95 239.966L305.204 242.501L300.255 257.137C299.903 258.179 300.467 259.32 301.509 259.672L316.145 264.621L317.405 267.169L319.193 266.285L305.738 239.082ZM310.22 252.642L311.129 254.48L309.756 254.016L310.22 252.642ZM306.458 245.036L307.367 246.874L305.994 246.41L306.458 245.036ZM305.939 259.059L302.15 257.778L303.431 253.988L307.22 255.27L305.939 259.059ZM307.861 253.375L304.072 252.094L305.353 248.305L308.621 249.41L308.966 250.107L307.861 253.375ZM311.623 260.981L307.834 259.7L309.115 255.91L312.383 257.015L312.728 257.713L311.623 260.981ZM313.518 261.622L313.982 260.248L314.891 262.086L313.518 261.622Z" fill="#EDA768"/>
</g>
<g clip-path="url(#clip20_1369_1623)">
<path d="M414.36 287.559L418.817 289.072L417.315 293.533L416.207 291.293L407.237 295.729L406.499 294.236L415.468 289.799L414.36 287.559Z" fill="#EDA768"/>
<path d="M416.922 279.98L421.38 281.494L419.877 285.955L418.77 283.715L400.927 292.539L400.188 291.046L418.03 282.22L416.922 279.98Z" fill="#EDA768"/>
<path d="M409.664 276.47L414.121 277.983L412.619 282.444L411.511 280.204L402.541 284.64L401.803 283.147L410.771 278.71L409.664 276.47Z" fill="#EDA768"/>
</g>
<path d="M502.742 307.661L500.179 315.24C499.987 315.808 500.238 316.315 500.806 316.507L519.139 318.484C519.707 318.676 520.214 318.425 520.406 317.857L521.688 314.068C521.88 313.499 521.629 312.992 521.061 312.8L504.009 307.034C503.441 306.842 502.934 307.093 502.742 307.661ZM518.832 316.269L502.394 314.933L504.316 309.249L519.473 314.374L518.832 316.269Z" fill="#EDA768"/>
<path fill-rule="evenodd" clip-rule="evenodd" d="M509.878 319.839C510.021 320.088 510.05 320.386 509.958 320.657L507.396 328.236C507.219 328.759 506.651 329.04 506.128 328.863L497.602 325.98C497.079 325.803 496.799 325.235 496.975 324.712L499.218 318.081C499.379 317.603 499.871 317.321 500.365 317.422L509.212 319.357C509.493 319.415 509.735 319.59 509.878 319.839ZM500.83 319.558L499.19 324.406L505.822 326.648L507.701 321.09L500.83 319.558Z" fill="#EDA768"/>
<path fill-rule="evenodd" clip-rule="evenodd" d="M518.98 320.729C519.176 320.992 519.23 321.335 519.125 321.646L515.922 331.119C515.745 331.642 515.177 331.923 514.654 331.746L509.917 330.144C509.394 329.967 509.114 329.4 509.29 328.876L512.013 320.824C512.147 320.429 512.511 320.159 512.928 320.145L518.145 320.326C518.473 320.315 518.785 320.466 518.98 320.729ZM513.686 322.121L511.505 328.57L514.347 329.531L516.768 322.372L513.686 322.121Z" fill="#EDA768"/>
</g>
<g opacity="0.38">
<path d="M55.1377 270.708L52.5751 278.287C52.383 278.855 52.6337 279.362 53.2021 279.554L71.535 281.531C72.1034 281.723 72.6104 281.472 72.8026 280.904L74.0839 277.115C74.2761 276.546 74.0253 276.039 73.4569 275.847L56.4054 270.081C55.837 269.889 55.3299 270.14 55.1377 270.708ZM71.2283 279.316L54.7901 277.98L56.712 272.296L71.869 277.421L71.2283 279.316Z" fill="#EDA768"/>
<path fill-rule="evenodd" clip-rule="evenodd" d="M62.275 282.886C62.4178 283.135 62.4471 283.433 62.3552 283.705L59.7926 291.283C59.6157 291.806 59.0481 292.087 58.525 291.91L49.9992 289.027C49.476 288.85 49.1953 288.283 49.3722 287.76L51.6145 281.129C51.776 280.651 52.268 280.368 52.7621 280.469L61.6082 282.405C61.8892 282.462 62.1321 282.638 62.275 282.886ZM53.2263 282.605L51.5871 287.453L58.2183 289.695L60.0977 284.137L53.2263 282.605Z" fill="#EDA768"/>
<path fill-rule="evenodd" clip-rule="evenodd" d="M71.3768 283.776C71.5723 284.04 71.6263 284.382 71.5212 284.693L68.318 294.166C68.1411 294.689 67.5735 294.97 67.0503 294.793L62.3138 293.191C61.7906 293.014 61.5099 292.447 61.6868 291.924L64.4096 283.872C64.5431 283.477 64.9076 283.206 65.3242 283.192L70.5412 283.373C70.869 283.362 71.1812 283.513 71.3768 283.776ZM66.0822 285.169L63.9018 291.617L66.7437 292.578L69.1644 285.419L66.0822 285.169Z" fill="#EDA768"/>
<path fill-rule="evenodd" clip-rule="evenodd" d="M153.896 314.024C154.167 313.223 153.502 312.436 152.73 312.781C151.257 313.44 150.052 314.688 149.494 316.337C148.432 319.476 150.117 322.881 153.256 323.943C156.395 325.004 159.8 323.32 160.862 320.181C161.419 318.532 161.219 316.81 160.449 315.392C160.045 314.649 159.038 314.871 158.767 315.672C158.658 315.994 158.706 316.345 158.843 316.656C159.228 317.537 159.299 318.558 158.967 319.54C158.259 321.633 155.989 322.756 153.896 322.048C151.804 321.341 150.681 319.07 151.389 316.978C151.721 315.995 152.397 315.226 153.238 314.76C153.536 314.596 153.787 314.346 153.896 314.024Z" fill="#EDA768"/>
<rect x="156.473" y="311.307" width="2" height="6" rx="1" transform="rotate(18.6826 156.473 311.307)" fill="#EDA768"/>
<path fill-rule="evenodd" clip-rule="evenodd" d="M162.17 310.067C161.647 309.89 161.08 310.171 160.903 310.694L160.169 312.863C160.785 313.298 161.317 313.825 161.755 314.418L162.797 311.335C162.974 310.812 162.693 310.244 162.17 310.067Z" fill="#EDA768"/>
<path fill-rule="evenodd" clip-rule="evenodd" d="M162.049 322.311C163.67 321.697 165.013 320.39 165.612 318.62C166.169 316.971 165.969 315.248 165.198 313.831C164.794 313.088 163.788 313.31 163.517 314.111C163.408 314.433 163.456 314.784 163.593 315.095C163.978 315.976 164.049 316.997 163.717 317.98C163.573 318.406 163.364 318.792 163.105 319.13C163.06 319.694 162.946 320.261 162.756 320.822C162.576 321.356 162.337 321.854 162.049 322.311Z" fill="#EDA768"/>
<path fill-rule="evenodd" clip-rule="evenodd" d="M167.241 307.559C166.718 307.382 166.15 307.663 165.973 308.186L165.24 310.356C165.855 310.791 166.388 311.318 166.825 311.91L167.868 308.827C168.045 308.304 167.764 307.736 167.241 307.559Z" fill="#EDA768"/>
<path fill-rule="evenodd" clip-rule="evenodd" d="M167.12 319.802C168.74 319.189 170.084 317.881 170.682 316.112C171.24 314.463 171.039 312.74 170.269 311.322C169.864 310.579 168.858 310.801 168.587 311.603C168.478 311.925 168.526 312.275 168.663 312.587C169.048 313.467 169.119 314.489 168.787 315.471C168.643 315.897 168.434 316.283 168.175 316.622C168.13 317.186 168.016 317.753 167.827 318.313C167.646 318.847 167.407 319.345 167.12 319.802Z" fill="#EDA768"/>
<path fill-rule="evenodd" clip-rule="evenodd" d="M254.394 337.03L269.551 342.155C270.593 342.507 271.157 343.648 270.805 344.69L267.304 355.042C267.888 353.256 267.714 351.401 266.956 349.829L266.988 349.733L266.893 349.701C266.093 348.125 264.699 346.848 262.893 346.237C261.086 345.626 259.203 345.795 257.611 346.562L257.515 346.53L257.482 346.626C255.906 347.426 254.63 348.819 254.019 350.626C253.408 352.433 253.577 354.315 254.344 355.907L254.312 356.003L254.408 356.035C255.201 357.6 256.58 358.869 258.367 359.486L247.987 355.976C246.945 355.623 246.381 354.482 246.733 353.44L251.858 338.284C252.211 337.241 253.352 336.677 254.394 337.03ZM248.628 354.081L252.417 355.362L253.698 351.573L249.909 350.292L248.628 354.081ZM250.55 348.397L254.339 349.679L255.62 345.889L251.831 344.608L250.55 348.397ZM252.472 342.713L256.261 343.995L257.542 340.205L253.753 338.924L252.472 342.713ZM258.156 344.635L261.945 345.917L263.226 342.127L259.437 340.846L258.156 344.635ZM263.84 346.557L267.629 347.839L268.91 344.049L265.121 342.768L263.84 346.557Z" fill="#EDA768"/>
<rect x="261.143" y="350.378" width="2.15921" height="2.15921" transform="rotate(-26.3174 261.143 350.378)" fill="#EDA768"/>
<path fill-rule="evenodd" clip-rule="evenodd" d="M256.304 352.771L258.239 351.814L259.194 353.743L257.258 354.7L256.304 352.771ZM257.702 355.597L258.458 357.126C259.383 358.996 261.649 359.763 263.52 358.837C265.391 357.912 266.157 355.646 265.232 353.775L264.476 352.246L262.54 353.204L263.296 354.732C263.693 355.534 263.364 356.505 262.563 356.902C261.761 357.298 260.79 356.97 260.393 356.168L259.637 354.639L257.702 355.597ZM262.097 352.307L264.032 351.35L263.078 349.421L261.142 350.378L262.097 352.307Z" fill="#EDA768"/>
<path d="M258.128 350.96L258.222 350.682C258.367 350.253 258.676 349.899 259.082 349.699V349.699C259.488 349.498 259.957 349.467 260.386 349.612L260.663 349.706" stroke="#EDA768"/>
<path d="M256.234 350.319L256.421 349.764C256.711 348.906 257.33 348.199 258.142 347.798V347.798C258.954 347.396 259.891 347.334 260.749 347.624L261.304 347.811" stroke="#EDA768"/>
</g>
<g opacity="0.38">
<path fill-rule="evenodd" clip-rule="evenodd" d="M712.836 263.175L727.993 268.301C729.035 268.653 729.599 269.794 729.246 270.836L725.746 281.187C726.33 279.402 726.156 277.547 725.398 275.974L725.43 275.879L725.334 275.847C724.535 274.27 723.141 272.994 721.334 272.383C719.528 271.772 717.645 271.941 716.053 272.708L715.957 272.676L715.924 272.772C714.348 273.572 713.072 274.965 712.461 276.772C711.85 278.578 712.019 280.461 712.786 282.053L712.754 282.149L712.85 282.181C713.643 283.746 715.023 285.016 716.811 285.632L706.429 282.121C705.387 281.769 704.823 280.628 705.175 279.586L710.3 264.429C710.653 263.387 711.794 262.823 712.836 263.175ZM707.07 280.227L710.859 281.508L712.14 277.719L708.351 276.438L707.07 280.227ZM708.992 274.543L712.781 275.824L714.062 272.035L710.273 270.754L708.992 274.543ZM710.914 268.859L714.703 270.14L715.984 266.351L712.195 265.07L710.914 268.859ZM716.597 270.781L720.387 272.062L721.668 268.273L717.879 266.992L716.597 270.781ZM722.281 272.703L726.071 273.984L727.352 270.195L723.563 268.914L722.281 272.703Z" fill="#EDA768"/>
<rect x="714.747" y="278.918" width="2.15921" height="2.15921" transform="rotate(-26.3174 714.747 278.918)" fill="#EDA768"/>
<rect x="719.586" y="276.525" width="2.15921" height="2.15921" transform="rotate(-26.3174 719.586 276.525)" fill="#EDA768"/>
<path fill-rule="evenodd" clip-rule="evenodd" d="M714.747 278.918L716.683 277.961L717.637 279.89L715.701 280.847L714.747 278.918ZM716.145 281.743L716.901 283.273C717.826 285.143 720.093 285.91 721.963 284.984C723.834 284.059 724.6 281.793 723.675 279.922L722.919 278.393L720.983 279.35L721.74 280.879C722.136 281.681 721.808 282.652 721.006 283.049C720.204 283.446 719.233 283.117 718.837 282.315L718.08 280.786L716.145 281.743ZM720.54 278.454L722.475 277.497L721.521 275.568L719.586 276.525L720.54 278.454Z" fill="#EDA768"/>
<path d="M716.571 277.106L716.665 276.829C716.81 276.4 717.119 276.046 717.525 275.845V275.845C717.931 275.645 718.4 275.613 718.828 275.758L719.106 275.852" stroke="#EDA768"/>
<path d="M714.677 276.466L714.864 275.911C715.154 275.053 715.773 274.346 716.585 273.944V273.944C717.396 273.543 718.334 273.48 719.192 273.77L719.747 273.958" stroke="#EDA768"/>
<g clip-path="url(#clip21_1369_1623)">
<path fill-rule="evenodd" clip-rule="evenodd" d="M815.05 319.907L819.855 305.697L821.749 306.338L816.944 320.547L815.05 319.907Z" fill="#EDA768"/>
<path d="M813.339 299.022C812.583 298.766 811.902 298.853 811.295 299.283C810.689 299.709 810.215 300.429 809.872 301.443C809.158 303.554 809.593 304.878 811.178 305.413C811.842 305.638 812.704 305.744 813.762 305.731L813.192 307.415C812.306 307.476 811.383 307.345 810.425 307.021C809.048 306.555 808.135 305.782 807.687 304.702C807.241 303.618 807.282 302.294 807.81 300.732C808.143 299.747 808.614 298.947 809.222 298.33C809.831 297.708 810.537 297.314 811.339 297.148C812.146 296.978 813.002 297.046 813.904 297.351C814.823 297.662 815.672 298.197 816.45 298.955L815.251 300.368C814.953 300.08 814.647 299.813 814.331 299.566C814.015 299.32 813.684 299.139 813.339 299.022Z" fill="#EDA768"/>
<path fill-rule="evenodd" clip-rule="evenodd" d="M819.521 309.807C817.332 309.067 815.199 310.101 814.611 311.841C814.022 313.581 815.09 315.698 817.279 316.438C819.468 317.178 821.601 316.144 822.189 314.404C822.777 312.664 821.71 310.547 819.521 309.807ZM812.716 311.201C813.72 308.232 817.119 306.883 820.162 307.912C823.204 308.941 825.088 312.076 824.084 315.044C823.08 318.013 819.681 319.362 816.638 318.333C813.595 317.304 811.712 314.169 812.716 311.201Z" fill="#EDA768"/>
</g>
<g clip-path="url(#clip22_1369_1623)">
<path d="M917.83 343.043L922.287 344.557L920.785 349.017L919.677 346.778L910.708 351.213L909.969 349.72L918.938 345.283L917.83 343.043Z" fill="#EDA768"/>
<path d="M920.393 335.465L924.85 336.978L923.348 341.439L922.24 339.199L904.397 348.024L903.659 346.53L921.501 337.705L920.393 335.465Z" fill="#EDA768"/>
<path d="M913.134 331.954L917.591 333.468L916.089 337.928L914.981 335.689L906.012 340.124L905.273 338.631L914.242 334.194L913.134 331.954Z" fill="#EDA768"/>
</g>
</g>
<g opacity="0.38">
<g clip-path="url(#clip23_1369_1623)">
<g clip-path="url(#clip24_1369_1623)">
<path d="M940.628 13.0286L938.492 0.613403L936.915 5.27707L939.051 17.6923L940.628 13.0286Z" fill="#EDA768"/>
<path fill-rule="evenodd" clip-rule="evenodd" d="M933.728 5.33669C935.821 6.04433 938.091 4.92149 938.799 2.82876C939.507 0.736025 938.384 -1.53413 936.291 -2.24177C934.198 -2.94941 931.928 -1.82657 931.221 0.26616C930.513 2.35889 931.636 4.62905 933.728 5.33669ZM934.369 3.44208C935.415 3.7959 936.551 3.23448 936.904 2.18811C937.258 1.14175 936.697 0.00666886 935.65 -0.347152C934.604 -0.700974 933.469 -0.139554 933.115 0.906814C932.761 1.95318 933.323 3.08826 934.369 3.44208Z" fill="#EDA768"/>
<path fill-rule="evenodd" clip-rule="evenodd" d="M941.252 20.5476C943.344 21.2553 945.614 20.1324 946.322 18.0397C947.03 15.947 945.907 13.6768 943.814 12.9692C941.721 12.2615 939.451 13.3844 938.744 15.4771C938.036 17.5698 939.159 19.84 941.252 20.5476ZM941.892 18.6531C942.939 19.0069 944.074 18.4455 944.428 17.3992C944.781 16.3528 944.22 15.2177 943.174 14.8639C942.127 14.5101 940.992 15.0715 940.638 16.1179C940.285 17.1642 940.846 18.2993 941.892 18.6531Z" fill="#EDA768"/>
<path d="M949.553 2.2427L947.659 1.60205L945.737 7.2859L947.631 7.92655L949.553 2.2427Z" fill="#EDA768"/>
<path d="M950.167 6.67257L950.807 4.77795L945.124 2.856L944.483 4.75062L950.167 6.67257Z" fill="#EDA768"/>
</g>
</g>
<g clip-path="url(#clip25_1369_1623)">
<path d="M1036.07 33.6074L1035.78 34.4505L1037.03 36.9857L1037.96 34.248L1041.75 35.5293L1040.47 39.3185L1037.73 38.3928L1038.98 40.9281L1039.83 41.2131L1039.54 42.0563L1040.8 44.5915L1041.72 41.8538L1045.51 43.1351L1044.23 46.9243L1041.49 45.9986L1042.75 48.5339L1043.59 48.8189L1043.3 49.662L1044.56 52.1973L1049.33 38.0919C1049.68 37.0499 1049.12 35.909 1048.07 35.5566L1033.97 30.787L1035.22 33.3223L1036.07 33.6074ZM1043.64 36.17L1047.43 37.4513L1046.15 41.2405L1042.36 39.9592L1043.64 36.17ZM1030.74 28.7871L1028.95 29.6712L1030.21 32.2064L1025.26 46.8423C1024.9 47.8844 1025.47 49.0252 1026.51 49.3776L1041.15 54.3266L1042.41 56.8746L1044.19 55.9905L1030.74 28.7871ZM1035.22 42.3475L1036.13 44.1856L1034.76 43.7211L1035.22 42.3475ZM1031.46 34.7417L1032.37 36.5798L1030.99 36.1153L1031.46 34.7417ZM1030.94 48.7643L1027.15 47.483L1028.43 43.6937L1032.22 44.975L1030.94 48.7643ZM1032.86 43.0804L1029.07 41.7991L1030.35 38.0099L1033.62 39.115L1033.97 39.8122L1032.86 43.0804ZM1036.62 50.6862L1032.83 49.4049L1034.12 45.6157L1037.38 46.7208L1037.73 47.418L1036.62 50.6862ZM1038.52 51.3269L1038.98 49.9533L1039.89 51.7913L1038.52 51.3269Z" fill="#EDA768"/>
</g>
<g clip-path="url(#clip26_1369_1623)">
<path d="M1139.36 76.5588L1143.82 78.0723L1142.31 82.5332L1141.21 80.2933L1132.24 84.7288L1131.5 83.2356L1140.47 78.7987L1139.36 76.5588Z" fill="#EDA768"/>
<path d="M1141.92 68.9804L1146.38 70.4939L1144.88 74.9548L1143.77 72.7149L1125.93 81.5393L1125.19 80.046L1143.03 71.2203L1141.92 68.9804Z" fill="#EDA768"/>
<path d="M1134.66 65.4698L1139.12 66.9833L1137.62 71.4442L1136.51 69.2043L1127.54 73.6398L1126.8 72.1466L1135.77 67.7097L1134.66 65.4698Z" fill="#EDA768"/>
</g>
</g>
<path d="M928 435V344C928 316.386 950.386 294 978 294H1219" stroke="#8B8B8B" stroke-width="30"/>
<path d="M928 435V344C928 316.386 950.386 294 978 294H1219" stroke="#FEC955" stroke-width="4" stroke-dasharray="12 12"/>
<path fill-rule="evenodd" clip-rule="evenodd" d="M1110.58 222.531C1111.46 222.019 1112.06 221.061 1112.06 219.963C1112.06 218.327 1110.73 217 1109.1 217C1107.46 217 1106.13 218.327 1106.13 219.963C1106.13 221.06 1106.73 222.018 1107.61 222.53V277.751H1110.58V248.354L1140.21 235.522L1110.58 222.689V222.531Z" fill="#D0213B"/>
<path fill-rule="evenodd" clip-rule="evenodd" d="M352.5 220.5L352.5 213L353.5 213L353.5 220.5L352.5 220.5Z" fill="#333333"/>
<path d="M348.345 210.882C347.946 210.882 347.637 211.032 347.418 211.333C347.2 211.632 347.09 212.049 347.09 212.584C347.09 213.698 347.508 214.255 348.345 214.255C348.696 214.255 349.121 214.168 349.62 213.992V214.881C349.209 215.052 348.751 215.137 348.246 215.137C347.519 215.137 346.963 214.917 346.578 214.478C346.193 214.035 346 213.402 346 212.577C346 212.058 346.095 211.603 346.284 211.213C346.473 210.821 346.744 210.522 347.097 210.314C347.453 210.105 347.868 210 348.345 210C348.83 210 349.318 210.117 349.808 210.352L349.466 211.213C349.279 211.125 349.091 211.047 348.902 210.981C348.713 210.915 348.527 210.882 348.345 210.882Z" fill="#333333"/>
<path fill-rule="evenodd" clip-rule="evenodd" d="M353 215C351.845 215 351 215.832 351 216.75C351 217.668 351.845 218.5 353 218.5C354.155 218.5 355 217.668 355 216.75C355 215.832 354.155 215 353 215ZM350 216.75C350 215.183 351.394 214 353 214C354.606 214 356 215.183 356 216.75C356 218.317 354.606 219.5 353 219.5C351.394 219.5 350 218.317 350 216.75Z" fill="#333333"/>
<path d="M63 281C63 278.239 65.2386 276 68 276H95C97.7614 276 100 278.239 100 281H63Z" fill="#E6A513"/>
<path d="M61 282C61 281.448 61.4477 281 62 281H102C102.552 281 103 281.448 103 282C103 282.552 102.552 283 102 283H62C61.4477 283 61 282.552 61 282Z" fill="#B8840F"/>
<path d="M1093 278C1093 275.239 1095.24 273 1098 273H1121C1123.76 273 1126 275.239 1126 278H1093Z" fill="#D0213B"/>
<path d="M1091 279C1091 278.448 1091.45 278 1092 278H1127C1127.55 278 1128 278.448 1128 279C1128 279.552 1127.55 280 1127 280H1092C1091.45 280 1091 279.552 1091 279Z" fill="#B90A24"/>
<g clip-path="url(#clip27_1369_1623)">
<path d="M199.25 247.5H216.75V252.5H199.25V247.5Z" fill="#E6A725"/>
<path d="M199.25 241.25H216.75V246.25H199.25V241.25Z" fill="#71B62B"/>
<path d="M199.25 253.75H216.75V258.75H199.25V253.75Z" fill="#956025"/>
<path fill-rule="evenodd" clip-rule="evenodd" d="M216.75 241.25H199.25V246.25H216.75V241.25ZM216.75 247.5H199.25V252.5H216.75V247.5ZM199.25 258.75V253.75H216.75V258.75H199.25ZM198 240V260H218V240H198Z" fill="#282D36"/>
</g>
<path fill-rule="evenodd" clip-rule="evenodd" d="M503 8C500.239 8 498 10.2386 498 13C498 15.7614 500.239 18 503 18C505.761 18 508 15.7614 508 13C508 10.2386 505.761 8 503 8ZM503 10C501.343 10 500 11.3431 500 13C500 14.6569 501.343 16 503 16C504.657 16 506 14.6569 506 13C506 11.3431 504.657 10 503 10Z" fill="#353535"/>
<rect x="501" y="2" width="4" height="5" fill="#353535"/>
<rect x="496.828" y="16" width="4" height="5" transform="rotate(45 496.828 16)" fill="#353535"/>
<path d="M511 2H509V8H511V2Z" fill="#353535"/>
<path d="M513 6V4L507 4V6L513 6Z" fill="#353535"/>
<path d="M136.5 120.5H138L141 133.25H136.5V120.5Z" fill="#353535"/>
<rect x="133.5" y="131" width="12" height="2.25" fill="#353535"/>
<rect width="1.5" height="4.5" transform="matrix(-1 0 0 1 133.5 131)" fill="#353535"/>
<rect x="141.75" y="120.5" width="1.5" height="4.5" fill="#353535"/>
<rect x="140.25" y="123.5" width="1.5" height="4.5" transform="rotate(-90 140.25 123.5)" fill="#353535"/>
<g clip-path="url(#clip28_1369_1623)">
<path d="M295 87C293.895 87 293 87.8954 293 89C293 90.1046 293.895 91 295 91C296.105 91 297 90.1046 297 89C297 87.8954 296.105 87 295 87Z" fill="#353535"/>
<path fill-rule="evenodd" clip-rule="evenodd" d="M290 81L295 86L300 81H290Z" fill="#353535"/>
<rect x="294" y="70" width="2" height="11" fill="#353535"/>
<path d="M303 70H301V76H303V70Z" fill="#353535"/>
<path d="M305 74V72H299V74H305Z" fill="#353535"/>
</g>
</g>
<defs>
<clipPath id="clip0_1369_1623">
<rect width="1208" height="350" fill="white"/>
</clipPath>
<clipPath id="clip1_1369_1623">
<rect width="24" height="24" fill="white" transform="translate(768.728 39.2719) rotate(18.6826)"/>
</clipPath>
<clipPath id="clip2_1369_1623">
<rect width="24" height="24" fill="white" transform="translate(867.248 72.5856) rotate(18.6826)"/>
</clipPath>
<clipPath id="clip3_1369_1623">
<rect width="24" height="24" fill="white" transform="translate(965.769 105.9) rotate(18.6826)"/>
</clipPath>
<clipPath id="clip4_1369_1623">
<rect width="24" height="24" fill="white" transform="translate(1064.29 139.213) rotate(18.6826)"/>
</clipPath>
<clipPath id="clip5_1369_1623">
<rect width="24" height="24" fill="white" transform="translate(655.688 109) rotate(18.6826)"/>
</clipPath>
<clipPath id="clip6_1369_1623">
<rect width="24" height="24" fill="white" transform="translate(1049.77 242.255) rotate(18.6826)"/>
</clipPath>
<clipPath id="clip7_1369_1623">
<rect width="24" height="24" fill="white" transform="translate(1148.29 275.569) rotate(18.6826)"/>
</clipPath>
<clipPath id="clip8_1369_1623">
<rect width="24" height="24" fill="white" transform="translate(457.393 48.8713) rotate(18.6826)"/>
</clipPath>
<clipPath id="clip9_1369_1623">
<rect width="24" height="24" fill="white" transform="translate(555.914 82.1853) rotate(18.6826)"/>
</clipPath>
<clipPath id="clip10_1369_1623">
<rect width="24" height="24" fill="white" transform="translate(101.743 53.8285) rotate(18.6826)"/>
</clipPath>
<clipPath id="clip11_1369_1623">
<rect width="24" height="24" fill="white" transform="translate(200.263 87.1422) rotate(18.6826)"/>
</clipPath>
<clipPath id="clip12_1369_1623">
<rect width="24" height="24" fill="white" transform="translate(298.783 120.456) rotate(18.6826)"/>
</clipPath>
<clipPath id="clip13_1369_1623">
<rect width="24" height="24" fill="white" transform="translate(298.783 120.456) rotate(18.6826)"/>
</clipPath>
<clipPath id="clip14_1369_1623">
<rect width="24" height="24" fill="white" transform="translate(397.303 153.77) rotate(18.6826)"/>
</clipPath>
<clipPath id="clip15_1369_1623">
<rect width="24" height="24" fill="white" transform="translate(496.257 187.143) rotate(18.6826)"/>
</clipPath>
<clipPath id="clip16_1369_1623">
<rect width="24" height="24" fill="white" transform="translate(9.20685 137.609) rotate(18.6826)"/>
</clipPath>
<clipPath id="clip17_1369_1623">
<rect width="24" height="24" fill="white" transform="translate(107.727 170.923) rotate(18.6826)"/>
</clipPath>
<clipPath id="clip18_1369_1623">
<rect width="24" height="24" fill="white" transform="translate(206.247 204.236) rotate(18.6826)"/>
</clipPath>
<clipPath id="clip19_1369_1623">
<rect width="24" height="24" fill="white" transform="translate(304.767 237.55) rotate(18.6826)"/>
</clipPath>
<clipPath id="clip20_1369_1623">
<rect width="24" height="24" fill="white" transform="translate(403.257 271.143) rotate(18.6826)"/>
</clipPath>
<clipPath id="clip21_1369_1623">
<rect width="24" height="24" fill="white" transform="translate(808.207 293.314) rotate(18.6826)"/>
</clipPath>
<clipPath id="clip22_1369_1623">
<rect width="24" height="24" fill="white" transform="translate(906.727 326.627) rotate(18.6826)"/>
</clipPath>
<clipPath id="clip23_1369_1623">
<rect width="24" height="24" fill="white" transform="translate(931.247 -6.05872) rotate(18.6826)"/>
</clipPath>
<clipPath id="clip24_1369_1623">
<rect width="24" height="24" fill="white" transform="translate(931.247 -6.05872) rotate(18.6826)"/>
</clipPath>
<clipPath id="clip25_1369_1623">
<rect width="24" height="24" fill="white" transform="translate(1029.77 27.2551) rotate(18.6826)"/>
</clipPath>
<clipPath id="clip26_1369_1623">
<rect width="24" height="24" fill="white" transform="translate(1128.26 60.1431) rotate(18.6826)"/>
</clipPath>
<clipPath id="clip27_1369_1623">
<rect width="20" height="20" fill="white" transform="translate(198 240)"/>
</clipPath>
<clipPath id="clip28_1369_1623">
<rect width="24" height="24" fill="white" transform="translate(283 68)"/>
</clipPath>
</defs>
</svg>
