<svg width="720" height="350" viewBox="0 0 720 350" fill="none" xmlns="http://www.w3.org/2000/svg">
<g clip-path="url(#clip0_1369_886)">
<rect width="720" height="350" fill="#FCE9CD"/>
<g opacity="0.38">
<path fill-rule="evenodd" clip-rule="evenodd" d="M673.357 9.13423L688.514 14.2594C689.556 14.6118 690.12 15.7527 689.768 16.7947L686.265 27.1536C686.851 25.3655 686.678 23.5077 685.919 21.9334L685.951 21.8379L685.856 21.8056C685.056 20.2292 683.662 18.9528 681.855 18.3418C680.049 17.7309 678.166 17.8996 676.574 18.6671L676.478 18.6346L676.446 18.7307C674.869 19.5305 673.593 20.9241 672.982 22.7307C672.371 24.5374 672.54 26.4196 673.307 28.0118L673.275 28.1077L673.371 28.1401C674.165 29.7057 675.545 30.9754 677.333 31.5913L666.95 28.0804C665.908 27.728 665.344 26.5872 665.696 25.5451L670.822 10.3882C671.174 9.34615 672.315 8.78187 673.357 9.13423ZM667.591 26.1858L671.38 27.4671L672.661 23.6778L668.872 22.3965L667.591 26.1858ZM669.513 20.5019L673.302 21.7832L674.583 17.994L670.794 16.7127L669.513 20.5019ZM671.435 14.8181L675.224 16.0994L676.505 12.3101L672.716 11.0288L671.435 14.8181ZM677.119 16.74L680.908 18.0213L682.189 14.2321L678.4 12.9508L677.119 16.74ZM682.803 18.662L686.592 19.9433L687.873 16.154L684.084 14.8727L682.803 18.662Z" fill="#EDA768"/>
<rect x="675.267" y="24.8757" width="2.15921" height="2.15921" transform="rotate(-26.3174 675.267 24.8757)" fill="#EDA768"/>
<rect x="680.106" y="22.4831" width="2.15921" height="2.15921" transform="rotate(-26.3174 680.106 22.4831)" fill="#EDA768"/>
<path fill-rule="evenodd" clip-rule="evenodd" d="M675.268 24.8762L677.203 23.9189L678.157 25.8478L676.222 26.805L675.268 24.8762ZM676.665 27.7014L677.421 29.2309C678.347 31.1014 680.613 31.8678 682.484 30.9426C684.354 30.0174 685.121 27.751 684.195 25.8804L683.439 24.3509L681.504 25.3082L682.26 26.8377C682.657 27.6393 682.328 28.6107 681.526 29.0072C680.725 29.4037 679.753 29.0753 679.357 28.2736L678.6 26.7441L676.665 27.7014ZM681.06 24.4118L682.996 23.4546L682.042 21.5257L680.106 22.483L681.06 24.4118Z" fill="#EDA768"/>
<path d="M677.091 23.0645L677.185 22.787C677.33 22.3581 677.639 22.0044 678.045 21.8037V21.8037C678.451 21.6029 678.92 21.5716 679.349 21.7167L679.626 21.8105" stroke="#EDA768"/>
<path d="M675.196 22.4238L675.384 21.8689C675.674 21.0111 676.293 20.3037 677.105 19.9022V19.9022C677.916 19.5008 678.854 19.4382 679.712 19.7282L680.267 19.9159" stroke="#EDA768"/>
</g>
<g opacity="0.38">
<g clip-path="url(#clip1_1369_886)">
<path d="M670.949 126.3L659.929 115.184L658.034 114.544L653.432 128.153L651.538 127.512L653.376 131.442L657.222 129.434L655.327 128.794L659.128 117.553L663.064 121.523L660.064 130.395L658.169 129.755L660.007 133.684L663.853 131.676L661.958 131.036L664.673 123.007L668.594 127.02L666.695 132.637L664.8 131.997L666.638 135.926L670.484 133.919L668.589 133.278L670.949 126.3Z" fill="#EDA768"/>
<path d="M673.993 117.301L672.098 116.66L670.176 122.344L672.071 122.985L673.993 117.301Z" fill="#EDA768"/>
<path d="M674.606 121.731L675.247 119.836L669.563 117.914L668.922 119.809L674.606 121.731Z" fill="#EDA768"/>
</g>
</g>
<g opacity="0.38">
<path fill-rule="evenodd" clip-rule="evenodd" d="M261.525 -4.27154C261.795 -5.07284 261.131 -5.85989 260.359 -5.51459C258.885 -4.85578 257.68 -3.60802 257.123 -1.9586C256.061 1.1805 257.745 4.58573 260.885 5.64719C264.024 6.70866 267.429 5.0244 268.49 1.8853C269.048 0.236353 268.848 -1.48602 268.077 -2.90354C267.673 -3.64683 266.667 -3.42477 266.396 -2.62333C266.287 -2.30113 266.335 -1.95095 266.471 -1.63937C266.857 -0.758873 266.928 0.262428 266.596 1.24465C265.888 3.33738 263.618 4.46022 261.525 3.75258C259.433 3.04493 258.31 0.774781 259.017 -1.31795C259.35 -2.3005 260.026 -3.06925 260.867 -3.53513C261.165 -3.69998 261.416 -3.94926 261.525 -4.27154Z" fill="#EDA768"/>
<path fill-rule="evenodd" clip-rule="evenodd" d="M269.678 4.01555C271.299 3.40196 272.642 2.0946 273.241 0.324811C273.799 -1.32437 273.598 -3.047 272.827 -4.46463C272.423 -5.20782 271.417 -4.98572 271.146 -4.18435C271.037 -3.86212 271.085 -3.51189 271.222 -3.20028C271.607 -2.31969 271.678 -1.29822 271.346 -0.315838C271.202 0.110448 270.993 0.496489 270.734 0.835013C270.689 1.39869 270.575 1.966 270.385 2.52604C270.205 3.06021 269.966 3.55827 269.678 4.01555Z" fill="#EDA768"/>
<path fill-rule="evenodd" clip-rule="evenodd" d="M362.023 18.7339L377.179 23.8591C378.222 24.2115 378.786 25.3523 378.433 26.3944L373.308 41.5513C373.308 41.5533 373.307 41.5552 373.306 41.5572L374.91 36.8148C375.521 35.008 375.352 33.1256 374.585 31.5333L374.617 31.4376L374.521 31.4052C373.721 29.8288 372.328 28.5523 370.521 27.9413C368.714 27.3304 366.832 27.4991 365.239 28.2667L365.144 28.2343L365.111 28.33C363.535 29.1297 362.259 30.5234 361.648 32.3302C361.037 34.137 361.205 36.0194 361.973 37.6117L361.941 37.7074L362.036 37.7398C362.836 39.3162 364.23 40.5927 366.036 41.2036L370.778 42.807C370.776 42.8065 370.775 42.8059 370.773 42.8053L355.616 37.6801C354.574 37.3277 354.01 36.1869 354.362 35.1448L359.487 19.9879C359.84 18.9458 360.981 18.3816 362.023 18.7339ZM356.257 35.7855L360.046 37.0668L361.327 33.2775L357.538 31.9962L356.257 35.7855ZM358.179 30.1016L361.968 31.3829L363.249 27.5937L359.46 26.3124L358.179 30.1016ZM360.101 24.4178L363.89 25.6991L365.171 21.9098L361.382 20.6285L360.101 24.4178ZM365.784 26.3397L369.574 27.621L370.855 23.8318L367.066 22.5505L365.784 26.3397ZM371.468 28.2617L375.258 29.543L376.539 25.7537L372.75 24.4724L371.468 28.2617Z" fill="#EDA768"/>
<rect x="363.932" y="34.4749" width="2.15921" height="2.15921" transform="rotate(-26.3174 363.932 34.4749)" fill="#EDA768"/>
<rect x="368.771" y="32.0819" width="2.15921" height="2.15921" transform="rotate(-26.3174 368.771 32.0819)" fill="#EDA768"/>
<path fill-rule="evenodd" clip-rule="evenodd" d="M363.932 34.4749L365.868 33.5176L366.822 35.4465L364.886 36.4038L363.932 34.4749ZM365.33 37.3001L366.086 38.8296C367.011 40.7001 369.278 41.4665 371.148 40.5413C373.019 39.6161 373.785 37.3497 372.86 35.4791L372.104 33.9496L370.168 34.9069L370.925 36.4364C371.321 37.2381 370.993 38.2094 370.191 38.6059C369.39 39.0024 368.418 38.674 368.022 37.8723L367.265 36.3428L365.33 37.3001ZM369.725 34.0106L371.66 33.0533L370.706 31.1244L368.771 32.0817L369.725 34.0106Z" fill="#EDA768"/>
<path d="M365.757 32.6637L365.85 32.3863C365.995 31.9574 366.305 31.6037 366.711 31.4029V31.4029C367.117 31.2022 367.585 31.1709 368.014 31.3159L368.292 31.4098" stroke="#EDA768"/>
<path d="M363.862 32.0229L364.049 31.468C364.339 30.6102 364.958 29.9028 365.77 29.5013V29.5013C366.582 29.0999 367.52 29.0373 368.377 29.3274L368.932 29.515" stroke="#EDA768"/>
<g clip-path="url(#clip2_1369_886)">
<path d="M470.527 75.5922L476.292 58.5425C476.293 58.542 476.292 58.5414 476.292 58.5412L470.61 56.6199C470.609 56.6198 470.609 56.62 470.609 56.6206L464.843 73.6702C464.843 73.6707 464.843 73.6713 464.844 73.6715L470.526 75.5928C470.526 75.593 470.527 75.5927 470.527 75.5922Z" stroke="#EDA768" stroke-width="2" stroke-miterlimit="10"/>
<path d="M459.159 71.7476L464.924 54.6979C464.924 54.6974 464.924 54.6968 464.924 54.6967L459.242 52.7754C459.241 52.7752 459.241 52.7755 459.24 52.776L453.475 69.8256C453.475 69.8262 453.475 69.8267 453.476 69.8269L459.158 71.7482C459.158 71.7484 459.159 71.7481 459.159 71.7476Z" stroke="#EDA768" stroke-width="2" stroke-miterlimit="10"/>
<path d="M468.12 54.61L461.68 73.6566" stroke="#EDA768" stroke-width="2" stroke-miterlimit="10" stroke-linecap="round" stroke-dasharray="3 3"/>
</g>
<g clip-path="url(#clip3_1369_886)">
<path d="M562.211 88.5377L561.926 89.3808L563.18 91.9161L564.106 89.1783L567.895 90.4596L566.614 94.2489L563.876 93.3231L565.13 95.8584L565.973 96.1435L565.688 96.9866L566.942 99.5219L567.868 96.7841L571.657 98.0654L570.376 101.855L567.638 100.929L568.892 103.464L569.735 103.749L569.45 104.592L570.704 107.128L575.474 93.0222C575.826 91.9802 575.262 90.8393 574.22 90.487L560.114 85.7173L561.368 88.2526L562.211 88.5377ZM569.79 91.1003L573.579 92.3816L572.298 96.1708L568.509 94.8895L569.79 91.1003ZM556.885 83.7175L555.097 84.6015L556.351 87.1368L551.402 101.773C551.05 102.815 551.614 103.956 552.656 104.308L567.292 109.257L568.552 111.805L570.34 110.921L556.885 83.7175ZM561.367 97.2778L562.276 99.1159L560.903 98.6514L561.367 97.2778ZM557.605 89.672L558.514 91.5101L557.141 91.0456L557.605 89.672ZM557.086 103.695L553.297 102.413L554.578 98.6241L558.368 99.9054L557.086 103.695ZM559.008 98.0108L555.219 96.7295L556.5 92.9402L559.768 94.0454L560.113 94.7426L559.008 98.0108ZM562.77 105.617L558.981 104.335L560.262 100.546L563.53 101.651L563.875 102.348L562.77 105.617ZM564.665 106.257L565.129 104.884L566.038 106.722L564.665 106.257Z" fill="#EDA768"/>
</g>
</g>
<g opacity="0.38">
<path fill-rule="evenodd" clip-rule="evenodd" d="M6.37118 23.6907L21.5281 28.8159C22.5701 29.1683 23.1344 30.3091 22.7821 31.3512L17.6569 46.5081C17.6563 46.5099 17.6557 46.5116 17.6551 46.5134L19.2585 41.7716C19.8694 39.9648 19.7007 38.0824 18.9331 36.4901L18.9655 36.3944L18.8698 36.362C18.0701 34.7856 16.6764 33.5091 14.8696 32.8982C13.0628 32.2872 11.1804 32.4559 9.58813 33.2235L9.49243 33.1911L9.46007 33.2868C7.88364 34.0865 6.60713 35.4802 5.99618 37.287C5.38522 39.0938 5.55395 40.9762 6.32153 42.5685L6.28918 42.6642L6.38485 42.6966C7.18237 44.2687 8.57061 45.5425 10.3702 46.1554L-0.0353147 42.6369C-1.07735 42.2845 -1.64164 41.1436 -1.28928 40.1016L3.83591 24.9447C4.18827 23.9026 5.32914 23.3384 6.37118 23.6907ZM0.605335 40.7423L4.39457 42.0236L5.67587 38.2343L1.88663 36.953L0.605335 40.7423ZM2.52728 35.0584L6.31651 36.3397L7.59781 32.5505L3.80858 31.2692L2.52728 35.0584ZM4.44923 29.3746L8.23846 30.6559L9.51976 26.8666L5.73053 25.5853L4.44923 29.3746ZM10.1331 31.2965L13.9223 32.5778L15.2036 28.7886L11.4144 27.5073L10.1331 31.2965ZM15.8169 33.2185L19.6062 34.4998L20.8875 30.7105L17.0982 29.4292L15.8169 33.2185Z" fill="#EDA768"/>
<rect x="8.28125" y="39.4319" width="2.15921" height="2.15921" transform="rotate(-26.3174 8.28125 39.4319)" fill="#EDA768"/>
<rect x="13.1199" y="37.0389" width="2.15921" height="2.15921" transform="rotate(-26.3174 13.1199 37.0389)" fill="#EDA768"/>
<path fill-rule="evenodd" clip-rule="evenodd" d="M8.28125 39.4319L10.2167 38.4746L11.1708 40.4036L9.23534 41.3608L8.28125 39.4319ZM9.67869 42.2572L10.4351 43.7865C11.3603 45.6571 13.6268 46.4235 15.4973 45.4983C17.3679 44.5731 18.1343 42.3067 17.2091 40.4361L16.4526 38.9067L14.5172 39.864L15.2737 41.3933C15.6702 42.195 15.3417 43.1663 14.54 43.5629C13.7384 43.9594 12.767 43.6309 12.3705 42.8293L11.6141 41.2999L9.67869 42.2572ZM14.0739 38.9677L16.0093 38.0104L15.0552 36.0814L13.1198 37.0387L14.0739 38.9677Z" fill="#EDA768"/>
<path d="M10.1057 37.6209L10.1995 37.3434C10.3445 36.9145 10.654 36.5608 11.0598 36.3601V36.3601C11.4657 36.1593 11.9346 36.128 12.3635 36.2731L12.641 36.3669" stroke="#EDA768"/>
<path d="M8.21113 36.9802L8.39877 36.4253C8.68883 35.5675 9.30776 34.8601 10.1194 34.4586V34.4586C10.9311 34.0572 11.869 33.9946 12.7267 34.2847L13.2817 34.4723" stroke="#EDA768"/>
<g clip-path="url(#clip4_1369_886)">
<path fill-rule="evenodd" clip-rule="evenodd" d="M108.585 80.4215L113.39 66.2119L115.284 66.8525L110.48 81.0622L108.585 80.4215Z" fill="#EDA768"/>
<path d="M106.874 59.5366C106.118 59.2811 105.437 59.3683 104.83 59.798C104.224 60.2234 103.75 60.9434 103.407 61.9579C102.693 64.069 103.128 65.3924 104.713 65.9282C105.378 66.153 106.239 66.259 107.297 66.2463L106.727 67.93C105.841 67.991 104.918 67.8595 103.96 67.5354C102.583 67.0697 101.67 66.2969 101.222 65.217C100.776 64.1328 100.817 62.8092 101.346 61.2464C101.678 60.2621 102.149 59.4614 102.757 58.8443C103.366 58.223 104.072 57.829 104.874 57.6624C105.682 57.4929 106.537 57.5608 107.439 57.8659C108.358 58.1768 109.207 58.7115 109.985 59.4701L108.786 60.883C108.489 60.5949 108.182 60.3277 107.866 60.0813C107.55 59.835 107.219 59.6534 106.874 59.5366Z" fill="#EDA768"/>
<path fill-rule="evenodd" clip-rule="evenodd" d="M113.056 70.3212C110.867 69.581 108.734 70.6158 108.145 72.3555C107.557 74.0952 108.624 76.2121 110.813 76.9524C113.002 77.6926 115.135 76.6578 115.724 74.9181C116.312 73.1784 115.245 71.0614 113.056 70.3212ZM106.251 71.7148C107.255 68.7459 110.654 67.3977 113.696 68.4266C116.739 69.4555 118.622 72.5898 117.618 75.5587C116.614 78.5277 113.215 79.8759 110.173 78.847C107.13 77.8181 105.247 74.6838 106.251 71.7148Z" fill="#EDA768"/>
</g>
<g clip-path="url(#clip5_1369_886)">
<path d="M211.365 103.558L215.822 105.071L214.32 109.532L213.212 107.292L204.243 111.728L203.504 110.234L212.473 105.798L211.365 103.558Z" fill="#EDA768"/>
<path d="M213.928 95.9792L218.385 97.4927L216.883 101.954L215.775 99.7136L197.932 108.538L197.193 107.045L215.036 98.2191L213.928 95.9792Z" fill="#EDA768"/>
<path d="M206.67 92.4693L211.127 93.9827L209.625 98.4436L208.517 96.2037L199.547 100.639L198.809 99.146L207.778 94.7092L206.67 92.4693Z" fill="#EDA768"/>
</g>
<g clip-path="url(#clip6_1369_886)">
<g clip-path="url(#clip7_1369_886)">
<path d="M308.163 139.543L306.027 127.128L304.45 131.792L306.586 144.207L308.163 139.543Z" fill="#EDA768"/>
<path fill-rule="evenodd" clip-rule="evenodd" d="M301.264 131.851C303.356 132.559 305.627 131.436 306.334 129.343C307.042 127.251 305.919 124.981 303.826 124.273C301.734 123.565 299.463 124.688 298.756 126.781C298.048 128.874 299.171 131.144 301.264 131.851ZM301.904 129.957C302.951 130.311 304.086 129.749 304.44 128.703C304.793 127.656 304.232 126.521 303.186 126.168C302.139 125.814 301.004 126.375 300.65 127.422C300.297 128.468 300.858 129.603 301.904 129.957Z" fill="#EDA768"/>
<path fill-rule="evenodd" clip-rule="evenodd" d="M308.787 147.062C310.88 147.77 313.15 146.647 313.857 144.554C314.565 142.462 313.442 140.192 311.35 139.484C309.257 138.776 306.987 139.899 306.279 141.992C305.571 144.085 306.694 146.355 308.787 147.062ZM309.428 145.168C310.474 145.522 311.609 144.96 311.963 143.914C312.317 142.868 311.755 141.732 310.709 141.379C309.663 141.025 308.528 141.586 308.174 142.633C307.82 143.679 308.381 144.814 309.428 145.168Z" fill="#EDA768"/>
<path d="M317.088 128.757L315.194 128.117L313.272 133.801L315.167 134.441L317.088 128.757Z" fill="#EDA768"/>
<path d="M317.702 133.187L318.343 131.293L312.659 129.371L312.018 131.265L317.702 133.187Z" fill="#EDA768"/>
</g>
</g>
<g clip-path="url(#clip8_1369_886)">
<path d="M403.6 160.122L403.315 160.965L404.569 163.501L405.495 160.763L409.284 162.044L408.003 165.833L405.265 164.908L406.519 167.443L407.362 167.728L407.077 168.571L408.331 171.106L409.257 168.369L413.046 169.65L411.765 173.439L409.027 172.513L410.281 175.049L411.124 175.334L410.839 176.177L412.093 178.712L416.863 164.607C417.215 163.565 416.651 162.424 415.609 162.071L401.503 157.302L402.757 159.837L403.6 160.122ZM411.179 162.685L414.968 163.966L413.687 167.755L409.897 166.474L411.179 162.685ZM398.274 155.302L396.486 156.186L397.74 158.721L392.791 173.357C392.439 174.399 393.003 175.54 394.045 175.892L408.681 180.841L409.941 183.389L411.729 182.505L398.274 155.302ZM402.756 168.862L403.665 170.7L402.292 170.236L402.756 168.862ZM398.994 161.256L399.903 163.095L398.53 162.63L398.994 161.256ZM398.475 175.279L394.686 173.998L395.967 170.209L399.756 171.49L398.475 175.279ZM400.397 169.595L396.608 168.314L397.889 164.525L401.157 165.63L401.502 166.327L400.397 169.595ZM404.159 177.201L400.37 175.92L401.651 172.13L404.919 173.236L405.264 173.933L404.159 177.201ZM406.054 177.842L406.518 176.468L407.427 178.306L406.054 177.842Z" fill="#EDA768"/>
</g>
<g clip-path="url(#clip9_1369_886)">
<path d="M507.36 203.559L511.817 205.072L510.315 209.533L509.207 207.293L500.237 211.729L499.499 210.236L508.467 205.799L507.36 203.559Z" fill="#EDA768"/>
<path d="M509.922 195.98L514.379 197.494L512.877 201.955L511.77 199.715L493.927 208.539L493.188 207.046L511.03 198.22L509.922 195.98Z" fill="#EDA768"/>
<path d="M502.664 192.47L507.121 193.983L505.619 198.444L504.511 196.204L495.541 200.64L494.803 199.147L503.771 194.71L502.664 192.47Z" fill="#EDA768"/>
</g>
<path d="M595.277 223.88L592.714 231.459C592.522 232.027 592.773 232.534 593.341 232.726L611.674 234.703C612.242 234.895 612.75 234.644 612.942 234.076L614.223 230.287C614.415 229.718 614.164 229.211 613.596 229.019L596.544 223.253C595.976 223.061 595.469 223.312 595.277 223.88ZM611.367 232.488L594.929 231.152L596.851 225.468L612.008 230.594L611.367 232.488Z" fill="#EDA768"/>
<path fill-rule="evenodd" clip-rule="evenodd" d="M602.413 236.058C602.556 236.307 602.585 236.605 602.494 236.877L599.931 244.455C599.754 244.978 599.187 245.259 598.663 245.082L590.138 242.199C589.614 242.022 589.334 241.455 589.511 240.932L591.753 234.3C591.914 233.823 592.406 233.54 592.901 233.641L601.747 235.577C602.028 235.634 602.27 235.81 602.413 236.058ZM593.365 235.777L591.726 240.625L598.357 242.867L600.236 237.309L593.365 235.777Z" fill="#EDA768"/>
<path fill-rule="evenodd" clip-rule="evenodd" d="M611.516 236.949C611.711 237.212 611.765 237.554 611.66 237.865L608.457 247.338C608.28 247.861 607.712 248.142 607.189 247.965L602.453 246.363C601.93 246.187 601.649 245.619 601.826 245.096L604.549 237.044C604.682 236.649 605.047 236.378 605.463 236.365L610.68 236.545C611.008 236.535 611.32 236.685 611.516 236.949ZM606.221 238.341L604.041 244.789L606.883 245.75L609.303 238.591L606.221 238.341Z" fill="#EDA768"/>
</g>
<g opacity="0.38">
<g clip-path="url(#clip10_1369_886)">
<path fill-rule="evenodd" clip-rule="evenodd" d="M16.049 164.202L20.8539 149.992L22.7485 150.633L17.9437 164.842L16.049 164.202Z" fill="#EDA768"/>
<path d="M14.3381 143.317C13.5826 143.061 12.9013 143.148 12.2941 143.578C11.6885 144.004 11.2141 144.724 10.871 145.738C10.1572 147.849 10.5925 149.173 12.1768 149.708C12.8417 149.933 13.703 150.039 14.7609 150.026L14.1916 151.71C13.305 151.771 12.3825 151.64 11.4241 151.316C10.0469 150.85 9.13442 150.077 8.68656 148.997C8.24016 147.913 8.28119 146.589 8.80964 145.027C9.14248 144.042 9.61288 143.242 10.2208 142.625C10.8302 142.003 11.5359 141.609 12.338 141.443C13.1457 141.273 14.0008 141.341 14.9031 141.646C15.8226 141.957 16.6713 142.492 17.4491 143.25L16.2497 144.663C15.9527 144.375 15.6461 144.108 15.3301 143.861C15.0142 143.615 14.6835 143.434 14.3381 143.317Z" fill="#EDA768"/>
<path fill-rule="evenodd" clip-rule="evenodd" d="M20.5198 154.102C18.3307 153.361 16.1977 154.396 15.6094 156.136C15.0211 157.876 16.0884 159.992 18.2775 160.733C20.4666 161.473 22.5996 160.438 23.1879 158.698C23.7761 156.959 22.7088 154.842 20.5198 154.102ZM13.7148 155.495C14.7187 152.526 18.1177 151.178 21.1604 152.207C24.2032 153.236 26.0864 156.37 25.0825 159.339C24.0786 162.308 20.6796 163.656 17.6368 162.627C14.5941 161.598 12.7109 158.464 13.7148 155.495Z" fill="#EDA768"/>
</g>
<g clip-path="url(#clip11_1369_886)">
<path d="M118.83 187.338L123.287 188.852L121.785 193.312L120.677 191.073L111.707 195.508L110.969 194.015L119.938 189.578L118.83 187.338Z" fill="#EDA768"/>
<path d="M121.392 179.76L125.849 181.273L124.347 185.734L123.239 183.494L105.396 192.318L104.658 190.825L122.5 181.999L121.392 179.76Z" fill="#EDA768"/>
<path d="M114.134 176.25L118.591 177.763L117.089 182.224L115.981 179.984L107.012 184.42L106.273 182.926L115.242 178.49L114.134 176.25Z" fill="#EDA768"/>
</g>
<g clip-path="url(#clip12_1369_886)">
<path d="M203.636 218.202L206.478 219.163L209.169 215.886L209.178 223.666L212.122 218.081L215.066 212.496L212.309 228.454L219.155 217.574L219.922 223.111L222.763 224.072" stroke="#EDA768" stroke-width="2" stroke-linejoin="round"/>
<rect width="2" height="4" transform="matrix(-0.947308 -0.320325 -0.320325 0.947308 226.447 213.178)" fill="#EDA768"/>
<rect width="2" height="2" transform="matrix(-0.947308 -0.320325 -0.320325 0.947308 222.965 214.112)" fill="#EDA768"/>
<rect width="2" height="1" transform="matrix(-0.947308 -0.320325 -0.320325 0.947308 219.802 214.098)" fill="#EDA768"/>
</g>
<g clip-path="url(#clip13_1369_886)">
<path d="M311.064 243.902L310.779 244.745L312.033 247.28L312.959 244.543L316.748 245.824L315.467 249.613L312.729 248.688L313.983 251.223L314.826 251.508L314.541 252.351L315.795 254.886L316.721 252.149L320.51 253.43L319.229 257.219L316.491 256.293L317.745 258.829L318.588 259.114L318.303 259.957L319.557 262.492L324.327 248.387C324.679 247.345 324.115 246.204 323.073 245.851L308.967 241.082L310.221 243.617L311.064 243.902ZM318.643 246.465L322.432 247.746L321.151 251.535L317.362 250.254L318.643 246.465ZM305.738 239.082L303.95 239.966L305.204 242.501L300.255 257.137C299.903 258.179 300.467 259.32 301.509 259.672L316.145 264.621L317.406 267.169L319.193 266.285L305.738 239.082ZM310.22 252.642L311.129 254.48L309.756 254.016L310.22 252.642ZM306.458 245.036L307.368 246.874L305.994 246.41L306.458 245.036ZM305.939 259.059L302.15 257.778L303.431 253.988L307.221 255.27L305.939 259.059ZM307.861 253.375L304.072 252.094L305.353 248.305L308.621 249.41L308.966 250.107L307.861 253.375ZM311.623 260.981L307.834 259.7L309.115 255.91L312.383 257.016L312.728 257.713L311.623 260.981ZM313.518 261.622L313.982 260.248L314.891 262.086L313.518 261.622Z" fill="#EDA768"/>
</g>
<g clip-path="url(#clip14_1369_886)">
<path d="M414.36 287.559L418.817 289.072L417.315 293.533L416.207 291.293L407.237 295.729L406.499 294.236L415.467 289.799L414.36 287.559Z" fill="#EDA768"/>
<path d="M416.922 279.98L421.379 281.494L419.877 285.955L418.77 283.715L400.927 292.539L400.188 291.046L418.03 282.22L416.922 279.98Z" fill="#EDA768"/>
<path d="M409.664 276.47L414.121 277.983L412.619 282.444L411.511 280.204L402.541 284.64L401.803 283.147L410.771 278.71L409.664 276.47Z" fill="#EDA768"/>
</g>
<path d="M502.742 307.661L500.179 315.239C499.987 315.808 500.238 316.315 500.806 316.507L519.139 318.484C519.707 318.676 520.214 318.425 520.407 317.857L521.688 314.068C521.88 313.499 521.629 312.992 521.061 312.8L504.009 307.034C503.441 306.842 502.934 307.093 502.742 307.661ZM518.832 316.269L502.394 314.933L504.316 309.249L519.473 314.374L518.832 316.269Z" fill="#EDA768"/>
<path fill-rule="evenodd" clip-rule="evenodd" d="M509.878 319.839C510.021 320.088 510.05 320.386 509.958 320.657L507.396 328.236C507.219 328.759 506.651 329.04 506.128 328.863L497.602 325.98C497.079 325.803 496.799 325.235 496.975 324.712L499.218 318.081C499.379 317.603 499.871 317.321 500.365 317.422L509.212 319.357C509.493 319.415 509.735 319.59 509.878 319.839ZM500.83 319.558L499.19 324.406L505.822 326.648L507.701 321.09L500.83 319.558Z" fill="#EDA768"/>
<path fill-rule="evenodd" clip-rule="evenodd" d="M518.981 320.729C519.176 320.993 519.23 321.335 519.125 321.646L515.922 331.119C515.745 331.642 515.177 331.923 514.654 331.746L509.918 330.144C509.394 329.967 509.114 329.4 509.291 328.877L512.013 320.824C512.147 320.43 512.511 320.159 512.928 320.145L518.145 320.326C518.473 320.315 518.785 320.466 518.981 320.729ZM513.686 322.122L511.506 328.57L514.348 329.531L516.768 322.372L513.686 322.122Z" fill="#EDA768"/>
</g>
<g opacity="0.38">
<path d="M55.1379 270.708L52.5753 278.286C52.3831 278.855 52.6339 279.362 53.2023 279.554L71.5352 281.531C72.1035 281.723 72.6106 281.472 72.8028 280.904L74.0841 277.115C74.2763 276.546 74.0255 276.039 73.4571 275.847L56.4056 270.081C55.8372 269.889 55.3301 270.14 55.1379 270.708ZM71.2285 279.316L54.7903 277.98L56.7122 272.296L71.8691 277.421L71.2285 279.316Z" fill="#EDA768"/>
<path fill-rule="evenodd" clip-rule="evenodd" d="M62.275 282.886C62.4178 283.135 62.4471 283.433 62.3552 283.705L59.7926 291.283C59.6157 291.806 59.0481 292.087 58.525 291.91L49.9992 289.027C49.476 288.85 49.1953 288.283 49.3722 287.76L51.6145 281.129C51.776 280.651 52.268 280.368 52.7621 280.469L61.6082 282.405C61.8892 282.462 62.1321 282.638 62.275 282.886ZM53.2263 282.605L51.5871 287.453L58.2183 289.695L60.0977 284.137L53.2263 282.605Z" fill="#EDA768"/>
<path fill-rule="evenodd" clip-rule="evenodd" d="M71.3768 283.776C71.5724 284.04 71.6263 284.382 71.5213 284.693L68.318 294.166C68.1411 294.689 67.5736 294.97 67.0504 294.793L62.3139 293.191C61.7907 293.014 61.51 292.447 61.6869 291.924L64.4096 283.872C64.5432 283.477 64.9076 283.206 65.3243 283.192L70.5413 283.373C70.8691 283.362 71.1813 283.513 71.3768 283.776ZM66.0823 285.169L63.9018 291.617L66.7437 292.578L69.1644 285.419L66.0823 285.169Z" fill="#EDA768"/>
<path fill-rule="evenodd" clip-rule="evenodd" d="M153.896 314.024C154.167 313.223 153.502 312.436 152.73 312.781C151.257 313.44 150.052 314.688 149.494 316.337C148.433 319.476 150.117 322.881 153.256 323.943C156.395 325.004 159.8 323.32 160.862 320.181C161.419 318.532 161.219 316.81 160.449 315.392C160.045 314.649 159.038 314.871 158.767 315.672C158.659 315.994 158.706 316.345 158.843 316.656C159.228 317.537 159.299 318.558 158.967 319.54C158.259 321.633 155.989 322.756 153.897 322.048C151.804 321.341 150.681 319.07 151.389 316.978C151.721 315.995 152.398 315.226 153.239 314.76C153.536 314.596 153.787 314.346 153.896 314.024Z" fill="#EDA768"/>
<rect x="156.473" y="311.307" width="2" height="6" rx="1" transform="rotate(18.6826 156.473 311.307)" fill="#EDA768"/>
<path fill-rule="evenodd" clip-rule="evenodd" d="M162.17 310.067C161.647 309.89 161.08 310.171 160.903 310.694L160.169 312.863C160.785 313.298 161.318 313.825 161.755 314.418L162.797 311.335C162.974 310.812 162.694 310.244 162.17 310.067Z" fill="#EDA768"/>
<path fill-rule="evenodd" clip-rule="evenodd" d="M162.049 322.311C163.67 321.697 165.014 320.39 165.612 318.62C166.17 316.971 165.969 315.248 165.199 313.831C164.794 313.088 163.788 313.31 163.517 314.111C163.408 314.433 163.456 314.784 163.593 315.095C163.978 315.976 164.05 316.997 163.717 317.98C163.573 318.406 163.364 318.792 163.105 319.13C163.06 319.694 162.946 320.261 162.756 320.822C162.576 321.356 162.337 321.854 162.049 322.311Z" fill="#EDA768"/>
<path fill-rule="evenodd" clip-rule="evenodd" d="M167.241 307.559C166.718 307.382 166.15 307.663 165.973 308.186L165.24 310.356C165.855 310.791 166.388 311.318 166.825 311.91L167.868 308.827C168.045 308.304 167.764 307.736 167.241 307.559Z" fill="#EDA768"/>
<path fill-rule="evenodd" clip-rule="evenodd" d="M167.12 319.802C168.74 319.189 170.084 317.881 170.682 316.112C171.24 314.463 171.039 312.74 170.269 311.322C169.865 310.579 168.858 310.801 168.587 311.603C168.479 311.925 168.526 312.275 168.663 312.587C169.048 313.467 169.12 314.489 168.787 315.471C168.643 315.897 168.434 316.283 168.175 316.622C168.131 317.185 168.016 317.753 167.827 318.313C167.646 318.847 167.407 319.345 167.12 319.802Z" fill="#EDA768"/>
<path fill-rule="evenodd" clip-rule="evenodd" d="M254.394 337.03L269.551 342.155C270.593 342.507 271.157 343.648 270.805 344.69L267.304 355.042C267.888 353.256 267.714 351.401 266.956 349.829L266.988 349.733L266.893 349.701C266.093 348.125 264.699 346.848 262.893 346.237C261.086 345.626 259.204 345.795 257.611 346.563L257.515 346.53L257.483 346.626C255.906 347.426 254.63 348.819 254.019 350.626C253.408 352.433 253.577 354.315 254.344 355.907L254.312 356.003L254.408 356.036C255.201 357.6 256.58 358.869 258.367 359.486L247.987 355.976C246.945 355.623 246.381 354.483 246.733 353.44L251.859 338.284C252.211 337.242 253.352 336.677 254.394 337.03ZM248.628 354.081L252.417 355.362L253.699 351.573L249.909 350.292L248.628 354.081ZM250.55 348.397L254.339 349.679L255.621 345.889L251.831 344.608L250.55 348.397ZM252.472 342.713L256.261 343.995L257.542 340.205L253.753 338.924L252.472 342.713ZM258.156 344.635L261.945 345.917L263.226 342.127L259.437 340.846L258.156 344.635ZM263.84 346.557L267.629 347.839L268.91 344.049L265.121 342.768L263.84 346.557Z" fill="#EDA768"/>
<rect x="261.143" y="350.378" width="2.15921" height="2.15921" transform="rotate(-26.3174 261.143 350.378)" fill="#EDA768"/>
<path fill-rule="evenodd" clip-rule="evenodd" d="M256.304 352.771L258.24 351.814L259.194 353.743L257.258 354.7L256.304 352.771ZM257.702 355.597L258.458 357.126C259.383 358.996 261.65 359.763 263.52 358.837C265.391 357.912 266.157 355.646 265.232 353.775L264.476 352.246L262.54 353.203L263.297 354.732C263.693 355.534 263.365 356.505 262.563 356.902C261.761 357.298 260.79 356.97 260.393 356.168L259.637 354.639L257.702 355.597ZM262.097 352.307L264.032 351.35L263.078 349.421L261.143 350.378L262.097 352.307Z" fill="#EDA768"/>
<path d="M258.128 350.96L258.222 350.682C258.367 350.253 258.676 349.9 259.082 349.699V349.699C259.488 349.498 259.957 349.467 260.386 349.612L260.663 349.706" stroke="#EDA768"/>
<path d="M256.234 350.319L256.421 349.764C256.711 348.906 257.33 348.199 258.142 347.798V347.798C258.954 347.396 259.891 347.334 260.749 347.624L261.304 347.811" stroke="#EDA768"/>
</g>
<g opacity="0.38">
<path fill-rule="evenodd" clip-rule="evenodd" d="M712.836 263.175L727.992 268.301C729.035 268.653 729.599 269.794 729.246 270.836L725.746 281.187C726.33 279.402 726.156 277.547 725.398 275.974L725.43 275.879L725.334 275.847C724.535 274.27 723.141 272.994 721.334 272.383C719.528 271.772 717.645 271.941 716.053 272.708L715.957 272.676L715.924 272.772C714.348 273.572 713.072 274.965 712.461 276.772C711.85 278.578 712.019 280.461 712.786 282.053L712.754 282.149L712.849 282.181C713.643 283.746 715.023 285.016 716.811 285.632L706.429 282.121C705.387 281.769 704.823 280.628 705.175 279.586L710.3 264.429C710.653 263.387 711.793 262.823 712.836 263.175ZM707.07 280.227L710.859 281.508L712.14 277.719L708.351 276.438L707.07 280.227ZM708.992 274.543L712.781 275.824L714.062 272.035L710.273 270.754L708.992 274.543ZM710.914 268.859L714.703 270.14L715.984 266.351L712.195 265.07L710.914 268.859ZM716.597 270.781L720.387 272.062L721.668 268.273L717.879 266.992L716.597 270.781ZM722.281 272.703L726.071 273.984L727.352 270.195L723.563 268.914L722.281 272.703Z" fill="#EDA768"/>
<rect x="714.747" y="278.918" width="2.15921" height="2.15921" transform="rotate(-26.3174 714.747 278.918)" fill="#EDA768"/>
<rect x="719.586" y="276.525" width="2.15921" height="2.15921" transform="rotate(-26.3174 719.586 276.525)" fill="#EDA768"/>
<path fill-rule="evenodd" clip-rule="evenodd" d="M714.747 278.918L716.683 277.961L717.637 279.89L715.701 280.847L714.747 278.918ZM716.145 281.743L716.901 283.273C717.826 285.143 720.093 285.91 721.963 284.984C723.834 284.059 724.6 281.793 723.675 279.922L722.919 278.393L720.983 279.35L721.74 280.879C722.136 281.681 721.808 282.652 721.006 283.049C720.204 283.445 719.233 283.117 718.837 282.315L718.08 280.786L716.145 281.743ZM720.54 278.454L722.475 277.497L721.521 275.567L719.586 276.525L720.54 278.454Z" fill="#EDA768"/>
<path d="M716.571 277.106L716.665 276.829C716.81 276.4 717.119 276.046 717.525 275.845V275.845C717.931 275.645 718.4 275.613 718.829 275.758L719.106 275.852" stroke="#EDA768"/>
<path d="M714.676 276.466L714.864 275.911C715.154 275.053 715.773 274.346 716.585 273.944V273.944C717.396 273.543 718.334 273.48 719.192 273.77L719.747 273.958" stroke="#EDA768"/>
</g>
<g opacity="0.38">
</g>
<g opacity="0.38">
</g>
</g>
<defs>
<clipPath id="clip0_1369_886">
<rect width="720" height="350" fill="white"/>
</clipPath>
<clipPath id="clip1_1369_886">
<rect width="24" height="24" fill="white" transform="translate(655.688 109) rotate(18.6826)"/>
</clipPath>
<clipPath id="clip2_1369_886">
<rect width="24" height="24" fill="white" transform="translate(457.393 48.8713) rotate(18.6826)"/>
</clipPath>
<clipPath id="clip3_1369_886">
<rect width="24" height="24" fill="white" transform="translate(555.914 82.1854) rotate(18.6826)"/>
</clipPath>
<clipPath id="clip4_1369_886">
<rect width="24" height="24" fill="white" transform="translate(101.743 53.8285) rotate(18.6826)"/>
</clipPath>
<clipPath id="clip5_1369_886">
<rect width="24" height="24" fill="white" transform="translate(200.263 87.1423) rotate(18.6826)"/>
</clipPath>
<clipPath id="clip6_1369_886">
<rect width="24" height="24" fill="white" transform="translate(298.783 120.456) rotate(18.6826)"/>
</clipPath>
<clipPath id="clip7_1369_886">
<rect width="24" height="24" fill="white" transform="translate(298.783 120.456) rotate(18.6826)"/>
</clipPath>
<clipPath id="clip8_1369_886">
<rect width="24" height="24" fill="white" transform="translate(397.303 153.77) rotate(18.6826)"/>
</clipPath>
<clipPath id="clip9_1369_886">
<rect width="24" height="24" fill="white" transform="translate(496.257 187.143) rotate(18.6826)"/>
</clipPath>
<clipPath id="clip10_1369_886">
<rect width="24" height="24" fill="white" transform="translate(9.20679 137.609) rotate(18.6826)"/>
</clipPath>
<clipPath id="clip11_1369_886">
<rect width="24" height="24" fill="white" transform="translate(107.727 170.923) rotate(18.6826)"/>
</clipPath>
<clipPath id="clip12_1369_886">
<rect width="24" height="24" fill="white" transform="translate(206.247 204.236) rotate(18.6826)"/>
</clipPath>
<clipPath id="clip13_1369_886">
<rect width="24" height="24" fill="white" transform="translate(304.767 237.55) rotate(18.6826)"/>
</clipPath>
<clipPath id="clip14_1369_886">
<rect width="24" height="24" fill="white" transform="translate(403.257 271.143) rotate(18.6826)"/>
</clipPath>
</defs>
</svg>
