<svg width="900" height="350" viewBox="0 0 900 350" fill="none" xmlns="http://www.w3.org/2000/svg">
<g clip-path="url(#clip0_1369_886)">
<rect width="900" height="350" fill="#FCE9CD"/>
<g opacity="0.38">
<path fill-rule="evenodd" clip-rule="evenodd" d="M673.357 9.1343L688.513 14.2595C689.555 14.6119 690.12 15.7527 689.767 16.7948L686.265 27.1537C686.851 25.3656 686.678 23.5078 685.919 21.9335L685.951 21.838L685.855 21.8057C685.056 20.2293 683.662 18.9529 681.855 18.3419C680.048 17.731 678.166 17.8997 676.574 18.6672L676.478 18.6347L676.445 18.7308C674.869 19.5305 673.593 20.9241 672.982 22.7308C672.371 24.5375 672.54 26.4197 673.307 28.0119L673.275 28.1078L673.37 28.1402C674.165 29.7057 675.544 30.9755 677.333 31.5914L666.95 28.0805C665.908 27.7281 665.344 26.5872 665.696 25.5452L670.821 10.3883C671.174 9.34623 672.314 8.78194 673.357 9.1343ZM667.591 26.1858L671.38 27.4671L672.661 23.6779L668.872 22.3966L667.591 26.1858ZM669.513 20.502L673.302 21.7833L674.583 17.9941L670.794 16.7128L669.513 20.502ZM671.435 14.8182L675.224 16.0995L676.505 12.3102L672.716 11.0289L671.435 14.8182ZM677.118 16.7401L680.908 18.0214L682.189 14.2322L678.4 12.9509L677.118 16.7401ZM682.802 18.662L686.592 19.9433L687.873 16.1541L684.084 14.8728L682.802 18.662Z" fill="#EDA768"/>
<rect x="675.267" y="24.8757" width="2.15921" height="2.15921" transform="rotate(-26.3174 675.267 24.8757)" fill="#EDA768"/>
<rect x="680.106" y="22.4832" width="2.15921" height="2.15921" transform="rotate(-26.3174 680.106 22.4832)" fill="#EDA768"/>
<path fill-rule="evenodd" clip-rule="evenodd" d="M675.268 24.8762L677.203 23.9189L678.157 25.8478L676.222 26.8051L675.268 24.8762ZM676.665 27.7015L677.421 29.2309C678.347 31.1015 680.613 31.8679 682.484 30.9427C684.354 30.0174 685.121 27.751 684.195 25.8804L683.439 24.351L681.504 25.3083L682.26 26.8377C682.657 27.6394 682.328 28.6107 681.526 29.0072C680.725 29.4038 679.753 29.0753 679.357 28.2736L678.6 26.7442L676.665 27.7015ZM681.06 24.4119L682.996 23.4546L682.042 21.5258L680.106 22.483L681.06 24.4119Z" fill="#EDA768"/>
<path d="M677.091 23.0644L677.185 22.787C677.33 22.3581 677.639 22.0043 678.045 21.8036V21.8036C678.451 21.6029 678.92 21.5716 679.349 21.7166L679.626 21.8104" stroke="#EDA768"/>
<path d="M675.196 22.4239L675.384 21.869C675.674 21.0112 676.293 20.3037 677.105 19.9023V19.9023C677.916 19.5008 678.854 19.4382 679.712 19.7283L680.267 19.9159" stroke="#EDA768"/>
<g clip-path="url(#clip1_1369_886)">
<path fill-rule="evenodd" clip-rule="evenodd" d="M775.57 65.865L780.375 51.6554L782.27 52.296L777.465 66.5056L775.57 65.865Z" fill="#EDA768"/>
<path d="M773.859 44.9801C773.104 44.7247 772.423 44.8118 771.815 45.2415C771.21 45.6669 770.735 46.3869 770.392 47.4014C769.678 49.5125 770.114 50.8359 771.698 51.3717C772.363 51.5965 773.224 51.7025 774.282 51.6898L773.713 53.3735C772.826 53.4345 771.904 53.303 770.945 52.9789C769.568 52.5133 768.656 51.7405 768.208 50.6605C767.761 49.5763 767.802 48.2528 768.331 46.69C768.664 45.7056 769.134 44.905 769.742 44.2879C770.351 43.6665 771.057 43.2725 771.859 43.1059C772.667 42.9365 773.522 43.0043 774.424 43.3094C775.344 43.6203 776.193 44.1551 776.97 44.9136L775.771 46.3265C775.474 46.0384 775.167 45.7712 774.851 45.5249C774.535 45.2785 774.205 45.0969 773.859 44.9801Z" fill="#EDA768"/>
<path fill-rule="evenodd" clip-rule="evenodd" d="M780.041 55.7647C777.852 55.0245 775.719 56.0592 775.131 57.799C774.542 59.5387 775.61 61.6556 777.799 62.3958C779.988 63.1361 782.121 62.1013 782.709 60.3616C783.297 58.6218 782.23 56.5049 780.041 55.7647ZM773.236 57.1583C774.24 54.1894 777.639 52.8412 780.682 53.8701C783.724 54.899 785.608 58.0333 784.604 61.0022C783.6 63.9711 780.201 65.3193 777.158 64.2905C774.115 63.2616 772.232 60.1272 773.236 57.1583Z" fill="#EDA768"/>
</g>
<g clip-path="url(#clip2_1369_886)">
<path d="M878.351 89.0013L882.808 90.5148L881.306 94.9757L880.198 92.7358L871.228 97.1713L870.49 95.6781L879.458 91.2412L878.351 89.0013Z" fill="#EDA768"/>
<path d="M880.913 81.423L885.37 82.9365L883.868 87.3974L882.76 85.1575L864.918 93.9819L864.179 92.4886L882.021 83.6629L880.913 81.423Z" fill="#EDA768"/>
<path d="M873.654 77.9124L878.111 79.4259L876.609 83.8868L875.502 81.6469L866.532 86.0825L865.793 84.5892L874.762 80.1523L873.654 77.9124Z" fill="#EDA768"/>
</g>
</g>
<g opacity="0.38">
<g clip-path="url(#clip3_1369_886)">
<path d="M670.949 126.3L659.929 115.184L658.034 114.544L653.432 128.153L651.538 127.512L653.376 131.442L657.222 129.434L655.327 128.794L659.128 117.553L663.064 121.523L660.063 130.395L658.169 129.755L660.007 133.684L663.853 131.676L661.958 131.036L664.673 123.007L668.594 127.02L666.695 132.637L664.8 131.997L666.638 135.926L670.484 133.919L668.589 133.278L670.949 126.3Z" fill="#EDA768"/>
<path d="M673.993 117.301L672.098 116.66L670.176 122.344L672.071 122.985L673.993 117.301Z" fill="#EDA768"/>
<path d="M674.606 121.731L675.247 119.836L669.563 117.914L668.922 119.809L674.606 121.731Z" fill="#EDA768"/>
</g>
<path d="M755.141 145.796L752.579 153.375C752.386 153.943 752.637 154.45 753.205 154.643L771.538 156.619C772.107 156.811 772.614 156.561 772.806 155.992L774.087 152.203C774.279 151.635 774.029 151.127 773.46 150.935L756.409 145.169C755.84 144.977 755.333 145.228 755.141 145.796ZM771.232 154.404L754.793 153.068L756.715 147.384L771.872 152.51L771.232 154.404Z" fill="#EDA768"/>
<path fill-rule="evenodd" clip-rule="evenodd" d="M762.278 157.975C762.421 158.223 762.45 158.521 762.358 158.793L759.796 166.372C759.619 166.895 759.051 167.176 758.528 166.999L750.002 164.116C749.479 163.939 749.198 163.371 749.375 162.848L751.618 156.217C751.779 155.739 752.271 155.456 752.765 155.557L761.611 157.493C761.892 157.551 762.135 157.726 762.278 157.975ZM753.229 157.694L751.59 162.541L758.221 164.784L760.101 159.226L753.229 157.694Z" fill="#EDA768"/>
<path fill-rule="evenodd" clip-rule="evenodd" d="M771.381 158.865C771.576 159.128 771.63 159.471 771.525 159.782L768.322 169.255C768.145 169.778 767.577 170.059 767.054 169.882L762.318 168.28C761.794 168.103 761.514 167.536 761.691 167.012L764.413 158.96C764.547 158.565 764.911 158.295 765.328 158.281L770.545 158.462C770.873 158.451 771.185 158.602 771.381 158.865ZM766.086 160.257L763.906 166.706L766.748 167.667L769.168 160.508L766.086 160.257Z" fill="#EDA768"/>
<path fill-rule="evenodd" clip-rule="evenodd" d="M853.898 189.113C854.169 188.311 853.504 187.524 852.732 187.869C851.259 188.528 850.054 189.776 849.497 191.425C848.435 194.564 850.12 197.969 853.259 199.031C856.398 200.092 859.803 198.408 860.864 195.269C861.422 193.62 861.222 191.897 860.451 190.479C860.047 189.736 859.041 189.958 858.77 190.759C858.661 191.082 858.709 191.432 858.845 191.743C859.231 192.624 859.302 193.646 858.97 194.628C858.262 196.721 855.992 197.844 853.899 197.136C851.807 196.429 850.684 194.158 851.391 192.066C851.724 191.083 852.4 190.315 853.241 189.849C853.538 189.684 853.789 189.435 853.898 189.113Z" fill="#EDA768"/>
<rect x="856.476" y="186.395" width="2" height="6" rx="1" transform="rotate(18.6826 856.476 186.395)" fill="#EDA768"/>
<path fill-rule="evenodd" clip-rule="evenodd" d="M862.173 185.155C861.65 184.978 861.083 185.259 860.906 185.782L860.172 187.951C860.788 188.386 861.32 188.913 861.758 189.506L862.8 186.423C862.977 185.899 862.696 185.332 862.173 185.155Z" fill="#EDA768"/>
<path fill-rule="evenodd" clip-rule="evenodd" d="M867.243 182.647C866.72 182.47 866.153 182.751 865.976 183.274L865.242 185.443C865.858 185.878 866.391 186.405 866.828 186.998L867.87 183.914C868.047 183.391 867.767 182.824 867.243 182.647Z" fill="#EDA768"/>
<path fill-rule="evenodd" clip-rule="evenodd" d="M867.123 194.893C868.744 194.279 870.088 192.972 870.686 191.201C871.244 189.552 871.044 187.829 870.273 186.411C869.868 185.668 868.862 185.89 868.592 186.692C868.483 187.014 868.531 187.364 868.667 187.676C869.053 188.556 869.124 189.578 868.792 190.561C868.647 190.987 868.438 191.374 868.179 191.713C868.134 192.276 868.019 192.842 867.83 193.402C867.649 193.937 867.41 194.435 867.123 194.893Z" fill="#EDA768"/>
</g>
<g opacity="0.38">
<path fill-rule="evenodd" clip-rule="evenodd" d="M261.525 -4.27149C261.796 -5.07279 261.131 -5.85984 260.359 -5.51455C258.885 -4.85573 257.681 -3.60798 257.123 -1.95856C256.061 1.18054 257.746 4.58578 260.885 5.64724C264.024 6.7087 267.429 5.02444 268.491 1.88534C269.048 0.236399 268.848 -1.48598 268.077 -2.9035C267.673 -3.64679 266.667 -3.42472 266.396 -2.62328C266.287 -2.30109 266.335 -1.9509 266.472 -1.63932C266.857 -0.758828 266.928 0.262474 266.596 1.24469C265.888 3.33743 263.618 4.46027 261.525 3.75262C259.433 3.04498 258.31 0.774827 259.017 -1.31791C259.35 -2.30045 260.026 -3.0692 260.867 -3.53509C261.165 -3.69994 261.416 -3.94921 261.525 -4.27149Z" fill="#EDA768"/>
<path fill-rule="evenodd" clip-rule="evenodd" d="M269.678 4.0156C271.299 3.402 272.642 2.09465 273.241 0.324857C273.799 -1.32432 273.598 -3.04695 272.827 -4.46459C272.423 -5.20777 271.417 -4.98568 271.146 -4.18431C271.037 -3.86207 271.085 -3.51184 271.222 -3.20024C271.607 -2.31965 271.678 -1.29817 271.346 -0.315792C271.202 0.110493 270.993 0.496535 270.734 0.835059C270.689 1.39874 270.575 1.96604 270.385 2.52609C270.205 3.06026 269.966 3.55832 269.678 4.0156Z" fill="#EDA768"/>
<path fill-rule="evenodd" clip-rule="evenodd" d="M362.022 18.7339L377.179 23.8591C378.221 24.2115 378.786 25.3523 378.433 26.3944L373.308 41.5513C373.307 41.5533 373.307 41.5552 373.306 41.5572L374.91 36.8148C375.521 35.008 375.352 33.1256 374.584 31.5333L374.617 31.4376L374.521 31.4052C373.721 29.8288 372.328 28.5523 370.521 27.9413C368.714 27.3304 366.832 27.4991 365.239 28.2667L365.144 28.2343L365.111 28.33C363.535 29.1297 362.258 30.5234 361.647 32.3302C361.036 34.137 361.205 36.0194 361.973 37.6117L361.94 37.7074L362.036 37.7398C362.836 39.3162 364.229 40.5927 366.036 41.2036L370.778 42.807C370.776 42.8065 370.775 42.8059 370.773 42.8053L355.616 37.6801C354.574 37.3277 354.01 36.1868 354.362 35.1448L359.487 19.9879C359.839 18.9458 360.98 18.3816 362.022 18.7339ZM356.257 35.7855L360.046 37.0668L361.327 33.2775L357.538 31.9962L356.257 35.7855ZM358.178 30.1016L361.968 31.3829L363.249 27.5937L359.46 26.3124L358.178 30.1016ZM360.1 24.4178L363.89 25.6991L365.171 21.9098L361.382 20.6285L360.1 24.4178ZM365.784 26.3397L369.573 27.621L370.855 23.8318L367.066 22.5505L365.784 26.3397ZM371.468 28.2617L375.257 29.543L376.539 25.7537L372.749 24.4724L371.468 28.2617Z" fill="#EDA768"/>
<rect x="363.932" y="34.4749" width="2.15921" height="2.15921" transform="rotate(-26.3174 363.932 34.4749)" fill="#EDA768"/>
<rect x="368.771" y="32.0819" width="2.15921" height="2.15921" transform="rotate(-26.3174 368.771 32.0819)" fill="#EDA768"/>
<path fill-rule="evenodd" clip-rule="evenodd" d="M363.932 34.4749L365.868 33.5176L366.822 35.4464L364.886 36.4037L363.932 34.4749ZM365.33 37.3001L366.086 38.8295C367.011 40.7001 369.278 41.4665 371.148 40.5413C373.019 39.6161 373.785 37.3497 372.86 35.4791L372.104 33.9496L370.168 34.9069L370.925 36.4364C371.321 37.238 370.993 38.2094 370.191 38.6059C369.389 39.0024 368.418 38.674 368.022 37.8723L367.265 36.3428L365.33 37.3001ZM369.725 34.0105L371.66 33.0533L370.706 31.1244L368.771 32.0817L369.725 34.0105Z" fill="#EDA768"/>
<path d="M365.756 32.6638L365.85 32.3863C365.995 31.9574 366.305 31.6037 366.711 31.403V31.403C367.116 31.2023 367.585 31.171 368.014 31.316L368.292 31.4098" stroke="#EDA768"/>
<path d="M363.862 32.023L364.049 31.4681C364.339 30.6103 364.958 29.9028 365.77 29.5014V29.5014C366.582 29.0999 367.52 29.0374 368.377 29.3274L368.932 29.5151" stroke="#EDA768"/>
<g clip-path="url(#clip4_1369_886)">
<path d="M470.528 75.5921L476.293 58.5425C476.293 58.5419 476.293 58.5414 476.292 58.5412L470.61 56.6199C470.61 56.6197 470.609 56.62 470.609 56.6205L464.844 73.6701C464.844 73.6707 464.844 73.6712 464.844 73.6714L470.526 75.5927C470.527 75.5929 470.527 75.5926 470.528 75.5921Z" stroke="#EDA768" stroke-width="2" stroke-miterlimit="10"/>
<path d="M459.159 71.7475L464.924 54.6978C464.924 54.6973 464.924 54.6968 464.924 54.6966L459.242 52.7753C459.241 52.7751 459.241 52.7754 459.24 52.7759L453.475 69.8255C453.475 69.8261 453.475 69.8266 453.476 69.8268L459.158 71.7481C459.158 71.7483 459.159 71.748 459.159 71.7475Z" stroke="#EDA768" stroke-width="2" stroke-miterlimit="10"/>
<path d="M468.121 54.61L461.68 73.6566" stroke="#EDA768" stroke-width="2" stroke-miterlimit="10" stroke-linecap="round" stroke-dasharray="3 3"/>
</g>
<g clip-path="url(#clip5_1369_886)">
<path d="M562.211 88.5375L561.926 89.3806L563.18 91.9159L564.106 89.1782L567.895 90.4595L566.614 94.2487L563.876 93.323L565.13 95.8582L565.973 96.1433L565.688 96.9864L566.942 99.5217L567.868 96.784L571.657 98.0653L570.376 101.855L567.638 100.929L568.892 103.464L569.735 103.749L569.45 104.592L570.704 107.127L575.474 93.0221C575.826 91.98 575.262 90.8392 574.22 90.4868L560.114 85.7172L561.368 88.2524L562.211 88.5375ZM569.79 91.1001L573.579 92.3814L572.298 96.1707L568.509 94.8894L569.79 91.1001ZM556.885 83.7173L555.097 84.6013L556.351 87.1366L551.402 101.773C551.05 102.815 551.614 103.955 552.656 104.308L567.292 109.257L568.553 111.805L570.34 110.921L556.885 83.7173ZM561.367 97.2777L562.276 99.1157L560.903 98.6513L561.367 97.2777ZM557.605 89.6719L558.515 91.5099L557.141 91.0455L557.605 89.6719ZM557.086 103.694L553.297 102.413L554.578 98.6239L558.368 99.9052L557.086 103.694ZM559.008 98.0106L555.219 96.7293L556.5 92.9401L559.769 94.0452L560.113 94.7424L559.008 98.0106ZM562.77 105.616L558.981 104.335L560.262 100.546L563.53 101.651L563.875 102.348L562.77 105.616ZM564.665 106.257L565.129 104.883L566.038 106.722L564.665 106.257Z" fill="#EDA768"/>
</g>
</g>
<g opacity="0.38">
<path fill-rule="evenodd" clip-rule="evenodd" d="M6.3713 23.6907L21.5282 28.8159C22.5703 29.1683 23.1346 30.3091 22.7822 31.3512L17.657 46.5081C17.6564 46.5098 17.6558 46.5116 17.6552 46.5133L19.2586 41.7716C19.8696 39.9648 19.7008 38.0824 18.9333 36.4901L18.9656 36.3944L18.8699 36.362C18.0702 34.7856 16.6765 33.5091 14.8697 32.8981C13.0629 32.2872 11.1806 32.4559 9.58825 33.2235L9.49255 33.1911L9.46019 33.2868C7.88377 34.0865 6.60726 35.4802 5.9963 37.287C5.38534 39.0938 5.55407 40.9762 6.32165 42.5685L6.2893 42.6642L6.38497 42.6965C7.18249 44.2687 8.57074 45.5425 10.3703 46.1554L-0.0351926 42.6369C-1.07723 42.2845 -1.64152 41.1436 -1.28916 40.1016L3.83604 24.9447C4.18839 23.9026 5.32926 23.3383 6.3713 23.6907ZM0.605457 40.7422L4.39469 42.0235L5.67599 38.2343L1.88676 36.953L0.605457 40.7422ZM2.5274 35.0584L6.31664 36.3397L7.59794 32.5505L3.8087 31.2692L2.5274 35.0584ZM4.44935 29.3745L8.23858 30.6558L9.51988 26.8666L5.73065 25.5853L4.44935 29.3745ZM10.1332 31.2965L13.9224 32.5778L15.2037 28.7886L11.4145 27.5073L10.1332 31.2965ZM15.817 33.2184L19.6063 34.4997L20.8876 30.7105L17.0983 29.4292L15.817 33.2184Z" fill="#EDA768"/>
<rect x="8.2814" y="39.4319" width="2.15921" height="2.15921" transform="rotate(-26.3174 8.2814 39.4319)" fill="#EDA768"/>
<rect x="13.1201" y="37.0389" width="2.15921" height="2.15921" transform="rotate(-26.3174 13.1201 37.0389)" fill="#EDA768"/>
<path fill-rule="evenodd" clip-rule="evenodd" d="M8.28137 39.4319L10.2168 38.4746L11.1709 40.4036L9.23547 41.3609L8.28137 39.4319ZM9.67881 42.2572L10.4352 43.7866C11.3604 45.6571 13.6269 46.4235 15.4974 45.4983C17.368 44.5731 18.1344 42.3067 17.2092 40.4361L16.4528 38.9068L14.5174 39.864L15.2738 41.3934C15.6703 42.195 15.3418 43.1664 14.5402 43.5629C13.7385 43.9594 12.7672 43.631 12.3707 42.8293L11.6142 41.2999L9.67881 42.2572ZM14.074 38.9677L16.0094 38.0104L15.0553 36.0814L13.1199 37.0387L14.074 38.9677Z" fill="#EDA768"/>
<path d="M10.1057 37.6208L10.1995 37.3434C10.3445 36.9145 10.654 36.5607 11.0598 36.36V36.36C11.4656 36.1593 11.9346 36.128 12.3635 36.273L12.6409 36.3668" stroke="#EDA768"/>
<path d="M8.21107 36.9803L8.39871 36.4254C8.68877 35.5676 9.3077 34.8601 10.1194 34.4587V34.4587C10.931 34.0572 11.8689 33.9946 12.7267 34.2847L13.2816 34.4723" stroke="#EDA768"/>
<g clip-path="url(#clip6_1369_886)">
<path fill-rule="evenodd" clip-rule="evenodd" d="M108.585 80.4215L113.39 66.2119L115.284 66.8525L110.479 81.0622L108.585 80.4215Z" fill="#EDA768"/>
<path d="M106.874 59.5367C106.118 59.2812 105.437 59.3683 104.83 59.798C104.224 60.2234 103.75 60.9434 103.407 61.9579C102.693 64.069 103.128 65.3925 104.713 65.9282C105.378 66.153 106.239 66.2591 107.297 66.2463L106.727 67.93C105.841 67.9911 104.918 67.8595 103.96 67.5355C102.583 67.0698 101.67 66.297 101.222 65.217C100.776 64.1328 100.817 62.8093 101.345 61.2465C101.678 60.2622 102.149 59.4615 102.757 58.8444C103.366 58.223 104.072 57.829 104.874 57.6624C105.682 57.493 106.537 57.5608 107.439 57.8659C108.358 58.1769 109.207 58.7116 109.985 59.4701L108.786 60.883C108.488 60.595 108.182 60.3277 107.866 60.0814C107.55 59.835 107.219 59.6534 106.874 59.5367Z" fill="#EDA768"/>
<path fill-rule="evenodd" clip-rule="evenodd" d="M113.055 70.3212C110.866 69.581 108.733 70.6158 108.145 72.3555C107.557 74.0952 108.624 76.2121 110.813 76.9524C113.002 77.6926 115.135 76.6578 115.724 74.9181C116.312 73.1784 115.245 71.0614 113.055 70.3212ZM106.25 71.7148C107.254 68.7459 110.653 67.3977 113.696 68.4266C116.739 69.4555 118.622 72.5898 117.618 75.5587C116.614 78.5277 113.215 79.8759 110.173 78.847C107.13 77.8181 105.247 74.6838 106.25 71.7148Z" fill="#EDA768"/>
</g>
<g clip-path="url(#clip7_1369_886)">
<path d="M211.365 103.558L215.822 105.071L214.32 109.532L213.212 107.292L204.243 111.728L203.504 110.234L212.473 105.798L211.365 103.558Z" fill="#EDA768"/>
<path d="M213.928 95.9792L218.385 97.4926L216.883 101.954L215.775 99.7136L197.932 108.538L197.193 107.045L215.036 98.2191L213.928 95.9792Z" fill="#EDA768"/>
<path d="M206.67 92.4693L211.127 93.9828L209.625 98.4437L208.517 96.2038L199.547 100.639L198.809 99.1461L207.777 94.7092L206.67 92.4693Z" fill="#EDA768"/>
</g>
<g clip-path="url(#clip8_1369_886)">
<g clip-path="url(#clip9_1369_886)">
<path d="M308.163 139.543L306.027 127.128L304.45 131.792L306.586 144.207L308.163 139.543Z" fill="#EDA768"/>
<path fill-rule="evenodd" clip-rule="evenodd" d="M301.264 131.851C303.356 132.559 305.627 131.436 306.334 129.344C307.042 127.251 305.919 124.981 303.826 124.273C301.733 123.565 299.463 124.688 298.756 126.781C298.048 128.874 299.171 131.144 301.264 131.851ZM301.904 129.957C302.951 130.311 304.086 129.749 304.44 128.703C304.793 127.657 304.232 126.521 303.186 126.168C302.139 125.814 301.004 126.375 300.65 127.422C300.296 128.468 300.858 129.603 301.904 129.957Z" fill="#EDA768"/>
<path fill-rule="evenodd" clip-rule="evenodd" d="M308.787 147.062C310.879 147.77 313.15 146.647 313.857 144.554C314.565 142.462 313.442 140.192 311.349 139.484C309.257 138.776 306.986 139.899 306.279 141.992C305.571 144.085 306.694 146.355 308.787 147.062ZM309.428 145.168C310.474 145.522 311.609 144.96 311.963 143.914C312.317 142.868 311.755 141.732 310.709 141.379C309.662 141.025 308.527 141.586 308.174 142.633C307.82 143.679 308.381 144.814 309.428 145.168Z" fill="#EDA768"/>
<path d="M317.089 128.757L315.194 128.117L313.272 133.801L315.167 134.441L317.089 128.757Z" fill="#EDA768"/>
<path d="M317.702 133.187L318.343 131.293L312.659 129.371L312.018 131.265L317.702 133.187Z" fill="#EDA768"/>
</g>
</g>
<g clip-path="url(#clip10_1369_886)">
<path d="M403.6 160.122L403.315 160.965L404.569 163.501L405.495 160.763L409.284 162.044L408.003 165.833L405.265 164.908L406.519 167.443L407.362 167.728L407.077 168.571L408.331 171.106L409.257 168.369L413.046 169.65L411.765 173.439L409.027 172.513L410.281 175.049L411.124 175.334L410.839 176.177L412.093 178.712L416.863 164.607C417.215 163.565 416.651 162.424 415.609 162.072L401.503 157.302L402.757 159.837L403.6 160.122ZM411.179 162.685L414.968 163.966L413.687 167.755L409.898 166.474L411.179 162.685ZM398.274 155.302L396.486 156.186L397.74 158.721L392.791 173.357C392.439 174.399 393.003 175.54 394.045 175.892L408.681 180.842L409.941 183.389L411.729 182.505L398.274 155.302ZM402.756 168.862L403.665 170.7L402.292 170.236L402.756 168.862ZM398.994 161.257L399.903 163.095L398.53 162.63L398.994 161.257ZM398.475 175.279L394.686 173.998L395.967 170.209L399.756 171.49L398.475 175.279ZM400.397 169.595L396.608 168.314L397.889 164.525L401.157 165.63L401.502 166.327L400.397 169.595ZM404.159 177.201L400.37 175.92L401.651 172.131L404.919 173.236L405.264 173.933L404.159 177.201ZM406.054 177.842L406.518 176.468L407.427 178.306L406.054 177.842Z" fill="#EDA768"/>
</g>
<g clip-path="url(#clip11_1369_886)">
<path d="M507.36 203.559L511.817 205.072L510.315 209.533L509.207 207.293L500.237 211.729L499.499 210.235L508.468 205.799L507.36 203.559Z" fill="#EDA768"/>
<path d="M509.922 195.98L514.38 197.494L512.877 201.955L511.77 199.715L493.927 208.539L493.188 207.046L511.03 198.22L509.922 195.98Z" fill="#EDA768"/>
<path d="M502.664 192.47L507.121 193.983L505.619 198.444L504.511 196.204L495.541 200.64L494.803 199.147L503.771 194.71L502.664 192.47Z" fill="#EDA768"/>
</g>
<path d="M595.277 223.88L592.714 231.459C592.522 232.027 592.773 232.534 593.341 232.727L611.674 234.703C612.242 234.895 612.75 234.645 612.942 234.076L614.223 230.287C614.415 229.719 614.164 229.211 613.596 229.019L596.544 223.253C595.976 223.061 595.469 223.312 595.277 223.88ZM611.367 232.488L594.929 231.152L596.851 225.468L612.008 230.594L611.367 232.488Z" fill="#EDA768"/>
<path fill-rule="evenodd" clip-rule="evenodd" d="M602.414 236.058C602.556 236.307 602.586 236.605 602.494 236.877L599.931 244.455C599.754 244.978 599.187 245.259 598.664 245.082L590.138 242.199C589.615 242.022 589.334 241.455 589.511 240.932L591.753 234.3C591.915 233.823 592.407 233.54 592.901 233.641L601.747 235.577C602.028 235.634 602.271 235.809 602.414 236.058ZM593.365 235.777L591.726 240.625L598.357 242.867L600.236 237.309L593.365 235.777Z" fill="#EDA768"/>
<path fill-rule="evenodd" clip-rule="evenodd" d="M611.516 236.949C611.711 237.212 611.765 237.554 611.66 237.865L608.457 247.338C608.28 247.861 607.712 248.142 607.189 247.965L602.453 246.364C601.929 246.187 601.649 245.619 601.826 245.096L604.548 237.044C604.682 236.649 605.046 236.378 605.463 236.365L610.68 236.545C611.008 236.535 611.32 236.685 611.516 236.949ZM606.221 238.341L604.041 244.789L606.883 245.75L609.303 238.591L606.221 238.341Z" fill="#EDA768"/>
</g>
<g opacity="0.38">
<g clip-path="url(#clip12_1369_886)">
<path fill-rule="evenodd" clip-rule="evenodd" d="M16.049 164.202L20.8539 149.992L22.7485 150.633L17.9436 164.842L16.049 164.202Z" fill="#EDA768"/>
<path d="M14.3383 143.317C13.5828 143.061 12.9014 143.148 12.2943 143.578C11.6886 144.003 11.2142 144.723 10.8712 145.738C10.1573 147.849 10.5926 149.172 12.177 149.708C12.8418 149.933 13.7032 150.039 14.7611 150.026L14.1917 151.71C13.3052 151.771 12.3827 151.64 11.4243 151.315C10.0471 150.85 9.13457 150.077 8.68671 148.997C8.24032 147.913 8.28135 146.589 8.8098 145.027C9.14263 144.042 9.61303 143.242 10.221 142.624C10.8304 142.003 11.5361 141.609 12.3381 141.442C13.1459 141.273 14.0009 141.341 14.9032 141.646C15.8228 141.957 16.6714 142.492 17.4493 143.25L16.2499 144.663C15.9528 144.375 15.6463 144.108 15.3303 143.861C15.0143 143.615 14.6836 143.433 14.3383 143.317Z" fill="#EDA768"/>
<path fill-rule="evenodd" clip-rule="evenodd" d="M20.5199 154.101C18.3308 153.361 16.1978 154.396 15.6095 156.136C15.0212 157.875 16.0885 159.992 18.2776 160.733C20.4667 161.473 22.5997 160.438 23.188 158.698C23.7763 156.959 22.709 154.842 20.5199 154.101ZM13.7149 155.495C14.7188 152.526 18.1178 151.178 21.1605 152.207C24.2033 153.236 26.0865 156.37 25.0826 159.339C24.0787 162.308 20.6797 163.656 17.637 162.627C14.5942 161.598 12.711 158.464 13.7149 155.495Z" fill="#EDA768"/>
</g>
<g clip-path="url(#clip13_1369_886)">
<path d="M118.83 187.338L123.287 188.851L121.785 193.312L120.677 191.072L111.708 195.508L110.969 194.015L119.938 189.578L118.83 187.338Z" fill="#EDA768"/>
<path d="M121.392 179.759L125.849 181.273L124.347 185.734L123.239 183.494L105.396 192.318L104.658 190.825L122.5 181.999L121.392 179.759Z" fill="#EDA768"/>
<path d="M114.134 176.25L118.591 177.763L117.089 182.224L115.981 179.984L107.012 184.42L106.273 182.926L115.242 178.49L114.134 176.25Z" fill="#EDA768"/>
</g>
<g clip-path="url(#clip14_1369_886)">
<path d="M203.636 218.202L206.478 219.163L209.169 215.886L209.178 223.666L212.122 218.081L215.066 212.496L212.309 228.454L219.155 217.574L219.921 223.111L222.763 224.072" stroke="#EDA768" stroke-width="2" stroke-linejoin="round"/>
<rect width="2" height="4" transform="matrix(-0.947308 -0.320325 -0.320325 0.947308 226.447 213.178)" fill="#EDA768"/>
<rect width="2" height="2" transform="matrix(-0.947308 -0.320325 -0.320325 0.947308 222.965 214.112)" fill="#EDA768"/>
<rect width="2" height="1" transform="matrix(-0.947308 -0.320325 -0.320325 0.947308 219.803 214.098)" fill="#EDA768"/>
</g>
<g clip-path="url(#clip15_1369_886)">
<path d="M311.064 243.902L310.779 244.745L312.033 247.281L312.959 244.543L316.748 245.824L315.467 249.613L312.729 248.688L313.983 251.223L314.826 251.508L314.541 252.351L315.795 254.886L316.721 252.149L320.51 253.43L319.229 257.219L316.491 256.294L317.745 258.829L318.588 259.114L318.303 259.957L319.557 262.492L324.327 248.387C324.679 247.345 324.115 246.204 323.073 245.852L308.967 241.082L310.221 243.617L311.064 243.902ZM318.643 246.465L322.432 247.746L321.151 251.535L317.361 250.254L318.643 246.465ZM305.738 239.082L303.95 239.966L305.204 242.501L300.255 257.137C299.903 258.179 300.467 259.32 301.509 259.673L316.145 264.622L317.405 267.169L319.193 266.285L305.738 239.082ZM310.22 252.642L311.129 254.48L309.756 254.016L310.22 252.642ZM306.458 245.037L307.367 246.875L305.994 246.41L306.458 245.037ZM305.939 259.059L302.15 257.778L303.431 253.989L307.22 255.27L305.939 259.059ZM307.861 253.375L304.072 252.094L305.353 248.305L308.621 249.41L308.966 250.107L307.861 253.375ZM311.623 260.981L307.834 259.7L309.115 255.911L312.383 257.016L312.728 257.713L311.623 260.981ZM313.518 261.622L313.982 260.248L314.891 262.086L313.518 261.622Z" fill="#EDA768"/>
</g>
<g clip-path="url(#clip16_1369_886)">
<path d="M414.36 287.559L418.817 289.072L417.315 293.533L416.207 291.293L407.237 295.729L406.499 294.235L415.468 289.799L414.36 287.559Z" fill="#EDA768"/>
<path d="M416.922 279.98L421.38 281.494L419.877 285.955L418.77 283.715L400.927 292.539L400.188 291.046L418.03 282.22L416.922 279.98Z" fill="#EDA768"/>
<path d="M409.664 276.47L414.121 277.983L412.619 282.444L411.511 280.204L402.541 284.64L401.803 283.147L410.771 278.71L409.664 276.47Z" fill="#EDA768"/>
</g>
<path d="M502.742 307.661L500.179 315.24C499.987 315.808 500.238 316.315 500.806 316.507L519.139 318.484C519.707 318.676 520.214 318.425 520.406 317.857L521.688 314.068C521.88 313.499 521.629 312.992 521.061 312.8L504.009 307.034C503.441 306.842 502.934 307.093 502.742 307.661ZM518.832 316.269L502.394 314.933L504.316 309.249L519.473 314.374L518.832 316.269Z" fill="#EDA768"/>
<path fill-rule="evenodd" clip-rule="evenodd" d="M509.878 319.839C510.021 320.088 510.05 320.386 509.958 320.657L507.396 328.236C507.219 328.759 506.651 329.04 506.128 328.863L497.602 325.98C497.079 325.803 496.799 325.235 496.975 324.712L499.218 318.081C499.379 317.603 499.871 317.321 500.365 317.422L509.212 319.357C509.493 319.415 509.735 319.59 509.878 319.839ZM500.83 319.558L499.19 324.406L505.822 326.648L507.701 321.09L500.83 319.558Z" fill="#EDA768"/>
<path fill-rule="evenodd" clip-rule="evenodd" d="M518.98 320.729C519.176 320.993 519.23 321.335 519.125 321.646L515.922 331.119C515.745 331.642 515.177 331.923 514.654 331.746L509.917 330.144C509.394 329.967 509.114 329.4 509.29 328.877L512.013 320.825C512.147 320.43 512.511 320.159 512.928 320.145L518.145 320.326C518.473 320.315 518.785 320.466 518.98 320.729ZM513.686 322.122L511.505 328.57L514.347 329.531L516.768 322.372L513.686 322.122Z" fill="#EDA768"/>
</g>
<g opacity="0.38">
<path d="M55.1378 270.708L52.5752 278.287C52.383 278.855 52.6338 279.362 53.2022 279.554L71.535 281.531C72.1034 281.723 72.6104 281.472 72.8026 280.904L74.0839 277.115C74.2761 276.546 74.0253 276.039 73.457 275.847L56.4054 270.081C55.837 269.889 55.33 270.14 55.1378 270.708ZM71.2283 279.316L54.7901 277.98L56.7121 272.296L71.869 277.421L71.2283 279.316Z" fill="#EDA768"/>
<path fill-rule="evenodd" clip-rule="evenodd" d="M62.2749 282.886C62.4178 283.135 62.447 283.433 62.3552 283.705L59.7926 291.283C59.6157 291.806 59.0481 292.087 58.5249 291.91L49.9992 289.027C49.476 288.85 49.1953 288.283 49.3722 287.76L51.6144 281.129C51.776 280.651 52.268 280.368 52.7621 280.469L61.6082 282.405C61.8892 282.462 62.132 282.638 62.2749 282.886ZM53.2263 282.605L51.5871 287.453L58.2183 289.695L60.0977 284.137L53.2263 282.605Z" fill="#EDA768"/>
<path fill-rule="evenodd" clip-rule="evenodd" d="M71.3768 283.776C71.5723 284.04 71.6263 284.382 71.5212 284.693L68.318 294.166C68.1411 294.689 67.5735 294.97 67.0503 294.793L62.3138 293.191C61.7906 293.014 61.5099 292.447 61.6868 291.924L64.4096 283.871C64.5431 283.477 64.9076 283.206 65.3242 283.192L70.5412 283.373C70.869 283.362 71.1812 283.513 71.3768 283.776ZM66.0822 285.169L63.9018 291.617L66.7437 292.578L69.1644 285.419L66.0822 285.169Z" fill="#EDA768"/>
<path fill-rule="evenodd" clip-rule="evenodd" d="M153.896 314.024C154.167 313.223 153.502 312.436 152.73 312.781C151.257 313.44 150.052 314.688 149.494 316.337C148.432 319.476 150.117 322.881 153.256 323.943C156.395 325.004 159.8 323.32 160.862 320.181C161.419 318.532 161.219 316.81 160.449 315.392C160.045 314.649 159.038 314.871 158.767 315.672C158.658 315.994 158.706 316.345 158.843 316.656C159.228 317.537 159.299 318.558 158.967 319.54C158.259 321.633 155.989 322.756 153.896 322.048C151.804 321.341 150.681 319.07 151.389 316.978C151.721 315.995 152.397 315.226 153.238 314.76C153.536 314.596 153.787 314.346 153.896 314.024Z" fill="#EDA768"/>
<rect x="156.473" y="311.307" width="2" height="6" rx="1" transform="rotate(18.6826 156.473 311.307)" fill="#EDA768"/>
<path fill-rule="evenodd" clip-rule="evenodd" d="M162.17 310.067C161.647 309.89 161.08 310.171 160.903 310.694L160.169 312.863C160.785 313.298 161.317 313.825 161.755 314.418L162.797 311.335C162.974 310.812 162.693 310.244 162.17 310.067Z" fill="#EDA768"/>
<path fill-rule="evenodd" clip-rule="evenodd" d="M162.049 322.311C163.67 321.697 165.013 320.39 165.612 318.62C166.169 316.971 165.969 315.248 165.198 313.831C164.794 313.088 163.788 313.31 163.517 314.111C163.408 314.433 163.456 314.783 163.593 315.095C163.978 315.976 164.049 316.997 163.717 317.979C163.573 318.406 163.364 318.792 163.105 319.13C163.06 319.694 162.946 320.261 162.756 320.821C162.576 321.356 162.337 321.854 162.049 322.311Z" fill="#EDA768"/>
<path fill-rule="evenodd" clip-rule="evenodd" d="M167.241 307.559C166.718 307.382 166.15 307.663 165.973 308.186L165.24 310.356C165.855 310.791 166.388 311.318 166.825 311.91L167.868 308.827C168.045 308.304 167.764 307.736 167.241 307.559Z" fill="#EDA768"/>
<path fill-rule="evenodd" clip-rule="evenodd" d="M167.12 319.802C168.74 319.189 170.084 317.881 170.682 316.112C171.24 314.463 171.039 312.74 170.269 311.322C169.864 310.579 168.858 310.801 168.587 311.603C168.478 311.925 168.526 312.275 168.663 312.587C169.048 313.467 169.119 314.489 168.787 315.471C168.643 315.897 168.434 316.283 168.175 316.622C168.13 317.186 168.016 317.753 167.827 318.313C167.646 318.847 167.407 319.345 167.12 319.802Z" fill="#EDA768"/>
<path fill-rule="evenodd" clip-rule="evenodd" d="M254.394 337.03L269.551 342.155C270.593 342.507 271.157 343.648 270.805 344.69L267.304 355.042C267.888 353.256 267.714 351.401 266.956 349.829L266.988 349.733L266.893 349.701C266.093 348.125 264.699 346.848 262.893 346.237C261.086 345.626 259.203 345.795 257.611 346.562L257.515 346.53L257.482 346.626C255.906 347.426 254.63 348.819 254.019 350.626C253.408 352.433 253.577 354.315 254.344 355.907L254.312 356.003L254.408 356.035C255.201 357.6 256.58 358.869 258.367 359.486L247.987 355.976C246.945 355.623 246.381 354.482 246.733 353.44L251.858 338.284C252.211 337.241 253.352 336.677 254.394 337.03ZM248.628 354.081L252.417 355.362L253.698 351.573L249.909 350.292L248.628 354.081ZM250.55 348.397L254.339 349.679L255.62 345.889L251.831 344.608L250.55 348.397ZM252.472 342.713L256.261 343.995L257.542 340.205L253.753 338.924L252.472 342.713ZM258.156 344.635L261.945 345.917L263.226 342.127L259.437 340.846L258.156 344.635ZM263.84 346.557L267.629 347.839L268.91 344.049L265.121 342.768L263.84 346.557Z" fill="#EDA768"/>
<rect x="261.143" y="350.378" width="2.15921" height="2.15921" transform="rotate(-26.3174 261.143 350.378)" fill="#EDA768"/>
<path fill-rule="evenodd" clip-rule="evenodd" d="M256.304 352.771L258.239 351.814L259.194 353.743L257.258 354.7L256.304 352.771ZM257.702 355.597L258.458 357.126C259.383 358.996 261.649 359.763 263.52 358.837C265.391 357.912 266.157 355.646 265.232 353.775L264.476 352.246L262.54 353.204L263.296 354.732C263.693 355.534 263.364 356.505 262.563 356.902C261.761 357.298 260.79 356.97 260.393 356.168L259.637 354.639L257.702 355.597ZM262.097 352.307L264.032 351.35L263.078 349.421L261.142 350.378L262.097 352.307Z" fill="#EDA768"/>
<path d="M258.128 350.96L258.222 350.682C258.367 350.253 258.676 349.899 259.082 349.699V349.699C259.488 349.498 259.957 349.467 260.386 349.612L260.663 349.706" stroke="#EDA768"/>
<path d="M256.234 350.319L256.421 349.764C256.711 348.906 257.33 348.199 258.142 347.797V347.797C258.954 347.396 259.891 347.333 260.749 347.623L261.304 347.811" stroke="#EDA768"/>
</g>
<g opacity="0.38">
<path fill-rule="evenodd" clip-rule="evenodd" d="M712.836 263.175L727.993 268.301C729.035 268.653 729.599 269.794 729.247 270.836L725.746 281.187C726.33 279.402 726.156 277.547 725.398 275.974L725.43 275.879L725.335 275.847C724.535 274.27 723.141 272.994 721.334 272.383C719.528 271.772 717.645 271.941 716.053 272.708L715.957 272.676L715.924 272.772C714.348 273.572 713.072 274.965 712.461 276.772C711.85 278.578 712.019 280.461 712.786 282.053L712.754 282.149L712.85 282.181C713.643 283.746 715.023 285.016 716.811 285.632L706.429 282.121C705.387 281.769 704.823 280.628 705.175 279.586L710.3 264.429C710.653 263.387 711.794 262.823 712.836 263.175ZM707.07 280.227L710.859 281.508L712.14 277.719L708.351 276.438L707.07 280.227ZM708.992 274.543L712.781 275.824L714.062 272.035L710.273 270.754L708.992 274.543ZM710.914 268.859L714.703 270.14L715.984 266.351L712.195 265.07L710.914 268.859ZM716.598 270.781L720.387 272.062L721.668 268.273L717.879 266.992L716.598 270.781ZM722.281 272.703L726.071 273.984L727.352 270.195L723.563 268.914L722.281 272.703Z" fill="#EDA768"/>
<rect x="714.747" y="278.917" width="2.15921" height="2.15921" transform="rotate(-26.3174 714.747 278.917)" fill="#EDA768"/>
<rect x="719.586" y="276.525" width="2.15921" height="2.15921" transform="rotate(-26.3174 719.586 276.525)" fill="#EDA768"/>
<path fill-rule="evenodd" clip-rule="evenodd" d="M714.747 278.918L716.683 277.96L717.637 279.889L715.701 280.847L714.747 278.918ZM716.145 281.743L716.901 283.272C717.826 285.143 720.093 285.909 721.963 284.984C723.834 284.059 724.6 281.793 723.675 279.922L722.919 278.393L720.983 279.35L721.74 280.879C722.136 281.681 721.808 282.652 721.006 283.049C720.204 283.445 719.233 283.117 718.837 282.315L718.08 280.786L716.145 281.743ZM720.54 278.454L722.475 277.496L721.521 275.567L719.586 276.525L720.54 278.454Z" fill="#EDA768"/>
<path d="M716.571 277.106L716.664 276.829C716.81 276.4 717.119 276.046 717.525 275.845V275.845C717.931 275.645 718.4 275.613 718.828 275.758L719.106 275.852" stroke="#EDA768"/>
<path d="M714.676 276.466L714.864 275.911C715.154 275.053 715.773 274.346 716.585 273.944V273.944C717.396 273.543 718.334 273.48 719.192 273.77L719.747 273.958" stroke="#EDA768"/>
<g clip-path="url(#clip17_1369_886)">
<path fill-rule="evenodd" clip-rule="evenodd" d="M815.05 319.907L819.855 305.697L821.749 306.338L816.944 320.548L815.05 319.907Z" fill="#EDA768"/>
<path d="M813.339 299.022C812.583 298.767 811.902 298.854 811.295 299.283C810.689 299.709 810.215 300.429 809.872 301.443C809.158 303.554 809.593 304.878 811.178 305.414C811.842 305.638 812.704 305.744 813.762 305.732L813.192 307.415C812.306 307.476 811.383 307.345 810.425 307.021C809.048 306.555 808.135 305.782 807.687 304.702C807.241 303.618 807.282 302.295 807.81 300.732C808.143 299.748 808.614 298.947 809.222 298.33C809.831 297.708 810.537 297.314 811.339 297.148C812.146 296.978 813.001 297.046 813.904 297.351C814.823 297.662 815.672 298.197 816.45 298.955L815.25 300.368C814.953 300.08 814.647 299.813 814.331 299.567C814.015 299.32 813.684 299.139 813.339 299.022Z" fill="#EDA768"/>
<path fill-rule="evenodd" clip-rule="evenodd" d="M819.521 309.807C817.332 309.067 815.199 310.102 814.611 311.841C814.022 313.581 815.09 315.698 817.279 316.438C819.468 317.178 821.601 316.144 822.189 314.404C822.777 312.664 821.71 310.547 819.521 309.807ZM812.716 311.201C813.72 308.232 817.119 306.884 820.162 307.912C823.204 308.941 825.088 312.076 824.084 315.045C823.08 318.013 819.681 319.362 816.638 318.333C813.595 317.304 811.712 314.17 812.716 311.201Z" fill="#EDA768"/>
</g>
</g>
<g opacity="0.38">
</g>
<g opacity="0.38">
</g>
</g>
<defs>
<clipPath id="clip0_1369_886">
<rect width="900" height="350" fill="white"/>
</clipPath>
<clipPath id="clip1_1369_886">
<rect width="24" height="24" fill="white" transform="translate(768.728 39.2719) rotate(18.6826)"/>
</clipPath>
<clipPath id="clip2_1369_886">
<rect width="24" height="24" fill="white" transform="translate(867.248 72.5857) rotate(18.6826)"/>
</clipPath>
<clipPath id="clip3_1369_886">
<rect width="24" height="24" fill="white" transform="translate(655.688 109) rotate(18.6826)"/>
</clipPath>
<clipPath id="clip4_1369_886">
<rect width="24" height="24" fill="white" transform="translate(457.393 48.8713) rotate(18.6826)"/>
</clipPath>
<clipPath id="clip5_1369_886">
<rect width="24" height="24" fill="white" transform="translate(555.914 82.1853) rotate(18.6826)"/>
</clipPath>
<clipPath id="clip6_1369_886">
<rect width="24" height="24" fill="white" transform="translate(101.743 53.8285) rotate(18.6826)"/>
</clipPath>
<clipPath id="clip7_1369_886">
<rect width="24" height="24" fill="white" transform="translate(200.263 87.1423) rotate(18.6826)"/>
</clipPath>
<clipPath id="clip8_1369_886">
<rect width="24" height="24" fill="white" transform="translate(298.783 120.456) rotate(18.6826)"/>
</clipPath>
<clipPath id="clip9_1369_886">
<rect width="24" height="24" fill="white" transform="translate(298.783 120.456) rotate(18.6826)"/>
</clipPath>
<clipPath id="clip10_1369_886">
<rect width="24" height="24" fill="white" transform="translate(397.303 153.77) rotate(18.6826)"/>
</clipPath>
<clipPath id="clip11_1369_886">
<rect width="24" height="24" fill="white" transform="translate(496.257 187.143) rotate(18.6826)"/>
</clipPath>
<clipPath id="clip12_1369_886">
<rect width="24" height="24" fill="white" transform="translate(9.20685 137.609) rotate(18.6826)"/>
</clipPath>
<clipPath id="clip13_1369_886">
<rect width="24" height="24" fill="white" transform="translate(107.727 170.923) rotate(18.6826)"/>
</clipPath>
<clipPath id="clip14_1369_886">
<rect width="24" height="24" fill="white" transform="translate(206.247 204.236) rotate(18.6826)"/>
</clipPath>
<clipPath id="clip15_1369_886">
<rect width="24" height="24" fill="white" transform="translate(304.767 237.55) rotate(18.6826)"/>
</clipPath>
<clipPath id="clip16_1369_886">
<rect width="24" height="24" fill="white" transform="translate(403.257 271.143) rotate(18.6826)"/>
</clipPath>
<clipPath id="clip17_1369_886">
<rect width="24" height="24" fill="white" transform="translate(808.207 293.314) rotate(18.6826)"/>
</clipPath>
</defs>
</svg>
