<svg width="160" height="161" viewBox="0 0 160 161" fill="none" xmlns="http://www.w3.org/2000/svg">
<g clip-path="url(#clip0_1322_8992)">
<rect y="0.5" width="160" height="160" rx="8" fill="white"/>
<rect y="0.5" width="160" height="164" rx="8" fill="#FFECCE"/>
<path d="M2.5 132H117C120.314 132 123 129.314 123 126V90.5C123 87.1863 120.314 84.5 117 84.5H47C43.6863 84.5 41 81.8137 41 78.5V39.5C41 36.1863 43.6863 33.5 47 33.5H157.5" stroke="#8B8B8B" stroke-width="20" stroke-linecap="round"/>
<path d="M2.5 132H117C120.314 132 123 129.314 123 126V90.5C123 87.1863 120.314 84.5 117 84.5H47C43.6863 84.5 41 81.8137 41 78.5V39.5C41 36.1863 43.6863 33.5 47 33.5H157.5" stroke="#F9B500" stroke-width="3" stroke-linecap="round" stroke-dasharray="8 8"/>
<mask id="path-5-outside-1_1322_8992" maskUnits="userSpaceOnUse" x="8" y="80.5" width="39" height="59" fill="black">
<rect fill="white" x="8" y="80.5" width="39" height="59"/>
<path fill-rule="evenodd" clip-rule="evenodd" d="M42.0425 109.738C43.9104 106.954 45 103.604 45 100C45 90.335 37.165 82.5 27.5 82.5C17.835 82.5 10 90.335 10 100C10 103.604 11.0896 106.954 12.9575 109.738L23.8464 134.171C25.2558 137.333 29.7442 137.333 31.1536 134.171L42.0425 109.738Z"/>
</mask>
<path fill-rule="evenodd" clip-rule="evenodd" d="M42.0425 109.738C43.9104 106.954 45 103.604 45 100C45 90.335 37.165 82.5 27.5 82.5C17.835 82.5 10 90.335 10 100C10 103.604 11.0896 106.954 12.9575 109.738L23.8464 134.171C25.2558 137.333 29.7442 137.333 31.1536 134.171L42.0425 109.738Z" fill="#70A739"/>
<path d="M42.0425 109.738L40.3817 108.624L40.2858 108.767L40.2158 108.924L42.0425 109.738ZM12.9575 109.738L14.7843 108.924L14.7142 108.767L14.6183 108.624L12.9575 109.738ZM23.8464 134.171L22.0196 134.985L23.8464 134.171ZM31.1536 134.171L29.3268 133.356L31.1536 134.171ZM43 100C43 103.195 42.0354 106.159 40.3817 108.624L43.7034 110.852C45.7854 107.749 47 104.013 47 100H43ZM27.5 84.5C36.0604 84.5 43 91.4396 43 100H47C47 89.2304 38.2696 80.5 27.5 80.5V84.5ZM12 100C12 91.4396 18.9396 84.5 27.5 84.5V80.5C16.7304 80.5 8 89.2304 8 100H12ZM14.6183 108.624C12.9647 106.159 12 103.195 12 100H8C8 104.013 9.21462 107.749 11.2967 110.852L14.6183 108.624ZM25.6732 133.356L14.7843 108.924L11.1307 110.552L22.0196 134.985L25.6732 133.356ZM29.3268 133.356C28.6221 134.938 26.3779 134.938 25.6732 133.356L22.0196 134.985C24.1336 139.728 30.8664 139.728 32.9804 134.985L29.3268 133.356ZM40.2158 108.924L29.3268 133.356L32.9804 134.985L43.8693 110.552L40.2158 108.924Z" fill="black" mask="url(#path-5-outside-1_1322_8992)"/>
<mask id="path-7-outside-2_1322_8992" maskUnits="userSpaceOnUse" x="46" y="-17.5" width="39" height="59" fill="black">
<rect fill="white" x="46" y="-17.5" width="39" height="59"/>
<path fill-rule="evenodd" clip-rule="evenodd" d="M80.0425 11.738C81.9104 8.95411 83 5.6043 83 2C83 -7.66498 75.165 -15.5 65.5 -15.5C55.835 -15.5 48 -7.66498 48 2C48 5.60431 49.0896 8.95412 50.9575 11.738L61.8464 36.1706C63.2558 39.3328 67.7442 39.3328 69.1536 36.1705L80.0425 11.738Z"/>
</mask>
<path fill-rule="evenodd" clip-rule="evenodd" d="M80.0425 11.738C81.9104 8.95411 83 5.6043 83 2C83 -7.66498 75.165 -15.5 65.5 -15.5C55.835 -15.5 48 -7.66498 48 2C48 5.60431 49.0896 8.95412 50.9575 11.738L61.8464 36.1706C63.2558 39.3328 67.7442 39.3328 69.1536 36.1705L80.0425 11.738Z" fill="#70A739"/>
<path d="M80.0425 11.738L78.3817 10.6237L78.2858 10.7666L78.2158 10.9238L80.0425 11.738ZM50.9575 11.738L52.7843 10.9238L52.7142 10.7666L52.6183 10.6237L50.9575 11.738ZM61.8464 36.1706L60.0196 36.9847L61.8464 36.1706ZM69.1536 36.1705L67.3268 35.3564L69.1536 36.1705ZM81 2C81 5.19521 80.0354 8.15905 78.3817 10.6237L81.7034 12.8523C83.7854 9.74917 85 6.0134 85 2H81ZM65.5 -13.5C74.0604 -13.5 81 -6.56041 81 2H85C85 -8.76955 76.2696 -17.5 65.5 -17.5V-13.5ZM50 2C50 -6.56041 56.9396 -13.5 65.5 -13.5V-17.5C54.7304 -17.5 46 -8.76955 46 2H50ZM52.6183 10.6237C50.9647 8.15906 50 5.19521 50 2H46C46 6.01341 47.2146 9.74919 49.2967 12.8523L52.6183 10.6237ZM63.6732 35.3564L52.7843 10.9238L49.1307 12.5521L60.0196 36.9847L63.6732 35.3564ZM67.3268 35.3564C66.6221 36.9375 64.3779 36.9375 63.6732 35.3564L60.0196 36.9847C62.1336 41.7281 68.8664 41.7281 70.9804 36.9847L67.3268 35.3564ZM78.2158 10.9238L67.3268 35.3564L70.9804 36.9847L81.8693 12.5521L78.2158 10.9238Z" fill="black" mask="url(#path-7-outside-2_1322_8992)"/>
<circle cx="27.5" cy="100" r="13.5" fill="white"/>
<mask id="path-10-outside-3_1322_8992" maskUnits="userSpaceOnUse" x="104" y="55.5" width="39" height="59" fill="black">
<rect fill="white" x="104" y="55.5" width="39" height="59"/>
<path fill-rule="evenodd" clip-rule="evenodd" d="M138.043 84.738C139.91 81.9541 141 78.6043 141 75C141 65.335 133.165 57.5 123.5 57.5C113.835 57.5 106 65.335 106 75C106 78.6043 107.09 81.9541 108.957 84.738L119.846 109.171C121.256 112.333 125.744 112.333 127.154 109.171L138.043 84.738Z"/>
</mask>
<path fill-rule="evenodd" clip-rule="evenodd" d="M138.043 84.738C139.91 81.9541 141 78.6043 141 75C141 65.335 133.165 57.5 123.5 57.5C113.835 57.5 106 65.335 106 75C106 78.6043 107.09 81.9541 108.957 84.738L119.846 109.171C121.256 112.333 125.744 112.333 127.154 109.171L138.043 84.738Z" fill="#70A739"/>
<path d="M138.043 84.738L136.382 83.6237L136.286 83.7666L136.216 83.9238L138.043 84.738ZM108.957 84.738L110.784 83.9238L110.714 83.7666L110.618 83.6237L108.957 84.738ZM119.846 109.171L118.02 109.985L119.846 109.171ZM127.154 109.171L125.327 108.356L127.154 109.171ZM139 75C139 78.1952 138.035 81.159 136.382 83.6237L139.703 85.8523C141.785 82.7492 143 79.0134 143 75H139ZM123.5 59.5C132.06 59.5 139 66.4396 139 75H143C143 64.2304 134.27 55.5 123.5 55.5V59.5ZM108 75C108 66.4396 114.94 59.5 123.5 59.5V55.5C112.73 55.5 104 64.2304 104 75H108ZM110.618 83.6237C108.965 81.1591 108 78.1952 108 75H104C104 79.0134 105.215 82.7492 107.297 85.8523L110.618 83.6237ZM121.673 108.356L110.784 83.9238L107.131 85.5521L118.02 109.985L121.673 108.356ZM125.327 108.356C124.622 109.938 122.378 109.938 121.673 108.356L118.02 109.985C120.134 114.728 126.866 114.728 128.98 109.985L125.327 108.356ZM136.216 83.9238L125.327 108.356L128.98 109.985L139.869 85.5521L136.216 83.9238Z" fill="black" mask="url(#path-10-outside-3_1322_8992)"/>
<circle cx="123.5" cy="75" r="13.5" fill="white"/>
<circle cx="65.5" r="13.5" fill="white"/>
<path d="M34.9443 103.488V104.176L33.0921 105.219L27.561 106.583V104.419L34.9443 103.488Z" fill="#C78A0C"/>
<path d="M34.9443 95.8597V103.488L27.561 104.419V100.018L34.9443 95.8597Z" fill="#70A739"/>
<path d="M34.9446 95.8596L27.5613 100.018L20.1787 95.8596L27.5613 91.7011L34.9446 95.8596Z" fill="#70A739"/>
<path d="M33.0916 105.219L27.561 108.335V106.583L33.0916 105.219Z" fill="#754C24"/>
<path d="M27.5611 106.583V108.335L20.1785 104.176V100.391L27.551 106.585L27.5611 106.583Z" fill="#754C24"/>
<path d="M27.5611 104.419V106.583L27.5507 106.585L20.1785 100.392V97.9384L27.551 104.42L27.5611 104.419Z" fill="#C78A0C"/>
<path d="M27.561 100.018V104.419L27.5506 104.42L20.1781 97.9386V95.8597L27.561 100.018Z" fill="#70A739"/>
<path d="M27.7394 108.335H27.3825V100.119L20.0891 96.0104L20.2676 95.7088L27.7394 99.9176V108.335Z" fill="#1D1D1B"/>
<path d="M34.8545 95.7085L27.4716 99.8677L27.6501 100.169L35.033 96.0101L34.8545 95.7085Z" fill="#1D1D1B"/>
<path d="M27.5614 108.536L20.0002 104.277V95.759L20.0895 95.7088L27.5614 91.5L35.1231 95.759V104.277L27.5614 108.536ZM20.3572 104.076L27.5614 108.134L34.7661 104.076V95.9601L27.5614 91.9021L20.3572 95.9601V104.076Z" fill="#1D1D1B"/>
<path d="M27.5037 106.775L20.0623 100.523L20.2952 100.259L27.5977 106.394L33.0487 105.05L33.1362 105.388L27.5922 106.755L27.5037 106.775Z" fill="#1D1D1B"/>
<path d="M27.4912 104.602L27.4314 104.549L20.0589 98.0679L20.2978 97.8092L27.6095 104.237L34.9212 103.316L34.967 103.662L27.5712 104.594L27.4912 104.602Z" fill="#1D1D1B"/>
<path fill-rule="evenodd" clip-rule="evenodd" d="M65.5 8L65.5 0.5L66.5 0.5L66.5 8L65.5 8Z" fill="#333333"/>
<path d="M61.3447 -1.61816C60.946 -1.61816 60.6372 -1.46777 60.4185 -1.16699C60.1997 -0.86849 60.0903 -0.451497 60.0903 0.0839844C60.0903 1.19824 60.5085 1.75537 61.3447 1.75537C61.6956 1.75537 62.1206 1.66764 62.6196 1.49219V2.38086C62.2095 2.55176 61.7515 2.63721 61.2456 2.63721C60.5187 2.63721 59.9627 2.41732 59.5776 1.97754C59.1925 1.53548 59 0.902018 59 0.0771484C59 -0.442383 59.0946 -0.896973 59.2837 -1.28662C59.4728 -1.67855 59.744 -1.97819 60.0972 -2.18555C60.4526 -2.39518 60.8685 -2.5 61.3447 -2.5C61.8301 -2.5 62.3177 -2.38265 62.8076 -2.14795L62.4658 -1.28662C62.279 -1.37549 62.091 -1.45296 61.9019 -1.51904C61.7127 -1.58512 61.527 -1.61816 61.3447 -1.61816Z" fill="#333333"/>
<path fill-rule="evenodd" clip-rule="evenodd" d="M66 2.5C64.8446 2.5 64 3.33175 64 4.25C64 5.16825 64.8446 6 66 6C67.1554 6 68 5.16825 68 4.25C68 3.33175 67.1554 2.5 66 2.5ZM63 4.25C63 2.68297 64.394 1.5 66 1.5C67.606 1.5 69 2.68297 69 4.25C69 5.81703 67.606 7 66 7C64.394 7 63 5.81703 63 4.25Z" fill="#333333"/>
<g clip-path="url(#clip1_1322_8992)">
<path d="M117.875 72.75H130.125V76.25H117.875V72.75Z" fill="#E6A725"/>
<path d="M117.875 68.375H130.125V71.875H117.875V68.375Z" fill="#71B62B"/>
<path d="M117.875 77.125H130.125V80.625H117.875V77.125Z" fill="#956025"/>
<path fill-rule="evenodd" clip-rule="evenodd" d="M130.125 68.375H117.875V71.875H130.125V68.375ZM130.125 72.75H117.875V76.25H130.125V72.75ZM117.875 80.625V77.125H130.125V80.625H117.875ZM117 67.5V81.5H131V67.5H117Z" fill="#282D36"/>
</g>
</g>
<defs>
<clipPath id="clip0_1322_8992">
<rect y="0.5" width="160" height="160" rx="8" fill="white"/>
</clipPath>
<clipPath id="clip1_1322_8992">
<rect width="14" height="14" fill="white" transform="translate(117 67.5)"/>
</clipPath>
</defs>
</svg>
