<svg width="1208" height="350" viewBox="0 0 1208 350" fill="none" xmlns="http://www.w3.org/2000/svg">
<g clip-path="url(#clip0_1369_1496)">
<rect width="1208" height="350" fill="#D1E3FA"/>
<path fill-rule="evenodd" clip-rule="evenodd" d="M1098.99 48.515C1099.26 48.5288 1099.53 48.5357 1099.8 48.5357C1108.23 48.5357 1115.07 41.6965 1115.07 33.2598C1115.07 24.8231 1108.23 17.9839 1099.8 17.9839C1098.91 17.9839 1098.05 18.0585 1097.21 18.2019C1093.87 10.5045 1086.21 5.11986 1077.28 5.11986C1075.48 5.11986 1073.72 5.34021 1072.05 5.75548C1068.1 -8.51852 1055.02 -19 1039.5 -19C1022.08 -19 1007.75 -5.81783 1005.92 11.1123C1003.86 10.3565 1001.62 9.94399 999.296 9.94399C988.639 9.94399 980 18.5831 980 29.2399C980 39.8968 988.639 48.5358 999.296 48.5358C1000.39 48.5358 1001.47 48.4444 1002.51 48.2688V48.5359H1098.99V48.515Z" fill="white"/>
<path fill-rule="evenodd" clip-rule="evenodd" d="M162.208 193.563H133.969C133.957 193.563 133.944 193.563 133.932 193.563C133.92 193.563 133.907 193.563 133.895 193.563H108.093C108.078 193.563 108.064 193.563 108.049 193.563C108.034 193.563 108.019 193.563 108.004 193.563H106.242V193.456C98.7829 192.564 93 186.215 93 178.515C93 170.204 99.7375 163.466 108.049 163.466C108.403 163.466 108.754 163.478 109.101 163.502C111.336 151.825 121.603 143 133.932 143C145.558 143 155.351 150.847 158.303 161.534C159.559 161.223 160.872 161.058 162.224 161.058C171.2 161.058 178.476 168.335 178.476 177.311C178.476 185.677 172.156 192.566 164.029 193.464V193.563H162.24C162.234 193.563 162.229 193.563 162.224 193.563C162.218 193.563 162.213 193.563 162.208 193.563Z" fill="white"/>
<path fill-rule="evenodd" clip-rule="evenodd" d="M69.2143 110.472C69.575 110.491 69.9382 110.5 70.3036 110.5C81.7339 110.5 91 101.234 91 89.8036C91 78.3732 81.7339 69.1071 70.3036 69.1071C69.1096 69.1071 67.9393 69.2082 66.8007 69.4023C62.2801 58.9737 51.8938 51.6786 39.8036 51.6786C37.3577 51.6786 34.9816 51.9771 32.7097 52.5398C27.3673 33.2008 9.64558 19 -11.3929 19C-34.9864 19 -54.4087 36.8596 -56.8779 59.7971C-59.6781 58.7731 -62.7023 58.2143 -65.8571 58.2143C-80.2954 58.2143 -92 69.9188 -92 84.3571C-92 98.7954 -80.2954 110.5 -65.8571 110.5C-64.3726 110.5 -62.917 110.376 -61.5 110.139V110.5H-11.3929H39.8036H69.2143V110.472Z" fill="white"/>
<path fill-rule="evenodd" clip-rule="evenodd" d="M509.993 161.515C510.259 161.529 510.527 161.536 510.796 161.536C519.233 161.536 526.072 154.696 526.072 146.26C526.072 137.823 519.233 130.984 510.796 130.984C509.915 130.984 509.051 131.059 508.21 131.202C504.873 123.504 497.207 118.12 488.283 118.12C486.478 118.12 484.725 118.34 483.048 118.755C479.104 104.481 466.024 94 450.496 94C433.081 94 418.746 107.182 416.924 124.112C414.857 123.356 412.624 122.944 410.296 122.944C399.639 122.944 391 131.583 391 142.24C391 152.897 399.639 161.536 410.296 161.536C411.392 161.536 412.467 161.444 413.513 161.269V161.536H509.993V161.515Z" fill="white"/>
<path fill-rule="evenodd" clip-rule="evenodd" d="M974.137 358H1284.14C1252.04 215.161 1194.62 120 1129.14 120C1063.65 120 1006.24 215.161 974.137 358Z" fill="#649D35"/>
<rect x="134" y="56" width="322" height="72" fill="#649D35"/>
<path d="M257.094 99.7812C257.094 101.135 256.76 102.302 256.094 103.281C255.438 104.26 254.49 105.01 253.25 105.531C252.021 106.052 250.552 106.312 248.844 106.312C248.01 106.312 247.214 106.266 246.453 106.172C245.693 106.078 244.974 105.943 244.297 105.766C243.63 105.578 243.021 105.354 242.469 105.094V101.562C243.396 101.969 244.432 102.339 245.578 102.672C246.724 102.995 247.891 103.156 249.078 103.156C250.047 103.156 250.849 103.031 251.484 102.781C252.13 102.521 252.609 102.156 252.922 101.688C253.234 101.208 253.391 100.651 253.391 100.016C253.391 99.3385 253.208 98.7656 252.844 98.2969C252.479 97.8281 251.927 97.401 251.188 97.0156C250.458 96.6198 249.542 96.1979 248.438 95.75C247.688 95.4479 246.969 95.1042 246.281 94.7188C245.604 94.3333 245 93.8802 244.469 93.3594C243.938 92.8385 243.516 92.224 243.203 91.5156C242.901 90.7969 242.75 89.9531 242.75 88.9844C242.75 87.6927 243.057 86.5885 243.672 85.6719C244.297 84.7552 245.172 84.0521 246.297 83.5625C247.432 83.0729 248.755 82.8281 250.266 82.8281C251.464 82.8281 252.589 82.9531 253.641 83.2031C254.703 83.4531 255.745 83.8073 256.766 84.2656L255.578 87.2812C254.641 86.8958 253.729 86.5885 252.844 86.3594C251.969 86.1302 251.073 86.0156 250.156 86.0156C249.365 86.0156 248.693 86.1354 248.141 86.375C247.589 86.6146 247.167 86.9531 246.875 87.3906C246.594 87.8177 246.453 88.3281 246.453 88.9219C246.453 89.5885 246.615 90.151 246.938 90.6094C247.271 91.0573 247.781 91.4688 248.469 91.8438C249.167 92.2188 250.062 92.6354 251.156 93.0938C252.417 93.6146 253.484 94.1615 254.359 94.7344C255.245 95.3073 255.922 95.9948 256.391 96.7969C256.859 97.5885 257.094 98.5833 257.094 99.7812ZM269.422 106H265.656V86.3438H258.969V83.1562H276.094V86.3438H269.422V106ZM293.75 106L291.516 99.6562H282.781L280.547 106H276.594L285.094 83.0625H289.25L297.734 106H293.75ZM290.547 96.4375L288.375 90.1875C288.292 89.9167 288.172 89.5365 288.016 89.0469C287.859 88.5469 287.703 88.0417 287.547 87.5312C287.391 87.0104 287.26 86.5729 287.156 86.2188C287.052 86.6458 286.922 87.125 286.766 87.6562C286.62 88.1771 286.474 88.6667 286.328 89.125C286.193 89.5833 286.089 89.9375 286.016 90.1875L283.828 96.4375H290.547ZM307.172 83.1562C309.141 83.1562 310.766 83.3958 312.047 83.875C313.339 84.3542 314.297 85.0833 314.922 86.0625C315.557 87.0417 315.875 88.2865 315.875 89.7969C315.875 90.9219 315.667 91.8802 315.25 92.6719C314.833 93.4635 314.286 94.1198 313.609 94.6406C312.932 95.1615 312.208 95.5781 311.438 95.8906L317.922 106H313.688L308.172 96.8438H304.5V106H300.75V83.1562H307.172ZM306.922 86.2812H304.5V93.75H307.094C308.833 93.75 310.094 93.4271 310.875 92.7812C311.667 92.1354 312.062 91.1823 312.062 89.9219C312.062 88.599 311.641 87.6615 310.797 87.1094C309.964 86.5573 308.672 86.2812 306.922 86.2812ZM329.109 106H325.344V86.3438H318.656V83.1562H335.781V86.3438H329.109V106ZM342.078 99.0312H339.312L338.562 83.1562H342.828L342.078 99.0312ZM338.375 104.062C338.375 103.208 338.594 102.609 339.031 102.266C339.479 101.911 340.026 101.734 340.672 101.734C341.307 101.734 341.849 101.911 342.297 102.266C342.745 102.609 342.969 103.208 342.969 104.062C342.969 104.896 342.745 105.5 342.297 105.875C341.849 106.24 341.307 106.422 340.672 106.422C340.026 106.422 339.479 106.24 339.031 105.875C338.594 105.5 338.375 104.896 338.375 104.062Z" fill="white"/>
<rect x="127" y="47" width="7" height="388" fill="#5C4208"/>
<rect x="124" y="47" width="5" height="388" fill="#C78A0C"/>
<rect x="458" y="47" width="7" height="388" fill="#5C4208"/>
<rect x="456" y="47" width="5" height="388" fill="#C78A0C"/>
<g filter="url(#filter0_d_1369_1496)">
<path d="M398.861 277.262V394.392L288.263 408.679V341.111L398.861 277.262Z" fill="#70A739"/>
<path d="M398.863 277.261L288.264 341.112L177.675 277.261L288.264 213.41L398.863 277.261Z" fill="#70A739"/>
<path d="M288.264 441.906V468.805L177.675 404.954V346.838L288.113 441.937L288.264 441.906Z" fill="#754C24"/>
<path d="M288.264 408.68V441.906L288.108 441.942L177.675 346.845V309.179L288.113 408.694L288.264 408.68Z" fill="#C78A0C"/>
<path d="M288.263 341.113V408.681L288.107 408.698L177.67 309.182V277.262L288.263 341.113Z" fill="#70A739"/>
<path d="M290.938 468.805H285.59V342.656L176.338 279.577L179.011 274.947L290.938 339.569V468.805Z" fill="#1D1D1B"/>
<path d="M397.523 274.941L286.93 338.802L289.604 343.433L400.197 279.572L397.523 274.941Z" fill="#1D1D1B"/>
<path d="M288.264 471.892L175 406.499V275.716L176.337 274.946L288.264 210.323L401.535 275.716V406.498L288.264 471.892ZM180.348 403.411L288.264 465.718L396.187 403.411V278.805L288.264 216.497L180.348 278.805V403.411Z" fill="#1D1D1B"/>
<path d="M287.4 444.857L175.93 348.869L179.42 344.816L288.808 439.011L370.462 418.378L371.773 423.562L288.726 444.545L287.4 444.857Z" fill="#1D1D1B"/>
<path d="M287.217 411.491L286.322 410.684L175.884 311.168L179.463 307.195L288.99 405.892L398.516 391.743L399.202 397.055L288.415 411.363L287.217 411.491Z" fill="#1D1D1B"/>
<path d="M311.447 249.427H261.708V289.989H311.447V249.427Z" fill="white"/>
<path d="M337.826 236.487L319.038 239.271L328.885 262.1L355.917 246.229L375.4 226.05L365.659 217.004L350.351 230.921L337.826 236.487Z" fill="white" stroke="#1D1D1D" stroke-width="5"/>
<path d="M268.003 255.471L260.89 269.582L269.998 280.454V299.482H254.963L237.425 277.273L254.963 235.631C254.085 207.979 255.549 183.894 255.549 183.894C255.549 183.894 273.313 172.972 280.053 171.958C287.775 170.799 310.914 176.769 310.914 176.769L338.385 199.899L338.599 200.084C338.732 201.053 338.799 202.03 338.8 203.008C338.722 207.13 337.694 211.179 335.796 214.839C330.308 226.017 319.044 234.357 317.45 235.499C317.328 235.589 317.261 235.633 317.261 235.633L334.801 277.275L317.26 291.673H302.217V280.456L311.325 269.584L304.213 255.472" fill="white"/>
<path d="M313.908 234.593L331.228 276.16L315.606 287.877L318.73 292.564L337.879 277.694L320.538 236.532C324.432 233.523 333.334 225.915 338.191 216.026C340.273 211.998 341.395 207.545 341.472 203.012C341.471 201.915 341.395 200.819 341.245 199.731L341.108 198.73L312.169 174.345L311.58 174.188C309.157 173.56 287.682 168.116 279.655 169.322C272.583 170.386 256.013 180.477 254.148 181.623L252.964 182.351L252.88 183.739C252.864 183.978 251.436 207.922 252.27 235.137L234.346 277.694L253.667 302.159H272.675V279.485L264.072 269.217L270.392 256.676L265.618 254.27L257.715 269.953L267.329 281.43V296.811H256.26L240.48 276.858L257.632 236.135L257.613 235.551C256.87 212.089 257.832 190.964 258.119 185.452C263.689 182.107 275.718 175.316 280.428 174.609C286.151 173.746 302.908 177.508 309.643 179.214L336.045 201.444C336.09 201.97 336.112 202.495 336.112 203.014C336.033 206.727 335.1 210.372 333.383 213.665C328.133 224.356 317.12 232.443 315.813 233.381L313.908 234.593Z" fill="#1D1D1D"/>
<path d="M318.73 287.877H270.3V292.564H318.73V287.877Z" fill="#1D1D1B"/>
<path d="M338.796 203.012C338.717 207.134 337.689 211.183 335.791 214.843L326.06 203.293L338.592 200.089C338.726 201.058 338.794 202.034 338.796 203.012Z" fill="#1D1D1B"/>
<path d="M273.766 200.605H263.713C263.34 200.604 262.971 200.525 262.63 200.374C262.29 200.222 261.984 200.001 261.734 199.724C261.484 199.447 261.294 199.121 261.178 198.767C261.061 198.412 261.02 198.037 261.057 197.666L261.895 189.288C261.946 188.773 262.145 188.285 262.468 187.882L265.818 183.692C266.068 183.379 266.386 183.126 266.748 182.952C267.109 182.779 267.505 182.689 267.906 182.689H276.285V188.036H269.192L267.136 190.605L266.667 195.257H273.766V200.605Z" fill="#1D1D1B"/>
<path d="M336.171 216.372V227.308C336.171 227.453 336.129 227.595 336.049 227.716C335.968 227.837 335.853 227.931 335.719 227.986C335.585 228.042 335.437 228.056 335.295 228.027C335.153 227.998 335.023 227.927 334.921 227.823L330.945 223.847L336.171 216.372Z" fill="white"/>
<path d="M335.437 230.266C335.049 230.266 334.664 230.189 334.306 230.04C333.948 229.891 333.622 229.672 333.348 229.397L328.052 224.1L338.399 209.293V227.305C338.397 228.091 338.083 228.844 337.527 229.399C336.97 229.954 336.217 230.266 335.431 230.266H335.437ZM333.845 223.59L333.943 223.689V223.451L333.845 223.59Z" fill="#1D1D1B"/>
<path d="M336.516 219.861L332.621 215.225L333.402 213.663C335.118 210.371 336.051 206.727 336.13 203.015C336.129 202.158 336.07 201.303 335.953 200.454L341.16 199.312C343.504 206.999 338.611 216.055 338.401 216.438L336.516 219.861Z" fill="#1D1D1B"/>
<path d="M316.711 239.319L315.194 236.94C312.709 233.026 311.321 228.517 311.175 223.884C311.029 219.251 312.13 214.664 314.363 210.601C316.596 206.539 319.879 203.151 323.869 200.792C327.859 198.432 332.41 197.188 337.045 197.188C337.54 197.188 338.034 197.202 338.528 197.229L339.437 197.277L341.107 198.716L341.244 199.717C341.395 200.804 341.471 201.901 341.473 202.998C341.396 207.531 340.273 211.984 338.192 216.012C332.49 227.625 321.208 236.083 319.004 237.661L316.711 239.319ZM336.117 202.562C332.775 202.717 329.521 203.685 326.638 205.384C323.755 207.082 321.331 209.459 319.576 212.307C317.82 215.156 316.787 218.39 316.566 221.728C316.345 225.067 316.943 228.409 318.307 231.464C322.147 228.349 329.424 221.748 333.397 213.654C335.114 210.361 336.048 206.716 336.126 203.003C336.123 202.862 336.122 202.714 336.117 202.562Z" fill="#1D1D1B"/>
<path d="M307.147 199.614C306.854 199.907 306.457 200.071 306.043 200.071C305.629 200.071 305.232 199.907 304.939 199.614L297.703 192.377L290.399 199.681C290.106 199.974 289.709 200.139 289.295 200.139C288.881 200.139 288.483 199.974 288.191 199.681L286.493 197.983C286.2 197.691 286.035 197.293 286.035 196.879C286.035 196.465 286.2 196.068 286.493 195.775L296.649 185.619C296.942 185.326 297.339 185.161 297.753 185.161C298.167 185.161 298.565 185.326 298.857 185.619L300.555 187.317C300.591 187.352 300.626 187.387 300.66 187.422L308.896 195.657C309.189 195.95 309.353 196.347 309.353 196.761C309.353 197.175 309.189 197.572 308.896 197.865L307.147 199.614Z" fill="#2E2E2E"/>
<path opacity="0.6" d="M297.28 212.669C302.022 212.669 305.867 210.572 305.867 207.986C305.867 205.399 302.022 203.302 297.28 203.302C292.537 203.302 288.693 205.399 288.693 207.986C288.693 210.572 292.537 212.669 297.28 212.669Z" fill="#FFB2E8"/>
</g>
<path fill-rule="evenodd" clip-rule="evenodd" d="M345.312 161.969C346.359 160.772 346.758 159.064 346.209 157.449C345.39 155.039 342.773 153.749 340.363 154.568C337.953 155.387 336.664 158.004 337.483 160.414C338.032 162.029 339.388 163.141 340.949 163.452L368.578 244.752L372.941 243.27L358.232 199.988L395.441 166.269L345.391 162.204L345.312 161.969Z" fill="#FDB515"/>
<path fill-rule="evenodd" clip-rule="evenodd" d="M607.208 69.5634H578.969C578.957 69.5634 578.944 69.5634 578.932 69.5634C578.92 69.5634 578.907 69.5634 578.895 69.5634H553.093C553.078 69.5634 553.064 69.5635 553.049 69.5635C553.034 69.5635 553.019 69.5634 553.004 69.5634H551.242V69.4562C543.783 68.5639 538 62.2147 538 54.5148C538 46.2037 544.738 39.4662 553.049 39.4662C553.403 39.4662 553.754 39.4784 554.101 39.5024C556.336 27.8249 566.603 19 578.932 19C590.558 19 600.351 26.8474 603.303 37.5343C604.559 37.2234 605.872 37.0583 607.224 37.0583C616.2 37.0583 623.476 44.3349 623.476 53.3109C623.476 61.6766 617.156 68.5661 609.029 69.4643V69.5634H607.24C607.234 69.5634 607.229 69.5634 607.224 69.5634C607.218 69.5634 607.213 69.5634 607.208 69.5634Z" fill="white"/>
<path fill-rule="evenodd" clip-rule="evenodd" d="M1136.64 120.434C1093.34 161.693 1056.82 246.873 1033.21 358H974C1006.1 215.161 1063.51 120 1129 120C1131.56 120 1134.11 120.145 1136.64 120.434Z" fill="#467609"/>
<path d="M1079.18 269.022C1069.01 260.006 1048.82 256.625 1040 256.061C1047.12 256.061 1125.49 233.521 1138.72 229.577C1151.95 225.632 1176.19 215.536 1176.19 209.8C1176.19 200.705 1140.77 190.168 1130.08 185.66C1119.39 181.152 1096.49 171.23 1087.33 161.65C1078.17 152.071 1087.33 143.815 1095.35 138.11C1103.57 132.262 1126.77 120.275 1131.15 120.051C1135.53 119.828 1139.73 120.37 1138.51 120.99C1123.79 128.481 1109.64 137.636 1099.92 146.67C1091.29 154.695 1122.19 166.373 1154.25 178.77C1186.31 191.167 1203 199.1 1203 209.8C1203 219.894 1188.31 229.168 1173.55 237.62C1161.74 244.382 1119.94 258.691 1098.9 269.022C1091.78 272.778 1089.36 278.038 1079.18 269.022Z" fill="#9A9A9A"/>
<path fill-rule="evenodd" clip-rule="evenodd" d="M1128.81 80.7405C1129.57 80.3014 1130.08 79.4804 1130.08 78.5401C1130.08 77.1373 1128.94 76 1127.54 76C1126.14 76 1125 77.1373 1125 78.5401C1125 79.4803 1125.51 80.3011 1126.27 80.7403V128.073H1128.81V102.874L1154.21 91.8756L1128.81 80.8768V80.7405Z" fill="#BE1C48"/>
<path fill-rule="evenodd" clip-rule="evenodd" d="M839 359H1165C1131.25 290.581 1070.87 245 1002 245C933.133 245 872.755 290.581 839 359Z" fill="#186219"/>
<path fill-rule="evenodd" clip-rule="evenodd" d="M1161.94 353H890C915.163 299.189 955.936 259.505 1003.96 245.012C1003.31 245.004 1002.65 245 1002 245C933.133 245 872.755 290.581 839 359H1165C1164 356.98 1162.98 354.98 1161.94 353Z" fill="#124A13"/>
<path d="M961.714 266.376C960.798 260.057 983.95 249.099 995.016 245.525C999.429 244.471 1011.04 244.983 1005.32 247.24C999.595 249.497 980.143 259.765 984.141 264.143C989.292 269.785 1028.21 275.426 1043.1 282.76C1065.99 294.044 1060.84 307.606 1055.12 317.761C1047.37 331.499 1033.37 343.148 1023.64 349.354C1015.85 354.319 1017.34 362.872 1019.06 364H900C901.908 361.367 909.731 354.409 913.165 352.175C920.606 347.333 942.929 340.305 972.121 334.099C1001.31 327.893 1028 316.941 1028 304.486C1028 290.912 1013.95 286.845 999.595 282.76C989.714 279.949 962.859 274.274 961.714 266.376Z" fill="#B2B2B2"/>
<ellipse cx="128.5" cy="39" rx="11.5" ry="11" fill="#5C4208"/>
<ellipse cx="460.5" cy="39" rx="11.5" ry="11" fill="#5C4208"/>
</g>
<defs>
<filter id="filter0_d_1369_1496" x="170" y="168.148" width="236.535" height="312.744" filterUnits="userSpaceOnUse" color-interpolation-filters="sRGB">
<feFlood flood-opacity="0" result="BackgroundImageFix"/>
<feColorMatrix in="SourceAlpha" type="matrix" values="0 0 0 0 0 0 0 0 0 0 0 0 0 0 0 0 0 0 127 0" result="hardAlpha"/>
<feOffset dy="4"/>
<feGaussianBlur stdDeviation="2.5"/>
<feComposite in2="hardAlpha" operator="out"/>
<feColorMatrix type="matrix" values="0 0 0 0 0 0 0 0 0 0 0 0 0 0 0 0 0 0 0.25 0"/>
<feBlend mode="normal" in2="BackgroundImageFix" result="effect1_dropShadow_1369_1496"/>
<feBlend mode="normal" in="SourceGraphic" in2="effect1_dropShadow_1369_1496" result="shape"/>
</filter>
<clipPath id="clip0_1369_1496">
<rect width="1208" height="350" fill="white"/>
</clipPath>
</defs>
</svg>
