<svg width="720" height="350" viewBox="0 0 720 350" fill="none" xmlns="http://www.w3.org/2000/svg">
<g clip-path="url(#clip0_1369_840)">
<rect width="720" height="350" fill="#D1E3FA"/>
<path fill-rule="evenodd" clip-rule="evenodd" d="M162.208 193.563H133.969C133.957 193.563 133.944 193.563 133.932 193.563C133.92 193.563 133.907 193.563 133.895 193.563H108.093C108.078 193.563 108.064 193.563 108.049 193.563C108.034 193.563 108.019 193.563 108.004 193.563H106.242V193.456C98.7829 192.564 93 186.215 93 178.515C93 170.204 99.7375 163.466 108.049 163.466C108.403 163.466 108.754 163.478 109.101 163.502C111.336 151.825 121.603 143 133.932 143C145.558 143 155.351 150.847 158.303 161.534C159.559 161.223 160.872 161.058 162.224 161.058C171.2 161.058 178.476 168.335 178.476 177.311C178.476 185.677 172.156 192.566 164.029 193.464V193.563H162.24C162.234 193.563 162.229 193.563 162.224 193.563C162.218 193.563 162.213 193.563 162.208 193.563Z" fill="white"/>
<path fill-rule="evenodd" clip-rule="evenodd" d="M69.2143 110.472C69.575 110.491 69.9382 110.5 70.3036 110.5C81.7339 110.5 91 101.234 91 89.8036C91 78.3732 81.7339 69.1071 70.3036 69.1071C69.1096 69.1071 67.9393 69.2082 66.8007 69.4023C62.2801 58.9737 51.8938 51.6786 39.8036 51.6786C37.3577 51.6786 34.9816 51.9771 32.7097 52.5398C27.3673 33.2008 9.64558 19 -11.3929 19C-34.9864 19 -54.4087 36.8596 -56.8779 59.7971C-59.6781 58.7731 -62.7023 58.2143 -65.8571 58.2143C-80.2954 58.2143 -92 69.9188 -92 84.3571C-92 98.7954 -80.2954 110.5 -65.8571 110.5C-64.3726 110.5 -62.917 110.376 -61.5 110.139V110.5H-11.3929H39.8036H69.2143V110.472Z" fill="white"/>
<path fill-rule="evenodd" clip-rule="evenodd" d="M509.993 161.515C510.259 161.529 510.527 161.536 510.796 161.536C519.233 161.536 526.072 154.696 526.072 146.26C526.072 137.823 519.233 130.984 510.796 130.984C509.915 130.984 509.051 131.059 508.21 131.202C504.873 123.504 497.207 118.12 488.283 118.12C486.478 118.12 484.725 118.34 483.048 118.755C479.104 104.481 466.024 94 450.496 94C433.081 94 418.746 107.182 416.924 124.112C414.857 123.356 412.624 122.944 410.296 122.944C399.639 122.944 391 131.583 391 142.24C391 152.897 399.639 161.536 410.296 161.536C411.392 161.536 412.467 161.444 413.513 161.269V161.536H509.993V161.515Z" fill="white"/>
<path fill-rule="evenodd" clip-rule="evenodd" d="M607.208 69.5634H578.969C578.957 69.5634 578.944 69.5634 578.932 69.5634C578.92 69.5634 578.907 69.5634 578.895 69.5634H553.093C553.078 69.5634 553.064 69.5635 553.049 69.5635C553.034 69.5635 553.019 69.5634 553.004 69.5634H551.242V69.4562C543.783 68.5639 538 62.2147 538 54.5148C538 46.2037 544.738 39.4662 553.049 39.4662C553.403 39.4662 553.754 39.4784 554.101 39.5024C556.336 27.8249 566.603 19 578.932 19C590.558 19 600.351 26.8474 603.303 37.5343C604.559 37.2234 605.872 37.0583 607.224 37.0583C616.2 37.0583 623.476 44.3349 623.476 53.3109C623.476 61.6766 617.156 68.5661 609.029 69.4643V69.5634H607.24C607.234 69.5634 607.229 69.5634 607.224 69.5634C607.218 69.5634 607.213 69.5634 607.208 69.5634Z" fill="white"/>
</g>
<defs>
<clipPath id="clip0_1369_840">
<rect width="720" height="350" fill="white"/>
</clipPath>
</defs>
</svg>
