<svg width="900" height="350" viewBox="0 0 900 350" fill="none" xmlns="http://www.w3.org/2000/svg">
<g clip-path="url(#clip0_1369_840)">
<rect width="900" height="350" fill="#D1E3FA"/>
<path fill-rule="evenodd" clip-rule="evenodd" d="M162.208 193.563H133.969C133.957 193.563 133.944 193.563 133.932 193.563C133.92 193.563 133.907 193.563 133.895 193.563H108.093C108.078 193.563 108.064 193.563 108.049 193.563C108.034 193.563 108.019 193.563 108.004 193.563H106.242V193.456C98.7829 192.564 93 186.215 93 178.515C93 170.204 99.7375 163.466 108.049 163.466C108.403 163.466 108.754 163.478 109.101 163.502C111.336 151.825 121.603 143 133.932 143C145.558 143 155.351 150.847 158.303 161.534C159.559 161.223 160.872 161.058 162.224 161.058C171.2 161.058 178.476 168.335 178.476 177.311C178.476 185.677 172.156 192.566 164.029 193.464V193.563H162.24C162.234 193.563 162.229 193.563 162.224 193.563C162.218 193.563 162.213 193.563 162.208 193.563Z" fill="white"/>
<path fill-rule="evenodd" clip-rule="evenodd" d="M69.2143 110.472C69.575 110.491 69.9382 110.5 70.3036 110.5C81.7339 110.5 91 101.234 91 89.8036C91 78.3732 81.7339 69.1071 70.3036 69.1071C69.1096 69.1071 67.9393 69.2082 66.8007 69.4023C62.2801 58.9737 51.8938 51.6786 39.8036 51.6786C37.3577 51.6786 34.9816 51.9771 32.7097 52.5398C27.3673 33.2008 9.64558 19 -11.3929 19C-34.9864 19 -54.4087 36.8596 -56.8779 59.7971C-59.6781 58.7731 -62.7023 58.2143 -65.8571 58.2143C-80.2954 58.2143 -92 69.9188 -92 84.3571C-92 98.7954 -80.2954 110.5 -65.8571 110.5C-64.3726 110.5 -62.917 110.376 -61.5 110.139V110.5H-11.3929H39.8036H69.2143V110.472Z" fill="white"/>
<path fill-rule="evenodd" clip-rule="evenodd" d="M689.993 161.515C690.259 161.529 690.527 161.536 690.796 161.536C699.233 161.536 706.072 154.696 706.072 146.26C706.072 137.823 699.233 130.984 690.796 130.984C689.915 130.984 689.051 131.059 688.21 131.202C684.873 123.504 677.207 118.12 668.283 118.12C666.478 118.12 664.725 118.34 663.048 118.755C659.104 104.481 646.024 94 630.496 94C613.081 94 598.746 107.182 596.924 124.112C594.857 123.356 592.624 122.944 590.296 122.944C579.639 122.944 571 131.583 571 142.24C571 152.897 579.639 161.536 590.296 161.536C591.392 161.536 592.467 161.444 593.513 161.269V161.536H689.993V161.515Z" fill="white"/>
<path fill-rule="evenodd" clip-rule="evenodd" d="M787.208 69.5634H758.969C758.957 69.5634 758.944 69.5634 758.932 69.5634C758.92 69.5634 758.907 69.5634 758.895 69.5634H733.093C733.078 69.5634 733.064 69.5635 733.049 69.5635C733.034 69.5635 733.019 69.5634 733.004 69.5634H731.242V69.4562C723.783 68.5639 718 62.2147 718 54.5148C718 46.2037 724.738 39.4662 733.049 39.4662C733.403 39.4662 733.754 39.4784 734.101 39.5024C736.336 27.8249 746.603 19 758.932 19C770.558 19 780.351 26.8474 783.303 37.5343C784.559 37.2234 785.872 37.0583 787.224 37.0583C796.2 37.0583 803.476 44.3349 803.476 53.3109C803.476 61.6766 797.156 68.5661 789.029 69.4643V69.5634H787.24C787.234 69.5634 787.229 69.5634 787.224 69.5634C787.218 69.5634 787.213 69.5634 787.208 69.5634Z" fill="white"/>
</g>
<defs>
<clipPath id="clip0_1369_840">
<rect width="900" height="350" fill="white"/>
</clipPath>
</defs>
</svg>
