<svg width="160" height="161" viewBox="0 0 160 161" fill="none" xmlns="http://www.w3.org/2000/svg">
<g clip-path="url(#clip0_1322_9037)">
<rect y="0.5" width="160" height="164" rx="8" fill="#CAEBFD"/>
<rect x="20" y="21.5" width="117" height="27" fill="#598F22"/>
<path d="M61.0938 38.3906C61.0938 39.0677 60.9271 39.651 60.5938 40.1406C60.2656 40.6302 59.7917 41.0052 59.1719 41.2656C58.5573 41.526 57.8229 41.6562 56.9688 41.6562C56.5521 41.6562 56.1536 41.6328 55.7734 41.5859C55.3932 41.5391 55.0339 41.4714 54.6953 41.3828C54.362 41.2891 54.0573 41.1771 53.7812 41.0469V39.2812C54.2448 39.4844 54.763 39.6693 55.3359 39.8359C55.9089 39.9974 56.4922 40.0781 57.0859 40.0781C57.5703 40.0781 57.9714 40.0156 58.2891 39.8906C58.612 39.7604 58.8516 39.5781 59.0078 39.3438C59.1641 39.1042 59.2422 38.8255 59.2422 38.5078C59.2422 38.1693 59.151 37.8828 58.9688 37.6484C58.7865 37.4141 58.5104 37.2005 58.1406 37.0078C57.776 36.8099 57.3177 36.599 56.7656 36.375C56.3906 36.224 56.0312 36.0521 55.6875 35.8594C55.349 35.6667 55.0469 35.4401 54.7812 35.1797C54.5156 34.9193 54.3047 34.612 54.1484 34.2578C53.9974 33.8984 53.9219 33.4766 53.9219 32.9922C53.9219 32.3464 54.0755 31.7943 54.3828 31.3359C54.6953 30.8776 55.1328 30.526 55.6953 30.2812C56.263 30.0365 56.9245 29.9141 57.6797 29.9141C58.2786 29.9141 58.8411 29.9766 59.3672 30.1016C59.8984 30.2266 60.4193 30.4036 60.9297 30.6328L60.3359 32.1406C59.8672 31.9479 59.4115 31.7943 58.9688 31.6797C58.5312 31.5651 58.0833 31.5078 57.625 31.5078C57.2292 31.5078 56.8932 31.5677 56.6172 31.6875C56.3411 31.8073 56.1302 31.9766 55.9844 32.1953C55.8438 32.4089 55.7734 32.6641 55.7734 32.9609C55.7734 33.2943 55.8542 33.5755 56.0156 33.8047C56.1823 34.0286 56.4375 34.2344 56.7812 34.4219C57.1302 34.6094 57.5781 34.8177 58.125 35.0469C58.7552 35.3073 59.2891 35.5807 59.7266 35.8672C60.1693 36.1536 60.5078 36.4974 60.7422 36.8984C60.9766 37.2943 61.0938 37.7917 61.0938 38.3906ZM67.2578 41.5H65.375V31.6719H62.0312V30.0781H70.5938V31.6719H67.2578V41.5ZM79.4219 41.5L78.3047 38.3281H73.9375L72.8203 41.5H70.8438L75.0938 30.0312H77.1719L81.4141 41.5H79.4219ZM77.8203 36.7188L76.7344 33.5938C76.6927 33.4583 76.6328 33.2682 76.5547 33.0234C76.4766 32.7734 76.3984 32.5208 76.3203 32.2656C76.2422 32.0052 76.1771 31.7865 76.125 31.6094C76.0729 31.8229 76.0078 32.0625 75.9297 32.3281C75.8568 32.5885 75.7839 32.8333 75.7109 33.0625C75.6432 33.2917 75.5911 33.4688 75.5547 33.5938L74.4609 36.7188H77.8203ZM86.1328 30.0781C87.1172 30.0781 87.9297 30.1979 88.5703 30.4375C89.2161 30.6771 89.6953 31.0417 90.0078 31.5312C90.3255 32.0208 90.4844 32.6432 90.4844 33.3984C90.4844 33.9609 90.3802 34.4401 90.1719 34.8359C89.9635 35.2318 89.6901 35.5599 89.3516 35.8203C89.013 36.0807 88.651 36.2891 88.2656 36.4453L91.5078 41.5H89.3906L86.6328 36.9219H84.7969V41.5H82.9219V30.0781H86.1328ZM86.0078 31.6406H84.7969V35.375H86.0938C86.9635 35.375 87.5938 35.2135 87.9844 34.8906C88.3802 34.5677 88.5781 34.0911 88.5781 33.4609C88.5781 32.7995 88.3672 32.3307 87.9453 32.0547C87.5286 31.7786 86.8828 31.6406 86.0078 31.6406ZM97.1016 41.5H95.2188V31.6719H91.875V30.0781H100.438V31.6719H97.1016V41.5ZM103.586 38.0156H102.203L101.828 30.0781H103.961L103.586 38.0156ZM101.734 40.5312C101.734 40.1042 101.844 39.8047 102.062 39.6328C102.286 39.4557 102.56 39.3672 102.883 39.3672C103.201 39.3672 103.471 39.4557 103.695 39.6328C103.919 39.8047 104.031 40.1042 104.031 40.5312C104.031 40.9479 103.919 41.25 103.695 41.4375C103.471 41.6198 103.201 41.7109 102.883 41.7109C102.56 41.7109 102.286 41.6198 102.062 41.4375C101.844 41.25 101.734 40.9479 101.734 40.5312Z" fill="white"/>
<path d="M0 160.5L56.7165 71.5H103.062L161 160.5H0Z" fill="#8B8B8B"/>
<path d="M147 160.5L97 71.5H103.242L161 160.5H147Z" fill="#515151"/>
<rect x="76" y="71.5" width="6" height="9" fill="#F9B500"/>
<rect x="76" y="85.5" width="6" height="8" fill="#F9B500"/>
<path d="M121.239 131.149V176.271L78.6328 181.774V155.745L121.239 131.149Z" fill="#70A739"/>
<path d="M121.238 131.149L78.6326 155.746L36.0303 131.149L78.6326 106.551L121.238 131.149Z" fill="#70A739"/>
<path d="M78.6326 194.575V204.937L36.0303 180.34V157.952L78.5742 194.587L78.6326 194.575Z" fill="#754C24"/>
<path d="M78.6326 181.775V194.575L78.5724 194.588L36.0303 157.954V143.444L78.5742 181.78L78.6326 181.775Z" fill="#C78A0C"/>
<path d="M78.6327 155.746V181.775L78.5725 181.782L36.0286 143.445V131.149L78.6327 155.746Z" fill="#70A739"/>
<path d="M79.6623 204.937H77.6023V156.34L35.5152 132.04L36.545 130.257L79.6623 155.151V204.937Z" fill="#1D1D1B"/>
<path d="M120.722 130.255L78.1186 154.856L79.1488 156.64L121.752 132.039L120.722 130.255Z" fill="#1D1D1B"/>
<path d="M78.6325 206.126L35 180.935V130.553L35.5152 130.257L78.6325 105.362L122.268 130.553V180.934L78.6325 206.126ZM37.0601 179.745L78.6325 203.748L120.208 179.745V131.743L78.6325 107.74L37.0601 131.743V179.745Z" fill="#1D1D1B"/>
<path d="M78.2998 195.711L35.3581 158.734L36.7026 157.173L78.842 193.459L110.298 185.511L110.803 187.508L78.8107 195.591L78.2998 195.711Z" fill="#1D1D1B"/>
<path d="M78.2294 182.858L77.8845 182.547L35.3407 144.211L36.7195 142.68L78.9125 180.701L121.105 175.25L121.37 177.297L78.691 182.809L78.2294 182.858Z" fill="#1D1D1B"/>
<path d="M87.5637 120.426H68.4027V136.052H87.5637V120.426Z" fill="white"/>
<path d="M96.7206 117.554L89.251 115.649L87.3905 124.625L100.777 123.89L108.422 112.012L106.406 107.458L102.7 109.416L96.7206 117.554Z" fill="white" stroke="#1D1D1D" stroke-width="2"/>
<path d="M70.8268 122.754L68.0867 128.191L71.5953 132.379V139.709H65.8033L59.0472 131.153L65.8033 115.112C65.4651 104.459 66.029 95.1809 66.029 95.1809C66.029 95.1809 72.8724 90.9735 75.4687 90.5829C78.4435 90.1363 87.3572 92.4359 87.3572 92.4359L97.9398 101.347L98.0222 101.418C98.0736 101.791 98.0995 102.167 98.0998 102.544C98.0697 104.132 97.6736 105.692 96.9425 107.102C94.8283 111.408 90.4891 114.621 89.8753 115.06C89.8283 115.095 89.8024 115.112 89.8024 115.112L96.5592 131.154L89.8018 136.7H84.0068V132.379L87.5155 128.191L84.776 122.755" fill="white"/>
<path d="M88.5103 114.711L95.1827 130.724L89.1644 135.238L90.3681 137.044L97.7448 131.315L91.0645 115.458C92.5648 114.299 95.994 111.368 97.8651 107.559C98.6669 106.007 99.0995 104.292 99.129 102.545C99.1285 102.123 99.0994 101.7 99.0417 101.282L98.9887 100.896L87.8405 91.5019L87.6136 91.4417C86.6801 91.1998 78.4074 89.1024 75.3152 89.567C72.5907 89.9768 66.2077 93.864 65.4892 94.3058L65.033 94.5862L65.0005 95.1207C64.9945 95.2127 64.4444 104.437 64.7658 114.921L57.861 131.315L65.3038 140.74H72.6262V132.005L69.312 128.05L71.747 123.218L69.9078 122.291L66.8631 128.333L70.5668 132.754V138.68H66.3028L60.2238 130.993L66.8312 115.305L66.824 115.08C66.5376 106.042 66.9083 97.9041 67.019 95.7809C69.1645 94.4923 73.7986 91.8762 75.6131 91.6036C77.8176 91.2714 84.2728 92.7206 86.8673 93.3778L97.0382 101.941C97.0557 102.144 97.0641 102.346 97.0641 102.546C97.0339 103.976 96.6741 105.381 96.0127 106.649C93.9906 110.768 89.7477 113.883 89.2445 114.244L88.5103 114.711Z" fill="#1D1D1D"/>
<path d="M90.3682 135.238H71.7115V137.044H90.3682V135.238Z" fill="#1D1D1B"/>
<path d="M98.0987 102.545C98.0685 104.133 97.6725 105.693 96.9414 107.103L93.1926 102.654L98.0204 101.419C98.072 101.793 98.0982 102.169 98.0987 102.545Z" fill="#1D1D1B"/>
<path d="M73.0477 101.618H69.1749C69.0312 101.618 68.8891 101.587 68.7578 101.529C68.6265 101.471 68.5088 101.385 68.4125 101.279C68.3161 101.172 68.2431 101.046 68.1982 100.91C68.1533 100.773 68.1375 100.629 68.1518 100.486L68.4744 97.2584C68.4941 97.0603 68.5708 96.8721 68.6952 96.7167L69.9856 95.1026C70.0821 94.982 70.2046 94.8847 70.3439 94.8178C70.4832 94.7509 70.6357 94.7162 70.7902 94.7162H74.0178V96.7763H71.2855L70.4935 97.7657L70.3129 99.5579H73.0477V101.618Z" fill="#1D1D1B"/>
<path d="M97.0888 107.692V111.905C97.0891 111.961 97.0727 112.016 97.0417 112.062C97.0108 112.109 96.9666 112.145 96.9149 112.166C96.8632 112.188 96.8063 112.193 96.7515 112.182C96.6967 112.171 96.6465 112.144 96.6073 112.104L95.0757 110.572L97.0888 107.692Z" fill="white"/>
<path d="M96.8057 113.044C96.6561 113.044 96.5081 113.015 96.37 112.957C96.2319 112.9 96.1065 112.816 96.001 112.71L93.9608 110.669L97.9467 104.965V111.904C97.9459 112.207 97.8251 112.497 97.6108 112.71C97.3964 112.924 97.106 113.044 96.8033 113.044H96.8057ZM96.1924 110.473L96.2303 110.511V110.419L96.1924 110.473Z" fill="#1D1D1B"/>
<path d="M97.2206 109.036L95.7203 107.251L96.0212 106.649C96.6821 105.38 97.0417 103.977 97.072 102.547C97.0717 102.217 97.049 101.887 97.004 101.56L99.0099 101.12C99.9126 104.081 98.0277 107.57 97.947 107.718L97.2206 109.036Z" fill="#1D1D1B"/>
<path d="M89.5908 116.532L89.0064 115.615C88.0493 114.108 87.5146 112.371 87.4584 110.586C87.4021 108.801 87.8262 107.034 88.6864 105.469C89.5466 103.904 90.8113 102.599 92.3484 101.69C93.8854 100.781 95.6384 100.302 97.4242 100.302C97.6147 100.302 97.8051 100.307 97.9953 100.317L98.3456 100.336L98.9889 100.89L99.0419 101.276C99.0997 101.695 99.1291 102.117 99.1297 102.54C99.1002 104.286 98.6677 106.002 97.8659 107.553C95.6692 112.027 91.3234 115.286 90.4742 115.893L89.5908 116.532ZM97.0667 102.372C95.7791 102.432 94.5256 102.805 93.4151 103.459C92.3045 104.113 91.3706 105.029 90.6944 106.126C90.0182 107.224 89.6202 108.469 89.5351 109.756C89.4499 111.042 89.6802 112.329 90.2058 113.506C91.6851 112.306 94.4884 109.763 96.0189 106.645C96.6803 105.376 97.0401 103.972 97.0703 102.542C97.0691 102.488 97.0685 102.431 97.0667 102.372Z" fill="#1D1D1B"/>
<path d="M85.9064 101.236C85.7936 101.349 85.6407 101.412 85.4811 101.412C85.3216 101.412 85.1687 101.349 85.0559 101.236L82.2681 98.4485L79.4544 101.262C79.3416 101.375 79.1886 101.438 79.0291 101.438C78.8696 101.438 78.7166 101.375 78.6038 101.262L77.9497 100.608C77.8369 100.495 77.7735 100.342 77.7735 100.183C77.7735 100.023 77.8369 99.8704 77.9497 99.7576L81.8624 95.8449C81.9752 95.7321 82.1281 95.6688 82.2877 95.6688C82.4472 95.6688 82.6001 95.7321 82.7129 95.8449L83.367 96.499C83.3806 96.5126 83.3943 96.5262 83.4074 96.5394L86.5801 99.7121C86.6929 99.8249 86.7563 99.9778 86.7563 100.137C86.7563 100.297 86.6929 100.45 86.5801 100.563L85.9064 101.236Z" fill="#2E2E2E"/>
<path opacity="0.6" d="M82 106.354C83.6569 106.354 85 105.458 85 104.354C85 103.249 83.6569 102.354 82 102.354C80.3431 102.354 79 103.249 79 104.354C79 105.458 80.3431 106.354 82 106.354Z" fill="#FFB2E8"/>
<path d="M105.909 102.391L105.34 97.5" stroke="#C4C4C4" stroke-width="2" stroke-linecap="round"/>
<path d="M110.277 103.295L114.133 97.5" stroke="#C4C4C4" stroke-width="2" stroke-linecap="round"/>
<path d="M113.225 106.633L117.875 104.5" stroke="#C4C4C4" stroke-width="2" stroke-linecap="round"/>
<path d="M113 111.088L117 111.091" stroke="#C4C4C4" stroke-width="2" stroke-linecap="round"/>
<rect x="17" y="18.5" width="3" height="142" fill="#754C24"/>
<rect x="16" y="18.5" width="2" height="142" fill="#C78A0C"/>
<rect x="138" y="18.5" width="3" height="142" fill="#754C24"/>
<rect x="137" y="18.5" width="2" height="142" fill="#C78A0C"/>
<circle cx="18" cy="16.5" r="4" fill="#754C24"/>
<circle cx="139" cy="16.5" r="4" fill="#754C24"/>
</g>
<defs>
<clipPath id="clip0_1322_9037">
<rect y="0.5" width="160" height="160" rx="8" fill="white"/>
</clipPath>
</defs>
</svg>
