<svg width="1500" height="350" viewBox="0 0 1500 350" fill="none" xmlns="http://www.w3.org/2000/svg">
<g clip-path="url(#clip0_1731_1373)">
<rect width="1500" height="350" fill="#E6DED7"/>
<rect opacity="0.5" x="104.557" y="251" width="284" height="186" fill="#8A630B"/>
<path d="M385.798 252H107.37C106.429 252 106.009 250.818 106.739 250.224L247.682 135.52C248.053 135.218 248.586 135.221 248.954 135.528L386.438 250.232C387.156 250.831 386.733 252 385.798 252Z" fill="#8A630B" stroke="#333333" stroke-width="5"/>
<rect x="127.057" y="87.5" width="236" height="283" fill="white" stroke="#333333" stroke-width="5"/>
<path d="M240.633 134.614V136.079L236.794 138.301L225.332 141.205V136.595L240.633 134.614Z" fill="#C78A0C"/>
<path d="M240.633 118.363V134.615L225.332 136.596V127.222L240.633 118.363Z" fill="#598F22"/>
<path d="M240.634 118.363L225.332 127.222L210.032 118.363L225.332 109.505L240.634 118.363Z" fill="#598F22"/>
<path d="M236.794 138.301L225.331 144.938V141.206L236.794 138.301Z" fill="#754C24"/>
<path d="M225.332 141.205V144.937L210.031 136.079V128.017L225.311 141.21L225.332 141.205Z" fill="#754C24"/>
<path d="M225.332 136.596V141.206L225.311 141.21L210.031 128.017V122.791L225.311 136.598L225.332 136.596Z" fill="#C78A0C"/>
<path d="M225.332 127.222V136.596L225.311 136.598L210.031 122.791V118.363L225.332 127.222Z" fill="#598F22"/>
<path d="M225.701 144.938H224.961V127.436L209.846 118.684L210.216 118.042L225.702 127.007L225.701 144.938Z" fill="#1D1D1B"/>
<path d="M240.448 118.042L225.147 126.902L225.517 127.544L240.818 118.684L240.448 118.042Z" fill="#1D1D1B"/>
<path d="M225.332 145.366L209.663 136.293V118.15L209.848 118.043L225.334 109.077L241.003 118.149V136.292L225.332 145.366ZM210.401 135.866L225.332 144.51L240.263 135.866V118.579L225.332 109.935L210.401 118.579V135.866Z" fill="#1D1D1B"/>
<path d="M225.212 141.615L209.79 128.298L210.273 127.736L225.407 140.804L236.704 137.941L236.883 138.662L225.394 141.573L225.212 141.615Z" fill="#1D1D1B"/>
<path d="M225.187 136.986L225.063 136.874L209.783 123.067L210.277 122.516L225.43 136.209L240.584 134.246L240.678 134.982L225.35 136.967L225.187 136.986Z" fill="#1D1D1B"/>
<path d="M228.539 114.501H221.658V120.129H228.539V114.501Z" fill="white"/>
<path d="M222.528 115.34L221.543 117.298L222.804 118.807V121.447H220.724L218.299 118.366L220.724 112.589C220.602 108.753 220.805 105.411 220.805 105.411C220.805 105.411 223.263 103.895 224.195 103.755C225.264 103.594 228.465 104.422 228.465 104.422L232.266 107.631L232.295 107.657C232.314 107.791 232.323 107.927 232.323 108.062C232.312 108.634 232.17 109.196 231.907 109.704C231.281 110.834 230.415 111.813 229.369 112.57C229.352 112.582 229.343 112.588 229.343 112.588L231.77 118.365L229.343 121.446H227.262V118.806L228.523 117.298L227.539 115.34" fill="white"/>
<path d="M229.522 121.817H226.892V118.671L228.082 117.247L227.208 115.507L227.868 115.173L228.962 117.349L227.632 118.941V121.075H229.164L231.344 118.307L228.881 112.442L229.144 112.274C230.144 111.55 230.973 110.617 231.575 109.538C231.813 109.082 231.942 108.576 231.953 108.061C231.953 107.989 231.95 107.916 231.943 107.843L228.291 104.759C227.359 104.522 225.041 104.001 224.25 104.12C223.598 104.218 221.934 105.161 221.163 105.625C221.123 106.39 220.99 109.32 221.093 112.576L221.096 112.657L218.723 118.306L220.903 121.075H222.434V118.941L221.104 117.349L222.198 115.173L222.858 115.506L221.984 117.246L223.174 118.671V121.817H220.544L217.871 118.423L220.353 112.519C220.238 108.743 220.435 105.421 220.437 105.388L220.449 105.195L220.613 105.094C220.871 104.936 223.163 103.535 224.142 103.388C225.252 103.22 228.223 103.976 228.559 104.063L228.64 104.084L232.644 107.468L232.663 107.607C232.683 107.758 232.694 107.91 232.694 108.063C232.683 108.691 232.528 109.309 232.24 109.868C231.638 110.98 230.805 111.95 229.798 112.713L232.197 118.424L229.522 121.817Z" fill="#1D1D1B"/>
<path d="M227.262 119.758H222.804V120.5H227.262V119.758Z" fill="#1D1D1B"/>
<path d="M232.322 108.062C232.311 108.634 232.169 109.195 231.906 109.703L230.559 108.101L232.293 107.656C232.312 107.791 232.321 107.926 232.322 108.062V108.062Z" fill="#1D1D1B"/>
<path d="M227.941 107.251C227.941 107.251 227.454 105.894 226.688 106.137C226.285 106.238 225.921 106.457 225.643 106.767C225.643 106.767 226.28 107.608 226.804 107.649C227.213 107.628 227.608 107.49 227.941 107.251V107.251Z" fill="#1D1D1B"/>
<path d="M223.326 107.729H221.934C221.883 107.729 221.832 107.718 221.784 107.697C221.737 107.676 221.695 107.645 221.66 107.607C221.625 107.568 221.599 107.523 221.583 107.474C221.567 107.424 221.561 107.372 221.566 107.321L221.682 106.158C221.689 106.087 221.717 106.019 221.762 105.963L222.225 105.382C222.26 105.339 222.304 105.304 222.354 105.28C222.404 105.256 222.459 105.243 222.514 105.243H223.673V105.985H222.692L222.408 106.341L222.343 106.987H223.326L223.326 107.729Z" fill="#1D1D1B"/>
<path d="M231.959 109.916V111.433C231.959 111.453 231.953 111.472 231.942 111.489C231.931 111.506 231.915 111.519 231.897 111.526C231.878 111.534 231.858 111.536 231.838 111.532C231.819 111.528 231.801 111.519 231.787 111.504L231.237 110.953L231.959 109.916Z" fill="white"/>
<path d="M231.858 111.843C231.805 111.843 231.751 111.833 231.702 111.812C231.652 111.791 231.607 111.761 231.569 111.723L230.836 110.988L232.267 108.934V111.433C232.267 111.542 232.224 111.646 232.147 111.723C232.07 111.8 231.966 111.843 231.857 111.843H231.858ZM231.638 110.917L231.651 110.931V110.898L231.638 110.917Z" fill="#1D1D1B"/>
<path d="M232.007 110.399L231.468 109.756L231.575 109.539C231.812 109.083 231.941 108.577 231.952 108.062C231.952 107.943 231.944 107.825 231.928 107.707L232.646 107.549C232.97 108.615 232.293 109.871 232.265 109.924L232.007 110.399Z" fill="#1D1D1B"/>
<path d="M229.268 113.099L229.058 112.769C228.714 112.226 228.522 111.6 228.501 110.957C228.481 110.314 228.633 109.678 228.942 109.114C229.251 108.55 229.705 108.08 230.257 107.753C230.81 107.425 231.439 107.253 232.081 107.253C232.149 107.253 232.218 107.255 232.286 107.259L232.412 107.265L232.642 107.465L232.661 107.604C232.682 107.755 232.693 107.908 232.693 108.06C232.682 108.689 232.527 109.307 232.239 109.865C231.589 111.053 230.682 112.079 229.585 112.869L229.268 113.099ZM231.952 107.999C231.49 108.021 231.039 108.155 230.64 108.39C230.241 108.626 229.905 108.956 229.663 109.351C229.42 109.747 229.277 110.196 229.246 110.659C229.216 111.122 229.299 111.586 229.488 112.01C230.343 111.337 231.054 110.496 231.575 109.539C231.813 109.083 231.942 108.577 231.953 108.062C231.953 108.041 231.953 108.018 231.952 107.999Z" fill="#1D1D1B"/>
<path d="M254.012 132.112C254.033 132.26 254.019 132.41 253.972 132.551C253.925 132.693 253.846 132.821 253.741 132.927C253.636 133.032 253.508 133.111 253.367 133.158C253.226 133.206 253.076 133.219 252.929 133.198H249.203C249.057 133.217 248.91 133.202 248.771 133.153C248.633 133.105 248.508 133.025 248.405 132.919C248.303 132.814 248.227 132.686 248.183 132.546C248.138 132.406 248.127 132.257 248.15 132.112V122.408C248.128 122.26 248.141 122.109 248.187 121.967C248.233 121.825 248.311 121.696 248.416 121.59C248.521 121.484 248.648 121.404 248.789 121.356C248.93 121.308 249.08 121.294 249.228 121.314H252.931C253.079 121.293 253.229 121.307 253.37 121.355C253.512 121.403 253.64 121.483 253.745 121.589C253.85 121.695 253.929 121.825 253.976 121.967C254.022 122.109 254.035 122.26 254.014 122.408V124.944H252.235V122.841H249.925V131.672H252.235V128.346H250.917V126.835H254.015L254.012 132.112Z" fill="black"/>
<path d="M261.403 132.111C261.424 132.258 261.411 132.408 261.365 132.549C261.319 132.69 261.24 132.819 261.135 132.924C261.031 133.03 260.903 133.109 260.762 133.157C260.622 133.204 260.472 133.217 260.325 133.197H256.478C256.333 133.215 256.185 133.2 256.047 133.152C255.908 133.103 255.783 133.023 255.681 132.918C255.579 132.812 255.502 132.685 255.458 132.545C255.414 132.404 255.403 132.256 255.426 132.111V122.406C255.426 121.677 255.777 121.312 256.478 121.312H260.325C260.473 121.292 260.623 121.306 260.764 121.354C260.905 121.402 261.032 121.483 261.137 121.589C261.242 121.695 261.32 121.824 261.366 121.966C261.412 122.108 261.425 122.258 261.403 122.406V132.111ZM259.631 131.67V122.839H257.2V131.67H259.631Z" fill="black"/>
<path d="M267.665 122.885H264.598V126.4H267.218V127.942H264.598V133.197H262.826V121.311H267.665V122.885Z" fill="black"/>
<path d="M273.589 133.197H268.672V121.311H273.541V122.883H270.444V126.354H273.109V127.895H270.446V131.623H273.589V133.197Z" fill="black"/>
<path d="M280.864 133.197H279.016L277.063 127.676V126.606H278.804V122.839H276.57V133.197H274.798V121.311H279.499C279.646 121.292 279.795 121.307 279.935 121.355C280.075 121.404 280.202 121.484 280.305 121.59C280.409 121.697 280.486 121.825 280.532 121.967C280.577 122.108 280.589 122.258 280.567 122.405V126.727C280.594 126.922 280.56 127.12 280.469 127.294C280.378 127.469 280.234 127.61 280.059 127.699C279.684 127.798 279.295 127.836 278.908 127.813L280.864 133.197Z" fill="black"/>
<rect x="150.557" y="159" width="194" height="10" rx="5" fill="#D9D9D9"/>
<rect x="150.557" y="189" width="194" height="10" rx="5" fill="#D9D9D9"/>
<rect x="150.557" y="219" width="194" height="10" rx="5" fill="#D9D9D9"/>
<rect x="150.557" y="249" width="194" height="10" rx="5" fill="#D9D9D9"/>
<rect x="150.557" y="279" width="194" height="10" rx="5" fill="#D9D9D9"/>
<rect x="150.557" y="309" width="194" height="10" rx="5" fill="#D9D9D9"/>
<path d="M104.557 435.294V252.827C104.557 252.037 105.431 251.559 106.096 251.985L258.152 349.301C258.788 349.708 258.76 350.646 258.101 351.015L106.046 436.166C105.379 436.54 104.557 436.058 104.557 435.294Z" fill="#649D35" stroke="#333333" stroke-width="5"/>
<path d="M388.557 435.294V252.827C388.557 252.037 387.684 251.559 387.018 251.985L234.963 349.301C234.326 349.708 234.354 350.646 235.013 351.015L387.069 436.166C387.735 436.54 388.557 436.058 388.557 435.294Z" fill="#649D35" stroke="#333333" stroke-width="5"/>
<path d="M383.83 437H107.336C106.399 437 105.977 435.826 106.699 435.229L246.664 319.533C247.037 319.225 247.578 319.228 247.947 319.541L384.477 435.237C385.187 435.839 384.761 437 383.83 437Z" fill="#8A630B" stroke="#333333" stroke-width="5"/>
<rect x="332.557" y="58" width="65" height="65" rx="32.5" fill="#D0213B"/>
<path d="M351.391 102.458V99.0417H354.807V87.0834C354.807 84.7202 355.519 82.6203 356.943 80.7839C358.366 78.9474 360.217 77.7445 362.495 77.175V75.9792C362.495 75.2674 362.744 74.6623 363.242 74.1641C363.74 73.6658 364.345 73.4167 365.057 73.4167C365.769 73.4167 366.374 73.6658 366.872 74.1641C367.371 74.6623 367.62 75.2674 367.62 75.9792V77.175C369.898 77.7445 371.748 78.9474 373.172 80.7839C374.595 82.6203 375.307 84.7202 375.307 87.0834V99.0417H378.724V102.458H351.391ZM365.057 107.583C364.118 107.583 363.313 107.249 362.644 106.58C361.975 105.911 361.641 105.106 361.641 104.167H368.474C368.474 105.106 368.139 105.911 367.47 106.58C366.801 107.249 365.997 107.583 365.057 107.583Z" fill="#F7F7F7"/>
<path d="M417.261 60.6394C418.321 59.9999 418.594 58.5096 417.87 57.3106C417.147 56.1117 415.701 55.6581 414.642 56.2975L406.539 61.1861C405.48 61.8255 405.207 63.3158 405.93 64.5148C406.654 65.7138 408.099 66.1673 409.159 65.5279L417.261 60.6394Z" fill="#D0213B"/>
<path d="M420.874 81.0495C422.068 81.3449 423.276 80.6163 423.572 79.4221C423.867 78.2278 423.138 77.0202 421.944 76.7248L412.814 74.4662C411.62 74.1708 410.412 74.8994 410.117 76.0936C409.821 77.2879 410.55 78.4955 411.744 78.7909L420.874 81.0495Z" fill="#D0213B"/>
<path d="M396.011 52.7147C395.716 53.9089 396.444 55.1165 397.638 55.412C398.833 55.7074 400.04 54.9788 400.336 53.7846L402.594 44.6546C402.89 43.4604 402.161 42.2528 400.967 41.9574C399.773 41.6619 398.565 42.3906 398.27 43.5848L396.011 52.7147Z" fill="#D0213B"/>
<path fill-rule="evenodd" clip-rule="evenodd" d="M490.835 257.47C471.657 245.957 446.779 252.171 435.266 271.348C431.284 277.981 429.423 285.297 429.485 292.505L412 305.088L432.799 308.235C436.038 315.761 441.584 322.378 449.145 326.917C468.322 338.429 493.201 332.216 504.714 313.038C516.226 293.861 510.012 268.982 490.835 257.47Z" fill="#CDBEAF"/>
<path d="M455.152 293.578C455.152 292.51 455.426 291.762 455.973 291.332C456.533 290.889 457.21 290.668 458.004 290.668C458.798 290.668 459.475 290.889 460.035 291.332C460.608 291.762 460.895 292.51 460.895 293.578C460.895 294.62 460.608 295.375 460.035 295.844C459.475 296.299 458.798 296.527 458.004 296.527C457.21 296.527 456.533 296.299 455.973 295.844C455.426 295.375 455.152 294.62 455.152 293.578ZM466.129 293.578C466.129 292.51 466.402 291.762 466.949 291.332C467.509 290.889 468.186 290.668 468.98 290.668C469.775 290.668 470.452 290.889 471.012 291.332C471.585 291.762 471.871 292.51 471.871 293.578C471.871 294.62 471.585 295.375 471.012 295.844C470.452 296.299 469.775 296.527 468.98 296.527C468.186 296.527 467.509 296.299 466.949 295.844C466.402 295.375 466.129 294.62 466.129 293.578ZM477.105 293.578C477.105 292.51 477.379 291.762 477.926 291.332C478.486 290.889 479.163 290.668 479.957 290.668C480.751 290.668 481.428 290.889 481.988 291.332C482.561 291.762 482.848 292.51 482.848 293.578C482.848 294.62 482.561 295.375 481.988 295.844C481.428 296.299 480.751 296.527 479.957 296.527C479.163 296.527 478.486 296.299 477.926 295.844C477.379 295.375 477.105 294.62 477.105 293.578Z" fill="black"/>
<path fill-rule="evenodd" clip-rule="evenodd" d="M84.5996 -9C101.192 -9 114.642 4.45044 114.642 21.0424C114.642 26.7812 113.033 32.1442 110.241 36.7048L116.558 51.383L102.128 45.4441C97.1946 48.9939 91.1413 51.0848 84.5996 51.0848C68.0076 51.0848 54.5572 37.6344 54.5572 21.0424C54.5572 4.45044 68.0076 -9 84.5996 -9Z" fill="#CDBEAF"/>
<path d="M71.71 21.5781C71.71 20.5104 71.9834 19.7617 72.5303 19.332C73.0902 18.8893 73.7673 18.668 74.5615 18.668C75.3558 18.668 76.0329 18.8893 76.5928 19.332C77.1657 19.7617 77.4521 20.5104 77.4521 21.5781C77.4521 22.6198 77.1657 23.375 76.5928 23.8438C76.0329 24.2995 75.3558 24.5273 74.5615 24.5273C73.7673 24.5273 73.0902 24.2995 72.5303 23.8438C71.9834 23.375 71.71 22.6198 71.71 21.5781ZM82.6865 21.5781C82.6865 20.5104 82.96 19.7617 83.5068 19.332C84.0667 18.8893 84.7438 18.668 85.5381 18.668C86.3324 18.668 87.0094 18.8893 87.5693 19.332C88.1423 19.7617 88.4287 20.5104 88.4287 21.5781C88.4287 22.6198 88.1423 23.375 87.5693 23.8438C87.0094 24.2995 86.3324 24.5273 85.5381 24.5273C84.7438 24.5273 84.0667 24.2995 83.5068 23.8438C82.96 23.375 82.6865 22.6198 82.6865 21.5781ZM93.6631 21.5781C93.6631 20.5104 93.9365 19.7617 94.4834 19.332C95.0433 18.8893 95.7204 18.668 96.5146 18.668C97.3089 18.668 97.986 18.8893 98.5459 19.332C99.1188 19.7617 99.4053 20.5104 99.4053 21.5781C99.4053 22.6198 99.1188 23.375 98.5459 23.8438C97.986 24.2995 97.3089 24.5273 96.5146 24.5273C95.7204 24.5273 95.0433 24.2995 94.4834 23.8438C93.9365 23.375 93.6631 22.6198 93.6631 21.5781Z" fill="black"/>
<path fill-rule="evenodd" clip-rule="evenodd" d="M50.6249 30.6885C32.1292 30.6885 17.1354 45.6823 17.1354 64.178C17.1354 70.5754 18.9291 76.5537 22.0411 81.6376L15 98L31.0855 91.3797C36.5847 95.3368 43.3326 97.6676 50.6249 97.6676C69.1207 97.6676 84.1145 82.6738 84.1145 64.178C84.1145 45.6823 69.1207 30.6885 50.6249 30.6885Z" fill="#F1EDE9"/>
<path d="M64.4048 65.5781C64.4048 64.5104 64.1313 63.7617 63.5845 63.332C63.0246 62.8893 62.3475 62.668 61.5532 62.668C60.759 62.668 60.0819 62.8893 59.522 63.332C58.9491 63.7617 58.6626 64.5104 58.6626 65.5781C58.6626 66.6198 58.9491 67.375 59.522 67.8438C60.0819 68.2995 60.759 68.5273 61.5532 68.5273C62.3475 68.5273 63.0246 68.2995 63.5845 67.8438C64.1313 67.375 64.4048 66.6198 64.4048 65.5781ZM53.4282 65.5781C53.4282 64.5104 53.1548 63.7617 52.6079 63.332C52.048 62.8893 51.3709 62.668 50.5767 62.668C49.7824 62.668 49.1053 62.8893 48.5454 63.332C47.9725 63.7617 47.686 64.5104 47.686 65.5781C47.686 66.6198 47.9725 67.375 48.5454 67.8438C49.1053 68.2995 49.7824 68.5273 50.5767 68.5273C51.3709 68.5273 52.048 68.2995 52.6079 67.8438C53.1548 67.375 53.4282 66.6198 53.4282 65.5781ZM42.4517 65.5781C42.4517 64.5104 42.1782 63.7617 41.6313 63.332C41.0715 62.8893 40.3944 62.668 39.6001 62.668C38.8058 62.668 38.1287 62.8893 37.5688 63.332C36.9959 63.7617 36.7095 64.5104 36.7095 65.5781C36.7095 66.6198 36.9959 67.375 37.5688 67.8438C38.1287 68.2995 38.8058 68.5273 39.6001 68.5273C40.3944 68.5273 41.0715 68.2995 41.6313 67.8438C42.1782 67.375 42.4517 66.6198 42.4517 65.5781Z" fill="black"/>
<path fill-rule="evenodd" clip-rule="evenodd" d="M1440.6 221C1457.19 221 1470.64 234.45 1470.64 251.042C1470.64 256.781 1469.03 262.144 1466.24 266.705L1472.56 281.383L1458.13 275.444C1453.19 278.994 1447.14 281.085 1440.6 281.085C1424.01 281.085 1410.56 267.634 1410.56 251.042C1410.56 234.45 1424.01 221 1440.6 221Z" fill="#CDBEAF"/>
<path d="M1427.71 251.578C1427.71 250.51 1427.98 249.762 1428.53 249.332C1429.09 248.889 1429.77 248.668 1430.56 248.668C1431.36 248.668 1432.03 248.889 1432.59 249.332C1433.17 249.762 1433.45 250.51 1433.45 251.578C1433.45 252.62 1433.17 253.375 1432.59 253.844C1432.03 254.299 1431.36 254.527 1430.56 254.527C1429.77 254.527 1429.09 254.299 1428.53 253.844C1427.98 253.375 1427.71 252.62 1427.71 251.578ZM1438.69 251.578C1438.69 250.51 1438.96 249.762 1439.51 249.332C1440.07 248.889 1440.74 248.668 1441.54 248.668C1442.33 248.668 1443.01 248.889 1443.57 249.332C1444.14 249.762 1444.43 250.51 1444.43 251.578C1444.43 252.62 1444.14 253.375 1443.57 253.844C1443.01 254.299 1442.33 254.527 1441.54 254.527C1440.74 254.527 1440.07 254.299 1439.51 253.844C1438.96 253.375 1438.69 252.62 1438.69 251.578ZM1449.66 251.578C1449.66 250.51 1449.94 249.762 1450.48 249.332C1451.04 248.889 1451.72 248.668 1452.51 248.668C1453.31 248.668 1453.99 248.889 1454.55 249.332C1455.12 249.762 1455.41 250.51 1455.41 251.578C1455.41 252.62 1455.12 253.375 1454.55 253.844C1453.99 254.299 1453.31 254.527 1452.51 254.527C1451.72 254.527 1451.04 254.299 1450.48 253.844C1449.94 253.375 1449.66 252.62 1449.66 251.578Z" fill="black"/>
<path fill-rule="evenodd" clip-rule="evenodd" d="M1406.62 260.688C1388.13 260.688 1373.14 275.682 1373.14 294.178C1373.14 300.575 1374.93 306.554 1378.04 311.638L1371 328L1387.09 321.38C1392.58 325.337 1399.33 327.668 1406.62 327.668C1425.12 327.668 1440.11 312.674 1440.11 294.178C1440.11 275.682 1425.12 260.688 1406.62 260.688Z" fill="#F1EDE9"/>
<path d="M1420.4 295.578C1420.4 294.51 1420.13 293.762 1419.58 293.332C1419.02 292.889 1418.35 292.668 1417.55 292.668C1416.76 292.668 1416.08 292.889 1415.52 293.332C1414.95 293.762 1414.66 294.51 1414.66 295.578C1414.66 296.62 1414.95 297.375 1415.52 297.844C1416.08 298.299 1416.76 298.527 1417.55 298.527C1418.35 298.527 1419.02 298.299 1419.58 297.844C1420.13 297.375 1420.4 296.62 1420.4 295.578ZM1409.43 295.578C1409.43 294.51 1409.15 293.762 1408.61 293.332C1408.05 292.889 1407.37 292.668 1406.58 292.668C1405.78 292.668 1405.11 292.889 1404.55 293.332C1403.97 293.762 1403.69 294.51 1403.69 295.578C1403.69 296.62 1403.97 297.375 1404.55 297.844C1405.11 298.299 1405.78 298.527 1406.58 298.527C1407.37 298.527 1408.05 298.299 1408.61 297.844C1409.15 297.375 1409.43 296.62 1409.43 295.578ZM1398.45 295.578C1398.45 294.51 1398.18 293.762 1397.63 293.332C1397.07 292.889 1396.39 292.668 1395.6 292.668C1394.81 292.668 1394.13 292.889 1393.57 293.332C1393 293.762 1392.71 294.51 1392.71 295.578C1392.71 296.62 1393 297.375 1393.57 297.844C1394.13 298.299 1394.81 298.527 1395.6 298.527C1396.39 298.527 1397.07 298.299 1397.63 297.844C1398.18 297.375 1398.45 296.62 1398.45 295.578Z" fill="black"/>
<path d="M200.321 98H113C112.448 98 112 97.5523 112 97V75C112 74.4477 112.448 74 113 74H200.321C201.079 74 201.561 74.81 201.2 75.4763L195.758 85.5237C195.597 85.8208 195.597 86.1792 195.758 86.4763L201.2 96.5237C201.561 97.19 201.079 98 200.321 98Z" fill="#D0213B"/>
<path d="M129.16 81.0059V87.4727C129.16 88.1699 129.012 88.7943 128.716 89.3457C128.424 89.8971 127.982 90.3346 127.39 90.6582C126.797 90.9772 126.052 91.1367 125.154 91.1367C123.874 91.1367 122.898 90.8018 122.229 90.1318C121.563 89.4574 121.23 88.5618 121.23 87.4453V81.0059H122.871V87.3018C122.871 88.1357 123.067 88.751 123.459 89.1475C123.851 89.5439 124.437 89.7422 125.216 89.7422C125.754 89.7422 126.191 89.6488 126.528 89.4619C126.87 89.2705 127.121 88.9925 127.28 88.6279C127.444 88.2588 127.526 87.8145 127.526 87.2949V81.0059H129.16ZM136.686 83.2891C137.583 83.2891 138.303 83.6172 138.846 84.2734C139.393 84.9297 139.666 85.9049 139.666 87.1992C139.666 88.056 139.538 88.7783 139.283 89.3662C139.033 89.9495 138.679 90.3916 138.224 90.6924C137.772 90.9886 137.246 91.1367 136.645 91.1367C136.262 91.1367 135.929 91.0866 135.646 90.9863C135.364 90.8861 135.122 90.7562 134.922 90.5967C134.721 90.4326 134.553 90.2549 134.416 90.0635H134.32C134.343 90.2458 134.364 90.4486 134.382 90.6719C134.405 90.8906 134.416 91.0911 134.416 91.2734V94.3564H132.803V83.4326H134.115L134.341 84.4785H134.416C134.557 84.2643 134.728 84.0661 134.929 83.8838C135.134 83.7015 135.38 83.5579 135.667 83.4531C135.959 83.3438 136.298 83.2891 136.686 83.2891ZM136.255 84.6016C135.813 84.6016 135.457 84.6904 135.188 84.8682C134.924 85.0413 134.73 85.3034 134.607 85.6543C134.489 86.0052 134.425 86.445 134.416 86.9736V87.1992C134.416 87.7598 134.473 88.236 134.587 88.6279C134.705 89.0153 134.899 89.3115 135.168 89.5166C135.441 89.7171 135.811 89.8174 136.275 89.8174C136.667 89.8174 136.991 89.7103 137.246 89.4961C137.506 89.2819 137.7 88.9766 137.827 88.5801C137.955 88.1836 138.019 87.7165 138.019 87.1787C138.019 86.363 137.873 85.7295 137.581 85.2783C137.294 84.8271 136.852 84.6016 136.255 84.6016ZM145.318 91.1367C144.416 91.1367 143.691 90.8086 143.145 90.1523C142.602 89.4915 142.331 88.5186 142.331 87.2334C142.331 85.9346 142.607 84.9525 143.158 84.2871C143.714 83.6217 144.446 83.2891 145.353 83.2891C145.735 83.2891 146.07 83.3415 146.357 83.4463C146.645 83.5465 146.891 83.6833 147.096 83.8564C147.305 84.0296 147.483 84.2233 147.629 84.4375H147.704C147.681 84.2962 147.654 84.0934 147.622 83.8291C147.595 83.5602 147.581 83.3118 147.581 83.084V80.3633H149.194V91H147.937L147.649 89.9678H147.581C147.444 90.1865 147.271 90.3848 147.062 90.5625C146.856 90.7357 146.61 90.8747 146.323 90.9795C146.041 91.0843 145.706 91.1367 145.318 91.1367ZM145.77 89.8311C146.458 89.8311 146.943 89.6328 147.226 89.2363C147.508 88.8398 147.654 88.2451 147.663 87.4521V87.2402C147.663 86.3926 147.526 85.7432 147.253 85.292C146.979 84.8363 146.48 84.6084 145.756 84.6084C145.177 84.6084 144.735 84.8431 144.43 85.3125C144.129 85.7773 143.979 86.4268 143.979 87.2607C143.979 88.0947 144.129 88.7327 144.43 89.1748C144.735 89.6123 145.182 89.8311 145.77 89.8311ZM155.715 83.2891C156.672 83.2891 157.394 83.501 157.882 83.9248C158.374 84.3486 158.62 85.0094 158.62 85.9072V91H157.479L157.171 89.9268H157.116C156.902 90.2002 156.681 90.4258 156.453 90.6035C156.225 90.7812 155.961 90.9134 155.66 91C155.364 91.0911 155.002 91.1367 154.573 91.1367C154.122 91.1367 153.719 91.0547 153.363 90.8906C153.008 90.722 152.728 90.4668 152.522 90.125C152.317 89.7832 152.215 89.3503 152.215 88.8262C152.215 88.0469 152.504 87.4613 153.083 87.0693C153.666 86.6774 154.546 86.4609 155.722 86.4199L157.034 86.3721V85.9756C157.034 85.4515 156.911 85.0778 156.665 84.8545C156.424 84.6312 156.082 84.5195 155.64 84.5195C155.261 84.5195 154.895 84.5742 154.539 84.6836C154.184 84.793 153.837 84.9274 153.5 85.0869L152.98 83.9521C153.35 83.7562 153.769 83.5967 154.238 83.4736C154.712 83.3506 155.204 83.2891 155.715 83.2891ZM157.027 87.3838L156.05 87.418C155.248 87.4453 154.685 87.582 154.361 87.8281C154.038 88.0742 153.876 88.4115 153.876 88.8398C153.876 89.2135 153.988 89.487 154.211 89.6602C154.434 89.8288 154.728 89.9131 155.093 89.9131C155.649 89.9131 156.109 89.7559 156.474 89.4414C156.843 89.1224 157.027 88.6553 157.027 88.04V87.3838ZM164.936 89.8379C165.145 89.8379 165.353 89.8197 165.558 89.7832C165.763 89.7422 165.95 89.6943 166.118 89.6396V90.8564C165.94 90.9339 165.71 91 165.428 91.0547C165.145 91.1094 164.851 91.1367 164.546 91.1367C164.118 91.1367 163.732 91.0661 163.391 90.9248C163.049 90.779 162.778 90.5306 162.577 90.1797C162.377 89.8288 162.276 89.3434 162.276 88.7236V84.6562H161.244V83.9385L162.352 83.3711L162.878 81.751H163.89V83.4326H166.057V84.6562H163.89V88.7031C163.89 89.0859 163.985 89.3708 164.177 89.5576C164.368 89.7445 164.621 89.8379 164.936 89.8379ZM171.921 83.2891C172.595 83.2891 173.174 83.4281 173.657 83.7061C174.14 83.984 174.512 84.3783 174.771 84.8887C175.031 85.3991 175.161 86.0098 175.161 86.7207V87.582H170.109C170.128 88.3158 170.324 88.8809 170.697 89.2773C171.076 89.6738 171.604 89.8721 172.283 89.8721C172.766 89.8721 173.199 89.8265 173.582 89.7354C173.969 89.6396 174.368 89.5007 174.778 89.3184V90.624C174.4 90.8018 174.015 90.9316 173.623 91.0137C173.231 91.0957 172.762 91.1367 172.215 91.1367C171.472 91.1367 170.818 90.9932 170.253 90.7061C169.692 90.4144 169.253 89.9814 168.934 89.4072C168.619 88.833 168.462 88.1198 168.462 87.2676C168.462 86.4199 168.605 85.6999 168.893 85.1074C169.18 84.515 169.583 84.0638 170.103 83.7539C170.622 83.444 171.228 83.2891 171.921 83.2891ZM171.921 84.499C171.415 84.499 171.005 84.6631 170.69 84.9912C170.381 85.3193 170.198 85.8001 170.144 86.4336H173.589C173.584 86.0553 173.521 85.7204 173.397 85.4287C173.279 85.137 173.097 84.9092 172.851 84.7451C172.609 84.5811 172.299 84.499 171.921 84.499ZM183.309 88.8398C183.309 89.3366 183.188 89.7559 182.946 90.0977C182.705 90.4395 182.352 90.6992 181.887 90.877C181.426 91.0501 180.861 91.1367 180.191 91.1367C179.663 91.1367 179.207 91.098 178.824 91.0205C178.446 90.9476 178.088 90.8337 177.751 90.6787V89.291C178.111 89.4596 178.514 89.6055 178.961 89.7285C179.412 89.8516 179.838 89.9131 180.239 89.9131C180.768 89.9131 181.148 89.8311 181.381 89.667C181.613 89.4984 181.729 89.2751 181.729 88.9971C181.729 88.833 181.682 88.6872 181.586 88.5596C181.495 88.4274 181.322 88.293 181.066 88.1562C180.816 88.015 180.447 87.8464 179.959 87.6504C179.48 87.459 179.077 87.2676 178.749 87.0762C178.421 86.8848 178.173 86.6546 178.004 86.3857C177.835 86.1123 177.751 85.7637 177.751 85.3398C177.751 84.6699 178.015 84.1618 178.544 83.8154C179.077 83.4645 179.781 83.2891 180.656 83.2891C181.121 83.2891 181.559 83.3369 181.969 83.4326C182.383 83.5238 182.789 83.6582 183.186 83.8359L182.68 85.0459C182.338 84.8955 181.994 84.7725 181.647 84.6768C181.306 84.5765 180.957 84.5264 180.602 84.5264C180.187 84.5264 179.87 84.5902 179.651 84.7178C179.437 84.8454 179.33 85.0277 179.33 85.2646C179.33 85.4424 179.382 85.5928 179.487 85.7158C179.592 85.8389 179.772 85.9619 180.027 86.085C180.287 86.208 180.647 86.3607 181.107 86.543C181.559 86.7161 181.948 86.8984 182.276 87.0898C182.609 87.2767 182.864 87.5068 183.042 87.7803C183.22 88.0537 183.309 88.4069 183.309 88.8398Z" fill="#F7F7F7"/>
<path d="M319 222C366.094 220.286 428.507 203.629 443.211 179.632C446.266 174.647 449.724 149.226 426.921 149.226C411.14 149.226 395.946 172.494 403.505 199.071C411.063 225.648 484.461 227.516 513.462 205.053C581.677 152.217 549.608 100.267 656 61" stroke="#9B7D60" stroke-width="3" stroke-dasharray="8 8"/>
<path d="M676.055 39.9087L731.553 27.7138L669.577 60.1425L676.055 39.9087Z" fill="#CDBEAF"/>
<path d="M669.577 60.1424L682.722 47.3638L687.518 55.1386L669.577 60.1424Z" fill="#815C38"/>
<path d="M656 25.1479C680.336 26.0677 729.364 28.018 730.788 28.4612L676.428 40.2911L656 25.1479Z" fill="#9B7D60"/>
<path d="M697.636 75.0683L730.79 28.5217L682.722 47.3638L697.636 75.0683Z" fill="#9B7D60"/>
</g>
<defs>
<clipPath id="clip0_1731_1373">
<rect width="1500" height="350" fill="white"/>
</clipPath>
</defs>
</svg>
