<svg width="160" height="160" viewBox="0 0 160 160" fill="none" xmlns="http://www.w3.org/2000/svg">
<g clip-path="url(#clip0_1731_1013)">
<rect width="160" height="160" rx="8" fill="#E6DED7"/>
<g clip-path="url(#clip1_1731_1013)">
<rect width="160" height="164" rx="8" fill="#E6DED7"/>
<path fill-rule="evenodd" clip-rule="evenodd" d="M160 40.8702L66 60L74.5 46.5L0 57.1428V8C0 3.58172 3.58172 0 8 0H152C156.418 0 160 3.58172 160 8V40.8702Z" fill="#87C147"/>
<path d="M29.1719 24.5859H33.7031V30.5078C33.1042 30.7057 32.4818 30.8646 31.8359 30.9844C31.1901 31.099 30.4583 31.1562 29.6406 31.1562C28.5052 31.1562 27.5417 30.9323 26.75 30.4844C25.9583 30.0365 25.3568 29.375 24.9453 28.5C24.5339 27.625 24.3281 26.5495 24.3281 25.2734C24.3281 24.0755 24.5573 23.0391 25.0156 22.1641C25.4792 21.2891 26.1536 20.612 27.0391 20.1328C27.9297 19.6536 29.0156 19.4141 30.2969 19.4141C30.901 19.4141 31.4974 19.4792 32.0859 19.6094C32.6745 19.7396 33.2083 19.9089 33.6875 20.1172L32.8828 22.0547C32.5339 21.8776 32.1354 21.7292 31.6875 21.6094C31.2396 21.4896 30.7708 21.4297 30.2812 21.4297C29.5781 21.4297 28.9661 21.5911 28.4453 21.9141C27.9297 22.237 27.5286 22.6901 27.2422 23.2734C26.9609 23.8516 26.8203 24.5339 26.8203 25.3203C26.8203 26.0651 26.9219 26.7266 27.125 27.3047C27.3281 27.8776 27.6484 28.3281 28.0859 28.6562C28.5234 28.9792 29.0938 29.1406 29.7969 29.1406C30.1406 29.1406 30.4297 29.125 30.6641 29.0938C30.9036 29.0573 31.1276 29.0208 31.3359 28.9844V26.6016H29.1719V24.5859ZM44.1797 26.6172C44.1797 27.3464 44.0807 27.9922 43.8828 28.5547C43.6901 29.1172 43.4062 29.5938 43.0312 29.9844C42.6615 30.3698 42.2135 30.6615 41.6875 30.8594C41.1667 31.0573 40.5781 31.1562 39.9219 31.1562C39.3073 31.1562 38.7422 31.0573 38.2266 30.8594C37.7161 30.6615 37.2708 30.3698 36.8906 29.9844C36.5156 29.5938 36.224 29.1172 36.0156 28.5547C35.8125 27.9922 35.7109 27.3464 35.7109 26.6172C35.7109 25.6484 35.8828 24.8281 36.2266 24.1562C36.5703 23.4844 37.0599 22.974 37.6953 22.625C38.3307 22.276 39.0885 22.1016 39.9688 22.1016C40.7865 22.1016 41.5104 22.276 42.1406 22.625C42.776 22.974 43.2734 23.4844 43.6328 24.1562C43.9974 24.8281 44.1797 25.6484 44.1797 26.6172ZM38.1406 26.6172C38.1406 27.1901 38.2031 27.6719 38.3281 28.0625C38.4531 28.4531 38.6484 28.7474 38.9141 28.9453C39.1797 29.1432 39.526 29.2422 39.9531 29.2422C40.375 29.2422 40.7161 29.1432 40.9766 28.9453C41.2422 28.7474 41.4349 28.4531 41.5547 28.0625C41.6797 27.6719 41.7422 27.1901 41.7422 26.6172C41.7422 26.0391 41.6797 25.5599 41.5547 25.1797C41.4349 24.7943 41.2422 24.5052 40.9766 24.3125C40.7109 24.1198 40.3646 24.0234 39.9375 24.0234C39.3073 24.0234 38.849 24.2396 38.5625 24.6719C38.2812 25.1042 38.1406 25.7526 38.1406 26.6172ZM50.9766 24.0547H48.9141V31H46.5312V24.0547H45.2188V22.9062L46.5312 22.2656V21.625C46.5312 20.8802 46.6562 20.3021 46.9062 19.8906C47.1615 19.474 47.5182 19.1823 47.9766 19.0156C48.4401 18.8438 48.987 18.7578 49.6172 18.7578C50.0807 18.7578 50.5026 18.7969 50.8828 18.875C51.263 18.9479 51.5729 19.0312 51.8125 19.125L51.2031 20.875C51.0208 20.8177 50.8229 20.7656 50.6094 20.7188C50.3958 20.6719 50.151 20.6484 49.875 20.6484C49.5417 20.6484 49.2969 20.75 49.1406 20.9531C48.9896 21.151 48.9141 21.4062 48.9141 21.7188V22.2656H50.9766V24.0547ZM55.9531 22.1016C56.7604 22.1016 57.4557 22.2578 58.0391 22.5703C58.6224 22.8776 59.0729 23.3255 59.3906 23.9141C59.7083 24.5026 59.8672 25.2214 59.8672 26.0703V27.2266H54.2344C54.2604 27.8984 54.4609 28.4271 54.8359 28.8125C55.2161 29.1927 55.7422 29.3828 56.4141 29.3828C56.9714 29.3828 57.4818 29.3255 57.9453 29.2109C58.4089 29.0964 58.8854 28.9245 59.375 28.6953V30.5391C58.9427 30.7526 58.4896 30.9089 58.0156 31.0078C57.5469 31.1068 56.9766 31.1562 56.3047 31.1562C55.4297 31.1562 54.6536 30.9948 53.9766 30.6719C53.3047 30.349 52.776 29.8568 52.3906 29.1953C52.0104 28.5339 51.8203 27.7005 51.8203 26.6953C51.8203 25.6745 51.9922 24.8255 52.3359 24.1484C52.6849 23.4661 53.1693 22.9557 53.7891 22.6172C54.4089 22.2734 55.1302 22.1016 55.9531 22.1016ZM55.9688 23.7969C55.5052 23.7969 55.1198 23.9453 54.8125 24.2422C54.5104 24.5391 54.3359 25.0052 54.2891 25.6406H57.6328C57.6276 25.2865 57.5625 24.9714 57.4375 24.6953C57.3177 24.4193 57.1354 24.2005 56.8906 24.0391C56.651 23.8776 56.3438 23.7969 55.9688 23.7969ZM66.6797 22.1016C66.7995 22.1016 66.9375 22.1094 67.0938 22.125C67.2552 22.1354 67.3854 22.151 67.4844 22.1719L67.3047 24.4062C67.2266 24.3802 67.1146 24.362 66.9688 24.3516C66.8281 24.3359 66.7057 24.3281 66.6016 24.3281C66.2943 24.3281 65.9948 24.3672 65.7031 24.4453C65.4167 24.5234 65.1589 24.651 64.9297 24.8281C64.7005 25 64.5182 25.2292 64.3828 25.5156C64.2526 25.7969 64.1875 26.1432 64.1875 26.5547V31H61.8047V22.2656H63.6094L63.9609 23.7344H64.0781C64.25 23.4375 64.4635 23.1667 64.7188 22.9219C64.9792 22.6719 65.2734 22.474 65.6016 22.3281C65.9349 22.1771 66.2943 22.1016 66.6797 22.1016ZM80.4062 31L79.7344 27.9453C79.6979 27.763 79.638 27.4948 79.5547 27.1406C79.4714 26.7812 79.3802 26.3984 79.2812 25.9922C79.1875 25.5807 79.099 25.2005 79.0156 24.8516C78.9375 24.5026 78.8802 24.2474 78.8438 24.0859H78.7734C78.737 24.2474 78.6797 24.5026 78.6016 24.8516C78.5234 25.2005 78.4349 25.5807 78.3359 25.9922C78.2422 26.4036 78.1536 26.7917 78.0703 27.1562C77.987 27.5156 77.9245 27.7891 77.8828 27.9766L77.1797 31H74.6172L72.1328 22.2656H74.5078L75.5156 26.1328C75.5833 26.4036 75.6484 26.7266 75.7109 27.1016C75.7734 27.4714 75.8281 27.8307 75.875 28.1797C75.9271 28.5234 75.9661 28.7969 75.9922 29H76.0547C76.0651 28.849 76.0859 28.6484 76.1172 28.3984C76.1536 28.1484 76.1927 27.8906 76.2344 27.625C76.2812 27.3542 76.3229 27.112 76.3594 26.8984C76.401 26.6797 76.4323 26.5312 76.4531 26.4531L77.5312 22.2656H80.1562L81.1797 26.4531C81.2161 26.6042 81.263 26.8438 81.3203 27.1719C81.3828 27.5 81.4375 27.8385 81.4844 28.1875C81.5312 28.5312 81.5573 28.8021 81.5625 29H81.625C81.6458 28.8229 81.6823 28.5599 81.7344 28.2109C81.7865 27.862 81.8464 27.4974 81.9141 27.1172C81.987 26.7318 82.0599 26.4036 82.1328 26.1328L83.1797 22.2656H85.5156L83 31H80.4062ZM90.5312 22.1016C91.3385 22.1016 92.0339 22.2578 92.6172 22.5703C93.2005 22.8776 93.651 23.3255 93.9688 23.9141C94.2865 24.5026 94.4453 25.2214 94.4453 26.0703V27.2266H88.8125C88.8385 27.8984 89.0391 28.4271 89.4141 28.8125C89.7943 29.1927 90.3203 29.3828 90.9922 29.3828C91.5495 29.3828 92.0599 29.3255 92.5234 29.2109C92.987 29.0964 93.4635 28.9245 93.9531 28.6953V30.5391C93.5208 30.7526 93.0677 30.9089 92.5938 31.0078C92.125 31.1068 91.5547 31.1562 90.8828 31.1562C90.0078 31.1562 89.2318 30.9948 88.5547 30.6719C87.8828 30.349 87.3542 29.8568 86.9688 29.1953C86.5885 28.5339 86.3984 27.7005 86.3984 26.6953C86.3984 25.6745 86.5703 24.8255 86.9141 24.1484C87.263 23.4661 87.7474 22.9557 88.3672 22.6172C88.987 22.2734 89.7083 22.1016 90.5312 22.1016ZM90.5469 23.7969C90.0833 23.7969 89.6979 23.9453 89.3906 24.2422C89.0885 24.5391 88.9141 25.0052 88.8672 25.6406H92.2109C92.2057 25.2865 92.1406 24.9714 92.0156 24.6953C91.8958 24.4193 91.7135 24.2005 91.4688 24.0391C91.2292 23.8776 90.9219 23.7969 90.5469 23.7969ZM98.7656 18.8438V21.6719C98.7656 22 98.7552 22.3255 98.7344 22.6484C98.7188 22.9714 98.6979 23.2214 98.6719 23.3984H98.7656C98.9948 23.0391 99.3073 22.7344 99.7031 22.4844C100.099 22.2292 100.612 22.1016 101.242 22.1016C102.221 22.1016 103.016 22.4844 103.625 23.25C104.234 24.0156 104.539 25.138 104.539 26.6172C104.539 27.612 104.398 28.4479 104.117 29.125C103.836 29.7969 103.443 30.3047 102.938 30.6484C102.432 30.987 101.846 31.1562 101.18 31.1562C100.539 31.1562 100.034 31.0417 99.6641 30.8125C99.2943 30.5833 98.9948 30.3255 98.7656 30.0391H98.6016L98.2031 31H96.3828V18.8438H98.7656ZM100.477 24.0078C100.06 24.0078 99.7292 24.0938 99.4844 24.2656C99.2396 24.4375 99.0599 24.6953 98.9453 25.0391C98.8359 25.3828 98.776 25.8177 98.7656 26.3438V26.6016C98.7656 27.4505 98.8906 28.1016 99.1406 28.5547C99.3906 29.0026 99.8464 29.2266 100.508 29.2266C100.997 29.2266 101.385 29 101.672 28.5469C101.964 28.0938 102.109 27.4401 102.109 26.5859C102.109 25.7318 101.964 25.0885 101.672 24.6562C101.38 24.224 100.982 24.0078 100.477 24.0078ZM108.891 22.2656V31H106.508V22.2656H108.891ZM107.703 18.8438C108.057 18.8438 108.362 18.9271 108.617 19.0938C108.872 19.2552 109 19.5599 109 20.0078C109 20.4505 108.872 20.7578 108.617 20.9297C108.362 21.0964 108.057 21.1797 107.703 21.1797C107.344 21.1797 107.036 21.0964 106.781 20.9297C106.531 20.7578 106.406 20.4505 106.406 20.0078C106.406 19.5599 106.531 19.2552 106.781 19.0938C107.036 18.9271 107.344 18.8438 107.703 18.8438ZM116.359 22.1016C117.292 22.1016 118.042 22.3568 118.609 22.8672C119.177 23.3724 119.461 24.1849 119.461 25.3047V31H117.078V25.8984C117.078 25.2734 116.964 24.8021 116.734 24.4844C116.51 24.1667 116.156 24.0078 115.672 24.0078C114.943 24.0078 114.445 24.2552 114.18 24.75C113.914 25.2448 113.781 25.9583 113.781 26.8906V31H111.398V22.2656H113.219L113.539 23.3828H113.672C113.859 23.0807 114.091 22.8359 114.367 22.6484C114.648 22.4609 114.958 22.3229 115.297 22.2344C115.641 22.1458 115.995 22.1016 116.359 22.1016ZM125.492 22.0859C126.664 22.0859 127.562 22.3411 128.188 22.8516C128.812 23.362 129.125 24.138 129.125 25.1797V31H127.461L127 29.8125H126.938C126.688 30.125 126.432 30.3802 126.172 30.5781C125.911 30.776 125.612 30.9219 125.273 31.0156C124.935 31.1094 124.523 31.1562 124.039 31.1562C123.523 31.1562 123.06 31.0573 122.648 30.8594C122.242 30.6615 121.922 30.3594 121.688 29.9531C121.453 29.5417 121.336 29.0208 121.336 28.3906C121.336 27.4635 121.661 26.7812 122.312 26.3438C122.964 25.901 123.94 25.6562 125.242 25.6094L126.758 25.5625V25.1797C126.758 24.7214 126.638 24.3854 126.398 24.1719C126.159 23.9583 125.826 23.8516 125.398 23.8516C124.977 23.8516 124.562 23.9115 124.156 24.0312C123.75 24.151 123.344 24.3021 122.938 24.4844L122.148 22.875C122.612 22.6302 123.13 22.4375 123.703 22.2969C124.281 22.1562 124.878 22.0859 125.492 22.0859ZM126.758 26.9531L125.836 26.9844C125.065 27.0052 124.529 27.1432 124.227 27.3984C123.93 27.6536 123.781 27.9896 123.781 28.4062C123.781 28.7708 123.888 29.0312 124.102 29.1875C124.315 29.3385 124.594 29.4141 124.938 29.4141C125.448 29.4141 125.878 29.263 126.227 28.9609C126.581 28.6589 126.758 28.2292 126.758 27.6719V26.9531ZM136.461 22.1016C136.581 22.1016 136.719 22.1094 136.875 22.125C137.036 22.1354 137.167 22.151 137.266 22.1719L137.086 24.4062C137.008 24.3802 136.896 24.362 136.75 24.3516C136.609 24.3359 136.487 24.3281 136.383 24.3281C136.076 24.3281 135.776 24.3672 135.484 24.4453C135.198 24.5234 134.94 24.651 134.711 24.8281C134.482 25 134.299 25.2292 134.164 25.5156C134.034 25.7969 133.969 26.1432 133.969 26.5547V31H131.586V22.2656H133.391L133.742 23.7344H133.859C134.031 23.4375 134.245 23.1667 134.5 22.9219C134.76 22.6719 135.055 22.474 135.383 22.3281C135.716 22.1771 136.076 22.1016 136.461 22.1016Z" fill="white"/>
<path d="M123.377 177.718H32.338C29.5261 177.718 28.2593 174.197 30.4266 172.406L76.5117 134.311C77.6316 133.386 79.254 133.396 80.3625 134.335L125.317 172.429C127.448 174.235 126.171 177.718 123.377 177.718Z" fill="#8A630B"/>
<path d="M34.6572 109H125.606C128.478 109 129.708 105.353 127.423 103.613L81.1714 68.407C80.0832 67.5787 78.5725 67.5912 77.4981 68.4374L32.8009 103.643C30.5642 105.405 31.8099 109 34.6572 109Z" fill="#8A630B" stroke="#1F1F1F" stroke-width="2.5"/>
<rect x="41.75" y="75.25" width="74.5" height="60.5" fill="white" stroke="#1F1F1F" stroke-width="2.5"/>
<path d="M31.5 167.824V107.482C31.5 105.111 34.1203 103.677 36.1172 104.955L86.4023 137.137C88.311 138.359 88.2282 141.175 86.251 142.282L35.9658 170.442C33.9661 171.561 31.5 170.116 31.5 167.824Z" fill="#649D35" stroke="#1F1F1F" stroke-width="2.5"/>
<path d="M129.619 167.6V107.258C129.619 104.887 126.998 103.453 125.001 104.731L74.7163 136.913C72.8076 138.135 72.8904 140.95 74.8677 142.058L125.153 170.217C127.153 171.337 129.619 169.892 129.619 167.6Z" fill="#649D35" stroke="#1F1F1F" stroke-width="2.5"/>
<path d="M80.4039 127.495L80.2789 127.423L80.1539 127.495L69.5839 133.598L69.4589 133.67V133.814V146.019V146.164L69.5839 146.236L80.1539 152.338L80.2789 152.411L80.4039 152.338L90.9738 146.236L91.0988 146.164V146.019V133.814V133.67L90.9738 133.598L80.4039 127.495Z" fill="white" stroke="white" stroke-width="0.5"/>
<path d="M90.2088 144.609V145.537L87.7376 146.944L80.358 148.781V145.863L90.2088 144.609Z" fill="#C78A0C"/>
<path d="M90.2088 134.322V144.61L80.358 145.864V139.93L90.2088 134.322Z" fill="#649D35"/>
<path d="M90.2091 134.322L80.3582 139.93L70.5079 134.322L80.3582 128.714L90.2091 134.322Z" fill="#649D35"/>
<path d="M87.7372 146.943L80.3575 151.145V148.782L87.7372 146.943Z" fill="#754C24"/>
<path d="M80.358 148.782V151.144L70.5078 145.536V140.433L80.3444 148.785L80.358 148.782Z" fill="#754C24"/>
<path d="M80.358 145.864V148.782L80.3444 148.785L70.5078 140.433V137.125L80.3444 145.865L80.358 145.864Z" fill="#C78A0C"/>
<path d="M80.358 139.93V145.864L80.3444 145.866L70.5078 137.125V134.322L80.358 139.93Z" fill="#649D35"/>
<path d="M80.596 151.145H80.1196V140.066L70.3887 134.525L70.6269 134.119L80.5963 139.794L80.596 151.145Z" fill="black"/>
<path d="M90.0895 134.119L80.239 139.727L80.4771 140.134L90.3277 134.525L90.0895 134.119Z" fill="black"/>
<path d="M80.3579 151.416L70.2706 145.672V134.187L70.3897 134.119L80.359 128.444L90.4469 134.187V145.672L80.3579 151.416ZM70.7457 145.402L80.3579 150.874L89.9706 145.402V134.458L80.3579 128.987L70.7457 134.458V145.402Z" fill="black"/>
<path d="M80.2809 149.041L70.3522 140.611L70.6632 140.255L80.4063 148.528L87.6793 146.716L87.7949 147.172L80.3979 149.015L80.2809 149.041Z" fill="black"/>
<path d="M80.2647 146.111L80.185 146.04L70.3483 137.3L70.6662 136.951L80.4217 145.619L90.1772 144.377L90.2382 144.842L80.3702 146.099L80.2647 146.111Z" fill="black"/>
<rect x="52.5" y="91" width="55" height="4" rx="2" fill="#E5E5E5"/>
<rect x="52.5" y="104" width="55" height="4" rx="2" fill="#E5E5E5"/>
<rect x="113" y="94.2483" width="22.6832" height="22.6832" rx="11.3416" fill="#D0213B"/>
<path d="M119.572 109.763V108.571H120.765V104.398C120.765 103.573 121.013 102.84 121.51 102.199C122.007 101.558 122.653 101.139 123.447 100.94V100.523C123.447 100.274 123.534 100.063 123.708 99.8892C123.882 99.7154 124.093 99.6284 124.342 99.6284C124.59 99.6284 124.801 99.7154 124.975 99.8892C125.149 100.063 125.236 100.274 125.236 100.523V100.94C126.031 101.139 126.677 101.558 127.173 102.199C127.67 102.84 127.919 103.573 127.919 104.398V108.571H129.111V109.763H119.572ZM124.342 111.552C124.014 111.552 123.733 111.435 123.5 111.201C123.266 110.968 123.149 110.687 123.149 110.359H125.534C125.534 110.687 125.417 110.968 125.184 111.201C124.95 111.435 124.67 111.552 124.342 111.552Z" fill="#F7F7F7"/>
<path d="M142.559 95.1693C142.929 94.9462 143.024 94.4261 142.772 94.0077C142.519 93.5893 142.015 93.431 141.645 93.6542L138.817 95.3601C138.448 95.5833 138.352 96.1034 138.605 96.5218C138.857 96.9402 139.362 97.0985 139.732 96.8753L142.559 95.1693Z" fill="#D0213B"/>
<path d="M143.82 102.292C144.237 102.395 144.658 102.141 144.761 101.724C144.864 101.307 144.61 100.886 144.193 100.783L141.007 99.9945C140.59 99.8914 140.169 100.146 140.066 100.562C139.963 100.979 140.217 101.401 140.634 101.504L143.82 102.292Z" fill="#D0213B"/>
<path d="M135.143 92.4038C135.04 92.8205 135.294 93.242 135.711 93.3451C136.128 93.4482 136.549 93.1939 136.652 92.7771L137.44 89.5911C137.544 89.1743 137.289 88.7529 136.873 88.6498C136.456 88.5467 136.034 88.801 135.931 89.2177L135.143 92.4038Z" fill="#D0213B"/>
</g>
</g>
<defs>
<clipPath id="clip0_1731_1013">
<rect width="160" height="160" fill="white"/>
</clipPath>
<clipPath id="clip1_1731_1013">
<rect width="160" height="160" rx="8" fill="white"/>
</clipPath>
</defs>
</svg>
