<svg width="900" height="350" viewBox="0 0 900 350" fill="none" xmlns="http://www.w3.org/2000/svg">
<g clip-path="url(#clip0_1731_1517)">
<rect width="900" height="350" fill="#E6DED7"/>
<path fill-rule="evenodd" clip-rule="evenodd" d="M84.5996 -9C101.192 -9 114.642 4.45044 114.642 21.0424C114.642 26.7812 113.033 32.1442 110.241 36.7048L116.558 51.383L102.128 45.4441C97.1946 48.9939 91.1413 51.0848 84.5996 51.0848C68.0076 51.0848 54.5572 37.6344 54.5572 21.0424C54.5572 4.45044 68.0076 -9 84.5996 -9Z" fill="#CDBEAF"/>
<path d="M71.71 21.5781C71.71 20.5104 71.9834 19.7617 72.5303 19.332C73.0902 18.8893 73.7673 18.668 74.5615 18.668C75.3558 18.668 76.0329 18.8893 76.5928 19.332C77.1657 19.7617 77.4521 20.5104 77.4521 21.5781C77.4521 22.6198 77.1657 23.375 76.5928 23.8438C76.0329 24.2995 75.3558 24.5273 74.5615 24.5273C73.7673 24.5273 73.0902 24.2995 72.5303 23.8438C71.9834 23.375 71.71 22.6198 71.71 21.5781ZM82.6865 21.5781C82.6865 20.5104 82.96 19.7617 83.5068 19.332C84.0667 18.8893 84.7438 18.668 85.5381 18.668C86.3324 18.668 87.0094 18.8893 87.5693 19.332C88.1423 19.7617 88.4287 20.5104 88.4287 21.5781C88.4287 22.6198 88.1423 23.375 87.5693 23.8438C87.0094 24.2995 86.3324 24.5273 85.5381 24.5273C84.7438 24.5273 84.0667 24.2995 83.5068 23.8438C82.96 23.375 82.6865 22.6198 82.6865 21.5781ZM93.6631 21.5781C93.6631 20.5104 93.9365 19.7617 94.4834 19.332C95.0433 18.8893 95.7204 18.668 96.5146 18.668C97.3089 18.668 97.986 18.8893 98.5459 19.332C99.1188 19.7617 99.4053 20.5104 99.4053 21.5781C99.4053 22.6198 99.1188 23.375 98.5459 23.8438C97.986 24.2995 97.3089 24.5273 96.5146 24.5273C95.7204 24.5273 95.0433 24.2995 94.4834 23.8438C93.9365 23.375 93.6631 22.6198 93.6631 21.5781Z" fill="black"/>
<path fill-rule="evenodd" clip-rule="evenodd" d="M50.6249 30.6885C32.1292 30.6885 17.1354 45.6823 17.1354 64.178C17.1354 70.5754 18.9291 76.5537 22.0411 81.6376L15 98L31.0855 91.3797C36.5847 95.3368 43.3326 97.6676 50.6249 97.6676C69.1207 97.6676 84.1145 82.6738 84.1145 64.178C84.1145 45.6823 69.1207 30.6885 50.6249 30.6885Z" fill="#F1EDE9"/>
<path d="M64.4048 65.5781C64.4048 64.5104 64.1313 63.7617 63.5845 63.332C63.0246 62.8893 62.3475 62.668 61.5532 62.668C60.759 62.668 60.0819 62.8893 59.522 63.332C58.9491 63.7617 58.6626 64.5104 58.6626 65.5781C58.6626 66.6198 58.9491 67.375 59.522 67.8438C60.0819 68.2995 60.759 68.5273 61.5532 68.5273C62.3475 68.5273 63.0246 68.2995 63.5845 67.8438C64.1313 67.375 64.4048 66.6198 64.4048 65.5781ZM53.4282 65.5781C53.4282 64.5104 53.1548 63.7617 52.6079 63.332C52.048 62.8893 51.3709 62.668 50.5767 62.668C49.7824 62.668 49.1053 62.8893 48.5454 63.332C47.9725 63.7617 47.686 64.5104 47.686 65.5781C47.686 66.6198 47.9725 67.375 48.5454 67.8438C49.1053 68.2995 49.7824 68.5273 50.5767 68.5273C51.3709 68.5273 52.048 68.2995 52.6079 67.8438C53.1548 67.375 53.4282 66.6198 53.4282 65.5781ZM42.4517 65.5781C42.4517 64.5104 42.1782 63.7617 41.6313 63.332C41.0715 62.8893 40.3944 62.668 39.6001 62.668C38.8058 62.668 38.1287 62.8893 37.5688 63.332C36.9959 63.7617 36.7095 64.5104 36.7095 65.5781C36.7095 66.6198 36.9959 67.375 37.5688 67.8438C38.1287 68.2995 38.8058 68.5273 39.6001 68.5273C40.3944 68.5273 41.0715 68.2995 41.6313 67.8438C42.1782 67.375 42.4517 66.6198 42.4517 65.5781Z" fill="black"/>
<path fill-rule="evenodd" clip-rule="evenodd" d="M850.6 221C867.192 221 880.642 234.45 880.642 251.042C880.642 256.781 879.033 262.144 876.241 266.705L882.558 281.383L868.128 275.444C863.195 278.994 857.141 281.085 850.6 281.085C834.008 281.085 820.557 267.634 820.557 251.042C820.557 234.45 834.008 221 850.6 221Z" fill="#CDBEAF"/>
<path d="M837.71 251.578C837.71 250.51 837.983 249.762 838.53 249.332C839.09 248.889 839.767 248.668 840.562 248.668C841.356 248.668 842.033 248.889 842.593 249.332C843.166 249.762 843.452 250.51 843.452 251.578C843.452 252.62 843.166 253.375 842.593 253.844C842.033 254.299 841.356 254.527 840.562 254.527C839.767 254.527 839.09 254.299 838.53 253.844C837.983 253.375 837.71 252.62 837.71 251.578ZM848.687 251.578C848.687 250.51 848.96 249.762 849.507 249.332C850.067 248.889 850.744 248.668 851.538 248.668C852.332 248.668 853.009 248.889 853.569 249.332C854.142 249.762 854.429 250.51 854.429 251.578C854.429 252.62 854.142 253.375 853.569 253.844C853.009 254.299 852.332 254.527 851.538 254.527C850.744 254.527 850.067 254.299 849.507 253.844C848.96 253.375 848.687 252.62 848.687 251.578ZM859.663 251.578C859.663 250.51 859.937 249.762 860.483 249.332C861.043 248.889 861.72 248.668 862.515 248.668C863.309 248.668 863.986 248.889 864.546 249.332C865.119 249.762 865.405 250.51 865.405 251.578C865.405 252.62 865.119 253.375 864.546 253.844C863.986 254.299 863.309 254.527 862.515 254.527C861.72 254.527 861.043 254.299 860.483 253.844C859.937 253.375 859.663 252.62 859.663 251.578Z" fill="black"/>
<path fill-rule="evenodd" clip-rule="evenodd" d="M816.625 260.688C798.129 260.688 783.135 275.682 783.135 294.178C783.135 300.575 784.929 306.554 788.041 311.638L781 328L797.085 321.38C802.585 325.337 809.333 327.668 816.625 327.668C835.121 327.668 850.115 312.674 850.115 294.178C850.115 275.682 835.121 260.688 816.625 260.688Z" fill="#F1EDE9"/>
<path d="M830.405 295.578C830.405 294.51 830.131 293.762 829.584 293.332C829.025 292.889 828.347 292.668 827.553 292.668C826.759 292.668 826.082 292.889 825.522 293.332C824.949 293.762 824.663 294.51 824.663 295.578C824.663 296.62 824.949 297.375 825.522 297.844C826.082 298.299 826.759 298.527 827.553 298.527C828.347 298.527 829.025 298.299 829.584 297.844C830.131 297.375 830.405 296.62 830.405 295.578ZM819.428 295.578C819.428 294.51 819.155 293.762 818.608 293.332C818.048 292.889 817.371 292.668 816.577 292.668C815.782 292.668 815.105 292.889 814.545 293.332C813.972 293.762 813.686 294.51 813.686 295.578C813.686 296.62 813.972 297.375 814.545 297.844C815.105 298.299 815.782 298.527 816.577 298.527C817.371 298.527 818.048 298.299 818.608 297.844C819.155 297.375 819.428 296.62 819.428 295.578ZM808.452 295.578C808.452 294.51 808.178 293.762 807.631 293.332C807.071 292.889 806.394 292.668 805.6 292.668C804.806 292.668 804.129 292.889 803.569 293.332C802.996 293.762 802.709 294.51 802.709 295.578C802.709 296.62 802.996 297.375 803.569 297.844C804.129 298.299 804.806 298.527 805.6 298.527C806.394 298.527 807.071 298.299 807.631 297.844C808.178 297.375 808.452 296.62 808.452 295.578Z" fill="black"/>
</g>
<defs>
<clipPath id="clip0_1731_1517">
<rect width="900" height="350" fill="white"/>
</clipPath>
</defs>
</svg>
