<svg width="1500" height="330" viewBox="0 0 1500 330" fill="none" xmlns="http://www.w3.org/2000/svg">
<g clip-path="url(#clip0_17531_3408)">
<rect width="1500" height="330" fill="white"/>
<g clip-path="url(#clip1_17531_3408)">
<path d="M1500 0H0V350H1500V0Z" fill="#D1E3FA"/>
<path d="M1500 0H0V350H1500V0Z" fill="#D1E3FA"/>
<path d="M1500 286.2V350H0V272.9C51.4 262.4 266.2 221.3 326.7 254.1C395.6 291.4 503.6 304.8 527.6 292.8C551.6 280.8 696.3 276.8 723 282.2C749.7 287.5 824.9 298.7 850.2 297.1C875.5 295.5 1000.9 286.1 1026.2 291.5C1051.5 296.8 1107.7 311.5 1131.5 297.2C1146.1 288.4 1167.4 278.9 1196.3 278.9C1225.2 278.9 1267.6 261.9 1285.1 286.1C1302.7 310.3 1338.7 293.4 1361.6 280.7C1370.5 275.8 1417.8 268.4 1433.3 272.6C1442.8 275.1 1475.7 281.5 1500 286.2Z" fill="white"/>
<path d="M67.9002 34.7002H61.9002L64.6002 32.0002L63.3002 30.7002V28.8002L59.5002 28.7002L63.7002 24.5002L62.3002 23.1002L58.0002 27.4002V23.5002H56.0002L54.8002 22.2002L52.1002 24.8002V18.7002H50.1002V25.0002L47.3002 22.2002L46.0002 23.5002H44.2002L44.1002 27.3002L39.8002 23.0002L38.4002 24.4002L42.8002 28.8002H39.0002V30.6002L37.7002 31.9002L40.3002 34.6002H34.2002V36.6002H40.4002L37.6002 39.4002L38.9002 40.7002V42.5002L42.7002 42.6002L38.4002 46.9002L39.8002 48.3002L44.2002 43.9002V47.8002H46.0002L47.4002 49.2002L50.2002 46.5002V52.5002H52.2002V46.5002L54.9002 49.2002L56.2002 47.9002H58.1002L58.2002 44.1002L62.4002 48.3002L63.8002 46.9002L59.5002 42.6002H63.4002V40.7002L64.7002 39.4002L62.0002 36.6002H68.0002V34.7002H67.9002ZM63.1002 30.7002L59.1002 34.7002H53.5002L57.5002 30.7002H63.1002ZM56.1002 23.8002V29.3002L52.1002 33.3002V27.7002L56.1002 23.8002ZM46.2002 23.9002L50.1002 27.8002V33.3002L46.1002 29.3002L46.2002 23.9002ZM39.3002 30.8002H44.8002L48.7002 34.7002H43.0002L39.3002 30.8002ZM39.3002 40.5002L43.2002 36.6002H48.7002L44.7002 40.6002L39.3002 40.5002ZM46.2002 47.5002V41.9002L50.1002 38.0002V43.8002L46.2002 47.5002ZM56.1002 47.6002L52.1002 43.6002V38.0002L56.1002 42.0002V47.6002ZM63.1002 40.6002H57.5002L53.5002 36.6002H59.2002L63.1002 40.6002Z" fill="white"/>
<path d="M1434.6 59.8H1428.6L1431.3 57.1L1430 55.8V53.9L1426.2 53.8L1430.4 49.6L1429 48.2L1424.7 52.5V48.6H1422.7L1421.5 47.3L1418.8 49.9V44H1416.8V50.2L1414 47.4L1412.7 48.7H1410.9L1410.8 52.5L1406.5 48.2L1405.1 49.6L1409.5 54H1405.6V55.8L1404.3 57.1L1406.9 59.8H1400.8V61.8H1407L1404.2 64.6L1405.5 65.9V67.7L1409.3 67.8L1405 72.1L1406.4 73.5L1410.8 69.1V73H1412.5L1413.9 74.4L1416.7 71.7V77.7H1418.7V71.7L1421.4 74.4L1422.7 73.1H1424.6L1424.7 69.3L1428.9 73.5L1430.3 72.1L1426 67.8H1429.9V65.9L1431.2 64.6L1428.5 61.8H1434.5V59.8H1434.6ZM1429.8 55.9L1425.8 59.9H1420.2L1424.2 55.9H1429.8ZM1422.8 49V54.5L1418.8 58.5V52.9L1422.8 49ZM1412.9 49.1L1416.8 53V58.5L1412.8 54.5L1412.9 49.1ZM1406.1 55.9H1411.6L1415.5 59.8H1409.8L1406.1 55.9ZM1406.1 65.7L1410 61.8H1415.5L1411.5 65.8L1406.1 65.7ZM1412.9 72.7V67.1L1416.8 63.2V69L1412.9 72.7ZM1422.8 72.8L1418.8 68.8V63.2L1422.8 67.2V72.8ZM1429.8 65.8H1424.2L1420.2 61.8H1425.9L1429.8 65.8Z" fill="white"/>
<path opacity="0.11" d="M365.8 227.1L360.5 229.9L361.7 226.2L359.9 225.6L359 224L355.6 225.7L357.4 220L355.5 219.4L353.7 225.2L351.9 221.8L350.2 222.7L348.5 222.1L347.3 225.7L344.5 220.3L342.8 221.2L345.7 226.7L342 225.5L341.4 227.3L339.8 228.1L341.5 231.5L335.7 229.7L335.1 231.6L341 233.5L337.5 235.3L338.4 236.9L337.8 238.6L341.4 239.8L336 242.6L336.9 244.3L342.4 241.4L341.2 245.1L343 245.7L343.8 247.3L347.2 245.6L345.4 251.4L347.3 252L349.2 246.1L351 249.6L352.5 248.8L354.4 249.4L355.6 245.7L358.4 251L360.1 250.1L357.3 244.8L361 246L361.6 244.2L363.3 243.4L361.6 240L367.3 241.8L367.9 239.9L362.1 238.1L365.5 236.3L364.6 234.6L365.2 232.8L361.5 231.6L366.8 228.8L365.8 227.1ZM359.7 225.8L358 231.1L353 233.7L354.7 228.2L359.7 225.8ZM350.3 222.9L352.8 227.8L351.1 233.1L348.5 228.1L350.3 222.9ZM341.6 227.5L346.9 229.2L349.4 234.1L344 232.4L341.6 227.5ZM338.7 236.8L343.6 234.2L348.8 235.8L343.8 238.4L338.7 236.8ZM343.2 245.5L344.9 240.2L349.8 237.7L348.1 243.1L343.2 245.5ZM352.5 248.5L349.9 243.5L351.6 238.2L354.3 243.3L352.5 248.5ZM361.3 244L356 242.3L353.4 237.3L358.9 239L361.3 244ZM364.3 234.6L359.3 237.2L353.9 235.5L359 232.9L364.3 234.6Z" fill="white"/>
<path d="M236.051 26.5926L234.283 28.3604L236.051 30.1281L237.819 28.3604L236.051 26.5926Z" fill="white"/>
<path d="M236.028 24.3508L235.108 25.27L236.028 26.1892L236.947 25.27L236.028 24.3508Z" fill="white"/>
<path d="M236.018 45.2546L235.099 46.1738L236.018 47.0931L236.937 46.1738L236.018 45.2546Z" fill="white"/>
<path d="M236.021 41.305L234.253 43.0728L236.021 44.8405L237.788 43.0728L236.021 41.305Z" fill="white"/>
<path d="M228.661 33.9969L226.894 35.7646L228.661 37.5324L230.429 35.7646L228.661 33.9969Z" fill="white"/>
<path d="M225.572 34.8689L224.652 35.7881L225.572 36.7073L226.491 35.7881L225.572 34.8689Z" fill="white"/>
<path d="M246.545 34.8073L245.626 35.7266L246.545 36.6458L247.464 35.7266L246.545 34.8073Z" fill="white"/>
<path d="M243.374 34.0272L241.606 35.7949L243.374 37.5627L245.142 35.7949L243.374 34.0272Z" fill="white"/>
<path d="M241.6 40.3001H243.6V38.9001H240.2L239.4 38.1001C239.6 37.8001 239.7 37.5001 239.9 37.2001L241.3 35.8001L239.9 34.4001C239.8 34.1001 239.6 33.8001 239.4 33.5001L240.1 32.8001H243.5V31.4001H241.5L242.8 30.1001H246.2V28.7001H243.1V25.6001H241.7V29.2001L240.4 30.5001V28.3001H239V31.8001L238.4 32.4001C238.1 32.2001 237.7 32.0001 237.4 31.8001L236 30.4001L234.6 31.8001C234.2 31.9001 233.8 32.1001 233.5 32.4001L232.9 31.8001V28.4001H231.5V30.4001L230.2 29.1001V25.7001H228.8V28.8001H225.7V30.2001H229.3L230.6 31.5001H228.4V32.9001H231.9L232.4 33.4001C232.2 33.7001 232 34.1001 231.8 34.5001L230.5 35.8001L231.7 37.0001C231.9 37.5001 232.1 38.0001 232.5 38.5001L231.9 39.1001L228.4 39.0001V40.4001H230.6L229.3 41.7001L225.7 41.6001V43.0001H228.8V46.1001H230.2V42.7001L231.5 41.4001V43.4001H232.9V40.0001L233.6 39.3001C233.9 39.5001 234.2 39.6001 234.6 39.7001L235.9 41.0001L237.2 39.7001C237.6 39.5001 238 39.3001 238.4 39.0001L239.1 39.7001L239 43.2001H240.4V41.0001L241.7 42.3001L241.6 45.9001H243V42.8001H246.1V41.4001H242.7L241.6 40.3001ZM238.7 34.9001L237.8 35.8001L236.1 34.1001L237 33.2001C237.8 33.5001 238.4 34.2001 238.7 34.9001ZM234.3 35.9001L236 37.6001L235.1 38.5001C234.3 38.2001 233.7 37.6001 233.4 36.8001L234.3 35.9001ZM235.1 33.2001L236 34.1001L234.3 35.8001L233.3 34.8001C233.7 34.1001 234.3 33.5001 235.1 33.2001ZM237 38.5001L236.1 37.6001L237.8 35.9001L238.6 36.7001C238.4 37.6001 237.8 38.2001 237 38.5001Z" fill="white"/>
<path d="M531.893 44.8588L530.762 45.9902L531.893 47.1216L533.024 45.9902L531.893 44.8588Z" fill="white"/>
<path d="M531.934 43.366L531.298 44.0024L531.934 44.6388L532.571 44.0024L531.934 43.366Z" fill="white"/>
<path d="M531.971 56.7508L531.335 57.3872L531.971 58.0236L532.608 57.3872L531.971 56.7508Z" fill="white"/>
<path d="M531.887 54.2617L530.756 55.3931L531.887 56.5244L533.019 55.393L531.887 54.2617Z" fill="white"/>
<path d="M527.177 49.5518L526.046 50.6831L527.177 51.8145L528.309 50.6831L527.177 49.5518Z" fill="white"/>
<path d="M525.261 50.0784L524.625 50.7148L525.261 51.3512L525.898 50.7148L525.261 50.0784Z" fill="white"/>
<path d="M538.574 50.1107L537.938 50.7471L538.574 51.3835L539.21 50.7471L538.574 50.1107Z" fill="white"/>
<path d="M536.58 49.5586L535.448 50.6899L536.58 51.8213L537.711 50.6899L536.58 49.5586Z" fill="white"/>
<path d="M535.4 53.6002H536.7V52.7002H534.5L534 52.2002C534.1 52.0002 534.2 51.8002 534.3 51.6002L535.2 50.7002L534.3 49.8002C534.2 49.6002 534.1 49.4002 534 49.2002L534.4 48.8002H536.6V47.9002H535.3L536.1 47.1002H538.3V46.2002H536.3V44.2002H535.4V46.5002L534.6 47.3002V45.9002H533.7V48.2002L533.3 48.6002C533.1 48.5002 532.9 48.3002 532.6 48.2002L531.7 47.3002L530.8 48.2002C530.5 48.3002 530.3 48.4002 530.1 48.6002L529.7 48.2002V46.0002H528.8V47.3002L528 46.5002V44.3002H527.1V46.3002H525.1V47.2002H527.4L528.2 48.0002H526.8V48.9002H529.1L529.4 49.2002C529.3 49.4002 529.1 49.6002 529 49.9002L528.2 50.7002L529 51.5002C529.1 51.8002 529.3 52.2002 529.5 52.4002L529.1 52.8002H526.8V53.7002H528.2L527.4 54.5002H525.1V55.4002H527.1V57.4002H528V55.2002L528.8 54.4002V55.7002H529.7V53.5002L530.1 53.1002C530.3 53.2002 530.5 53.3002 530.7 53.4002L531.5 54.2002L532.3 53.4002C532.6 53.3002 532.8 53.2002 533.1 53.0002L533.5 53.4002V55.7002H534.4V54.3002L535.2 55.1002V57.4002H536.1V55.4002H538.1V54.5002H535.9L535.4 53.6002ZM533.5 50.2002L532.9 50.8002L531.8 49.7002L532.4 49.1002C533 49.3002 533.4 49.7002 533.5 50.2002ZM530.7 50.8002L531.8 51.9002L531.2 52.5002C530.7 52.3002 530.3 51.9002 530.1 51.4002L530.7 50.8002ZM531.3 49.1002L531.9 49.7002L530.8 50.8002L530.2 50.2002C530.4 49.7002 530.8 49.3002 531.3 49.1002ZM532.5 52.5002L531.9 51.9002L533 50.8002L533.5 51.3002C533.4 51.9002 533 52.3002 532.5 52.5002Z" fill="white"/>
<path d="M81.6174 118.828L79.8496 120.596L81.6174 122.364L83.3851 120.596L81.6174 118.828Z" fill="white"/>
<path d="M81.6653 116.657L80.7461 117.577L81.6653 118.496L82.5846 117.577L81.6653 116.657Z" fill="white"/>
<path d="M81.6556 137.561L80.7363 138.48L81.6556 139.4L82.5748 138.48L81.6556 137.561Z" fill="white"/>
<path d="M81.6574 133.612L79.8896 135.379L81.6574 137.147L83.4251 135.379L81.6574 133.612Z" fill="white"/>
<path d="M74.2287 126.233L72.4609 128L74.2287 129.768L75.9964 128L74.2287 126.233Z" fill="white"/>
<path d="M71.2083 127.034L70.2891 127.953L71.2083 128.872L72.1275 127.953L71.2083 127.034Z" fill="white"/>
<path d="M92.1126 127.043L91.1934 127.962L92.1126 128.882L93.0318 127.962L92.1126 127.043Z" fill="white"/>
<path d="M89.0109 126.192L87.2432 127.96L89.0109 129.728L90.7787 127.96L89.0109 126.192Z" fill="white"/>
<path d="M87.2994 132.6H89.2994V131.2H85.8994L85.0994 130.4C85.2994 130.1 85.3994 129.8 85.5994 129.5L86.9994 128.1L85.5994 126.7C85.4994 126.4 85.2994 126.1 85.0994 125.8L85.7994 125.1H89.1994V123.7H87.1994L88.4994 122.4H91.8994V121H88.7994V117.9H87.3994V121.5L86.0994 122.8V120.6H84.6994V124.1L84.0994 124.7C83.7994 124.5 83.3994 124.3 83.0994 124.1L81.6994 122.7L80.2994 124.1C79.8994 124.2 79.4994 124.4 79.1994 124.7L78.5994 124.1V120.7H77.1994V122.7L75.8994 121.4V118H74.4994V121.1H71.3994V122.5H74.9994L76.2994 123.8H74.0994V125.2H77.5994L78.0994 125.7C77.8994 126 77.6994 126.4 77.4994 126.8L76.1994 128.1L77.3994 129.3C77.5994 129.8 77.7994 130.3 78.1994 130.8L77.5994 131.4L74.0994 131.3V132.7H76.2994L74.9994 134L71.3994 133.9V135.3H74.4994V138.4H75.8994V135L77.1994 133.7V135.7H78.5994V132.3L79.2994 131.6C79.5994 131.8 79.8994 131.9 80.2994 132L81.5994 133.3L82.8994 132C83.2994 131.8 83.6994 131.6 84.0994 131.3L84.7994 132L84.6994 135.5H86.0994V133.3L87.3994 134.6L87.2994 138.2H88.6994V135.1H91.9994V133.7H88.5994L87.2994 132.6ZM84.2994 127.2L83.3994 128.1L81.6994 126.4L82.5994 125.5C83.3994 125.8 83.9994 126.4 84.2994 127.2ZM79.8994 128.2L81.5994 129.9L80.6994 130.8C79.8994 130.5 79.2994 129.9 78.9994 129.1L79.8994 128.2ZM80.7994 125.5L81.6994 126.4L79.9994 128.1L78.9994 127.1C79.2994 126.4 79.9994 125.7 80.7994 125.5ZM82.6994 130.8L81.7994 129.9L83.4994 128.2L84.2994 129C83.9994 129.8 83.3994 130.5 82.6994 130.8Z" fill="white"/>
<path d="M1131.26 153.283L1129.49 155.05L1131.26 156.818L1133.02 155.05L1131.26 153.283Z" fill="white"/>
<path d="M1131.23 151.041L1130.31 151.96L1131.23 152.879L1132.15 151.96L1131.23 151.041Z" fill="white"/>
<path d="M1131.22 171.945L1130.3 172.864L1131.22 173.783L1132.14 172.864L1131.22 171.945Z" fill="white"/>
<path d="M1131.23 167.995L1129.46 169.763L1131.23 171.53L1132.99 169.763L1131.23 167.995Z" fill="white"/>
<path d="M1123.8 160.615L1122.03 162.382L1123.8 164.15L1125.56 162.382L1123.8 160.615Z" fill="white"/>
<path d="M1120.78 161.561L1119.86 162.48L1120.78 163.4L1121.7 162.48L1120.78 161.561Z" fill="white"/>
<path d="M1141.68 161.568L1140.76 162.487L1141.68 163.407L1142.6 162.487L1141.68 161.568Z" fill="white"/>
<path d="M1138.51 160.646L1136.74 162.414L1138.51 164.182L1140.28 162.414L1138.51 160.646Z" fill="white"/>
<path d="M1136.8 167H1138.8V165.6H1135.4L1134.6 164.8C1134.8 164.5 1134.9 164.2 1135.1 163.9L1136.5 162.5L1135.1 161.1C1135 160.8 1134.8 160.5 1134.6 160.2L1135.3 159.5H1138.7V158.1H1136.7L1138 156.8H1141.4V155.4H1138.3V152.3H1136.9V155.9L1135.6 157.2V155H1134.2V158.5L1133.6 159.1C1133.3 158.9 1132.9 158.7 1132.6 158.5L1131.2 157.1L1129.8 158.5C1129.4 158.6 1129 158.8 1128.7 159.1L1128.1 158.5V155.1H1126.7V157.1L1125.4 155.8V152.4H1124V155.5H1120.9V156.9H1124.5L1125.8 158.2H1123.6V159.6H1127.1L1127.6 160.1C1127.4 160.4 1127.2 160.8 1127 161.2L1125.7 162.5L1126.9 163.7C1127.1 164.2 1127.3 164.7 1127.7 165.2L1127.1 165.8L1123.6 165.7V167.1H1125.8L1124.5 168.4L1120.9 168.3V169.7H1124V172.8H1125.4V169.4L1126.7 168.1V170.1H1128.1V166.7L1128.8 166C1129.1 166.2 1129.4 166.3 1129.8 166.4L1131.1 167.7L1132.4 166.4C1132.8 166.2 1133.2 166 1133.6 165.7L1134.3 166.4L1134.2 169.9H1135.6V167.7L1136.9 169L1136.8 172.6H1138.2V169.5H1141.3V168.1H1137.9L1136.8 167ZM1133.9 161.6L1133 162.5L1131.3 160.8L1132.2 159.9C1132.9 160.2 1133.6 160.8 1133.9 161.6ZM1129.5 162.6L1131.2 164.3L1130.3 165.2C1129.5 164.9 1128.9 164.3 1128.6 163.5L1129.5 162.6ZM1130.3 159.9L1131.2 160.8L1129.5 162.5L1128.5 161.5C1128.9 160.8 1129.5 160.2 1130.3 159.9ZM1132.2 165.2L1131.3 164.3L1133 162.6L1133.8 163.4C1133.6 164.2 1133 164.9 1132.2 165.2Z" fill="white"/>
<g opacity="0.6">
<path d="M131.359 36.3908L130.439 37.3101L131.359 38.2293L132.278 37.3101L131.359 36.3908Z" fill="white"/>
<path d="M131.312 35.2345L130.817 35.7295L131.312 36.2245L131.807 35.7295L131.312 35.2345Z" fill="white"/>
<path d="M131.34 45.7228L130.845 46.2178L131.34 46.7127L131.835 46.2178L131.34 45.7228Z" fill="white"/>
<path d="M131.376 43.7834L130.457 44.7026L131.376 45.6219L132.295 44.7026L131.376 43.7834Z" fill="white"/>
<path d="M127.662 40.0925L126.743 41.0117L127.662 41.9309L128.582 41.0117L127.662 40.0925Z" fill="white"/>
<path d="M126.082 40.5636L125.587 41.0586L126.082 41.5536L126.577 41.0586L126.082 40.5636Z" fill="white"/>
<path d="M136.57 40.5358L136.075 41.0308L136.57 41.5257L137.065 41.0308L136.57 40.5358Z" fill="white"/>
<path d="M135.055 40.0744L134.136 40.9937L135.055 41.9129L135.974 40.9936L135.055 40.0744Z" fill="white"/>
<path d="M134.1 43.3H135.1V42.6H133.4L133 42.2C133.1 42.1 133.2 41.9 133.2 41.7L133.9 41L133.2 40.3C133.1 40.1 133.1 40 133 39.9L133.3 39.6H135V38.9H134L134.6 38.3H136.3V37.6H134.8V36H134.1V37.8L133.4 38.4V37.3H132.7V39.1L132.4 39.4C132.2 39.3 132.1 39.2 131.9 39.1L131.2 38.4L130.5 39.1C130.3 39.2 130.1 39.3 129.9 39.4L129.6 39.1V37.4H128.9V38.4L128.3 37.8V36.1H127.6V37.6H126V38.3H127.8L128.4 39H127.3V39.7H129.1L129.4 40C129.3 40.2 129.2 40.3 129.1 40.5L128.5 41.1L129.1 41.7C129.2 42 129.3 42.2 129.5 42.4L129.2 42.7H127.4V43.4H128.5L127.9 44.1H126.1V44.8H127.7V46.3H128.4V44.6L129 44V45H129.7V43.3L130 43C130.2 43.1 130.3 43.2 130.5 43.2L131.1 43.8L131.8 43.1C132 43 132.2 42.9 132.4 42.8L132.7 43.1V44.9H133.4V43.8L134.1 44.4V46.2H134.8V44.6H136.3V43.9H134.6L134.1 43.3ZM132.6 40.6L132.2 41L131.4 40.2L131.9 39.7C132.2 39.9 132.5 40.2 132.6 40.6ZM130.4 41.1L131.2 41.9L130.8 42.3C130.4 42.2 130.1 41.8 129.9 41.5L130.4 41.1ZM130.8 39.8L131.3 40.3L130.5 41.1L130 40.6C130.1 40.2 130.4 39.9 130.8 39.8ZM131.8 42.4L131.4 42L132.2 41.2L132.6 41.6C132.5 41.9 132.2 42.2 131.8 42.4Z" fill="white"/>
</g>
<g opacity="0.6">
<path d="M544.878 162.38L543.181 164.077L544.878 165.774L546.575 164.077L544.878 162.38Z" fill="white"/>
<path d="M544.871 160.332L543.952 161.251L544.871 162.17L545.791 161.251L544.871 160.332Z" fill="white"/>
<path d="M544.866 180.033L543.947 180.953L544.866 181.872L545.786 180.953L544.866 180.033Z" fill="white"/>
<path d="M544.884 176.278L543.187 177.975L544.884 179.672L546.581 177.975L544.884 176.278Z" fill="white"/>
<path d="M537.915 169.395L536.218 171.092L537.915 172.789L539.612 171.092L537.915 169.395Z" fill="white"/>
<path d="M535.019 170.111L534.1 171.03L535.019 171.95L535.938 171.03L535.019 170.111Z" fill="white"/>
<path d="M554.72 170.114L553.801 171.033L554.72 171.952L555.639 171.033L554.72 170.114Z" fill="white"/>
<path d="M551.812 169.39L550.115 171.087L551.812 172.784L553.509 171.087L551.812 169.39Z" fill="white"/>
<path d="M550.1 175.4H552V174.1H548.8L548.1 173.4C548.3 173.1 548.4 172.8 548.5 172.5L549.8 171.2L548.4 169.8C548.3 169.5 548.1 169.2 548 169L548.6 168.4H551.8V167.1H549.9L551.1 165.9H554.3V164.6H551.4V161.7H550.1V165.1L548.9 166.3V164.2H547.6V167.5L547 168.1C546.7 167.9 546.4 167.7 546 167.6L544.7 166.3L543.4 167.6C543 167.7 542.6 167.9 542.3 168.2L541.8 167.7V164.5H540.5V166.4L539.3 165.2V162H538V164.9H535.1V166.2H538.5L539.7 167.4H537.6V168.7H540.9L541.4 169.2C541.2 169.5 541 169.9 540.9 170.2L539.7 171.4L540.9 172.6C541.1 173.1 541.3 173.6 541.6 174L541.1 174.6L537.8 174.5V175.8H539.9L538.7 177L535.3 176.9V178.2H538.2V181.1H539.5V177.9L540.7 176.7V178.6H542V175.4L542.7 174.7C543 174.9 543.3 175 543.6 175.1L544.8 176.3L546 175.1C546.4 175 546.8 174.7 547.1 174.5L547.8 175.1L547.7 178.4H549V176.3L550.2 177.5L550.1 180.9H551.4V178H554.3V176.7H551.1L550.1 175.4ZM547.3 170.3L546.5 171.1L544.9 169.5L545.8 168.6C546.5 169 547 169.6 547.3 170.3ZM543.2 171.3L544.8 172.9L544 173.7C543.3 173.4 542.7 172.8 542.4 172.1L543.2 171.3ZM544 168.7L544.9 169.6L543.3 171.2L542.4 170.3C542.6 169.5 543.2 168.9 544 168.7ZM545.8 173.7L545 172.9L546.6 171.3L547.4 172.1C547.1 172.8 546.5 173.4 545.8 173.7Z" fill="white"/>
</g>
<g opacity="0.6">
<path d="M791.682 234.695L789.985 236.392L791.682 238.089L793.379 236.392L791.682 234.695Z" fill="white"/>
<path d="M791.746 232.575L790.827 233.495L791.746 234.414L792.666 233.495L791.746 232.575Z" fill="white"/>
<path d="M791.742 252.277L790.822 253.196L791.741 254.116L792.661 253.196L791.742 252.277Z" fill="white"/>
<path d="M791.688 248.592L789.991 250.289L791.688 251.986L793.385 250.289L791.688 248.592Z" fill="white"/>
<path d="M784.719 241.709L783.021 243.406L784.719 245.103L786.416 243.406L784.719 241.709Z" fill="white"/>
<path d="M781.824 242.426L780.904 243.345L781.824 244.264L782.743 243.345L781.824 242.426Z" fill="white"/>
<path d="M801.524 242.428L800.604 243.348L801.524 244.267L802.443 243.348L801.524 242.428Z" fill="white"/>
<path d="M798.617 241.704L796.92 243.401L798.617 245.098L800.314 243.401L798.617 241.704Z" fill="white"/>
<path d="M796.9 247.7H798.8V246.4H795.6L794.9 245.7C795.1 245.4 795.2 245.1 795.3 244.8L796.6 243.5L795.2 242.1C795.1 241.8 794.9 241.5 794.8 241.3L795.4 240.7H798.6V239.4H796.7L797.9 238.2H801.1V236.9H798.2V234H796.9V237.4L795.7 238.6V236.5H794.4V239.8L793.8 240.4C793.5 240.2 793.2 240 792.8 239.9L791.5 238.6L790.2 239.9C789.8 240 789.4 240.2 789.1 240.5L788.6 240V236.8H787.3V238.7L786.1 237.5V234.3H784.8V237.2H781.9V238.5H785.3L786.5 239.7H784.4V241H787.7L788.2 241.5C788 241.8 787.8 242.2 787.7 242.5L786.5 243.7L787.7 244.9C787.9 245.4 788.1 245.9 788.4 246.3L787.9 246.9L784.6 246.8V248.1H786.7L785.5 249.3L782.1 249.2V250.5H785V253.4H786.3V250L787.5 248.8V250.7H788.8V247.5L789.5 246.8C789.8 247 790.1 247.1 790.4 247.2L791.6 248.4L792.8 247.2C793.2 247.1 793.6 246.8 793.9 246.6L794.6 247.2L794.5 250.5H795.8V248.4L797 249.6L796.9 253H798.2V250.1H801.1V248.8H797.9L796.9 247.7ZM794.1 242.6L793.3 243.4L791.7 241.8L792.6 240.9C793.3 241.3 793.9 241.9 794.1 242.6ZM790 243.6L791.6 245.2L790.8 246C790.1 245.7 789.5 245.1 789.2 244.4L790 243.6ZM790.8 241L791.7 241.9L790.1 243.5L789.2 242.6C789.4 241.8 790 241.2 790.8 241ZM792.6 246L791.8 245.2L793.4 243.6L794.2 244.4C793.9 245.1 793.3 245.7 792.6 246Z" fill="white"/>
</g>
<path d="M304.8 109.776L298.7 112.176L300.3 108.376L298.3 107.576L295.8 113.376L295.4 113.576C294.7 112.376 293.7 111.476 292.5 110.776L292.9 109.776L295.8 108.976L295.2 106.976L292.7 107.676L292 105.176L290 105.776L290.9 109.076L290.5 109.976C289.1 109.576 287.6 109.576 286.1 109.976L285.8 109.176L288.3 103.576L286.4 102.676L284.7 106.476L282.5 100.276L280.5 101.076L283 107.276L279.1 105.576L278.3 107.576L284.1 110.076L284.4 110.776C283.2 111.476 282.2 112.476 281.6 113.676L280.4 113.176L279.6 110.276L277.6 110.876L278.3 113.376L275.8 114.076L276.4 116.076L279.7 115.176L280.9 115.676C280.6 116.876 280.5 118.276 280.8 119.576L280 119.876L274.4 117.376L273.5 119.276L277.3 120.976L271.2 123.376L272 125.376L278.2 122.876L276.5 126.776L278.5 127.576L281 121.776L281.6 121.476C282.3 122.776 283.3 123.876 284.5 124.576L283.9 125.876L281 126.676L281.6 128.676L284.1 127.976L284.8 130.476L286.8 129.876L285.8 126.576L286.3 125.476C287.6 125.876 289 125.976 290.4 125.576L290.6 126.076L288.1 131.776L290 132.676L291.7 128.876L294.1 134.876L296.1 134.076L293.7 127.976L297.5 129.576L298.3 127.576L292.5 125.076L292.4 124.776C293.7 124.076 294.8 123.076 295.5 121.876L296.6 122.376L297.4 125.276L299.4 124.676L298.7 122.176L301.2 121.476L300.6 119.476L297.3 120.476L296.4 120.076C296.8 118.576 296.9 116.976 296.4 115.476L296.8 115.276L302.5 117.776L303.4 115.876L299.6 114.176L305.6 111.776L304.8 109.776ZM293.5 114.376L290.6 115.576L291.8 112.776C292.5 113.076 293.1 113.676 293.5 114.376ZM289.9 111.876L288.5 115.176L287.2 111.976C288.1 111.676 289 111.676 289.9 111.876ZM285.2 112.776L286.4 115.776L283.5 114.576C284 113.876 284.5 113.276 285.2 112.776ZM282.8 116.476L285.4 117.576L282.7 118.676C282.6 117.976 282.6 117.176 282.8 116.476ZM283.4 120.676L286.6 119.376L285.2 122.576C284.5 122.176 283.9 121.476 283.4 120.676ZM287.1 123.476L288.4 120.576L289.6 123.576C288.8 123.776 287.9 123.676 287.1 123.476ZM291.6 122.876L290.3 119.776L293.5 121.176C293 121.876 292.4 122.476 291.6 122.876ZM294.4 119.176L290.9 117.676L294.4 116.276C294.7 117.276 294.6 118.276 294.4 119.176Z" fill="white"/>
<path d="M959.165 72.2872L954.565 71.4872L957.065 69.7872L956.165 68.4872L952.465 71.0872L952.165 70.9872C952.165 69.9872 951.965 69.0872 951.465 68.1872L952.165 67.6872L954.265 68.2872L954.665 66.7872L952.865 66.2872L953.365 64.4872L951.865 64.0872L951.165 66.3872L950.565 66.7872C949.865 65.9872 948.965 65.3872 947.865 65.0872L947.965 64.4872L951.665 61.9872L950.865 60.6872L948.365 62.2872L949.165 57.6872L947.665 57.3872L946.865 62.4872L945.165 59.9872L943.865 60.8872L946.465 64.5872L946.365 65.0872C945.365 65.0872 944.365 65.2872 943.565 65.7872L943.065 64.9872L943.665 62.8872L942.165 62.4872L941.665 64.2872L939.865 63.7872L939.465 65.2872L941.765 65.9872L942.265 66.6872C941.565 67.2872 941.065 68.0872 940.765 68.9872L940.165 68.8872L937.665 65.1872L936.365 65.9872L937.965 68.4872L933.365 67.6872L933.065 69.1872L937.765 70.0872L935.265 71.7872L936.165 73.0872L939.865 70.4872L940.365 70.5872C940.265 71.6872 940.465 72.6872 940.965 73.5872L940.165 74.1872L938.065 73.5872L937.665 75.0872L939.465 75.5872L938.965 77.3872L940.465 77.7872L941.165 75.3872L941.865 74.8872C942.465 75.5872 943.365 76.1872 944.265 76.5872L944.165 76.9872L940.465 79.4872L941.265 80.7872L943.765 79.0872L942.965 83.6872L944.465 83.9872L945.265 79.3872L946.965 81.8872L948.265 80.9872L945.665 77.2872V76.9872C946.765 77.0872 947.765 76.8872 948.665 76.3872L949.165 77.0872L948.565 79.1872L950.065 79.5872L950.565 77.7872L952.365 78.2872L952.765 76.7872L950.365 76.0872L949.965 75.4872C950.765 74.7872 951.465 73.7872 951.765 72.6872L952.065 72.7872L954.565 76.4872L955.865 75.6872L954.165 73.1872L958.765 73.9872L959.165 72.2872ZM950.565 70.7872L948.365 70.3872L950.165 69.1872C950.465 69.5872 950.565 70.1872 950.565 70.7872ZM949.365 67.8872L947.265 69.2872L947.665 66.7872C948.265 67.0872 948.865 67.3872 949.365 67.8872ZM946.165 66.5872L945.765 68.8872L944.465 66.9872C944.965 66.7872 945.565 66.6872 946.165 66.5872ZM943.265 67.8872L944.465 69.5872L942.465 69.1872C942.565 68.7872 942.865 68.2872 943.265 67.8872ZM942.065 70.7872L944.465 71.1872L942.365 72.5872C942.065 71.9872 941.965 71.3872 942.065 70.7872ZM943.165 73.8872L945.065 72.5872L944.665 74.8872C944.065 74.6872 943.565 74.2872 943.165 73.8872ZM946.165 75.1872L946.565 72.7872L947.965 74.8872C947.365 75.0872 946.765 75.2872 946.165 75.1872ZM949.265 74.0872L947.665 71.7872L950.365 72.2872C950.165 72.9872 949.765 73.5872 949.265 74.0872Z" fill="white"/>
<path d="M1266.5 60.0001L1261.9 59.2001L1264.4 57.5001L1263.5 56.2001L1259.8 58.8001L1259.5 58.7001C1259.5 57.7001 1259.3 56.8001 1258.8 55.9001L1259.5 55.4001L1261.6 56.0001L1262 54.5001L1260.2 54.0001L1260.7 52.2001L1259.2 51.8001L1258.5 54.1001L1257.9 54.5001C1257.2 53.7001 1256.3 53.1001 1255.2 52.8001L1255.3 52.2001L1259 49.7001L1258.2 48.4001L1255.7 50.0001L1256.5 45.4001L1255 45.1001L1254.1 49.8001L1252.4 47.3001L1251.1 48.2001L1253.7 51.9001L1253.6 52.4001C1252.6 52.4001 1251.6 52.6001 1250.8 53.1001L1250.3 52.3001L1250.9 50.2001L1249.4 49.8001L1249 52.0001L1247.2 51.5001L1246.8 53.0001L1249.1 53.7001L1249.6 54.4001C1248.9 55.0001 1248.4 55.8001 1248.1 56.7001L1247.5 56.6001L1245 52.9001L1243.7 53.7001L1245.3 56.2001L1240.7 55.4001L1240.4 56.9001L1245.1 57.8001L1242.6 59.5001L1243.5 60.8001L1247.2 58.2001L1247.7 58.3001C1247.6 59.4001 1247.8 60.4001 1248.3 61.3001L1247.5 61.9001L1245.4 61.3001L1245 62.8001L1246.8 63.3001L1246.3 65.1001L1247.8 65.5001L1248.5 63.1001L1249.2 62.6001C1249.8 63.3001 1250.7 63.9001 1251.6 64.3001L1251.5 64.7001L1248 67.0001L1248.8 68.3001L1251.3 66.6001L1250.5 71.2001L1252 71.5001L1252.8 66.9001L1254.5 69.4001L1255.8 68.5001L1253.2 64.8001V64.5001C1254.3 64.6001 1255.3 64.4001 1256.2 63.9001L1256.7 64.6001L1256.1 66.7001L1257.6 67.1001L1258.1 65.3001L1259.9 65.8001L1260.3 64.3001L1257.9 63.6001L1257.5 63.0001C1258.3 62.3001 1259 61.3001 1259.3 60.2001L1259.6 60.3001L1262.1 64.0001L1263.4 63.2001L1261.7 60.7001L1266.3 61.5001L1266.5 60.0001ZM1258 58.5001L1255.8 58.1001L1257.6 56.9001C1257.8 57.3001 1257.9 57.9001 1258 58.5001ZM1256.7 55.6001L1254.6 57.0001L1255 54.5001C1255.7 54.8001 1256.2 55.1001 1256.7 55.6001ZM1253.5 54.3001L1253.1 56.6001L1251.8 54.7001C1252.3 54.5001 1252.9 54.4001 1253.5 54.3001ZM1250.6 55.6001L1251.8 57.3001L1249.8 56.9001C1249.9 56.5001 1250.2 56.0001 1250.6 55.6001ZM1249.4 58.4001L1251.8 58.8001L1249.7 60.2001C1249.5 59.7001 1249.3 59.1001 1249.4 58.4001ZM1250.6 61.6001L1252.5 60.3001L1252.1 62.6001C1251.5 62.4001 1251 62.0001 1250.6 61.6001ZM1253.5 62.9001L1253.9 60.5001L1255.3 62.6001C1254.8 62.8001 1254.1 63.0001 1253.5 62.9001ZM1256.6 61.8001L1255 59.5001L1257.7 60.0001C1257.5 60.7001 1257.1 61.3001 1256.6 61.8001Z" fill="white"/>
<path opacity="0.26" d="M418.6 44H413.5L415.8 41.7L414.6 40.5L411.1 44H410.8C410.6 42.9 410.2 41.9 409.5 41.1L410.1 40.5L412.4 40.8L412.6 39.1L410.6 38.9L410.8 36.9L409.1 36.7L408.8 39.4L408.2 40C407.3 39.3 406.2 38.9 405 38.7V38L408.5 34.6L407.3 33.4L405 35.7V30.5H403.3V35.8L401 33.5L399.8 34.7L403.3 38.2V38.8C402.2 39 401.2 39.4 400.4 40.1L399.7 39.4L400 37.1L398.3 36.9L398.1 38.9L396.1 38.7L395.9 40.4L398.6 40.7L399.3 41.4C398.7 42.2 398.3 43.2 398.1 44.2H397.4L394 40.7L392.8 41.9L395.1 44.2H390V45.9H395.3L393 48L394.2 49.2L397.7 45.7H398.2C398.3 46.9 398.8 47.9 399.4 48.8L398.6 49.6L396.3 49.3L396.1 51L398.1 51.2L397.9 53.2L399.6 53.4L399.9 50.7L400.6 50C401.4 50.7 402.5 51.1 403.6 51.3V51.7L400.1 55.1L401.3 56.3L403.7 54V59.1H405.4V54L407.7 56.3L408.9 55.1L405.4 51.6V51.3C406.6 51.2 407.6 50.8 408.5 50.1L409.2 50.8L408.9 53.1L410.6 53.3L410.8 51.3L412.8 51.5L413 49.8L410.3 49.5L409.7 48.9C410.5 48 411 46.8 411.1 45.6H411.5L414.9 49.1L416.1 47.9L413.8 45.5H418.9V44H418.6ZM409.1 44H406.6L408.3 42.3C408.7 42.8 409 43.4 409.1 44ZM407.2 41.1L405.2 43.1V40.4C405.9 40.4 406.6 40.7 407.2 41.1ZM403.5 40.4V42.9L401.8 41.1C402.3 40.8 402.9 40.5 403.5 40.4ZM400.6 42.4L402.2 44H399.9C400.1 43.4 400.3 42.9 400.6 42.4ZM399.9 45.6H402.6L400.6 47.6C400.2 47 400 46.4 399.9 45.6ZM401.8 48.8L403.6 47.1V49.6C402.9 49.5 402.3 49.2 401.8 48.8ZM405.2 49.7V47L407.1 48.9C406.5 49.3 405.9 49.6 405.2 49.7ZM408.3 47.8L406.2 45.6H409.2C409.1 46.4 408.8 47.2 408.3 47.8Z" fill="white"/>
<path d="M324.1 39.7C325.536 39.7 326.7 38.5359 326.7 37.1C326.7 35.6641 325.536 34.5 324.1 34.5C322.664 34.5 321.5 35.6641 321.5 37.1C321.5 38.5359 322.664 39.7 324.1 39.7Z" fill="white"/>
<path d="M395.8 104.7C396.684 104.7 397.4 103.984 397.4 103.1C397.4 102.216 396.684 101.5 395.8 101.5C394.917 101.5 394.2 102.216 394.2 103.1C394.2 103.984 394.917 104.7 395.8 104.7Z" fill="white"/>
<path d="M17.9 180.3C18.3971 180.3 18.8 179.897 18.8 179.4C18.8 178.903 18.3971 178.5 17.9 178.5C17.4029 178.5 17 178.903 17 179.4C17 179.897 17.4029 180.3 17.9 180.3Z" fill="white"/>
<path d="M20.3998 101.6C21.2835 101.6 21.9998 100.884 21.9998 99.9999C21.9998 99.1162 21.2835 98.3999 20.3998 98.3999C19.5161 98.3999 18.7998 99.1162 18.7998 99.9999C18.7998 100.884 19.5161 101.6 20.3998 101.6Z" fill="white"/>
<path d="M432 161.6C433.105 161.6 434 160.705 434 159.6C434 158.496 433.105 157.6 432 157.6C430.895 157.6 430 158.496 430 159.6C430 160.705 430.895 161.6 432 161.6Z" fill="white"/>
<path d="M688.7 54.9002C689.583 54.9002 690.3 54.1838 690.3 53.3002C690.3 52.4165 689.583 51.7002 688.7 51.7002C687.816 51.7002 687.1 52.4165 687.1 53.3002C687.1 54.1838 687.816 54.9002 688.7 54.9002Z" fill="white"/>
<path d="M557.9 13.7C558.783 13.7 559.5 12.9837 559.5 12.1C559.5 11.2163 558.783 10.5 557.9 10.5C557.016 10.5 556.3 11.2163 556.3 12.1C556.3 12.9837 557.016 13.7 557.9 13.7Z" fill="white"/>
<path d="M844.3 13.7C845.184 13.7 845.9 12.9837 845.9 12.1C845.9 11.2163 845.184 10.5 844.3 10.5C843.417 10.5 842.7 11.2163 842.7 12.1C842.7 12.9837 843.417 13.7 844.3 13.7Z" fill="white"/>
<path d="M1360 91.8001C1360.88 91.8001 1361.6 91.0838 1361.6 90.2001C1361.6 89.3164 1360.88 88.6001 1360 88.6001C1359.12 88.6001 1358.4 89.3164 1358.4 90.2001C1358.4 91.0838 1359.12 91.8001 1360 91.8001Z" fill="white"/>
<path d="M1078.7 87.7999C1079.36 87.7999 1079.9 87.2626 1079.9 86.5999C1079.9 85.9372 1079.36 85.3999 1078.7 85.3999C1078.04 85.3999 1077.5 85.9372 1077.5 86.5999C1077.5 87.2626 1078.04 87.7999 1078.7 87.7999Z" fill="white"/>
<path d="M1277.3 149.4C1278.63 149.4 1279.7 148.326 1279.7 147C1279.7 145.675 1278.63 144.6 1277.3 144.6C1275.97 144.6 1274.9 145.675 1274.9 147C1274.9 148.326 1275.97 149.4 1277.3 149.4Z" fill="white"/>
<path d="M806.6 67.7C807.484 67.7 808.2 66.9837 808.2 66.1C808.2 65.2163 807.484 64.5 806.6 64.5C805.716 64.5 805 65.2163 805 66.1C805 66.9837 805.716 67.7 806.6 67.7Z" fill="white"/>
<path d="M1206.7 112.1C1207.58 112.1 1208.3 111.384 1208.3 110.5C1208.3 109.616 1207.58 108.9 1206.7 108.9C1205.82 108.9 1205.1 109.616 1205.1 110.5C1205.1 111.384 1205.82 112.1 1206.7 112.1Z" fill="white"/>
<path d="M1343.3 35.4998C1344.18 35.4998 1344.9 34.7835 1344.9 33.8998C1344.9 33.0162 1344.18 32.2998 1343.3 32.2998C1342.42 32.2998 1341.7 33.0162 1341.7 33.8998C1341.7 34.7835 1342.42 35.4998 1343.3 35.4998Z" fill="white"/>
<path d="M1438.1 29.9998C1438.98 29.9998 1439.7 29.2835 1439.7 28.3998C1439.7 27.5161 1438.98 26.7998 1438.1 26.7998C1437.22 26.7998 1436.5 27.5161 1436.5 28.3998C1436.5 29.2835 1437.22 29.9998 1438.1 29.9998Z" fill="white"/>
<path d="M1247.5 15.3001C1248.38 15.3001 1249.1 14.5838 1249.1 13.7001C1249.1 12.8164 1248.38 12.1001 1247.5 12.1001C1246.62 12.1001 1245.9 12.8164 1245.9 13.7001C1245.9 14.5838 1246.62 15.3001 1247.5 15.3001Z" fill="white"/>
<path d="M599.6 101.6C600.484 101.6 601.2 100.884 601.2 99.9999C601.2 99.1162 600.484 98.3999 599.6 98.3999C598.716 98.3999 598 99.1162 598 99.9999C598 100.884 598.716 101.6 599.6 101.6Z" fill="white"/>
<path d="M649.7 156.2C650.473 156.2 651.1 155.573 651.1 154.8C651.1 154.027 650.473 153.4 649.7 153.4C648.927 153.4 648.3 154.027 648.3 154.8C648.3 155.573 648.927 156.2 649.7 156.2Z" fill="white"/>
<path d="M996.8 38.9001C997.574 38.9001 998.2 38.2733 998.2 37.5001C998.2 36.7269 997.574 36.1001 996.8 36.1001C996.027 36.1001 995.4 36.7269 995.4 37.5001C995.4 38.2733 996.027 38.9001 996.8 38.9001Z" fill="white"/>
<path d="M1144.9 32.7001C1146.17 32.7001 1147.2 31.6704 1147.2 30.4001C1147.2 29.1298 1146.17 28.1001 1144.9 28.1001C1143.63 28.1001 1142.6 29.1298 1142.6 30.4001C1142.6 31.6704 1143.63 32.7001 1144.9 32.7001Z" fill="white"/>
<path d="M979.5 217.3C980.163 217.3 980.7 216.763 980.7 216.1C980.7 215.437 980.163 214.9 979.5 214.9C978.837 214.9 978.3 215.437 978.3 216.1C978.3 216.763 978.837 217.3 979.5 217.3Z" fill="white"/>
<path d="M897.6 168.3C898.373 168.3 899 167.673 899 166.9C899 166.127 898.373 165.5 897.6 165.5C896.827 165.5 896.2 166.127 896.2 166.9C896.2 167.673 896.827 168.3 897.6 168.3Z" fill="white"/>
<path d="M1045.7 162.1C1046.97 162.1 1048 161.07 1048 159.8C1048 158.53 1046.97 157.5 1045.7 157.5C1044.43 157.5 1043.4 158.53 1043.4 159.8C1043.4 161.07 1044.43 162.1 1045.7 162.1Z" fill="white"/>
<path d="M1189.6 273.5C1190.26 273.5 1190.8 272.963 1190.8 272.3C1190.8 271.637 1190.26 271.1 1189.6 271.1C1188.94 271.1 1188.4 271.637 1188.4 272.3C1188.4 272.963 1188.94 273.5 1189.6 273.5Z" fill="white"/>
<path d="M1107.7 224.5C1108.47 224.5 1109.1 223.873 1109.1 223.1C1109.1 222.327 1108.47 221.7 1107.7 221.7C1106.93 221.7 1106.3 222.327 1106.3 223.1C1106.3 223.873 1106.93 224.5 1107.7 224.5Z" fill="white"/>
<path d="M1255.8 218.3C1257.07 218.3 1258.1 217.27 1258.1 216C1258.1 214.73 1257.07 213.7 1255.8 213.7C1254.53 213.7 1253.5 214.73 1253.5 216C1253.5 217.27 1254.53 218.3 1255.8 218.3Z" fill="white"/>
<path d="M1442 208.8C1443.27 208.8 1444.3 207.77 1444.3 206.5C1444.3 205.23 1443.27 204.2 1442 204.2C1440.73 204.2 1439.7 205.23 1439.7 206.5C1439.7 207.77 1440.73 208.8 1442 208.8Z" fill="white"/>
<path fill-rule="evenodd" clip-rule="evenodd" d="M38.2002 210.1H54.2002C55.3002 210.1 56.2002 211 56.2002 212.1V223.1C56.2002 221.193 55.4374 219.464 54.2002 218.201V218.1H54.0992C52.8366 216.863 51.1075 216.1 49.2002 216.1C47.2929 216.1 45.5637 216.863 44.3012 218.1H44.2002V218.201C42.963 219.464 42.2002 221.193 42.2002 223.1C42.2002 225.007 42.963 226.737 44.2002 227.999V228.1H44.3012C45.5637 229.337 47.2929 230.1 49.2002 230.1H38.2002C37.1002 230.1 36.2002 229.2 36.2002 228.1V212.1C36.2002 211 37.1002 210.1 38.2002 210.1ZM38.2002 228.1H42.2002V224.1H38.2002V228.1ZM38.2002 222.1H42.2002V218.1H38.2002V222.1ZM38.2002 216.1H42.2002V212.1H38.2002V216.1ZM44.2002 216.1H48.2002V212.1H44.2002V216.1ZM50.2002 216.1H54.2002V212.1H50.2002V216.1Z" fill="white"/>
<rect x="45.0518" y="224.4" width="2.15921" height="2.15921" transform="rotate(-45 45.0518 224.4)" fill="white"/>
<rect x="48.8691" y="220.583" width="2.15921" height="2.15921" transform="rotate(-45 48.8691 220.583)" fill="white"/>
<path fill-rule="evenodd" clip-rule="evenodd" d="M45.0518 224.4L46.5786 222.873L48.1002 224.395L46.5734 225.922L45.0518 224.4ZM47.2805 226.629L48.487 227.835C49.9627 229.311 52.3552 229.311 53.8308 227.835C55.3065 226.36 55.3065 223.967 53.8308 222.491L52.6243 221.285L51.0975 222.812L52.3041 224.018C52.9365 224.651 52.9365 225.676 52.3041 226.308C51.6716 226.941 50.6463 226.941 50.0139 226.308L48.8073 225.102L47.2805 226.629ZM50.3904 222.105L51.9172 220.578L50.3955 219.056L48.8688 220.583L50.3904 222.105Z" fill="white"/>
<path d="M46.2002 222.1V221.807C46.2002 221.354 46.3801 220.92 46.7002 220.6V220.6C47.0203 220.28 47.4545 220.1 47.9073 220.1H48.2002" stroke="white"/>
<path d="M44.2002 222.1V221.514C44.2002 220.609 44.5599 219.74 45.2002 219.1V219.1C45.8405 218.46 46.7089 218.1 47.6144 218.1H48.2002" stroke="white"/>
<path d="M62.9001 235.905L134.945 194.309L206.99 235.905V319.095L134.945 360.691L62.9001 319.095V235.905Z" fill="#598F22" stroke="#333333" stroke-width="4"/>
<path d="M107.445 260.5L176.445 219L160.945 210L89.9453 252V334L107.445 344V260.5Z" fill="#D0213B"/>
<path d="M136.656 358.921H133.233V278.173L63.3008 237.796L65.0118 234.832L136.656 276.197V358.921Z" fill="#333333"/>
<path d="M162.945 260.5L93.9453 219L109.445 210L180.445 252V334L162.945 344V260.5Z" fill="#D0213B"/>
<path d="M164.8 341.089H161.377V260.341L91.4453 219.964L93.1563 217L164.8 258.365V341.089Z" fill="#333333"/>
<path d="M181.8 333.089H178.377V252.341L108.445 211.964L110.156 209L181.8 250.365V333.089Z" fill="#333333"/>
<path d="M104.446 342.089H107.869V261.341L177.801 220.964L176.09 218L104.446 259.365V342.089Z" fill="#333333"/>
<path d="M87.4453 334.089H90.8683V253.341L162.445 211.5L159.089 210L87.4453 251.365V334.089Z" fill="#333333"/>
<rect x="126.445" y="237" width="19" height="15" fill="#598F22"/>
<path d="M204.882 234.829L134.092 275.706L135.804 278.67L206.594 237.793L204.882 234.829Z" fill="#333333"/>
<path d="M151.785 219.497H119.947V245.461H151.785V219.497Z" fill="white"/>
<path d="M123.975 223.366L119.422 232.399L125.252 239.358V251.538H115.628L104.402 237.322L115.628 210.667C115.066 192.967 116.003 177.55 116.003 177.55C116.003 177.55 127.374 170.559 131.688 169.91C136.631 169.168 151.442 172.989 151.442 172.989L169.026 187.795L169.163 187.913C169.249 188.533 169.292 189.159 169.292 189.785C169.242 192.424 168.584 195.015 167.369 197.358C163.856 204.513 156.646 209.851 155.626 210.582C155.548 210.64 155.505 210.668 155.505 210.668L166.732 237.323L155.504 251.539H145.875V239.359L151.705 232.4L147.153 223.367" fill="white"/>
<path d="M156.334 253.251H144.165V238.737L149.671 232.165L145.626 224.137L148.682 222.597L153.741 232.636L147.588 239.982V249.828H154.676L164.759 237.056L153.359 210.002L154.579 209.226C155.415 208.626 162.465 203.449 165.825 196.606C166.924 194.498 167.521 192.165 167.572 189.788C167.572 189.456 167.558 189.12 167.529 188.783L150.629 174.554C146.318 173.462 135.592 171.054 131.929 171.606C128.914 172.059 121.214 176.406 117.649 178.547C117.465 182.075 116.849 195.597 117.325 210.615L117.337 210.989L106.358 237.056L116.459 249.828H123.544V239.982L117.39 232.636L122.449 222.597L125.505 224.137L121.459 232.165L126.966 238.737V253.251H114.799L102.432 237.591L113.905 210.35C113.371 192.93 114.285 177.603 114.295 177.45L114.349 176.562L115.107 176.096C116.301 175.362 126.907 168.903 131.434 168.222C136.572 167.45 150.318 170.935 151.869 171.337L152.246 171.437L170.77 187.046L170.858 187.687C170.953 188.383 171.002 189.085 171.003 189.787C170.954 192.688 170.235 195.539 168.903 198.117C165.794 204.447 160.096 209.317 157.603 211.243L168.703 237.591L156.334 253.251Z" fill="#333333"/>
<path d="M145.878 243.749H125.253V247.172H145.878V243.749Z" fill="#333333"/>
<path d="M169.291 189.787C169.241 192.426 168.582 195.017 167.368 197.36L161.139 189.967L169.161 187.916C169.246 188.536 169.29 189.161 169.291 189.787Z" fill="#333333"/>
<path d="M149.017 186.048C149.017 186.048 146.763 179.787 143.217 180.906C139.671 182.025 138.383 183.806 138.383 183.806C138.383 183.806 141.329 187.688 143.753 187.874C146.177 188.06 149.017 186.048 149.017 186.048Z" fill="#333333"/>
<path d="M127.666 188.246H121.231C120.992 188.245 120.756 188.195 120.538 188.098C120.32 188.001 120.124 187.859 119.964 187.682C119.804 187.505 119.683 187.296 119.608 187.069C119.534 186.842 119.507 186.602 119.531 186.365L120.067 181.002C120.1 180.673 120.227 180.36 120.434 180.102L122.578 177.42C122.738 177.219 122.942 177.058 123.173 176.947C123.405 176.835 123.658 176.778 123.915 176.778H129.278V180.201H124.738L123.422 181.845L123.122 184.823H127.666V188.246Z" fill="#333333"/>
<path d="M167.611 198.339V205.339C167.611 205.432 167.584 205.523 167.532 205.601C167.481 205.678 167.408 205.738 167.322 205.774C167.236 205.809 167.141 205.818 167.05 205.799C166.959 205.781 166.876 205.736 166.811 205.669L164.266 203.124L167.611 198.339Z" fill="white"/>
<path d="M167.141 207.232C166.893 207.232 166.647 207.183 166.417 207.087C166.188 206.992 165.979 206.852 165.804 206.676L162.414 203.285L169.037 193.807V205.337C169.036 205.84 168.835 206.322 168.479 206.677C168.123 207.033 167.64 207.232 167.137 207.232H167.141ZM166.122 202.959L166.185 203.022V202.87L166.122 202.959Z" fill="#333333"/>
<path d="M167.831 200.572L165.338 197.605L165.838 196.605C166.936 194.497 167.534 192.165 167.584 189.789C167.583 189.241 167.546 188.693 167.471 188.15L170.804 187.419C172.304 192.339 169.172 198.136 169.038 198.381L167.831 200.572Z" fill="#333333"/>
<path d="M155.153 213.027L154.182 211.504C152.592 208.999 151.703 206.113 151.61 203.147C151.516 200.182 152.221 197.245 153.65 194.645C155.08 192.045 157.181 189.876 159.735 188.366C162.289 186.855 165.202 186.059 168.169 186.059C168.486 186.059 168.802 186.068 169.118 186.085L169.7 186.116L170.769 187.037L170.857 187.678C170.953 188.374 171.002 189.076 171.003 189.778C170.954 192.679 170.235 195.53 168.903 198.108C165.253 205.542 158.032 210.956 156.621 211.966L155.153 213.027ZM167.575 189.499C165.436 189.598 163.353 190.218 161.507 191.305C159.662 192.392 158.11 193.914 156.987 195.737C155.863 197.56 155.202 199.63 155.06 201.767C154.919 203.904 155.302 206.044 156.175 207.999C158.633 206.005 163.291 201.78 165.834 196.599C166.933 194.491 167.531 192.158 167.581 189.781C167.579 189.691 167.578 189.596 167.575 189.499Z" fill="#333333"/>
<path d="M156.675 177.008C151.723 174.518 145.672 178.115 132.469 177.008C119.265 175.901 115.69 181.71 115.415 190.562C115.139 199.414 112.388 213.244 100.838 220.436C89.2881 227.628 104.984 209.019 97.9733 185.097C90.9623 161.174 143.715 148.601 154.439 158.279C165.164 167.957 161.626 179.498 156.675 177.008Z" fill="#D0213B" stroke="#333333" stroke-width="3"/>
<path d="M113.26 178.253C114.321 172.735 116.86 170.675 121.955 168.979C125.983 167.636 125.696 168.21 131.567 166.612C139.073 164.606 139.924 165.312 147.313 165.598C154.813 165.933 159.513 168.556 161.04 170.215C162.053 175.547 159.554 179.286 156.524 177.771C153.746 176.381 150.619 176.908 146.064 177.434C141.549 178.022 136.984 178.135 132.445 177.771C125.425 177.186 121.145 178.555 118.632 181.293H118.532C117.635 181.627 116.689 181.814 115.732 181.847C114.197 181.85 112.701 181.162 113.26 178.253Z" fill="white" stroke="#333333" stroke-width="3"/>
<path d="M91.5171 218.577L97.4453 215.155L103.374 218.577V225.423L97.4453 228.845L91.5171 225.423V218.577Z" fill="white" stroke="#333333" stroke-width="2"/>
</g>
<path fill-rule="evenodd" clip-rule="evenodd" d="M1339 209.573L1339 194.573L1341 194.573L1341 209.573L1339 209.573Z" fill="white"/>
<path d="M1330.69 190.337C1329.89 190.337 1329.27 190.638 1328.84 191.239C1328.4 191.836 1328.18 192.67 1328.18 193.741C1328.18 195.97 1329.02 197.084 1330.69 197.084C1331.39 197.084 1332.24 196.909 1333.24 196.558V198.335C1332.42 198.677 1331.5 198.848 1330.49 198.848C1329.04 198.848 1327.93 198.408 1327.16 197.528C1326.39 196.644 1326 195.377 1326 193.728C1326 192.688 1326.19 191.779 1326.57 191C1326.95 190.216 1327.49 189.617 1328.19 189.202C1328.91 188.783 1329.74 188.573 1330.69 188.573C1331.66 188.573 1332.64 188.808 1333.62 189.277L1332.93 191C1332.56 190.822 1332.18 190.667 1331.8 190.535C1331.43 190.403 1331.05 190.337 1330.69 190.337Z" fill="white"/>
<path fill-rule="evenodd" clip-rule="evenodd" d="M1340 198.573C1337.69 198.573 1336 200.237 1336 202.073C1336 203.91 1337.69 205.573 1340 205.573C1342.31 205.573 1344 203.91 1344 202.073C1344 200.237 1342.31 198.573 1340 198.573ZM1334 202.073C1334 198.939 1336.79 196.573 1340 196.573C1343.21 196.573 1346 198.939 1346 202.073C1346 205.207 1343.21 207.573 1340 207.573C1336.79 207.573 1334 205.207 1334 202.073Z" fill="white"/>
<path d="M474.942 19.9941L479.649 20.0001L479.655 24.7071L477.888 22.9401L470.812 30.0151L469.634 28.8371L476.709 21.7611L474.942 19.9941Z" fill="white"/>
<path d="M474.942 11.9941L479.649 12.0001L479.655 16.7071L477.888 14.9401L463.812 29.0151L462.634 27.8371L476.709 13.7611L474.942 11.9941Z" fill="white"/>
<path d="M466.942 10.9941L471.649 11.0001L471.655 15.7071L469.888 13.9401L462.812 21.0151L461.634 19.8371L468.709 12.7611L466.942 10.9941Z" fill="white"/>
<path d="M678.364 241.567H681.364L682.864 237.6L685.364 244.967L686.364 238.733L687.364 232.5L689.864 248.5L692.864 236L695.364 241H698.364" stroke="white" stroke-width="2" stroke-linejoin="round"/>
<rect width="2" height="4" transform="matrix(-1 0 0 1 698.364 229.5)" fill="white"/>
<rect width="2" height="2" transform="matrix(-1 0 0 1 695.364 231.5)" fill="white"/>
<rect width="2" height="1" transform="matrix(-1 0 0 1 692.364 232.5)" fill="white"/>
<g clip-path="url(#clip2_17531_3408)">
<path d="M754.364 24.0001V24.8901L756.364 26.8901V24.0001H760.364V28.0001H757.474L759.474 30.0001H760.364V30.8901L762.364 32.8901V30.0001H766.364V34.0001H763.474L765.474 36.0001H766.364V36.8901L768.364 38.8901V24.0001C768.364 22.9001 767.464 22.0001 766.364 22.0001H751.474L753.474 24.0001H754.364ZM762.364 24.0001H766.364V28.0001H762.364V24.0001ZM747.774 21.1401L746.364 22.5501L748.364 24.5501V40.0001C748.364 41.1001 749.264 42.0001 750.364 42.0001H765.814L767.824 44.0101L769.234 42.6001L747.774 21.1401ZM756.364 32.5501L757.814 34.0001H756.364V32.5501ZM750.364 26.5501L751.814 28.0001H750.364V26.5501ZM754.364 40.0001H750.364V36.0001H754.364V40.0001ZM754.364 34.0001H750.364V30.0001H753.814L754.364 30.5501V34.0001ZM760.364 40.0001H756.364V36.0001H759.814L760.364 36.5501V40.0001ZM762.364 40.0001V38.5501L763.814 40.0001H762.364Z" fill="white"/>
</g>
<rect x="1462.22" y="123.455" width="6" height="5" rx="2" transform="rotate(31.9935 1462.22 123.455)" stroke="white" stroke-width="2"/>
<path fill-rule="evenodd" clip-rule="evenodd" d="M1464.83 134.213C1464.97 133.78 1464.79 133.312 1464.41 133.073L1457.71 128.889C1457.33 128.65 1456.83 128.697 1456.5 129.006L1450.44 134.656C1449.96 135.104 1450.04 135.887 1450.6 136.235L1460.93 142.689C1461.48 143.037 1462.22 142.762 1462.41 142.133L1464.83 134.213ZM1458.12 126.787C1457.35 126.307 1456.36 126.403 1455.7 127.02L1448.13 134.082C1447.16 134.979 1447.32 136.544 1448.43 137.241L1460.97 145.076C1462.09 145.772 1463.56 145.222 1463.94 143.964L1466.97 134.064C1467.24 133.198 1466.89 132.263 1466.12 131.783L1458.12 126.787Z" fill="white"/>
<path d="M1454.53 135.517L1453.9 135.6L1453.22 136.693L1452.05 135.965L1455.23 130.876L1456.39 131.604L1454.63 134.423L1455.01 134.326L1456.8 133.947L1458.2 134.82L1455.69 135.33L1456.09 138.491L1454.76 137.655L1454.53 135.517Z" fill="white"/>
<path d="M1460.53 141.263L1459.32 140.508L1459.36 137.3L1457.91 139.626L1456.7 138.871L1459.72 134.047L1460.92 134.803L1460.88 138.019L1462.34 135.687L1463.55 136.44L1460.53 141.263Z" fill="white"/>
<path d="M1116.82 67.137L1119.66 74.6158C1119.87 75.1767 1120.39 75.4086 1120.95 75.1956L1136.36 65.0653C1136.92 64.8523 1137.15 64.3363 1136.94 63.7754L1135.52 60.036C1135.3 59.4751 1134.79 59.2432 1134.23 59.4562L1117.4 65.8471C1116.84 66.0601 1116.61 66.5761 1116.82 67.137ZM1134.71 63.5507L1121.18 72.9708L1119.05 67.3617L1134 61.681L1134.71 63.5507Z" fill="white"/>
<path fill-rule="evenodd" clip-rule="evenodd" d="M1130.07 71.9993C1130.34 72.1004 1130.55 72.312 1130.65 72.5801L1133.49 80.0589C1133.69 80.5752 1133.43 81.1527 1132.91 81.3488L1124.5 84.5442C1123.98 84.7403 1123.41 84.4807 1123.21 83.9644L1120.73 77.4205C1120.55 76.949 1120.75 76.418 1121.19 76.1818L1129.25 72.0516C1129.5 71.9172 1129.8 71.8982 1130.07 71.9993ZM1122.91 77.5357L1124.73 82.3195L1131.27 79.8341L1129.19 74.3492L1122.91 77.5357Z" fill="white"/>
<path fill-rule="evenodd" clip-rule="evenodd" d="M1137.66 66.8994C1137.98 66.9783 1138.24 67.2083 1138.36 67.5149L1141.91 76.8634C1142.1 77.3797 1141.84 77.9572 1141.33 78.1533L1136.65 79.9286C1136.14 80.1246 1135.56 79.8651 1135.36 79.3488L1132.35 71.4026C1132.2 71.0129 1132.31 70.5723 1132.62 70.2968L1136.76 67.1193C1137.01 66.9026 1137.35 66.8204 1137.66 66.8994ZM1134.46 71.3403L1136.88 77.7038L1139.68 76.6387L1137 69.574L1134.46 71.3403Z" fill="white"/>
<g clip-path="url(#clip3_17531_3408)">
<path d="M372.047 181.862L356.476 183.459L354.788 184.532L362.49 196.659L360.802 197.731L365.015 198.768L365.867 194.514L364.178 195.586L357.816 185.57L363.377 184.999L368.399 192.906L366.711 193.978L370.923 195.015L371.776 190.761L370.087 191.833L365.543 184.679L371.129 184.147L374.308 189.152L372.62 190.225L376.832 191.262L377.684 187.008L375.996 188.08L372.047 181.862Z" fill="white"/>
<path d="M366.955 173.843L365.267 174.915L368.483 179.98L370.172 178.907L366.955 173.843Z" fill="white"/>
<path d="M370.787 176.147L369.715 174.458L364.65 177.675L365.722 179.364L370.787 176.147Z" fill="white"/>
</g>
<path d="M485.174 227.61L481.281 234.599C480.989 235.124 481.143 235.668 481.668 235.96L499.339 241.224C499.863 241.516 500.407 241.361 500.699 240.837L502.646 237.343C502.938 236.818 502.783 236.274 502.259 235.982L486.534 227.223C486.01 226.931 485.466 227.086 485.174 227.61ZM499.439 238.99L483.515 234.699L486.434 229.457L500.412 237.243L499.439 238.99Z" fill="white"/>
<path fill-rule="evenodd" clip-rule="evenodd" d="M489.986 240.88C490.082 241.15 490.057 241.448 489.917 241.699L486.024 248.688C485.755 249.17 485.146 249.344 484.664 249.075L476.801 244.695C476.319 244.427 476.146 243.818 476.414 243.335L479.821 237.22C480.066 236.779 480.601 236.59 481.069 236.779L489.418 240.285C489.684 240.393 489.891 240.609 489.986 240.88ZM481.138 238.964L478.648 243.435L484.764 246.841L487.619 241.715L481.138 238.964Z" fill="white"/>
<path fill-rule="evenodd" clip-rule="evenodd" d="M498.777 243.404C498.921 243.698 498.912 244.045 498.753 244.331L493.887 253.067C493.618 253.55 493.009 253.723 492.526 253.454L488.158 251.021C487.676 250.753 487.503 250.144 487.771 249.661L491.907 242.235C492.11 241.871 492.518 241.671 492.93 241.733L498.028 242.856C498.352 242.905 498.632 243.109 498.777 243.404ZM493.318 243.814L490.005 249.761L492.626 251.221L496.303 244.619L493.318 243.814Z" fill="white"/>
<path fill-rule="evenodd" clip-rule="evenodd" d="M670.364 110.677H686.364C687.464 110.677 688.364 111.577 688.364 112.677V123.677C688.364 121.77 687.601 120.041 686.364 118.778V118.677H686.263C685.001 117.44 683.272 116.677 681.364 116.677C679.457 116.677 677.728 117.44 676.465 118.677H676.364V118.778C675.127 120.041 674.364 121.77 674.364 123.677C674.364 125.585 675.127 127.314 676.364 128.576V128.677H676.465C677.728 129.914 679.457 130.677 681.364 130.677H670.364C669.264 130.677 668.364 129.777 668.364 128.677V112.677C668.364 111.577 669.264 110.677 670.364 110.677ZM670.364 128.677H674.364V124.677H670.364V128.677ZM670.364 122.677H674.364V118.677H670.364V122.677ZM670.364 116.677H674.364V112.677H670.364V116.677ZM676.364 116.677H680.364V112.677H676.364V116.677ZM682.364 116.677H686.364V112.677H682.364V116.677Z" fill="white"/>
<rect x="677.216" y="124.977" width="2.15921" height="2.15921" transform="rotate(-45 677.216 124.977)" fill="white"/>
<rect x="681.033" y="121.16" width="2.15921" height="2.15921" transform="rotate(-45 681.033 121.16)" fill="white"/>
<path fill-rule="evenodd" clip-rule="evenodd" d="M677.216 124.977L678.743 123.45L680.264 124.972L678.737 126.499L677.216 124.977ZM679.445 127.206L680.651 128.412C682.127 129.888 684.519 129.888 685.995 128.412C687.471 126.937 687.471 124.544 685.995 123.069L684.788 121.862L683.262 123.389L684.468 124.595C685.101 125.228 685.101 126.253 684.468 126.886C683.836 127.518 682.81 127.518 682.178 126.886L680.971 125.679L679.445 127.206ZM682.554 122.682L684.081 121.155L682.56 119.633L681.033 121.16L682.554 122.682Z" fill="white"/>
<path d="M678.364 122.677V122.384C678.364 121.932 678.544 121.497 678.864 121.177V121.177C679.184 120.857 679.619 120.677 680.071 120.677H680.364" stroke="white"/>
<path d="M676.364 122.677V122.091C676.364 121.186 676.724 120.318 677.364 119.677V119.677C678.005 119.037 678.873 118.677 679.778 118.677H680.364" stroke="white"/>
<g clip-path="url(#clip4_17531_3408)">
<path d="M1040.48 244.71L1033.75 228.02C1033.75 228.02 1033.75 228.02 1033.75 228.02L1028.18 230.265C1028.18 230.265 1028.18 230.266 1028.18 230.266L1034.92 246.956C1034.92 246.956 1034.92 246.957 1034.92 246.956L1040.48 244.711C1040.48 244.711 1040.48 244.71 1040.48 244.71Z" stroke="white" stroke-width="2" stroke-miterlimit="10"/>
<path d="M1029.36 249.202L1022.62 232.513C1022.62 232.512 1022.62 232.512 1022.62 232.512L1017.06 234.757C1017.05 234.758 1017.05 234.758 1017.05 234.759L1023.79 251.448C1023.79 251.449 1023.79 251.449 1023.79 251.449L1029.36 249.203C1029.36 249.203 1029.36 249.203 1029.36 249.202Z" stroke="white" stroke-width="2" stroke-miterlimit="10"/>
<path d="M1024.99 230.363L1032.51 249.007" stroke="white" stroke-width="2" stroke-miterlimit="10" stroke-linecap="round" stroke-dasharray="3 3"/>
</g>
<g clip-path="url(#clip5_17531_3408)">
<path d="M830 150V150.89L832 152.89V150H836V154H833.11L835.11 156H836V156.89L838 158.89V156H842V160H839.11L841.11 162H842V162.89L844 164.89V150C844 148.9 843.1 148 842 148H827.11L829.11 150H830ZM838 150H842V154H838V150ZM823.41 147.14L822 148.55L824 150.55V166C824 167.1 824.9 168 826 168H841.45L843.46 170.01L844.87 168.6L823.41 147.14ZM832 158.55L833.45 160H832V158.55ZM826 152.55L827.45 154H826V152.55ZM830 166H826V162H830V166ZM830 160H826V156H829.45L830 156.55V160ZM836 166H832V162H835.45L836 162.55V166ZM838 166V164.55L839.45 166H838Z" fill="white"/>
</g>
</g>
<defs>
<clipPath id="clip0_17531_3408">
<rect width="1500" height="330" fill="white"/>
</clipPath>
<clipPath id="clip1_17531_3408">
<rect width="1500" height="350" fill="white"/>
</clipPath>
<clipPath id="clip2_17531_3408">
<rect width="24" height="24" fill="white" transform="translate(746.364 20)"/>
</clipPath>
<clipPath id="clip3_17531_3408">
<rect width="24" height="24" fill="white" transform="translate(349 182.877) rotate(-32.4217)"/>
</clipPath>
<clipPath id="clip4_17531_3408">
<rect width="24" height="24" fill="white" transform="translate(1013.11 233) rotate(-21.9827)"/>
</clipPath>
<clipPath id="clip5_17531_3408">
<rect width="24" height="24" fill="white" transform="translate(822 146)"/>
</clipPath>
</defs>
</svg>
