<svg width="160" height="160" viewBox="0 0 160 160" fill="none" xmlns="http://www.w3.org/2000/svg">
<g clip-path="url(#clip0_17531_6681)">
<rect width="160" height="160" rx="8" fill="white"/>
<g clip-path="url(#clip1_17531_6681)">
<path d="M720.945 0H-0.0546875V168H720.945V0Z" fill="#D1E3FA"/>
<path d="M720.945 137.376V168H-0.0546875V130.992C24.6516 125.952 127.899 106.224 156.979 121.968C190.097 139.872 242.009 146.304 253.545 140.544C265.081 134.784 334.634 132.864 347.467 135.456C360.301 138 396.447 143.376 408.608 142.608C420.769 141.84 481.045 137.328 493.205 139.92C505.366 142.464 532.38 149.52 543.82 142.656C550.837 138.432 561.076 133.872 574.967 133.872C588.858 133.872 609.238 125.712 617.65 137.328C626.11 148.944 643.414 140.832 654.421 134.736C658.699 132.384 681.435 128.832 688.885 130.848C693.451 132.048 709.265 135.12 720.945 137.376Z" fill="white"/>
<path d="M32.5823 16.6561H29.6983L30.9961 15.3601L30.3712 14.7361V13.8241L28.5447 13.7761L30.5635 11.7601L29.8905 11.0881L27.8237 13.1521V11.2801H26.8623L26.2855 10.6561L24.9877 11.9041V8.97607H24.0264V12.0001L22.6805 10.6561L22.0557 11.2801H21.1905L21.1424 13.1041L19.0755 11.0401L18.4026 11.7121L20.5175 13.8241H18.691V14.6881L18.0661 15.3121L19.3159 16.6081H16.3838V17.5681H19.3639L18.0181 18.9121L18.6429 19.5361V20.4001L20.4695 20.4481L18.4026 22.5121L19.0755 23.1841L21.1905 21.0721V22.9441H22.0557L22.7286 23.6161L24.0745 22.3201V25.2001H25.0358V22.3201L26.3336 23.6161L26.9585 22.9921H27.8717L27.9198 21.1681L29.9386 23.1841L30.6115 22.5121L28.5447 20.4481H30.4193V19.5361L31.0441 18.9121L29.7463 17.5681H32.6303V16.6561H32.5823ZM30.2751 14.7361L28.3524 16.6561H25.6607L27.5833 14.7361H30.2751ZM26.9104 11.4241V14.0641L24.9877 15.9841V13.2961L26.9104 11.4241ZM22.1518 11.4721L24.0264 13.3441V15.9841L22.1037 14.0641L22.1518 11.4721ZM18.8352 14.7841H21.4789L23.3535 16.6561H20.6137L18.8352 14.7841ZM18.8352 19.4401L20.7098 17.5681H23.3535L21.4308 19.4881L18.8352 19.4401ZM22.1518 22.8001V20.1121L24.0264 18.2401V21.0241L22.1518 22.8001ZM26.9104 22.8481L24.9877 20.9281V18.2401L26.9104 20.1601V22.8481ZM30.2751 19.4881H27.5833L25.6607 17.5681H28.4005L30.2751 19.4881Z" fill="white"/>
<path d="M113.406 12.7648L112.557 13.6133L113.406 14.4618L114.256 13.6133L113.406 12.7648Z" fill="white"/>
<path d="M113.396 11.6887L112.954 12.1299L113.396 12.5711L113.838 12.1299L113.396 11.6887Z" fill="white"/>
<path d="M113.391 21.7223L112.949 22.1636L113.391 22.6048L113.833 22.1636L113.391 21.7223Z" fill="white"/>
<path d="M113.392 19.8268L112.542 20.6753L113.392 21.5238L114.241 20.6753L113.392 19.8268Z" fill="white"/>
<path d="M109.855 16.3185L109.005 17.167L109.855 18.0155L110.704 17.167L109.855 16.3185Z" fill="white"/>
<path d="M108.37 16.7375L107.928 17.1787L108.37 17.6199L108.811 17.1787L108.37 16.7375Z" fill="white"/>
<path d="M118.452 16.7077L118.01 17.1489L118.452 17.5902L118.893 17.1489L118.452 16.7077Z" fill="white"/>
<path d="M116.927 16.3331L116.077 17.1816L116.927 18.0302L117.777 17.1816L116.927 16.3331Z" fill="white"/>
<path d="M116.074 19.3441H117.036V18.6721H115.401L115.017 18.2881C115.113 18.1441 115.161 18.0001 115.257 17.8561L115.93 17.1841L115.257 16.5121C115.209 16.3681 115.113 16.2241 115.017 16.0801L115.353 15.7441H116.988V15.0721H116.026L116.651 14.4481H118.285V13.7761H116.795V12.2881H116.122V14.0161L115.497 14.6401V13.5841H114.825V15.2641L114.536 15.5521C114.392 15.4561 114.2 15.3601 114.055 15.2641L113.383 14.5921L112.71 15.2641C112.517 15.3121 112.325 15.4081 112.181 15.5521L111.892 15.2641V13.6321H111.22V14.5921L110.595 13.9681V12.3361H109.922V13.8241H108.432V14.4961H110.162L110.787 15.1201H109.729V15.7921H111.412L111.652 16.0321C111.556 16.1761 111.46 16.3681 111.364 16.5601L110.739 17.1841L111.316 17.7601C111.412 18.0001 111.508 18.2401 111.7 18.4801L111.412 18.7681L109.729 18.7201V19.3921H110.787L110.162 20.0161L108.432 19.9681V20.6401H109.922V22.1281H110.595V20.4961L111.22 19.8721V20.8321H111.892V19.2001L112.229 18.8641C112.373 18.9601 112.517 19.0081 112.71 19.0561L113.334 19.6801L113.959 19.0561C114.152 18.9601 114.344 18.8641 114.536 18.7201L114.873 19.0561L114.825 20.7361H115.497V19.6801L116.122 20.3041L116.074 22.0321H116.747V20.5441H118.237V19.8721H116.603L116.074 19.3441ZM114.68 16.7521L114.248 17.1841L113.431 16.3681L113.863 15.9361C114.248 16.0801 114.536 16.4161 114.68 16.7521ZM112.565 17.2321L113.383 18.0481L112.95 18.4801C112.565 18.3361 112.277 18.0481 112.133 17.6641L112.565 17.2321ZM112.95 15.9361L113.383 16.3681L112.565 17.1841L112.085 16.7041C112.277 16.3681 112.565 16.0801 112.95 15.9361ZM113.863 18.4801L113.431 18.0481L114.248 17.2321L114.632 17.6161C114.536 18.0481 114.248 18.3361 113.863 18.4801Z" fill="white"/>
<path d="M39.1768 57.0377L38.3271 57.8862L39.1768 58.7348L40.0265 57.8862L39.1768 57.0377Z" fill="white"/>
<path d="M39.1997 55.9958L38.7578 56.437L39.1997 56.8782L39.6415 56.437L39.1997 55.9958Z" fill="white"/>
<path d="M39.1948 66.0295L38.7529 66.4707L39.1948 66.9119L39.6366 66.4707L39.1948 66.0295Z" fill="white"/>
<path d="M39.1964 64.1339L38.3467 64.9824L39.1964 65.8309L40.0461 64.9824L39.1964 64.1339Z" fill="white"/>
<path d="M35.6251 60.5919L34.7754 61.4404L35.6251 62.2889L36.4748 61.4404L35.6251 60.5919Z" fill="white"/>
<path d="M34.1733 60.9762L33.7314 61.4175L34.1733 61.8587L34.6151 61.4175L34.1733 60.9762Z" fill="white"/>
<path d="M44.2211 60.9811L43.7793 61.4224L44.2211 61.8636L44.663 61.4224L44.2211 60.9811Z" fill="white"/>
<path d="M42.7306 60.5724L41.8809 61.4209L42.7306 62.2694L43.5803 61.4209L42.7306 60.5724Z" fill="white"/>
<path d="M41.9082 63.6483H42.8696V62.9763H41.2353L40.8508 62.5923C40.9469 62.4483 40.995 62.3043 41.0911 62.1603L41.764 61.4883L41.0911 60.8163C41.043 60.6723 40.9469 60.5283 40.8508 60.3843L41.1872 60.0483H42.8215V59.3763H41.8602L42.485 58.7523H44.1193V58.0803H42.6292V56.5923H41.9563V58.3203L41.3314 58.9443V57.8883H40.6585V59.5683L40.3701 59.8563C40.2259 59.7603 40.0336 59.6643 39.8894 59.5683L39.2165 58.8963L38.5436 59.5683C38.3513 59.6163 38.159 59.7123 38.0148 59.8563L37.7264 59.5683V57.9363H37.0535V58.8963L36.4286 58.2723V56.6403H35.7557V58.1283H34.2656V58.8003H35.996L36.6209 59.4243H35.5634V60.0963H37.2458L37.4861 60.3363C37.39 60.4803 37.2938 60.6723 37.1977 60.8643L36.5728 61.4883L37.1496 62.0643C37.2458 62.3043 37.3419 62.5443 37.5342 62.7843L37.2458 63.0723L35.5634 63.0243V63.6963H36.6209L35.996 64.3203L34.2656 64.2723V64.9443H35.7557V66.4323H36.4286V64.8003L37.0535 64.1763V65.1363H37.7264V63.5043L38.0629 63.1683C38.2071 63.2643 38.3513 63.3123 38.5436 63.3603L39.1684 63.9843L39.7933 63.3603C39.9856 63.2643 40.1778 63.1683 40.3701 63.0243L40.7066 63.3603L40.6585 65.0403H41.3314V63.9843L41.9563 64.6083L41.9082 66.3363H42.5812V64.8483H44.1674V64.1763H42.5331L41.9082 63.6483ZM40.4662 61.0563L40.0336 61.4883L39.2165 60.6723L39.6491 60.2403C40.0336 60.3843 40.322 60.6723 40.4662 61.0563ZM38.3513 61.5363L39.1684 62.3523L38.7358 62.7843C38.3513 62.6403 38.0629 62.3523 37.9187 61.9683L38.3513 61.5363ZM38.7839 60.2403L39.2165 60.6723L38.3994 61.4883L37.9187 61.0083C38.0629 60.6723 38.3994 60.3363 38.7839 60.2403ZM39.6972 62.7843L39.2646 62.3523L40.0817 61.5363L40.4662 61.9203C40.322 62.3043 40.0336 62.6403 39.6972 62.7843Z" fill="white"/>
<g opacity="0.6">
<path d="M63.0844 17.4679L62.6426 17.9092L63.0844 18.3504L63.5263 17.9092L63.0844 17.4679Z" fill="white"/>
<path d="M63.0631 16.9128L62.8252 17.1504L63.0631 17.388L63.301 17.1504L63.0631 16.9128Z" fill="white"/>
<path d="M63.0758 21.947L62.8379 22.1846L63.0758 22.4222L63.3137 22.1846L63.0758 21.947Z" fill="white"/>
<path d="M63.0932 21.0163L62.6514 21.4575L63.0932 21.8988L63.5351 21.4575L63.0932 21.0163Z" fill="white"/>
<path d="M61.3081 19.2443L60.8662 19.6855L61.3081 20.1268L61.7499 19.6855L61.3081 19.2443Z" fill="white"/>
<path d="M60.5485 19.4704L60.3105 19.708L60.5485 19.9456L60.7864 19.708L60.5485 19.4704Z" fill="white"/>
<path d="M65.5895 19.4572L65.3516 19.6948L65.5895 19.9324L65.8274 19.6948L65.5895 19.4572Z" fill="white"/>
<path d="M64.8618 19.236L64.4199 19.6772L64.8618 20.1185L65.3036 19.6772L64.8618 19.236Z" fill="white"/>
<path d="M64.4022 20.7838H64.8829V20.4478H64.0657L63.8735 20.2558C63.9215 20.2078 63.9696 20.1118 63.9696 20.0158L64.3061 19.6798L63.9696 19.3438C63.9215 19.2478 63.9215 19.1998 63.8735 19.1518L64.0177 19.0078H64.8348V18.6718H64.3541L64.6425 18.3838H65.4597V18.0478H64.7387V17.2798H64.4022V18.1438L64.0657 18.4318V17.9038H63.7293V18.7678L63.5851 18.9118C63.4889 18.8638 63.4409 18.8158 63.3447 18.7678L63.0083 18.4318L62.6718 18.7678C62.5757 18.8158 62.4795 18.8638 62.3834 18.9118L62.2392 18.7678V17.9518H61.9027V18.4318L61.6143 18.1438V17.3278H61.2779V18.0478H60.5088V18.3838H61.374L61.6624 18.7198H61.1337V19.0558H61.9989L62.1431 19.1998C62.095 19.2958 62.0469 19.3438 61.9989 19.4398L61.7105 19.7278L61.9989 20.0158C62.0469 20.1598 62.095 20.2558 62.1911 20.3518L62.0469 20.4958H61.1817V20.8318H61.7105L61.4221 21.1678H60.5569V21.5038H61.3259V22.2238H61.6624V21.4078L61.9508 21.1198V21.5998H62.2873V20.7838L62.4315 20.6398C62.5276 20.6878 62.5757 20.7358 62.6718 20.7358L62.9602 21.0238L63.2967 20.6878C63.3928 20.6398 63.4889 20.5918 63.5851 20.5438L63.7293 20.6878V21.5518H64.0657V21.0238L64.4022 21.3118V22.1758H64.7387V21.4078H65.4597V21.0718H64.6425L64.4022 20.7838ZM63.6812 19.4878L63.4889 19.6798L63.1044 19.2958L63.3447 19.0558C63.4889 19.1518 63.6331 19.2958 63.6812 19.4878ZM62.6237 19.7278L63.0083 20.1118L62.816 20.3038C62.6237 20.2558 62.4795 20.0638 62.3834 19.9198L62.6237 19.7278ZM62.816 19.1038L63.0563 19.3438L62.6718 19.7278L62.4315 19.4878C62.4795 19.2958 62.6237 19.1518 62.816 19.1038ZM63.2967 20.3518L63.1044 20.1598L63.4889 19.7758L63.6812 19.9678C63.6331 20.1118 63.4889 20.2558 63.2967 20.3518Z" fill="white"/>
</g>
<path d="M146.452 52.6923L143.52 53.8443L144.289 52.0203L143.328 51.6363L142.126 54.4203L141.934 54.5163C141.597 53.9403 141.117 53.5083 140.54 53.1723L140.732 52.6923L142.126 52.3083L141.838 51.3483L140.636 51.6843L140.3 50.4843L139.338 50.7723L139.771 52.3563L139.579 52.7883C138.906 52.5963 138.185 52.5963 137.464 52.7883L137.319 52.4043L138.521 49.7163L137.608 49.2843L136.791 51.1083L135.733 48.1323L134.772 48.5163L135.974 51.4923L134.099 50.6763L133.714 51.6363L136.502 52.8363L136.647 53.1723C136.07 53.5083 135.589 53.9883 135.301 54.5643L134.724 54.3243L134.339 52.9323L133.378 53.2203L133.714 54.4203L132.513 54.7563L132.801 55.7163L134.387 55.2843L134.964 55.5243C134.82 56.1003 134.772 56.7723 134.916 57.3963L134.532 57.5403L131.84 56.3403L131.407 57.2523L133.234 58.0683L130.302 59.2203L130.686 60.1803L133.666 58.9803L132.849 60.8523L133.811 61.2363L135.012 58.4523L135.301 58.3083C135.637 58.9323 136.118 59.4603 136.695 59.7963L136.406 60.4203L135.012 60.8043L135.301 61.7643L136.502 61.4283L136.839 62.6283L137.8 62.3403L137.319 60.7563L137.56 60.2283C138.185 60.4203 138.858 60.4683 139.531 60.2763L139.627 60.5163L138.425 63.2523L139.338 63.6843L140.155 61.8603L141.309 64.7403L142.27 64.3563L141.117 61.4283L142.943 62.1963L143.328 61.2363L140.54 60.0363L140.492 59.8923C141.117 59.5563 141.645 59.0763 141.982 58.5003L142.511 58.7403L142.895 60.1323L143.857 59.8443L143.52 58.6443L144.722 58.3083L144.433 57.3483L142.847 57.8283L142.415 57.6363C142.607 56.9163 142.655 56.1483 142.415 55.4283L142.607 55.3323L145.347 56.5323L145.779 55.6203L143.953 54.8043L146.837 53.6523L146.452 52.6923ZM141.021 54.9003L139.627 55.4763L140.203 54.1323C140.54 54.2763 140.828 54.5643 141.021 54.9003ZM139.29 53.7003L138.617 55.2843L137.992 53.7483C138.425 53.6043 138.858 53.6043 139.29 53.7003ZM137.031 54.1323L137.608 55.5723L136.214 54.9963C136.454 54.6603 136.695 54.3723 137.031 54.1323ZM135.877 55.9083L137.127 56.4363L135.829 56.9643C135.781 56.6283 135.781 56.2443 135.877 55.9083ZM136.166 57.9243L137.704 57.3003L137.031 58.8363C136.695 58.6443 136.406 58.3083 136.166 57.9243ZM137.944 59.2683L138.569 57.8763L139.146 59.3163C138.761 59.4123 138.329 59.3643 137.944 59.2683ZM140.107 58.9803L139.482 57.4923L141.021 58.1643C140.78 58.5003 140.492 58.7883 140.107 58.9803ZM141.453 57.2043L139.771 56.4843L141.453 55.8123C141.597 56.2923 141.549 56.7723 141.453 57.2043Z" fill="white"/>
<path d="M155.729 19.0561C156.419 19.0561 156.979 18.4973 156.979 17.8081C156.979 17.1188 156.419 16.5601 155.729 16.5601C155.039 16.5601 154.479 17.1188 154.479 17.8081C154.479 18.4973 155.039 19.0561 155.729 19.0561Z" fill="white"/>
<path d="M8.54881 86.5442C8.78773 86.5442 8.98141 86.3508 8.98141 86.1122C8.98141 85.8736 8.78773 85.6802 8.54881 85.6802C8.30989 85.6802 8.11621 85.8736 8.11621 86.1122C8.11621 86.3508 8.30989 86.5442 8.54881 86.5442Z" fill="white"/>
<path d="M9.75051 48.7679C10.1753 48.7679 10.5196 48.4241 10.5196 47.9999C10.5196 47.5758 10.1753 47.2319 9.75051 47.2319C9.32577 47.2319 8.98145 47.5758 8.98145 47.9999C8.98145 48.4241 9.32577 48.7679 9.75051 48.7679Z" fill="white"/>
<path fill-rule="evenodd" clip-rule="evenodd" d="M142.992 96.8159H150.682C151.211 96.8159 151.644 97.2479 151.644 97.7759V105.432C151.283 105.726 150.952 106.056 150.657 106.416H142.992C142.463 106.416 142.03 105.984 142.03 105.456V97.7759C142.03 97.2479 142.463 96.8159 142.992 96.8159ZM142.992 105.456H144.914V103.536H142.992V105.456ZM142.992 102.576H144.914V100.656H142.992V102.576ZM142.992 99.6959H144.914V97.7759H142.992V99.6959ZM145.876 105.456H147.798V103.536H145.876V105.456ZM145.876 102.576H147.798V100.656H145.876V102.576ZM145.876 99.6959H147.798V97.7759H145.876V99.6959ZM148.76 105.456H150.682V103.536H148.76V105.456ZM148.76 102.576H150.682V100.656H148.76V102.576ZM148.76 99.6959H150.682V97.7759H148.76V99.6959Z" fill="white"/>
<rect x="16.3281" y="107.029" width="2.15921" height="2.15921" transform="rotate(-45 16.3281 107.029)" fill="white"/>
<rect x="20.1455" y="103.212" width="2.15921" height="2.15921" transform="rotate(-45 20.1455 103.212)" fill="white"/>
<path fill-rule="evenodd" clip-rule="evenodd" d="M16.3281 107.029L17.8549 105.502L19.3766 107.024L17.8498 108.551L16.3281 107.029ZM18.5569 109.258L19.7634 110.465C21.2391 111.94 23.6316 111.94 25.1072 110.465C26.5828 108.989 26.5828 106.596 25.1072 105.121L23.9006 103.914L22.3739 105.441L23.5804 106.648C24.2128 107.28 24.2128 108.305 23.5804 108.938C22.948 109.57 21.9227 109.57 21.2902 108.938L20.0837 107.731L18.5569 109.258ZM21.6668 104.734L23.1935 103.207L21.6719 101.686L20.1451 103.212L21.6668 104.734Z" fill="white"/>
<path d="M17.4766 104.729V104.436C17.4766 103.983 17.6564 103.549 17.9766 103.229V103.229C18.2967 102.909 18.7309 102.729 19.1837 102.729H19.4766" stroke="white"/>
<path d="M15.4766 104.729V104.143C15.4766 103.238 15.8363 102.369 16.4766 101.729V101.729C17.1169 101.089 17.9853 100.729 18.8908 100.729H19.4766" stroke="white"/>
</g>
<path d="M29.8108 96.4525L80.0001 67.4757L130.189 96.4525V154.406L80.0001 183.383L29.8108 154.406V96.4525Z" fill="#598F22" stroke="#333333" stroke-width="3"/>
<path d="M60.8033 113.563L108.971 84.5923L98.1505 78.3096L48.587 107.629V164.871L60.8033 171.852V113.563Z" fill="#D0213B"/>
<path d="M81.1948 182.268H78.8053V125.899L29.9873 97.7131L31.1817 95.644L81.1948 124.52V182.268Z" fill="#333333"/>
<path d="M99.5463 113.563L51.3789 84.5923L62.1991 78.3096L111.763 107.629V164.871L99.5463 171.852V113.563Z" fill="#D0213B"/>
<path d="M100.841 169.82H98.4518V113.451L49.6338 85.2649L50.8282 83.1958L100.841 112.072V169.82Z" fill="#333333"/>
<path d="M112.708 164.235H110.319V107.867L61.501 79.6804L62.6954 77.6113L112.708 106.487V164.235Z" fill="#333333"/>
<path d="M58.7085 170.518H61.098V114.149L109.916 85.9631L108.722 83.894L58.7085 112.77V170.518Z" fill="#333333"/>
<path d="M46.8414 164.933H49.2309V108.565L99.1973 79.3567L96.8545 78.3096L46.8414 107.186V164.933Z" fill="#333333"/>
<rect x="74.0664" y="97.1572" width="13.2635" height="10.4712" fill="#598F22"/>
<path d="M128.822 95.6416L79.4043 124.177L80.5992 126.247L130.016 97.7109L128.822 95.6416Z" fill="#333333"/>
<path d="M91.7557 84.939H69.5303V103.064H91.7557V84.939Z" fill="white"/>
<path d="M72.3422 87.6401L69.1638 93.9458L73.2336 98.8037V107.306H66.5153L58.6787 97.3824L66.5153 78.7751C66.123 66.4192 66.7771 55.6569 66.7771 55.6569C66.7771 55.6569 74.7149 50.7766 77.7264 50.3236C81.177 49.8056 91.5163 52.473 91.5163 52.473L103.791 62.8087L103.887 62.8911C103.947 63.3242 103.977 63.7607 103.977 64.1979C103.942 66.0398 103.483 67.8489 102.635 69.4844C100.182 74.4792 95.1491 78.2055 94.437 78.7158C94.3826 78.7563 94.3526 78.7759 94.3526 78.7759L102.19 97.3831L94.3519 107.307H87.6301V98.8044L91.6999 93.9465L88.5222 87.6407" fill="white"/>
<path d="M94.9305 108.502H86.4356V98.37L90.2792 93.7823L87.4555 88.1781L89.5888 87.103L93.1204 94.111L88.8251 99.2391V106.112H93.7731L100.812 97.1966L92.8537 78.3107L93.7054 77.769C94.289 77.3502 99.2104 73.7362 101.556 68.9593C102.323 67.4877 102.74 65.859 102.776 64.1998C102.776 63.968 102.766 63.7335 102.745 63.4982L90.948 53.5653C87.9386 52.803 80.451 51.122 77.8939 51.5074C75.7892 51.8236 70.414 54.8581 67.9254 56.3527C67.7969 58.8155 67.3669 68.2549 67.6992 78.7387L67.7076 78.9998L60.0434 97.1966L67.0947 106.112H72.0406V99.2391L67.7446 94.111L71.2762 87.103L73.4095 88.1781L70.5851 93.7823L74.4294 98.37V108.502H65.9359L57.3027 97.57L65.3118 78.5537C64.939 66.3932 65.5771 55.6937 65.584 55.5869L65.6217 54.967L66.1509 54.6417C66.9844 54.1293 74.3882 49.6204 77.5484 49.145C81.1351 48.6061 90.7309 51.039 91.8136 51.3196L92.0768 51.3894L105.008 62.2857L105.069 62.7331C105.136 63.2189 105.17 63.7087 105.171 64.1991C105.136 66.2245 104.635 68.2146 103.705 70.0141C101.534 74.4329 97.5567 77.8326 95.8164 79.1771L103.565 97.57L94.9305 108.502Z" fill="#333333"/>
<path d="M87.6313 101.869H73.2334V104.258H87.6313V101.869Z" fill="#333333"/>
<path d="M103.976 64.1992C103.941 66.0411 103.482 67.8502 102.633 69.4857L98.2852 64.3248L103.885 62.8931C103.945 63.3259 103.975 63.7622 103.976 64.1992Z" fill="#333333"/>
<path d="M89.8228 61.5887C89.8228 61.5887 88.2493 57.2181 85.7739 57.9993C83.2985 58.7804 82.3994 60.0237 82.3994 60.0237C82.3994 60.0237 84.4559 62.7336 86.1481 62.8634C87.8402 62.9933 89.8228 61.5887 89.8228 61.5887Z" fill="#333333"/>
<path d="M74.9182 63.1232H70.426C70.2593 63.123 70.0945 63.0878 69.9422 63.0201C69.7899 62.9523 69.6535 62.8534 69.5417 62.7297C69.4299 62.606 69.3453 62.4603 69.2932 62.3019C69.2411 62.1435 69.2227 61.976 69.2393 61.8101L69.6135 58.0664C69.6364 57.8366 69.7253 57.6184 69.8697 57.4381L71.3664 55.5659C71.4784 55.426 71.6204 55.313 71.782 55.2354C71.9435 55.1579 72.1205 55.1176 72.2997 55.1177H76.0435V57.5072H72.8742L71.9555 58.6548L71.7461 60.7337H74.9182V63.1232Z" fill="#333333"/>
<path d="M102.804 70.1689V75.0555C102.804 75.1204 102.785 75.1838 102.749 75.2378C102.713 75.2919 102.662 75.3339 102.602 75.3587C102.542 75.3834 102.476 75.3897 102.413 75.3767C102.349 75.3637 102.291 75.3321 102.245 75.2859L100.469 73.5092L102.804 70.1689Z" fill="white"/>
<path d="M102.476 76.3771C102.302 76.3769 102.13 76.3426 101.97 76.2759C101.81 76.2093 101.665 76.1118 101.542 75.9889L99.1758 73.6217L103.799 67.0054V75.0542C103.798 75.4053 103.658 75.7418 103.409 75.9898C103.161 76.2378 102.824 76.3771 102.473 76.3771H102.476ZM101.764 73.3942L101.808 73.4381V73.332L101.764 73.3942Z" fill="#333333"/>
<path d="M102.957 71.7277L101.217 69.6565L101.566 68.9584C102.332 67.4872 102.75 65.859 102.785 64.2003C102.784 63.8176 102.758 63.4353 102.706 63.0562L105.032 62.5459C106.08 65.9804 103.893 70.0272 103.8 70.1982L102.957 71.7277Z" fill="#333333"/>
<path d="M94.1071 80.4225L93.4293 79.3593C92.3191 77.6106 91.699 75.5959 91.6337 73.5256C91.5684 71.4553 92.0603 69.4055 93.0581 67.5903C94.0559 65.7752 95.5229 64.2613 97.3058 63.207C99.0886 62.1526 101.122 61.5965 103.193 61.5967C103.414 61.5967 103.635 61.6027 103.856 61.6148L104.262 61.6365L105.008 62.2794L105.07 62.7269C105.137 63.2127 105.171 63.7024 105.172 64.1928C105.137 66.2182 104.636 68.2083 103.706 70.0078C101.158 75.1973 96.1169 78.9767 95.1319 79.6818L94.1071 80.4225ZM102.779 63.9981C101.285 64.0672 99.8312 64.4999 98.543 65.2588C97.2549 66.0177 96.1716 67.0797 95.3872 68.3525C94.6029 69.6253 94.1413 71.0705 94.0425 72.5623C93.9438 74.0541 94.2109 75.5474 94.8206 76.9125C96.5364 75.5205 99.7881 72.5711 101.563 68.9544C102.33 67.4828 102.748 65.8541 102.783 64.1949C102.781 64.1321 102.781 64.0658 102.779 63.9981Z" fill="#333333"/>
<path d="M95.1688 55.2784C91.7125 53.5402 87.4884 56.0511 78.2712 55.2784C69.054 54.5056 66.5586 58.5605 66.3663 64.7399C66.174 70.9192 64.2532 80.5738 56.1905 85.5943C48.1277 90.6148 59.0849 77.6245 54.1907 60.9249C49.2965 44.2253 86.1217 35.4482 93.6082 42.2042C101.095 48.9601 98.625 57.0166 95.1688 55.2784Z" fill="#D0213B" stroke="#333333" stroke-width="3"/>
<path d="M64.8619 56.147C65.6025 52.295 67.375 50.857 70.9317 49.673C73.7435 48.7355 73.5432 49.1361 77.6416 48.0206C82.8814 46.6202 83.4754 47.1133 88.6335 47.3129C93.8691 47.5468 97.1501 49.3776 98.216 50.5358C98.9232 54.2579 97.1787 56.8681 95.0635 55.8105C93.1242 54.8402 90.9414 55.2082 87.7616 55.5753C84.6095 55.9858 81.4231 56.0646 78.2545 55.8105C73.354 55.4022 70.3662 56.3578 68.6119 58.2691H68.5422C67.9157 58.5024 67.2556 58.6331 66.5875 58.656C65.516 58.6581 64.4717 58.1777 64.8619 56.147Z" fill="white" stroke="#333333" stroke-width="3"/>
<path d="M49.9855 84.4712L53.8219 82.2563L57.6584 84.4712V88.9011L53.8219 91.1161L49.9855 88.9011V84.4712Z" fill="white" stroke="#333333" stroke-width="2"/>
</g>
<defs>
<clipPath id="clip0_17531_6681">
<rect width="160" height="160" rx="8" fill="white"/>
</clipPath>
<clipPath id="clip1_17531_6681">
<rect width="721" height="168" fill="white" transform="translate(-0.0546875)"/>
</clipPath>
</defs>
</svg>
