<svg width="1201" height="350" viewBox="0 0 1201 350" fill="none" xmlns="http://www.w3.org/2000/svg">
<g clip-path="url(#clip0_16339_106011)">
<rect width="1201" height="350" fill="#C3E0A3"/>
<path fill-rule="evenodd" clip-rule="evenodd" d="M964 358H1274C1241.9 215.161 1184.49 120 1119 120C1053.51 120 996.098 215.161 964 358Z" fill="#598F22"/>
<g opacity="0.6">
<path fill-rule="evenodd" clip-rule="evenodd" d="M108.95 258.175C109.861 257.138 111.441 257.036 112.478 257.948L215.583 348.549L213.933 352.927H93.6436C92.2628 352.927 91.1436 351.807 91.1436 350.427C91.1436 349.046 92.2628 347.927 93.6436 347.927H207.3L109.177 261.703C108.14 260.792 108.038 259.212 108.95 258.175Z" fill="#ACACAC"/>
<path fill-rule="evenodd" clip-rule="evenodd" d="M197.994 259.87C198.896 260.915 198.78 262.494 197.735 263.396L95.6922 351.48C94.647 352.383 93.0684 352.267 92.1662 351.222C91.264 350.176 91.3799 348.598 92.425 347.696L194.468 259.611C195.513 258.709 197.092 258.825 197.994 259.87Z" fill="#ACACAC"/>
<path fill-rule="evenodd" clip-rule="evenodd" d="M184.722 88.0363C185.806 88.8908 185.993 90.4627 185.138 91.5472L119.413 174.961L209.672 256.141C210.698 257.065 210.782 258.645 209.859 259.672C208.935 260.698 207.355 260.782 206.328 259.859L114.328 177.112L114.036 173.706L181.211 88.4527C182.065 87.3682 183.637 87.1818 184.722 88.0363Z" fill="#ACACAC"/>
<path fill-rule="evenodd" clip-rule="evenodd" d="M190.048 177.573C190.996 178.576 190.953 180.158 189.95 181.107L109.385 257.326H199.066C200.446 257.326 201.566 258.445 201.566 259.826C201.566 261.206 200.446 262.326 199.066 262.326H103.105L101.387 258.009L186.513 177.475C187.516 176.526 189.099 176.57 190.048 177.573Z" fill="#ACACAC"/>
<path fill-rule="evenodd" clip-rule="evenodd" d="M127.014 87.1147H125.699L125.527 88.4179L83.1108 408.82C83.0021 409.641 83.5797 410.395 84.401 410.504C85.2222 410.613 85.9761 410.035 86.0849 409.214L128.328 90.1147H153.01C153.839 90.1147 154.51 89.4432 154.51 88.6147C154.51 87.7863 153.839 87.1147 153.01 87.1147H127.014ZM183.007 87.1147H184.322L184.494 88.4179L226.91 408.82C227.019 409.641 226.441 410.395 225.62 410.504C224.798 410.613 224.045 410.035 223.936 409.214L181.693 90.1147H157.01C156.182 90.1147 155.51 89.4432 155.51 88.6147C155.51 87.7863 156.182 87.1147 157.01 87.1147H183.007Z" fill="#ACACAC"/>
<path fill-rule="evenodd" clip-rule="evenodd" d="M124.385 85.6147H153.011C153.779 85.6147 154.48 85.9036 155.011 86.3786C155.541 85.9036 156.242 85.6147 157.01 85.6147H185.636L185.981 88.221L228.397 408.623C228.615 410.266 227.459 411.774 225.817 411.991C224.174 412.208 222.666 411.053 222.449 409.411L180.378 91.6147H157.01C156.242 91.6147 155.541 91.3259 155.011 90.8509C154.48 91.3259 153.779 91.6147 153.011 91.6147H129.643L87.5721 409.411C87.3546 411.053 85.8468 412.208 84.2043 411.991C82.5618 411.774 81.4065 410.266 81.6239 408.623L124.385 85.6147Z" fill="#ACACAC"/>
<path fill-rule="evenodd" clip-rule="evenodd" d="M125.64 97.1345C126.67 96.2154 128.251 96.3054 129.17 97.3357L197.866 174.336L196 178.5H117C115.619 178.5 114.5 177.381 114.5 176C114.5 174.619 115.619 173.5 117 173.5H190.419L125.439 100.664C124.52 99.634 124.61 98.0537 125.64 97.1345Z" fill="#ACACAC"/>
<path d="M141 66.25C141 65.6977 141.448 65.25 142 65.25H164C164.552 65.25 165 65.6977 165 66.25V89.25H141V66.25Z" fill="#ACACAC"/>
<path d="M148.797 36C148.797 35.4477 149.245 35 149.797 35H155.906C156.459 35 156.906 35.4477 156.906 36V393.05C156.906 393.602 156.459 394.05 155.906 394.05H149.797C149.245 394.05 148.797 393.602 148.797 393.05V36Z" fill="#ACACAC"/>
<path d="M104.195 169.224H201.508V180.969H104.195V169.224Z" fill="#ACACAC"/>
<path d="M90.6797 253.114H212.32V264.859H90.6797V253.114Z" fill="#ACACAC"/>
</g>
<path fill-rule="evenodd" clip-rule="evenodd" d="M832 359H1158C1124.25 290.581 1063.87 245 995 245C926.133 245 865.755 290.581 832 359Z" fill="#36631D"/>
<path d="M546.047 110.893C549.58 109.947 551.576 105.939 550.505 101.942C549.434 97.9456 545.701 95.4729 542.168 96.4195L515.159 103.657C511.626 104.603 509.63 108.611 510.701 112.608C511.772 116.605 515.504 119.077 519.037 118.131L546.047 110.893Z" fill="#F9B500"/>
<path d="M539.575 171.8C542.723 173.618 546.749 172.539 548.566 169.391C550.384 166.243 549.305 162.217 546.157 160.399L522.088 146.503C518.94 144.686 514.914 145.764 513.097 148.913C511.279 152.061 512.358 156.087 515.506 157.904L539.575 171.8Z" fill="#F9B500"/>
<path d="M492.213 70.9767C490.396 74.125 491.475 78.1507 494.623 79.9684C497.771 81.786 501.797 80.7073 503.614 77.5591L517.51 53.4905C519.328 50.3422 518.249 46.3165 515.101 44.4989C511.953 42.6812 507.927 43.7599 506.109 46.9082L492.213 70.9767Z" fill="#F9B500"/>
<g filter="url(#filter0_d_16339_106011)">
<path d="M411.041 254.962V395.549L278.294 412.697V331.598L411.041 254.962Z" fill="#70A739"/>
<path d="M411.042 254.962L278.295 331.6L145.56 254.962L278.295 178.324L411.042 254.962Z" fill="#70A739"/>
<path d="M278.294 452.578V484.864L145.559 408.226V338.472L278.112 452.616L278.294 452.578Z" fill="#754C24"/>
<path d="M278.294 412.698V452.578L278.107 452.622L145.559 338.48V293.271L278.112 412.715L278.294 412.698Z" fill="#C78A0C"/>
<path d="M278.294 331.6V412.699L278.106 412.719L145.553 293.274V254.962L278.294 331.6Z" fill="#70A739"/>
<path d="M281.503 484.864H275.085V333.453L143.954 257.741L147.162 252.183L281.503 329.748V484.864Z" fill="#1D1D1B"/>
<path d="M409.433 252.176L276.693 328.826L279.903 334.384L412.643 257.734L409.433 252.176Z" fill="#1D1D1B"/>
<path d="M278.294 488.569L142.349 410.081V253.107L143.954 252.183L278.294 174.619L414.249 253.107V410.079L278.294 488.569ZM148.767 406.374L278.294 481.159L407.831 406.374V256.814L278.294 182.029L148.767 256.814V406.374Z" fill="#1D1D1B"/>
<path d="M277.258 456.12L143.465 340.909L147.654 336.045L278.947 449.103L376.954 424.339L378.527 430.56L278.85 455.745L277.258 456.12Z" fill="#1D1D1B"/>
<path d="M277.038 416.073L275.964 415.103L143.41 295.659L147.706 290.89L279.166 409.352L410.627 392.37L411.45 398.745L278.476 415.919L277.038 416.073Z" fill="#1D1D1B"/>
<path d="M306.121 221.553H246.421V270.239H306.121V221.553Z" fill="white"/>
<path d="M337.779 206.023L315.229 209.363L327.047 236.765L359.493 217.715L382.878 193.495L371.185 182.638L352.812 199.342L337.779 206.023Z" fill="white" stroke="#1D1D1D" stroke-width="5"/>
<path d="M253.974 228.808L245.437 245.746L256.369 258.794V281.633H238.322L217.272 254.977L238.322 204.996C237.269 171.806 239.026 142.897 239.026 142.897C239.026 142.897 260.348 129.789 268.437 128.572C277.705 127.18 305.478 134.345 305.478 134.345L338.45 162.108L338.707 162.329C338.867 163.493 338.948 164.665 338.949 165.839C338.855 170.787 337.621 175.647 335.343 180.04C328.755 193.456 315.236 203.466 313.323 204.836C313.177 204.945 313.096 204.998 313.096 204.998L334.148 254.979L313.094 272.26H295.039V258.796L305.971 245.748L297.435 228.81" fill="white"/>
<path d="M309.071 203.749L329.86 253.641L311.109 267.704L314.859 273.33L337.843 255.482L317.029 206.076C321.704 202.465 332.388 193.333 338.218 181.463C340.716 176.63 342.064 171.284 342.156 165.844C342.154 164.527 342.063 163.211 341.884 161.906L341.719 160.704L306.984 131.435L306.277 131.248C303.369 130.494 277.593 123.959 267.959 125.407C259.471 126.684 239.583 138.795 237.344 140.172L235.923 141.045L235.822 142.711C235.803 142.997 234.089 171.737 235.09 204.402L213.577 255.482L236.767 284.846H259.581V257.631L249.255 245.307L256.842 230.254L251.111 227.366L241.625 246.19L253.165 259.965V278.427H239.879L220.939 254.479L241.526 205.6L241.503 204.899C240.611 176.738 241.766 151.383 242.111 144.768C248.796 140.753 263.234 132.602 268.887 131.752C275.756 130.717 295.868 135.233 303.952 137.28L335.641 163.961C335.696 164.593 335.722 165.223 335.722 165.846C335.628 170.302 334.507 174.677 332.446 178.63C326.146 191.462 312.926 201.169 311.359 202.294L309.071 203.749Z" fill="#1D1D1D"/>
<path d="M314.86 267.704H256.731V273.329H314.86V267.704Z" fill="#1D1D1B"/>
<path d="M338.945 165.844C338.851 170.791 337.617 175.651 335.339 180.044L323.659 166.181L338.701 162.335C338.862 163.498 338.944 164.67 338.945 165.844V165.844Z" fill="#1D1D1B"/>
<path d="M260.894 162.954H248.828C248.38 162.953 247.937 162.859 247.528 162.677C247.119 162.495 246.752 162.229 246.452 161.897C246.152 161.564 245.924 161.173 245.785 160.748C245.645 160.322 245.595 159.872 245.64 159.427L246.645 149.37C246.706 148.753 246.945 148.167 247.333 147.683L251.353 142.654C251.654 142.278 252.036 141.975 252.47 141.766C252.904 141.558 253.379 141.45 253.86 141.45H263.917V147.869H255.404L252.936 150.951L252.373 156.535H260.894V162.954Z" fill="#1D1D1B"/>
<path d="M335.797 181.879V195.005C335.798 195.179 335.747 195.35 335.65 195.495C335.554 195.64 335.416 195.753 335.255 195.819C335.094 195.886 334.917 195.903 334.746 195.868C334.575 195.833 334.419 195.748 334.297 195.624L329.524 190.852L335.797 181.879Z" fill="white"/>
<path d="M334.915 198.555C334.45 198.555 333.988 198.463 333.558 198.284C333.128 198.105 332.737 197.843 332.408 197.513L326.052 191.154L338.471 173.382V195.002C338.468 195.945 338.092 196.849 337.424 197.515C336.756 198.181 335.851 198.555 334.908 198.555H334.915ZM333.005 190.543L333.123 190.661V190.376L333.005 190.543Z" fill="#1D1D1B"/>
<path d="M336.21 186.066L331.535 180.503L332.473 178.628C334.532 174.676 335.652 170.302 335.747 165.847C335.746 164.819 335.675 163.792 335.535 162.773L341.785 161.403C344.597 170.628 338.724 181.498 338.473 181.958L336.21 186.066Z" fill="#1D1D1B"/>
<path d="M312.438 209.421L310.617 206.565C307.635 201.868 305.969 196.456 305.794 190.895C305.618 185.334 306.94 179.828 309.62 174.953C312.3 170.077 316.241 166.011 321.03 163.178C325.819 160.346 331.28 158.853 336.844 158.853C337.438 158.853 338.031 158.869 338.624 158.902L339.715 158.96L341.719 160.687L341.884 161.889C342.065 163.194 342.156 164.509 342.158 165.827C342.066 171.267 340.719 176.613 338.22 181.446C331.376 195.386 317.836 205.538 315.19 207.432L312.438 209.421ZM335.73 165.303C331.719 165.489 327.813 166.651 324.353 168.69C320.893 170.728 317.983 173.581 315.876 177C313.769 180.419 312.529 184.301 312.264 188.308C311.999 192.315 312.716 196.326 314.354 199.993C318.963 196.254 327.697 188.332 332.466 178.617C334.526 174.664 335.647 170.289 335.742 165.832C335.738 165.663 335.736 165.485 335.73 165.303V165.303Z" fill="#1D1D1B"/>
<path d="M300.958 161.765C300.606 162.117 300.13 162.314 299.633 162.314C299.136 162.314 298.659 162.117 298.307 161.765L289.622 153.079L280.855 161.846C280.504 162.197 280.027 162.395 279.53 162.395C279.033 162.395 278.556 162.197 278.205 161.846L276.167 159.808C275.815 159.457 275.618 158.98 275.618 158.483C275.618 157.986 275.815 157.509 276.167 157.158L288.358 144.967C288.709 144.616 289.186 144.418 289.683 144.418C290.18 144.418 290.656 144.616 291.008 144.967L293.046 147.005C293.088 147.048 293.13 147.09 293.172 147.131L303.057 157.016C303.408 157.367 303.605 157.844 303.605 158.341C303.605 158.838 303.408 159.315 303.057 159.666L300.958 161.765Z" fill="#2E2E2E"/>
<path opacity="0.6" d="M289.115 177.435C294.807 177.435 299.422 174.918 299.422 171.813C299.422 168.708 294.807 166.191 289.115 166.191C283.423 166.191 278.809 168.708 278.809 171.813C278.809 174.918 283.423 177.435 289.115 177.435Z" fill="#FFB2E8"/>
</g>
<ellipse cx="453.679" cy="129.264" rx="15.5165" ry="18.7831" transform="rotate(-15 453.679 129.264)" fill="#D9D9D9"/>
<path fill-rule="evenodd" clip-rule="evenodd" d="M469.418 130.06C467.62 137.078 461.433 143.25 452.963 145.52C451.557 145.897 450.152 146.149 448.762 146.284C451.829 147.816 455.234 148.293 458.541 147.407C465.483 145.547 469.791 138.27 469.418 130.06Z" fill="#BABABA"/>
<path fill-rule="evenodd" clip-rule="evenodd" d="M377.642 172.108L457.635 170.57L437.04 93.7054L366.994 132.369L377.642 172.108Z" fill="white"/>
<path d="M341.883 144.192C341.74 143.658 342.056 143.11 342.59 142.967L352.637 140.275L361.092 171.828L351.045 174.52C350.511 174.663 349.963 174.346 349.82 173.813L341.883 144.192Z" fill="#585858"/>
<rect x="371.939" y="180.757" width="11.4332" height="31.033" transform="rotate(-15 371.939 180.757)" fill="white"/>
<rect x="371.939" y="180.757" width="4.89994" height="31.033" transform="rotate(-15 371.939 180.757)" fill="#C4C4C4" fill-opacity="0.44"/>
<path fill-rule="evenodd" clip-rule="evenodd" d="M448.735 137.352L378.854 156.077L383.122 172.003L457.635 170.57L448.735 137.352Z" fill="#D9D9D9" fill-opacity="0.46"/>
<rect x="353.68" y="131.54" width="21.2331" height="52.2661" rx="1" transform="rotate(-15 353.68 131.54)" fill="#F9B500"/>
<path d="M438.533 88.5127L444.49 86.9167C445.557 86.6308 446.653 87.264 446.939 88.3309L468.731 169.661C469.017 170.728 468.384 171.824 467.317 172.11L461.361 173.706L438.533 88.5127Z" fill="#F9B500"/>
<path d="M435.897 91.29C435.611 90.2231 436.244 89.1264 437.311 88.8405L438.534 88.5127L461.362 173.706L460.138 174.034C459.071 174.32 457.975 173.687 457.689 172.62L435.897 91.29Z" fill="#585858"/>
<path d="M455.819 115.163C458.397 115.318 460.398 116.473 461.821 118.628" stroke="white" stroke-linecap="round"/>
<rect x="352.638" y="140.274" width="3.26663" height="32.6663" transform="rotate(-15 352.638 140.274)" fill="white"/>
</g>
<defs>
<filter id="filter0_d_16339_106011" x="137.349" y="124.198" width="281.9" height="373.371" filterUnits="userSpaceOnUse" color-interpolation-filters="sRGB">
<feFlood flood-opacity="0" result="BackgroundImageFix"/>
<feColorMatrix in="SourceAlpha" type="matrix" values="0 0 0 0 0 0 0 0 0 0 0 0 0 0 0 0 0 0 127 0" result="hardAlpha"/>
<feOffset dy="4"/>
<feGaussianBlur stdDeviation="2.5"/>
<feComposite in2="hardAlpha" operator="out"/>
<feColorMatrix type="matrix" values="0 0 0 0 0 0 0 0 0 0 0 0 0 0 0 0 0 0 0.25 0"/>
<feBlend mode="normal" in2="BackgroundImageFix" result="effect1_dropShadow_16339_106011"/>
<feBlend mode="normal" in="SourceGraphic" in2="effect1_dropShadow_16339_106011" result="shape"/>
</filter>
<clipPath id="clip0_16339_106011">
<rect width="1201" height="350" fill="white"/>
</clipPath>
</defs>
</svg>
